<svg fill="none" xmlns="http://www.w3.org/2000/svg" viewBox="0 0 15 24">
  <path d="M9.24622 18.9035C9.26231 18.9111 9.27799 18.9182 9.30694 18.9319C9.28723 18.9394 9.27477 18.944 9.28281 18.9409C9.30693 18.9935 9.33468 19.0442 9.35357 19.0979C9.37086 19.1478 9.3789 19.2012 9.39579 19.2734C9.34312 19.3097 9.32744 19.3755 9.38212 19.4599C9.39901 19.4864 9.3789 19.5329 9.3793 19.57C9.37971 19.6036 9.38815 19.6373 9.38735 19.671C9.38694 19.6933 9.37649 19.7152 9.36765 19.7493C9.38936 19.7564 9.4376 19.7614 9.46735 19.7859C9.49912 19.8124 9.51279 19.8574 9.5357 19.8964C9.64788 19.8154 9.76246 19.8658 9.79543 19.9928C9.80347 20.0242 9.83966 20.0488 9.86057 20.0779C9.88951 20.118 9.92489 20.1566 9.94258 20.2009C9.96309 20.2531 9.97193 20.3102 9.97756 20.3662C9.98078 20.3987 9.96832 20.4324 9.96188 20.4713C9.97033 20.4834 9.9856 20.5057 10.0005 20.5281C9.95143 20.5352 9.90198 20.5424 9.87624 20.5462C9.79061 20.6075 9.71623 20.6608 9.64185 20.7142C9.68286 20.8507 9.68165 20.8484 9.53088 20.9131C9.48826 20.9313 9.45208 20.9665 9.41911 20.9994C9.41107 21.0077 9.42755 21.0376 9.43881 21.0811C9.41509 21.1121 9.37046 21.1669 9.33026 21.2248C9.30533 21.2604 9.37247 21.3598 9.43439 21.3772C9.42514 21.4048 9.41871 21.4336 9.40544 21.4593C9.39499 21.4801 9.37609 21.4971 9.3785 21.5312C9.39297 21.5206 9.40785 21.51 9.44363 21.4843C9.43117 21.5781 9.39619 21.659 9.4179 21.7233C9.45489 21.833 9.36363 21.841 9.31699 21.8909C9.30211 21.9068 9.32664 21.9635 9.34473 21.996C9.36242 22.0282 9.397 22.0513 9.41991 22.0815C9.46334 22.1383 9.39539 22.1489 9.37569 22.1818C9.34191 22.2389 9.32302 22.307 9.31256 22.3728C9.29809 22.4662 9.26191 22.5774 9.3001 22.6508C9.33548 22.7189 9.31337 22.8267 9.41831 22.8611C9.42836 22.8645 9.43841 22.8698 9.44604 22.8762C9.49389 22.9178 9.516 23.1781 9.4762 23.2238C9.46414 23.2375 9.43841 23.253 9.44082 23.2636C9.46816 23.3952 9.4179 23.4739 9.26552 23.4852C9.30251 23.523 9.36765 23.545 9.27879 23.5888C9.2414 23.6074 9.22532 23.6615 9.19396 23.6948C9.17989 23.7099 9.14973 23.725 9.13084 23.7212C9.03836 23.7027 8.93825 23.6925 8.85784 23.6509C8.77944 23.61 8.71029 23.5843 8.61982 23.5945C8.58002 23.5991 8.53539 23.5665 8.4988 23.5529C8.44292 23.5745 8.37819 23.5957 8.31788 23.6244C8.23184 23.6653 8.14781 23.7099 8.06539 23.7564C7.95965 23.8158 7.88929 23.8033 7.82094 23.7004C7.55156 23.7882 7.26771 23.7931 6.96215 23.7734C6.854 23.6505 6.78525 23.638 6.56331 23.7065C6.47406 23.7341 6.36952 23.7103 6.29032 23.7761C6.2871 23.7787 6.2674 23.7632 6.26298 23.7609C6.22719 23.8158 6.19342 23.8684 6.15281 23.9312C6.0913 23.8544 6.00365 23.938 5.92525 23.8793C5.86414 23.8336 5.76564 23.8294 5.68201 23.8139C5.60321 23.7995 5.52239 23.7946 5.43274 23.7844V23.9852C5.40942 23.9883 5.36439 23.9943 5.31976 24C5.31534 23.9516 5.31091 23.9032 5.3081 23.874C5.24136 23.8771 5.16376 23.8877 5.08777 23.8816C5.0142 23.8759 4.94183 23.8536 4.86222 23.8374C4.85538 23.888 4.79709 23.8986 4.74683 23.8616C4.72271 23.8438 4.73396 23.7829 4.72793 23.7307C4.69215 23.7227 4.61737 23.7178 4.55626 23.6883C4.52329 23.6724 4.49635 23.6142 4.49635 23.5752C4.49595 23.388 4.50519 23.2008 4.51123 23.0135C4.51123 23.0033 4.51444 22.9878 4.50881 22.9836C4.38981 22.8932 4.51846 22.8463 4.55505 22.7949C4.6037 22.7264 4.64551 22.6795 4.55183 22.6122C4.51726 22.5872 4.49957 22.526 4.49756 22.4806C4.49595 22.4371 4.54058 22.3913 4.53736 22.3482C4.53052 22.2555 4.61495 22.1837 4.57716 22.0777C4.54299 21.9813 4.56349 21.8671 4.56028 21.7608C4.56028 21.7577 4.56269 21.7532 4.5651 21.7521C4.69738 21.6912 4.60691 21.5913 4.61536 21.5039C4.63385 21.5081 4.65194 21.5126 4.67044 21.5168L4.67969 21.5039C4.64873 21.4835 4.61737 21.4627 4.57756 21.4362C4.61053 21.3587 4.64672 21.2732 4.67325 21.2104C4.63265 21.1382 4.60249 21.0841 4.56792 21.0224C4.61817 21.0009 4.65878 20.9835 4.69778 20.9668C4.69215 20.8817 4.58078 20.8413 4.61214 20.7406C4.65235 20.6124 4.64993 20.4868 4.54339 20.3752C4.52007 20.3507 4.54821 20.286 4.5458 20.2402C4.54299 20.1873 4.54178 20.1317 4.52329 20.0829C4.5072 20.0413 4.45735 20.0114 4.44127 19.9698C4.42559 19.9289 4.41272 19.8661 4.43443 19.837C4.53294 19.7065 4.54178 19.5991 4.45856 19.4572C4.43805 19.4224 4.44649 19.3725 4.44368 19.3294C4.44288 19.3154 4.45534 19.2988 4.45092 19.2867C4.42318 19.2087 4.39181 19.1323 4.36327 19.0548C4.35885 19.0423 4.35563 19.0264 4.36005 19.0147C4.38257 18.9519 4.40629 18.8891 4.43323 18.8282C4.43765 18.8188 4.46298 18.8176 4.48549 18.8108C4.43403 18.7537 4.39463 18.6905 4.33673 18.6504C4.25833 18.596 4.2917 18.5385 4.33513 18.5094C4.4079 18.4609 4.38217 18.4129 4.34879 18.3732C4.29331 18.3066 4.28286 18.2612 4.35161 18.1905C4.39141 18.1493 4.38458 18.0691 4.40307 18.0074C4.40951 17.9859 4.42961 17.9681 4.45614 17.9303C4.41232 17.8368 4.38578 17.7294 4.49836 17.6091C4.56068 17.5426 4.54902 17.4261 4.52007 17.3232C4.4867 17.2036 4.48147 17.0773 4.46258 16.9434C4.50037 16.9585 4.54178 16.9748 4.58239 16.9911C4.5848 16.9687 4.58319 16.9317 4.59445 16.8992C4.61616 16.8364 4.59445 16.7925 4.55384 16.7414C4.5253 16.7059 4.51685 16.6503 4.51404 16.6026C4.50841 16.5084 4.50801 16.4131 4.51404 16.3189C4.51846 16.252 4.53374 16.1892 4.47223 16.1336C4.46016 16.1226 4.47826 16.0768 4.48911 16.0492C4.51042 15.9936 4.55143 15.9373 4.45574 15.9044C4.44127 15.8994 4.42679 15.8715 4.4276 15.8548C4.43162 15.7716 4.44408 15.6888 4.4469 15.6055C4.45011 15.503 4.4469 15.4002 4.4469 15.2973C4.4469 15.2485 4.44891 15.1993 4.44489 15.1509C4.44288 15.1255 4.43122 15.1006 4.41996 15.0768C4.40508 15.0442 4.38659 15.0132 4.3697 14.9814L4.39543 14.964L4.46539 15.0177C4.47343 15.0098 4.48188 15.0022 4.48992 14.9943C4.46298 14.9701 4.43604 14.9463 4.39302 14.9077C4.41996 14.8456 4.45253 14.7723 4.48348 14.6981C4.48791 14.6879 4.49032 14.6675 4.48509 14.6641C4.36809 14.5877 4.43845 14.4924 4.46217 14.4084C4.48027 14.3437 4.5253 14.2858 4.55786 14.2261C4.49434 14.1727 4.51283 14.0415 4.58681 14.0214C4.63144 14.0093 4.63828 14.009 4.63064 13.9556C4.61898 13.8739 4.64712 13.7869 4.65999 13.7022C4.66883 13.6424 4.67969 13.5827 4.68853 13.5301C4.7215 13.5422 4.75366 13.5543 4.78623 13.566C4.79427 13.5577 4.80231 13.5494 4.81035 13.5411C4.77899 13.5048 4.74723 13.4681 4.70341 13.417C4.71949 13.3746 4.70502 13.3361 4.60933 13.3338C4.53052 13.3319 4.45293 13.3005 4.37372 13.2944C4.28004 13.2876 4.18516 13.2941 4.09108 13.2956C4.07379 13.2956 4.04766 13.3096 4.04042 13.3031C3.91216 13.1825 3.80843 13.2967 3.71274 13.3455C3.62188 13.3917 3.55956 13.3985 3.49242 13.3153C3.45744 13.3622 3.48357 13.4499 3.38748 13.4401C3.38628 13.4401 3.38024 13.4775 3.3521 13.4998C3.34848 13.4647 3.34446 13.4299 3.34044 13.3939C3.15308 13.3875 3.0783 13.3274 3.05659 13.1288C2.98141 13.1923 2.9219 13.2426 2.84069 13.3111C2.78158 13.3149 2.68348 13.3149 2.5878 13.3296C2.49371 13.3444 2.40245 13.3743 2.30113 13.3996C2.29027 13.3852 2.26736 13.3542 2.24243 13.3205C2.15317 13.4363 2.06191 13.4109 1.97466 13.3315C1.87897 13.4038 1.79052 13.4703 1.66428 13.4533C1.65382 13.4518 1.64176 13.4741 1.62769 13.4802C1.59271 13.4957 1.55612 13.5078 1.52034 13.5214C1.49782 13.5297 1.46164 13.5327 1.45521 13.5475C1.39208 13.692 1.2779 13.6133 1.19146 13.5921C1.13638 13.5789 1.09858 13.51 1.04511 13.4783C1.01857 13.4624 0.973142 13.4707 0.936957 13.4745C0.877051 13.4805 0.816342 13.4855 0.75925 13.5017C0.701354 13.518 0.647076 13.5471 0.594005 13.5698C0.541737 13.5025 0.489069 13.4348 0.427957 13.3565C0.414689 13.364 0.390163 13.3784 0.353978 13.3992C0.357998 13.3618 0.360813 13.3319 0.364029 13.3024C0.28402 13.2498 0.249443 13.1273 0.1039 13.1689C0.194362 13.0229 -0.0332003 13.0248 0.00419077 12.9094C0.0343449 12.8859 0.0769621 12.8527 0.119178 12.8197L0.0990751 12.8126C0.1236 12.7615 0.147724 12.7101 0.172249 12.659C0.176672 12.6499 0.188733 12.6401 0.187125 12.6325C0.160188 12.5069 0.27035 12.4638 0.350359 12.4241C0.500728 12.3492 0.474997 12.2304 0.451678 12.1196C0.439214 12.061 0.452884 12.033 0.490677 11.9971C0.612098 11.8821 0.605263 11.7924 0.471781 11.6816C0.461729 11.6733 0.449265 11.6589 0.450069 11.6479C0.456904 11.5556 0.451276 11.4592 0.479017 11.3722C0.506759 11.2852 0.569077 11.2077 0.615313 11.1275C0.515068 11.0506 0.504614 10.9637 0.583953 10.8669C0.55782 10.8495 0.531686 10.8324 0.492687 10.8063C0.519625 10.7753 0.543346 10.7481 0.565861 10.7224C0.503141 10.6758 0.45811 10.6225 0.536511 10.5438C0.545758 10.5348 0.541335 10.5026 0.531284 10.4897C0.45811 10.3948 0.427956 10.2999 0.496305 10.1883C0.513996 10.1595 0.500326 10.1141 0.502336 10.0767C0.505552 10.0154 0.510779 9.95414 0.513594 9.89249C0.518418 9.79074 0.51681 9.68823 0.527666 9.58724C0.532892 9.5392 0.553397 9.49041 0.577923 9.44729C0.610891 9.38866 0.654313 9.3357 0.697735 9.27329C0.658736 9.268 0.631396 9.26459 0.627376 9.26384V9.08909C0.696529 9.0055 0.771311 8.91585 0.855743 8.8141C0.885093 8.84134 0.913236 8.86781 0.95706 8.90829C1.05275 8.9011 0.928112 8.8436 0.954648 8.79935C1.0624 8.86819 1.16894 8.93628 1.30363 9.02214C1.34464 8.99453 1.41178 8.94346 1.48616 8.90412C1.50868 8.8924 1.55049 8.91509 1.58386 8.91963C1.63211 8.92644 1.688 8.948 1.7274 8.93287C1.83515 8.89164 1.88541 8.97524 1.95777 9.01041C1.96783 9.01533 1.97225 9.03046 1.97949 9.04105C2.08804 8.9393 2.25369 9.09287 2.35862 8.96616C2.36948 8.9533 2.40325 8.95708 2.42577 8.95254C2.46718 8.94422 2.51703 8.94573 2.54839 8.92417C2.6288 8.86857 2.67786 8.87008 2.73776 8.94384C2.76148 8.97334 2.78842 9.00096 2.82501 9.04181C2.94683 8.88824 3.06825 8.91623 3.17681 9.05126C3.20897 9.00058 3.23349 8.96237 3.25882 8.92228C3.2741 8.9306 3.28657 8.93363 3.29139 8.94081C3.36135 9.04332 3.45221 9.02857 3.55232 8.98658C3.66329 8.94044 3.73204 8.97486 3.75657 9.09211C3.77948 9.08417 3.80079 9.07623 3.82291 9.0698C3.84864 9.06261 3.89487 9.04672 3.89849 9.0524C3.97448 9.18176 4.0573 9.03122 4.13329 9.06753C4.13892 9.05694 4.14415 9.04635 4.14978 9.03613C4.10233 9.00701 4.05489 8.97788 4.00745 8.94838C3.99418 8.95254 3.98091 8.9567 3.96765 8.96086C3.99458 8.88332 4.02554 8.80692 4.04766 8.72786C4.06293 8.67302 4.08062 8.61325 4.07258 8.55916C4.06293 8.4941 4.0565 8.44191 4.09389 8.3776C4.1144 8.3428 4.08746 8.26942 4.05972 8.2263C3.98091 8.10375 4.03399 7.99028 4.08666 7.88475C4.10475 7.84843 4.19079 7.84238 4.2322 7.82763C4.19642 7.682 4.15581 7.53146 4.12485 7.37903C4.12003 7.35444 4.15299 7.32002 4.1747 7.29506C4.21692 7.24664 4.30779 7.21373 4.22376 7.13203C4.21893 7.12712 4.2125 7.12106 4.2125 7.11539C4.2121 7.07757 4.22617 7.03369 4.21009 7.00343C4.1936 6.97203 4.14857 6.95388 4.11802 6.93118C4.17511 6.82187 4.23139 6.92437 4.28447 6.92021C4.30336 6.78518 4.28447 6.75757 4.14576 6.72542C4.13892 6.64334 4.14616 6.57071 4.22496 6.50944C4.30698 6.44551 4.30296 6.29535 4.22858 6.22008C4.16747 6.15804 4.15139 6.10509 4.24305 6.04949C4.30497 6.01204 4.36327 5.96362 4.4087 5.90916C4.43604 5.87625 4.43805 5.82292 4.44569 5.7779C4.47142 5.62244 4.36447 5.49422 4.34357 5.34973C4.33191 5.27105 4.36769 5.18973 4.28004 5.12391C4.26195 5.1103 4.2905 5.02822 4.31301 4.98472C4.32427 4.96278 4.3697 4.95673 4.41393 4.93744C4.40589 4.87994 4.39503 4.80013 4.38216 4.70784C4.37694 4.70633 4.3496 4.69763 4.28808 4.67872C4.3685 4.64392 4.42197 4.62084 4.47102 4.59966C4.49876 4.54973 4.52851 4.4964 4.56671 4.42832C4.51042 4.38633 4.4477 4.31825 4.48107 4.21839C4.48831 4.19683 4.51042 4.173 4.53213 4.16354C4.56309 4.14993 4.62662 4.15409 4.63023 4.14047C4.64431 4.08562 4.69617 4.02019 4.61295 3.97253C4.60812 3.96988 4.60772 3.96042 4.63064 3.9574C4.63747 3.91919 4.64109 3.88024 4.65235 3.84354C4.65958 3.81972 4.67647 3.79778 4.69255 3.77697C4.77135 3.67674 4.8385 3.57764 4.80714 3.43882C4.7987 3.40137 4.85297 3.32686 4.8968 3.3087C5.01299 3.26104 4.95308 3.18161 4.94826 3.11693C4.94585 3.08516 4.90403 3.05603 4.86584 3.03296C4.83367 2.95844 4.83448 2.89225 4.92976 2.83665C5.02988 2.77802 5.00334 2.67325 4.97841 2.57452C5.01419 2.55712 5.04877 2.5401 5.07772 2.52611C5.08817 2.43041 5.07169 2.31996 5.11672 2.24053C5.16778 2.15126 5.26709 2.0794 5.35956 2.01963C5.446 1.96365 5.49144 1.9542 5.42751 1.83202C5.39293 1.76545 5.42751 1.70834 5.52722 1.69018C5.58351 1.67997 5.61366 1.66673 5.61165 1.60848C5.60763 1.50408 5.68 1.44091 5.76885 1.40914C5.86414 1.3751 5.90073 1.33274 5.84243 1.22872C5.9538 1.17917 6.06074 1.13264 6.16568 1.08347C6.18699 1.07326 6.21554 1.05283 6.21795 1.03468C6.23001 0.931414 6.29233 0.892076 6.39646 0.893589C6.41294 0.893589 6.42943 0.882241 6.42018 0.860303C6.44913 0.819831 6.47888 0.780115 6.50662 0.738886C6.52391 0.713543 6.53838 0.686687 6.55406 0.660588C6.56733 0.63865 6.57537 0.603473 6.59467 0.597421C6.70202 0.561866 6.81138 0.532362 6.92074 0.502859C7.02085 0.476003 7.12418 0.458226 7.22188 0.42494C7.28621 0.403002 7.33928 0.350047 7.40441 0.331513C7.45507 0.317139 7.51618 0.331891 7.57207 0.338321C7.62353 0.344373 7.67459 0.356099 7.72565 0.365555C7.75259 0.250946 7.78958 0.242624 7.91422 0.267589C7.96729 0.278558 8.0666 0.253215 8.0859 0.216904C8.15545 0.0860298 8.26441 0.15071 8.34522 0.166219C8.45981 0.188157 8.53539 0.196478 8.56072 0.0629564C8.56595 0.0357226 8.62947 -0.00285829 8.66244 0.000167694C8.76657 0.0100021 8.87392 -0.0183666 8.97202 0.0656044C9.08942 0.16584 9.27919 0.15298 9.48585 0.0648478C9.52887 0.112129 9.57068 0.197991 9.64587 0.154871C9.73553 0.103429 9.80186 0.165462 9.87705 0.160166C9.945 0.155627 10.0117 0.131041 10.0773 0.109859C10.0998 0.102673 10.1159 0.0780866 10.1348 0.0614437C10.14 0.0837603 10.1416 0.10759 10.1521 0.127259C10.1613 0.144658 10.1806 0.157519 10.2039 0.181348V0.124611C10.2803 0.161679 10.3314 0.157897 10.4025 0.0924597C10.454 0.0451787 10.563 0.0489615 10.6474 0.0383705C10.694 0.0326968 10.7435 0.0440442 10.7885 0.0531222C10.8323 0.0622001 10.879 0.0656046 10.92 0.0811127C10.9747 0.101916 11.0253 0.132932 11.0776 0.158653C11.1049 0.17227 11.1351 0.198748 11.16 0.194965C11.2288 0.184374 11.2991 0.16811 11.3626 0.141254C11.4624 0.0988902 11.5601 0.0697648 11.6706 0.0977552C11.6895 0.102672 11.714 0.0882993 11.7506 0.0792214C11.8314 0.130663 12.0095 0.137093 12.0413 0.0780867C12.0703 0.152223 12.1479 0.166975 12.2512 0.11629C12.2624 0.110994 12.2689 0.0898125 12.2781 0.0894342C12.3151 0.0886777 12.3525 0.0932166 12.3895 0.0958644C12.3827 0.125368 12.3758 0.154493 12.3674 0.192696C12.3863 0.207069 12.4124 0.226738 12.4389 0.246785C12.4434 0.244137 12.4478 0.24149 12.4522 0.238842L12.4104 0.176053C12.4132 0.172649 12.4164 0.168866 12.4192 0.165462C12.4434 0.183996 12.4715 0.199504 12.4908 0.221821C12.5125 0.246785 12.5266 0.277801 12.5507 0.317139C12.5772 0.283097 12.5949 0.260024 12.613 0.236951C12.646 0.267211 12.6187 0.34929 12.7063 0.332647C12.6999 0.303144 12.6934 0.273641 12.6858 0.23922C12.7204 0.246029 12.7702 0.256241 12.8237 0.267211C12.7887 0.336808 12.8225 0.446878 12.6898 0.41397C12.7272 0.432883 12.7642 0.452174 12.8036 0.472221C12.8201 0.34929 12.8977 0.318274 13.003 0.376902C13.0348 0.39468 13.1092 0.398841 13.1236 0.380685C13.194 0.291797 13.2234 0.371607 13.2704 0.41624C13.2776 0.382198 13.2825 0.360259 13.2901 0.325461C13.3412 0.365933 13.3866 0.401867 13.432 0.4378C13.4119 0.426075 13.5092 0.400354 13.4196 0.373876C13.4183 0.373876 13.4212 0.348912 13.4244 0.348156C13.4433 0.34513 13.471 0.337564 13.4807 0.346642C13.5567 0.416997 13.627 0.446122 13.7058 0.348156C13.7195 0.331135 13.7589 0.331891 13.8091 0.318652C13.8083 0.318274 13.8313 0.332647 13.8546 0.347399C13.8743 0.315248 13.8908 0.288014 13.9205 0.23922C13.9446 0.292175 13.9587 0.323191 13.9744 0.357612C14.0785 0.372742 14.167 0.41624 14.2036 0.524419C14.2064 0.533119 14.2116 0.54371 14.2188 0.548627C14.3877 0.659454 14.3648 0.810375 14.3206 0.966969C14.292 1.06872 14.3097 1.09973 14.3744 1.10389C14.3901 1.24233 14.3917 1.38115 14.4255 1.51278C14.4484 1.6028 14.3925 1.6255 14.3407 1.66068C14.3041 1.68564 14.2627 1.7038 14.2401 1.7299C14.2309 2.13727 14.3813 2.52535 14.3378 2.93651C14.3254 2.93461 14.3009 2.93121 14.2763 2.92781C14.2715 2.93386 14.2671 2.93991 14.2623 2.94558C14.298 2.97584 14.3338 3.0061 14.372 3.03825C14.2707 3.11126 14.4026 3.13357 14.3913 3.18691C14.3969 3.27693 14.3901 3.36922 14.4102 3.45584C14.45 3.62832 14.4999 3.79929 14.5554 3.96799C14.5779 4.03683 14.5546 4.07655 14.4946 4.09281C14.3684 4.12723 14.2401 4.16014 14.1103 4.17754C13.9338 4.20137 13.75 4.19267 13.5788 4.23352C13.5004 4.25205 13.4192 4.28761 13.3375 4.31409C13.2032 4.35758 13.0818 4.33111 12.9592 4.30085C12.8639 4.2774 12.7875 4.27134 12.7139 4.34851C12.6858 4.37839 12.6275 4.38255 12.5781 4.40033C12.5612 4.34359 12.5495 4.30349 12.5403 4.27172C12.4176 4.29404 12.3083 4.31409 12.1905 4.33565C12.1571 4.24297 12.0875 4.17716 11.9689 4.20288C11.9078 4.21612 11.8435 4.24487 11.7973 4.2842C11.7092 4.3591 11.6135 4.38141 11.4981 4.35569C11.4567 4.26832 11.4213 4.26113 11.3321 4.31673C11.2774 4.35115 11.2163 4.37687 11.1588 4.40713C11.1266 4.42416 11.1295 4.42378 11.1487 4.46728C11.1528 4.47598 11.1307 4.50737 11.1234 4.50661C11.0856 4.5017 11.049 4.48997 11.0141 4.48127C10.9441 4.53914 10.9148 4.61971 10.7853 4.63976C10.6864 4.65489 10.5095 4.68477 10.4906 4.85044C10.4898 4.85876 10.4781 4.87087 10.4697 4.87238C10.3599 4.89318 10.3072 4.9503 10.3454 5.07323C10.2035 5.00741 10.1709 5.09139 10.1199 5.1746C10.0917 5.22037 10.0073 5.23209 9.9651 5.27408C9.93092 5.30774 9.89474 5.37167 9.9068 5.40836C9.94258 5.51918 9.92369 5.61148 9.85534 5.70263C9.80548 5.76883 9.78618 5.83691 9.83885 5.91597C9.88268 5.98178 9.91967 6.05403 9.94339 6.12816C9.95545 6.16523 9.945 6.22348 9.91967 6.25298C9.87825 6.30178 9.8867 6.32674 9.91967 6.37591C9.94138 6.40882 9.9253 6.46859 9.91525 6.51435C9.90117 6.57828 9.79101 6.62442 9.87745 6.70915C9.8867 6.71823 9.87544 6.75757 9.86177 6.77345C9.76689 6.88239 9.78337 6.97771 9.88187 7.07794C9.95384 7.15094 9.91364 7.23189 9.79342 7.26707C9.85534 7.37222 9.74357 7.41912 9.70256 7.48834C9.66959 7.54432 9.6326 7.58026 9.69009 7.64569C9.70859 7.6665 9.67281 7.72966 9.64868 7.77127C9.67642 7.8942 9.50032 8.04399 9.68366 8.1533C9.58596 8.2002 9.59481 8.29666 9.7114 8.41543C9.68085 8.43245 9.6523 8.44834 9.6318 8.46006C9.68004 8.54479 9.72789 8.628 9.78136 8.72143C9.79945 8.67528 9.81473 8.63595 9.83805 8.57618C9.8674 8.60796 9.88951 8.63216 9.92168 8.66734C10.0234 8.64805 10.1392 8.62649 10.2554 8.60455C10.2562 8.59169 10.2574 8.57883 10.2582 8.56635C10.2839 8.59169 10.3097 8.61741 10.3362 8.64351C10.4484 8.60304 10.5545 8.50091 10.6824 8.56597C10.7547 8.57127 10.813 8.57883 10.8713 8.57807C10.8955 8.57807 10.9192 8.55841 10.9437 8.54895C11.0084 8.52285 11.0728 8.50091 11.1061 8.58829C11.2284 8.52512 11.5854 8.53609 11.6256 8.60796C11.7076 8.58261 11.7912 8.53458 11.8733 8.53647C12.0112 8.53949 12.1475 8.57732 12.2854 8.59396C12.3505 8.6019 12.418 8.59547 12.4892 8.59547C12.4904 8.60682 12.4936 8.63368 12.4956 8.65145C12.6593 8.64427 12.8201 8.63746 13.0018 8.62989C13.0062 8.63368 13.0308 8.65372 13.04 8.66129C13.0947 8.65902 13.1638 8.65145 13.1647 8.65675C13.1856 8.75396 13.2752 8.701 13.3275 8.72521C13.3934 8.75585 13.4638 8.78422 13.5357 8.79557C13.6109 8.80767 13.6901 8.79708 13.7677 8.79859C13.7886 8.79859 13.8168 8.79897 13.8284 8.8107C13.8646 8.84739 13.8771 8.81751 13.9072 8.80124C13.9732 8.76531 14.0403 8.75358 14.1107 8.8141C14.1501 8.84777 14.2168 8.85306 14.2848 8.87576C14.286 8.97297 14.3503 8.9185 14.4255 8.89769C14.3917 8.94422 14.358 8.99074 14.3202 9.04256C14.3567 9.04824 14.3945 9.05429 14.4464 9.06223C14.4215 9.09363 14.4038 9.11594 14.3708 9.15717C14.4432 9.14242 14.5003 9.11594 14.5497 9.1254C14.5956 9.1341 14.633 9.181 14.6687 9.2071C14.6 9.22563 14.5433 9.24077 14.4737 9.25968C14.5023 9.29145 14.518 9.30885 14.5385 9.33154C14.5602 9.29788 14.5795 9.26838 14.5988 9.23887C14.608 9.24152 14.6173 9.24417 14.6265 9.24682C14.6141 9.29145 14.6016 9.3357 14.5879 9.38412C14.53 9.40228 14.4774 9.414 14.3978 9.37126C14.2888 9.31339 14.1569 9.34554 14.0367 9.40644C14.0319 9.38677 14.0271 9.36559 14.021 9.341C13.9869 9.35424 13.9527 9.36748 13.9185 9.38109C13.9358 9.4019 13.9531 9.42232 13.9748 9.44804C13.9704 9.45523 13.9595 9.47377 13.945 9.49722C13.9696 9.49457 13.9848 9.49306 14.0001 9.49117C14.0005 9.49987 14.0013 9.50819 14.0017 9.51689H13.8803C13.8859 9.65759 14.0001 9.60464 14.093 9.60993C14.0745 9.72492 14.056 9.8384 14.0363 9.96284C14.0363 10.0162 14.0391 10.0861 14.0347 10.1554C14.0331 10.1815 14.0049 10.2072 14.0066 10.2322C14.0122 10.3244 13.9362 10.3483 13.8719 10.3713C13.7907 10.4005 13.6958 10.408 13.7384 10.5234C13.785 10.4886 13.8333 10.4519 13.8707 10.4243C13.8992 10.4784 13.9185 10.5151 13.9382 10.5525C13.9072 10.5499 13.8783 10.5472 13.8489 10.5446C13.8594 10.568 13.8735 10.5904 13.8795 10.6146C13.8883 10.6513 13.9072 10.6947 13.8948 10.7258C13.867 10.7946 13.8104 10.8536 13.7886 10.9232C13.773 10.9728 13.7943 11.0325 13.8011 11.0877C13.8035 11.1093 13.8148 11.1309 13.8148 11.1521C13.8152 11.2307 13.8244 11.3113 13.8079 11.3873C13.7902 11.4698 13.818 11.5742 13.7058 11.626C13.6905 11.6332 13.6817 11.696 13.6934 11.7051C13.7444 11.7433 13.7287 11.7845 13.7215 11.8318C13.7094 11.9074 13.6704 12.008 13.7062 12.0557C13.7838 12.1586 13.705 12.2191 13.6749 12.2925C13.6419 12.3727 13.5953 12.4476 13.555 12.5251C13.5434 12.547 13.5273 12.5693 13.5241 12.5924C13.5112 12.6874 13.5072 12.7834 13.4895 12.8776C13.4827 12.9132 13.4505 12.9457 13.4256 12.9763C13.4031 13.0047 13.3745 13.0285 13.3488 13.0546C13.3737 13.0762 13.3982 13.0978 13.4316 13.1269C13.383 13.1984 13.424 13.3221 13.307 13.3746C13.2752 13.3429 13.2487 13.316 13.2254 13.2922C13.2398 13.3682 13.2531 13.4389 13.264 13.4953C13.1437 13.5433 13.0428 13.591 12.9367 13.6228C12.8925 13.636 12.837 13.6152 12.7775 13.6088C12.7377 13.6882 12.64 13.6916 12.5419 13.6909C12.482 13.6905 12.4096 13.6462 12.3843 13.7468C12.3814 13.7586 12.2862 13.771 12.2592 13.7514C12.211 13.7166 12.1712 13.7139 12.1153 13.7192C12.0884 13.7219 12.0574 13.6837 12.0136 13.6542C12.0063 13.6568 11.9714 13.67 11.9255 13.6874C11.8797 13.5471 11.7458 13.5327 11.626 13.4983C11.509 13.4647 11.3912 13.406 11.2722 13.4949C11.1741 13.4393 11.1343 13.5263 11.0703 13.563C11.0297 13.5861 10.9763 13.5948 10.9276 13.5993C10.7411 13.6156 10.6313 13.7294 10.5356 13.8633C10.5079 13.9023 10.4761 13.9386 10.4411 13.9825C10.3893 13.9496 10.3487 13.9148 10.3008 13.8966C10.2654 13.883 10.2172 13.88 10.1814 13.8913C10.1223 13.9099 10.0093 13.855 9.96791 13.776C9.88348 13.6148 9.83845 13.6001 9.66316 13.6738C9.64466 13.6818 9.61169 13.6897 9.60164 13.681C9.50877 13.6012 9.44484 13.6878 9.33347 13.7219C9.56103 13.7865 9.5739 13.9322 9.52807 14.1016C9.51038 14.1092 9.47339 14.1187 9.44524 14.1395C9.41911 14.1584 9.40262 14.189 9.38172 14.2143C9.41388 14.2291 9.45047 14.2609 9.47741 14.2548C9.55581 14.2363 9.55339 14.2594 9.53771 14.3191C9.50193 14.4564 9.56988 14.5816 9.60325 14.7106C9.60888 14.7325 9.61813 14.7537 9.62576 14.7745C9.48826 14.829 9.45489 14.9531 9.53812 15.062C9.55943 15.09 9.56827 15.1274 9.57671 15.1619C9.59561 15.2375 9.62094 15.3135 9.62375 15.3899C9.62536 15.4372 9.60526 15.5045 9.56908 15.5303C9.48464 15.5897 9.516 15.6838 9.47137 15.7534C9.45449 15.7799 9.46856 15.8238 9.46856 15.8646C9.47821 15.8624 9.49992 15.8575 9.52203 15.8525C9.55621 15.9191 9.38735 15.9668 9.5152 16.0371C9.49952 16.0534 9.48545 16.0678 9.47821 16.0749C9.50233 16.1952 9.52565 16.3132 9.5538 16.454C9.55259 16.4706 9.55179 16.5137 9.54656 16.5565C9.54415 16.5757 9.53932 16.5988 9.52606 16.6128C9.47057 16.6714 9.49671 16.7183 9.54897 16.7584C9.60566 16.8019 9.61129 16.8488 9.58033 16.9082C9.56063 16.9457 9.54897 16.9873 9.53168 17.0315C9.52445 17.0293 9.49992 17.0225 9.46655 17.013C9.47499 17.0281 9.47741 17.0383 9.48384 17.0429C9.59842 17.1204 9.59963 17.1374 9.53209 17.2456C9.50676 17.2861 9.50515 17.3387 9.48786 17.3844C9.47821 17.4102 9.45972 17.4332 9.46012 17.4559C9.44886 17.5108 9.42715 17.5664 9.42956 17.6208C9.43157 17.6628 9.37649 17.7131 9.44363 17.7513C9.45288 17.7566 9.45047 17.7907 9.44363 17.8077C9.42313 17.8599 9.40222 17.9125 9.37327 17.9609C9.35759 17.987 9.32583 18.0044 9.28683 18.0381C9.3001 18.0547 9.33267 18.0952 9.36523 18.1356C9.36081 18.1428 9.35639 18.15 9.35196 18.1576C9.30774 18.1307 9.26392 18.1035 9.21929 18.0763C9.21286 18.0895 9.20602 18.0967 9.20763 18.1016C9.24663 18.2109 9.27759 18.324 9.32865 18.428C9.39579 18.5642 9.37167 18.6947 9.33829 18.8305C9.32463 18.8872 9.29085 18.8827 9.24904 18.8797C9.2406 18.8691 9.23255 18.8589 9.22331 18.8475C9.2024 18.8751 9.1831 18.9008 9.14973 18.9451C9.14089 18.8861 9.13646 18.8547 9.13043 18.8135C9.09224 18.8335 9.06289 18.849 9.01746 18.8728C9.05686 18.916 9.08862 18.978 9.11877 18.9772C9.163 18.9761 9.20562 18.93 9.24904 18.9031L9.24622 18.9035ZM12.8185 9.68937C12.9005 9.69655 12.9801 9.71887 13.0525 9.70639C13.1759 9.68521 13.2961 9.72833 13.2796 9.83461C13.2648 9.93031 13.2913 9.9965 13.3114 10.0816C13.348 10.2397 13.3315 10.4118 13.3194 10.5767C13.307 10.7458 13.2965 10.7473 13.1164 10.7364C13.0344 10.7314 12.9765 10.7553 12.9483 10.8324C12.9395 10.857 12.9214 10.879 12.9077 10.9017C12.9262 10.9346 12.9439 10.9667 12.9628 11C13.1003 10.9883 13.1055 10.9951 13.1538 11.1222C13.1791 11.1891 13.2177 11.2515 13.2499 11.3162C13.2587 11.3132 13.2676 11.3102 13.276 11.3071C13.264 11.2005 13.1751 11.0923 13.2808 10.9773C13.3223 10.9977 13.3621 11.0178 13.4039 11.0382C13.4091 11.0091 13.4139 10.9803 13.42 10.9474C13.3958 10.9516 13.3737 10.9557 13.3508 10.9599C13.3219 10.6153 13.3436 10.6471 13.4196 10.6441C13.4228 10.6157 13.4324 10.587 13.4268 10.5612C13.4212 10.5363 13.3999 10.5147 13.383 10.4882C13.4457 10.4856 13.6109 10.3456 13.6005 10.2866C13.5884 10.217 13.5374 10.1535 13.5048 10.0899C13.4976 10.0147 13.4895 9.93523 13.4819 9.85504C13.5289 9.85769 13.5635 9.85996 13.5981 9.86185C13.5989 9.8558 13.5997 9.84974 13.6005 9.84369C13.5864 9.83537 13.5719 9.82743 13.5502 9.81495C13.586 9.81154 13.6137 9.80889 13.6403 9.80625C13.621 9.73287 13.6021 9.66175 13.5892 9.61372C13.666 9.51991 13.744 9.42459 13.8377 9.30961C13.7665 9.31982 13.7042 9.33306 13.6411 9.33608C13.6013 9.33797 13.5607 9.32625 13.5209 9.31906C13.4976 9.31452 13.4594 9.29561 13.4545 9.30166C13.3922 9.38034 13.3721 9.31188 13.3387 9.25552C13.2748 9.29069 13.1992 9.30998 13.1638 9.35689C13.0947 9.44767 13.0481 9.46733 12.9516 9.40417C12.9041 9.37315 12.8221 9.40417 12.8193 9.45712C12.8157 9.53012 12.8185 9.60351 12.8185 9.68975V9.68937ZM13.0436 11.9116C13.0243 12.0285 12.9656 12.0659 12.8519 12.0179C12.8418 12.0137 12.8197 12.0288 12.8056 12.0383C12.7324 12.0867 12.7007 12.1476 12.7248 12.235C12.7521 12.3337 12.7172 12.3832 12.611 12.384C12.5278 12.3844 12.4928 12.4264 12.4695 12.4865C12.449 12.5398 12.4462 12.6007 12.418 12.6492C12.4016 12.6775 12.3521 12.6995 12.3147 12.704C12.2263 12.7154 12.1354 12.7116 12.0469 12.7225C12.0349 12.7241 12.0148 12.7804 12.0244 12.8005C12.0506 12.8545 12.2311 12.9045 12.2954 12.9022C12.3839 12.8992 12.4944 12.8557 12.5395 12.9854C12.5443 12.9994 12.6094 12.9975 12.6464 12.9979C12.6709 12.9979 12.7119 12.9794 12.7172 12.9869C12.7614 13.0505 12.8028 12.993 12.8346 12.9797C12.8531 12.9722 12.8615 12.9211 12.8579 12.8912C12.8418 12.7607 12.9021 12.6851 13.034 12.6787C13.038 12.67 13.042 12.6613 13.0456 12.6526C12.9998 12.634 12.954 12.6155 12.9202 12.6019C12.9339 12.5497 12.8514 12.4536 12.9817 12.4426C12.8611 12.3413 12.8607 12.3307 12.9544 12.2202C12.9693 12.2028 12.9713 12.1752 12.9781 12.1521C12.9845 12.131 12.9849 12.0935 12.9962 12.0905C13.1224 12.0557 13.0215 11.9728 13.0436 11.9112V11.9116ZM6.18578 17.7763C6.15764 17.7082 6.10296 17.7078 6.03381 17.7298C5.96586 17.7513 5.89429 17.7627 5.82554 17.782C5.79539 17.7903 5.76805 17.8066 5.7391 17.8187C5.69769 17.8361 5.65748 17.8591 5.61366 17.8694C5.53405 17.8879 5.45042 17.8917 5.37323 17.9163C5.34951 17.9238 5.31935 17.99 5.33061 18.0078C5.38569 18.0944 5.37805 18.1447 5.28759 18.1996C5.31775 18.3384 5.3471 18.4746 5.37645 18.6103C5.38811 18.6073 5.40017 18.6047 5.41183 18.6016C5.39615 18.5559 5.38047 18.5101 5.37444 18.4923C5.43233 18.4216 5.49304 18.3739 5.51556 18.3134C5.56501 18.1807 5.56943 18.1738 5.70975 18.2064C5.74071 18.2136 5.80986 18.1848 5.80946 18.1837C5.77328 18.0309 5.96908 18.0165 5.99802 17.9042C5.99883 17.9008 6.02657 17.9038 6.03099 17.9038C6.02335 17.8565 6.01652 17.8164 6.01009 17.7763H6.18578ZM5.62572 22.9296C5.75599 22.8721 5.87138 22.7673 6.00968 22.911C6.04627 22.8123 5.99762 22.7336 5.93168 22.7117C5.84323 22.6822 5.81589 22.6243 5.77609 22.5623C5.76242 22.5407 5.71739 22.5124 5.70332 22.5188C5.63859 22.5487 5.61889 22.5127 5.59597 22.47C5.57547 22.4322 5.55255 22.3959 5.54089 22.3762C5.48621 22.4598 5.42912 22.5471 5.36439 22.6455C5.34871 22.6145 5.33986 22.5971 5.33101 22.5797C5.32056 22.5831 5.31011 22.5865 5.29966 22.5899C5.3278 22.6848 5.35594 22.7798 5.38811 22.8887C5.38167 22.894 5.35514 22.9152 5.3278 22.9375C5.34066 22.9572 5.35474 22.9768 5.3664 22.9976C5.37806 23.0181 5.3873 23.0396 5.39735 23.0608C5.48058 23.0147 5.52279 23.0294 5.57466 23.1225C5.70975 23.0809 5.71458 23.0657 5.62532 22.9292L5.62572 22.9296ZM11.1427 9.50592C11.0571 9.5479 10.926 9.48587 10.8814 9.61372C10.879 9.62053 10.8528 9.6262 10.8416 9.6228C10.7165 9.5827 10.6389 9.75291 10.5087 9.68975C10.5047 9.68785 10.493 9.70525 10.4838 9.70677C10.4524 9.7113 10.419 9.71849 10.3893 9.71282C10.368 9.70904 10.3511 9.68559 10.3322 9.67121C10.2799 9.78393 10.3503 9.85844 10.4271 9.89135C10.5006 9.92275 10.5983 9.90346 10.6852 9.9061C10.6868 9.9061 10.6884 9.90081 10.6908 9.89816C10.7354 9.8418 10.7861 9.7983 10.8701 9.80625C10.8822 9.80738 10.8979 9.77296 10.9119 9.75556C10.9244 9.74043 10.9389 9.71131 10.9497 9.71244C11.1114 9.72946 11.1077 9.60313 11.1427 9.50592ZM5.91399 21.1847C5.78534 21.1215 5.7986 21.2456 5.75317 21.2876C5.72302 21.2778 5.69608 21.2698 5.66954 21.2607C5.61205 21.2414 5.56783 21.2721 5.58873 21.3156C5.64341 21.4317 5.51596 21.4956 5.51475 21.594C5.51475 21.625 5.49304 21.6662 5.46691 21.6844C5.37886 21.7456 5.36559 21.7914 5.42912 21.8875C5.54451 21.822 5.60562 21.7211 5.65387 21.6072C5.68362 21.5365 5.71136 21.4415 5.77127 21.4109C5.87942 21.3553 5.88665 21.2698 5.91399 21.1843V21.1847ZM5.51113 20.0394C5.60321 20.0042 5.65226 19.958 5.60964 19.8657C5.602 19.8487 5.6012 19.8181 5.61245 19.806C5.68925 19.7235 5.62653 19.6449 5.6209 19.5794C5.47656 19.5287 5.41102 19.6248 5.329 19.7129C5.36398 19.7474 5.41022 19.7893 5.45203 19.8351C5.46329 19.8476 5.47173 19.8797 5.46409 19.8869C5.3861 19.963 5.46972 19.9913 5.51154 20.039L5.51113 20.0394ZM5.45203 6.77534C5.42469 6.83359 5.28518 6.82943 5.35313 6.93875C5.42389 6.89714 5.49304 6.85667 5.53445 6.83246C5.53445 6.71558 5.53044 6.62102 5.53566 6.52684C5.54089 6.42887 5.55536 6.3309 5.56582 6.2318C5.45123 6.21856 5.43434 6.23521 5.42992 6.36003C5.42831 6.39937 5.41263 6.43833 5.4062 6.47766C5.39856 6.52494 5.38409 6.5745 5.39173 6.62026C5.40097 6.67435 5.43153 6.72504 5.45203 6.77572V6.77534ZM1.79333 11.9921C1.6892 12.1317 1.70167 12.2497 1.86772 12.4483C1.90229 12.3753 1.93003 12.3163 1.96622 12.2403C1.91073 12.2512 1.88902 12.2554 1.86731 12.2596C1.86168 12.2516 1.85565 12.2437 1.85002 12.2357C1.88299 12.207 1.91274 12.1729 1.94973 12.1502C2.02612 12.1037 1.99798 12.0701 1.93767 12.0428C1.89224 12.0224 1.84319 12.0092 1.79293 11.9921H1.79333ZM5.63658 16.6779C5.63336 16.6714 5.62612 16.6567 5.61848 16.6416C5.69327 16.6272 5.67759 16.5981 5.64341 16.5515C5.60964 16.5046 5.58069 16.4891 5.5228 16.5149C5.50108 16.5247 5.4657 16.5077 5.43676 16.5027C5.42268 16.5001 5.40861 16.4967 5.39454 16.4937C5.39494 16.5073 5.39052 16.5232 5.39655 16.5338C5.43756 16.6022 5.39414 16.7047 5.30408 16.7327C5.33222 16.7713 5.35916 16.8084 5.37805 16.8341C5.46972 16.7789 5.55134 16.7293 5.63618 16.6783L5.63658 16.6779ZM3.90412 10.2325C4.03439 10.3713 3.98252 10.5582 4.04565 10.7269C4.08867 10.6936 4.13932 10.6728 4.15541 10.638C4.19722 10.5476 4.12284 10.3623 4.02956 10.2934C4.02112 10.2874 4.01026 10.2783 4.00906 10.2696C3.99901 10.172 3.99941 10.172 3.90372 10.2329L3.90412 10.2325ZM1.44998 10.0725C1.47571 9.93409 1.54607 9.8819 1.66267 9.89362C1.6892 9.89627 1.71654 9.88757 1.74388 9.88379C1.7274 9.85769 1.71775 9.81873 1.69362 9.80738C1.59472 9.76086 1.49139 9.72227 1.39168 9.6818C1.33298 9.78128 1.55572 9.86752 1.37922 9.94695C1.40093 9.98553 1.42063 10.0203 1.44998 10.0725ZM5.12114 13.7154C5.17864 13.6447 5.24096 13.5706 5.29925 13.4942C5.30649 13.4847 5.29925 13.4586 5.29041 13.4465C5.2494 13.3932 5.0733 13.4155 5.04837 13.4787C5.0339 13.5157 5.01982 13.5604 5.02947 13.5959C5.03953 13.6326 5.07853 13.6621 5.12114 13.7151V13.7154ZM9.64587 0.752503C9.55299 0.716947 9.46977 0.685175 9.38252 0.651889C9.39659 0.710517 9.40624 0.751746 9.4171 0.796758C9.46695 0.788815 9.52244 0.780115 9.58878 0.769524C9.57229 0.80924 9.56345 0.831557 9.55822 0.844039C9.66557 0.929145 9.73392 0.882998 9.78659 0.801675C9.75925 0.768767 9.73392 0.738129 9.70537 0.70333C9.68446 0.72073 9.66436 0.737751 9.64587 0.752881V0.752503ZM8.35607 22.7317C8.44171 22.7892 8.5169 22.7801 8.56675 22.7147C8.60696 22.6618 8.66204 22.619 8.70707 22.5691C8.7324 22.5407 8.75129 22.5067 8.7726 22.4753C8.76818 22.4734 8.76376 22.4715 8.75934 22.4696C8.70948 22.5131 8.66003 22.5566 8.59771 22.6111C8.56836 22.5577 8.54906 22.5222 8.52333 22.4757C8.51087 22.5048 8.48875 22.5305 8.49438 22.5483C8.52172 22.6334 8.52454 22.6326 8.43327 22.6701C8.41357 22.6481 8.39467 22.6273 8.37497 22.6062C8.36774 22.6538 8.36251 22.6879 8.35607 22.7317ZM5.24819 10.2049C5.24417 10.2412 5.23975 10.2885 5.23412 10.3358C5.22688 10.4005 5.25623 10.4334 5.31936 10.4375C5.35232 10.3282 5.38288 10.2261 5.41143 10.1304C5.36278 10.1527 5.30528 10.1788 5.24819 10.2049ZM13.9093 9.91026C13.9032 9.87471 13.8984 9.84521 13.8896 9.79376C13.8715 9.83386 13.8646 9.84861 13.8562 9.86752C13.8236 9.82629 13.7979 9.79376 13.7718 9.76123C13.7645 9.76388 13.7569 9.76653 13.7496 9.7688C13.7645 9.83537 13.7798 9.90232 13.7947 9.96889C13.8031 9.967 13.8112 9.96511 13.8196 9.96322C13.7959 9.99877 13.7718 10.034 13.7328 10.0918C13.8164 10.0559 13.8751 10.0309 13.9334 10.006C13.9286 9.99688 13.9237 9.98818 13.9193 9.9791C13.8976 9.98289 13.8759 9.98705 13.8542 9.99083C13.8514 9.98251 13.8489 9.97457 13.8461 9.96624L13.9599 9.91858C13.9583 9.91367 13.9563 9.90875 13.9547 9.90346C13.9398 9.90572 13.9253 9.90762 13.9089 9.91026H13.9093ZM4.77497 13.8043C4.78422 13.8664 4.79467 13.9356 4.80995 14.0358C4.86986 13.9447 4.9169 13.8724 4.96515 13.7983C4.94464 13.7907 4.92896 13.785 4.90805 13.7775C4.92695 13.7623 4.94263 13.7495 4.96112 13.7344C4.93459 13.7272 4.90966 13.7204 4.90484 13.7188C4.85056 13.7544 4.81036 13.7805 4.77457 13.8039L4.77497 13.8043ZM3.32356 10.2919C3.50006 10.3403 3.54227 10.3294 3.56479 10.234C3.49644 10.2284 3.42769 10.2231 3.34406 10.2163C3.33964 10.2329 3.3316 10.2624 3.32396 10.2919H3.32356ZM8.92659 14.2064C8.8695 14.2647 8.86132 14.3336 8.90207 14.4133C8.91131 14.3819 8.91011 14.349 8.92659 14.3365C9.01665 14.2669 9.01826 14.2688 8.92659 14.2064ZM8.58123 22.248C8.5957 22.142 8.56675 22.102 8.47106 22.1016C8.52011 22.1689 8.59409 22.2324 8.47951 22.3278C8.55549 22.31 8.60133 22.2994 8.64756 22.2884C8.64555 22.279 8.64395 22.2695 8.64194 22.2601C8.62183 22.2559 8.60133 22.2517 8.58163 22.248H8.58123ZM1.71413 11.1396C1.73624 10.952 1.73102 10.947 1.59432 11.0038C1.63573 11.0507 1.67473 11.0953 1.71413 11.1396ZM13.3351 12.2051C13.3247 12.224 13.3122 12.2463 13.3134 12.2444C13.3633 12.3129 13.4023 12.3666 13.4405 12.4192C13.4569 12.3901 13.477 12.3541 13.4895 12.3322C13.4368 12.2891 13.391 12.2512 13.3355 12.2055L13.3351 12.2051ZM5.17743 8.86895C5.1714 8.87613 5.16577 8.88332 5.15974 8.89051C5.18426 8.90791 5.21241 8.94195 5.23332 8.93892C5.28598 8.9306 5.33544 8.90526 5.3861 8.88635C5.38248 8.87613 5.37886 8.86592 5.37524 8.85571C5.3093 8.86025 5.24337 8.86441 5.17783 8.86895H5.17743ZM8.85663 14.7344C8.81723 14.6932 8.80035 14.6633 8.77421 14.6516C8.71712 14.6263 8.71551 14.63 8.65963 14.7121C8.71109 14.7178 8.76376 14.7238 8.85663 14.7344ZM8.79311 16.6196C8.78225 16.617 8.7714 16.614 8.76054 16.6113C8.72597 16.6336 8.69139 16.6556 8.62746 16.6964C8.69581 16.7131 8.73561 16.7225 8.77582 16.7323C8.78185 16.6949 8.78748 16.6571 8.79351 16.6196H8.79311ZM8.62545 21.9034C8.66646 21.8258 8.76899 21.8062 8.771 21.718C8.72396 21.7354 8.68978 21.7479 8.63631 21.7676C8.6343 21.7907 8.63068 21.8387 8.62545 21.9034ZM9.25145 16.5686C9.19798 16.5947 9.16621 16.6053 9.14008 16.6238C9.08661 16.6616 9.11033 16.7074 9.18511 16.7263C9.20642 16.676 9.22572 16.6298 9.25145 16.5689V16.5686ZM5.46932 22.3145L5.49948 22.2884C5.48259 22.2423 5.4653 22.1961 5.44841 22.1496C5.41665 22.1746 5.39333 22.2098 5.40057 22.2385C5.40781 22.2672 5.4452 22.2892 5.46932 22.3145Z" fill="currentColor"/>
  <path d="M14.852 9.40569C14.8673 9.42157 14.8846 9.43935 14.9023 9.45751C14.813 9.43632 14.6876 9.51046 14.6558 9.3603C14.6872 9.35387 14.7254 9.34592 14.7736 9.33571C14.7632 9.31264 14.7515 9.28729 14.7367 9.25514C14.7736 9.26157 14.807 9.26725 14.8597 9.27633C14.8255 9.2907 14.809 9.29789 14.7925 9.30469C14.7929 9.31453 14.7933 9.32398 14.7941 9.33382C14.8279 9.33155 14.8629 9.33382 14.8947 9.32588C14.9272 9.31718 14.957 9.29788 15 9.30053C14.9743 9.36635 14.9039 9.37467 14.8524 9.40569H14.852Z" fill="currentColor"/>
  <path d="M14.9086 9.09211C14.8367 9.10724 14.7832 9.11859 14.7265 9.13069C14.7715 9.08871 14.8029 9.05882 14.8447 9.01987C14.8475 9.02327 14.87 9.04861 14.9086 9.09211Z" fill="currentColor"/>
</svg>