<svg fill="none" xmlns="http://www.w3.org/2000/svg" viewBox="0 0 24 24">
  <path d="M23.6404 14.0112C23.7075 14.0159 23.7532 14.0189 23.7993 14.0218C23.8462 14.1999 23.8262 14.2469 23.6524 14.355C23.71 14.4593 23.7087 14.5581 23.6319 14.62C23.6575 14.7043 23.7041 14.7777 23.6917 14.8396C23.6814 14.8896 23.6003 14.9252 23.5508 14.9676C23.5422 14.9748 23.5341 14.9833 23.5213 14.9956C23.5358 15.0358 23.5482 15.0786 23.567 15.1189C23.5969 15.1829 23.5807 15.2126 23.5106 15.2329C23.482 15.2414 23.4658 15.2919 23.444 15.3228C23.3275 15.4894 23.4231 15.6416 23.4773 15.7963C23.4872 15.8239 23.5196 15.8591 23.5111 15.8747C23.4427 16.0032 23.5482 16.0782 23.6012 16.1634C23.687 16.3029 23.6746 16.3792 23.5247 16.4423C23.4581 16.4703 23.4427 16.5119 23.4436 16.5759C23.444 16.6221 23.4355 16.6687 23.4248 16.7141C23.4129 16.7645 23.4248 16.8145 23.4927 16.9387C23.4201 16.9481 23.3744 16.982 23.3518 17.0562C23.3386 17.1007 23.2685 17.132 23.263 17.1744C23.254 17.2465 23.2758 17.3224 23.286 17.4097C23.2698 17.4211 23.2365 17.4453 23.1998 17.472C23.2472 17.5479 23.301 17.6229 23.3428 17.7043C23.3727 17.7624 23.3902 17.8311 23.2946 17.8544C23.2083 17.8756 23.1968 17.9434 23.2152 18.007C23.2369 18.082 23.1981 18.1736 23.2779 18.2359C23.2907 18.2461 23.2758 18.2914 23.2737 18.3207C23.3872 18.3283 23.3962 18.3512 23.3377 18.4483C23.3625 18.4932 23.3851 18.5339 23.4077 18.5746C23.3996 18.5801 23.3911 18.586 23.383 18.5915C23.3616 18.5776 23.3403 18.564 23.3112 18.5449V18.8874C23.2327 18.8455 23.181 18.8357 23.1776 18.9328C23.1767 18.9548 23.1729 18.9883 23.1588 18.996C22.9406 19.1146 23.0845 19.3508 22.9906 19.5093C22.9829 19.5224 23.0068 19.5585 23.0222 19.5801C23.0756 19.6551 23.0457 19.7348 22.994 19.7759C22.9261 19.8302 22.9334 19.8802 22.9487 19.9459C22.9633 20.0078 22.9304 20.043 22.874 20.0184C22.8078 19.9892 22.7865 20.0358 22.7412 20.0578C22.5798 20.1354 22.608 20.2355 22.6768 20.3567C22.7378 20.4648 22.6358 20.4919 22.5743 20.5343C22.4915 20.5915 22.4048 20.6437 22.322 20.7009C22.31 20.709 22.3006 20.7357 22.3044 20.7497C22.3518 20.9146 22.2203 20.9811 22.1298 21.0718C22.0922 21.1091 22.0606 21.1528 22.0278 21.1943C22.0184 21.2058 22.0124 21.2321 22.0056 21.2321C21.8566 21.227 21.9129 21.3351 21.8894 21.4118C21.8668 21.4868 21.7904 21.5462 21.7357 21.611C21.7293 21.6187 21.7007 21.6178 21.7007 21.6204C21.702 21.8005 21.5286 21.8001 21.433 21.8798C21.4091 21.8997 21.3869 21.9328 21.3826 21.9624C21.3604 22.1163 21.2729 22.2045 21.1179 22.2333C21.1179 22.2766 21.1115 22.3202 21.1192 22.3613C21.1303 22.4211 21.1179 22.4317 21.053 22.4376C20.9962 22.4432 20.9411 22.4915 20.8908 22.5284C20.8079 22.589 20.7204 22.6479 20.6521 22.7229C20.6081 22.7713 20.4941 22.8158 20.5867 22.9188C20.5944 22.9273 20.5842 22.9663 20.5705 22.9777C20.4932 23.0426 20.4467 23.1477 20.3092 23.1278C20.2136 23.1138 20.1393 23.2053 20.1367 23.2999C20.1337 23.416 20.0492 23.3804 20.0052 23.352C19.9429 23.3117 19.9079 23.3406 19.8583 23.366C19.7789 23.4071 19.6957 23.4406 19.6124 23.4728C19.5979 23.4783 19.571 23.4682 19.5569 23.4571C19.4557 23.3762 19.3631 23.3847 19.3016 23.4673C19.2149 23.4482 19.1368 23.4194 19.0582 23.4186C19.0185 23.4181 18.9651 23.4588 18.9408 23.4961C18.8985 23.5602 18.8579 23.611 18.7734 23.6161C18.7188 23.6195 18.7192 23.625 18.7226 23.5618C18.7226 23.5551 18.7196 23.5419 18.717 23.5415C18.6978 23.5398 18.6778 23.5394 18.6586 23.5415C18.5266 23.5546 18.3947 23.5724 18.2623 23.578C18.235 23.5792 18.206 23.5347 18.1778 23.5118C18.1513 23.5512 18.1236 23.5529 18.0066 23.525C17.9835 23.5602 17.9639 23.5898 17.9447 23.6195C17.9109 23.5822 17.8776 23.5453 17.8418 23.5055C17.7752 23.5691 17.7004 23.5881 17.6018 23.5381C17.5647 23.5195 17.4993 23.5568 17.434 23.5712C17.4191 23.5317 17.3998 23.48 17.3862 23.4436C17.2948 23.4228 17.2124 23.4046 17.13 23.3859C16.914 23.3368 16.8969 23.3868 16.8572 23.5207C16.8153 23.661 16.6975 23.6182 16.6172 23.5987C16.5275 23.5771 16.4887 23.5962 16.4784 23.6432H16.2035C16.1578 23.6119 16.1245 23.589 16.0741 23.5546V23.6661C16.0673 23.6682 16.0604 23.6704 16.0536 23.6729C16.031 23.6348 16.0135 23.5924 15.984 23.5606C15.9699 23.5453 15.9324 23.5428 15.9076 23.5474C15.8751 23.5534 15.8346 23.5919 15.8162 23.5822C15.6454 23.4902 15.4921 23.6093 15.3308 23.6157C15.1459 23.6229 14.9619 23.6432 14.7774 23.6555C14.7582 23.6568 14.7262 23.6479 14.7193 23.6339C14.6882 23.5707 14.6446 23.5983 14.6203 23.6267C14.5669 23.6886 14.5123 23.6788 14.4444 23.6585C14.3944 23.6437 14.338 23.6496 14.2864 23.6466C14.2608 23.8077 14.2437 23.8225 14.1079 23.7704C14.0195 23.7365 13.9657 23.7666 13.9047 23.823C13.8423 23.881 13.7727 23.9323 13.7006 23.9785C13.6365 24.0192 13.5836 24.0006 13.5379 23.9349C13.4965 23.876 13.4431 23.8196 13.3552 23.8404C13.3402 23.8437 13.315 23.8395 13.3112 23.8476C13.2343 23.9917 13.1075 23.9014 13.0029 23.9145C12.9735 23.9184 12.9444 23.9289 12.915 23.9311C12.8381 23.937 12.7681 23.9395 12.7151 23.8577C12.6857 23.812 12.6169 23.792 12.5695 23.7556C12.5286 23.7242 12.4931 23.6856 12.441 23.6373C12.3339 23.6674 12.3155 23.6526 12.292 23.5C12.289 23.4792 12.2527 23.4525 12.228 23.4482C12.1515 23.4347 12.0691 23.4122 11.997 23.4275C11.8787 23.4525 11.7724 23.4669 11.649 23.4321C11.5384 23.4012 11.4039 23.402 11.3228 23.5351C11.3275 23.5127 11.3322 23.4902 11.3313 23.4944C11.2878 23.4648 11.2442 23.4495 11.2259 23.419C11.1968 23.3707 11.1729 23.3473 11.1102 23.3609C11.076 23.3681 11.0218 23.349 10.9974 23.3232C10.8536 23.1702 10.705 23.1456 10.494 23.2609C10.5316 23.3694 10.5705 23.4817 10.6093 23.5932C10.649 23.7072 10.5833 23.8009 10.4163 23.8395C10.1952 23.8904 9.97186 23.9565 9.74813 23.9624C9.65121 23.965 9.54489 23.9718 9.44968 23.9595C9.38136 23.9506 9.32501 23.8459 9.26181 23.7819C9.20033 23.8186 9.12604 23.7851 9.03894 23.6814C9.03381 23.7217 9.02997 23.7522 9.02527 23.7886C9.01716 23.7899 8.9988 23.7992 8.99026 23.7937C8.96251 23.7755 8.93817 23.7513 8.89505 23.7149C8.83826 23.7611 8.76781 23.8179 8.69309 23.8781C8.61709 23.8632 8.53212 23.8467 8.43819 23.8285C8.44118 23.8179 8.44758 23.8022 8.44886 23.7865C8.45271 23.7484 8.45399 23.7102 8.45655 23.6721C8.42752 23.681 8.39549 23.7026 8.36987 23.6966C8.2943 23.6797 8.22129 23.6521 8.13675 23.6259C8.10046 23.7653 8.03342 23.9014 7.85068 23.9247C7.85068 23.7488 7.77596 23.7047 7.58297 23.7929C7.60389 23.742 7.61798 23.7072 7.63122 23.6746C7.59407 23.6725 7.55137 23.6699 7.48861 23.6661C7.44933 23.7022 7.38827 23.7581 7.32038 23.8209C7.28153 23.77 7.24524 23.7225 7.19614 23.6585C7.07573 23.7289 6.94807 23.803 6.82168 23.8768C6.8093 23.8548 6.80546 23.851 6.80631 23.8488C6.81485 23.8285 6.82382 23.8086 6.83535 23.7831C6.7935 23.7619 6.74867 23.739 6.69103 23.7098V23.6042C6.56977 23.6877 6.6193 23.7539 6.68633 23.817C6.43955 23.9226 6.23076 23.9773 6.20813 23.7776C6.12231 23.8052 6.03478 23.8365 5.94554 23.862C5.87936 23.8806 5.81019 23.9056 5.74359 23.9018C5.67997 23.898 5.60482 23.8751 5.55914 23.8344C5.4366 23.7242 5.31277 23.6598 5.14327 23.72C5.12363 23.7272 5.07879 23.6716 5.04891 23.6424C4.97675 23.5712 4.92338 23.4826 4.78803 23.5487C4.73893 23.5724 4.64371 23.5245 4.58009 23.4902C4.51776 23.4567 4.46951 23.3978 4.41229 23.3529C4.39607 23.3401 4.37088 23.3389 4.34227 23.33C4.33672 23.3779 4.33203 23.4181 4.32776 23.458C4.13391 23.494 3.98661 23.4058 3.91189 23.2291C3.86321 23.1134 3.73768 23.1477 3.64418 23.129C3.58141 23.1163 3.51566 23.1443 3.46485 23.0731C3.44905 23.051 3.38074 23.065 3.33633 23.0646C3.28211 23.0638 3.22233 23.0811 3.23599 22.9853C3.24197 22.9429 3.21379 22.8955 3.19671 22.834C3.1617 22.8738 3.14249 22.895 3.11388 22.9277C3.07802 22.8429 3.04685 22.7683 3.01098 22.6827C2.75779 22.7136 2.5426 22.6767 2.57078 22.3262C2.39572 22.3936 2.30563 22.3011 2.22963 22.1761C2.2561 22.1557 2.29154 22.1278 2.33253 22.096C2.20572 22.007 2.06396 21.9374 1.96576 21.8289C1.8667 21.7196 1.81077 21.5712 1.73562 21.4389C1.78985 21.3987 1.78515 21.3584 1.7083 21.288C1.73648 21.2855 1.76082 21.2833 1.78515 21.2812C1.78515 21.2728 1.78515 21.2639 1.78515 21.2554C1.75185 21.2583 1.71812 21.2651 1.68524 21.263C1.66475 21.2617 1.6323 21.2511 1.62717 21.2371C1.58192 21.107 1.53965 21.0795 1.40686 21.1006C1.35221 20.9731 1.29798 20.8467 1.24803 20.7302C1.30951 20.6755 1.36928 20.6225 1.43546 20.5636C1.35434 20.4864 1.21259 20.4461 1.3078 20.2969C1.29072 20.2842 1.2745 20.2685 1.25528 20.2588C1.17587 20.2193 1.15922 20.1791 1.24034 20.1193C1.26681 20.0998 1.27706 20.0574 1.30225 20.0112H1.11823C1.12506 20.004 1.13189 19.9972 1.13872 19.99C1.04692 19.8972 0.955124 19.8043 0.863326 19.7119C0.929506 19.6564 0.996968 19.6123 0.923529 19.489C0.887236 19.4279 0.876136 19.3584 0.809101 19.3067C0.738651 19.2524 0.762988 19.1931 0.885955 19.1248C0.823618 19.074 0.765123 19.0328 0.715168 18.9832C0.667347 18.9353 0.627212 18.8794 0.587077 18.8247C0.581953 18.8175 0.599886 18.7967 0.602021 18.7815C0.609279 18.7323 0.613976 18.6831 0.619527 18.6339C0.597324 18.6327 0.570425 18.639 0.553773 18.6289C0.529863 18.614 0.501684 18.5899 0.495706 18.5648C0.47265 18.469 0.447031 18.3809 0.328333 18.3622C0.310828 18.3592 0.292468 18.3325 0.282647 18.313C0.256602 18.2596 0.229277 18.2054 0.213906 18.1486C0.205367 18.1176 0.210917 18.0761 0.225434 18.0468C0.271119 17.9544 0.32876 17.8679 0.37103 17.7743C0.388536 17.7353 0.371884 17.6823 0.382558 17.6386C0.412019 17.5157 0.426963 17.4178 0.317659 17.3003C0.254041 17.2321 0.297165 17.0668 0.289907 16.9455C0.287772 16.9086 0.278379 16.8718 0.270266 16.8234C0.280941 16.8111 0.301008 16.7883 0.333031 16.7514C0.239951 16.7111 0.153277 16.6734 0.066175 16.6356C0.0670289 16.6238 0.0683088 16.6123 0.0691628 16.6005C0.207501 16.6556 0.148153 16.5615 0.154131 16.5047C0.0806918 16.5471 0.0456802 16.5335 0.0499499 16.4496C0.0516578 16.4139 0.0465333 16.372 0.0290276 16.3423C-0.0260515 16.2482 -0.00512947 16.2075 0.112287 16.1944C0.20622 16.1842 0.243367 16.1325 0.188288 16.0651C0.122107 15.9841 0.168647 15.9159 0.184018 15.8438C0.205366 15.7425 0.271974 15.6462 0.173771 15.5432C0.153276 15.5216 0.171209 15.4424 0.195547 15.405C0.245075 15.3292 0.236536 15.2652 0.194266 15.1935C0.119973 15.068 0.175478 14.8048 0.29076 14.709C0.2724 14.6636 0.243367 14.6204 0.239524 14.5755C0.232693 14.4962 0.242939 14.4199 0.174624 14.3529C0.151568 14.3304 0.15285 14.2444 0.17676 14.2198C0.292469 14.1011 0.199816 13.9926 0.173771 13.8807C0.167793 13.8561 0.139187 13.8273 0.146018 13.8103C0.199389 13.6814 0.1964 13.5407 0.234827 13.4089C0.25831 13.3275 0.26685 13.241 0.276671 13.1562C0.284783 13.0867 0.286064 13.0168 0.289053 12.9468C0.290761 12.9032 0.306984 12.8493 0.287771 12.8175C0.238669 12.737 0.279659 12.6789 0.31894 12.6196C0.357794 12.5611 0.404333 12.5081 0.447884 12.4517C0.337299 12.3974 0.313817 12.2054 0.384694 12.1096C0.368469 12.0439 0.348829 11.9947 0.344986 11.9443C0.329615 11.745 0.31894 11.5454 0.306985 11.3457C0.305277 11.319 0.298018 11.283 0.312108 11.2665C0.395367 11.1681 0.326199 11.1227 0.249771 11.0854C0.167366 11.0452 0.160107 10.9773 0.170354 10.9027C0.178467 10.8434 0.195119 10.7857 0.211344 10.712C0.35566 10.7879 0.46966 10.7149 0.581526 10.6141C0.504672 10.5551 0.428245 10.4983 0.353952 10.439C0.289479 10.3877 0.274536 10.1406 0.335165 10.0871C0.362064 10.0634 0.401346 10.0528 0.455571 10.0257C0.4402 9.97863 0.422267 9.92394 0.400919 9.85908C0.453436 9.76201 0.523459 9.64925 0.575549 9.52844C0.59519 9.48265 0.641729 9.40296 0.518335 9.38261C0.444043 9.37032 0.413301 9.2245 0.435503 9.08927C0.485886 9.0774 0.536695 9.06553 0.587504 9.05366C0.588358 9.04095 0.588785 9.02865 0.589638 9.01593C0.537975 8.99771 0.485885 8.9799 0.413727 8.95489C0.458132 8.94345 0.481615 8.93751 0.505525 8.93115C0.499548 8.89809 0.493571 8.86587 0.487594 8.83323L0.467952 8.84976C0.4513 8.83069 0.432087 8.81373 0.419278 8.79254C0.370604 8.71199 0.444469 8.61026 0.3753 8.52971C0.368896 8.52251 0.396648 8.4657 0.416289 8.46062C0.505099 8.4373 0.493144 8.37245 0.495279 8.30759C0.497413 8.24231 0.521323 8.17575 0.512357 8.11301C0.505099 8.06215 0.463683 8.01594 0.431233 7.95617C0.400491 7.99178 0.378289 8.01764 0.356086 8.04349C0.34285 7.88792 0.499122 7.91717 0.55719 7.83324C0.473077 7.65816 0.639594 7.556 0.692966 7.40297C0.651123 7.39704 0.607572 7.39068 0.556762 7.38305C0.524313 7.27453 0.581099 7.18296 0.660516 7.12871C0.731392 7.07996 0.778786 7.03417 0.799281 6.95194C0.80782 6.91675 0.839843 6.8875 0.861192 6.85486C0.780068 6.7917 0.613122 6.81501 0.637033 6.63485C0.683999 6.63019 0.728404 6.62553 0.749326 6.62341C0.786899 6.53863 0.819348 6.47165 0.84582 6.40298C0.855213 6.37839 0.850944 6.34829 0.850517 6.32074C0.849237 6.25122 0.838989 6.18127 0.846247 6.11303C0.863753 5.95279 1.02686 5.90489 1.10926 5.7934C1.1242 5.77305 1.15324 5.7633 1.19038 5.73914C1.03454 5.6781 0.886382 5.64885 0.867169 5.47335C0.924383 5.44029 0.981596 5.40765 1.02728 5.38094C0.981169 5.30845 0.938473 5.24105 0.888091 5.16221C0.927799 5.12702 0.972203 5.0876 1.02472 5.04054C0.987147 5.03461 0.955978 5.02995 0.882966 5.01892C0.970068 4.94983 1.03497 4.90108 1.09645 4.84809C1.11695 4.83071 1.14555 4.7862 1.14128 4.78196C1.08151 4.71922 1.14769 4.67471 1.15537 4.64462C1.10115 4.58612 1.05546 4.53652 1.00935 4.48692C1.01704 4.47802 1.02472 4.46912 1.03241 4.45979C1.06357 4.47463 1.09432 4.48904 1.1447 4.51278C1.06272 4.28684 1.2096 4.14695 1.2967 3.98587C1.31335 3.95534 1.31207 3.90829 1.30311 3.87268C1.27535 3.76077 1.23906 3.65056 1.20832 3.53907C1.16648 3.38816 1.20405 3.33432 1.35946 3.29829C1.39191 3.29066 1.4376 3.2559 1.4423 3.22792C1.47005 3.06006 1.52641 2.90957 1.6609 2.79596C1.66902 2.78918 1.67414 2.77731 1.67756 2.76714C1.73349 2.60732 1.72922 2.62004 1.88592 2.66921C1.95808 2.6921 2.0503 2.65311 2.13356 2.64166C2.12374 2.59545 2.10367 2.56027 2.11392 2.5395C2.19889 2.36527 2.29282 2.19486 2.37736 2.02064C2.44994 1.871 2.4683 1.8587 2.62842 1.88965C2.65019 1.89389 2.68222 1.88329 2.69929 1.86845C2.77188 1.80444 2.84233 1.73747 2.91022 1.6688C3.05752 1.52 3.17067 1.53526 3.27442 1.72517C3.30901 1.69296 3.33719 1.6493 3.37689 1.63319C3.43923 1.60775 3.50968 1.60097 3.57629 1.58486C3.60063 1.57893 3.63222 1.57766 3.64631 1.56197C3.72317 1.47677 3.78807 1.37927 3.87261 1.30296C3.93452 1.24701 4.01863 1.21267 4.09634 1.17664C4.17234 1.14146 4.25304 1.11602 4.34654 1.08041C4.35551 1.11263 4.3696 1.16223 4.38454 1.21522C4.45841 1.15375 4.31238 0.992665 4.49812 0.968927C4.51818 1.01089 4.53953 1.05498 4.56131 1.09991C4.59888 1.11136 4.64926 1.1262 4.69965 1.14146C4.69708 1.15121 4.6941 1.16096 4.69153 1.17113C4.67573 1.16859 4.65994 1.16562 4.61084 1.15756C4.66591 1.20971 4.70093 1.24277 4.74021 1.27965C4.74875 1.23556 4.7449 1.19784 4.76198 1.183C4.77863 1.16859 4.81578 1.17706 4.84994 1.17537C4.91484 1.06176 4.98657 0.940949 5.15565 0.943492C5.17059 0.988426 5.1834 1.02658 5.19621 1.06515C5.20646 1.06388 5.21628 1.06219 5.22653 1.06091C5.21927 1.02531 5.19963 0.987154 5.20774 0.955361C5.21713 0.917634 5.24489 0.879906 5.2752 0.854472C5.29228 0.840059 5.33455 0.840906 5.35889 0.85108C5.519 0.91721 5.64538 0.782832 5.80123 0.781984C5.99763 0.781136 5.99592 0.754006 6.18379 0.866341C6.22905 0.893471 6.29096 0.893895 6.3802 0.91509C6.34604 0.845994 6.32811 0.809537 6.31573 0.784951C6.3802 0.740441 6.45065 0.697627 6.51427 0.646758C6.60179 0.576389 6.80076 0.596737 6.89085 0.669225C6.9613 0.726028 7.0309 0.768843 7.15387 0.737474C7.27513 0.706529 7.41773 0.647606 7.52191 0.662018C7.67562 0.68279 7.75717 0.628954 7.84513 0.542053C7.92241 0.466174 7.99969 0.470837 8.07954 0.531032C8.11682 0.469424 8.15184 0.466597 8.18457 0.522553C8.21488 0.574693 8.33657 0.581476 8.37585 0.531032C8.42837 0.462783 8.4779 0.448793 8.57012 0.478891C8.75714 0.539933 8.95183 0.523825 9.13415 0.444979C9.26309 0.389023 9.35148 0.417848 9.40954 0.549683C9.4168 0.566215 9.42961 0.580628 9.4531 0.614965C9.57948 0.539086 9.70415 0.467021 9.82584 0.390718C9.89843 0.34536 9.96973 0.364437 10.0205 0.449642C10.0577 0.511956 10.2285 0.523401 10.3147 0.471684C10.357 0.446674 10.4027 0.427174 10.4475 0.405979C10.4778 0.391566 10.5124 0.383088 10.5389 0.363588C10.6529 0.279231 10.6892 0.287285 10.813 0.369947C10.8523 0.396229 10.9325 0.38224 10.9851 0.363165C11.0273 0.347904 11.1042 0.337307 11.0777 0.248286C11.067 0.212254 11.0854 0.168168 11.0914 0.118995C11.1789 0.101191 11.2609 0.0914409 11.339 0.163929C11.3676 0.190635 11.4248 0.209287 11.462 0.200808C11.5529 0.180037 11.6388 0.137223 11.7288 0.111788C11.7587 0.10331 11.8044 0.109245 11.8275 0.127897C11.8851 0.173679 11.9214 0.15757 11.979 0.12069C12.0525 0.0736367 12.1404 0.045235 12.2258 0.022344C12.295 0.00369218 12.3697 -0.00224227 12.4415 0.000725073C12.494 0.0028446 12.5512 0.0193768 12.5969 0.045659C12.7006 0.106278 12.7975 0.173679 12.9273 0.112636C12.9564 0.0990712 12.9974 0.107549 13.0328 0.110517C13.1058 0.116451 13.1699 0.134255 13.2343 0.0600717C13.3078 -0.0247095 13.403 0.0346373 13.4871 0.0706693C13.4854 0.103734 13.4841 0.135951 13.4828 0.163505C13.4897 0.171135 13.4935 0.17707 13.4948 0.176222C13.6105 0.124929 13.6579 0.272025 13.748 0.264394C13.7967 0.260155 13.8475 0.205471 13.8855 0.163081C14.005 0.0295504 14.1062 0.0295505 14.1801 0.132984C14.3086 0.152059 14.4038 0.166049 14.4986 0.180037C14.4909 0.189787 14.4832 0.199537 14.4755 0.208863C14.505 0.241927 14.5345 0.275416 14.5639 0.308481C14.572 0.302122 14.5801 0.295763 14.5887 0.289405C14.5814 0.271177 14.5742 0.252525 14.5669 0.234297C14.572 0.227515 14.5767 0.220732 14.5819 0.213949C14.6113 0.232601 14.6412 0.250406 14.6702 0.269482C14.6788 0.274992 14.6865 0.291949 14.6916 0.290677C14.8368 0.255069 14.9819 0.362741 15.125 0.294492C15.1736 0.271177 15.2129 0.230058 15.2569 0.196993C15.2582 0.181733 15.2594 0.166472 15.2607 0.151212C15.3342 0.197417 15.4025 0.261003 15.4828 0.284742C15.5699 0.310176 15.6681 0.30297 15.7607 0.300002C15.7932 0.298731 15.8265 0.269481 15.8568 0.249134C15.9084 0.214373 15.964 0.14019 16.0075 0.146973C16.1202 0.164777 16.23 0.21183 16.335 0.259731C16.3687 0.274992 16.3841 0.329252 16.4123 0.372067C16.4661 0.386904 16.5331 0.408946 16.6018 0.423359C16.6424 0.431837 16.6928 0.444131 16.7257 0.428022C16.8516 0.367404 16.943 0.408947 17.0339 0.497967C17.054 0.517467 17.1291 0.516195 17.1479 0.495847C17.1932 0.447522 17.2261 0.384784 17.253 0.323317C17.3085 0.196145 17.3606 0.178765 17.4797 0.247014C17.5834 0.306785 17.691 0.361045 17.7999 0.411066C17.8268 0.423359 17.8712 0.418696 17.899 0.404707C17.9942 0.356806 18.086 0.302122 18.1782 0.24871C18.2499 0.207591 18.2832 0.262275 18.3161 0.305937C18.3516 0.352991 18.3802 0.405555 18.396 0.43099C18.5134 0.408947 18.606 0.39199 18.7094 0.37249C18.726 0.452609 18.7388 0.514499 18.7508 0.570878C18.7849 0.595889 18.8157 0.627258 18.8533 0.64379C18.9002 0.664985 18.9562 0.667953 19.0023 0.690844C19.1231 0.751038 19.2392 0.783255 19.3707 0.712887C19.5035 0.642095 19.5642 0.730691 19.609 0.855743C19.6504 0.812505 19.6829 0.778168 19.7098 0.749767C19.7913 0.790886 19.8758 0.833277 19.96 0.876091C19.9702 0.881178 19.9864 0.889656 19.9864 0.896862C19.9916 1.09143 20.1632 1.03506 20.2635 1.06303C20.3579 1.08932 20.4078 1.12196 20.4202 1.21818C20.4377 1.36019 20.5338 1.43692 20.6589 1.48609C20.6572 1.52212 20.6551 1.56197 20.6525 1.61496C20.8203 1.58529 20.9275 1.67812 21.0547 1.7523C21.1456 1.80572 21.2212 1.8426 21.2579 1.94306C21.2648 1.96129 21.3002 1.9774 21.3241 1.97994C21.5325 2.00495 21.7058 2.10839 21.8745 2.21987C21.9185 2.24912 21.9509 2.28939 21.9005 2.35171C21.7998 2.47591 21.8391 2.59885 21.9116 2.72347C21.93 2.75484 21.9104 2.80825 21.9082 2.85149C21.9518 2.83072 21.9799 2.80953 22.0094 2.80656C22.0239 2.80529 22.041 2.83878 22.0577 2.85531C22.0828 2.88032 22.1106 2.90321 22.1345 2.92949C22.1738 2.97315 22.2028 3.03123 22.2502 3.06175C22.3318 3.11389 22.4317 3.13933 22.5094 3.1957C22.5555 3.22919 22.5888 3.29617 22.6025 3.35382C22.6183 3.41953 22.6063 3.49159 22.6063 3.56026C22.6507 3.5573 22.6874 3.55475 22.7271 3.55221C22.6891 3.64335 22.6904 3.64505 22.7754 3.63741C22.8787 3.62809 22.9167 3.68574 22.9159 3.79765C22.9573 3.76077 22.9855 3.73534 23.0205 3.70439C23.035 3.72389 23.0504 3.73619 23.0546 3.75145C23.1063 3.92949 23.146 4.11219 23.2109 4.28557C23.2506 4.39154 23.3283 4.48311 23.3996 4.59841C23.3907 4.61579 23.3676 4.6603 23.3445 4.70481C23.4842 4.7756 23.6263 5.06047 23.5896 5.17874C23.7374 5.26182 23.7446 5.28641 23.6699 5.44453C23.6148 5.56152 23.6554 5.80315 23.7463 5.89471C23.715 5.95547 23.7354 6.04195 23.8074 6.15415C23.7271 6.2012 23.7497 6.39323 23.8437 6.4636C23.9611 6.55134 23.9807 6.61366 23.9026 6.73023C23.839 6.82519 23.9039 6.88877 23.9368 6.96253C23.9577 7.00959 24.0115 7.06851 23.9978 7.09988C23.921 7.28046 23.8667 7.46062 23.8962 7.65943C23.8992 7.67936 23.8753 7.70988 23.8561 7.72599C23.7839 7.78661 23.7583 7.85528 23.8065 7.94091C23.8654 8.04519 23.7988 8.11937 23.7476 8.19822C23.7066 8.26138 23.6682 8.29953 23.7608 8.38135C23.8279 8.44069 23.8074 8.59457 23.9321 8.64459C23.9359 8.64629 23.9372 8.67257 23.9321 8.67681C23.8471 8.74124 23.8543 8.82687 23.8736 8.91589C23.8787 8.94005 23.8719 8.97397 23.8859 8.98753C23.9807 9.07867 23.9645 9.166 23.8975 9.26646C23.8424 9.34912 23.804 9.44281 23.7536 9.54073C23.8339 9.57846 23.8975 9.60855 23.9722 9.64374C23.8757 9.73234 23.8868 9.82432 23.9291 9.91928C23.9333 9.92945 23.9376 9.94386 23.9338 9.95277C23.9047 10.018 23.8321 10.102 23.8518 10.1435C23.8889 10.2219 23.8795 10.2609 23.8313 10.3237C23.7758 10.3962 23.7502 10.4818 23.8202 10.5695C23.8526 10.6102 23.8723 10.662 23.8941 10.7103C23.9043 10.7336 23.915 10.7633 23.9099 10.7862C23.8889 10.8756 23.865 10.9646 23.8356 11.0515C23.8257 11.0808 23.795 11.1028 23.7591 11.1461C23.7685 11.194 23.8061 11.2364 23.8731 11.2876C23.9274 11.3288 23.941 11.4602 23.9269 11.5445C23.9052 11.6755 23.9039 11.8201 23.795 11.9265C23.7344 11.9858 23.7502 12.0519 23.7937 12.1215C23.871 12.2453 23.8582 12.2821 23.713 12.3805C23.7566 12.4152 23.795 12.4487 23.836 12.4788C23.9521 12.5636 23.959 12.6128 23.8898 12.7387C23.8274 12.8523 23.7754 12.9714 23.7254 13.074C23.7796 13.1181 23.8364 13.1647 23.9013 13.2177C23.8381 13.2601 23.7976 13.2872 23.7532 13.3169C23.76 13.3432 23.7672 13.3707 23.7745 13.3983C23.7668 13.3949 23.7587 13.3915 23.751 13.3881C23.731 13.4212 23.7015 13.4521 23.693 13.4877C23.6742 13.5666 23.6447 13.6441 23.7117 13.7247C23.7344 13.7518 23.7092 13.823 23.6976 13.8718C23.687 13.9167 23.6643 13.9587 23.643 14.0125L23.6404 14.0112ZM5.85118 21.1498C5.95237 21.1032 5.9797 21.2066 6.03222 21.2774C6.06125 21.3164 6.10352 21.3669 6.14366 21.3703C6.19319 21.3745 6.24485 21.3228 6.29779 21.3181C6.3533 21.313 6.41051 21.338 6.46773 21.3448C6.50231 21.3491 6.53818 21.3406 6.57319 21.3435C6.6509 21.3495 6.72989 21.3724 6.80546 21.3626C6.89171 21.3516 6.95063 21.3597 7.0104 21.4317C7.05694 21.4877 7.13038 21.5246 7.19656 21.5606C7.23414 21.5809 7.28196 21.5835 7.32722 21.5945C7.32209 21.572 7.31868 21.5555 7.31184 21.525C7.34814 21.539 7.38614 21.5419 7.39254 21.5576C7.43054 21.65 7.50825 21.6233 7.57187 21.6161C7.6863 21.6038 7.79902 21.5801 7.89167 21.5C7.91088 21.4834 7.95443 21.4758 7.97792 21.4856C8.06715 21.5233 8.15041 21.5758 8.2405 21.6106C8.32163 21.642 8.39805 21.7102 8.49967 21.6475C8.59062 21.5911 8.68797 21.5585 8.77336 21.6683C8.78403 21.6818 8.8263 21.6725 8.85406 21.6721C8.89206 21.6717 8.93006 21.6666 8.96763 21.6687C9.09743 21.6763 9.22296 21.7407 9.35831 21.6619C9.4817 21.5898 9.58973 21.6479 9.594 21.7666C9.76137 21.7895 9.92831 21.8124 10.1025 21.8365C10.1234 21.7925 10.1567 21.7403 10.1742 21.6831C10.2204 21.5296 10.2707 21.5021 10.4266 21.5483C10.5901 21.597 10.7545 21.6441 10.9197 21.6865C10.9842 21.703 11.0743 21.6606 11.0811 21.7785C11.1277 21.7547 11.1652 21.7357 11.202 21.717C11.1926 21.6767 11.1853 21.6441 11.1776 21.6098C11.2498 21.5979 11.3181 21.5746 11.3843 21.5792C11.433 21.5826 11.4803 21.6199 11.5256 21.6471C11.5546 21.6644 11.5807 21.7115 11.6046 21.7094C11.7656 21.695 11.886 21.7696 11.985 21.87C11.9953 21.831 11.9927 21.7814 12.0158 21.7632C12.1054 21.6916 12.21 21.7009 12.3078 21.745C12.333 21.7564 12.3415 21.8031 12.3646 21.8459C12.3881 21.8573 12.4265 21.8861 12.4696 21.8963C12.5439 21.9133 12.6285 21.9429 12.6951 21.9235C12.8415 21.8802 12.9662 21.787 13.1284 21.7632C13.2241 21.7492 13.2693 21.7539 13.327 21.8234C13.4282 21.9455 13.6566 21.9671 13.7668 21.8527C13.8855 21.7301 14.0101 21.6568 14.1856 21.6886C14.2108 21.6933 14.245 21.6772 14.2676 21.6602C14.356 21.5945 14.3773 21.5992 14.4076 21.7034C14.4166 21.7348 14.423 21.7666 14.4324 21.8077C14.5562 21.7446 14.6835 21.7047 14.7783 21.6259C14.9196 21.508 14.9136 21.4962 15.0472 21.6076C15.1647 21.5661 15.2458 21.4309 15.382 21.4966C15.4439 21.4563 15.499 21.4203 15.5395 21.394C15.5946 21.4351 15.6348 21.4665 15.6757 21.4957C15.7411 21.5424 15.7675 21.5343 15.8111 21.4567C15.8555 21.3783 15.9614 21.3677 16.0182 21.4343C16.0344 21.4533 16.0587 21.4652 16.0792 21.4805C16.092 21.4584 16.1049 21.4364 16.1241 21.4037C16.1676 21.4427 16.2206 21.4733 16.25 21.519C16.3341 21.6517 16.3533 21.6589 16.5066 21.6004C16.5438 21.5864 16.6095 21.5792 16.63 21.6C16.7346 21.7056 16.8333 21.6865 16.9464 21.617C17.0903 21.5284 17.2039 21.5682 17.2799 21.7183C17.2978 21.7535 17.3337 21.7797 17.3614 21.8103C17.367 21.798 17.3721 21.7861 17.3776 21.7738C17.4421 21.7895 17.5066 21.8056 17.5527 21.8166C17.583 21.7708 17.6005 21.7174 17.6377 21.6933C17.709 21.6471 17.7892 21.6127 17.8699 21.5835C17.9015 21.572 17.9459 21.5805 17.9792 21.5937C18.048 21.6204 18.1441 21.5576 18.1564 21.486C18.1624 21.4512 18.2008 21.4012 18.232 21.3953C18.3289 21.3758 18.4297 21.3745 18.5288 21.3652C18.5343 21.3647 18.5394 21.358 18.5475 21.352C18.53 21.3291 18.5125 21.3067 18.4963 21.285C18.5484 21.2388 18.5971 21.1986 18.6428 21.1545C18.6931 21.1062 18.7363 21.0913 18.8135 21.1168C18.9032 21.1464 19.0065 21.1363 19.1039 21.1405C19.1299 21.1418 19.1713 21.1405 19.1803 21.1252C19.2529 21.0019 19.3754 21.0294 19.4856 21.0176C19.4903 21.0171 19.4941 21.0078 19.4988 21.0027C19.48 20.976 19.4608 20.9489 19.4446 20.9256C19.5526 20.8217 19.673 20.8086 19.8003 20.859C19.9211 20.9069 20.2217 20.7497 20.2482 20.631C20.2896 20.444 20.4074 20.313 20.5906 20.2715C20.6832 20.2503 20.6867 20.2096 20.7042 20.1413C20.7161 20.0934 20.7571 20.0307 20.7994 20.0167C21.0244 19.9425 21.1935 19.8099 21.2938 19.5975C21.2528 19.5386 21.2238 19.4521 21.1653 19.4233C21.0786 19.3804 21.0863 19.3096 21.0816 19.249C21.0773 19.1943 21.1119 19.1371 21.1316 19.0744C21.1977 19.0837 21.2567 19.0918 21.316 19.0998C21.3771 18.9828 21.3203 18.8946 21.255 18.8094C21.1721 18.7013 21.199 18.564 21.3096 18.4843C21.3425 18.461 21.3745 18.4059 21.3711 18.369C21.3587 18.2478 21.3959 18.1647 21.5069 18.1074C21.5308 18.0952 21.5457 18.0451 21.5466 18.0125C21.5479 17.9421 21.5257 17.8701 21.5338 17.801C21.5423 17.7306 21.5756 17.6632 21.6021 17.5831C21.5961 17.5487 21.5615 17.4762 21.5846 17.4398C21.6055 17.4067 21.6896 17.4127 21.746 17.4029C21.7844 17.3961 21.8228 17.3923 21.8852 17.3838C21.8314 17.3219 21.7989 17.2482 21.7502 17.235C21.559 17.1842 21.547 17.0473 21.6589 16.9095C21.7161 16.8395 21.8369 16.7569 21.6849 16.6564C21.6768 16.6509 21.6781 16.6276 21.6789 16.6123C21.6819 16.5199 21.6584 16.4178 21.7771 16.3699C21.7878 16.3656 21.7946 16.3372 21.7938 16.3203C21.7904 16.2643 21.7643 16.2028 21.7801 16.1545C21.8045 16.0803 21.8566 16.0155 21.8792 15.9769C21.8638 15.8828 21.8348 15.8056 21.8446 15.7336C21.8544 15.6636 21.8173 15.5699 21.9274 15.5246C21.9659 15.5089 22.003 15.4284 21.997 15.383C21.9876 15.3139 21.9454 15.2465 21.9086 15.1838C21.8049 15.0053 21.7665 14.815 21.7993 14.6123C21.8126 14.531 21.8536 14.4521 21.8574 14.3711C21.8621 14.2703 21.8677 14.1545 21.8241 14.0697C21.7737 13.9718 21.7955 13.9125 21.8467 13.8357C21.8958 13.7624 21.9338 13.6814 21.9851 13.5895C22.0457 13.5725 22.1328 13.5475 22.237 13.5182C22.1815 13.447 22.1465 13.3974 22.1068 13.3521C22.0226 13.2554 22.0384 13.1295 22.1371 13.0651C22.1546 13.0536 22.1576 13.0015 22.149 12.9735C22.12 12.8781 22.0833 12.7849 22.0564 12.7103C22.0965 12.6912 22.1196 12.6865 22.1204 12.6789C22.1328 12.5793 22.1379 12.4784 22.1537 12.3792C22.1695 12.2796 22.155 12.2075 21.9859 12.2054C22.0628 12.1168 22.1315 12.0613 22.167 11.9901C22.2007 11.9222 22.2058 11.8375 22.2088 11.7599C22.2097 11.7421 22.1477 11.7238 22.1166 11.7027C22.0799 11.6776 22.0171 11.6505 22.0162 11.6225C22.0145 11.5662 22.05 11.5094 22.0632 11.4513C22.0713 11.4165 22.0811 11.369 22.0645 11.344C21.9757 11.2092 21.9893 11.0804 22.1076 10.9829C22.0641 10.7031 22.0205 10.4267 21.9774 10.1512C22.1029 10.1253 22.1268 10.0253 22.1648 9.9392C22.1682 9.93157 22.1443 9.90656 22.1285 9.89639C22.0115 9.82051 22.0068 9.76625 22.0717 9.63568C22.1097 9.55896 22.149 9.46019 22.132 9.38346C22.0978 9.2317 22.0282 9.09309 22.094 8.92861C22.1354 8.8256 22.0858 8.69165 22.225 8.61916C22.2553 8.60347 22.2442 8.50852 22.2553 8.42586C22.3271 8.40678 22.2707 8.33641 22.2524 8.2741C22.2267 8.28173 22.2003 8.28936 22.1687 8.29911C22.1717 8.23976 22.1939 8.16855 22.1721 8.15074C22.1157 8.10411 22.1127 8.07825 22.1584 8.02315C22.1823 7.99432 22.1785 7.94303 22.1892 7.89174C22.1366 7.89174 22.0922 7.90021 22.0525 7.88962C21.9957 7.87478 21.9364 7.84638 21.9633 7.77007C22.0337 7.57126 22.1025 7.3716 22.1836 7.17703C22.2186 7.0931 22.2378 7.03672 22.1226 7.02485C22.1226 6.95321 22.1435 6.87945 22.1183 6.82773C22.0598 6.70692 22.0807 6.6179 22.1968 6.54244C22.1828 6.54032 22.1687 6.5382 22.1546 6.53608C22.161 6.48649 22.167 6.43731 22.1717 6.39916C22.1362 6.38136 22.088 6.37246 22.0811 6.35084C22.0495 6.24995 22.0269 6.14609 22.0056 6.04223C21.9693 5.86674 21.9253 5.69463 21.7993 5.55686C21.8736 5.4068 21.8399 5.24868 21.728 5.16517C21.7443 5.10413 21.787 5.03037 21.766 4.99985C21.7379 4.95873 21.6597 4.9316 21.6038 4.93287C21.4825 4.93584 21.3301 4.79044 21.328 4.6692C21.3258 4.55263 21.2985 4.4369 21.2878 4.32033C21.2801 4.2347 21.2456 4.20799 21.1593 4.23173C21.1328 4.23894 21.0829 4.21817 21.0654 4.19443C20.9941 4.09735 20.9343 3.9918 20.8643 3.8943C20.8365 3.8553 20.7729 3.83453 20.7592 3.79426C20.7131 3.66031 20.6064 3.63869 20.489 3.6158C20.4424 3.60689 20.4032 3.56662 20.3579 3.54585C20.3011 3.51957 20.2418 3.47972 20.1833 3.4793C20.0462 3.47887 19.9296 3.46234 19.8199 3.3606C19.6952 3.2453 19.6124 3.07023 19.4062 3.04776C19.3558 3.09312 19.3054 3.16815 19.2089 3.11177C19.1995 3.10626 19.1803 3.11728 19.1658 3.12152C19.0983 3.1406 19.0322 3.16815 18.9634 3.17748C18.8673 3.19019 18.8067 3.14187 18.7943 3.03886C18.7175 3.05666 18.627 3.10668 18.5783 3.0804C18.5219 3.05031 18.5019 2.95281 18.4587 2.87014C18.2346 3.06769 18.0207 3.02106 17.8294 2.82055C17.8588 2.76926 17.8909 2.71372 17.9182 2.6654C17.867 2.62513 17.8243 2.59206 17.7726 2.55137C17.7295 2.67472 17.6428 2.66285 17.5382 2.6442C17.4519 2.62894 17.3324 2.61495 17.2747 2.65989C17.1411 2.76374 17.0271 2.75908 16.9216 2.67769C16.8542 2.72602 16.8012 2.76417 16.7483 2.8019C16.7479 2.78748 16.747 2.77349 16.7466 2.75908C16.7065 2.71881 16.6727 2.65904 16.6245 2.64336C16.5677 2.6247 16.4972 2.63827 16.4349 2.64929C16.3653 2.66116 16.2884 2.67176 16.2321 2.70864C16.154 2.76035 16.0908 2.75018 16.0143 2.71627C15.9114 2.67048 15.8064 2.62809 15.6992 2.59503C15.6424 2.57765 15.5728 2.59673 15.519 2.57511C15.4273 2.5378 15.367 2.5679 15.3039 2.62894C15.2863 2.6459 15.2441 2.65226 15.2197 2.64378C15.1711 2.62725 15.1271 2.59715 15.0806 2.57383C15.0297 2.5484 14.9781 2.52424 14.9217 2.49711C14.8073 2.58231 14.6788 2.63276 14.552 2.55094C14.4892 2.58613 14.4375 2.61453 14.3863 2.64336C14.3825 2.64971 14.3432 2.63827 14.3265 2.61241C14.274 2.5306 14.2168 2.52593 14.1369 2.57383C14.1147 2.58698 14.0648 2.57638 14.0396 2.559C13.9726 2.51322 13.9196 2.52212 13.8675 2.57935C13.8103 2.64166 13.7493 2.70058 13.6925 2.76332C13.5815 2.88583 13.5012 2.8871 13.3829 2.76671C13.33 2.71288 13.2792 2.65565 13.2207 2.60859C13.1647 2.56366 13.1075 2.49033 13.0209 2.58952C13.0012 2.48185 12.9504 2.48651 12.8706 2.50135C12.8121 2.51194 12.7348 2.44242 12.6818 2.45938C12.6251 2.47718 12.5866 2.55391 12.5226 2.62428C12.4538 2.61411 12.3526 2.56409 12.2446 2.62216C12.2122 2.63954 12.1554 2.60478 12.114 2.61326C11.9966 2.63742 11.883 2.68405 11.7651 2.69889C11.6558 2.71245 11.5269 2.76714 11.4458 2.6264C11.4321 2.60266 11.3937 2.59249 11.3668 2.57595C11.3497 2.60478 11.3326 2.63361 11.304 2.68235C11.2626 2.63827 11.2216 2.58782 11.1738 2.54459C11.085 2.46362 11.0517 2.5857 10.9889 2.58443C10.9236 2.56408 10.8578 2.5573 10.7921 2.55603C10.6943 2.55433 10.5965 2.55942 10.4987 2.55688C10.4424 2.55518 10.3805 2.52551 10.3309 2.54077C10.1909 2.58274 10.1452 2.5005 10.1119 2.41445C10.0423 2.43818 9.96162 2.49668 9.90611 2.47888C9.75752 2.43098 9.61534 2.35595 9.50177 2.24234C9.4437 2.18426 9.32714 2.18342 9.26395 2.24785C9.20673 2.30677 9.15208 2.36824 9.08932 2.43606C9.05986 2.37757 9.04064 2.33941 9.02143 2.30126C9.01673 2.31101 9.01161 2.32034 9.00691 2.33009C8.9608 2.31949 8.91469 2.30889 8.86516 2.29787C8.8959 2.27625 8.92109 2.25845 8.98172 2.21563C8.91938 2.1529 8.869 2.10245 8.81905 2.05243L8.78105 2.08549C8.78788 2.11941 8.80453 2.15459 8.79983 2.18681C8.79471 2.22242 8.77037 2.25548 8.75201 2.2949C8.74347 2.29109 8.70846 2.28558 8.7059 2.27329C8.69223 2.20843 8.68669 2.14145 8.67815 2.07532C8.59147 2.0838 8.57226 2.12873 8.60727 2.21267C8.62179 2.247 8.63673 2.2949 8.62349 2.32415C8.60172 2.37248 8.34127 2.37714 8.29857 2.33772C8.11241 2.16477 7.99798 2.16095 7.82378 2.30889C7.79176 2.30465 7.76102 2.30677 7.73497 2.31949C7.70124 2.33602 7.67263 2.37545 7.63933 2.37841C7.51551 2.39071 7.39041 2.38944 7.26659 2.39961C7.24396 2.40131 7.20553 2.43225 7.20553 2.44963C7.20553 2.53823 7.14319 2.52636 7.08982 2.52636C7.05865 2.52636 7.02706 2.51534 6.98863 2.5077C6.99076 2.53865 6.99418 2.55349 6.99247 2.56832C6.98863 2.60139 6.98222 2.63361 6.97667 2.66667C6.94465 2.65141 6.90665 2.64208 6.88231 2.61877C6.85584 2.59376 6.84901 2.54586 6.82083 2.52551C6.79308 2.50559 6.74099 2.4899 6.71409 2.50304C6.62656 2.54543 6.54672 2.60308 6.46218 2.65099C6.44168 2.66243 6.41222 2.66497 6.38831 2.66201C6.3042 2.65226 6.22008 2.63827 6.13597 2.62598C5.96732 2.60139 5.79866 2.5768 5.62233 2.55094C5.61336 2.59969 5.58945 2.65353 5.50491 2.62894C5.49722 2.62682 5.47716 2.65904 5.46691 2.67769C5.45197 2.70482 5.44001 2.73365 5.42208 2.77307C5.36614 2.68363 5.29313 2.68744 5.22994 2.72475C5.15608 2.76798 5.10655 2.74382 5.04592 2.7027C4.88708 2.59418 4.68043 2.64887 4.61212 2.8286C4.58009 2.91296 4.53782 2.95747 4.46353 2.97951C4.44731 3.03081 4.4251 3.08379 4.38582 3.10372C4.33117 3.13169 4.26072 3.12873 4.20265 3.15204C4.14971 3.17281 4.09335 3.20206 4.05706 3.24361C3.99173 3.31906 3.94007 3.40681 3.8931 3.47463C3.83418 3.43394 3.80002 3.3924 3.76928 3.39494C3.7411 3.39706 3.68901 3.45641 3.69499 3.47336C3.72658 3.56111 3.66382 3.56238 3.61344 3.57256C3.51779 3.59163 3.4815 3.64038 3.46613 3.74212C3.44948 3.84937 3.44863 3.98078 3.31328 4.04182C3.2851 4.05454 3.2582 4.12575 3.26887 4.15712C3.30346 4.25717 3.30089 4.39621 3.45973 4.38646C3.44692 4.45725 3.42856 4.5166 3.42728 4.57594C3.42557 4.66115 3.37348 4.70439 3.30474 4.71795C3.14633 4.7489 3.06136 4.83495 3.0477 4.99603C3.04514 5.02528 3.01056 5.05157 2.99091 5.07954C2.96017 5.23766 3.11602 5.22579 3.21806 5.28302C3.19757 5.37882 3.18262 5.46996 3.08015 5.52888C2.99689 5.57678 2.92858 5.65012 2.85343 5.71243C2.8688 5.71795 2.8846 5.72303 2.89997 5.72854C2.91064 5.75313 2.93712 5.7845 2.92986 5.80018C2.90381 5.85444 2.8624 5.90107 2.83336 5.95406C2.79494 6.02358 2.76206 6.09649 2.72064 6.18043C2.67752 6.21476 2.61518 6.26478 2.56821 6.30251C2.59981 6.35847 2.63012 6.38729 2.63098 6.41697C2.63568 6.57635 2.62372 6.73871 2.77615 6.84935C2.78853 6.85825 2.79792 6.88454 2.79451 6.8998C2.77444 6.99433 2.7501 7.08759 2.73004 7.1711C2.65617 7.15287 2.60451 7.14015 2.55242 7.12743C2.54473 7.13761 2.53705 7.14736 2.52893 7.15753C2.55284 7.19865 2.57718 7.23934 2.60451 7.28597C2.52039 7.37033 2.57932 7.46317 2.6139 7.55304C2.65147 7.65011 2.64165 7.71158 2.52509 7.73701C2.46873 7.7493 2.43329 7.78661 2.44354 7.86249C2.45421 7.94133 2.46916 8.05748 2.42603 8.09818C2.33893 8.17999 2.3526 8.26604 2.35815 8.35591C2.35985 8.38855 2.39188 8.43815 2.42006 8.44663C2.50887 8.47333 2.54644 8.52378 2.54174 8.61365C2.54003 8.64332 2.54559 8.67427 2.55327 8.70352C2.57761 8.79635 2.60408 8.88876 2.63397 8.99559C2.35174 9.03162 2.35985 9.26901 2.27702 9.44917C2.31972 9.54709 2.34662 9.68019 2.42475 9.76837C2.53534 9.89342 2.40725 9.96336 2.38889 10.0558C2.38547 10.0736 2.30136 10.0753 2.24884 10.0854C2.20145 10.1774 1.96192 10.2474 2.20145 10.403C2.16686 10.4453 2.13655 10.4822 2.12716 10.4937C2.13996 10.539 2.15149 10.5632 2.15149 10.5869C2.15149 10.6018 2.12032 10.6238 2.12374 10.6297C2.1485 10.6692 2.18223 10.7035 2.20657 10.7429C2.22578 10.7743 2.24415 10.8103 2.24841 10.8464C2.25354 10.8875 2.24585 10.9307 2.23817 10.9723C2.23262 11.0032 2.2181 11.0325 2.20785 11.0626C2.15832 11.1427 2.21596 11.1495 2.29624 11.135C2.22322 11.2075 2.16387 11.2669 2.09214 11.3381C2.16046 11.3597 2.19504 11.3707 2.2403 11.3847C2.20187 11.4106 2.17498 11.4288 2.13057 11.4589C2.1848 11.4856 2.22664 11.5064 2.27873 11.5318C2.28471 11.5967 2.29239 11.6836 2.3005 11.776C2.3432 11.7548 2.3637 11.7446 2.38419 11.7344C2.39017 11.7459 2.39615 11.7569 2.4017 11.7684C2.33765 11.8023 2.27361 11.8362 2.20572 11.8722C2.23219 11.9807 2.1848 12.06 2.08617 12.135C2.0328 12.1757 1.99095 12.2639 1.98924 12.3317C1.98583 12.4708 2.01059 12.6107 2.03023 12.7493C2.03536 12.7849 2.0661 12.8167 2.08617 12.8527C2.07293 12.8591 2.05116 12.8697 2.01913 12.8853C2.06012 12.9112 2.09086 12.9303 2.11904 12.9481C2.05969 13.0799 2.1596 13.2342 2.02255 13.3432C2.07464 13.3678 2.10751 13.3834 2.14936 13.4034C2.09385 13.439 2.04774 13.4691 2.0076 13.4953C2.01871 13.6102 2.21426 13.684 2.05158 13.8192C2.16943 13.9498 2.09684 14.0532 1.97515 14.1503C2.20956 14.2974 2.06909 14.5165 2.10068 14.7001C2.11691 14.7938 2.08019 14.8985 2.10538 14.9879C2.13868 15.1058 2.11904 15.16 1.99608 15.1579C2.00291 15.2338 2.00035 15.3135 2.10282 15.2694C2.13057 15.3669 2.16131 15.4576 2.18095 15.5504C2.18821 15.5844 2.18223 15.6373 2.16003 15.6585C2.0614 15.7518 2.02853 15.8599 2.06866 15.9862C2.10282 16.0926 2.10709 16.1833 2.00205 16.2563C1.97558 16.2749 1.96747 16.3198 1.94868 16.358C2.04134 16.4038 2.13014 16.4449 2.07378 16.5632C2.04091 16.6314 2.0059 16.6988 1.96832 16.7738C2.10922 16.8243 2.15064 16.9031 2.08361 17.0311C2.04432 17.1062 2.08446 17.188 2.14722 17.2139C2.31972 17.2851 2.33253 17.4224 2.33509 17.5725C2.27745 17.5937 2.21981 17.6081 2.17028 17.6369C2.15021 17.6488 2.13057 17.7064 2.14039 17.717C2.19931 17.7827 2.25909 17.8518 2.3321 17.8989C2.50118 18.0078 2.50588 18.01 2.41323 18.1774C2.39615 18.2083 2.38974 18.2444 2.37437 18.2766C2.31929 18.3923 2.35089 18.4411 2.48197 18.4385C2.6075 18.4364 2.67368 18.5445 2.64678 18.6679C2.63482 18.7213 2.67496 18.7874 2.69673 18.8459C2.70869 18.8777 2.73217 18.9052 2.75096 18.9349C2.82781 19.0557 2.89186 19.188 2.98579 19.2944C3.07759 19.3982 3.11004 19.4881 3.03788 19.6051C3.10705 19.65 3.17366 19.6996 3.24624 19.7378C3.29534 19.7636 3.3628 19.762 3.40294 19.7954C3.43283 19.82 3.43155 19.8815 3.44521 19.926C3.46869 20.001 3.49047 20.0769 3.51908 20.1498C3.53103 20.1803 3.55409 20.2198 3.58099 20.2287C3.70694 20.2715 3.79404 20.3427 3.80258 20.4779H3.94519C3.9247 20.4618 3.90121 20.444 3.8709 20.4203C4.00326 20.3974 3.99173 20.511 4.02503 20.5665C4.07029 20.642 4.09121 20.7119 4.20692 20.6589C4.30342 20.6149 4.34868 20.6568 4.35551 20.7696C4.35892 20.8221 4.35892 20.8425 4.43706 20.8476C4.5532 20.8556 4.60827 20.7492 4.72783 20.7526C4.83841 20.7556 4.90246 20.7552 4.92978 20.8654C4.95198 20.9565 5.01902 20.9675 5.08861 20.9438C5.27819 20.8794 5.27862 20.8756 5.3559 21.0561C5.37981 21.1121 5.405 21.1286 5.45922 21.0926C5.51217 21.0578 5.55273 20.9845 5.63514 21.0303C5.69875 21.0659 5.7628 21.1011 5.85161 21.1498H5.85118Z" fill="currentColor"/>
  <path d="M17.8742 12.4619C17.9037 12.4678 17.9455 12.4763 17.9878 12.4848L17.9946 12.5178C17.943 12.5399 17.8934 12.5691 17.8396 12.5823C17.7863 12.5954 17.7559 12.5979 17.7799 12.6704C17.7965 12.7204 17.805 12.7895 17.7397 12.8353C17.7231 12.8472 17.715 12.8968 17.7256 12.9176C17.7892 13.0422 17.7623 13.1745 17.6552 13.2351C17.6518 13.2368 17.6501 13.2414 17.6466 13.2427C17.586 13.2686 17.5002 13.2792 17.4716 13.3249C17.443 13.3703 17.4716 13.4513 17.4758 13.5267C17.5177 13.5212 17.5523 13.5165 17.5873 13.5119C17.592 13.7289 17.5604 13.7802 17.3512 13.8883C17.3712 13.9108 17.3875 13.9349 17.4092 13.9523C17.4776 14.0078 17.4609 14.0435 17.4067 14.1092C17.3461 14.1825 17.2833 14.2885 17.2901 14.375C17.2991 14.4881 17.2807 14.5182 17.1744 14.5064C17.1578 14.5047 17.1398 14.514 17.1142 14.5204C17.133 14.6284 17.089 14.6963 16.981 14.745C16.8683 14.7963 16.8115 14.8989 16.7842 15.0256C16.7607 15.1346 16.7022 15.2359 16.6638 15.3283C16.6847 15.3699 16.7261 15.4161 16.7158 15.4381C16.6727 15.5297 16.6211 15.6195 16.557 15.6975C16.5382 15.7204 16.4678 15.7009 16.4101 15.7009C16.4217 15.7493 16.434 15.781 16.4358 15.8133C16.4392 15.8849 16.4503 15.9667 16.3277 15.9167C16.3081 15.9086 16.2624 15.9303 16.2466 15.951C16.1676 16.0566 16.1019 16.1727 16.0182 16.2741C15.9242 16.3877 15.8154 16.489 15.7146 16.5971C15.6565 16.6594 15.6044 16.7281 15.5434 16.7874C15.449 16.8785 15.3598 16.9828 15.2475 17.0447C15.1864 17.0782 15.1254 17.099 15.0874 17.16C15.0801 17.1719 15.0694 17.1829 15.0656 17.1956C15.0118 17.3741 15.0037 17.3758 14.8201 17.3902C14.7693 17.394 14.7181 17.4279 14.6754 17.4597C14.6681 17.4652 14.7048 17.5284 14.727 17.5784C14.6762 17.5657 14.6292 17.5538 14.5733 17.5398C14.5187 17.6149 14.461 17.6946 14.403 17.7743C14.4119 17.784 14.4205 17.7942 14.4294 17.8039C14.3517 17.8077 14.274 17.8116 14.1967 17.8162C14.1856 17.8171 14.1707 17.8209 14.1651 17.8289C14.096 17.9269 14.0251 17.8633 13.9435 17.848C13.8944 17.8387 13.8137 17.9014 13.774 17.9523C13.7121 18.0316 13.6754 18.0888 13.5768 17.9883C13.4973 17.9069 13.4132 17.9353 13.3103 18.0515L13.2967 18.0222C13.2493 18.0434 13.1908 18.054 13.1575 18.0888C13.1212 18.1265 13.1088 18.1867 13.0951 18.2168C12.9918 18.2249 12.8911 18.2312 12.7903 18.2414C12.7749 18.2431 12.7519 18.2596 12.748 18.2736C12.7164 18.3915 12.6293 18.3855 12.5422 18.3601C12.4257 18.3262 12.3121 18.2821 12.1989 18.2427C12.1246 18.3711 12.1046 18.3749 11.9748 18.3092C11.9534 18.2982 11.9159 18.2982 11.8954 18.3092C11.8104 18.3554 11.7318 18.3698 11.6366 18.3258C11.4718 18.249 11.3121 18.3232 11.1529 18.3643C11.1465 18.366 11.1447 18.3868 11.1388 18.4046C11.1055 18.3893 11.07 18.3728 11.0333 18.3559C11.0077 18.4478 10.8758 18.5034 10.7865 18.4809C10.7472 18.4712 10.6879 18.4762 10.6597 18.5C10.547 18.5949 10.319 18.5797 10.2259 18.4589C10.0551 18.2376 9.82669 18.1596 9.55429 18.1859C9.52483 18.1888 9.49494 18.1859 9.4642 18.163C9.48853 18.1579 9.51244 18.1528 9.54618 18.1456C9.51714 18.1108 9.401 18.1189 9.48939 18.0473C9.24217 17.9387 9.00093 17.8404 8.76738 17.7268C8.68028 17.6844 8.61197 17.6047 8.53383 17.5441C8.4796 17.5021 8.42324 17.4623 8.3656 17.4245C8.33102 17.4016 8.30668 17.3686 8.25972 17.4339C8.22086 17.4881 8.13888 17.4746 8.10259 17.3877C8.04922 17.4093 7.99585 17.4309 7.94376 17.4517C7.96084 17.4076 7.9967 17.3605 7.98475 17.3376C7.96596 17.302 7.91515 17.2829 7.88057 17.2588C7.89466 17.2041 7.90875 17.1511 7.92284 17.0973C7.85367 17.0545 7.72301 17.0765 7.72686 16.9277C7.67989 16.9277 7.63634 16.9337 7.59535 16.9269C7.44378 16.901 7.41389 16.8535 7.4425 16.6988C7.45573 16.628 7.43823 16.5657 7.37034 16.5339C7.23285 16.4695 7.21492 16.3465 7.19742 16.2185C7.19272 16.1846 7.17692 16.1414 7.1513 16.1227C7.06719 16.0621 7.00058 15.9943 6.96173 15.8947C6.94679 15.8565 6.8964 15.8167 6.85541 15.8078C6.74355 15.7832 6.71451 15.7217 6.73159 15.6174C6.74397 15.5432 6.7538 15.4665 6.74824 15.3919C6.74483 15.3487 6.71964 15.2944 6.68591 15.2681C6.58898 15.1914 6.48267 15.1265 6.3802 15.0566C6.28327 14.9905 6.26491 14.9099 6.33494 14.8137C6.23972 14.7103 6.24485 14.6513 6.35629 14.5666C6.45506 14.4914 6.46943 14.4144 6.39941 14.3355C6.41137 14.2808 6.42161 14.2372 6.43101 14.1935C6.44766 14.1168 6.45363 14.0354 6.4831 13.9638C6.52537 13.8591 6.50615 13.745 6.39471 13.7196C6.1808 13.6704 6.19062 13.5174 6.18806 13.3605C6.18763 13.3288 6.18336 13.297 6.18123 13.2745C6.26193 13.258 6.33964 13.2423 6.41734 13.2266C6.41649 13.2135 6.41563 13.1999 6.41521 13.1867C6.33921 13.1774 6.26321 13.1685 6.17867 13.1583C6.24229 13.0774 6.34092 13.0002 6.19276 12.9091C6.17653 12.9324 6.16031 12.9561 6.14195 12.9824C6.12871 12.9727 6.10608 12.965 6.10395 12.9532C6.09455 12.8998 6.09071 12.8455 6.10907 12.7917C6.09584 12.77 6.06595 12.7391 6.07192 12.7285C6.11462 12.6535 6.11718 12.6547 6.04716 12.609C6.03905 12.6034 6.03008 12.5992 5.99934 12.5818C6.02624 12.6289 6.04161 12.6552 6.06552 12.6971C6.00745 12.6696 5.96604 12.6497 5.91736 12.6263C5.96305 12.4898 6.05869 12.4377 6.20002 12.4436C6.19019 12.3071 6.1808 12.1766 6.1697 12.021C6.16244 12.0172 6.12188 12.0032 6.09071 11.9773C6.05271 11.9455 5.98781 11.8913 5.99592 11.8701C6.01599 11.8175 6.06339 11.7637 6.11419 11.7374C6.17269 11.7069 6.26193 11.7255 6.19447 11.6102C6.17611 11.5789 6.23118 11.5093 6.24399 11.4555C6.26662 11.3601 6.28712 11.2635 6.30035 11.166C6.31316 11.0706 6.40112 10.9807 6.50444 10.9693C6.68078 10.9498 6.75123 10.823 6.6953 10.662C6.6731 10.5975 6.69743 10.5174 6.70128 10.4369C6.6509 10.4131 6.55184 10.4051 6.5702 10.2817C6.55782 10.2847 6.53476 10.2898 6.5117 10.2953C6.50231 10.2868 6.49292 10.2783 6.48352 10.2698C6.60777 10.1249 6.7 9.95488 6.87847 9.83704C6.84474 9.82814 6.82595 9.82305 6.80247 9.81711C6.82809 9.78871 6.85157 9.76243 6.85926 9.75353C6.92586 9.7637 6.98052 9.78024 7.03303 9.776C7.05054 9.77472 7.06335 9.71962 7.08427 9.67765C7.10007 9.67426 7.13252 9.66705 7.15984 9.66112C7.16625 9.58524 7.16198 9.50512 7.18204 9.43136C7.20254 9.35633 7.24652 9.28723 7.2811 9.21305C7.30501 9.21305 7.32423 9.21305 7.34301 9.21305C7.51423 9.21178 7.51935 9.20457 7.50227 9.03204C7.49886 8.9994 7.50313 8.96167 7.51679 8.93242C7.59578 8.7654 7.68501 8.60262 7.75632 8.43221C7.78023 8.37456 7.76827 8.29826 7.76016 8.23213C7.75504 8.19101 7.72686 8.15244 7.70295 8.09945H7.81866C7.82421 8.07232 7.82976 8.04392 7.83915 7.99559C7.86093 8.02654 7.87203 8.04222 7.88526 8.0613C7.89551 8.02781 7.90576 7.99517 7.91857 7.95235C7.88014 7.96719 7.84598 7.98033 7.80884 7.99474C7.79517 7.92183 7.79773 7.92437 7.91131 7.81967C7.96254 7.77262 8.00097 7.71242 8.04538 7.65816C8.03684 7.65138 8.02872 7.6446 8.02019 7.63781C7.99585 7.66706 7.97194 7.69631 7.94974 7.72302C7.94162 7.69674 7.93052 7.66028 7.9143 7.60645C7.95059 7.60009 7.98389 7.58695 8.01592 7.58949C8.10003 7.59542 8.18286 7.61068 8.26697 7.61747C8.35536 7.62467 8.40574 7.58313 8.41471 7.49369C8.42495 7.39619 8.42581 7.39661 8.38567 7.34108C8.31095 7.23722 8.32504 7.1978 8.45399 7.16897C8.51803 7.15456 8.58379 7.14778 8.65851 7.13591C8.60556 7.00153 8.70163 6.9477 8.80965 6.90064C8.94671 6.84087 9.0526 6.75227 9.11622 6.61111C9.1508 6.53396 9.21869 6.50175 9.3186 6.50302C9.42534 6.50471 9.53208 6.45385 9.64053 6.44113C9.71867 6.43223 9.80022 6.44494 9.87964 6.45384C9.93856 6.4602 9.98382 6.46105 9.99278 6.38432C10.0064 6.26521 10.0555 6.21985 10.1555 6.26054C10.281 6.31184 10.3489 6.25546 10.4185 6.17068C10.4872 6.08674 10.6238 6.09522 10.699 6.17534C10.7186 6.19653 10.7827 6.20544 10.8066 6.19018C10.9283 6.11218 11.0444 6.0257 11.1605 5.93922C11.1968 5.91209 11.2259 5.87564 11.2587 5.84342C11.2669 5.83537 11.2754 5.8235 11.2852 5.8218C11.3864 5.80357 11.4876 5.78026 11.5901 5.77263C11.6379 5.76881 11.6879 5.79594 11.7549 5.81375C11.7707 5.81163 11.8134 5.79382 11.8492 5.80315C11.9018 5.81671 11.9496 5.84935 11.9995 5.87352L11.9927 5.91718C12.0384 5.89683 12.0841 5.87691 12.1417 5.85105C12.1614 5.89386 12.1857 5.94601 12.2139 6.00705C12.2399 5.98755 12.2737 5.9761 12.2788 5.95703C12.3245 5.78831 12.4649 5.77475 12.5994 5.77475C12.6571 5.77475 12.7143 5.82943 12.7724 5.85783C12.8133 5.87776 12.8556 5.89514 12.9248 5.92523C12.9081 5.84935 12.9 5.81417 12.8889 5.76457C12.9598 5.76457 13.0358 5.7828 13.0964 5.76033C13.1835 5.72812 13.2151 5.78195 13.2437 5.82985C13.3236 5.96254 13.4615 5.98797 13.5994 5.90489C13.6447 5.87733 13.7194 5.88369 13.777 5.89387C13.8919 5.91421 14.0046 5.9477 14.1314 5.97907C14.1698 6.0859 14.2757 6.16644 14.3923 6.21476C14.5067 6.26224 14.6006 6.29615 14.5195 6.44664C14.593 6.43731 14.6553 6.41273 14.7052 6.42756C14.7552 6.4424 14.7928 6.49751 14.8359 6.53481C14.8338 6.54583 14.8312 6.55643 14.8291 6.56745C14.9089 6.5471 14.9875 6.51913 15.0686 6.50938C15.1181 6.50344 15.1796 6.51319 15.2206 6.53947C15.3265 6.60645 15.4238 6.68657 15.528 6.76372C15.5233 6.79551 15.5173 6.83366 15.5062 6.90615C15.5711 6.83409 15.5694 6.72514 15.6719 6.7633C15.7394 6.78831 15.806 6.8184 15.8679 6.85486C15.926 6.8892 15.8961 6.93201 15.8623 6.96677C15.759 7.07402 15.7654 7.12786 15.8828 7.20119C15.9853 7.2652 16.0826 7.33557 16.2146 7.31904C16.2317 7.31692 16.2684 7.34023 16.268 7.34998C16.2577 7.52463 16.3738 7.41314 16.4349 7.42417C16.4738 7.43095 16.5126 7.44027 16.5515 7.44833C16.548 7.46105 16.5446 7.47376 16.5412 7.48606C16.5169 7.48139 16.4921 7.47631 16.4311 7.46444C16.4708 7.51531 16.4908 7.54667 16.5164 7.57253C16.5617 7.61789 16.5886 7.66071 16.5536 7.72811C16.5446 7.74549 16.5681 7.79296 16.5903 7.8095C16.6851 7.88071 16.7936 7.93624 16.8798 8.01594C16.9285 8.06087 16.9443 8.13378 17.0207 8.16685C17.0771 8.19144 17.1142 8.25036 17.0532 8.32539C17.0331 8.34955 17.042 8.41907 17.0634 8.45087C17.1385 8.56405 17.2474 8.64332 17.3008 8.78618C17.3362 8.88071 17.4174 8.98075 17.4793 9.07486C17.5433 9.17278 17.5826 9.22237 17.4647 9.31521C17.5536 9.33598 17.6197 9.35124 17.6962 9.36905C17.6765 9.40126 17.6629 9.42415 17.6441 9.45552C17.6688 9.46019 17.6829 9.46358 17.6966 9.4657C17.7982 9.47884 17.8443 9.51063 17.8503 9.63696C17.8601 9.84721 17.9178 10.0554 17.9566 10.2643C17.9771 10.3741 18.0108 10.4826 18.0185 10.5933C18.0245 10.6751 18.0365 10.7289 18.1637 10.7145C18.1283 10.8286 18.0979 10.9205 18.071 11.0138C18.0625 11.0443 18.0544 11.0791 18.0608 11.1083C18.0856 11.2228 18.0877 11.3169 17.9541 11.3758C17.846 11.4233 17.8682 11.5467 17.8742 11.6293C17.8815 11.723 17.9459 11.8124 18.0002 11.9366C17.9912 11.9837 17.9763 12.0736 17.9553 12.1622C17.9323 12.2614 17.9037 12.3597 17.8763 12.4623L17.8742 12.4619ZM11.5837 16.4055C11.6943 16.2435 11.8847 16.2278 12.0042 16.3881C12.0649 16.4695 12.1097 16.4491 12.1686 16.4173C12.225 16.3864 12.2749 16.3431 12.3309 16.3118C12.444 16.2486 12.5631 16.2232 12.6857 16.2842C12.7446 16.3139 12.7967 16.3576 12.856 16.3868C12.9197 16.4182 13.0183 16.4809 13.0486 16.4589C13.1447 16.3885 13.248 16.3516 13.3586 16.3232C13.365 16.3215 13.371 16.3135 13.3744 16.3067C13.4611 16.1155 13.6318 16.1308 13.8043 16.1376C13.8146 16.0553 13.8248 15.9731 13.8376 15.8739C13.882 15.9091 13.9107 15.9315 13.9448 15.9582C13.9542 15.9341 13.9713 15.9133 13.9662 15.9019C13.923 15.8086 13.9798 15.7777 14.0537 15.7772C14.1545 15.7768 14.1882 15.7141 14.2245 15.6382C14.1818 15.6136 14.1463 15.5928 14.1045 15.5687C14.1527 15.4542 14.1907 15.3232 14.3351 15.3186C14.432 15.3152 14.493 15.2719 14.555 15.2181C14.587 15.1901 14.5989 15.1363 14.6331 15.1134C14.7373 15.0439 14.7719 14.9502 14.765 14.8307C14.7629 14.795 14.7714 14.748 14.7941 14.7243C14.8491 14.6666 14.8517 14.6208 14.783 14.5767C14.7932 14.561 14.7988 14.5513 14.8056 14.5428C14.8128 14.5339 14.8205 14.5216 14.8303 14.5191C15.0067 14.4716 15.0426 14.3457 15.0186 14.1867C15.0067 14.1075 15.0532 14.0659 15.1079 14.0168C15.1856 13.9464 15.271 13.868 15.309 13.7751C15.35 13.6747 15.3461 13.5572 15.4349 13.4737C15.4477 13.4619 15.4384 13.4254 15.4371 13.4004C15.4285 13.2427 15.4755 13.1537 15.6288 13.1054C15.7654 13.0625 15.8564 13.0079 15.8132 12.8463C15.8094 12.8319 15.8282 12.8129 15.8337 12.7946C15.8487 12.7442 15.8572 12.6916 15.8768 12.6433C15.8922 12.6051 15.7897 12.5212 15.9208 12.5267C15.9221 12.5267 15.9221 12.5047 15.9264 12.4949C15.9563 12.4296 15.9819 12.3618 16.0186 12.3004C16.0557 12.2389 16.1044 12.1846 16.1505 12.1236C16.1066 12.0893 16.0775 12.0668 16.0481 12.0439C16.078 12.0291 16.1044 12.0163 16.1292 12.0045C16.0976 11.9646 16.0707 11.9307 16.0408 11.8934C16.0822 11.8531 16.1313 11.8222 16.0715 11.7552C16.0532 11.7344 16.0797 11.6314 16.1002 11.6263C16.2167 11.5984 16.2116 11.5077 16.2133 11.4284C16.2154 11.3249 16.2133 11.2143 16.1318 11.1363C16.1061 11.1117 16.0459 11.1257 16.0037 11.1143C15.9844 11.1092 15.958 11.0867 15.9554 11.0693C15.9422 10.9773 15.9294 10.8735 16.0224 10.8192C16.1211 10.7616 16.092 10.6993 16.0583 10.6276C16.0442 10.5971 16.0288 10.5674 16.0139 10.5373C15.9908 10.4899 15.987 10.4352 15.8999 10.4483C15.8529 10.4555 15.7786 10.4106 15.8371 10.325C15.8837 10.2563 15.8431 10.205 15.7915 10.1584C15.765 10.1346 15.7176 10.0994 15.7223 10.0808C15.7517 9.97099 15.6676 9.89681 15.6446 9.80482C15.6202 9.70902 15.4921 9.6679 15.3752 9.73276C15.3598 9.659 15.3474 9.59541 15.3329 9.53183C15.3303 9.52038 15.3175 9.51106 15.315 9.50003C15.2876 9.37583 15.1386 9.3504 15.0989 9.23636C15.0959 9.22746 15.081 9.21517 15.0729 9.21602C14.9315 9.23255 14.9499 9.11386 14.9264 9.05875C14.8637 9.04603 14.803 9.05027 14.7654 9.02272C14.6638 8.94811 14.5733 8.85782 14.4747 8.77855C14.4512 8.75947 14.3944 8.74209 14.3842 8.75311C14.324 8.81797 14.265 8.78236 14.2061 8.76074C14.1468 8.73912 14.0887 8.71284 14.0315 8.6891C14.0575 8.63315 14.0853 8.57168 14.1135 8.51064C14.0413 8.53819 13.8197 8.56659 13.768 8.52759C13.7365 8.50385 13.7258 8.45341 13.704 8.41229C13.6707 8.40042 13.5985 8.39618 13.5862 8.36651C13.5499 8.27961 13.5153 8.30589 13.4568 8.33853C13.4269 8.35506 13.3633 8.35591 13.3411 8.33556C13.2164 8.22238 13.0746 8.2139 12.918 8.23637C12.856 8.24527 12.7852 8.23764 12.7275 8.21517C12.6652 8.19101 12.6404 8.20119 12.6182 8.25926C12.5794 8.36227 12.5239 8.36905 12.4555 8.28173C12.4351 8.25502 12.4146 8.19991 12.4 8.20161C12.2643 8.21899 12.1161 8.21899 11.9987 8.27749C11.88 8.33684 11.8668 8.35633 11.8147 8.22662C11.8044 8.20076 11.7703 8.15837 11.7677 8.15964C11.7118 8.19059 11.6584 8.22662 11.605 8.2618C11.6084 8.27071 11.6119 8.27961 11.6157 8.28851C11.5743 8.27367 11.5324 8.25926 11.4876 8.24315C11.5034 8.22111 11.5145 8.20585 11.5324 8.18084C11.4445 8.2245 11.3672 8.26265 11.2925 8.29996C11.278 8.24315 11.2699 8.21178 11.2622 8.18084C11.2408 8.205 11.2203 8.23001 11.1977 8.25333C11.1815 8.26986 11.1627 8.28385 11.1439 8.29996C11.1576 8.32709 11.1742 8.35973 11.1845 8.37965C11.1311 8.41144 11.0871 8.44875 11.0359 8.46613C10.9629 8.49071 10.8762 8.53014 10.8109 8.51106C10.693 8.47672 10.5871 8.40381 10.4612 8.33938C10.4603 8.46443 10.4155 8.53989 10.3032 8.55727C10.1939 8.57422 10.0948 8.58779 10.0013 8.67384C9.91806 8.75057 9.8506 8.82518 9.79766 8.92437C9.76948 8.97693 9.69689 9.00449 9.64993 9.049C9.61961 9.0774 9.59229 9.11301 9.57564 9.15073C9.55941 9.18719 9.56026 9.23043 9.55087 9.27028C9.52952 9.36099 9.40741 9.45467 9.56026 9.5403C9.56496 9.54285 9.56539 9.55387 9.57222 9.57549C9.44669 9.64077 9.41381 9.83195 9.22296 9.82602C9.20673 9.82559 9.18752 9.87265 9.173 9.89893C9.14311 9.95319 9.1286 10.0384 9.08419 10.0575C8.97916 10.1024 9.01716 10.1656 9.0479 10.219C9.08932 10.2915 9.14952 10.3529 9.19905 10.4212C9.28231 10.5356 9.27249 10.712 9.15208 10.865C9.05388 10.8336 8.95824 10.8035 8.84723 10.7684C8.85406 10.9324 8.86003 11.0587 8.71999 11.1435C8.67558 11.1702 8.63459 11.255 8.7439 11.3021C8.77763 11.3169 8.84893 11.3839 8.75756 11.4449C8.74006 11.4564 8.74902 11.5093 8.74945 11.5433C8.74945 11.5818 8.75799 11.6204 8.75543 11.6586C8.75329 11.6899 8.72468 11.7264 8.73408 11.7501C8.81307 11.9515 8.62862 12.0536 8.55859 12.194C8.51163 12.2881 8.39848 12.3483 8.31949 12.4284C8.26228 12.4869 8.29003 12.6094 8.35664 12.6001C8.44844 12.5869 8.44032 12.6319 8.43819 12.6954C8.47918 12.5615 8.59574 12.6285 8.67302 12.5984C8.68583 12.5933 8.73707 12.6348 8.73835 12.6569C8.74518 12.7798 8.77123 12.9065 8.69864 13.021C8.65338 13.0918 8.59233 13.1558 8.56244 13.2325C8.52188 13.336 8.50437 13.4483 8.47747 13.5568C8.47491 13.5678 8.47619 13.581 8.47064 13.5903C8.41172 13.6836 8.44587 13.7764 8.49113 13.854C8.56884 13.9867 8.59403 13.9871 8.79257 13.9366C8.81819 14.0227 8.84808 14.1079 8.86857 14.1948C8.89035 14.2864 8.87028 14.3656 8.7977 14.4364C8.77379 14.4597 8.7772 14.5187 8.78233 14.5598C8.78617 14.5903 8.8088 14.6217 8.82929 14.6471C8.91768 14.756 8.98514 14.8972 9.12945 14.9362C9.26181 14.9722 9.31689 15.0786 9.30451 15.1694C9.28231 15.333 9.39332 15.3978 9.48597 15.4576C9.56496 15.5085 9.57606 15.5589 9.56838 15.6318C9.55215 15.7866 9.60125 15.8739 9.74813 15.9163C9.85658 15.9476 9.90696 16.0066 9.9249 16.1202C9.93429 16.1787 9.9962 16.2579 10.0509 16.2741C10.2097 16.3211 10.3762 16.3423 10.5402 16.372C10.5799 16.3792 10.6234 16.3927 10.6606 16.3838C10.7767 16.3559 10.8898 16.3173 11.0056 16.2863C11.0248 16.2813 11.0487 16.2944 11.0705 16.2982C11.1264 16.3084 11.1827 16.316 11.2387 16.3279C11.3523 16.3516 11.4654 16.3779 11.5841 16.4042L11.5837 16.4055Z" fill="currentColor"/>
  <path d="M19.6602 5.71837C19.6726 5.81417 19.6854 5.90997 19.699 6.01595C19.8873 6.08505 19.8575 6.0647 19.7955 6.27623C19.7546 6.41527 19.7097 6.56109 19.5829 6.65901C19.5658 6.67216 19.5658 6.70649 19.5569 6.73023C19.5441 6.76499 19.5381 6.80653 19.5155 6.83324C19.4565 6.90234 19.3895 6.96465 19.328 7.02781C19.2828 7.02781 19.2213 7.02951 19.1598 7.02697C19.1316 7.02569 19.1039 7.0117 19.0757 7.01001C19.0483 7.00831 19.0005 7.00704 18.9954 7.01933C18.9544 7.11641 18.8733 7.08207 18.8007 7.09097C18.711 7.102 18.6235 7.12913 18.536 7.15287C18.4608 7.17364 18.387 7.19992 18.3135 7.22323V7.17109C18.2636 7.22408 18.2217 7.26817 18.1714 7.32158C18.1278 7.23892 18.0586 7.2279 17.9822 7.20246C17.8678 7.16431 17.7717 7.06385 17.6756 6.98076C17.5877 6.9053 17.4835 6.84129 17.4558 6.712C17.4506 6.68826 17.3955 6.6747 17.3832 6.66792C17.3575 6.61959 17.3482 6.57381 17.32 6.55431C17.1633 6.44494 17.0553 6.29488 16.9519 6.13973C16.8969 6.05707 16.946 6.00662 17.0074 5.95787C17.0565 5.91888 17.121 5.88454 17.1445 5.83282C17.1658 5.78619 17.1453 5.71794 17.133 5.66114C17.1295 5.64418 17.0924 5.63443 17.0467 5.60688C17.1078 5.56491 17.1569 5.53142 17.1821 5.51404C17.2128 5.45088 17.2231 5.38391 17.2585 5.36568C17.3716 5.30718 17.399 5.21095 17.4015 5.10243C17.4037 5.02019 17.4314 4.98374 17.5151 4.95449C17.6086 4.92142 17.6902 4.85911 17.7243 4.74508C17.7418 4.68743 17.8144 4.64588 17.8729 4.58611C17.9207 4.6976 17.9856 4.71498 18.071 4.68488C18.1607 4.65309 18.2461 4.65309 18.334 4.70566C18.3801 4.73321 18.4433 4.73279 18.4997 4.7455C18.5065 4.72685 18.5138 4.7065 18.5215 4.68573C18.6163 4.72897 18.6918 4.70989 18.758 4.63486C18.8242 4.55983 18.8805 4.56492 18.9442 4.64249C19.0539 4.77602 19.1871 4.89557 19.1944 5.0859C19.3254 5.14652 19.2682 5.35254 19.436 5.39111C19.4702 5.39917 19.4988 5.45385 19.5197 5.49285C19.5492 5.54711 19.5778 5.58441 19.6431 5.54202C19.6576 5.57 19.6871 5.60052 19.6828 5.62511C19.6768 5.65902 19.6453 5.68869 19.6248 5.72006C19.6367 5.72006 19.6482 5.71964 19.6602 5.71922V5.71837Z" fill="currentColor"/>
</svg>