<svg fill="none" xmlns="http://www.w3.org/2000/svg" viewBox="0 0 24 24">
  <path d="M23.0124 23.8057C22.916 23.7746 22.967 23.7221 22.9921 23.6749C22.9678 23.6583 22.9431 23.6418 22.9184 23.6248C22.9307 23.6099 22.9435 23.5953 22.9558 23.5804C22.9271 23.5699 22.8981 23.5606 22.8702 23.5485C22.7802 23.5085 22.6909 23.4669 22.5949 23.4233C22.6443 23.37 22.681 23.3308 22.7172 23.2916C22.712 23.2839 22.7069 23.2763 22.7013 23.269C22.6642 23.2973 22.6276 23.3267 22.5894 23.3534C22.5559 23.3768 22.5201 23.3974 22.483 23.4208C22.475 23.3889 22.4687 23.3635 22.4663 23.3534C22.4169 23.3905 22.3703 23.4261 22.3233 23.4604C22.3153 23.4665 22.2958 23.4657 22.2946 23.4709C22.2643 23.6002 22.1612 23.5598 22.0775 23.5739C22.0237 23.5828 21.9552 23.6014 21.9265 23.641C21.8624 23.7298 21.7963 23.5973 21.7361 23.6531C21.7333 23.6559 21.6824 23.605 21.6429 23.5699C21.5732 23.6006 21.492 23.6361 21.3852 23.6834C21.3693 23.6616 21.3446 23.6256 21.3171 23.5913C21.294 23.5626 21.2589 23.5351 21.3243 23.5166C21.3127 23.4915 21.3071 23.4536 21.288 23.4443C21.2342 23.418 21.1737 23.3853 21.1183 23.3893C21.0446 23.3946 20.9729 23.4321 20.896 23.4572C20.9196 23.4855 20.9295 23.4976 20.9542 23.5271C20.8945 23.5242 20.8566 23.5206 20.8192 23.5218C20.7929 23.5226 20.7666 23.5303 20.7403 23.5355C20.7236 23.5392 20.6973 23.5529 20.6917 23.5469C20.6041 23.4523 20.4894 23.5234 20.389 23.5016C20.3013 23.4822 20.1759 23.5153 20.1161 23.666C20.1161 23.6555 20.1173 23.645 20.1161 23.6349C20.1149 23.6244 20.1109 23.6143 20.1082 23.6038C20.0269 23.6345 19.9548 23.664 19.8592 23.645C19.7736 23.628 19.6764 23.6704 19.5744 23.6886C19.5728 23.7015 19.5692 23.7334 19.564 23.775C19.5011 23.7613 19.4441 23.7484 19.3684 23.7318C19.3677 23.7334 19.3537 23.7601 19.3489 23.769C19.2748 23.7443 19.2035 23.7205 19.1291 23.6959C19.1107 23.7391 19.0968 23.7718 19.0721 23.8296C19.0303 23.8005 18.9924 23.7718 18.9522 23.7472C18.9187 23.7266 18.8809 23.6926 18.8486 23.6963C18.7654 23.7064 18.6845 23.7338 18.6068 23.7532C18.5061 23.6353 18.3989 23.5198 18.3045 23.3946C18.2587 23.3336 18.2328 23.2553 18.2073 23.1813C18.2005 23.1616 18.2213 23.1208 18.2412 23.1046C18.3109 23.0493 18.3886 23.004 18.4571 22.9475C18.4977 22.914 18.5945 22.9204 18.559 22.8191C18.5566 22.8118 18.6017 22.7775 18.6276 22.7722C18.6646 22.7649 18.7048 22.7742 18.7435 22.7738C18.751 22.7738 18.7658 22.7613 18.765 22.7577C18.7614 22.7423 18.7546 22.7173 18.7459 22.7157C18.659 22.7003 18.6654 22.6466 18.6797 22.5792C18.6861 22.5489 18.7144 22.504 18.6491 22.4782C18.6272 22.4693 18.626 22.3881 18.6287 22.3405C18.6343 22.2468 18.6602 22.1567 18.5634 22.0836C18.4969 22.0335 18.524 21.9483 18.5969 21.893C18.5969 21.8179 18.5993 21.7565 18.5961 21.6955C18.5945 21.6644 18.5845 21.6337 18.5754 21.6038C18.5487 21.5154 18.4985 21.4431 18.4826 21.3405C18.4642 21.2221 18.5077 21.1531 18.5312 21.0598C18.5427 21.0129 18.4953 20.9418 18.4587 20.8938C18.4009 20.8187 18.3093 20.7569 18.4443 20.6704C18.4571 20.6624 18.463 20.6127 18.4535 20.605C18.3702 20.5355 18.4965 20.4903 18.4706 20.4297C18.4873 20.4253 18.5045 20.4208 18.5096 20.4196C18.522 20.3336 18.5371 20.2544 18.5431 20.1745C18.5451 20.1486 18.5304 20.1082 18.5104 20.0957C18.4136 20.0351 18.4551 19.9843 18.5041 19.933C18.4929 19.9027 18.4634 19.8502 18.4722 19.8421C18.5718 19.754 18.471 19.7314 18.4531 19.6818C18.3969 19.5271 18.3404 19.372 18.2798 19.2052C18.3081 19.1931 18.3507 19.1741 18.4232 19.143C18.3619 19.1187 18.3216 19.1026 18.2782 19.0852C18.2695 18.9931 18.2467 18.8914 18.2551 18.7924C18.2607 18.7298 18.3129 18.6708 18.3439 18.6107C18.3567 18.6143 18.3694 18.6179 18.3822 18.6216C18.3619 18.5537 18.338 18.4863 18.3228 18.4172C18.3113 18.3647 18.3037 18.3207 18.234 18.3219C18.2244 18.3219 18.2101 18.265 18.2045 18.233C18.1922 18.1575 18.2169 18.0796 18.1312 18.0174C18.0838 17.983 18.0739 17.891 18.0559 17.8223C18.048 17.7924 18.0623 17.7565 18.0655 17.7294C18.0261 17.7242 17.9627 17.7262 17.9603 17.7145C17.9452 17.6442 17.942 17.5707 17.9392 17.4984C17.9384 17.481 17.9671 17.4576 17.9619 17.4459C17.9177 17.3417 17.9532 17.2884 18.0731 17.2569C18.0265 17.225 17.9795 17.1927 17.9269 17.1563C17.9368 17.1373 17.95 17.1171 17.9588 17.0953C17.9831 17.0356 18.0336 16.9814 17.9556 16.9132C17.9329 16.8934 17.95 16.8049 17.9723 16.7605C17.9982 16.7088 18.04 16.6704 17.9882 16.6115C17.9815 16.6038 17.9998 16.5739 18.0074 16.5509C17.8803 16.5085 17.9862 16.4164 17.9946 16.3413C17.9811 16.3465 17.9675 16.3518 17.954 16.357C17.9289 16.315 17.8847 16.2738 17.8823 16.2306C17.8771 16.1276 17.8193 16.1288 17.7484 16.1406C17.7118 16.0408 17.7429 15.9625 17.8293 15.9079C17.8528 15.893 17.8783 15.8486 17.8727 15.8251C17.862 15.7803 17.8448 15.7472 17.8978 15.7165C17.9054 15.712 17.8799 15.6494 17.8655 15.6002C17.8592 15.6058 17.8743 15.5921 17.895 15.5735C17.8779 15.5517 17.8612 15.5307 17.8456 15.5109C17.8667 15.4669 17.8882 15.4225 17.9149 15.3675C17.8636 15.3619 17.8357 15.3591 17.8022 15.3554C17.809 15.3308 17.8158 15.3074 17.8221 15.2839C17.6919 15.25 17.6473 15.1709 17.6528 15.0396C17.6556 14.977 17.6632 14.9301 17.6978 14.8772C17.7182 14.8461 17.7014 14.7904 17.7014 14.7209C17.709 14.7145 17.7381 14.6902 17.7811 14.6547C17.7456 14.6325 17.7182 14.6151 17.697 14.6022C17.6903 14.5125 17.6763 14.4233 17.6791 14.3344C17.6823 14.2351 17.6465 14.1595 17.5883 14.0832C17.5437 14.0247 17.523 13.9552 17.5815 13.8789C17.6461 13.7948 17.5795 13.6692 17.4744 13.6664C17.3919 13.664 17.3417 13.6434 17.3684 13.5424C17.3756 13.5154 17.3644 13.4697 17.3445 13.4511C17.2577 13.3708 17.2792 13.3001 17.3688 13.2189C17.2135 13.2052 17.2179 13.1244 17.2609 13.0178C17.2852 12.9576 17.2039 12.8199 17.1513 12.7771C17.0119 12.6624 16.845 12.5816 16.7335 12.4314C16.6933 12.3772 16.6443 12.3538 16.5885 12.4536C16.5343 12.37 16.4893 12.3009 16.4391 12.2242C16.4395 12.2242 16.4252 12.2331 16.41 12.2427C16.3184 12.1256 16.3168 12.1256 16.2372 12.248C16.2336 12.1959 16.23 12.1438 16.226 12.0836C16.1675 12.0909 16.0882 12.1733 16.0432 12.0642C15.9392 12.1079 15.8392 12.1131 15.7361 12.0792C15.7022 12.0679 15.6584 12.0493 15.6329 12.0622C15.6118 12.0727 15.6102 12.1244 15.6022 12.1511C15.4756 12.1709 15.3453 12.1963 15.2135 12.21C15.1398 12.2177 15.0637 12.2024 14.9888 12.204C14.9191 12.2056 14.8824 12.189 14.9294 12.1022C14.8163 12.1115 14.7187 12.1006 14.6574 12.2189C14.614 12.3029 14.4765 12.2589 14.4311 12.1442C14.2961 12.1939 14.1607 12.2448 14.024 12.2928C14.0009 12.3009 13.9719 12.3058 13.9495 12.2985C13.834 12.2601 13.742 12.2896 13.6687 12.3869C13.6608 12.3974 13.6448 12.4015 13.6213 12.4148C13.656 12.4681 13.6882 12.5182 13.7245 12.5739C13.6747 12.6058 13.6201 12.641 13.5488 12.6874C13.5405 12.683 13.5146 12.6688 13.4839 12.6527V12.7642C13.4365 12.7508 13.3827 12.723 13.3329 12.7286C13.3146 12.7306 13.305 12.8126 13.2959 12.8441C13.2417 12.9055 13.1991 12.9717 13.1405 13.0162C13.0402 13.0921 13.1238 13.1789 13.1214 13.2444C13.0549 13.2755 13.0007 13.2985 12.9489 13.3268C12.9314 13.3364 12.9055 13.3675 12.9091 13.374C12.9625 13.4705 12.8952 13.5715 12.9266 13.6741C12.9517 13.7557 12.9246 13.8538 12.9207 13.9447C12.7952 13.9342 12.7565 13.9952 12.7988 14.12C12.8095 14.1515 12.8004 14.1898 12.8004 14.2444C12.8239 14.2512 12.8697 14.265 12.9143 14.2779C12.6697 14.3784 12.6876 14.4245 12.8231 14.5537C12.7239 14.5885 12.6896 14.7734 12.7334 14.8251C12.7458 14.9568 12.7936 15.0747 12.7542 15.1341C12.6924 15.2278 12.7211 15.33 12.6777 15.4132C12.7044 15.439 12.7354 15.4604 12.7542 15.4899C12.7637 15.5049 12.7534 15.5356 12.747 15.5574C12.733 15.603 12.7071 15.6474 12.7044 15.6931C12.7032 15.7092 12.7613 15.7238 12.7808 15.7484C12.7992 15.7714 12.8091 15.8066 12.8103 15.8368C12.8119 15.893 12.8047 15.9495 12.7996 16.0251C12.796 16.0263 12.7637 16.036 12.7103 16.0521C12.7498 16.0763 12.7761 16.0925 12.8091 16.1131C12.7968 16.1434 12.7761 16.1737 12.7725 16.2056C12.7657 16.2702 12.7215 16.3421 12.8171 16.3898C12.8717 16.4172 12.8952 16.4641 12.8458 16.5372C12.7896 16.62 12.7597 16.7209 12.7159 16.8195C12.882 16.8332 12.9115 16.8716 12.8868 17.0218C12.8721 17.1127 12.8525 17.2036 12.8434 17.2948C12.8414 17.3162 12.8689 17.3494 12.8916 17.3635C12.9824 17.4221 12.9904 17.4564 12.9286 17.5497C12.9155 17.5695 12.9087 17.5949 12.9039 17.6187C12.8744 17.7605 12.829 17.9019 12.8239 18.0448C12.8195 18.1632 12.8027 18.2884 12.8577 18.4075C12.874 18.4427 12.8382 18.5024 12.8187 18.5808C12.984 18.7213 12.8482 18.9439 12.8816 19.1462C12.8561 19.1531 12.8302 19.1595 12.7932 19.1696C12.8203 19.2028 12.8398 19.227 12.8641 19.2565C12.8521 19.2658 12.8354 19.2722 12.8334 19.2819C12.8159 19.3603 12.788 19.439 12.7892 19.5174C12.79 19.5784 12.8123 19.6551 12.8529 19.6959C12.9681 19.811 12.8868 19.9649 12.945 20.0893C12.9541 20.1086 12.9406 20.1474 12.9254 20.1688C12.8251 20.3134 12.8207 20.3647 12.9565 20.4584C13.0421 20.5178 13.0178 20.5893 13.0043 20.6502C12.9844 20.7415 12.9884 20.9733 13.0286 21.0675C13.0489 21.1143 13.0473 21.1708 13.0676 21.2177C13.0915 21.2718 13.129 21.3203 13.1608 21.3708C13.1099 21.433 13.115 21.5097 13.1732 21.5477C13.2855 21.6212 13.266 21.6591 13.2373 21.7864C13.217 21.8768 13.1358 21.9693 13.1951 22.0824C13.2118 22.1143 13.1788 22.1838 13.1525 22.2258C13.1103 22.2936 13.1039 22.3514 13.1577 22.4136C13.1708 22.4289 13.1883 22.4608 13.1824 22.4705C13.086 22.6151 13.121 22.8409 12.9087 22.9172C12.8677 22.9321 12.829 22.9919 12.8159 23.0388C12.7944 23.1155 12.7458 23.2084 12.8812 23.2633C12.8087 23.2977 12.7693 23.3764 12.6936 23.3001C12.69 23.3195 12.6864 23.3401 12.6817 23.3663C12.6637 23.357 12.6474 23.3485 12.6111 23.33C12.6358 23.3675 12.6494 23.3889 12.6637 23.4103C12.6609 23.412 12.6558 23.4176 12.6502 23.4176C12.5809 23.4188 12.5191 23.4111 12.5506 23.525C12.5693 23.5929 12.5012 23.6195 12.4355 23.6183C12.3797 23.6171 12.324 23.6183 12.2682 23.6183L12.2674 23.6482C12.2813 23.6579 12.2953 23.668 12.3092 23.6777C12.2961 23.6898 12.2849 23.7068 12.2698 23.7124C12.2471 23.7213 12.2216 23.7266 12.1977 23.7262C12.0854 23.7237 11.983 23.7302 11.9392 23.8663C11.934 23.8821 11.8503 23.8897 11.8133 23.8744C11.687 23.8227 11.5687 23.7391 11.4245 23.8166C11.3397 23.8623 11.254 23.9067 11.1668 23.9527C11.1178 23.9398 11.0449 23.9265 10.976 23.9015C10.8824 23.8675 10.7936 23.8401 10.7031 23.9116C10.696 23.9172 10.6557 23.8796 10.6183 23.8534C10.5454 23.8756 10.4502 23.9148 10.4219 23.7641C10.4187 23.7468 10.3662 23.7383 10.3411 23.7278C10.2976 23.7799 10.259 23.8259 10.2148 23.8788C10.1718 23.8384 10.126 23.8098 10.0802 23.8865C10.0686 23.9059 10.0196 23.9002 9.98893 23.9095C9.90409 23.9358 9.82084 23.939 9.73679 23.9047C9.7101 23.8938 9.65314 23.9225 9.67784 23.8514C9.67863 23.8489 9.64478 23.8255 9.62844 23.8271C9.55993 23.834 9.49221 23.8542 9.4237 23.8554C9.37869 23.8562 9.33328 23.832 9.27552 23.8154C9.18311 23.9443 9.1373 23.7415 9.03891 23.7658C8.91782 23.8651 8.81664 23.8631 8.69157 23.75C8.68002 23.7395 8.66368 23.7322 8.64855 23.7286C8.60632 23.7193 8.5633 23.7128 8.49559 23.7007C8.47647 23.7137 8.43026 23.7452 8.38127 23.7787C8.28885 23.641 8.2291 23.4774 8.03193 23.4758C7.92199 23.3389 7.85706 23.1813 7.86463 22.9943C7.86782 22.916 7.84591 22.8441 7.76704 22.7944C7.70888 22.7577 7.66228 22.6979 7.61966 22.6414C7.60412 22.6208 7.60452 22.5763 7.61408 22.5489C7.65112 22.4435 7.68658 22.3376 7.76704 22.252C7.81922 22.1963 7.82639 22.1244 7.80249 22.0432C7.78935 21.9984 7.80727 21.9378 7.82679 21.891C7.84432 21.8486 7.91681 21.8158 7.81882 21.7791C7.81006 21.7759 7.83157 21.6862 7.84232 21.6373C7.84551 21.6232 7.86065 21.6123 7.871 21.599C7.69773 21.4943 7.69175 21.3477 7.83037 21.246C7.8483 21.2092 7.86662 21.1721 7.88853 21.1272C7.89411 21.0965 7.90207 21.0529 7.91004 21.0093C7.93195 20.8877 7.95744 20.7666 7.97178 20.6442C7.97497 20.6179 7.93553 20.5864 7.91602 20.5574C7.90486 20.5598 7.89371 20.5622 7.88256 20.5642C7.8957 20.5077 7.90845 20.4511 7.92358 20.3861C7.91442 20.376 7.89928 20.3546 7.87977 20.3393C7.81205 20.2864 7.81842 20.2448 7.87499 20.1785C7.91681 20.1301 7.92438 20.0513 7.95147 19.9746C7.94231 19.9725 7.96421 19.9774 7.99608 19.9847C7.97099 19.9011 7.94868 19.8259 7.92597 19.7492C7.94469 19.7452 7.96541 19.7407 7.97258 19.7391C7.97258 19.6773 7.99369 19.6062 7.9678 19.5687C7.92558 19.5073 7.93673 19.4891 7.98413 19.4414C8.00405 19.4212 8.06698 19.3316 7.95864 19.2823C7.92597 19.2674 7.93354 19.1607 7.92159 19.0881C7.91442 19.0881 7.90088 19.0929 7.88973 19.0889C7.85069 19.0751 7.78377 19.0642 7.77979 19.0424C7.77142 18.9964 7.78178 18.9326 7.81006 18.8966C7.85865 18.8344 7.96501 18.8053 7.8949 18.6939C7.97776 18.6046 7.90646 18.5804 7.82798 18.5574C7.84073 18.5198 7.86304 18.4859 7.85865 18.456C7.85587 18.437 7.92717 18.3687 7.83077 18.3881C7.83197 18.372 7.83037 18.3546 7.83555 18.3401C7.84193 18.3223 7.86543 18.2944 7.86304 18.2924C7.78696 18.2274 7.86622 18.1761 7.88534 18.1305C7.93195 18.0174 7.92677 17.9604 7.82002 17.9063C7.7276 17.8595 7.72442 17.7791 7.74593 17.7044C7.77939 17.5885 7.76306 17.4766 7.67901 17.4035C7.66825 17.3942 7.66029 17.3817 7.6575 17.378C7.67104 17.3308 7.68219 17.2904 7.69335 17.2504C7.69733 17.2371 7.69892 17.2149 7.70689 17.212C7.87419 17.1555 7.70331 17.0671 7.72521 16.9956C7.73398 16.9677 7.70012 16.9269 7.70848 16.8986C7.74553 16.7751 7.7288 16.6535 7.7057 16.5323C7.69813 16.4931 7.66706 16.4576 7.64396 16.4221C7.59815 16.351 7.60054 16.2904 7.67542 16.2407C7.71127 16.2169 7.74354 16.1882 7.77979 16.1652C7.83954 16.1264 7.85746 16.0933 7.81484 16.0174C7.76186 15.9225 7.73756 15.8106 7.70131 15.706C7.81165 15.6196 7.67343 15.5101 7.728 15.4091C7.74951 15.3688 7.7049 15.2916 7.68777 15.2201C7.71048 15.2068 7.74314 15.1878 7.77182 15.1713C7.81404 15.0174 7.7519 14.8914 7.66825 14.7759C7.60492 14.689 7.6324 14.6272 7.71366 14.5953C7.78377 14.5679 7.76345 14.5311 7.73995 14.4976C7.67502 14.4047 7.6806 14.3037 7.69494 14.2007C7.69733 14.185 7.71048 14.1616 7.72283 14.1583C7.80568 14.1357 7.80886 14.0998 7.7523 14.0404C7.74035 14.0279 7.74394 13.994 7.74951 13.9726C7.76545 13.9144 7.78656 13.8574 7.80568 13.7997C7.79333 13.7985 7.78138 13.7973 7.76903 13.7961C7.76505 13.7561 7.74394 13.706 7.76027 13.6781C7.84591 13.5295 7.78696 13.4035 7.71207 13.2787C7.67542 13.2177 7.68498 13.1684 7.73716 13.1252C7.78576 13.0848 7.80727 13.0493 7.77142 12.979C7.74792 12.9334 7.76704 12.8655 7.76704 12.8021C7.77939 12.8013 7.7993 12.7997 7.8236 12.7977C7.78735 12.7528 7.75628 12.7149 7.71765 12.6676C7.78935 12.6566 7.86397 12.603 7.94151 12.5069C7.93872 12.5045 7.93593 12.502 7.93314 12.5C7.7758 12.3885 7.78616 12.391 7.83515 12.1971C7.85547 12.1171 7.82838 12.0243 7.87539 11.9439C7.87937 11.937 7.86344 11.9095 7.85069 11.9027C7.78895 11.8692 7.82559 11.8058 7.80966 11.769C7.7519 11.6365 7.80608 11.5408 7.85865 11.4285C7.87658 11.3906 7.81564 11.3146 7.78895 11.2512C7.80329 11.2331 7.82161 11.2108 7.84113 11.1862C7.81922 11.1672 7.79891 11.1499 7.76345 11.1192C7.92597 11.0804 7.85706 10.9778 7.84551 10.8873C7.82998 10.7638 7.82002 10.6394 7.80727 10.5129C7.78058 10.5057 7.7531 10.498 7.70888 10.4855C7.8483 10.4201 7.88056 10.3554 7.72561 10.2908C7.74473 10.2452 7.76345 10.1999 7.78218 10.1551C7.77421 10.1507 7.76624 10.1458 7.75867 10.1414C7.74194 10.16 7.72521 10.1781 7.69893 10.2072V9.80172C7.73517 9.79929 7.77023 9.79727 7.78895 9.79606C7.76983 9.75244 7.75509 9.71286 7.73517 9.67611C7.71207 9.6329 7.69255 9.5808 7.6563 9.55333C7.60253 9.51254 7.60532 9.47538 7.6324 9.42611C7.65829 9.37886 7.68419 9.3316 7.72243 9.26254C7.72442 9.248 7.71884 9.19792 7.73955 9.1644C7.80886 9.05253 7.8009 8.95479 7.70291 8.86755C7.62962 8.80253 7.6563 8.69631 7.74115 8.64219C7.78218 8.61594 7.80608 8.55293 7.8232 8.50124C7.83555 8.46408 7.82121 8.41804 7.824 8.37644C7.82918 8.29647 7.85029 8.21569 7.84232 8.13775C7.8236 7.95317 7.93673 7.82353 8.00843 7.67531C8.02994 7.63088 8.03591 7.57838 8.05384 7.51093C8.08849 7.49881 8.17453 7.52264 8.19086 7.42773C8.19166 7.42288 8.20242 7.41602 8.20799 7.41602C8.35936 7.42087 8.45576 7.26174 8.6111 7.27789C8.67046 7.28395 8.72981 7.28597 8.79752 7.29041C8.81983 7.21368 8.87679 7.19591 8.98235 7.227C9.14089 7.27426 9.30818 7.28961 9.46911 7.32919C9.52289 7.34251 9.56949 7.38815 9.63123 7.42612C9.71169 7.40915 9.81048 7.38088 9.8782 7.49518C9.88417 7.50527 9.93516 7.49679 9.95986 7.48508C10.0925 7.42208 10.1917 7.47498 10.2889 7.56545C10.3283 7.60221 10.3873 7.61715 10.4375 7.64179C10.4434 7.63169 10.4494 7.622 10.4554 7.6119C10.4757 7.64704 10.4924 7.685 10.5179 7.71529C10.5271 7.7262 10.5689 7.72821 10.5769 7.71852C10.6418 7.63977 10.7043 7.6434 10.7593 7.73387C10.8481 7.69348 10.937 7.65309 11.0314 7.61028C11.0389 7.66077 11.0481 7.72296 11.0565 7.78153C11.2481 7.64461 11.4691 7.63492 11.6675 7.55051C11.685 7.56707 11.7089 7.58928 11.7121 7.59211C11.7727 7.50972 11.8229 7.4245 11.8914 7.35867C11.9125 7.33847 11.9834 7.3724 12.0387 7.3829V7.28678C12.1415 7.3304 12.2351 7.36796 12.3267 7.40956C12.365 7.42692 12.3984 7.45439 12.4363 7.47297C12.5032 7.50608 12.5721 7.53557 12.6514 7.54607C12.6609 7.56868 12.6661 7.59413 12.6805 7.61271C12.7605 7.7165 12.8462 7.81626 12.9226 7.92288C12.941 7.94833 12.9314 7.99477 12.9334 8.03153C12.935 8.05939 12.9334 8.08726 12.9346 8.11513C12.9378 8.17329 12.9406 8.23104 12.9461 8.2888C12.9485 8.31343 12.9533 8.33888 12.9633 8.36149C12.978 8.39542 12.9983 8.42692 13.025 8.47579C13.1365 8.4867 13.0382 8.56949 13.0354 8.61917C13.0816 8.62442 13.1242 8.62926 13.1664 8.63411C13.1616 8.66279 13.1569 8.69106 13.1525 8.71771C13.2397 8.78274 13.3381 8.69913 13.4425 8.73144C13.421 8.63896 13.4249 8.58726 13.548 8.58363C13.611 8.58161 13.7384 8.54849 13.7333 8.41359C13.7325 8.38936 13.7635 8.35503 13.7882 8.34009C13.8866 8.28112 13.9882 8.22821 14.0957 8.16925C14.0682 8.14461 14.0424 8.12159 14.0073 8.0909C14.0862 8.01456 14.1654 7.93863 14.2443 7.86271C14.2543 7.87361 14.2646 7.88411 14.2746 7.89502C14.2551 7.914 14.2355 7.93338 14.1965 7.97175C14.2419 7.96933 14.2742 7.97781 14.2909 7.96529C14.3594 7.91319 14.4228 7.85463 14.4885 7.79849C14.5303 7.76295 14.5757 7.73145 14.6132 7.69187C14.6287 7.67571 14.6271 7.643 14.647 7.63936C14.6908 7.60422 14.7295 7.55374 14.7789 7.53718C14.9039 7.49599 14.941 7.37846 15.0143 7.29163C15.0398 7.26174 15.094 7.25689 15.1402 7.23831C15.1609 7.28193 15.1772 7.31667 15.1884 7.3409C15.2485 7.35019 15.3027 7.35826 15.3568 7.36634L15.3752 7.39825C15.4305 7.31101 15.4863 7.22337 15.5496 7.12402C15.6683 7.14219 15.8042 7.12482 15.9253 7.03799C15.9308 7.03395 15.9428 7.0283 15.9448 7.03032C16.0412 7.13694 16.1655 7.00649 16.2631 7.07595C16.3352 6.94227 16.4268 6.90794 16.5538 6.96408C16.5706 6.97135 16.5869 6.98872 16.5941 7.00568C16.6283 7.08565 16.6845 7.09978 16.7562 7.06424C16.8291 7.02789 16.9107 7.00972 16.9892 6.98508C16.998 6.98226 17.0135 6.99235 17.0183 6.98791C17.1581 6.86473 17.2947 6.95721 17.4353 6.9867C17.4975 6.99962 17.568 6.9766 17.6337 6.96489C17.7054 6.95196 17.7783 6.9144 17.8357 6.99639C17.8424 7.00608 17.8596 7.01416 17.8707 7.01295C17.9679 7.00568 18.0659 6.98306 18.1615 6.99195C18.2165 6.9972 18.2778 7.04203 18.3165 7.08645C18.3874 7.16844 18.4634 7.16481 18.5419 7.11877C18.6395 7.06142 18.7315 7.07919 18.8279 7.11271C18.7773 7.25447 18.8036 7.29203 18.9466 7.27991C19.0422 7.27183 19.0685 7.32353 19.0641 7.44348C19.102 7.38815 19.1223 7.35826 19.143 7.32838C19.1745 7.28274 19.1988 7.25083 19.2553 7.31263C19.2872 7.34736 19.3561 7.34413 19.3999 7.372C19.4501 7.4039 19.4903 7.45116 19.5445 7.49962C19.6274 7.40511 19.7226 7.45318 19.8206 7.50204C19.8998 7.54203 19.9787 7.57434 20.0639 7.50083C20.0775 7.48912 20.1631 7.52749 20.1791 7.56061C20.2189 7.64259 20.2802 7.66359 20.3595 7.68258C20.3989 7.69187 20.4408 7.74195 20.4595 7.78395C20.5216 7.92288 20.5125 7.91683 20.6324 7.83161C20.6782 7.79889 20.7546 7.81061 20.824 7.80132V7.86917C20.9219 7.88048 21.0128 7.89098 21.1104 7.90188C21.1044 7.92571 21.1 7.94469 21.0952 7.96368C21.1207 7.96691 21.153 7.96166 21.1701 7.97539C21.1844 7.9871 21.1813 8.02102 21.1864 8.05051C21.2972 8.03435 21.3505 8.07959 21.3346 8.19186C21.3553 8.19065 21.3776 8.18217 21.3868 8.18985C21.4569 8.24922 21.535 8.30334 21.5899 8.37482C21.6537 8.45762 21.6951 8.55333 21.7971 8.60584C21.8584 8.63734 21.8409 8.77062 21.8023 8.79647C21.9281 8.93298 22.0564 9.07312 22.1854 9.21246C22.2281 9.2585 22.3061 9.28516 22.2647 9.36432C22.3288 9.43823 22.4217 9.46165 22.4555 9.56868C22.4981 9.70398 22.5754 9.82837 22.6376 9.95761C22.6435 9.97054 22.6535 9.98387 22.6535 9.99719C22.6535 10.1741 22.7455 10.3163 22.8264 10.4621C22.8443 10.4944 22.8793 10.517 22.9084 10.542C22.9737 10.5986 23.0223 10.6555 22.92 10.7222C23.0024 10.8017 23.1594 10.8138 23.1255 10.9879C23.0821 11.0016 23.0327 11.0174 22.9833 11.0327C22.9833 11.0408 22.9829 11.0489 22.9825 11.057C23.0219 11.0602 23.0614 11.0634 23.1032 11.0667C23.116 11.1725 23.1458 11.2791 23.2482 11.351C23.3004 11.3877 23.2817 11.4237 23.2506 11.4705C23.2155 11.5234 23.1414 11.5885 23.2518 11.6478C23.2621 11.6535 23.2645 11.7044 23.259 11.7068C23.1494 11.7541 23.198 11.8336 23.2131 11.893C23.2526 11.8982 23.286 11.9027 23.3191 11.9071C23.3135 11.9499 23.3235 12.0089 23.2996 12.0327C23.1984 12.1321 23.3068 12.2161 23.3167 12.3041C23.3191 12.3264 23.4111 12.3381 23.4868 12.3627C23.4748 12.4035 23.4529 12.4669 23.4378 12.5319C23.431 12.561 23.4326 12.5937 23.4382 12.6232C23.4482 12.6761 23.4904 12.725 23.4422 12.7835C23.4358 12.7912 23.4741 12.8506 23.5019 12.8708C23.5613 12.9128 23.5708 12.9455 23.545 13.0226C23.5011 13.1535 23.4282 13.288 23.5497 13.4346C23.6023 13.498 23.5951 13.6155 23.6083 13.7092C23.6218 13.8066 23.6258 13.9055 23.6354 14.0032C23.6382 14.0311 23.6589 14.0663 23.6485 14.0856C23.5963 14.1846 23.6672 14.2339 23.7246 14.2811C23.7852 14.3308 23.7995 14.3752 23.7628 14.4483C23.7314 14.5109 23.7079 14.582 23.7007 14.6515C23.6967 14.6898 23.7346 14.7322 23.766 14.7621C23.7736 14.8538 23.7812 14.9451 23.7891 15.0448C23.7115 15.1022 23.6784 15.21 23.7107 15.3215C23.7158 15.3401 23.7047 15.3627 23.7071 15.3829C23.7134 15.4346 23.7095 15.4948 23.735 15.5352C23.7764 15.6006 23.8071 15.6515 23.7326 15.7125C23.7214 15.7213 23.7226 15.7524 23.7262 15.7714C23.7405 15.8457 23.7585 15.9188 23.7728 15.983C23.7051 16.0089 23.6621 16.0255 23.5896 16.0533C23.6342 16.0909 23.6828 16.1115 23.6864 16.1385C23.6999 16.2395 23.8031 16.2755 23.831 16.3627C23.8322 16.3663 23.8357 16.372 23.8353 16.3724C23.721 16.4604 23.8696 16.5105 23.8644 16.582C23.8628 16.6078 23.8557 16.6341 23.8461 16.6579C23.827 16.706 23.7975 16.7508 23.7852 16.8005C23.7668 16.8728 23.7601 16.9479 23.7533 16.9883C23.8011 17.0836 23.8377 17.1559 23.8776 17.2347C23.7891 17.2625 23.7214 17.2904 23.7935 17.399C23.8063 17.4184 23.7405 17.4843 23.7907 17.5424C23.8071 17.5614 23.7863 17.6135 23.7816 17.6591C23.7963 17.6943 23.817 17.7439 23.8417 17.8029C23.8409 17.8029 23.8588 17.8049 23.8652 17.8057C23.8732 17.8627 23.8764 17.9164 23.8891 17.9677C23.9015 18.0178 23.9234 18.0658 23.9469 18.1309C23.9349 18.1559 23.919 18.2056 23.8899 18.2452C23.7963 18.3744 23.8357 18.4919 23.8999 18.6179C23.9246 18.6664 23.9062 18.7355 23.9162 18.7936C23.9301 18.8756 23.9524 18.956 23.9752 19.0529C23.8612 19.0986 23.9222 19.2347 23.8939 19.3393C23.8835 19.3776 23.8728 19.4156 23.8628 19.454C23.8377 19.5489 23.8262 19.645 23.8294 19.7435C23.8318 19.8078 23.8134 19.8776 23.8326 19.9354C23.8565 20.0069 23.905 20.0723 23.9513 20.1333C23.9943 20.1902 24.0421 20.2286 23.9349 20.2722C23.8413 20.3106 23.8039 20.4798 23.8624 20.5452C23.8561 20.5537 23.8509 20.5683 23.8429 20.5699C23.7218 20.5953 23.7258 20.6733 23.7537 20.7698C23.7624 20.7997 23.7362 20.8385 23.7401 20.8716C23.7485 20.9382 23.7664 21.0036 23.7828 21.0784C23.684 21.1062 23.717 21.204 23.7218 21.2888C23.7258 21.3574 23.7377 21.4257 23.7441 21.4944C23.7453 21.5093 23.7425 21.5311 23.733 21.5392C23.6581 21.6026 23.6254 21.6692 23.6704 21.7718C23.7154 21.8748 23.6262 21.9451 23.5764 22.0194C23.5617 22.0412 23.5111 22.0384 23.486 22.0444V22.2403C23.486 22.2403 23.5099 22.2524 23.5167 22.2557C23.5107 22.3304 23.4956 22.3906 23.5043 22.4467C23.5183 22.5335 23.5151 22.609 23.4637 22.685C23.4438 22.7145 23.4541 22.7653 23.4506 22.8061C23.4494 22.8231 23.4533 22.8522 23.4466 22.855C23.3151 22.9107 23.4235 22.9536 23.4537 22.9992C23.4155 23.044 23.3203 23.0679 23.4087 23.1543C23.4215 23.1668 23.3836 23.2237 23.3836 23.2605C23.3836 23.3158 23.3956 23.3712 23.4024 23.4269C23.3661 23.3821 23.3307 23.3368 23.2916 23.2876C23.2852 23.3203 23.2745 23.3732 23.259 23.4495C23.3175 23.4394 23.3605 23.4317 23.4035 23.4245C23.3757 23.4725 23.3474 23.521 23.3295 23.5521C23.2809 23.5456 23.2454 23.5408 23.2104 23.5359C23.2203 23.4976 23.2335 23.4604 23.239 23.4221C23.2474 23.3615 23.2271 23.3203 23.1578 23.3296C23.0964 23.3376 23.0757 23.3736 23.0889 23.4354C23.0948 23.4637 23.0901 23.4947 23.0901 23.5145C23.1311 23.521 23.1721 23.5275 23.2127 23.5339C23.1697 23.58 23.1339 23.6511 23.0821 23.666C22.9929 23.6918 23 23.7443 23.0072 23.8086L23.0104 23.8053L23.0124 23.8057ZM19.8046 22.1107C19.7445 22.1292 19.6811 22.1401 19.625 22.1672C19.5194 22.2185 19.4238 22.3037 19.3143 22.3288C19.1984 22.355 19.1203 22.3817 19.1275 22.5158C19.1318 22.5961 19.0964 22.58 19.0538 22.5485C18.9793 22.6935 18.9769 22.6963 19.0319 22.7415C19.1804 22.8635 19.3549 22.9063 19.5425 22.912C19.5449 22.7851 19.6146 22.7771 19.7648 22.7799C19.721 22.7468 19.6859 22.7286 19.6632 22.7003C19.6453 22.6777 19.6294 22.6377 19.6365 22.6135C19.6879 22.4439 19.7461 22.2767 19.8022 22.109C19.8672 22.1361 19.9369 22.1636 19.9859 22.0889C20.04 22.0057 20.0819 21.914 20.1344 21.8292C20.1432 21.815 20.1799 21.8142 20.2034 21.8154C20.2284 21.817 20.2527 21.8288 20.2862 21.8385C20.242 21.7258 20.3197 21.7072 20.3794 21.6805C20.4388 21.6539 20.5001 21.6482 20.5172 21.5574C20.5328 21.4738 20.6264 21.4548 20.7188 21.502C20.7343 21.4148 20.9168 21.433 20.8399 21.2859C20.8658 21.2666 20.8913 21.2476 20.9048 21.2375C20.8761 21.1822 20.8514 21.1345 20.8236 21.0808C20.816 21.105 20.802 21.126 20.8048 21.1438C20.8247 21.2629 20.7443 21.2948 20.6578 21.3231C20.6208 21.3352 20.5778 21.3389 20.5483 21.3611C20.5073 21.3922 20.4567 21.4322 20.4455 21.4774C20.4224 21.5699 20.3523 21.6232 20.2862 21.6478C20.138 21.7027 20.0241 21.7981 19.9221 21.9095C19.8711 21.9653 19.8429 22.0424 19.8046 22.1099V22.1107ZM19.707 18.7718C19.6545 18.9257 19.566 18.9568 19.4437 18.8857C19.4378 18.8825 19.3971 18.9168 19.3939 18.9374C19.3808 19.0149 19.3764 19.0937 19.368 19.1789C19.4158 19.2157 19.4087 19.2157 19.4079 19.2864C19.4075 19.3376 19.429 19.3893 19.4417 19.4406C19.4497 19.4721 19.4609 19.5024 19.4676 19.5339C19.4935 19.6547 19.3748 19.6478 19.3115 19.708C19.376 19.7956 19.4394 19.8817 19.5047 19.9709C19.5298 19.9657 19.5708 19.9693 19.5911 19.9503C19.7007 19.8473 19.805 19.7391 19.9106 19.6317C20.0205 19.5198 20.1297 19.4071 20.2424 19.2912C20.2663 19.3126 20.2862 19.3417 20.2966 19.3385C20.3448 19.3239 20.395 19.307 20.4348 19.2775C20.4523 19.2645 20.4615 19.204 20.4487 19.1914C20.375 19.1192 20.4404 19.0901 20.4858 19.061C20.5563 19.0162 20.6519 19.0016 20.6594 18.8902C20.6606 18.8744 20.6746 18.857 20.6873 18.8453C20.7467 18.7912 20.816 18.7456 20.8666 18.6846C20.9271 18.6115 21.0705 18.6099 21.0522 18.4669C21.051 18.458 21.0749 18.4414 21.0896 18.4358C21.1382 18.4164 21.1884 18.4002 21.2414 18.3817C21.2374 18.3284 21.2828 18.271 21.2342 18.2096C21.2251 18.1979 21.2542 18.145 21.2761 18.1208C21.3008 18.0929 21.3374 18.0755 21.3717 18.0513C21.3948 18.0792 21.4167 18.1058 21.4386 18.1325C21.5852 18.0198 21.5995 17.9629 21.5374 17.7952C21.5127 17.7282 21.5409 17.6809 21.6059 17.6474C21.6549 17.6224 21.7325 17.5836 21.7345 17.5473C21.7405 17.4277 21.8281 17.3954 21.8998 17.3393C21.9413 17.307 21.9715 17.2601 22.0086 17.2217C22.0819 17.1454 22.1492 17.061 22.2321 16.9968C22.3651 16.893 22.3687 16.8918 22.3265 16.727C22.3157 16.6858 22.3388 16.6357 22.3464 16.5893C22.3512 16.559 22.3559 16.5287 22.3571 16.5202H22.2241C22.2137 16.5897 22.2026 16.664 22.1902 16.7472C22.113 16.8813 21.9887 16.7411 21.8736 16.7763C21.8867 16.8037 21.8975 16.8263 21.9086 16.849L21.8688 16.8146C21.8572 16.8449 21.8501 16.878 21.8329 16.9047C21.762 17.0137 21.6533 17.0743 21.5314 17.0836C21.3936 17.0937 21.3581 17.1159 21.3537 17.2561C21.3509 17.3461 21.3418 17.4326 21.2191 17.4338C21.1992 17.4338 21.1741 17.4556 21.1605 17.4742C21.0777 17.5885 20.9311 17.6664 20.959 17.8453C20.9626 17.8696 20.9335 17.9063 20.9104 17.9257C20.8479 17.9778 20.7801 18.0234 20.7343 18.0574C20.6774 18.0574 20.6248 18.0412 20.5989 18.061C20.5599 18.0913 20.524 18.143 20.5141 18.1914C20.483 18.3389 20.3778 18.393 20.2496 18.4338C20.2496 18.4568 20.2452 18.483 20.2504 18.5069C20.2671 18.5812 20.2456 18.6175 20.1675 18.6402C20.0775 18.6664 19.9879 18.7068 19.9094 18.7589C19.86 18.7916 19.8317 18.8562 19.7847 18.9188C19.7501 18.8518 19.7361 18.8247 19.7086 18.7714L19.707 18.7718ZM9.81407 12.3122C9.80889 12.3025 9.80411 12.2928 9.79893 12.2827C9.76149 12.3053 9.72603 12.3316 9.6866 12.3498C9.63561 12.3732 9.57626 12.3809 9.53006 12.4112C9.45517 12.46 9.33368 12.4629 9.33408 12.5961C9.33408 12.6002 9.30022 12.6006 9.28588 12.6091C9.19705 12.6616 9.09787 12.7036 9.02417 12.7726C8.96164 12.8316 8.91463 12.9176 8.88675 13.0008C8.86484 13.0658 8.88237 13.1446 8.88316 13.2173C8.88316 13.2375 8.89153 13.2581 8.88914 13.2775C8.88237 13.3373 8.88038 13.3999 8.86086 13.4556C8.84254 13.5077 8.8035 13.5525 8.76606 13.6127C8.94371 13.6381 8.8975 13.7936 8.95168 13.8881C8.81625 14.023 8.8258 14.1135 8.87759 14.2363C8.88834 14.2621 8.89511 14.3163 8.89193 14.3175C8.78079 14.3514 8.86763 14.4071 8.88476 14.439C8.91105 14.4875 8.92618 14.5194 8.87042 14.5557C8.85449 14.5662 8.85249 14.5994 8.84453 14.6224C8.81027 14.7205 8.85289 14.7981 8.923 14.8902C9.0178 14.8033 9.11818 14.725 9.20223 14.6309C9.28349 14.54 9.46712 14.5715 9.45915 14.3898C9.50257 14.3942 9.53324 14.3974 9.5683 14.4011C9.57188 14.3696 9.57467 14.3417 9.57786 14.3134H9.44242C9.43645 14.3057 9.43047 14.2977 9.4245 14.29C9.4468 14.2839 9.46951 14.2783 9.50576 14.2682C9.22453 14.2096 9.15841 14.1902 9.03015 14.0444C9.14527 13.96 9.15881 13.8865 9.03334 13.7924C8.93017 13.7149 9.03095 13.7217 9.05405 13.6915C9.03851 13.6769 9.02457 13.6595 9.00665 13.6478C8.99071 13.6373 8.9708 13.6333 8.95327 13.6264C8.98912 13.4956 8.99749 13.4843 9.11181 13.3978C9.11938 13.3922 9.12256 13.3805 9.12774 13.3716C9.19028 13.267 9.25122 13.1624 9.22812 13.0303C9.22334 13.0037 9.23768 12.9742 9.24326 12.9455L9.45079 12.8122C9.48664 12.7024 9.55356 12.7322 9.61849 12.7783C9.68501 12.6188 9.74914 12.4657 9.81287 12.3126L9.81407 12.3122ZM10.7302 11.2213C10.6824 11.2213 10.6637 11.2181 10.647 11.2217C10.4968 11.2565 10.498 11.2565 10.5522 11.4043C10.5585 11.4213 10.5538 11.4592 10.5454 11.4621C10.4757 11.4867 10.4048 11.5077 10.3327 11.5247C10.3116 11.5295 10.269 11.5089 10.2662 11.5142C10.2168 11.6188 10.0622 11.6519 10.0774 11.8009C10.0798 11.8247 10.0578 11.8514 10.0451 11.8821C10.0224 11.8675 10.0029 11.855 9.9969 11.8514C9.95786 11.9003 9.91843 11.9847 9.88696 11.9818C9.78339 11.9721 9.83757 12.0844 9.78061 12.0994C9.80769 12.1438 9.82442 12.2072 9.86346 12.2286C9.97141 12.2876 10.1909 12.1769 10.2287 12.057C10.2303 12.0517 10.2395 12.0485 10.2482 12.042C10.2658 12.0618 10.2833 12.0816 10.2929 12.0925C10.4864 12.0105 10.5175 11.8764 10.4263 11.723C10.4865 11.6931 10.5848 11.6628 10.5832 11.6414C10.5769 11.5638 10.6426 11.5238 10.649 11.4588C10.6569 11.3793 10.6302 11.2912 10.7302 11.2217V11.2213ZM15.2123 8.76456C15.2493 8.72902 15.3035 8.64502 15.3337 8.6535C15.4811 8.69348 15.4771 8.60019 15.4991 8.50447C15.515 8.43581 15.5062 8.33605 15.6198 8.32797C15.7189 8.32111 15.7265 8.25002 15.7269 8.164C15.6357 8.21327 15.6022 8.4144 15.4628 8.25851C15.4401 8.29284 15.4198 8.32353 15.3835 8.37926C15.378 8.31666 15.3748 8.28274 15.37 8.23145C15.2736 8.37724 15.1433 8.42369 14.9876 8.41521C14.9753 8.4144 14.9533 8.45277 14.9494 8.47498C14.9382 8.53758 14.9346 8.6014 14.9247 8.69348C14.9537 8.73912 15.0087 8.78112 15.1059 8.73791C15.1354 8.72458 15.1844 8.75648 15.2131 8.76416L15.2123 8.76456ZM16.7152 10.2104C16.6514 10.2686 16.5805 10.3268 16.5176 10.3926C16.4718 10.4406 16.4395 10.5016 16.3957 10.5513C16.2874 10.6737 16.1754 10.7924 16.0671 10.9144C16.0587 10.9237 16.0691 10.9495 16.0703 10.9612C16.1396 10.9487 16.1985 10.9382 16.2607 10.9273C16.271 10.9459 16.2878 10.9754 16.3041 11.0049C16.3113 11.0008 16.318 10.9972 16.3252 10.9932L16.2917 10.9124C16.3009 10.916 16.3101 10.9196 16.3192 10.9237C16.3774 10.8356 16.4343 10.7468 16.4941 10.6596C16.5256 10.6139 16.5965 10.5646 16.5893 10.5299C16.5694 10.4366 16.6196 10.4043 16.6745 10.3546C16.8048 10.2367 16.8016 10.2335 16.7761 10.1478C16.7458 10.1644 16.7148 10.181 16.6801 10.1999C16.6952 10.204 16.7112 10.2084 16.7156 10.2092L16.7152 10.2104ZM19.2438 17.6022C19.3549 17.5646 19.3505 17.5634 19.3876 17.437C19.4047 17.3792 19.4429 17.3276 19.486 17.246C19.4561 17.2161 19.4075 17.1244 19.3449 17.1135C19.2139 17.0905 19.2179 17.0202 19.2342 16.9253C19.2474 16.8486 19.1673 16.7383 19.1075 16.7387C19.1179 16.7755 19.1306 16.8122 19.1382 16.8502C19.1625 16.9681 19.1267 17.0945 19.2055 17.2072C19.2394 17.2561 19.2322 17.3344 19.337 17.3207C19.2239 17.3918 19.225 17.4931 19.2434 17.6026L19.2438 17.6022ZM9.00744 22.2859C8.80788 22.4313 8.83218 22.607 8.88356 22.811C8.90268 22.7581 8.91463 22.7246 8.92658 22.6914C8.96482 22.6914 8.99749 22.6947 9.02935 22.6906C9.07158 22.6854 9.1126 22.6741 9.15443 22.6652C9.13531 22.6228 9.10623 22.5824 9.09906 22.5384C9.08472 22.4471 8.91742 22.4317 9.00744 22.2864V22.2859ZM22.5798 15.1264C22.6722 15.355 22.7136 15.3946 22.812 15.3728C22.7818 15.2379 22.7515 15.1034 22.722 14.973C22.6794 15.019 22.632 15.0703 22.5798 15.1264ZM9.14248 8.30657C9.06162 8.32837 9.00585 8.34009 8.95208 8.35867C8.9222 8.36876 8.88715 8.3833 8.86962 8.40713C8.83696 8.45115 8.82581 8.51658 8.78677 8.5501C8.71188 8.61432 8.75331 8.63734 8.8039 8.66844C8.91224 8.55293 9.01621 8.44146 9.14248 8.30657ZM22.6037 23.0202C22.6376 23.0501 22.6579 23.0674 22.6778 23.0852C22.6662 23.0889 22.6547 23.0921 22.6435 23.0957C22.6491 23.1369 22.6415 23.2032 22.6627 23.2145C22.7328 23.2516 22.7837 23.187 22.8315 23.1466C22.8407 23.1389 22.8092 23.0816 22.7969 23.0473C22.7873 23.0206 22.7786 22.9935 22.7726 22.9766C22.724 22.9891 22.675 23.002 22.6037 23.0206V23.0202ZM10.445 8.64057C10.5171 8.58726 10.5832 8.53799 10.6494 8.48912C10.635 8.46933 10.6207 8.44913 10.606 8.42934C10.5339 8.46125 10.4614 8.49154 10.3901 8.52547C10.3721 8.53395 10.359 8.55293 10.3438 8.56707C10.3578 8.57878 10.3705 8.59211 10.3853 8.60261C10.4076 8.61836 10.4315 8.63249 10.4446 8.64098L10.445 8.64057ZM11.8161 16.4944C11.8089 16.435 11.8045 16.4007 11.8005 16.3659C11.7958 16.3239 11.8041 16.2714 11.7822 16.2431C11.7675 16.2242 11.7101 16.2395 11.6687 16.2395C11.6623 16.3623 11.7105 16.4354 11.8161 16.4944ZM20.9196 21.1147C20.9267 21.1236 20.9335 21.1325 20.9407 21.1414C20.9948 21.1147 21.0594 21.099 21.1004 21.0582C21.1343 21.0246 21.1394 20.962 21.1601 20.9059C21.0144 20.9083 21.0104 21.0594 20.92 21.1147H20.9196ZM19.3258 20.1914C19.2924 20.2383 19.2609 20.2658 19.2521 20.2989C19.2374 20.3534 19.2374 20.412 19.229 20.4899C19.2434 20.5129 19.274 20.5614 19.3055 20.6111C19.3123 20.4746 19.3187 20.3457 19.3262 20.1914H19.3258ZM8.77283 9.55455C8.76884 9.53031 8.76088 9.48346 8.75291 9.43661C8.68918 9.52062 8.57167 9.58605 8.62027 9.62845C8.66767 9.60543 8.71507 9.58241 8.77283 9.55455ZM8.72582 9.02304C8.70551 9.05697 8.69356 9.08039 8.67842 9.10099C8.66368 9.12078 8.62783 9.1434 8.63142 9.1543C8.64018 9.18015 8.66329 9.20883 8.68758 9.21892C8.70232 9.22498 8.74255 9.20358 8.75012 9.18581C8.77482 9.12603 8.78278 9.06384 8.72622 9.02304H8.72582ZM18.8948 22.5513C18.9024 22.5578 18.9104 22.5638 18.9179 22.5703C18.953 22.5267 18.9884 22.483 19.0191 22.4455C18.9944 22.4225 18.9765 22.4055 18.9701 22.3998C18.9267 22.4196 18.8885 22.4374 18.8375 22.4608C18.8375 22.4616 18.8391 22.4847 18.8399 22.498C18.8709 22.4996 18.8952 22.5012 18.9283 22.5028C18.9116 22.5275 18.9036 22.5396 18.8952 22.5517L18.8948 22.5513ZM21.247 20.8166C21.251 20.8296 21.2549 20.8425 21.2589 20.8554C21.3103 20.8397 21.3621 20.8239 21.4314 20.8029C21.4099 20.7763 21.3828 20.7339 21.3768 20.7367C21.3314 20.7585 21.29 20.7888 21.247 20.8166ZM12.0591 22.7464C12.0431 22.7395 12.0268 22.7326 12.0109 22.7258C11.9925 22.7686 11.9726 22.8106 11.9595 22.8546C11.9579 22.8595 11.9969 22.8764 12.0168 22.8877C12.0308 22.8405 12.0451 22.7932 12.0591 22.746V22.7464Z" fill="currentColor"/>
  <path d="M0.673976 21.0004C0.647687 20.9204 0.626177 20.8546 0.604268 20.7888C0.596302 20.7904 0.588335 20.792 0.580368 20.7936C0.591522 20.7419 0.603074 20.6902 0.617015 20.6268C0.585945 20.6309 0.562045 20.6341 0.526992 20.6389C0.538145 20.6095 0.540935 20.5836 0.555274 20.5675C0.635339 20.475 0.63972 20.3716 0.569614 20.2734C0.554875 20.2524 0.554477 20.2197 0.550493 20.1923C0.530577 20.0586 0.554477 19.9164 0.453699 19.7993C0.432986 19.775 0.444936 19.6898 0.471625 19.6624C0.556469 19.5747 0.53695 19.4883 0.499507 19.3922C0.475209 19.3292 0.429002 19.2512 0.447326 19.2003C0.490346 19.0808 0.514644 18.9935 0.366464 18.9366C0.351726 18.9309 0.352922 18.8041 0.38439 18.7694C0.461666 18.685 0.396339 18.6886 0.371244 18.6826C0.358099 18.603 0.340574 18.5355 0.337387 18.4673C0.334997 18.4188 0.348142 18.3683 0.359693 18.3203C0.372042 18.2698 0.39156 18.2209 0.404705 18.1801C0.357702 18.1632 0.308706 18.1599 0.300341 18.1393C0.269271 18.063 0.327029 17.9011 0.378813 17.8667C0.364473 17.7229 0.225057 17.6192 0.276044 17.46C0.283612 17.4572 0.289985 17.4544 0.296756 17.4524C0.357303 17.4314 0.452504 17.4899 0.477599 17.3962C0.510661 17.2738 0.581165 17.1478 0.483574 17.019C0.387178 16.8922 0.350532 16.7488 0.336988 16.586C0.329022 16.4899 0.326233 16.4475 0.418646 16.4128C0.470827 16.3934 0.462462 16.2666 0.416256 16.2028C0.364871 16.1317 0.314681 16.0602 0.268076 15.9859C0.225057 15.9172 0.282417 15.7698 0.393552 15.7116C0.327827 15.6462 0.26728 15.5897 0.211514 15.5283C0.188809 15.5036 0.15495 15.4584 0.163315 15.441C0.221471 15.3195 0.139017 15.2375 0.0904208 15.1478C0.0481977 15.0699 0.0649281 14.979 0.148179 14.9394C0.215896 14.9075 0.216692 14.8635 0.206335 14.8005C0.197971 14.7508 0.206335 14.6979 0.209522 14.6462C0.218285 14.4859 0.125474 14.3639 0.0565624 14.2339C0.0238992 14.1725 0.00597425 14.1276 0.0776739 14.0788C0.138619 14.0372 0.188808 13.9794 0.261703 13.9128C0.213107 13.8894 0.171282 13.8732 0.134238 13.849C0.119499 13.8393 0.105956 13.8106 0.109142 13.7936C0.120296 13.7314 0.143001 13.6713 0.15256 13.6091C0.15973 13.561 0.154154 13.5109 0.154154 13.4814C0.180842 13.4439 0.202352 13.414 0.223463 13.3841C0.20753 13.3744 0.191199 13.3647 0.176062 13.355C0.187215 13.2957 0.20036 13.2246 0.213505 13.1531C0.203945 13.1495 0.194784 13.1458 0.185224 13.1422C0.211912 13.1276 0.238601 13.1131 0.272459 13.0945C0.244575 13.0481 0.223463 12.9968 0.18841 12.9584C0.142602 12.9087 0.112727 12.8627 0.129059 12.7896C0.133839 12.7682 0.101972 12.7375 0.0852423 12.7125C0.0589525 12.6725 0.0310699 12.6337 0 12.5889C0.110338 12.5392 0.164511 12.4734 0.123084 12.3494C0.113923 12.3215 0.162121 12.2722 0.186419 12.2347C0.203149 12.2084 0.24338 12.1818 0.239795 12.1612C0.228642 12.0974 0.220277 12.0453 0.294765 12.0158C0.304723 12.0117 0.313089 11.9697 0.305122 11.9588C0.240991 11.8724 0.272458 11.7932 0.316673 11.7141C0.318266 11.7108 0.323046 11.7056 0.322648 11.7056C0.239795 11.6305 0.328225 11.5339 0.291977 11.4503C0.271263 11.4027 0.276841 11.3437 0.265289 11.2908C0.259314 11.2633 0.244974 11.2367 0.229041 11.2133C0.202751 11.1749 0.161324 11.1434 0.146586 11.1018C0.131449 11.0594 0.133043 11.0065 0.140611 10.9608C0.154951 10.8764 0.216294 10.9495 0.252143 10.9326C0.268077 10.9249 0.283213 10.9152 0.312689 10.8991C0.27684 10.8385 0.231431 10.7815 0.209124 10.7161C0.194386 10.6733 0.220676 10.618 0.216693 10.5691C0.209523 10.4746 0.1908 10.3813 0.18363 10.2868C0.18124 10.2569 0.190402 10.2157 0.210319 10.1963C0.349735 10.061 0.31269 9.88128 0.332208 9.7169C0.348142 9.57959 0.336989 9.4354 0.37483 9.30535C0.415062 9.16602 0.498711 9.04001 0.653264 8.98952C0.678359 8.98144 0.698673 8.9564 0.726158 8.93581C0.714208 8.91602 0.702258 8.89542 0.697478 8.88815C0.744481 8.83564 0.789095 8.78718 0.832513 8.7371C0.879118 8.68298 0.936477 8.66884 0.991447 8.71166C1.05518 8.76093 1.08984 8.7161 1.11294 8.6749C1.13007 8.64502 1.11971 8.59897 1.1217 8.5602C1.10975 8.55939 1.0982 8.55818 1.08625 8.55737C1.07589 8.5812 1.06554 8.60503 1.05638 8.62603C1.00101 8.65552 0.903814 8.55172 0.897042 8.46973C0.892262 8.41198 0.876727 8.35503 0.866769 8.30293C0.868362 8.30334 0.894652 8.3098 0.925324 8.31707V8.19752C0.851632 8.17006 0.845657 8.11069 0.883101 8.02143C0.908992 7.95883 0.919747 7.87846 0.905806 7.81263C0.887084 7.72498 0.930104 7.69267 0.986667 7.65188C1.03566 7.61674 1.07311 7.56424 1.12369 7.53274C1.15675 7.51214 1.20416 7.51578 1.23642 7.50972C1.28462 7.4657 1.33242 7.42208 1.39814 7.3623V7.24962C1.48458 7.23064 1.56743 7.21166 1.65108 7.19429C1.66423 7.19146 1.68614 7.19187 1.69251 7.20035C1.78054 7.31182 1.84388 7.22377 1.91159 7.17369C1.93151 7.15875 1.95182 7.14421 1.97134 7.12886C2.05937 7.0598 2.10359 7.07111 2.15697 7.16521C2.17409 7.1955 2.21034 7.21893 2.24261 7.23589C2.2912 7.26093 2.34339 7.29082 2.39517 7.29324C2.44496 7.29526 2.49634 7.26456 2.54375 7.23347C2.60071 7.26053 2.65528 7.28355 2.73773 7.24397C2.80505 7.21166 2.89388 7.22579 2.97315 7.21973C2.98231 7.21893 2.99745 7.22539 2.99944 7.22175C3.07751 7.09655 3.1038 7.20802 3.14762 7.26295C3.21932 7.185 3.29659 7.15875 3.39777 7.20964C3.42485 7.22337 3.4866 7.19227 3.51846 7.16481C3.58618 7.10665 3.64473 7.08363 3.71723 7.15511C3.92635 7.36028 4.02315 7.37119 4.28924 7.24922C4.34301 7.22458 4.4167 7.23427 4.47964 7.24235C4.54417 7.25083 4.57524 7.28718 4.60272 7.3619C4.62065 7.41117 4.75767 7.44348 4.83575 7.43379C4.92019 7.42329 4.98233 7.39663 5.00464 7.50729C5.00543 7.51093 5.00703 7.51497 5.00982 7.51699C5.11139 7.58484 5.21297 7.65269 5.31454 7.72014C5.32171 7.71085 5.32888 7.70156 5.33605 7.69267C5.34083 7.70923 5.3476 7.72539 5.34959 7.74235C5.36314 7.85544 5.42289 7.88815 5.50375 7.81424C5.57027 7.75366 5.60492 7.7577 5.65591 7.82999C5.70809 7.90309 5.77581 7.96489 5.84313 8.0388C5.79573 8.06262 5.75749 8.08201 5.71088 8.10584C5.74076 8.15027 5.77222 8.1854 5.78895 8.227C5.80011 8.25487 5.79095 8.29122 5.78816 8.32393C5.78736 8.33645 5.77501 8.34817 5.77541 8.35988C5.7786 8.45883 5.78338 8.55778 5.78816 8.65632C5.78895 8.67369 5.78417 8.69994 5.79334 8.70721C5.90288 8.79445 5.80528 8.91319 5.86862 9.02264C5.8029 9.01173 5.76705 9.00608 5.72841 8.99962C5.73438 9.0808 5.74036 9.15511 5.74434 9.21165C5.79612 9.23225 5.85388 9.23791 5.87937 9.27022C5.91921 9.31989 5.94231 9.37644 5.91045 9.45721C5.85747 9.59049 5.78298 9.73104 5.89451 9.88128C5.91124 9.9039 5.85627 9.98144 5.83397 10.0335C5.81723 10.0727 5.79533 10.1103 5.78457 10.1507C5.77063 10.2024 5.75071 10.2593 5.75987 10.3086C5.77461 10.3865 5.79134 10.4835 5.84392 10.5295C5.91164 10.5893 5.93315 10.6438 5.89969 10.7153C5.84034 10.8413 5.78099 10.9693 5.70092 11.0816C5.65272 11.1495 5.64157 11.1866 5.70411 11.2423C5.7539 11.2868 5.81564 11.33 5.76824 11.4172C5.76466 11.4237 5.81883 11.4621 5.83158 11.473C5.85229 11.5162 5.8742 11.544 5.87818 11.5739C5.89889 11.7294 5.87021 11.8829 5.84472 12.0352C5.84153 12.0537 5.80489 12.0687 5.78178 12.0816C5.71606 12.1179 5.69256 12.2137 5.73558 12.2767C5.80967 12.3857 5.85826 12.494 5.76904 12.6232C5.74952 12.6511 5.75111 12.7112 5.76744 12.7436C5.81564 12.8381 5.74076 12.8607 5.72004 12.9023C5.72004 12.9588 5.73119 13.0178 5.71765 13.0707C5.68977 13.1818 5.67702 13.2755 5.77621 13.3663C5.87021 13.4524 5.8499 13.5695 5.7531 13.6923C5.76386 13.7815 5.76824 13.8603 5.78497 13.9366C5.79931 14.0016 5.81524 14.0731 5.85309 14.124C5.9447 14.246 5.89332 14.3821 5.90845 14.5109C5.91363 14.5557 5.91204 14.6018 5.90766 14.6466C5.90168 14.7092 5.88495 14.7706 5.88256 14.8332C5.87937 14.9156 5.86742 15.0045 5.89132 15.0796C5.93554 15.2181 5.90367 15.3267 5.77302 15.3821C5.72203 15.4035 5.6822 15.4257 5.71566 15.4927C5.72243 15.5065 5.72084 15.5376 5.71128 15.5448C5.6097 15.6228 5.70252 15.6866 5.72522 15.7532C5.74872 15.8231 5.78417 15.8893 5.8025 15.9604C5.80927 15.9859 5.78019 16.0198 5.76983 16.0509C5.76147 16.0763 5.74354 16.1087 5.75191 16.1284C5.83436 16.3276 5.8256 16.3772 5.67423 16.5178C5.66667 16.5251 5.66149 16.5352 5.66706 16.5271C5.71208 16.6284 5.75231 16.7189 5.79254 16.809C5.76943 16.8364 5.73637 16.8675 5.71367 16.9051C5.68977 16.9447 5.67105 16.9875 5.73837 17.0137C5.78856 17.0335 5.81166 17.0646 5.79134 17.1329C5.76266 17.2278 5.74832 17.33 5.74633 17.4293C5.74553 17.4661 5.79732 17.5045 5.83317 17.5525C5.8025 17.5525 5.78218 17.5525 5.79294 17.5525C5.78099 17.6107 5.77183 17.6531 5.76426 17.6959C5.76227 17.706 5.76227 17.7209 5.76784 17.7274C5.86384 17.8312 5.76067 17.8332 5.70371 17.8538C5.70889 17.9035 5.71367 17.9487 5.71845 17.9939C5.70809 17.9863 5.69774 17.9786 5.68738 17.9713C5.64834 18.0012 5.59297 18.023 5.57346 18.063C5.5384 18.1345 5.60174 18.1547 5.65591 18.1692C5.70969 18.1834 5.74474 18.2064 5.72124 18.2718C5.71566 18.2872 5.72044 18.3086 5.72522 18.3255C5.78298 18.5343 5.6336 18.708 5.62524 18.9067C5.62404 18.9322 5.56111 18.9548 5.51849 18.9843C5.54995 19.0424 5.58302 19.0977 5.6109 19.1559C5.64954 19.2363 5.63599 19.2989 5.54358 19.3308C5.54358 19.3336 5.54358 19.3389 5.54478 19.3441C5.57744 19.4762 5.66746 19.5848 5.71048 19.7052C5.76705 19.8639 5.78138 20.0497 5.67304 20.21C5.66348 20.2238 5.64914 20.2419 5.6352 20.2439C5.51928 20.2589 5.55872 20.3263 5.5866 20.3942C5.54398 20.4225 5.50056 20.4511 5.44001 20.4915C5.50415 20.5267 5.55473 20.5545 5.60333 20.5812C5.5639 20.7847 5.57346 20.8118 5.70411 20.8914C5.69495 20.9988 5.68618 21.1014 5.67623 21.2181C5.5627 21.3009 5.57784 21.3506 5.65631 21.5246C5.7057 21.6337 5.68499 21.704 5.59616 21.7686C5.58421 21.7775 5.56668 21.7973 5.56947 21.8057C5.59297 21.8732 5.58023 21.9245 5.53442 21.9826C5.52247 21.998 5.58102 22.0731 5.6101 22.1187C5.63201 22.1531 5.6583 22.1842 5.683 22.2165C5.67503 22.2246 5.66667 22.233 5.6587 22.2411H5.73558C5.71845 22.2666 5.69813 22.2908 5.68539 22.3183C5.67145 22.3481 5.65711 22.3813 5.65511 22.4136C5.65073 22.4891 5.65352 22.5654 5.65352 22.6559C5.68738 22.6838 5.76904 22.7112 5.69057 22.8203C5.67901 22.7964 5.67025 22.7783 5.65989 22.7569C5.61727 22.7876 5.64038 22.9075 5.53721 22.851C5.53561 22.8502 5.50494 22.8849 5.50773 22.899C5.53123 23.0283 5.48184 23.0909 5.35398 23.0876C5.27152 23.0856 5.2524 23.1062 5.23129 23.2165C5.12254 23.2464 5.03133 23.2896 4.99667 23.4176C4.98791 23.4495 4.91063 23.4782 4.86363 23.4802C4.77161 23.4838 4.6788 23.4649 4.58599 23.4612C4.54616 23.4596 4.50593 23.4721 4.47048 23.4915C4.44219 23.4838 4.39678 23.4608 4.38842 23.4705C4.28963 23.588 4.16137 23.5331 4.04944 23.5238C3.94189 23.5153 3.94308 23.4972 3.91201 23.5622C3.81243 23.5743 3.73077 23.5889 3.64912 23.5925C3.60132 23.5945 3.55312 23.5792 3.485 23.5687C3.38462 23.6725 3.24401 23.6567 3.09743 23.6115C3.07432 23.6042 3.04524 23.6123 3.02015 23.6183C2.93331 23.6385 2.84767 23.6712 2.75964 23.6781C2.7214 23.6813 2.67958 23.6341 2.63895 23.6099C2.64213 23.5998 2.64532 23.5897 2.64851 23.5796C2.6274 23.5961 2.60589 23.6123 2.58477 23.6288C2.56287 23.6042 2.54016 23.5788 2.5306 23.5679C2.44257 23.6292 2.3649 23.691 2.27925 23.7371C2.25894 23.748 2.19959 23.7149 2.17728 23.6866C2.11514 23.609 2.06615 23.5307 1.94306 23.5436C1.89964 23.5481 1.84945 23.4855 1.79249 23.4475C1.69809 23.609 1.5746 23.4984 1.45869 23.4701C1.36349 23.4467 1.27227 23.4023 1.17587 23.3889C1.07988 23.3756 1.02053 23.3461 1.0034 23.2419C0.996228 23.1967 0.959182 23.1575 0.94524 23.1127C0.93807 23.0897 0.952012 23.0598 0.957987 23.0238C0.844463 23.082 0.809012 23.0004 0.769178 22.9204C0.748863 22.8796 0.717395 22.8449 0.695088 22.8053C0.667205 22.7557 0.617413 22.6999 0.624185 22.6539C0.636533 22.5687 0.682741 22.4883 0.714607 22.4059C0.719387 22.3938 0.727752 22.3796 0.725362 22.3683C0.712217 22.3078 0.703453 22.2443 0.679951 22.1878C0.642508 22.0977 0.664815 22.0376 0.754042 22.0024C0.713412 21.918 0.800646 21.9192 0.840878 21.8732C0.749261 21.8235 0.734523 21.7355 0.707835 21.6418C0.682342 21.5517 0.58714 21.4838 0.528187 21.4019C0.495524 21.3562 0.459276 21.3037 0.452504 21.2508C0.446529 21.2068 0.468835 21.1446 0.500702 21.1127C0.547307 21.0662 0.613431 21.04 0.674774 21.0028L0.673976 21.0004ZM4.50075 22.3861C4.52106 22.332 4.52584 22.2864 4.55054 22.2601C4.60033 22.2072 4.59595 22.164 4.57245 22.0973C4.54217 22.0109 4.49278 21.9184 4.5593 21.8191C4.57723 21.7928 4.56408 21.7411 4.55731 21.7023C4.53142 21.5545 4.40316 21.4313 4.45534 21.2641C4.45932 21.2512 4.44658 21.2221 4.43502 21.2169C4.40236 21.2028 4.36611 21.1975 4.33106 21.1886C4.33584 21.2221 4.32867 21.2706 4.34779 21.2859C4.41391 21.3397 4.40834 21.3611 4.32787 21.3837C4.30158 21.391 4.28485 21.4313 4.26374 21.4568C4.31313 21.4871 4.23546 21.6115 4.37129 21.5759C4.27609 21.6579 4.23825 21.6337 4.19563 21.481C4.11596 21.5416 4.09166 21.6462 4.14504 21.7197C4.17093 21.691 4.19603 21.6636 4.22112 21.6357C4.22829 21.6397 4.23506 21.6434 4.24223 21.6474C4.21315 21.712 4.18447 21.7763 4.1554 21.8409C4.14504 21.8372 4.13468 21.8332 4.12433 21.8296V21.7484C4.09485 21.7839 4.07772 21.8045 4.06099 21.8247C4.06139 21.815 4.06219 21.8057 4.06258 21.796C3.99646 21.7888 3.92994 21.7811 3.86382 21.7738L3.86103 21.7973C3.87975 21.807 3.89847 21.8166 3.91719 21.8267C3.88612 21.874 3.86023 21.9136 3.83434 21.9532C3.83992 21.9604 3.84509 21.9673 3.85067 21.9746C3.90644 21.9523 3.9622 21.9301 4.01797 21.9083L4.03271 21.9322C3.98172 21.9899 3.93034 22.0477 3.88732 22.0965C3.86979 22.0771 3.8439 22.0489 3.81801 22.0206C3.81681 22.1341 3.81164 22.2157 3.7013 22.2508C3.68377 22.2565 3.65668 22.2799 3.65788 22.2924C3.67302 22.4132 3.57303 22.4212 3.50452 22.4612C3.48819 22.4705 3.47744 22.4891 3.44796 22.5206C3.48859 22.5121 3.50651 22.5113 3.52165 22.5044C3.6049 22.4677 3.68417 22.4124 3.77061 22.3954C3.89728 22.3704 4.02873 22.3724 4.15818 22.3631C4.16854 22.3623 4.1793 22.3667 4.19005 22.3675C4.29919 22.3744 4.40873 22.3813 4.49995 22.3869L4.50075 22.3861ZM1.9092 22.4705C2.01237 22.5194 2.08407 22.5533 2.16772 22.5933C2.18405 22.586 2.21711 22.5679 2.25177 22.5582C2.28722 22.5485 2.32586 22.5517 2.36091 22.5412C2.39716 22.5303 2.43062 22.5097 2.47045 22.4911C2.48121 22.5323 2.49077 22.5674 2.50829 22.6337C2.69033 22.4855 2.87396 22.3679 2.9612 22.1179C2.90264 22.1179 2.84847 22.103 2.80943 22.1212C2.74291 22.1523 2.68635 22.2052 2.62381 22.2464C2.60907 22.2561 2.58677 22.2601 2.57004 22.2565C2.56247 22.2549 2.56127 22.2274 2.5557 22.2124C2.55012 22.1975 2.54653 22.1777 2.53538 22.1704C2.52144 22.1611 2.49913 22.1652 2.4832 22.1579C2.45611 22.145 2.43142 22.1272 2.39796 22.107C2.41508 21.9838 2.31949 21.9838 2.22827 21.9782C2.18326 22.0545 2.0052 22.1377 1.93589 22.0872C1.83193 22.0113 1.74668 21.9754 1.64511 22.0759C1.63993 22.0808 1.63117 22.082 1.61603 22.088C1.72637 22.2326 1.83073 22.3696 1.9088 22.4713L1.9092 22.4705ZM4.42586 9.36876C4.41829 9.39986 4.4179 9.42854 4.40435 9.44792C4.38683 9.47256 4.35695 9.4875 4.33544 9.51012C4.29601 9.55131 4.31234 9.63532 4.36571 9.6543C4.40475 9.66844 4.44737 9.67127 4.48083 9.67773C4.48083 9.63492 4.46729 9.58887 4.48322 9.55939C4.53301 9.46852 4.58798 9.37846 4.65291 9.29808C4.71186 9.22458 4.7031 9.14905 4.63817 9.11472C4.52425 9.05455 4.52266 8.97821 4.56966 8.87321C4.51429 8.85099 4.4637 8.8308 4.42586 8.81586C4.41073 8.91965 4.39798 9.00972 4.38444 9.09978C4.37806 9.14259 4.38125 9.19025 4.36213 9.2266C4.30238 9.3417 4.30079 9.34493 4.42507 9.36917L4.42586 9.36876ZM1.97174 20.2355C2.03229 20.1454 2.08049 20.0662 2.13625 19.9931C2.18007 19.9358 2.13984 19.8962 2.10279 19.9027C1.99763 19.9208 1.89606 19.9588 1.79329 19.9899C1.78931 19.9911 1.78811 20.0028 1.78532 20.0093C1.73195 20.1329 1.79249 20.2419 1.81679 20.3461C1.87773 20.3025 1.9339 20.2625 1.97174 20.2351V20.2355ZM2.03269 15.1147C2.15258 15.0772 2.21791 15.0061 2.22468 14.8793C2.22747 14.8251 2.2438 14.767 2.2693 14.7193C2.30594 14.6507 2.30714 14.5965 2.23225 14.5376C2.19998 14.6317 2.13107 14.6971 2.08845 14.7379C2.1012 14.7997 2.10757 14.832 2.11514 14.8675H1.80325C1.80205 14.8756 1.80086 14.8833 1.79966 14.8914C1.87614 14.9241 1.95222 14.9572 2.03308 14.9919V15.1151L2.03269 15.1147ZM2.58079 14.1212C2.6015 14.1034 2.62102 14.0868 2.64054 14.0703C2.71622 14.0065 2.73933 13.8801 2.86639 13.8744C2.87635 13.874 2.89627 13.8369 2.89229 13.8219C2.87436 13.7537 2.84847 13.6878 2.90663 13.6244C2.91061 13.6204 2.8883 13.5917 2.87834 13.5743C2.89109 13.5909 2.90384 13.6074 2.91658 13.624C2.86082 13.6539 2.80147 13.6789 2.75008 13.7157C2.69192 13.7569 2.63775 13.8058 2.58756 13.8566C2.56765 13.8768 2.55171 13.912 2.55251 13.9398C2.5537 13.9927 2.56804 14.0457 2.58079 14.1216V14.1212ZM1.88251 15.2472C1.73354 15.292 1.69888 15.3607 1.73394 15.5041C1.59213 15.5848 1.60408 15.6652 1.76939 15.7997C1.80524 15.7088 1.84268 15.6139 1.88251 15.5129C1.81121 15.4415 1.77656 15.3562 1.88212 15.2472H1.88251ZM2.95363 13.5473C2.9608 13.4653 2.96638 13.4023 2.97195 13.3397C2.96359 13.3332 2.95522 13.3268 2.94686 13.3199C2.91818 13.3595 2.88113 13.3958 2.86361 13.4402C2.85325 13.4661 2.87356 13.5045 2.88073 13.5404C2.89786 13.5218 2.9118 13.5069 2.92734 13.4903C2.93491 13.5065 2.94048 13.5186 2.95363 13.5473Z" fill="currentColor"/>
  <path d="M3.3587 0.101008C3.36706 0.100201 3.38977 0.0981811 3.41884 0.0957578C3.4053 0.115144 3.39694 0.127664 3.39295 0.133319C3.46505 0.1418 3.53994 0.155936 3.61482 0.158359C3.68413 0.160782 3.75464 0.143819 3.82315 0.14907C3.87294 0.153109 3.92751 0.170475 3.96894 0.198746C4.04622 0.251654 4.11513 0.317082 4.18762 0.37726C4.19121 0.367971 4.1944 0.358278 4.19798 0.348989C4.23542 0.345758 4.27327 0.342931 4.31071 0.3397C4.30195 0.384126 4.29278 0.428552 4.28163 0.486306C4.38998 0.50125 4.46207 0.667647 4.61424 0.582026C4.65327 0.748827 4.73055 0.799311 4.88829 0.827178C4.95401 0.838891 5.02293 0.908762 5.06356 0.970151C5.1492 1.0998 5.21651 1.24236 5.29339 1.37847C5.30375 1.39664 5.32327 1.41038 5.34039 1.42411C5.43958 1.50327 5.53956 1.58122 5.64552 1.66482C5.54155 1.74156 5.50491 1.80496 5.59851 1.88978C5.61644 1.90593 5.61206 1.94753 5.62202 1.99882C5.68774 2.03517 5.77816 2.08485 5.86779 2.13614C5.94905 2.18259 5.95423 2.25044 5.92236 2.31021C5.96657 2.34656 6.00441 2.37766 6.04066 2.40714C5.96578 2.45359 5.90403 2.49196 5.81361 2.5481C5.94626 2.57637 6.03668 2.6111 6.00362 2.71207C6.08647 2.79729 6.15459 2.86756 6.21712 2.93218C6.14582 2.9754 6.09205 3.00771 6.01437 3.05456C6.14025 3.09575 6.18326 3.15351 6.17689 3.25932C6.17291 3.32354 6.20159 3.39139 6.2227 3.45561C6.2717 3.60706 6.32507 3.7569 6.37606 3.90755C6.38163 3.9241 6.39239 3.9443 6.38761 3.95803C6.35375 4.0594 6.32308 4.1632 6.27647 4.25851C6.26253 4.28719 6.2 4.29123 6.14622 4.31183C6.14622 4.31425 6.14343 4.33485 6.1506 4.3506C6.20677 4.47136 6.08687 4.55254 6.08408 4.65916C6.08368 4.68137 6.08408 4.70359 6.08408 4.72176C6.07253 4.71247 6.05819 4.70157 6.04504 4.69147C5.97812 4.72903 5.94865 4.77063 6.04146 4.8401C5.98689 4.83848 6.01158 4.93905 5.93789 4.8821C5.93112 4.89906 5.91439 4.92047 5.91917 4.93218C5.93471 4.96812 5.96458 4.99801 5.97653 5.03436C5.9829 5.05415 5.97135 5.09575 5.95542 5.10423C5.89925 5.13412 5.89686 5.13129 5.92953 5.19833C5.89527 5.20116 5.86619 5.20359 5.82875 5.20641C5.82357 5.23711 5.8168 5.27992 5.80764 5.33525C5.78215 5.34454 5.74032 5.35948 5.6981 5.37483C5.70726 5.37806 5.71642 5.38169 5.72518 5.38493C5.70845 5.46166 5.68734 5.538 5.67539 5.61554C5.6495 5.78396 5.53359 5.63694 5.47224 5.67895C5.48619 5.79446 5.47782 5.80052 5.37306 5.76134C5.30415 5.73549 5.23842 5.72782 5.16154 5.75528C5.05838 5.79203 4.94645 5.80334 4.8381 5.82354C4.81739 5.82717 4.7907 5.82879 4.77437 5.81869C4.70784 5.7779 4.65049 5.73024 4.57998 5.82273C4.56206 5.84615 4.49115 5.82273 4.44773 5.83323C4.42583 5.83888 4.41109 5.87362 4.37962 5.91158C4.31867 5.88654 4.20037 5.74357 4.18125 5.96166C4.1215 5.93945 4.06693 5.91885 4.00359 5.89543C4.01076 5.9237 4.01634 5.94551 4.0255 5.98307C3.97412 5.96085 3.93468 5.93581 3.89286 5.92976C3.87653 5.92733 3.85462 5.96934 3.82434 6.00326C3.82076 5.99841 3.7877 5.97539 3.7885 5.95399C3.79367 5.83808 3.7164 5.84979 3.6439 5.84817C3.59371 5.84696 3.54392 5.84131 3.49373 5.83808C3.49373 5.82838 3.49333 5.81869 3.49293 5.8094L3.42601 5.86392C3.41924 5.8615 3.41247 5.85867 3.4057 5.85625C3.41327 5.83363 3.42044 5.81142 3.4288 5.78598C3.41566 5.77992 3.3822 5.77426 3.36308 5.75447C3.3097 5.69793 3.26668 5.7262 3.22645 5.76578C3.1671 5.82394 3.1197 5.81102 3.05756 5.76215C2.99024 5.70924 2.90898 5.67491 2.81059 5.61917C2.79984 5.67047 2.79028 5.7161 2.77833 5.77386C2.67715 5.81869 2.62417 5.78274 2.53893 5.69026C2.47719 5.62281 2.43098 5.55052 2.38119 5.47741C2.37044 5.46166 2.31865 5.48064 2.29754 5.46611C2.25213 5.4342 2.2115 5.39341 2.17446 5.351C2.13701 5.30859 1.93586 5.2775 1.88447 5.30496C1.86894 5.31344 1.82074 5.29728 1.82034 5.29042C1.81556 5.2048 1.75143 5.21853 1.69925 5.21005C1.67096 5.2052 1.64388 5.19672 1.60763 5.18743C1.60564 5.19308 1.59927 5.21166 1.58453 5.25367C1.53832 5.06909 1.39134 5.04486 1.26666 4.99276C1.22603 4.9758 1.16468 4.99518 1.18819 4.91199C1.19018 4.90431 1.12286 4.86635 1.08502 4.85908C0.979461 4.83888 0.883463 4.82273 0.867131 4.68137C0.863148 4.64785 0.790253 4.60504 0.744047 4.59737C0.634506 4.57879 0.622954 4.50932 0.621759 4.41966C0.621759 4.39664 0.595071 4.35989 0.573561 4.35342C0.403872 4.30254 0.356868 4.30011 0.428966 4.10625C0.461231 4.01942 0.333367 3.8191 0.251311 3.77346C0.191163 3.73994 0.148143 3.6741 0.0919781 3.61675C0.234182 3.53154 0.229004 3.45157 0.0875958 3.36716C0.125836 3.30698 0.166067 3.24882 0.199926 3.18663C0.214266 3.16037 0.227809 3.12241 0.220241 3.09616C0.193154 3.00448 0.150134 2.91764 0.126633 2.82516C0.116674 2.78598 0.140574 2.73792 0.149735 2.69309C0.121454 2.64907 0.0899856 2.6006 0.071264 2.57152C0.121055 2.51781 0.160889 2.48751 0.183993 2.44753C0.268439 2.30052 0.350495 2.13453 0.31345 1.97176C0.269634 1.78033 0.403872 1.68986 0.485131 1.58485C0.540499 1.51377 0.562407 1.46046 0.566789 1.37847C0.569577 1.33283 0.595469 1.26983 0.630921 1.24802C0.758387 1.16926 0.795431 1.03477 0.855579 0.913608C0.884259 0.855854 0.907761 0.793657 0.996988 0.822332C1.01212 0.827179 1.0659 0.777906 1.06391 0.758116C1.05435 0.666032 1.12047 0.618374 1.17783 0.615143C1.33358 0.607066 1.42201 0.483075 1.54629 0.424513C1.65065 0.37524 1.75541 0.327179 1.85977 0.27831C1.91076 0.254481 1.98724 0.244788 2.00835 0.204804C2.07766 0.07516 2.19517 0.1418 2.28798 0.114336C2.30352 0.109894 2.32702 0.115144 2.33458 0.105855C2.44572 -0.0270207 2.57159 0.0723328 2.69189 0.0804103C2.8074 0.088084 2.92332 0.101008 3.03844 0.098181C3.0711 0.0973732 3.09938 0.0412344 3.13563 0.0275026C3.18622 0.00852038 3.24318 -0.00238422 3.29695 0.000442918C3.31528 0.00125067 3.33121 0.0533508 3.3587 0.1002V0.101008Z" fill="currentColor"/>
  <path d="M23.0092 23.809C23.0681 23.8627 23.1267 23.9164 23.1856 23.9701C23.1836 23.9802 23.182 23.9899 23.1801 24C23.1291 23.9887 23.0761 23.9826 23.0275 23.9653C22.9853 23.9499 22.9474 23.9221 22.9363 23.9156C22.9502 23.8954 22.9813 23.851 23.0124 23.8061L23.0092 23.8094V23.809Z" fill="currentColor"/>
</svg>