<svg fill="none" xmlns="http://www.w3.org/2000/svg" viewBox="0 0 20 24">
  <path d="M12.3584 2.13264C12.2946 2.13854 12.2352 2.1479 12.1758 2.1486C12.0721 2.14964 11.9701 2.15726 11.8657 2.11843C11.7948 2.09207 11.7076 2.11669 11.629 2.10768C11.5975 2.10421 11.5693 2.07127 11.5559 2.06225C11.4867 2.06225 11.4267 2.06988 11.3693 2.06052C11.289 2.04734 11.2145 2.03832 11.133 2.06814C11.0873 2.08479 11.0259 2.05011 10.9745 2.05809C10.8812 2.07231 10.7863 2.13576 10.7171 2.00469C10.7087 1.98873 10.6295 1.96931 10.5865 2.03173C10.5584 2.07265 10.4993 2.09068 10.4509 2.12085C10.4258 2.08514 10.4113 2.04838 10.3845 2.03035C10.3432 2.00226 10.3063 1.9499 10.2398 2.01474C10.21 2.04387 10.1311 2.0196 10.0653 2.0196C10.0656 2.01544 10.0643 2.03035 10.0623 2.05046C9.92433 2.02653 9.78705 2.00295 9.65817 1.98041C9.59977 2.00503 9.54204 2.02965 9.48397 2.05393C9.49102 2.05843 9.50579 2.06814 9.52022 2.07751C9.48095 2.15276 9.3665 2.12016 9.33998 2.22072C9.32689 2.21413 9.30742 2.19818 9.28661 2.19541C9.24936 2.19055 9.18727 2.17876 9.1772 2.19541C9.11712 2.29875 9.04093 2.24257 8.97581 2.22038C8.8335 2.17252 8.83585 2.16905 8.74624 2.27863C8.72945 2.29909 8.7026 2.31054 8.69052 2.31886C8.65158 2.28106 8.61198 2.21483 8.58311 2.21934C8.46128 2.23876 8.5425 2.34209 8.53277 2.40625C8.44752 2.41665 8.40511 2.4378 8.40556 2.46971C8.38744 2.4489 8.37334 2.43225 8.35924 2.41596C8.35119 2.41734 8.3428 2.41873 8.33474 2.41977C8.3391 2.4437 8.35387 2.47387 8.34481 2.48947C8.33273 2.51062 8.30218 2.52033 8.26761 2.54287C8.31192 2.42012 8.2844 2.40763 8.13034 2.40694C8.17397 2.43884 8.19981 2.45757 8.22901 2.47872C8.20351 2.49918 8.17699 2.52033 8.14947 2.54218C8.14779 2.54149 8.1441 2.54149 8.14242 2.53975C8.00279 2.38024 7.9981 2.37434 7.83699 2.55848C7.76818 2.6372 7.69401 2.72805 7.60372 2.76446C7.50773 2.8033 7.38958 2.78943 7.28117 2.78804C7.24794 2.78769 7.21538 2.75267 7.18249 2.73325C7.18887 2.7232 7.19525 2.71279 7.20162 2.70274C7.18853 2.72632 7.17947 2.7544 7.16135 2.77244C7.13919 2.79428 7.10429 2.82688 7.08415 2.82099C7.03682 2.80746 7.0046 2.80434 6.97439 2.8515C6.97003 2.85809 6.91767 2.84769 6.90794 2.83174C6.86531 2.76169 6.81027 2.75336 6.75757 2.8144C6.74985 2.82341 6.73206 2.83139 6.72166 2.82896C6.64715 2.81058 6.60519 2.85705 6.56525 2.90872C6.52095 2.96559 6.47597 3.02211 6.42428 3.08765C6.45483 3.10603 6.48134 3.12198 6.51323 3.1414C6.47161 3.19376 6.43167 3.24682 6.38837 3.2971C6.37763 3.30924 6.35346 3.32276 6.34172 3.31826C6.23599 3.27768 6.19101 3.37686 6.12187 3.41882C6.11113 3.42541 6.11214 3.45246 6.10576 3.47673C6.08227 3.46425 6.06146 3.45315 6.03528 3.43928C6.02319 3.52389 5.88894 3.45038 5.88927 3.55995C5.74562 3.55649 5.71978 3.69866 5.64392 3.77634C5.55431 3.86858 5.47207 3.97088 5.40092 4.07872C5.37038 4.12485 5.37575 4.19628 5.364 4.26078C5.36165 4.26009 5.33815 4.2528 5.31265 4.24517C5.26331 4.29234 5.34755 4.41128 5.22538 4.40954C5.2529 4.5323 5.21732 4.56871 5.08307 4.57599C5.07266 4.61241 5.06427 4.64327 5.05555 4.67378C5.03574 4.66546 5.01594 4.65749 4.98506 4.64431C4.97231 4.66824 4.95318 4.70465 4.93035 4.74834C4.8263 4.78718 4.72226 4.84613 4.65144 4.95502C4.64372 4.96681 4.62995 4.97929 4.6172 4.98241C4.54638 4.9994 4.56115 5.04344 4.58397 5.08922C4.6417 5.20434 4.62895 5.19845 4.51886 5.23105C4.44636 5.25255 4.35742 5.27543 4.30371 5.36213C4.22786 5.48315 4.16476 5.60591 4.13657 5.74774C4.13388 5.76126 4.09763 5.77756 4.07783 5.77617C4.01842 5.77201 3.96002 5.75987 3.90766 5.7519C3.88215 5.77409 3.85362 5.79316 3.83281 5.81882C3.80462 5.8535 3.78314 5.89407 3.75729 5.93083C3.72709 5.97383 3.69789 6.01891 3.66298 6.05775C3.61196 6.11462 3.56665 6.16698 3.55356 6.25194C3.54081 6.33517 3.49986 6.41458 3.46629 6.49329C3.45824 6.51271 3.43172 6.52381 3.40823 6.54358C3.41561 6.56681 3.42635 6.60114 3.44146 6.64969C3.38641 6.6431 3.34311 6.6379 3.31156 6.63408C3.27968 6.68714 3.24477 6.73361 3.22363 6.78562C3.21591 6.80469 3.23907 6.83798 3.24981 6.86399C3.26592 6.90214 3.28136 6.94132 3.30183 6.97704C3.31458 6.99958 3.33976 7.01414 3.35218 7.03668C3.36829 7.06616 3.39245 7.1043 3.38608 7.13135C3.36258 7.22776 3.33607 7.3252 3.2931 7.41328C3.27431 7.45246 3.21389 7.47015 3.16825 7.50032C3.15113 7.52806 3.12898 7.56412 3.0991 7.61267C3.1565 7.63833 3.1763 7.70249 3.14341 7.78294C3.14039 7.79057 3.14274 7.8027 3.13804 7.80756C3.05111 7.89113 3.0887 8.0014 3.0699 8.09988C3.05648 8.16993 3.07729 8.2216 3.08064 8.28194C3.084 8.34505 3.09071 8.40296 3.13502 8.45255C3.15079 8.47024 3.15079 8.50249 3.15818 8.52815C3.15012 8.53023 3.1424 8.53266 3.13435 8.53474C3.10985 8.48758 3.08534 8.44007 3.06118 8.39291C3.0548 8.39464 3.04809 8.39603 3.04171 8.39776C3.04473 8.42446 3.03869 8.45741 3.05178 8.47683C3.10682 8.55728 3.07091 8.62455 3.03063 8.69252C2.99841 8.74696 2.93229 8.80522 2.939 8.85342C2.95008 8.93283 2.89839 8.98554 2.89738 9.05559C2.89604 9.18112 2.88799 9.307 2.87792 9.43218C2.87557 9.46096 2.85275 9.48836 2.83731 9.51991C2.89806 9.60869 2.85241 9.79837 2.75071 9.81467C2.77353 9.88576 2.78662 9.95615 2.72017 10.0151C2.71077 10.0234 2.73426 10.0713 2.745 10.1091C2.72587 10.1125 2.70506 10.116 2.65975 10.124C2.69869 10.1795 2.73158 10.2256 2.76884 10.2783C2.69802 10.3799 2.70238 10.4458 2.80106 10.607C2.82119 10.64 2.83563 10.6785 2.84536 10.7166C2.87523 10.8318 2.86516 10.8751 2.75776 10.9129C2.58725 10.9729 2.58591 11.1272 2.55705 11.2638C2.54933 11.3013 2.59162 11.3498 2.62115 11.4168C2.56644 11.4029 2.53456 11.3949 2.4963 11.3855C2.4963 11.4556 2.50167 11.526 2.49529 11.5953C2.47884 11.776 2.46374 11.957 2.43622 12.136C2.41541 12.2715 2.41004 12.3822 2.53322 12.4845C2.64633 12.5784 2.63961 12.7199 2.49865 12.8021C2.44897 12.8312 2.40097 12.8701 2.41809 12.9561C2.43487 13.041 2.42178 13.1319 2.42178 13.2331C2.46139 13.2061 2.48958 13.1867 2.52415 13.1631C2.56477 13.2363 2.60538 13.3032 2.63861 13.3736C2.64834 13.394 2.6423 13.4266 2.63492 13.4509C2.60202 13.5598 2.56107 13.6666 2.53355 13.7769C2.52281 13.8195 2.54127 13.8698 2.54329 13.9166C2.54597 13.986 2.55033 14.0557 2.5453 14.1243C2.54127 14.1823 2.5255 14.2391 2.51408 14.2963C2.51241 14.3047 2.50469 14.3192 2.50569 14.3196C2.63189 14.3921 2.52449 14.4777 2.51946 14.5575C2.51274 14.6622 2.50804 14.7669 2.50334 14.8716C2.502 14.9032 2.51073 14.9368 2.50334 14.9667C2.48455 15.0464 2.50334 15.0679 2.58088 15.052C2.69499 15.0284 2.68795 15.1414 2.70674 15.1959C2.72957 15.2618 2.72285 15.338 2.6715 15.4133C2.6188 15.4903 2.60672 15.5967 2.57719 15.6904C2.66982 15.7621 2.5557 15.8651 2.61209 15.9435C2.6188 15.9529 2.61746 15.9803 2.61008 15.9862C2.48421 16.0895 2.61813 16.1415 2.65203 16.2119C2.65774 16.2237 2.67553 16.2334 2.68929 16.2369C2.87087 16.2823 2.84402 16.4283 2.841 16.5653H2.67385C2.69936 16.644 2.7299 16.722 2.7497 16.8028C2.77051 16.8885 2.78125 16.9765 2.80039 17.0847C2.85677 17.0424 2.90477 17.0067 2.95814 16.9668C2.99976 17.0383 3.04104 17.1052 3.07762 17.1749C3.08534 17.1895 3.07964 17.2148 3.07393 17.2332C3.05379 17.2987 3.02694 17.3621 3.01117 17.4284C3.00479 17.4558 3.02291 17.488 3.02426 17.5185C3.02694 17.5681 3.02493 17.6184 3.02493 17.6652H3.28035C3.28908 17.8143 3.42232 17.8827 3.51832 17.9777C3.48509 18.0137 3.45589 18.0456 3.43105 18.073C3.47066 18.1226 3.51395 18.1625 3.53745 18.2124C3.55054 18.2402 3.53074 18.2842 3.52537 18.3251C3.53879 18.3508 3.55658 18.3851 3.57471 18.4198C3.57001 18.4215 3.56564 18.4229 3.56094 18.4247C3.56699 18.4486 3.56564 18.4836 3.58041 18.4944C3.68479 18.5689 3.7875 18.6445 3.91538 18.6785C3.96069 18.6906 3.99526 18.7527 4.0305 18.796C4.10065 18.8817 4.14059 18.9899 4.26444 19.0305C4.31714 19.0478 4.35104 19.1404 4.3846 19.2039C4.44099 19.3117 4.50006 19.4199 4.54 19.5347C4.5786 19.6463 4.65244 19.6831 4.75414 19.7022C4.83939 19.7181 4.92163 19.7511 5.00587 19.7743C5.09112 19.7979 5.13677 19.8946 5.10891 20.0014C5.10354 20.0222 5.09213 20.041 5.08206 20.0638C5.1465 20.1023 5.21565 20.1335 5.2727 20.1807C5.33043 20.2282 5.35494 20.2962 5.31399 20.3721C5.29183 20.413 5.29385 20.4404 5.3452 20.455C5.37474 20.4633 5.40226 20.4838 5.42676 20.5039C5.46771 20.5372 5.50228 20.5809 5.54625 20.6086C5.59156 20.6371 5.64526 20.6513 5.70098 20.6742C5.65567 20.7487 5.71776 20.7792 5.75435 20.8208C5.81644 20.8916 5.87853 20.962 5.93996 21.0331C5.96748 21.065 5.99299 21.0986 6.01044 21.1205C6.08898 21.0983 6.16114 21.0847 6.22693 21.0563C6.2615 21.0414 6.28499 21.0001 6.32292 20.9609C6.35682 20.9724 6.40918 20.9842 6.4565 21.0071C6.51558 21.0355 6.56458 21.0688 6.54813 21.1586C6.54075 21.1995 6.57532 21.2543 6.60284 21.2942C6.63607 21.3424 6.68205 21.3816 6.723 21.4246C6.72703 21.4287 6.73441 21.435 6.73811 21.4336C6.80121 21.4149 6.87102 21.4072 6.92506 21.3733C7.01064 21.3192 7.05629 21.3146 7.12778 21.3882C7.14725 21.4083 7.16672 21.4284 7.18585 21.4485C7.28419 21.5522 7.28251 21.5491 7.3154 21.5324C7.35904 21.5102 7.40435 21.4894 7.451 21.4759C7.48994 21.4645 7.53223 21.4586 7.5725 21.4606C7.63493 21.4641 7.69703 21.4762 7.76013 21.4849C7.75643 21.5276 7.83095 21.6042 7.87693 21.5827C7.88801 21.5775 7.88196 21.5338 7.88465 21.4957C7.90546 21.4967 7.94339 21.4991 7.98098 21.5002C8.00347 21.5009 8.03199 21.5078 8.04743 21.4967C8.09207 21.4645 8.10114 21.4953 8.13604 21.5192C8.21794 21.5744 8.27231 21.6406 8.30353 21.7325C8.3042 21.7349 8.30823 21.7367 8.31091 21.7377C8.4116 21.7668 8.5123 21.7956 8.60158 21.8213C8.63313 21.7713 8.65125 21.7308 8.67944 21.7003C8.75496 21.6191 8.75698 21.6208 8.78987 21.7363C8.77376 21.7422 8.75765 21.7485 8.74154 21.7544C8.74221 21.7627 8.74254 21.7707 8.74321 21.779C8.77409 21.779 8.80497 21.7783 8.83585 21.779C8.88754 21.78 8.94359 21.771 8.9352 21.8591C8.93352 21.8775 8.97078 21.9 8.98991 21.9208C9.00703 21.9028 9.02414 21.8844 9.04697 21.8605C9.04999 21.8622 9.06677 21.8719 9.08355 21.8816C9.07718 21.9121 9.0708 21.9416 9.06241 21.9794C9.14967 21.9794 9.2168 22.0026 9.25909 22.0866C9.26815 22.1046 9.33931 22.0911 9.38194 22.0876C9.40879 22.0855 9.4353 22.0758 9.47256 22.0668C9.46887 22.0401 9.45779 21.9954 9.45813 21.951C9.45813 21.9319 9.47994 21.9003 9.49639 21.8969C9.53801 21.8882 9.58298 21.8972 9.62494 21.8899C9.75282 21.8671 9.77094 21.9832 9.82733 22.0529C9.91493 22.0221 10.0509 22.0248 10.1281 22.1868C10.1761 22.1868 10.2227 22.1739 10.2576 22.1892C10.3392 22.2246 10.4066 22.2069 10.4597 22.1445C10.5161 22.0782 10.5741 22.0533 10.6564 22.0859C10.6708 22.0914 10.7074 22.0723 10.7148 22.0557C10.7487 21.9773 10.7477 21.8678 10.8883 21.9392C10.9396 21.9652 11.0189 21.9326 11.0853 21.9281C11.0994 21.927 11.1182 21.927 11.1273 21.9354C11.183 21.9857 11.2363 22.0384 11.3058 22.1049C11.3471 21.9225 11.4646 21.9749 11.5592 21.9877C11.623 21.9964 11.6569 21.9697 11.666 21.9208C11.6797 21.8452 11.7257 21.832 11.7838 21.8348C11.8519 21.8379 11.9348 21.8074 11.9707 21.9132C12.0184 21.875 12.0493 21.8782 12.0882 21.9361C12.1402 22.0134 12.2372 22.0002 12.2876 21.9205C12.352 21.8185 12.4373 21.745 12.5427 21.6892C12.5779 21.6704 12.5957 21.6167 12.6222 21.5775C12.6699 21.5636 12.7346 21.5609 12.7803 21.5286C12.8867 21.4527 12.9968 21.4506 13.1149 21.4752C13.2294 21.4991 13.3442 21.5231 13.4596 21.5394C13.4821 21.5425 13.514 21.5137 13.5331 21.4918C13.5576 21.4641 13.5741 21.4284 13.5986 21.3882C13.6214 21.4232 13.6355 21.4454 13.662 21.4863C13.6667 21.4416 13.6694 21.4156 13.6724 21.3875C13.6956 21.3913 13.7184 21.3954 13.7416 21.3989C13.7899 21.4062 13.8486 21.4336 13.8832 21.4145C13.9131 21.3979 13.9158 21.3285 13.9319 21.2775C13.9681 21.2869 14.0017 21.2959 14.0446 21.307C14.0473 21.2647 14.0621 21.2234 14.05 21.1947C13.9943 21.0612 14.0641 20.9724 14.147 20.8916C14.1906 20.8489 14.2279 20.8118 14.2148 20.7439C14.2135 20.7362 14.2306 20.7248 14.2427 20.7116C14.2594 20.7938 14.2594 20.79 14.3252 20.7602C14.3497 20.7491 14.3867 20.7661 14.4135 20.7546C14.4632 20.7425 14.5129 20.722 14.5632 20.7199C14.684 20.7144 14.7263 20.6818 14.7384 20.5583C14.7481 20.4567 14.8341 20.4515 14.8972 20.4182C14.9193 20.4068 14.9478 20.4085 14.9888 20.4016C14.9945 20.464 15.0002 20.5257 15.0059 20.5902C15.1063 20.6183 15.1093 20.4886 15.1841 20.4588C15.1707 20.4338 15.1583 20.411 15.1455 20.3867C15.216 20.3257 15.2865 20.3024 15.3785 20.3184C15.5295 20.3447 15.5765 20.2823 15.5298 20.1256C15.5523 20.1169 15.5752 20.1082 15.6023 20.0975C15.5825 20.0056 15.6453 19.9414 15.6795 19.8627C15.7228 19.7639 15.7692 19.7968 15.838 19.8291C15.8524 19.5905 16.0249 19.6678 16.1538 19.6602C16.1655 19.5947 16.2062 19.5267 16.1169 19.4903C16.1451 19.441 16.1632 19.3772 16.2041 19.3467C16.2417 19.319 16.3105 19.2791 16.3515 19.3623C16.3545 19.3682 16.3659 19.3696 16.3767 19.3745C16.381 19.2905 16.3955 19.2091 16.3874 19.13C16.374 18.9996 16.4055 18.9323 16.5156 18.8834C16.5592 18.9077 16.5962 18.9452 16.6301 18.9424C16.6744 18.9389 16.7099 18.8522 16.7066 18.804C16.7254 18.7985 16.7579 18.7912 16.7576 18.7891C16.7475 18.7239 16.7425 18.6632 16.8227 18.6407C16.7999 18.5613 16.8801 18.5464 16.9093 18.5006C16.9392 18.4534 16.9909 18.4208 17.0342 18.3837C17.0479 18.3719 17.0661 18.3654 17.0822 18.3563C16.9452 18.2003 17.0832 18.1042 17.154 18.0051C17.1355 17.9669 17.1208 17.9364 17.106 17.9059C17.1382 17.8934 17.1715 17.8684 17.2027 17.8709C17.2621 17.875 17.2779 17.8511 17.2883 17.7956C17.3034 17.7162 17.3319 17.6396 17.355 17.5615C17.3775 17.5595 17.4098 17.5563 17.4695 17.5511C17.3383 17.4599 17.4769 17.4121 17.4682 17.3361H17.3097C17.2765 17.2775 17.2802 17.2165 17.3087 17.143C17.3369 17.0712 17.3524 16.9918 17.3158 16.9086C17.2889 16.8482 17.2859 16.7768 17.2725 16.7109C17.3131 16.6842 17.3527 16.6582 17.392 16.6322C17.391 16.6253 17.39 16.6183 17.3889 16.6114C17.3477 16.6093 17.3064 16.6072 17.2577 16.6045C17.2406 16.4997 17.202 16.4009 17.2819 16.2906C17.3238 16.2324 17.3168 16.136 17.3299 16.0562C17.3373 16.0101 17.3406 15.9633 17.3473 15.9022C17.2601 15.7667 17.2627 15.6813 17.3698 15.5367C17.4088 15.484 17.3873 15.4168 17.3302 15.3838C17.2842 15.3571 17.245 15.3183 17.197 15.2801C17.2349 15.2451 17.255 15.2264 17.2799 15.2035C17.2735 15.1945 17.2614 15.1841 17.2577 15.1712C17.2215 15.0461 17.1318 14.9798 17.0204 14.9341C17.002 14.9264 16.9835 14.897 16.9801 14.8755C16.9738 14.8331 16.9781 14.7891 16.9781 14.7274C17.0835 14.6532 16.9462 14.6289 16.9197 14.5751C16.9358 14.545 16.9979 14.51 16.9086 14.4916C16.8855 14.4867 16.867 14.46 16.8442 14.4479C16.7878 14.4184 16.7281 14.3959 16.674 14.3633C16.6166 14.3286 16.5639 14.2856 16.5035 14.2419C16.5384 14.2145 16.5539 14.2024 16.5703 14.1895C16.4861 14.1198 16.4065 14.054 16.3183 13.9808C16.3226 13.9329 16.3216 13.8761 16.2404 13.8546C16.2172 13.8483 16.2085 13.7921 16.1897 13.7609C16.1726 13.7328 16.1464 13.6826 16.132 13.6853C16.0427 13.7023 16.0091 13.6396 15.9719 13.5806C15.9118 13.4856 15.8648 13.3781 15.7322 13.3504C15.7591 13.3316 15.7705 13.3236 15.7873 13.3119C15.7027 13.2564 15.6255 13.1974 15.5402 13.1575C15.5251 13.1503 15.4516 13.2179 15.4473 13.2557C15.4399 13.3216 15.4691 13.3913 15.4758 13.4603C15.4815 13.5175 15.4768 13.5754 15.4768 13.6399C15.5033 13.6337 15.5335 13.6267 15.5674 13.6191C15.5765 13.6697 15.5906 13.7204 15.5926 13.7713C15.5936 13.797 15.5728 13.824 15.5611 13.85C15.5366 13.9031 15.4996 13.9534 15.4889 14.0089C15.4724 14.0938 15.4698 14.1826 15.4691 14.2696C15.4684 14.3553 15.4164 14.3744 15.352 14.3771C15.2724 14.3806 15.2261 14.4541 15.2637 14.5235C15.3362 14.657 15.3368 14.6573 15.2298 14.7575C15.1929 14.7922 15.1469 14.8179 15.1153 14.8567C15.0888 14.8893 15.0626 14.9351 15.0626 14.975C15.0626 15.0866 15.0677 15.0866 15.0019 15.1563C14.9774 15.2136 14.9509 15.2697 14.929 15.328C14.9166 15.3616 14.8951 15.4053 14.9062 15.4324C14.9331 15.4986 14.9119 15.526 14.8465 15.5419C14.8626 15.5662 14.8764 15.5867 14.8888 15.6054H14.7478C14.7384 15.6949 14.7367 15.7871 14.7159 15.8748C14.7055 15.9192 14.6662 15.9622 14.6293 15.9924C14.5478 16.0593 14.4461 16.1048 14.4216 16.2247C14.4182 16.2417 14.4145 16.2598 14.4169 16.2764C14.4316 16.3874 14.4095 16.4363 14.3095 16.4338C14.189 16.4311 14.1269 16.507 14.0611 16.5833C13.9893 16.6665 13.9087 16.7279 13.805 16.7654C13.762 16.781 13.7197 16.8292 13.6989 16.8735C13.6667 16.9426 13.6284 16.9783 13.5533 17.0005C13.4959 17.0175 13.4526 17.0861 13.4039 17.1326C13.3911 17.1447 13.3791 17.1732 13.3703 17.1718C13.2723 17.1558 13.2552 17.2325 13.2086 17.2935C13.1747 17.3375 13.0844 17.349 13.0186 17.35C12.9454 17.3514 12.8719 17.3171 12.7981 17.3129C12.7481 17.3101 12.7014 17.3129 12.6749 17.3941C12.6501 17.4693 12.5631 17.5231 12.4967 17.5934C12.5014 17.5997 12.5192 17.6236 12.5393 17.6503C12.5044 17.727 12.4527 17.7745 12.3634 17.7852C12.3299 17.7894 12.2872 17.8303 12.2728 17.865C12.2365 17.952 12.2117 17.9638 12.1429 17.9017C12.1224 17.8833 12.1033 17.8629 12.0717 17.832C12.0519 17.8566 12.0332 17.8792 12.0187 17.8969C11.9442 17.8896 11.8704 17.8799 11.7965 17.8754C11.7143 17.8702 11.6683 17.9142 11.6626 17.9978C11.6582 18.0623 11.6253 18.0879 11.5673 18.0827C11.4995 18.0768 11.4287 18.0779 11.3649 18.0574C11.283 18.0311 11.2071 18.0331 11.1306 18.0654C11.1135 18.0727 11.0897 18.0886 11.0873 18.1039C11.0729 18.1961 11.0068 18.2208 10.9336 18.2339C10.9098 18.2381 10.8812 18.219 10.8591 18.2256C10.8165 18.2377 10.7691 18.2516 10.7372 18.2807C10.6775 18.3355 10.6345 18.3227 10.5872 18.2672C10.5204 18.1892 10.4536 18.1101 10.3798 18.0394C10.3664 18.0266 10.3137 18.0446 10.2878 18.0623C10.2425 18.0928 10.2039 18.1337 10.1579 18.1739C10.1281 18.1216 10.1076 18.0855 10.0804 18.0377C10.0059 18.0599 9.93138 18.0831 9.85653 18.1039C9.84411 18.1074 9.82465 18.1063 9.81592 18.0983C9.7216 18.0148 9.62762 18.0165 9.53264 18.0959C9.53029 18.0977 9.52727 18.0997 9.52458 18.0994C9.37019 18.0855 9.24365 18.2006 9.09094 18.1982C9.02549 18.1972 8.97313 18.1989 8.9889 18.1056C8.99259 18.0834 8.97883 18.0581 8.96977 18.0217C8.87042 18.0436 8.76805 18.0553 8.67374 18.09C8.5613 18.1313 8.55626 18.1361 8.51364 18.0137C8.44886 18.0273 8.38341 18.0411 8.31024 18.0564C8.31192 17.97 8.27298 17.9572 8.2025 17.9673C8.10147 17.9815 7.9991 17.9465 7.89371 17.9815C7.85612 17.994 7.77288 17.9721 7.76281 17.8854C7.7608 17.8677 7.72354 17.8511 7.69971 17.8407C7.62319 17.8071 7.54532 17.7769 7.46812 17.745C7.41308 17.7224 7.36038 17.6989 7.36743 17.6208C7.36844 17.6087 7.35367 17.5841 7.34561 17.5837C7.25298 17.5796 7.22478 17.4995 7.18115 17.4381C7.17242 17.4256 7.15631 17.41 7.159 17.3993C7.1845 17.2897 7.08918 17.281 7.03515 17.2408C6.95795 17.1836 6.86733 17.1419 6.80221 17.0736C6.77201 17.0417 6.78778 16.9627 6.78207 16.8996C6.723 16.8892 6.63036 16.8898 6.55317 16.8548C6.46154 16.8129 6.37864 16.7456 6.30278 16.6766C6.28768 16.6627 6.31923 16.5895 6.33601 16.5462C6.34239 16.5296 6.36655 16.5202 6.38904 16.5022C6.31386 16.4394 6.30882 16.3804 6.33668 16.2833C6.37629 16.145 6.36051 15.9952 6.20712 15.9106C6.18128 15.8963 6.1645 15.862 6.14637 15.8346C6.1212 15.7968 6.09972 15.7562 6.07522 15.7178C6.06381 15.6997 6.03763 15.6841 6.03763 15.6675C6.0383 15.4958 5.92217 15.363 5.89565 15.2025C5.87988 15.1064 5.8886 15.0062 5.87853 14.9091C5.87585 14.8817 5.84799 14.8387 5.82684 14.8356C5.75602 14.8245 5.74059 14.7808 5.71978 14.7184C5.66742 14.5627 5.68789 14.408 5.70501 14.252C5.71373 14.1719 5.7228 14.0914 5.73622 14.0116C5.74025 13.9877 5.76039 13.9673 5.7718 13.9447C5.78422 13.9204 5.81107 13.8899 5.80503 13.8715C5.78422 13.8077 5.74596 13.7585 5.81913 13.6909C5.8453 13.6666 5.82114 13.5601 5.79496 13.504C5.73824 13.3826 5.70534 13.2633 5.75636 13.1232C5.83658 13.1145 5.86947 13.0521 5.89229 12.9675C5.9121 12.8947 5.95506 12.8285 5.98829 12.7595C6.04233 12.6478 6.03796 12.5393 6.0101 12.4168C5.99869 12.3676 6.08596 12.293 6.13127 12.2324C6.14 12.2206 6.16651 12.224 6.17725 12.2129C6.23632 12.1509 6.23532 12.1502 6.30379 12.1897C6.38468 12.0933 6.38031 12.0704 6.25512 11.9979C6.28734 11.9598 6.31084 11.9119 6.34843 11.8915C6.40683 11.8599 6.42294 11.8207 6.41925 11.7573C6.41186 11.637 6.46456 11.5849 6.57666 11.6113C6.65386 11.6293 6.67668 11.603 6.67534 11.5305C6.67433 11.4698 6.67903 11.4084 6.674 11.3481C6.66829 11.2746 6.71193 11.2371 6.76731 11.2326C6.88209 11.2229 6.99789 11.2281 7.11335 11.2274C7.12543 11.2274 7.14121 11.2316 7.14893 11.2253C7.19021 11.1924 7.22915 11.1567 7.25667 11.1324C7.24492 11.0963 7.23519 11.0655 7.21908 11.0152C7.2946 11.0513 7.34091 11.088 7.38958 11.0918C7.43926 11.096 7.49363 11.0728 7.5423 11.0523C7.64097 11.0107 7.63997 11.0079 7.75878 11.0311C7.80947 10.9236 7.86451 10.9035 7.98366 10.9001C8.02696 10.8987 8.06858 10.8366 8.10751 10.805C8.15853 10.7856 8.21727 10.7728 8.2656 10.743C8.32232 10.708 8.45658 10.7267 8.49753 10.7839C8.51162 10.8037 8.53579 10.83 8.55459 10.8297C8.67844 10.8272 8.80229 10.822 8.92513 10.8064C8.94258 10.8044 8.9597 10.7409 8.96407 10.7041C8.96742 10.6771 8.9493 10.6476 8.94057 10.6181C8.99427 10.6063 9.0379 10.5921 9.08221 10.5883C9.14699 10.5828 9.22016 10.5568 9.25473 10.6511C9.26178 10.6702 9.29501 10.6951 9.31179 10.692C9.40744 10.674 9.46081 10.7447 9.51888 10.795C9.61017 10.7308 9.70616 10.6826 9.73771 10.5793C9.79914 10.5672 9.8572 10.5568 9.9146 10.5439C9.9683 10.5318 9.96931 10.5287 10.0059 10.3948C10.0505 10.4302 10.1009 10.4517 10.121 10.4902C10.1536 10.5523 10.1885 10.545 10.2371 10.5235C10.26 10.5134 10.2868 10.5023 10.3096 10.5058C10.3771 10.5158 10.4439 10.5453 10.5104 10.5429C10.5553 10.5415 10.61 10.5093 10.6413 10.4732C10.6997 10.4056 10.8064 10.3941 10.8631 10.469C10.9061 10.5262 10.9376 10.538 11.0121 10.5089C11.1205 10.4666 11.2421 10.46 11.3726 10.4357C11.3233 10.5866 11.3327 10.5946 11.5069 10.5838C11.5122 10.6119 11.5179 10.641 11.5243 10.6743C11.6049 10.6577 11.6848 10.6337 11.766 10.6268C11.8418 10.6206 11.919 10.6324 11.9962 10.6362C11.9811 10.5009 12.0415 10.4513 12.1738 10.4805C12.2181 10.4902 12.2647 10.4891 12.3104 10.4936C12.356 10.4982 12.4013 10.5034 12.4644 10.5099C12.4856 10.5439 12.5111 10.6154 12.5937 10.5821C12.6151 10.5734 12.6336 10.5568 12.6541 10.545C12.6742 10.5332 12.7011 10.5086 12.7145 10.5148C12.7991 10.5529 12.8001 10.503 12.7863 10.433C12.7947 10.4309 12.8034 10.4288 12.8118 10.4264C12.8441 10.4711 12.8763 10.5158 12.9004 10.5495H13.1575C13.1327 10.5068 13.12 10.4721 13.0968 10.4482C13.0424 10.392 13.0213 10.2741 13.0696 10.2145C13.0844 10.1961 13.126 10.201 13.169 10.1927C13.1616 10.1732 13.1559 10.1455 13.1421 10.1226C13.0954 10.0463 13.0891 9.96794 13.1075 9.88021C13.1173 9.83444 13.0958 9.78242 13.1001 9.73422C13.1062 9.66313 13.0538 9.65897 13.0142 9.634C12.9995 9.62464 12.9884 9.57505 12.9931 9.57228C13.078 9.51749 13.0448 9.4249 13.0622 9.34965C13.0693 9.31983 13.074 9.28966 13.0797 9.25949C12.9662 9.23938 12.9323 9.21198 12.8494 9.06946C12.882 9.05455 12.9135 9.03998 12.9511 9.02264C12.9434 9.00739 12.9397 8.98658 12.928 8.97826C12.8571 8.9304 12.829 8.8659 12.839 8.77852C12.8407 8.7643 12.8112 8.74349 12.7934 8.72962C12.7165 8.67032 12.6098 8.64744 12.6175 8.50387C12.6225 8.41059 12.5678 8.39221 12.4843 8.43903C12.4675 8.34471 12.4289 8.28402 12.3242 8.33604C12.3228 8.33673 12.303 8.31003 12.301 8.29477C12.2973 8.26495 12.3 8.23409 12.3 8.19837C12.255 8.19941 12.1771 8.26252 12.1852 8.14393C12.1855 8.13734 12.1469 8.13109 12.1305 8.11896C12.1097 8.10335 12.0744 8.07353 12.0781 8.06382C12.1093 7.9858 12.0003 7.9962 12.0076 7.93725C11.9902 7.94314 11.9707 7.94557 11.9563 7.95563C11.9372 7.9695 11.9237 7.99239 11.9046 8.00626C11.8402 8.05203 11.8113 8.03816 11.8006 7.95771C11.7972 7.93309 11.7969 7.90847 11.7959 7.89286C11.7479 7.88246 11.7066 7.87344 11.6616 7.86339C11.6441 7.87934 11.6223 7.90015 11.6086 7.91263C11.5995 7.87622 11.5935 7.84709 11.5837 7.81935C11.5831 7.81727 11.5579 7.8242 11.5394 7.82767C11.5287 7.80721 11.5143 7.78016 11.4958 7.74548C11.4481 7.74791 11.3961 7.75034 11.3441 7.75311C11.3458 7.74687 11.3478 7.74063 11.3495 7.73439C11.3088 7.72399 11.2686 7.70838 11.2276 7.70491C11.1716 7.70006 11.1138 7.71046 11.0585 7.70283C11.0262 7.69832 10.9967 7.67093 10.9762 7.63868C10.893 7.65082 10.7963 7.81553 10.6872 7.62932C10.6654 7.6418 10.6436 7.65394 10.6033 7.67682C10.6194 7.63764 10.6275 7.61822 10.6399 7.58874C10.5681 7.58874 10.5006 7.59013 10.4332 7.5884C10.3667 7.58632 10.2966 7.56516 10.2345 7.58077C10.1512 7.60157 10.0579 7.63174 9.99851 7.69C9.87801 7.8079 9.86996 7.81831 9.76994 7.72815C9.72462 7.76907 9.68065 7.8086 9.63669 7.84813C9.62863 7.83703 9.62058 7.82594 9.61252 7.81484C9.58802 7.82143 9.55748 7.82073 9.54002 7.83599C9.41349 7.94904 9.29299 8.06937 9.1631 8.17791C9.11275 8.22021 9.04361 8.24484 8.98555 8.17375C8.92144 8.09572 8.84659 8.13526 8.7845 8.1682C8.71938 8.20288 8.66602 8.26044 8.6056 8.30517C8.58177 8.32286 8.5472 8.3506 8.52706 8.34367C8.40791 8.3024 8.34984 8.40262 8.2703 8.45255C8.28909 8.49729 8.30756 8.54202 8.33642 8.61137C8.22096 8.63842 8.11053 8.66443 7.99273 8.69182V8.72754C7.98568 8.72962 7.97963 8.73309 7.97494 8.73205C7.8041 8.68697 7.67286 8.79377 7.53055 8.85619C7.48054 8.87804 7.43456 8.90925 7.38656 8.9363C7.3822 8.92728 7.3775 8.91792 7.37313 8.9089C7.39797 8.89711 7.42314 8.88532 7.44664 8.87423C7.33353 8.8444 7.21941 8.79516 7.10362 8.79031C7.02541 8.78684 6.97507 8.77782 6.92908 8.71228C6.91868 8.69737 6.86766 8.71228 6.83544 8.71367C6.83007 8.7265 6.82437 8.73933 6.81899 8.75182C6.78442 8.68732 6.76227 8.60791 6.71159 8.56283C6.6599 8.51705 6.58136 8.49 6.51222 8.48411C6.45113 8.47856 6.38669 8.51324 6.35011 8.52329C6.32829 8.48133 6.32091 8.44354 6.29909 8.42966C6.18833 8.35927 6.09401 8.28263 6.06985 8.13699C6.04736 8.00279 5.97755 7.89737 5.8641 7.81865C5.82852 7.79403 5.80939 7.72919 5.80301 7.67995C5.79764 7.63799 5.82147 7.59187 5.83356 7.54297C5.90505 7.54852 5.97755 7.55372 6.05005 7.55927C6.0534 7.55233 6.05642 7.5454 6.05978 7.53846C6.03427 7.51072 6.00876 7.48333 5.97016 7.44137C6.04467 7.3356 6.12288 7.22741 6.19773 7.11679C6.24371 7.04848 6.27627 6.96906 6.32896 6.90769C6.41086 6.81232 6.4998 6.72216 6.59546 6.64206C6.65151 6.59524 6.70756 6.64137 6.74851 6.68922C6.82638 6.78007 6.91868 6.77626 6.98849 6.67119C7.01467 6.69407 7.04052 6.71627 7.06032 6.73361C7.08247 6.70517 7.10462 6.67708 7.12678 6.64899C7.1345 6.63928 7.14624 6.63131 7.14926 6.62056C7.19424 6.46382 7.25532 6.44579 7.40032 6.55294C7.41542 6.45099 7.47081 6.3851 7.56747 6.34938C7.58123 6.374 7.59399 6.39654 7.60808 6.42221C7.61882 6.41631 7.63091 6.41388 7.63225 6.40868C7.64601 6.35736 7.72186 6.33898 7.7034 6.26824C7.70273 6.26546 7.75375 6.23911 7.78027 6.2398C7.9115 6.24431 8.02427 6.18709 8.14108 6.1382C8.18672 6.11913 8.2458 6.13265 8.29883 6.13265C8.36226 6.13265 8.42637 6.12953 8.48913 6.13577C8.52337 6.13924 8.55593 6.15866 8.58379 6.16906C8.62406 6.12051 8.66501 6.07093 8.7063 6.02168C8.71435 6.02689 8.7224 6.03209 8.73046 6.03729C8.73214 6.0581 8.72845 6.08202 8.73684 6.09936C8.74758 6.12225 8.77141 6.1597 8.78383 6.15727C8.87881 6.13924 8.97111 6.10248 9.06643 6.09173C9.17384 6.0796 9.22251 5.98666 9.30239 5.93881C9.34804 5.91176 9.40073 5.89234 9.45242 5.88332C9.48095 5.87812 9.51418 5.90135 9.57023 5.91973C9.67562 5.74323 9.85519 5.75883 10.0478 5.80946C10.0452 5.83027 10.0425 5.85107 10.0378 5.89095C10.0683 5.86911 10.0878 5.86113 10.0992 5.84622C10.1445 5.78623 10.1844 5.73248 10.2768 5.75918C10.3147 5.77028 10.3677 5.7356 10.411 5.71583C10.506 5.67214 10.6003 5.64232 10.7067 5.66832C10.7393 5.6763 10.7792 5.66451 10.8128 5.65272C10.8809 5.62879 10.9467 5.67526 11.0001 5.66902C11.1065 5.65619 11.2081 5.65168 11.3139 5.66451C11.3337 5.66694 11.3582 5.62428 11.3736 5.60972C11.4344 5.65549 11.4857 5.69399 11.5492 5.74149C11.6274 5.73248 11.7247 5.66555 11.8274 5.74427C11.7838 5.83269 11.8388 5.85836 11.9123 5.8594C11.9808 5.86009 12.0476 5.89165 12.1164 5.82541C12.2097 5.7356 12.2751 5.77201 12.2939 5.9024C12.3433 5.92043 12.3899 5.93881 12.4373 5.95441C12.4628 5.96273 12.4903 5.97383 12.5155 5.97106C12.6182 5.96065 12.6511 5.9929 12.6772 6.10422C12.684 6.133 12.7393 6.16455 12.7749 6.16802C12.9098 6.1812 13.0347 6.21588 13.1508 6.29876C13.1247 6.3421 13.1025 6.37817 13.0676 6.43573C13.1283 6.44856 13.1864 6.44925 13.2321 6.47457C13.2754 6.4985 13.3391 6.55571 13.3334 6.58484C13.3237 6.63339 13.3294 6.66287 13.366 6.66772C13.3922 6.67119 13.4224 6.63824 13.4613 6.6157C13.5318 6.65628 13.5633 6.7291 13.5489 6.82793C13.5791 6.84319 13.608 6.85775 13.6362 6.87162C13.617 6.99507 13.6295 7.00894 13.7301 6.97981C13.7795 7.03495 13.8332 7.0776 13.9013 7.1154C13.9678 7.15251 14.097 7.14453 14.1051 7.277C14.1057 7.29052 14.1685 7.27561 14.1745 7.33387C14.1786 7.37201 14.2219 7.40426 14.2423 7.44206C14.3064 7.561 14.3605 7.68619 14.5008 7.73682C14.5286 7.74687 14.5437 7.79438 14.5491 7.83599C14.6105 7.86027 14.6756 7.87795 14.7327 7.9102C14.7992 7.94765 14.8643 7.99239 14.919 8.04579C14.9395 8.0659 14.9428 8.12555 14.9301 8.15641C14.8988 8.2327 14.8535 8.30309 14.8065 8.38909C14.8552 8.44458 14.9106 8.4952 14.9492 8.55693C14.969 8.58883 14.9596 8.64016 14.9629 8.67622C15.0042 8.71402 15.0479 8.75459 15.1032 8.80522C15.1858 8.78233 15.2059 8.83886 15.2197 8.93179C15.2288 8.99213 15.2382 9.06426 15.3248 9.10136C15.3634 9.11801 15.361 9.23695 15.3771 9.30942C15.3681 9.31393 15.3593 9.31809 15.3506 9.3226C15.4161 9.35693 15.4862 9.38398 15.5443 9.42837C15.5718 9.44917 15.5919 9.50535 15.5869 9.54107C15.5778 9.6021 15.5634 9.65099 15.5919 9.71792C15.6161 9.77444 15.6238 9.85698 15.5611 9.9187C15.5292 9.95026 15.5127 9.99846 15.5131 10.0238C15.5832 10.0994 15.6534 10.175 15.7235 10.2506C15.7141 10.2551 15.7047 10.2599 15.6953 10.2644C15.6816 10.304 15.6738 10.3473 15.653 10.382C15.6044 10.4624 15.549 10.5384 15.4969 10.6164C15.4829 10.6376 15.4704 10.6598 15.4573 10.6813C15.4802 10.6941 15.5023 10.7156 15.5258 10.7173C15.5698 10.7201 15.6148 10.7114 15.6601 10.7073C15.7144 10.83 15.7077 10.8442 15.6131 10.9406C15.5762 10.9784 15.5557 11.0336 15.5228 11.0891C15.5611 11.0953 15.5869 11.0995 15.6087 11.1033C15.6201 11.1581 15.6359 11.2108 15.6399 11.2645C15.6416 11.2888 15.6201 11.3151 15.6138 11.3304C15.655 11.3942 15.6883 11.466 15.7393 11.5194C15.7829 11.5648 15.8437 11.5988 15.9031 11.6203C15.9608 11.6411 15.995 11.6689 16.0101 11.7309C16.0148 11.7503 16.0481 11.7767 16.0659 11.775C16.0867 11.7729 16.1048 11.7434 16.1313 11.7195C16.1269 11.7178 16.1414 11.7219 16.1414 11.724C16.1233 11.8506 16.2263 11.887 16.2951 11.9504C16.3146 11.9685 16.3303 12.0035 16.3293 12.0298C16.3263 12.1325 16.3941 12.2691 16.4807 12.2826C16.5495 12.2937 16.578 12.3506 16.626 12.3818C16.674 12.4134 16.6982 12.4824 16.7351 12.533C16.7465 12.5486 16.7677 12.5698 16.7811 12.5677C16.8788 12.5521 16.862 12.6162 16.859 12.6468C16.9234 12.6943 16.9778 12.7341 17.0375 12.7782C17.109 12.73 17.1624 12.7511 17.2134 12.8728C17.1943 12.885 17.1715 12.8992 17.1617 12.9051C17.2362 13.0039 17.3024 13.092 17.353 13.1589C17.4148 13.1877 17.4655 13.2005 17.5027 13.2311C17.586 13.299 17.6551 13.3875 17.7441 13.4447C17.7954 13.4776 17.8622 13.4891 17.8615 13.5626C17.8605 13.6541 17.9109 13.6933 17.979 13.7283C17.9968 13.7373 18.0008 13.7713 18.0183 13.7845C18.0545 13.8119 18.1015 13.8587 18.1331 13.8507C18.2093 13.8313 18.2378 13.8705 18.2519 13.927C18.2814 14.0474 18.3012 14.1705 18.3291 14.2915C18.3348 14.3168 18.322 14.3751 18.3875 14.347C18.4026 14.3404 18.4314 14.3678 18.4529 14.3792C18.4932 14.3456 18.5335 14.3123 18.5936 14.2624C18.614 14.3393 18.6291 14.4084 18.651 14.4749C18.6704 14.5339 18.6973 14.5904 18.7312 14.6733C18.802 14.7031 18.8178 14.7603 18.7594 14.882C18.7347 14.9334 18.7502 14.9691 18.8057 14.9892C18.7798 15.0038 18.759 15.0152 18.7409 15.0253C18.806 15.1407 18.8624 15.2409 18.9252 15.3519C18.8846 15.3589 18.8594 15.363 18.8188 15.3699C18.8258 15.4102 18.8255 15.4539 18.8409 15.4903C18.8896 15.6075 18.9983 15.6283 19.1027 15.6543C19.1406 15.6637 19.1836 15.6678 19.2131 15.6904C19.2423 15.7126 19.2709 15.7528 19.2759 15.7885C19.2897 15.8905 19.2705 16.0018 19.3028 16.095C19.3397 16.2008 19.3286 16.2774 19.2779 16.3711C19.2598 16.4044 19.2507 16.4966 19.3333 16.524C19.3514 16.5302 19.3659 16.5493 19.3753 16.5569C19.3303 16.6485 19.2887 16.7335 19.2427 16.8274C19.2504 16.8361 19.2712 16.8597 19.2903 16.8812C19.2585 16.9179 19.2276 16.9467 19.2051 16.9817C19.1947 16.998 19.193 17.04 19.2021 17.0459C19.2729 17.092 19.2531 17.1499 19.2259 17.2071C19.2051 17.2505 19.2095 17.2727 19.2491 17.3077C19.3175 17.3677 19.3034 17.4235 19.2538 17.5029C19.2098 17.573 19.1819 17.6562 19.1608 17.7377C19.1537 17.7651 19.1836 17.8095 19.2064 17.8376C19.2762 17.9229 19.2658 17.9898 19.1923 18.0644C19.1014 18.1566 18.9752 18.2416 19.0306 18.407C19.0692 18.5221 18.9997 18.6286 19.0161 18.7433C19.0208 18.777 18.9601 18.821 18.9359 18.8609C18.9235 18.8848 18.907 18.9074 18.9003 18.933C18.8953 18.9524 18.8953 18.9868 18.9064 18.9941C18.9262 19.0076 18.9557 19.0062 18.9842 19.0117C18.9618 19.0273 18.9268 19.0398 18.9104 19.0648C18.8698 19.1272 18.8127 19.1941 18.8084 19.2621C18.802 19.3634 18.7758 19.4497 18.7335 19.5374C18.7238 19.5579 18.7516 19.5978 18.7691 19.6495C18.7369 19.6533 18.7067 19.6567 18.6684 19.6609C18.6677 19.656 18.6694 19.6713 18.6724 19.6862C18.6765 19.7063 18.6922 19.7348 18.6849 19.7448C18.6231 19.8273 18.6409 19.9387 18.5939 20.0198C18.5644 20.0704 18.4872 20.0909 18.4325 20.127C18.4184 20.1363 18.4039 20.1519 18.3992 20.1675C18.372 20.257 18.2015 20.3763 18.0931 20.3641C18.0861 20.4661 18.0787 20.568 18.072 20.67C18.0713 20.6794 18.0757 20.6939 18.0713 20.6977C17.9941 20.7595 18.0109 20.842 18.0455 20.9294C18.0364 20.9297 18.0273 20.9304 18.0179 20.9308C17.9948 20.9152 17.972 20.8992 17.9592 20.8905C17.8629 20.9648 17.7783 21.0462 17.6803 21.1017C17.5712 21.1638 17.4782 21.2914 17.4813 21.4072C17.3963 21.4565 17.3087 21.4925 17.2396 21.5518C17.1903 21.5941 17.1684 21.6694 17.1298 21.7266C17.108 21.7592 17.0775 21.7859 17.0382 21.8289C17.014 21.8227 16.9714 21.8119 16.9288 21.8008L16.9362 21.8171C16.8952 21.8331 16.8533 21.8476 16.813 21.8657C16.767 21.8865 16.7002 21.8945 16.7371 21.977C16.7405 21.9843 16.7422 21.9995 16.7398 22.0006C16.6542 22.0422 16.6596 22.1802 16.5388 22.192C16.4878 22.1972 16.4421 22.271 16.3918 22.2738C16.3079 22.2783 16.2595 22.347 16.185 22.3681C16.1414 22.3806 16.1182 22.4649 16.0826 22.5145C16.0534 22.5557 16.0182 22.5925 15.9883 22.6334C15.9729 22.6546 15.9605 22.6788 15.9511 22.7035C15.94 22.7322 15.9336 22.7631 15.9272 22.7853C15.8692 22.7739 15.8229 22.7648 15.7634 22.7531C15.746 22.7222 15.7191 22.684 15.6732 22.7555C15.6591 22.7773 15.6339 22.8006 15.6104 22.8054C15.5238 22.8231 15.5063 22.888 15.5023 22.9694C15.4634 22.9594 15.4302 22.9507 15.3842 22.9386C15.3902 22.9927 15.3952 23.0364 15.3993 23.069C15.3268 23.1234 15.2643 23.174 15.1976 23.2184C15.1761 23.2326 15.1395 23.242 15.117 23.2333C14.9985 23.1876 14.9542 23.1973 14.8727 23.301C14.8461 23.2919 14.8183 23.2826 14.7908 23.2736C14.7763 23.32 14.7619 23.3655 14.7465 23.4154C14.7001 23.4005 14.6642 23.389 14.6286 23.3776C14.585 23.4788 14.3944 23.5853 14.288 23.5763C14.2675 23.5746 14.236 23.5985 14.2249 23.6193C14.2037 23.6588 14.1937 23.7049 14.1698 23.775C14.1426 23.7247 14.1245 23.6671 14.1091 23.6678C14.0681 23.6699 14.0285 23.697 13.9872 23.7147C13.9678 23.6262 13.9547 23.6228 13.859 23.6776C13.8191 23.6248 13.8221 23.508 13.715 23.5544C13.6929 23.5642 13.6962 23.637 13.6879 23.6807C13.6962 23.689 13.7043 23.6973 13.7127 23.7056C13.658 23.7091 13.5945 23.7327 13.5499 23.7122C13.4405 23.6623 13.3918 23.7632 13.315 23.7916C13.2253 23.8246 13.1357 23.8586 13.0434 23.8825C13.0092 23.8915 12.9682 23.8731 12.9481 23.87C12.9018 23.8097 12.8615 23.7573 12.8212 23.7049C12.8132 23.7074 12.8048 23.7098 12.7967 23.7122C12.7789 23.8055 12.7158 23.8201 12.6454 23.8097C12.6155 23.8052 12.5883 23.7812 12.5366 23.7531C12.5114 23.7733 12.4634 23.8117 12.4389 23.8312C12.3101 23.8163 12.2047 23.8038 12.0942 23.7909C12.0248 23.9286 12.0164 23.9297 11.8291 23.8104C11.8177 23.8339 11.8066 23.8568 11.8066 23.8572C11.7133 23.8783 11.6381 23.8957 11.5539 23.9147C11.5512 23.9272 11.5455 23.9532 11.5377 23.9876C11.4978 23.9328 11.472 23.8808 11.4314 23.8475C11.4062 23.827 11.333 23.8208 11.326 23.8336C11.286 23.9092 11.2155 23.9026 11.1531 23.9186C11.1269 23.9251 11.1018 23.9345 11.0766 23.9421C11.0521 23.9147 11.0279 23.8877 11.0034 23.86C10.9202 24.0354 10.9349 24.0243 10.7587 23.9446C10.7466 23.939 10.7282 23.929 10.7215 23.9338C10.6463 23.9879 10.6181 23.9473 10.5943 23.8759C10.5845 23.8468 10.5543 23.8246 10.5328 23.827C10.4694 23.8329 10.406 23.8381 10.3429 23.8461C10.3261 23.8482 10.311 23.8606 10.2945 23.8669C10.2103 23.8988 10.1257 23.93 10.0415 23.9616C9.90923 23.8527 9.74644 23.9411 9.60446 23.8905C9.56251 23.8756 9.51116 23.8846 9.47222 23.8652C9.43329 23.8457 9.39704 23.8097 9.37287 23.7722C9.34166 23.724 9.32387 23.6668 9.3091 23.6342C9.13021 23.7115 8.97917 23.7837 8.82242 23.8395C8.78987 23.8509 8.72509 23.8128 8.69622 23.7785C8.62406 23.6918 8.5415 23.6727 8.4408 23.7015C8.42201 23.7067 8.39717 23.715 8.3824 23.7074C8.28742 23.6581 8.19344 23.6068 8.10181 23.5513C8.07798 23.5368 8.06388 23.5052 8.04441 23.4806C7.99575 23.5669 7.89472 23.585 7.80107 23.5264C7.76751 23.5055 7.73529 23.4823 7.70206 23.4612C7.69031 23.4535 7.67152 23.4404 7.6648 23.4445C7.57586 23.499 7.4604 23.5139 7.39999 23.6404C7.36374 23.6096 7.31675 23.5867 7.29728 23.5489C7.25465 23.4678 7.21203 23.4622 7.15866 23.5246C6.98581 23.4119 6.81732 23.3013 6.64782 23.1931C6.63003 23.1817 6.60284 23.1765 6.58203 23.1806C6.52598 23.191 6.47094 23.208 6.41556 23.2222C6.38434 23.2746 6.34843 23.3349 6.31251 23.3949C6.30211 23.3911 6.29204 23.3873 6.28164 23.3835C6.28365 23.3561 6.286 23.329 6.28969 23.2767C6.25646 23.2815 6.2229 23.2919 6.19001 23.2895C6.16383 23.2874 6.13697 23.2729 6.11348 23.2583C6.08529 23.241 6.06011 23.2177 6.03393 23.1969C6.02957 23.2032 6.02521 23.2094 6.02084 23.2156C6.00809 23.1824 5.99567 23.1494 5.97889 23.1054C5.89095 23.1803 5.82651 23.1314 5.74696 23.0936C5.64761 23.0468 5.53987 22.9916 5.41971 23.0305C5.39588 23.0381 5.35594 23.044 5.34386 23.0305C5.28143 22.9615 5.19383 22.9382 5.12234 22.8897C5.03138 22.828 4.95183 22.7544 4.83637 22.7496C4.82395 22.7489 4.80684 22.7368 4.80113 22.7253C4.734 22.5876 4.5984 22.5322 4.48865 22.4462C4.45878 22.4226 4.42589 22.4035 4.38997 22.3796C4.23122 22.4261 4.15972 22.3935 4.16812 22.2534C4.09931 22.2894 4.03889 22.321 3.98318 22.3505C3.87846 22.2645 3.7677 22.1729 3.65627 22.0817C3.6519 22.0782 3.64116 22.0803 3.63982 22.0772C3.56866 21.9121 3.38171 22.0058 3.28102 21.9062C3.27565 21.901 3.2582 21.908 3.24645 21.9097C3.14979 21.9257 3.13133 21.9035 3.15583 21.7987C3.16858 21.7436 3.19208 21.6843 3.0981 21.6885C3.09004 21.6888 3.07628 21.6767 3.07393 21.6677C3.04238 21.5428 2.91853 21.488 2.86953 21.3781C2.85778 21.3514 2.85543 21.307 2.86919 21.2838C2.92961 21.1808 2.90645 21.143 2.80374 21.0965C2.75272 21.0736 2.70573 20.987 2.7007 20.9252C2.69499 20.8541 2.6668 20.8417 2.61645 20.8202C2.58188 20.8052 2.53087 20.7615 2.53355 20.7359C2.55067 20.5642 2.43622 20.4973 2.31874 20.438C2.2637 20.4103 2.24994 20.3697 2.2543 20.3208C2.26001 20.2518 2.23953 20.2071 2.17207 20.1897C2.18952 20.1422 2.23987 20.0937 2.15294 20.067C2.13515 20.0614 2.12877 20.0243 2.11132 20.0087C2.06836 19.9692 2.0217 19.9342 1.9774 19.8964C1.96431 19.8853 1.94618 19.8721 1.94383 19.8579C1.92202 19.7181 1.85825 19.604 1.75755 19.509C1.73943 19.4917 1.71996 19.4566 1.725 19.4355C1.74715 19.3398 1.68875 19.2663 1.66895 19.1827C1.65888 19.1407 1.64914 19.097 1.64981 19.0544C1.65082 18.9687 1.60484 18.9074 1.52529 18.899C1.51657 18.898 1.50616 18.8952 1.49978 18.8893C1.36955 18.7718 1.34606 18.571 1.46353 18.416C1.39372 18.2894 1.32391 18.1625 1.25107 18.0297C1.28162 18.0203 1.30612 18.013 1.34908 18.0002C1.28799 17.96 1.24 17.9284 1.18999 17.8955C1.21315 17.8816 1.23798 17.8667 1.24671 17.8615C1.22624 17.8029 1.21248 17.7505 1.18999 17.7027C1.16616 17.6517 1.13226 17.6059 1.10675 17.5553C1.09299 17.5279 1.08795 17.4957 1.07889 17.4658C1.0856 17.461 1.09198 17.4561 1.09869 17.4509C1.05741 17.4208 1.01613 17.3902 0.962424 17.3507C1.1044 17.2609 1.1044 17.1107 1.10306 16.9745C1.10138 16.8153 0.971487 16.7289 0.847636 16.627C0.872473 16.6103 0.89194 16.5975 0.915771 16.5816C0.771781 16.4997 0.842265 16.4377 0.944971 16.3804C0.8812 16.3648 0.825484 16.3763 0.827833 16.2868C0.82884 16.2577 0.747615 16.2088 0.698276 16.1984C0.576103 16.1727 0.572412 16.1145 0.599934 16.0018C0.613024 15.947 0.60866 15.8877 0.61101 15.8305C0.611681 15.8152 0.60094 15.7965 0.606646 15.7847C0.651286 15.6897 0.614366 15.6033 0.594228 15.51C0.574761 15.4192 0.589864 15.3204 0.589864 15.2201C0.550594 15.2142 0.519045 15.2097 0.480446 15.2038C0.49018 15.1088 0.404256 15.0013 0.531127 14.9191C0.491857 14.8543 0.552944 14.7454 0.444533 14.7062C0.435471 14.7028 0.41936 14.7194 0.405934 14.727C0.402914 14.7243 0.394523 14.7208 0.394187 14.7163C0.387138 14.6133 0.344177 14.5464 0.234758 14.5495C0.175014 14.5512 0.176357 14.5207 0.185755 14.4728C0.193475 14.433 0.187433 14.39 0.167294 14.3466C0.15689 14.3601 0.146485 14.3737 0.136416 14.3862C0.104195 14.2894 0.023641 14.1965 0.0951321 14.0859C0.111243 14.0609 0.154205 14.0553 0.183741 14.039C0.205894 14.0269 0.226703 14.0116 0.247849 13.9981C0.242478 13.9891 0.237108 13.9804 0.231738 13.9714C0.205558 13.9804 0.179714 13.9891 0.150177 13.9992C0.103859 13.8833 0.181392 13.7155 0.000817584 13.6423C0.000817584 13.5872 -0.00186794 13.513 0.00249537 13.4388C0.00383793 13.4173 0.0206199 13.3923 0.0370662 13.3767C0.0958031 13.3205 0.160582 13.2706 0.216969 13.212C0.246506 13.1811 0.263623 13.1374 0.286447 13.0989C0.289132 13.0587 0.282419 13.0067 0.297523 12.963C0.338471 12.8455 0.282419 12.7539 0.255904 12.6461C0.218983 12.4949 0.156219 12.5386 0.0723089 12.559C0.0625754 12.5614 0.0340462 12.5309 0.0337106 12.5153C0.032368 12.4387 0.0337102 12.3617 0.0427725 12.2858C0.045122 12.2663 0.0800281 12.2497 0.10218 12.2351C0.134066 12.214 0.167631 12.1959 0.204551 12.1741C0.182734 12.1356 0.15991 12.1082 0.150512 12.0767C0.135073 12.0246 0.0783506 11.9653 0.167966 11.9199C0.180049 11.9137 0.175015 11.8585 0.167966 11.8284C0.160918 11.7979 0.141786 11.7701 0.122655 11.7299C0.158904 11.733 0.184748 11.7354 0.207572 11.7375C0.211264 11.6935 0.21462 11.6553 0.215963 11.637C0.179378 11.6113 0.150178 11.5905 0.0978178 11.5537C0.163603 11.5256 0.199851 11.5076 0.237443 11.4944C0.294502 11.4743 0.392173 11.3491 0.382439 11.2871C0.377069 11.2534 0.33847 11.2257 0.312962 11.1927C0.312962 11.1397 0.303564 11.0748 0.316318 11.0148C0.324038 10.9791 0.366329 10.9517 0.390159 10.924C0.373042 10.8976 0.344177 10.8536 0.328066 10.8286C0.397879 10.6792 0.468027 10.5432 0.524079 10.4018C0.544553 10.3501 0.536833 10.2897 0.453595 10.2724C0.345519 10.2499 0.321017 10.1909 0.352903 10.0806C0.368007 10.0283 0.376398 9.97384 0.394523 9.92286C0.426073 9.8334 0.451917 9.73873 0.499578 9.65862C0.586509 9.51263 0.571069 9.34167 0.625443 9.19013C0.65565 9.10552 0.645581 9.05177 0.57174 8.99906C0.535156 8.97306 0.526093 8.92208 0.597584 8.91168C0.610674 8.90994 0.631149 8.9044 0.633834 8.89573C0.665048 8.80383 0.695255 8.71159 0.720428 8.61796C0.725463 8.59958 0.71103 8.57045 0.697269 8.55312C0.669747 8.51809 0.614031 8.49035 0.610339 8.45498C0.602955 8.38597 0.623428 8.31384 0.631148 8.25247C0.676459 8.24692 0.702975 8.2438 0.729826 8.24033C0.71338 8.22368 0.698276 8.2053 0.680151 8.19109C0.584494 8.11688 0.581473 8.01354 0.588857 7.8998C0.618058 7.90708 0.642896 7.91298 0.683844 7.92303C0.673775 7.84674 0.67646 7.77669 0.6533 7.71774C0.631148 7.66122 0.58181 7.61579 0.533142 7.55025C0.573754 7.55337 0.594564 7.55476 0.610339 7.55615C0.631484 7.27041 0.654643 6.99056 0.833539 6.74158C0.809373 6.73811 0.782857 6.73465 0.756342 6.73083C0.753321 6.7232 0.7503 6.71557 0.747279 6.70795C0.777487 6.69754 0.808366 6.68783 0.838238 6.67639C0.870459 6.66391 0.902009 6.64934 0.93423 6.63547C0.921476 6.60426 0.907044 6.5734 0.896639 6.54149C0.885563 6.50682 0.879186 6.47041 0.870459 6.43504C0.854684 6.44648 0.838573 6.45792 0.822798 6.46937C0.869116 6.42983 0.910064 6.3799 0.962424 6.3532C1.09064 6.28766 1.11514 6.16906 1.11413 6.04457C1.11313 5.90344 1.15911 5.80357 1.28732 5.74774C1.3031 5.7408 1.31518 5.7245 1.32827 5.7134C1.35277 5.72589 1.37493 5.73699 1.38466 5.74184C1.39372 5.68254 1.38936 5.62047 1.41386 5.57504C1.44474 5.51748 1.49878 5.47344 1.54543 5.43079C1.55986 5.40374 1.57597 5.37738 1.58873 5.34964C1.629 5.26191 1.73507 5.204 1.69848 5.07916C1.69244 5.05905 1.72332 5.01639 1.74748 4.9994C1.90524 4.88636 1.96867 4.72545 1.9774 4.53508C1.97908 4.49797 1.99519 4.49381 2.02942 4.4841C2.05929 4.47578 2.07708 4.42238 2.09957 4.38874C2.12105 4.35614 2.1385 4.32008 2.16368 4.2913C2.20395 4.24517 2.22711 4.20148 2.18314 4.14392C2.12172 4.06347 2.12743 4.04613 2.2251 4.00937C2.28417 3.98718 2.34358 3.96672 2.42212 3.93863C2.3946 3.90915 2.37245 3.88557 2.34526 3.85644C2.38117 3.76524 2.45602 3.71184 2.58457 3.72536C2.56141 3.70282 2.55 3.69138 2.51677 3.65913C2.55772 3.62619 2.59464 3.58839 2.63827 3.56238C2.7299 3.5069 2.74031 3.41708 2.74635 3.32242C2.75105 3.25098 2.74937 3.17677 2.76884 3.1095C2.77857 3.07552 2.82522 3.0398 2.86181 3.02939C2.93632 3.00824 2.97928 2.96628 3.00378 2.89207C3.01654 2.85289 3.04372 2.81856 3.06252 2.78457C3.12797 2.77972 3.18637 2.85254 3.24679 2.79394C3.26424 2.77694 3.28136 2.73949 3.27498 2.72007C3.22967 2.5831 3.25518 2.54565 3.43206 2.53004C3.43676 2.50542 3.44146 2.47907 3.44615 2.45375H3.50758C3.50556 2.42705 3.50925 2.39827 3.49952 2.37469C3.48979 2.35076 3.4673 2.33204 3.43642 2.29424C3.51899 2.24985 3.59014 2.21136 3.6717 2.16732C3.68077 2.08964 3.77475 1.99428 3.8694 2.00781C4.04729 2.03277 4.14227 1.93117 4.22417 1.79246C4.248 1.75224 4.28861 1.72068 4.32587 1.6912C4.33761 1.68184 4.37722 1.68462 4.38158 1.69363C4.42756 1.78761 4.46818 1.72866 4.5051 1.68912C4.55611 1.63468 4.60176 1.57434 4.65278 1.51955C4.67157 1.49979 4.69842 1.48002 4.7236 1.47621C4.83402 1.45991 4.94512 1.4495 5.06427 1.43598C5.06327 1.36212 5.11831 1.33472 5.19181 1.30143C5.40797 1.20434 5.63284 1.14955 5.86376 1.11314C5.95271 1.09892 6.04937 1.10204 6.12858 1.06528C6.19471 1.03442 6.24304 0.95917 6.29506 0.900218C6.33433 0.855485 6.36353 0.810058 6.43569 0.853404C6.4565 0.865888 6.50786 0.833985 6.54008 0.813872C6.60586 0.7733 6.66326 0.707414 6.73307 0.688688C6.81228 0.667535 6.91566 0.729954 6.95896 0.604423C7.09288 0.601648 7.15732 0.489641 7.24492 0.412311C7.30701 0.357521 7.36374 0.369658 7.4161 0.437279C7.43389 0.460166 7.45604 0.479585 7.4604 0.484093C7.499 0.445601 7.51847 0.412658 7.54666 0.400521C7.61077 0.372779 7.6836 0.372086 7.72153 0.28782C7.73328 0.261812 7.80879 0.266667 7.85645 0.256957C7.87626 0.21153 7.89774 0.162983 7.91217 0.130039C7.98937 0.158821 8.05717 0.185523 8.12597 0.20841C8.1451 0.214652 8.17196 0.216385 8.18907 0.207369C8.28842 0.1557 8.38576 0.100217 8.48376 0.0457738C8.55895 0.123104 8.62507 0.110273 8.68851 0C8.78081 0.102991 8.93688 0.0846121 9.02683 0.199047C9.03791 0.213264 9.10705 0.194539 9.13826 0.173386C9.19633 0.133854 9.24399 0.0780234 9.30037 0.0353706C9.3477 -0.000346887 9.44839 0.0475077 9.47659 0.100217C9.49001 0.125531 9.52928 0.141136 9.56016 0.150845C9.64004 0.17616 9.7216 0.196619 9.80283 0.217426C9.8619 0.232337 9.92231 0.25245 9.95051 0.164716C9.95521 0.149805 9.98508 0.137668 10.0049 0.134894C10.0492 0.128652 10.0945 0.128652 10.1442 0.125878C10.1475 0.153966 10.1516 0.187257 10.1583 0.244127C10.2153 0.184482 10.261 0.136628 10.307 0.0894671C10.3496 0.0454271 10.4016 0.00589507 10.4533 0.0617253C10.5342 0.148765 10.6419 0.124491 10.7289 0.119983C10.8309 0.114435 10.9282 0.104725 11.0289 0.13212C11.0947 0.150152 11.1605 0.161249 11.2246 0.105419C11.2545 0.0794107 11.3102 0.0825317 11.3548 0.0783704C11.4421 0.0700479 11.5294 0.0617253 11.6166 0.060685C11.6589 0.0603382 11.7012 0.0797573 11.7442 0.0839186C11.7777 0.0870396 11.8193 0.0925879 11.8445 0.0762896C11.9053 0.0371044 11.9556 0.0419594 12.0224 0.0672737C12.155 0.116862 12.2926 0.155007 12.4309 0.183442C12.4725 0.192111 12.5292 0.161249 12.5682 0.132813C12.6041 0.106459 12.636 0.0839185 12.6749 0.105765C12.697 0.117902 12.7091 0.149112 12.732 0.180321C12.7487 0.175466 12.7789 0.166797 12.8091 0.158128C12.8662 0.25557 12.9286 0.28574 13.0354 0.265974C13.0619 0.261119 13.0881 0.250369 13.1146 0.249675C13.2018 0.246554 13.2294 0.280885 13.2337 0.377287C13.2908 0.365844 13.3482 0.351279 13.4066 0.343304C13.5429 0.324578 13.6687 0.347118 13.7768 0.444561C13.7906 0.457045 13.8228 0.452537 13.8453 0.449069C13.9282 0.436585 14.0094 0.408843 14.0742 0.501778C14.0946 0.530907 14.1494 0.533681 14.1869 0.551367C14.2319 0.57252 14.2494 0.601301 14.2108 0.648462C14.1984 0.66372 14.1987 0.690768 14.1886 0.731341C14.2306 0.70776 14.2534 0.694583 14.2762 0.681752C14.3413 0.646035 14.3883 0.66268 14.4279 0.727873C14.4669 0.792373 14.5139 0.851324 14.5562 0.910968C14.5901 0.892243 14.6102 0.880799 14.638 0.865194C14.6964 0.951194 14.7505 1.03546 14.8099 1.11522C14.8284 1.14018 14.8616 1.15336 14.8881 1.17174C14.8948 1.15544 14.9015 1.1388 14.9096 1.11868C14.925 1.13602 14.9401 1.15336 14.9572 1.17278C14.9787 1.14608 14.9972 1.12319 15.0227 1.09129C15.0425 1.26537 15.1976 1.23936 15.2889 1.30351C15.3248 1.32883 15.3657 1.34617 15.402 1.37079C15.4402 1.3968 15.4701 1.43147 15.5245 1.39367C15.5611 1.36836 15.6534 1.45713 15.6651 1.54417C15.75 1.531 15.8349 1.51192 15.9209 1.50707C15.9611 1.50499 16.0044 1.52649 16.043 1.54487C16.0726 1.55908 16.0971 1.58475 16.1256 1.60694C16.0877 1.64404 16.0642 1.66658 16.0299 1.69987C16.0605 1.72207 16.0843 1.75432 16.1098 1.75605C16.2484 1.76576 16.3515 1.85211 16.4612 1.92285C16.4794 1.93464 16.4941 1.97798 16.4878 1.99914C16.4626 2.08028 16.4653 2.13819 16.5297 2.21032C16.6425 2.33585 16.7808 2.42116 16.9123 2.51825C16.9261 2.52831 16.9479 2.53629 16.963 2.53247C17.0144 2.51929 17.0318 2.54912 17.0486 2.59004C17.1218 2.76932 17.2517 2.89727 17.4004 3.01032C17.4645 3.05887 17.5198 3.11921 17.5856 3.18024C17.6672 3.15319 17.7494 3.22879 17.7279 3.33386C17.6951 3.49511 17.7293 3.56724 17.8723 3.63902C18.0119 3.70907 18.0109 3.70872 17.9673 3.85957C17.9495 3.92164 17.9626 3.97365 18.0314 3.99064C18.1901 4.02948 18.2734 4.18033 18.4059 4.25766C18.415 4.26286 18.4194 4.28436 18.419 4.29823C18.4173 4.35337 18.4462 4.3655 18.4932 4.36897C18.5852 4.37626 18.6019 4.41752 18.5499 4.5004C18.507 4.56871 18.4992 4.61275 18.5842 4.66789C18.6697 4.72337 18.7349 4.81423 18.8033 4.89468C18.904 5.01327 19.0017 5.1343 19.097 5.25775C19.1339 5.3056 19.1591 5.36317 19.1917 5.41483C19.2272 5.47136 19.2474 5.5362 19.3236 5.56499C19.3568 5.57747 19.3679 5.65307 19.3863 5.69503C19.3407 5.72103 19.3101 5.73837 19.2877 5.7512C19.3239 5.79247 19.3508 5.82229 19.3769 5.85281C19.4249 5.90794 19.4696 5.96655 19.5226 6.01579C19.5384 6.03035 19.5773 6.01787 19.6092 6.01787V6.13473C19.629 6.13092 19.6538 6.12086 19.6579 6.12676C19.6914 6.17288 19.7391 6.219 19.7471 6.27101C19.7582 6.34349 19.7535 6.40903 19.8005 6.47942C19.8361 6.53317 19.8166 6.62576 19.8223 6.70136C19.8254 6.7395 19.8186 6.78354 19.8348 6.81475C19.8968 6.93404 19.8999 6.93231 19.8656 7.04639C19.9029 7.07171 19.9408 7.09737 19.9868 7.12858C19.9116 7.20175 19.9422 7.27561 19.9818 7.35155C20.018 7.42125 20.0002 7.449 19.9284 7.48783C19.8901 7.50864 19.8646 7.55268 19.8304 7.5825C19.8149 7.59568 19.7921 7.60747 19.773 7.60678C19.7347 7.60539 19.6951 7.58562 19.6589 7.59152C19.628 7.59637 19.5964 7.62238 19.574 7.647C19.5548 7.66815 19.5384 7.70075 19.5377 7.72884C19.536 7.78814 19.3991 7.78675 19.4813 7.88905C19.5132 7.92893 19.4947 8.01181 19.5649 8.04198C19.5736 8.04579 19.5803 8.06972 19.578 8.08255C19.5689 8.1356 19.4129 8.22472 19.3635 8.20738C19.3316 8.19629 19.3001 8.18311 19.2672 8.17583C19.233 8.1682 19.1974 8.16612 19.1594 8.16092C19.1524 8.21224 19.1457 8.2594 19.139 8.30864C19.0645 8.28749 19.001 8.26911 18.9188 8.24553C18.9161 8.24726 18.8936 8.26079 18.8735 8.27327C18.8634 8.26842 18.856 8.26738 18.8533 8.26287C18.799 8.17167 18.711 8.13283 18.6184 8.10162C18.605 8.09711 18.5909 8.09122 18.5798 8.08185C18.5264 8.03677 18.4888 8.05168 18.459 8.11098C18.3969 8.23374 18.2891 8.26148 18.1673 8.25489C18.081 8.25038 17.9941 8.23339 17.9085 8.23894C17.8484 8.24275 17.79 8.2757 17.7377 8.29304C17.7286 8.26044 17.7202 8.23062 17.7071 8.1845C17.6907 8.21883 17.6833 8.23443 17.6789 8.2438C17.6155 8.21432 17.5544 8.18589 17.4947 8.15814C17.4886 8.04648 17.4766 7.93031 17.4786 7.81449C17.4796 7.75173 17.5047 7.68931 17.5195 7.62515C17.4695 7.61857 17.4319 7.61337 17.394 7.60816C17.4014 7.60053 17.4088 7.59325 17.4161 7.58562C17.4034 7.57141 17.3923 7.55511 17.3775 7.54332C17.3537 7.52459 17.3279 7.50899 17.2977 7.48887C17.3255 7.46287 17.346 7.4431 17.3712 7.41952C17.2987 7.41467 17.2352 7.4105 17.1402 7.40426C17.2013 7.32901 17.2466 7.27318 17.2983 7.20972C17.2856 7.16638 17.197 7.13621 17.2325 7.04639C17.2369 7.03495 17.1805 6.99785 17.1443 6.96525C17.1634 6.93231 17.1879 6.88965 17.2211 6.83209C17.1862 6.84561 17.1661 6.85359 17.1302 6.86746C17.1339 6.78042 17.1906 6.68541 17.063 6.62368C17.1335 6.5897 17.1798 6.5675 17.2369 6.53976C17.2245 6.42949 17.0976 6.31332 17.2379 6.18571C17.2285 6.18397 17.2188 6.18189 17.2094 6.18016C17.1845 6.19993 17.1597 6.21969 17.1194 6.25125C17.0862 6.2138 17.0439 6.18016 17.0191 6.13577C16.9788 6.0633 17.0063 5.98215 17.0721 5.9284C17.0976 5.9076 17.1305 5.88332 17.0825 5.84448C17.0597 5.82576 17.0536 5.78657 17.0332 5.76299C17.0191 5.7467 16.9922 5.73074 16.9731 5.73317C16.8935 5.74288 16.862 5.71236 16.8502 5.62879C16.8378 5.53794 16.813 5.4457 16.7757 5.36282C16.7435 5.29138 16.7717 5.20157 16.6972 5.1395C16.6744 5.12043 16.6999 5.04067 16.7006 4.989C16.7019 4.90127 16.7009 4.81319 16.7009 4.73898C16.6385 4.58605 16.578 4.43729 16.5253 4.30863C16.4716 4.24864 16.4287 4.19836 16.3834 4.15085C16.3179 4.08219 16.281 3.98752 16.1729 3.95805C16.1118 3.9414 16.0645 3.87274 16.0101 3.82905C15.9638 3.7916 15.9168 3.72745 15.8685 3.72571C15.7655 3.72224 15.7537 3.64041 15.7279 3.58076C15.6722 3.45246 15.6722 3.44656 15.555 3.50933C15.5402 3.49268 15.5245 3.47534 15.5087 3.45731C15.4899 3.46875 15.4724 3.47916 15.4553 3.48956C15.4456 3.4802 15.4325 3.47292 15.4335 3.46771C15.455 3.33351 15.3241 3.29953 15.2667 3.22532C15.2029 3.14244 15.0774 3.10985 14.9784 3.0561C14.9626 3.04743 14.9401 3.04673 14.929 3.03425C14.8623 2.959 14.7847 2.93715 14.6954 2.9857C14.6468 2.83347 14.6213 2.81474 14.4655 2.80157C14.443 2.79983 14.4175 2.79359 14.4001 2.78041C14.3259 2.72354 14.2537 2.66355 14.1658 2.69476C14.1437 2.6476 14.1346 2.60321 14.1084 2.5772C14.0315 2.50091 13.9899 2.5075 13.9376 2.60183C13.9117 2.64795 13.8865 2.66043 13.8463 2.62679C13.7979 2.58622 13.7513 2.54357 13.6959 2.49467C13.6818 2.51513 13.6627 2.54253 13.6529 2.55675C13.5794 2.57547 13.5875 2.38197 13.4942 2.51409C13.4499 2.46034 13.411 2.40174 13.3613 2.35562C13.3227 2.3199 13.2448 2.37122 13.2116 2.44959C13.1106 2.34903 12.9833 2.35215 12.8373 2.33238C12.7739 2.25748 12.6762 2.30603 12.5829 2.32302C12.393 2.35805 12.3856 2.29077 12.3624 2.13126L12.3584 2.13264ZM13.3274 12.2965C13.2774 12.2851 13.2133 12.2889 13.1753 12.258C13.0938 12.1918 13.0558 12.2448 13.0451 12.3076C13.0276 12.4103 12.9676 12.3888 12.9159 12.3638C12.8729 12.343 12.8407 12.2979 12.8045 12.2629C12.7793 12.2386 12.7598 12.2001 12.7306 12.1897C12.6541 12.1634 12.5735 12.1505 12.4953 12.1287C12.4695 12.1214 12.4312 12.1103 12.4238 12.0909C12.403 12.0354 12.3819 12.0611 12.3487 12.0749C12.2778 12.1044 12.2037 12.1252 12.1305 12.1484C12.1224 12.1509 12.1083 12.1509 12.104 12.1457C12.0342 12.0617 11.9385 12.1093 11.8566 12.0905C11.713 12.0576 11.5357 12.1245 11.4371 11.9473C11.4324 11.939 11.4075 11.9373 11.3938 11.9404C11.2357 11.9751 11.0665 11.9595 10.9215 12.0555C10.8963 12.0722 10.8527 12.0815 10.8269 12.0708C10.7097 12.0222 10.6057 12.0337 10.4986 12.1054C10.4362 12.1474 10.3771 12.1401 10.3013 12.0829C10.2083 12.0129 10.0948 11.9359 9.95655 11.9948C9.89815 12.0198 9.82901 12.017 9.76792 12.0368C9.7263 12.0503 9.66052 12.077 9.65682 12.1054C9.64474 12.197 9.59876 12.1762 9.54204 12.1585C9.54673 12.2452 9.53969 12.3215 9.42423 12.2653C9.41953 12.2632 9.4051 12.2917 9.39167 12.2972C9.37724 12.3031 9.35911 12.2986 9.33897 12.2986C9.34065 12.3191 9.34367 12.3371 9.34367 12.3555C9.34367 12.3773 9.34099 12.3992 9.33931 12.4214C9.31783 12.4158 9.29031 12.4172 9.27621 12.4033C9.24802 12.3763 9.23123 12.336 9.20203 12.3107C9.17753 12.2896 9.14229 12.2816 9.11175 12.2677C9.10604 12.2944 9.09396 12.3218 9.09597 12.3478C9.1 12.4096 9.04395 12.4824 8.98152 12.489C8.95735 12.4914 8.92983 12.4869 8.91003 12.4976C8.80732 12.5542 8.70663 12.6148 8.59083 12.6825C8.59386 12.7064 8.58681 12.7664 8.60997 12.8083C8.68179 12.9394 8.60191 13.0098 8.52975 13.0976C8.48947 13.1468 8.47772 13.2224 8.45826 13.2879C8.44953 13.3171 8.45926 13.3521 8.4502 13.3809C8.43745 13.4201 8.41496 13.4554 8.39616 13.4925C8.31662 13.65 8.33407 13.7183 8.47672 13.8084C8.49115 13.8175 8.5039 13.8292 8.52337 13.8445C8.48746 13.9038 8.45188 13.9569 8.42234 14.0134C8.40992 14.0373 8.40019 14.0706 8.40657 14.0945C8.41496 14.125 8.4408 14.1507 8.45826 14.1771C8.44382 14.2076 8.43577 14.2405 8.4163 14.2624C8.3099 14.381 8.37468 14.5183 8.42637 14.6074C8.49216 14.7204 8.48712 14.7926 8.42234 14.8886C8.4059 14.9132 8.41093 14.9583 8.4163 14.9923C8.42402 15.0398 8.43879 15.087 8.4549 15.1324C8.48074 15.2052 8.51062 15.2767 8.53847 15.3488C8.54418 15.346 8.54989 15.3429 8.55526 15.3401C8.56163 15.4303 8.56801 15.5201 8.57472 15.6179C8.72576 15.5822 8.74087 15.7105 8.76268 15.809C8.79591 15.9591 8.88989 16.0184 9.02112 16.0545C9.09496 16.0746 9.19532 16.0867 9.20807 16.1859C9.21714 16.2556 9.2507 16.2861 9.29769 16.3194C9.32152 16.3364 9.34401 16.3579 9.36146 16.3822C9.4296 16.4765 9.53063 16.5139 9.64407 16.4918C9.67294 16.4862 9.71187 16.4921 9.7357 16.5087C9.82095 16.5691 9.89916 16.5604 9.96494 16.4744C10.0368 16.3804 10.0938 16.3718 10.1965 16.4321C10.2234 16.4481 10.264 16.4671 10.2865 16.4567C10.3378 16.4331 10.3936 16.4016 10.4258 16.3569C10.5067 16.2442 10.6329 16.2646 10.7359 16.249C10.8634 16.2296 10.8893 16.2351 10.8695 16.0999C10.8467 15.9432 10.9259 15.9213 11.034 15.9012C11.0635 15.8957 11.0947 15.9009 11.1252 15.8991C11.24 15.8925 11.3615 15.9282 11.4646 15.8419C11.4773 15.8312 11.4998 15.8235 11.5153 15.8266C11.6881 15.8641 11.7714 15.7587 11.8425 15.6207C11.8673 15.5725 11.916 15.5374 11.9536 15.4965C11.9848 15.3283 12.1506 15.3609 12.2543 15.3072C12.2671 15.3006 12.2993 15.3342 12.3235 15.3495C12.3698 15.2309 12.4134 15.0981 12.5601 15.0464C12.5917 15.0353 12.6111 14.985 12.6423 14.976C12.7437 14.9469 12.8243 14.8647 12.8404 14.7551C12.8447 14.726 12.8535 14.6941 12.8461 14.6674C12.8246 14.5904 12.7951 14.5162 12.7709 14.4403C12.7669 14.4271 12.7685 14.4063 12.7759 14.3955C12.8142 14.3418 12.8555 14.2901 12.8951 14.2381C13.0136 14.3217 13.0119 14.3203 13.0998 14.2131C13.128 14.1788 13.1656 14.1524 13.1992 14.1223C13.2363 14.1579 13.2663 14.1522 13.2891 14.1053C13.1616 14.038 13.1555 13.9891 13.2633 13.883C13.2821 13.8643 13.3093 13.8549 13.3287 13.8369C13.3475 13.8195 13.3609 13.7963 13.3831 13.7668C13.3374 13.7564 13.3096 13.7502 13.27 13.7415C13.3019 13.6642 13.3297 13.5959 13.3613 13.5185C13.3519 13.4842 13.3123 13.4135 13.3301 13.3909C13.414 13.2848 13.3529 13.1856 13.3368 13.0837C13.3254 13.0119 13.2831 12.9256 13.3076 12.8722C13.3455 12.7903 13.3455 12.7119 13.3562 12.6294C13.3666 12.549 13.3398 12.5202 13.2468 12.5282C13.2737 12.4494 13.2968 12.3815 13.326 12.2955L13.3274 12.2965ZM14.3964 10.9261C14.4165 10.9028 14.4555 10.8741 14.4709 10.8352C14.481 10.8099 14.4659 10.761 14.4457 10.7385C14.3974 10.6844 14.4175 10.6584 14.4702 10.6344C14.4924 10.6244 14.5273 10.6178 14.5327 10.6011C14.5434 10.5686 14.5511 10.5207 14.535 10.4971C14.5179 10.4718 14.4548 10.4454 14.4417 10.4569C14.3957 10.4968 14.3585 10.5498 14.3272 10.6039C14.3182 10.6195 14.3517 10.6754 14.3477 10.6778C14.2823 10.7145 14.3105 10.7763 14.3024 10.8293C14.2944 10.8827 14.3266 10.9295 14.3964 10.9261ZM14.3541 13.058C14.2725 13.2342 14.4407 13.3708 14.4075 13.5366C14.4185 13.5376 14.43 13.5386 14.441 13.5397C14.4722 13.48 14.5035 13.4207 14.5363 13.3576C14.4927 13.3413 14.4639 13.3306 14.4467 13.3243C14.4581 13.2345 14.4679 13.1579 14.4779 13.0781C14.4736 13.0781 14.4528 13.082 14.4326 13.0799C14.4125 13.0778 14.393 13.0695 14.3541 13.0584V13.058ZM14.5085 12.7522C14.485 12.766 14.4464 12.7886 14.4095 12.8104C14.4383 12.8763 14.4615 12.9297 14.4887 12.9914C14.53 12.9779 14.6018 12.989 14.5921 12.9075C14.5864 12.8611 14.5464 12.8194 14.5088 12.7522H14.5085ZM14.4276 9.92737C14.4343 9.97523 14.4387 10.0116 14.4451 10.0477C14.4508 10.08 14.4592 10.1119 14.4706 10.1632C14.5182 10.0512 14.4977 9.95823 14.4273 9.92737H14.4276ZM14.589 10.3008C14.5363 10.2703 14.5068 10.2533 14.4773 10.2363L14.4592 10.2575C14.4655 10.2963 14.4716 10.3352 14.4786 10.3789C14.5179 10.3511 14.5444 10.3324 14.589 10.3008Z" fill="currentColor"/>
</svg>