<svg fill="none" xmlns="http://www.w3.org/2000/svg" viewBox="0 0 23 24">
  <path d="M1.54026 21.1124C1.52717 21.0903 1.51699 21.0728 1.49082 21.0283C1.54353 21.0465 1.57043 21.0557 1.59006 21.0625C1.60969 20.9963 1.63005 20.9275 1.65113 20.8584C1.65259 20.8534 1.66095 20.8459 1.66458 20.8466C1.78491 20.8719 1.84126 20.7359 1.95722 20.738C1.96922 20.6461 1.95358 20.5335 2.10118 20.5175C2.08991 20.4295 2.11208 20.349 2.19787 20.303C2.22187 20.2902 2.25931 20.3009 2.30366 20.3009C2.33674 20.2696 2.40872 20.2361 2.31238 20.1385C2.38909 20.1492 2.43671 20.1563 2.48469 20.163C2.48106 20.1584 2.47742 20.1541 2.47379 20.1495C2.51959 20.1342 2.56612 20.1203 2.6112 20.1028C2.6461 20.0893 2.68354 20.0765 2.71153 20.0537C2.74062 20.0298 2.76752 19.9971 2.78097 19.9629C2.7926 19.9336 2.79042 19.8955 2.78388 19.8631C2.76279 19.7619 2.78642 19.7317 2.89184 19.7167C2.9591 19.7071 3.02526 19.6893 3.09033 19.6693C3.15576 19.6494 3.18048 19.6016 3.17321 19.5343C3.16449 19.4531 3.18085 19.4047 3.28845 19.4107C3.3986 19.4164 3.48294 19.358 3.51602 19.2444C3.51929 19.2333 3.54764 19.2191 3.55928 19.2226C3.7036 19.2639 3.78066 19.2148 3.79229 19.0712C3.79629 19.021 3.88281 18.9633 3.9537 18.9612C3.98351 18.9601 4.03113 18.9629 4.04058 18.9473C4.13146 18.7941 4.26779 18.6587 4.29178 18.4788C4.30087 18.4104 4.29287 18.3545 4.35721 18.3128C4.39575 18.2879 4.42919 18.2697 4.46373 18.3189C4.50408 18.3766 4.53825 18.3477 4.56042 18.3046C4.61277 18.2024 4.64404 18.092 4.77927 18.0489C4.85852 18.0236 4.85524 17.9666 4.79017 17.9074C4.77418 17.8928 4.756 17.88 4.73891 17.8665C4.86142 17.7251 4.90032 17.719 4.99665 17.8487V17.7382C5.03991 17.6862 5.09517 17.6171 5.15442 17.5512C5.17187 17.5316 5.19986 17.511 5.22422 17.5088C5.31765 17.501 5.31656 17.4949 5.32346 17.3977C5.32565 17.3674 5.38417 17.3368 5.42198 17.3151C5.44961 17.2994 5.50886 17.3047 5.51395 17.2887C5.54194 17.1979 5.6201 17.2075 5.68626 17.195C5.74806 17.1832 5.76333 17.1551 5.73243 17.1006C5.71571 17.071 5.68481 17.0183 5.69208 17.0119C5.72734 16.9813 5.77351 16.9635 5.81604 16.941C5.81858 16.9396 5.95672 16.8591 5.95745 16.8573C6.02398 16.7159 6.09995 16.599 6.28208 16.5638C6.42894 16.5353 6.44494 16.4765 6.40968 16.3301C6.38132 16.2118 6.49438 16.1951 6.54418 16.1976C6.68668 16.204 6.70559 16.0854 6.77429 16.0177C6.78992 16.0024 6.80228 15.9732 6.81828 15.9714C6.90116 15.9628 6.93134 15.9083 6.9546 15.8414C6.97205 15.7918 6.99641 15.7448 7.01785 15.6967C7.01931 15.6939 7.01931 15.6903 7.02004 15.6875C7.02185 15.6885 7.02403 15.6896 7.02585 15.6903C7.02876 15.7024 7.03167 15.7145 7.03458 15.7263C7.04148 15.7256 7.04875 15.727 7.05203 15.7242C7.07747 15.7021 7.09092 15.654 7.14145 15.6928C7.14981 15.6992 7.17562 15.6828 7.19344 15.6778C7.22688 15.6689 7.26069 15.6547 7.29413 15.6547C7.33885 15.6547 7.38683 15.6754 7.38065 15.5977C7.3792 15.5792 7.41664 15.5603 7.42464 15.5379C7.437 15.5037 7.43954 15.4659 7.43482 15.4235C7.47844 15.3882 7.53333 15.3238 7.59113 15.4085C7.6184 15.3947 7.64348 15.3761 7.67147 15.3686C7.73945 15.3508 7.74309 15.312 7.714 15.2604C7.66093 15.1667 7.67438 15.1022 7.78453 15.0748C7.92303 15.0402 7.93721 14.9433 7.94739 14.8375C7.95466 14.7638 7.96193 14.7178 8.0619 14.6979C8.1695 14.6765 8.31346 14.6241 8.35672 14.5426C8.42615 14.4115 8.58247 14.3755 8.63409 14.2419C8.64063 14.2245 8.6639 14.2067 8.66063 14.1931C8.641 14.1108 8.71152 14.0912 8.75769 14.0624C8.82785 14.0186 8.90782 13.9897 8.97907 13.9477C9.01143 13.9288 9.03397 13.8935 9.05978 13.8647C9.12085 13.7959 9.17683 13.7225 9.24372 13.6599C9.26517 13.6399 9.31533 13.6524 9.35023 13.6428C9.37314 13.6363 9.39604 13.6196 9.40985 13.6011C9.41494 13.5947 9.39531 13.5669 9.38295 13.5523C9.34987 13.5134 9.31424 13.4764 9.2768 13.4354C9.29898 13.3695 9.19937 13.2694 9.05723 13.2302V13.066C9.13721 13.0229 9.13757 13.0058 9.05978 12.9542C9.00706 12.9193 8.95399 12.8822 8.91037 12.838C8.89146 12.8188 8.89546 12.7786 8.88419 12.7258C8.8682 12.7191 8.82712 12.7002 8.78531 12.6827C8.66644 12.6336 8.59555 12.5089 8.62682 12.3611C8.64499 12.2749 8.59155 12.2624 8.54103 12.2335C8.51049 12.2161 8.48141 12.1954 8.45305 12.1748C8.4287 12.1569 8.40761 12.1338 8.38216 12.1178C8.32982 12.0853 8.27747 12.0526 8.22185 12.0266C8.13133 11.9849 8.1695 11.8891 8.12879 11.8285C8.1008 11.7865 8.06735 11.7448 8.02809 11.7131C7.96666 11.6636 7.89759 11.623 7.85469 11.5941C7.84124 11.4929 7.83324 11.4121 7.81725 11.333C7.8147 11.3212 7.77435 11.3141 7.75072 11.3106C7.73545 11.3084 7.71873 11.3173 7.70274 11.3216C7.71001 11.3034 7.71473 11.2835 7.72491 11.2671C7.73509 11.2511 7.75036 11.2382 7.76308 11.224C7.71364 11.1713 7.66675 11.1214 7.61876 11.0701C7.73473 10.9964 7.57368 10.996 7.5606 10.9511C7.54969 10.9134 7.47117 10.8945 7.42428 10.8678C7.4679 10.8293 7.4948 10.7883 7.44827 10.7235C7.38465 10.6355 7.33703 10.5361 7.27087 10.4503C7.21488 10.3773 7.1669 10.2821 7.03858 10.3074C7.0124 10.3124 6.9666 10.2754 6.94769 10.2465C6.92843 10.2173 6.9317 10.1739 6.92298 10.1251C6.90225 10.0958 6.86699 10.0467 6.83028 9.99574C6.84954 9.96689 6.87535 9.9277 6.90553 9.88211C6.87354 9.86679 6.84918 9.85539 6.82519 9.84364C6.86445 9.75066 6.79829 9.74817 6.72776 9.7471C6.72667 9.7471 6.71904 9.70649 6.72667 9.69082C6.73903 9.66588 6.76157 9.64593 6.76884 9.63703C6.71322 9.5608 6.6696 9.49774 6.62234 9.4379C6.58562 9.39159 6.55145 9.32177 6.50347 9.30966C6.37187 9.27653 6.34097 9.1401 6.23446 9.08631C6.20501 9.07135 6.17811 9.04855 6.15521 9.02468C6.12286 8.99084 6.08214 8.95629 6.06905 8.91496C6.03997 8.82413 5.93709 8.72403 5.8673 8.7169C5.85566 8.61289 5.8444 8.51457 5.83313 8.41483C5.80114 8.41162 5.78187 8.40948 5.7626 8.40735C5.66809 8.39773 5.63828 8.35926 5.65354 8.26664C5.67463 8.13804 5.64155 8.07606 5.51759 8.04364C5.42634 8.01978 5.44488 7.95103 5.42998 7.89047C5.40926 7.80711 5.3729 7.72304 5.28457 7.69419C5.2344 7.6778 5.22786 7.65429 5.2075 7.61475C5.17515 7.55099 5.19114 7.52498 5.24603 7.51216C5.18569 7.35649 5.12062 7.21614 5.00102 7.0936C4.88578 6.97498 4.80399 6.82429 4.65712 6.74878C4.66221 6.72491 4.66148 6.71992 4.6633 6.71885C4.70365 6.69392 4.77599 6.67183 4.77854 6.64369C4.78363 6.58598 4.75636 6.52257 4.73165 6.46629C4.7251 6.45133 4.66839 6.43851 4.6524 6.44955C4.57424 6.50298 4.50662 6.48517 4.463 6.40359C4.44591 6.37153 4.40011 6.35444 4.36776 6.33021C4.33795 6.30813 4.28451 6.28782 4.28269 6.2636C4.27469 6.15745 4.19363 6.12218 4.11947 6.07694C4.10856 6.07017 4.09875 6.06198 4.0733 6.04345C4.10711 6.01638 4.13546 5.99394 4.14819 5.98361C4.12747 5.93766 4.11074 5.88529 4.08166 5.84076C4.04822 5.78982 4.0035 5.74601 3.96388 5.69899C3.95624 5.70397 3.94825 5.7086 3.94061 5.71359C3.94897 5.68545 3.95734 5.65731 3.9686 5.62026C3.75412 5.6053 3.65307 5.45284 3.5451 5.30892C3.50329 5.253 3.42477 5.21595 3.44476 5.12582C3.44549 5.12191 3.41277 5.10944 3.39496 5.10374C3.36879 5.09519 3.34189 5.08913 3.31244 5.0813C3.4095 4.95056 3.32916 4.7867 3.15104 4.74645C3.16122 4.72721 3.17067 4.7094 3.17976 4.69159C3.17358 4.69337 3.1674 4.69515 3.16158 4.69693C3.14922 4.64243 3.11141 4.57724 3.12959 4.53556C3.18557 4.40697 3.06234 4.39307 3.01399 4.3318C3.0009 4.31542 2.98491 4.30081 2.97545 4.28265C2.95655 4.24774 2.95073 4.19288 2.92238 4.17827C2.82968 4.13018 2.82096 4.04683 2.79478 3.96311C2.77152 3.88831 2.7228 3.82098 2.681 3.75294C2.67591 3.74475 2.64465 3.75187 2.61993 3.75187C2.63265 3.69987 2.53813 3.62933 2.63665 3.60048C2.59084 3.52532 2.55122 3.45265 2.5036 3.38568C2.4876 3.36323 2.45161 3.35362 2.42435 3.33972C2.39927 3.32654 2.37273 3.31621 2.34765 3.30268C2.31311 3.28415 2.27967 3.26385 2.24804 3.24568C2.23677 3.20828 2.22478 3.17016 2.21423 3.13169C2.20987 3.1153 2.20006 3.09215 2.20733 3.08218C2.26331 3.00309 2.20769 2.99704 2.1488 2.99241C2.091 2.98778 2.08809 2.94325 2.06482 2.90086C2.00848 2.79827 2.06591 2.65827 1.94959 2.58061C1.92632 2.5653 1.89724 2.55853 1.85543 2.54107C1.85725 2.51471 1.86561 2.47588 1.86052 2.43848C1.85761 2.41711 1.83653 2.39324 1.81654 2.38006C1.73402 2.32449 1.69221 2.22119 1.71402 2.1389C1.66131 2.08938 1.61405 2.0445 1.55843 1.99213C1.58679 1.98786 1.59878 1.98608 1.61114 1.9843C1.58133 1.89132 1.59951 1.86532 1.69948 1.85534C1.67585 1.81117 1.65259 1.76736 1.62932 1.7239C1.62205 1.72604 1.61514 1.72817 1.60787 1.73031C1.60351 1.75133 1.59951 1.77199 1.59551 1.79194C1.57297 1.75952 1.54934 1.72532 1.52753 1.69398C1.49954 1.70716 1.4621 1.73779 1.44574 1.7296C1.38103 1.69576 1.3196 1.65158 1.37158 1.56146C1.27016 1.57322 1.24835 1.53831 1.26289 1.43108C1.26689 1.40009 1.23671 1.36447 1.22144 1.32885C1.33886 1.33277 1.33559 1.3317 1.30324 1.42467C1.29633 1.44462 1.31378 1.48808 1.33305 1.49912C1.38903 1.53118 1.44174 1.49663 1.46428 1.45281C1.48209 1.41826 1.53517 1.35699 1.44901 1.32493C1.45883 1.30819 1.46682 1.29038 1.47882 1.27541C1.48791 1.26402 1.50172 1.25689 1.5039 1.23053C1.46792 1.23267 1.43156 1.23516 1.38794 1.23765C1.3843 1.25155 1.37849 1.27435 1.37267 1.29714L1.35013 1.29999C1.33886 1.26081 1.33523 1.21664 1.31269 1.18493C1.30069 1.16748 1.25671 1.1714 1.22508 1.17817C1.14147 1.11725 1.23526 1.0802 1.26507 1.02036C1.25453 1.0111 1.2378 1.00184 1.22944 0.987586C1.22254 0.975475 1.22508 0.957663 1.22363 0.942702C1.23199 0.951251 1.24144 0.967281 1.24907 0.966569C1.27416 0.964432 1.30796 0.964075 1.32178 0.948758C1.36613 0.899243 1.40248 0.843316 1.44938 0.779908C1.37522 0.715432 1.44247 0.656299 1.48645 0.583274C1.55334 0.471776 1.58461 0.336411 1.66531 0.237738C1.73947 0.146901 1.77473 -0.00520625 1.93977 0.000137089C1.96304 0.000849534 1.99285 -0.00164392 2.00848 0.0108239C2.13826 0.11306 2.27167 0.177892 2.4498 0.133721C2.50323 0.12054 2.57521 0.180386 2.64683 0.209952C2.69009 0.140489 2.74462 0.0809995 2.85804 0.129446C2.88821 0.14227 2.95437 0.100236 2.99072 0.0685318C3.05398 0.012961 3.10959 0.00975517 3.1663 0.0717379C3.23865 0.150819 3.31317 0.22812 3.39205 0.312188C3.43604 0.281909 3.46512 0.256261 3.49893 0.240231C3.55855 0.211377 3.6218 0.190716 3.68142 0.162575C3.7265 0.141557 3.76867 0.114128 3.83774 0.0753001C3.86136 0.0977421 3.90644 0.140845 3.96097 0.19321C3.98315 0.182523 4.01877 0.166137 4.06567 0.144051C4.0922 0.166849 4.12638 0.194635 4.15873 0.224201C4.21689 0.276922 4.36885 0.261961 4.42265 0.202115C4.44482 0.17718 4.47645 0.156875 4.50771 0.144763C4.51971 0.140133 4.54588 0.162218 4.56079 0.17718C4.57715 0.193922 4.58805 0.216008 4.60114 0.235957C4.61532 0.21957 4.63458 0.205677 4.64294 0.186798C4.66367 0.139064 4.80544 0.108073 4.85924 0.142626C4.9214 0.182523 4.97993 0.228476 5.04609 0.26018C5.06718 0.270154 5.11662 0.250918 5.13625 0.229901C5.17514 0.188579 5.20604 0.173974 5.26385 0.197841C5.30674 0.215652 5.36054 0.211377 5.40926 0.211733C5.45869 0.21209 5.50886 0.198553 5.55721 0.204609C5.74079 0.227051 5.93346 0.22812 6.10395 0.287965C6.27372 0.34781 6.36169 0.225626 6.4842 0.186798C6.66269 0.130514 6.67214 0.125171 6.74885 0.28939C6.75975 0.312188 6.77211 0.351016 6.78738 0.352798C6.95424 0.374171 6.98623 0.524497 7.06039 0.628514C7.18944 0.606072 7.29377 0.697621 7.26614 0.816243C7.24179 0.920616 7.30977 0.95802 7.37593 0.996136C7.44245 1.03461 7.46899 1.09695 7.43554 1.16641C7.41991 1.19883 7.38865 1.25048 7.40028 1.26402C7.441 1.31175 7.49189 1.35841 7.54897 1.38299C7.61076 1.40935 7.73146 1.51622 7.70346 1.59637C7.65911 1.72425 7.75072 1.79479 7.82488 1.8728C7.84451 1.89346 7.86596 1.91305 7.88304 1.93549C7.92703 1.99213 7.96956 2.04949 8.01101 2.10791C8.02555 2.12857 8.03427 2.15279 8.04554 2.17452C7.98229 2.23294 7.98883 2.35619 8.04518 2.4196C8.11388 2.49655 8.17241 2.58204 8.23712 2.66254C8.28619 2.72346 8.32691 2.80254 8.39162 2.83709C8.49304 2.8916 8.46578 2.98778 8.50249 3.06151C8.55338 3.06009 8.54684 3.06187 8.56611 3.1235C8.57374 3.14843 8.61809 3.16197 8.65554 3.18762C8.65287 3.29021 8.7074 3.35813 8.81912 3.39138C8.92818 3.42379 8.97435 3.51392 8.92673 3.60903C8.90455 3.65391 8.90419 3.68348 8.95363 3.71126C8.98307 3.72801 9.00307 3.75971 9.02815 3.78358C9.05396 3.80816 9.08086 3.83202 9.12012 3.868C9.12121 3.86586 9.1114 3.8851 9.11394 3.87976C9.14484 3.94673 9.16011 4.00372 9.19392 4.04647C9.231 4.09313 9.27934 4.14265 9.33351 4.16331C9.49419 4.22423 9.49637 4.21888 9.49092 4.37918C9.52509 4.39557 9.55853 4.41195 9.59888 4.43155C9.55853 4.49139 9.56944 4.53378 9.62833 4.5751C9.6585 4.59612 9.66286 4.64955 9.69086 4.67698C9.77156 4.75535 9.81336 4.83372 9.79555 4.95662C9.78755 5.01005 9.87771 5.07738 9.92715 5.14328C9.94387 5.13544 9.97222 5.12155 9.99985 5.10837C10.0497 5.17 10.0878 5.24836 10.1514 5.28791C10.2292 5.33635 10.2478 5.44714 10.2318 5.46245C10.1693 5.5223 10.2329 5.56576 10.2449 5.59141C10.3536 5.66515 10.4626 5.73888 10.5739 5.8144C10.5597 5.85109 10.5386 5.88208 10.5386 5.91308C10.5386 5.94656 10.5517 5.98575 10.5728 6.01246C10.6106 6.0602 10.6582 6.10081 10.7138 6.15638C10.8538 6.14711 10.873 6.1635 10.8949 6.33306C10.905 6.41214 10.9385 6.46023 11.0355 6.42354C11.0366 6.50369 11.0828 6.5411 11.1555 6.56568C11.2275 6.59026 11.2646 6.62837 11.1871 6.70175C11.1268 6.75911 11.1708 6.82144 11.294 6.83177C11.3794 6.8389 11.4114 6.88058 11.4078 6.94933C11.4009 7.08469 11.4925 7.14632 11.5877 7.21258C11.6928 7.2856 11.8168 7.33191 11.8382 7.49542C11.8466 7.55776 11.9131 7.64931 12.0091 7.69918C12.1341 7.76437 12.2359 7.87266 12.3468 7.96385C12.406 8.01265 12.4122 8.07036 12.3689 8.12807C12.4558 8.19753 12.5405 8.26521 12.622 8.33005C12.5929 8.37422 12.566 8.41483 12.5503 8.43834C12.6201 8.52454 12.6743 8.60291 12.7412 8.66917C12.7801 8.708 12.8372 8.73222 12.8895 8.75538C12.9459 8.78031 12.9499 8.88754 12.8997 8.9684C12.8535 9.04285 12.867 9.11587 12.9179 9.18747C13.0128 9.14402 13.1124 9.11837 13.1458 9.00687C13.1502 8.99262 13.1869 8.98122 13.2094 8.98015C13.2905 8.97552 13.3247 8.9399 13.3236 8.85761C13.3221 8.74041 13.3421 8.72759 13.4602 8.74576C13.5548 8.76036 13.5744 8.73721 13.582 8.64459C13.5875 8.57691 13.582 8.50068 13.6715 8.46078C13.6984 8.44867 13.6976 8.37956 13.7125 8.33788C13.7202 8.31687 13.7318 8.28588 13.7478 8.2816C13.7874 8.2702 13.831 8.27163 13.8743 8.24705C13.8376 8.23743 13.8005 8.22781 13.742 8.21214C13.7634 8.1986 13.7943 8.18685 13.7936 8.17901C13.7743 8.02227 13.9034 7.95209 13.9881 7.85805C14.031 7.81067 14.0891 7.77648 14.1393 7.73551C14.1459 7.73017 14.1535 7.71592 14.1509 7.71129C14.1004 7.62152 14.1735 7.56844 14.2186 7.51465C14.3022 7.41456 14.3923 7.31909 14.4865 7.22825C14.5214 7.19477 14.5752 7.18016 14.6286 7.15237C14.6221 7.13171 14.613 7.10322 14.6021 7.06902C14.6348 7.05833 14.6668 7.04266 14.6999 7.03838C14.8391 7.01986 14.9271 6.93045 14.982 6.81824C15.0252 6.73025 15.0638 6.6558 15.1677 6.62588C15.2034 6.61555 15.2295 6.57244 15.2593 6.54359C15.2771 6.52649 15.2928 6.50654 15.3113 6.49051C15.3797 6.43245 15.4509 6.37759 15.5171 6.31703C15.5298 6.30528 15.524 6.27357 15.5269 6.2465C15.5582 6.24401 15.5901 6.24187 15.6221 6.23938L15.6061 6.22406C15.6723 6.15281 15.7406 6.08299 15.8035 6.00926C15.8228 5.98646 15.8275 5.95226 15.8395 5.92341C15.8501 5.89812 15.8552 5.86606 15.8741 5.84967C15.9126 5.81618 15.9559 5.77557 16.0031 5.7656C16.142 5.7371 16.2118 5.62881 16.3019 5.54225C16.3794 5.4678 16.4626 5.39905 16.5408 5.32531C16.5513 5.31533 16.5469 5.29004 16.5484 5.27188C16.5506 5.24302 16.5404 5.20384 16.556 5.18638C16.6316 5.10053 16.7153 5.02145 16.7938 4.93774C16.8236 4.90603 16.845 4.86685 16.8738 4.83408C16.909 4.79347 16.9494 4.75678 16.985 4.71688C17.0046 4.6948 17.0261 4.67057 17.0359 4.64386C17.0595 4.57938 17.0773 4.51277 17.097 4.44722C17.246 4.49353 17.2435 4.4921 17.3292 4.34712C17.3576 4.29939 17.4045 4.26234 17.4387 4.21746C17.4856 4.15547 17.5281 4.09029 17.5739 4.02759C17.5866 4.01014 17.6059 3.98235 17.6208 3.98306C17.7233 3.98912 17.7557 3.90006 17.8204 3.85447C17.8644 3.82312 17.9309 3.79711 17.9814 3.80531C18.0483 3.81635 18.0676 3.785 18.0948 3.74475C18.1366 3.68277 18.181 3.62256 18.2246 3.56165C18.2282 3.55631 18.2381 3.55168 18.2377 3.54776C18.2213 3.41881 18.3537 3.44232 18.4082 3.38639C18.4805 3.31194 18.5536 3.23749 18.6143 3.15413C18.6714 3.07576 18.7041 2.97994 18.7641 2.90442C18.8001 2.85918 18.8673 2.83781 18.9338 2.79791C18.9804 2.70066 19.0342 2.58168 19.0945 2.46627C19.1065 2.44347 19.1465 2.41746 19.1694 2.42067C19.261 2.43421 19.2599 2.37044 19.2403 2.3277C19.2152 2.27319 19.2381 2.25859 19.2683 2.21905C19.3214 2.14958 19.3512 2.06267 19.3926 1.97895C19.4166 1.97646 19.4559 1.97254 19.5046 1.96755C19.4853 1.94084 19.4726 1.92338 19.4599 1.90522C19.4802 1.90023 19.4988 1.89595 19.5173 1.89132C19.5224 1.88384 19.5278 1.87601 19.5329 1.86852C19.5057 1.85819 19.4784 1.84751 19.4511 1.83718C19.4559 1.82827 19.4602 1.81972 19.465 1.81082C19.4933 1.80298 19.5231 1.78588 19.5504 1.78909C19.6031 1.79514 19.6322 1.79835 19.6013 1.73209C19.5951 1.71891 19.6282 1.684 19.6485 1.66477C19.7056 1.61098 19.8176 1.61739 19.8147 1.49307C19.8136 1.44604 19.8812 1.39795 19.9154 1.35307C19.9495 1.39368 19.979 1.4293 20.0088 1.46457C20.0259 1.41968 20.043 1.3748 20.06 1.32992C20.0728 1.34773 20.0851 1.36554 20.0979 1.38335C20.0797 1.35058 20.0379 1.29928 20.0466 1.28859C20.1033 1.22162 20.1709 1.16392 20.2393 1.09873C20.1858 1.01003 20.2251 0.908149 20.348 0.873239C20.3261 0.795582 20.3621 0.759247 20.4378 0.748205C20.4592 0.744999 20.4963 0.739299 20.4988 0.728969C20.5214 0.626733 20.6101 0.635282 20.6828 0.609278C20.7173 0.59681 20.762 0.541595 20.7584 0.51096C20.7449 0.402312 20.8318 0.382008 20.9045 0.323943C20.9114 0.369184 20.9165 0.403025 20.9212 0.436153C21.0303 0.476763 21.1034 0.441853 21.1786 0.34781C21.264 0.2413 21.2611 0.196772 21.4247 0.294021C21.4829 0.328574 21.556 0.272647 21.5738 0.157587C21.6403 0.225982 21.7003 0.277635 21.7475 0.338905C21.7981 0.40445 21.9053 0.445415 21.9747 0.404806C21.9616 0.430098 21.9526 0.447909 21.9406 0.47142C21.9664 0.472845 21.9853 0.473913 22.0031 0.474982C22.0075 0.467857 22.0107 0.463226 22.0136 0.458239C22.0282 0.43366 22.0427 0.408724 22.0573 0.383789C22.0776 0.408368 22.11 0.430098 22.1161 0.457527C22.126 0.501342 22.1154 0.549432 22.1194 0.595029C22.1212 0.615333 22.138 0.63457 22.1576 0.67411C22.1758 0.630295 22.1838 0.610346 22.1921 0.590398C22.1718 0.6506 22.2354 0.737162 22.1245 0.768866C22.0616 0.787033 21.9882 0.999698 21.9871 1.0656C21.986 1.12295 21.9577 1.17995 21.9402 1.24086C21.8108 1.18386 21.7588 1.19776 21.6945 1.29251C21.6556 1.34951 21.6247 1.41185 21.5363 1.35129C21.5236 1.34238 21.4716 1.37516 21.4473 1.39831C21.3673 1.47419 21.2913 1.55469 21.2273 1.61988C21.1706 1.63805 21.1092 1.63912 21.0866 1.66904C21.0539 1.7125 21.0336 1.7727 21.0845 1.83219C21.099 1.84893 21.0877 1.90735 21.0681 1.92908C20.9445 2.06338 20.8158 2.1934 20.6875 2.32342C20.6737 2.33731 20.6508 2.34301 20.6319 2.35228C20.6097 2.36332 20.5675 2.3765 20.5686 2.3854C20.5788 2.48906 20.4748 2.50046 20.4301 2.55817C20.4072 2.58774 20.3952 2.62585 20.3789 2.66005C20.3734 2.67145 20.3701 2.69211 20.3629 2.69354C20.2556 2.71527 20.248 2.79328 20.2465 2.87877C20.2465 2.89053 20.2222 2.90763 20.2062 2.91261C20.0902 2.9493 19.9815 3.01414 19.9386 3.11851C19.9066 3.19617 19.8605 3.24996 19.8056 3.30303C19.7889 3.31942 19.7583 3.32227 19.7336 3.32512C19.5355 3.40954 19.5922 3.61793 19.5053 3.76292C19.4573 3.75223 19.4079 3.74119 19.3563 3.72979C19.3301 3.7907 19.305 3.84877 19.2748 3.9193C19.2785 3.93248 19.2872 3.96276 19.2948 3.98983C19.2149 4.05858 19.1316 4.12092 19.0614 4.19501C19.0335 4.22458 19.0345 4.28051 19.0175 4.34285C19.0109 4.34392 18.9818 4.34356 18.9557 4.35282C18.932 4.36101 18.9102 4.3774 18.8902 4.39307C18.872 4.40732 18.8579 4.4401 18.8415 4.44045C18.7415 4.44188 18.7528 4.49602 18.7619 4.56691C18.7775 4.69088 18.7303 4.7493 18.6183 4.80309C18.5914 4.81591 18.5681 4.87041 18.5714 4.90283C18.5834 5.02003 18.5125 5.08771 18.3878 5.05494C18.4016 5.10338 18.414 5.14755 18.4245 5.18389C18.3369 5.2473 18.2548 5.30679 18.1726 5.36627C18.1683 5.36093 18.1639 5.35559 18.1595 5.35024C18.153 5.3791 18.1566 5.42149 18.1381 5.43503C17.9825 5.55009 17.8229 5.66016 17.6608 5.77415C17.6775 5.8055 17.699 5.84539 17.7197 5.88387C17.6092 5.92661 17.511 5.96509 17.4063 6.00569C17.4387 6.13429 17.3096 6.27144 17.4092 6.40074C17.2983 6.4695 17.2075 6.52542 17.1166 6.58278C17.1093 6.58741 17.1002 6.59987 17.102 6.60629C17.1289 6.70247 17.0435 6.70923 16.9912 6.74379C16.9192 6.79152 16.8494 6.84246 16.849 6.94078C16.849 7.03055 16.7676 7.07721 16.7349 7.14953C16.7233 7.17517 16.7076 7.21614 16.7193 7.23146C16.7654 7.29201 16.7305 7.32906 16.688 7.36005C16.5902 7.4313 16.4884 7.49755 16.3888 7.56595C16.3724 7.57699 16.3572 7.58946 16.351 7.59409C16.3637 7.64752 16.3932 7.71129 16.379 7.72233C16.3328 7.75867 16.271 7.77612 16.21 7.78289C16.1765 7.82029 16.1427 7.85734 16.11 7.89546C16.0878 7.92146 16.0609 7.94639 16.0478 7.97632C16.0216 8.03688 16.0147 8.11596 15.913 8.06502C15.9071 8.06217 15.8857 8.07463 15.8824 8.0839C15.8479 8.17901 15.7472 8.20644 15.6854 8.27234C15.6563 8.30333 15.645 8.35035 15.6352 8.39488C15.5669 8.47467 15.4596 8.53345 15.4927 8.64887C15.4458 8.69161 15.4138 8.72688 15.3757 8.75395C15.3142 8.79706 15.2477 8.83303 15.1852 8.87507C15.0394 8.97303 14.894 9.07241 14.75 9.17287C14.722 9.19246 14.7002 9.22096 14.6751 9.24483C14.5617 9.35383 14.4498 9.4639 14.3342 9.57077C14.3142 9.58929 14.2815 9.59428 14.2807 9.61637C14.268 9.65377 14.2524 9.6901 14.2429 9.72822C14.2331 9.76705 14.2164 9.81051 14.2251 9.84684C14.2498 9.94979 14.2037 10.0068 14.0928 9.99574C14.0895 9.99574 14.0851 9.99218 14.0837 9.99325C14.0768 9.99859 14.0706 10.0043 14.0648 10.0107C14.0226 10.0542 13.9794 10.0973 13.9394 10.1425C13.9328 10.15 13.9405 10.1692 13.9423 10.1952C13.9775 10.1753 14.003 10.161 14.0277 10.1471C14.1433 10.265 14.148 10.2893 14.0815 10.4107C14.0586 10.4524 14.1128 10.5707 14.1833 10.6092C14.24 10.6405 14.2742 10.6701 14.2931 10.7402C14.3065 10.7912 14.3872 10.8254 14.4392 10.8649C14.4483 10.8717 14.4701 10.8649 14.4767 10.8721C14.5585 10.9618 14.6403 11.0519 14.7188 11.1446C14.7453 11.1759 14.7653 11.2126 14.7857 11.2486C14.8042 11.2814 14.8424 11.3341 14.8318 11.3473C14.7588 11.4377 14.8598 11.4837 14.8769 11.5496C14.8969 11.6272 14.942 11.6832 15.0158 11.7209C15.0518 11.7395 15.0794 11.7733 15.1187 11.8075C15.1325 11.8021 15.1586 11.7922 15.1844 11.7822C15.2094 11.8209 15.1928 11.8783 15.1346 11.9543C15.2168 11.9931 15.2415 12.0561 15.1954 12.1488C15.2495 12.1488 15.2931 12.1509 15.3364 12.1484C15.4047 12.1445 15.4509 12.1609 15.4571 12.2399C15.4607 12.287 15.4916 12.3336 15.488 12.3785C15.4793 12.4818 15.548 12.5075 15.624 12.5367C15.7388 12.5809 15.7461 12.6065 15.7097 12.7173C15.7017 12.7419 15.7214 12.781 15.7388 12.806C15.7643 12.8423 15.7999 12.8715 15.8243 12.8968C15.8879 12.8833 15.9435 12.8715 16.0031 12.8587C15.9922 13.0322 16.1322 13.2256 16.3125 13.289C16.1889 13.3311 16.2623 13.3695 16.2947 13.4279C16.3296 13.4906 16.3288 13.5719 16.3441 13.6452C16.335 13.647 16.3259 13.6488 16.3165 13.6506C16.3219 13.6534 16.3277 13.6595 16.3328 13.6591C16.4953 13.6488 16.4979 13.6477 16.5608 13.833C16.5811 13.8925 16.5942 13.937 16.6734 13.9064C16.6829 13.9028 16.732 13.952 16.7276 13.9658C16.6985 14.0553 16.736 14.1101 16.8141 14.1429C16.9101 14.1831 16.897 14.2761 16.9156 14.3481C16.933 14.4168 16.9505 14.4656 17.0297 14.4738C17.1195 14.4827 17.1471 14.5547 17.1762 14.6213C17.2002 14.6769 17.2224 14.7342 17.2351 14.793C17.2511 14.8664 17.2856 14.9116 17.3707 14.9088V15.0124C17.4576 15.0199 17.5074 15.0684 17.5045 15.1645C17.5041 15.1838 17.5212 15.2169 17.5357 15.2205C17.6222 15.2411 17.6204 15.3145 17.6255 15.3729C17.6332 15.4573 17.6862 15.4866 17.7542 15.5062C17.8127 15.5229 17.8611 15.535 17.8589 15.6169C17.8578 15.6551 17.9091 15.6942 17.9363 15.7334C17.9552 15.7605 17.9687 15.7926 17.992 15.815C18.0781 15.8984 18.149 15.9874 18.1494 16.1142C18.1494 16.1246 18.1712 16.1417 18.1854 16.1445C18.2522 16.158 18.2988 16.1762 18.2475 16.2564C18.2417 16.2656 18.2795 16.3183 18.3057 16.3269C18.3871 16.354 18.4525 16.385 18.4315 16.4729C18.5042 16.4893 18.5805 16.4893 18.6321 16.5246C18.6637 16.5463 18.6568 16.6215 18.6699 16.6852C18.7288 16.7333 18.7863 16.7989 18.7928 16.9008C18.7968 16.9624 18.8233 17.0226 18.8372 17.0839C18.8488 17.1355 18.8641 17.1882 18.8641 17.2406C18.8641 17.3022 18.8979 17.3086 18.9448 17.3051C19.0556 17.2965 19.072 17.3118 19.0644 17.4194C19.0607 17.4672 19.1632 17.5441 19.2185 17.5455C19.2781 17.5469 19.3374 17.5608 19.4097 17.5712C19.3544 17.6766 19.3395 17.7521 19.4504 17.7992C19.4679 17.8066 19.47 17.8487 19.4824 17.8825C19.5082 17.8957 19.5642 17.9071 19.5835 17.9395C19.5984 17.9648 19.5707 18.0172 19.5558 18.0549C19.5384 18.1002 19.5242 18.1394 19.5849 18.1643C19.598 18.1696 19.61 18.1867 19.6155 18.201C19.6424 18.2722 19.6874 18.3128 19.7707 18.3057C19.7903 18.3039 19.8114 18.3228 19.8318 18.3321C19.8219 18.3876 19.8129 18.44 19.8009 18.5084C19.8485 18.5166 19.8925 18.5237 19.9499 18.5333C19.9521 18.5593 19.9554 18.5989 19.9586 18.6384C19.9637 18.6423 19.9688 18.6487 19.9739 18.6491C20.1237 18.6612 20.1218 18.6605 20.0946 18.8069C20.0866 18.8507 20.0935 18.897 20.0935 18.9644C20.1611 18.9683 20.2284 18.9722 20.272 18.9747C20.3236 19.0374 20.3709 19.0908 20.4127 19.1478C20.4287 19.1699 20.4421 19.2009 20.4407 19.2269C20.4363 19.3095 20.4247 19.3915 20.4141 19.4869C20.5319 19.472 20.5763 19.5343 20.6402 19.5924C20.782 19.7206 20.8387 19.8948 20.9431 20.0412C20.963 20.0694 20.9878 20.0947 21.0161 20.1285C21.0099 20.1502 21.0001 20.1826 20.9943 20.2033C21.071 20.2635 21.1434 20.3191 21.2142 20.3768C21.2277 20.3875 21.2437 20.406 21.243 20.4206C21.2346 20.6158 21.316 20.7045 21.5098 20.7547C21.593 20.7765 21.7054 20.7647 21.7515 20.8723C21.7777 20.9328 21.813 20.9913 21.7421 21.0176C21.833 21.1359 21.9224 21.2542 22.0147 21.3703C22.0384 21.3999 22.0743 21.4202 22.0983 21.4497C22.1147 21.4697 22.1347 21.5024 22.1285 21.522C22.0867 21.656 22.1405 21.7721 22.1918 21.8889C22.2016 21.911 22.2205 21.9288 22.2088 21.9495C22.2088 21.973 22.2038 21.998 22.2099 22.02C22.2285 22.0881 22.2565 22.154 22.271 22.2224C22.2903 22.3107 22.3397 22.362 22.4291 22.3805C22.4829 22.3916 22.5386 22.4016 22.5884 22.4229C22.64 22.445 22.6876 22.4789 22.6585 22.5494C22.6527 22.5636 22.6454 22.5882 22.652 22.5946C22.7232 22.6644 22.6858 22.7385 22.6698 22.8155C22.652 22.9017 22.6985 22.9377 22.7829 22.9441C22.8563 23.0196 22.9141 23.0673 22.9559 23.1258C22.9824 23.1632 23.0122 23.2323 22.9948 23.2604C22.9046 23.409 22.8367 23.5749 22.6785 23.6758C22.6367 23.7025 22.6087 23.7491 22.5709 23.783C22.5495 23.8022 22.52 23.8272 22.4953 23.8261C22.4193 23.8229 22.379 23.8514 22.3619 23.9237C22.3564 23.9472 22.3328 23.9668 22.3175 23.9882C22.2961 23.9689 22.271 23.9522 22.2536 23.9297C22.227 23.8955 22.2183 23.8557 22.1569 23.9045C22.1096 23.9419 21.9998 23.8817 21.9693 23.8168C21.8101 23.8614 21.6152 23.7922 21.4905 23.9821C21.468 23.9394 21.4524 23.9102 21.4367 23.8809C21.4331 23.887 21.4291 23.8927 21.4254 23.8988C21.3924 23.8752 21.36 23.8503 21.3255 23.8286C21.3066 23.8165 21.2848 23.8022 21.2637 23.8012C21.1401 23.7947 21.0161 23.7933 20.8922 23.7873C20.8271 23.7841 20.7617 23.7791 20.6973 23.7684C20.658 23.762 20.6217 23.742 20.5828 23.731C20.5512 23.7221 20.5177 23.7117 20.4854 23.7121C20.4468 23.7128 20.4083 23.7313 20.3701 23.7299C20.2087 23.7242 20.0466 23.7221 19.887 23.7011C19.8281 23.6932 19.7645 23.6476 19.7231 23.602C19.6333 23.503 19.5089 23.4937 19.3944 23.4716C19.2948 23.4524 19.188 23.4695 19.0796 23.4916C19.0934 23.4816 19.1073 23.4716 19.1396 23.4481C19.0763 23.4221 19.0262 23.4015 18.9509 23.3705C18.9291 23.3445 18.887 23.2935 18.8484 23.2472C18.7735 23.2283 18.6965 23.207 18.6183 23.1892C18.514 23.1649 18.4373 23.2159 18.3566 23.2935C18.3057 23.2522 18.2533 23.2102 18.1923 23.1603C18.169 23.1945 18.1395 23.2369 18.1097 23.2807C18.0581 23.2433 18.0116 23.2098 17.9567 23.1706C17.9552 23.2504 17.9167 23.259 17.8553 23.2362C17.7673 23.2038 17.679 23.1699 17.5881 23.1482C17.4994 23.1272 17.3885 23.208 17.3692 23.2971C17.3572 23.352 17.346 23.4072 17.334 23.462C17.3332 23.4652 17.3332 23.4695 17.3311 23.4713C17.2573 23.5308 17.1907 23.5931 17.1315 23.6711C17.0526 23.7751 16.9781 23.6498 16.9054 23.6216C16.8399 23.5967 16.7894 23.5522 16.7069 23.5735C16.6375 23.5917 16.5877 23.5529 16.5448 23.483C16.5004 23.4107 16.4139 23.3648 16.3521 23.3014C16.3183 23.2668 16.2976 23.2202 16.271 23.1788L16.2896 23.1532C16.2067 23.1532 16.1183 23.1354 16.0427 23.1582C15.9657 23.1813 15.934 23.1649 15.9071 23.0912C15.8373 23.1436 15.7839 23.1389 15.7446 23.0563C15.7345 23.0346 15.6908 23.0281 15.6567 23.0118C15.6828 22.953 15.6974 22.8917 15.5836 22.891C15.6636 22.7653 15.6341 22.6534 15.5654 22.544C15.5829 22.538 15.5996 22.5323 15.605 22.5301C15.5883 22.4749 15.5723 22.4254 15.5582 22.3755C15.5378 22.3043 15.524 22.2309 15.4974 22.1622C15.4695 22.0899 15.4287 22.0225 15.396 21.952C15.3873 21.9328 15.3826 21.9085 15.3851 21.8879C15.3949 21.8109 15.3502 21.7557 15.2859 21.7586C15.1681 21.7636 15.1077 21.7066 15.0623 21.6082C15.1052 21.5776 15.1535 21.5431 15.2201 21.496C15.1725 21.4793 15.1401 21.4675 15.1234 21.4618C15.0652 21.3785 15.0176 21.2969 14.9565 21.2267C14.8776 21.1359 14.7889 21.0533 14.7017 20.9695C14.6846 20.9528 14.6577 20.9428 14.6333 20.9368C14.5563 20.9179 14.5526 20.914 14.5595 20.8602C14.5199 20.8075 14.4952 20.7711 14.4669 20.7376C14.4498 20.7173 14.4298 20.6967 14.4065 20.6846C14.3545 20.6571 14.2982 20.5428 14.32 20.4904C14.3254 20.4776 14.3516 20.473 14.3883 20.4544C14.3487 20.4345 14.3233 20.4217 14.2931 20.4067C14.304 20.3828 14.3196 20.3497 14.3327 20.3216C14.284 20.292 14.2386 20.2703 14.2008 20.2396C14.1782 20.2211 14.1699 20.1869 14.1509 20.1627C14.1291 20.1342 14.1026 20.1093 14.0717 20.0882C14.0535 20.0288 14.0782 19.9447 13.963 19.9358C13.9437 19.9344 13.9281 19.8749 13.9128 19.8414C13.8794 19.7662 13.7961 19.7242 13.7827 19.6294C13.7772 19.5913 13.7002 19.5628 13.6504 19.5265C13.6333 19.5589 13.6238 19.5771 13.6195 19.5856C13.5584 19.5728 13.5061 19.5621 13.4359 19.5475C13.4483 19.5015 13.4621 19.4495 13.4781 19.3897C13.4781 19.3897 13.4675 19.3868 13.457 19.384C13.2661 19.3373 13.245 19.3092 13.2912 19.1222C13.3101 19.0456 13.2709 19.0395 13.2167 19.0427C13.1338 19.0477 12.9604 18.9188 12.9422 18.844C12.931 18.7966 12.9033 18.7531 12.8833 18.7075C12.8586 18.652 12.8343 18.5967 12.8099 18.5422C12.795 18.5551 12.7746 18.5725 12.7405 18.6017C12.7499 18.5412 12.7583 18.4988 12.7623 18.4557C12.7637 18.4414 12.7546 18.414 12.7492 18.4136C12.6445 18.4076 12.6594 18.2854 12.5772 18.2533C12.6983 18.1479 12.522 18.1005 12.5289 18.0029C12.5336 17.9345 12.4253 17.859 12.3657 17.7846C12.3689 17.7831 12.3875 17.7746 12.4111 17.7635C12.374 17.7026 12.3431 17.6435 12.2835 17.6948C12.2344 17.6524 12.1966 17.6054 12.1472 17.5808C12.089 17.5519 12.0679 17.4825 12.1178 17.4333C12.0469 17.4119 11.9996 17.3204 12.0171 17.2427C12.0232 17.2153 12.0232 17.1865 12.0258 17.1583C11.9974 17.1715 11.9691 17.1847 11.9356 17.2003C11.8956 17.1451 11.7978 17.107 11.8673 17.0019C11.8775 16.9866 11.8473 16.9467 11.8367 16.9179C11.8255 16.8865 11.8149 16.8545 11.8055 16.8224C11.8015 16.8081 11.8055 16.785 11.7975 16.78C11.7179 16.733 11.6364 16.6888 11.5434 16.6372C11.5336 16.5 11.3936 16.427 11.306 16.318C11.2875 16.2952 11.2598 16.2681 11.2609 16.2435C11.2642 16.152 11.2184 16.0918 11.1511 16.038C11.0933 15.9917 11.0395 15.9407 10.9868 15.8948C10.9716 15.825 11.0035 15.7391 10.905 15.7063C10.8967 15.7035 10.8839 15.6932 10.8843 15.6871C10.8909 15.5674 10.7691 15.5721 10.7124 15.5143C10.6924 15.494 10.668 15.4666 10.6673 15.4417C10.6622 15.3056 10.6378 15.2803 10.5019 15.2871C10.4783 15.2422 10.4546 15.1969 10.4361 15.161C10.4619 15.1382 10.4862 15.1168 10.5208 15.0862C10.463 15.0773 10.4266 15.0716 10.3761 15.0637C10.4583 14.9914 10.4266 14.9401 10.3645 14.892C10.3078 14.8482 10.2816 14.7624 10.1838 14.7713C10.1729 14.7723 10.1474 14.7146 10.1442 14.6826C10.1376 14.6181 10.1434 14.5522 10.1394 14.487C10.1384 14.4717 10.1213 14.4532 10.1064 14.4435C10.0911 14.4339 10.0693 14.4339 10.0507 14.4293C9.88171 14.3862 9.83154 14.3299 9.85953 14.1614C9.87189 14.088 9.84935 14.0613 9.79482 14.0471C9.73811 14.0325 9.71049 14.0139 9.70722 13.948C9.70503 13.9064 9.65777 13.8679 9.63378 13.8262C9.62033 13.8027 9.61342 13.7756 9.60397 13.751C9.54508 13.7678 9.48219 13.7856 9.41567 13.8041C9.44875 13.8657 9.47783 13.9195 9.51055 13.9805C9.48583 13.9929 9.45784 14.0075 9.41421 14.0296C9.4811 14.0656 9.5389 14.0969 9.5967 14.1279C9.59161 14.1361 9.58689 14.1443 9.5818 14.1521C9.55853 14.1347 9.53527 14.1172 9.49564 14.0873C9.48728 14.1443 9.47965 14.1874 9.47456 14.2309C9.46947 14.2747 9.4662 14.3189 9.46111 14.3766C9.48037 14.3819 9.51345 14.3908 9.55999 14.4036C9.51455 14.4439 9.46801 14.4827 9.42476 14.5244C9.36332 14.5839 9.3695 14.6199 9.42948 14.6612C9.41494 14.6982 9.39204 14.7289 9.39313 14.7588C9.39749 14.8671 9.42003 14.9757 9.41567 15.0833C9.41385 15.1303 9.38295 15.1937 9.29679 15.1745C9.25572 15.1652 9.20373 15.1763 9.16411 15.1941C9.10013 15.2226 9.14957 15.2614 9.16556 15.296C9.18119 15.3295 9.19573 15.3637 9.211 15.3975C9.20191 15.4007 9.19283 15.4039 9.18374 15.4071C9.17901 15.3904 9.17429 15.3733 9.1692 15.3562C9.16302 15.359 9.15466 15.3601 9.15393 15.363C9.13866 15.4203 9.12667 15.4787 9.10849 15.535C9.10304 15.5517 9.08268 15.5696 9.06523 15.5763C8.93727 15.6251 8.92018 15.6775 8.99434 15.7783C8.95544 15.8225 8.92018 15.8677 8.87983 15.9073C8.79695 15.9885 8.70788 16.064 8.629 16.1488C8.60646 16.1726 8.59992 16.2211 8.60355 16.256C8.61119 16.3233 8.5821 16.3212 8.53775 16.2984C8.49522 16.2763 8.45487 16.2499 8.39925 16.2168C8.36399 16.2987 8.328 16.3832 8.28292 16.4879C8.22658 16.5022 8.17532 16.5346 8.14188 16.6368C8.10298 16.7576 7.98701 16.8541 7.90558 16.9617C7.84996 17.0354 7.80743 17.123 7.73836 17.1818C7.66638 17.2431 7.63985 17.3564 7.51661 17.3646C7.45408 17.3688 7.39083 17.3952 7.33267 17.4216C7.29959 17.4365 7.2716 17.4686 7.24869 17.4981C7.2167 17.5398 7.19126 17.5868 7.15854 17.6385C7.17344 17.6592 7.1978 17.6891 7.21707 17.7219C7.22652 17.7375 7.23306 17.7607 7.22797 17.7767C7.22506 17.786 7.19671 17.7878 7.17962 17.7927C7.14981 17.8016 7.11964 17.8106 7.07565 17.8237C7.10583 17.8515 7.12655 17.87 7.14909 17.8907C7.11419 17.9074 7.08111 17.9231 7.04694 17.9395C7.05348 17.9545 7.05675 17.963 7.06075 17.9716C7.07202 17.9958 7.08329 18.02 7.09456 18.0446C7.06111 18.0464 7.0244 18.0571 6.99459 18.0474C6.96296 18.0375 6.93715 18.0083 6.89498 17.9769C6.88008 18.1304 6.77502 18.149 6.65978 18.1757C6.62234 18.1842 6.58453 18.2815 6.58562 18.3371C6.58671 18.3973 6.59035 18.4311 6.52019 18.4311C6.41295 18.4311 6.37187 18.5141 6.32643 18.5857C6.29444 18.6359 6.27517 18.6936 6.24573 18.7574C6.16284 18.6901 6.12031 18.7385 6.04761 18.7827C5.96945 18.8304 5.89892 18.8774 5.84185 18.9462C5.79314 19.005 5.74697 19.0659 5.69644 19.1232C5.67681 19.1453 5.64482 19.1567 5.62519 19.1784C5.61101 19.1941 5.6081 19.2198 5.59211 19.2632C5.50486 19.2928 5.49868 19.3359 5.60847 19.4962C5.53285 19.5176 5.46669 19.5486 5.39835 19.5532C5.26639 19.5625 5.21404 19.6444 5.28493 19.7694C5.19514 19.7933 5.15115 19.8553 5.11226 19.9365C5.09335 19.976 5.00138 19.9807 4.94394 20.0045C4.92068 20.0141 4.88178 20.0366 4.88396 20.0476C4.90214 20.1574 4.88723 20.1826 4.76909 20.2168C4.75709 20.2204 4.74509 20.2229 4.72619 20.2279C4.73383 20.2817 4.75164 20.3337 4.74219 20.38C4.73819 20.3985 4.67384 20.4049 4.63676 20.4167C4.63168 20.4071 4.62695 20.3971 4.62186 20.3875C4.53425 20.4815 4.44591 20.5752 4.35976 20.671C4.34994 20.6821 4.35394 20.7042 4.34994 20.7205C4.34158 20.7537 4.34013 20.7925 4.32122 20.8189C4.27251 20.8872 4.21689 20.9517 4.16091 21.0151C4.1471 21.0312 4.12201 21.0479 4.10238 21.0476C3.93116 21.0443 3.89226 21.158 3.85046 21.2901C3.83156 21.3493 3.75558 21.3938 3.69996 21.4387C3.63998 21.4871 3.58291 21.5285 3.60217 21.6204C3.61271 21.6709 3.49166 21.7707 3.43713 21.7675C3.34152 21.7618 3.24773 21.8362 3.22447 21.9417C3.25064 21.9488 3.27754 21.9563 3.30226 21.963C3.30408 21.973 3.30808 21.9801 3.3059 21.9841C3.21793 22.1429 3.06743 22.2413 2.9311 22.3531C2.91656 22.3652 2.89475 22.3738 2.88821 22.3891C2.84604 22.4874 2.76897 22.5401 2.66391 22.5455C2.51596 22.5533 2.47779 22.6637 2.43744 22.7695C2.41235 22.8354 2.42253 22.9191 2.31711 22.9284C2.30584 22.9295 2.29275 22.9769 2.2913 23.0036C2.28403 23.1339 2.27203 23.1478 2.17279 23.1553C2.11063 23.2422 2.05574 23.3099 2.01175 23.3837C1.96849 23.4567 1.9245 23.5329 1.90269 23.6131C1.8867 23.6722 1.87361 23.7089 1.80636 23.7174C1.69185 23.732 1.5777 23.7488 1.46464 23.7719C1.34977 23.7955 1.24217 23.8435 1.11784 23.8329C1.04732 23.8268 0.95898 23.8467 0.975702 23.9351C0.930625 23.9525 0.895363 23.9668 0.859738 23.9793C0.836108 23.9875 0.795394 24.0053 0.790668 23.9985C0.748499 23.9419 0.699787 23.9639 0.644167 23.9892C0.639078 23.9504 0.635442 23.9198 0.631444 23.8895C0.626718 23.8945 0.621629 23.8995 0.616903 23.9045C0.576915 23.8681 0.535109 23.8332 0.497303 23.7951C0.448227 23.7459 0.400605 23.6954 0.355164 23.643C0.315904 23.5974 0.258103 23.5611 0.273371 23.4855C0.275552 23.4741 0.248288 23.4513 0.230475 23.4424C0.196668 23.4257 0.159588 23.415 0.101787 23.3936C0.144683 23.3655 0.172675 23.3473 0.198848 23.3302C0.154135 23.213 0.109058 23.0923 0.0610725 22.9729C0.0516209 22.9491 0.029082 22.9305 0 22.8935C0.0378066 22.8707 0.0839746 22.8426 0.133778 22.8126C0.0487127 22.7033 0.192305 22.653 0.204302 22.5647C0.21448 22.4906 0.242471 22.419 0.256649 22.3666C0.306088 22.3446 0.358436 22.3328 0.391517 22.3011C0.40424 22.289 0.37334 22.2327 0.362435 22.1964L0.337715 22.2006C0.356619 22.1572 0.37116 22.1105 0.396243 22.071C0.413692 22.0439 0.442774 22.0179 0.472583 22.0058C0.531837 21.9819 0.59909 21.9752 0.655073 21.9467C0.682701 21.9324 0.697968 21.8872 0.710328 21.853C0.724506 21.8127 0.720871 21.765 0.740501 21.7286C0.753225 21.7055 0.795757 21.682 0.822294 21.6845C1.03423 21.7041 1.13493 21.6535 1.2349 21.4693C1.24907 21.443 1.27052 21.4205 1.28797 21.3956C1.3156 21.3568 1.34941 21.3204 1.36904 21.278C1.42575 21.1566 1.42357 21.1555 1.53808 21.1159L1.54026 21.1124ZM14.6548 13.014C14.5835 13.0949 14.533 13.0785 14.4879 13.0026C14.4629 12.9609 14.3756 12.967 14.392 12.889C14.376 12.8897 14.3582 12.895 14.3443 12.8901C14.3247 12.8833 14.2916 12.8598 14.2924 12.8587C14.3578 12.7419 14.2473 12.6995 14.192 12.6371C14.1789 12.6222 14.1415 12.6222 14.116 12.6247C14.0597 12.6304 13.9594 12.5474 13.9681 12.4925C13.9801 12.4166 13.9986 12.3418 14.0081 12.2984C13.9481 12.2211 13.8921 12.1712 13.8659 12.1092C13.8416 12.0511 13.8161 12.0544 13.7722 12.0722C13.7714 12.0725 13.7663 12.0636 13.7612 12.0558C13.7838 12.0494 13.8052 12.0433 13.8107 12.0419C13.7892 12.0056 13.7692 11.9717 13.7489 11.9375C13.686 11.8634 13.5097 11.8556 13.6257 11.6793C13.5224 11.6721 13.4802 11.6219 13.4762 11.535C13.4752 11.5111 13.465 11.4726 13.449 11.4669C13.3494 11.4299 13.4083 11.2618 13.2694 11.261C13.2672 11.261 13.2636 11.25 13.2629 11.2439C13.2447 11.0861 13.1076 11.0245 13.0026 10.9376C12.988 10.9255 12.9502 10.9429 12.9317 10.9326C12.8812 10.9041 12.8354 10.8678 12.7841 10.8322C12.8833 10.674 12.8081 10.534 12.7205 10.4033C12.6819 10.3801 12.646 10.3523 12.6198 10.3174C12.538 10.2084 12.4602 10.0966 12.3853 9.99218C12.3755 9.94872 12.3788 9.89565 12.3533 9.87035C12.3286 9.84613 12.2744 9.85076 12.2235 9.84079C12.2065 9.81656 12.1835 9.7788 12.1556 9.74496C12.1058 9.68547 12.0527 9.62883 11.9923 9.5608C11.8796 9.57896 11.8684 9.56685 11.824 9.43006C11.8077 9.37984 11.7731 9.32711 11.7313 9.29505C11.6197 9.20956 11.4463 9.19104 11.4241 9.01186C11.4234 9.00687 11.4161 9.00153 11.4107 8.99832C11.3344 8.9513 11.3631 8.9025 11.4012 8.84586C11.4307 8.8024 11.4474 8.75039 11.4729 8.69553C11.382 8.6852 11.3845 8.68591 11.4023 8.62927C11.4074 8.61289 11.3954 8.5908 11.3922 8.57442C11.354 8.61217 11.3267 8.66311 11.2958 8.66525C11.2089 8.67131 11.1413 8.62999 11.1202 8.5591C11.1657 8.50068 11.2024 8.45366 11.2387 8.40628C11.2366 8.39559 11.2347 8.38526 11.2326 8.37457C11.1046 8.46791 11.0435 8.36602 10.9567 8.30796C10.9981 8.27661 11.0344 8.24918 11.0686 8.22354C11.0355 8.12914 10.9232 8.15407 10.8589 8.0839C10.808 8.02797 10.7574 7.97739 10.7334 7.90828C10.5877 7.89652 10.5644 7.86233 10.539 7.72233C10.523 7.63434 10.4899 7.5403 10.435 7.47084C10.3859 7.4085 10.2932 7.38071 10.2271 7.32871C10.1758 7.2881 10.1264 7.23858 10.0958 7.18265C10.0849 7.16271 10.1424 7.11426 10.1514 7.07507C10.1583 7.04515 10.1496 6.99279 10.1285 6.97925C10.086 6.95182 10.0246 6.95325 9.98131 6.92653C9.88861 6.86882 9.78574 6.81468 9.71921 6.73381C9.65014 6.65046 9.6207 6.53611 9.57089 6.43672C9.53563 6.36619 9.46438 6.2978 9.46547 6.2294C9.46729 6.14213 9.43203 6.16136 9.39531 6.16564C9.37023 6.12788 9.35496 6.08513 9.32442 6.06233C9.21646 5.98183 9.08777 5.92198 8.99652 5.82687C8.93036 5.75776 8.85766 5.67013 8.82966 5.58215C8.79622 5.47742 8.76823 5.38765 8.67662 5.31427C8.63227 5.27864 8.59846 5.20277 8.60064 5.14649C8.60392 5.0617 8.57447 5.04532 8.51122 5.05636C8.49413 5.02145 8.48686 4.97372 8.46287 4.96374C8.37271 4.92598 8.27093 4.90746 8.27929 4.77673C8.28001 4.76746 8.24439 4.75927 8.23021 4.74573C8.17714 4.69515 8.07535 4.68126 8.08807 4.58045C8.10261 4.46503 8.07535 4.37633 7.97247 4.30259C7.88486 4.2399 7.8187 4.14977 7.73654 4.07853C7.63948 3.9941 7.67256 3.88724 7.71728 3.81493C7.76744 3.73442 7.73545 3.73299 7.66602 3.7248C7.71728 3.54598 7.56496 3.46298 7.49407 3.33901C7.46063 3.35362 7.43191 3.36608 7.37665 3.38995C7.35702 3.31799 7.3403 3.25387 7.32103 3.19082C7.31631 3.17551 7.30722 3.15948 7.29522 3.14843C7.24542 3.10212 7.1938 3.05795 7.14363 3.012C7.11819 2.98884 7.09565 2.9632 7.0702 2.94004C6.97314 2.85241 6.86336 2.77475 6.78156 2.67466C6.72122 2.60092 6.70377 2.49476 6.65542 2.40998C6.59398 2.30276 6.51619 2.20729 6.38641 2.17416C6.41767 2.06089 6.40968 1.98062 6.36242 1.93336C6.39295 1.87209 6.45039 1.81082 6.36678 1.74349C6.31516 1.70181 6.26645 1.65586 6.22246 1.60635C6.18647 1.56574 6.1134 1.52762 6.1912 1.4578C6.20101 1.44889 6.17993 1.40757 6.16975 1.36625C6.13631 1.39439 6.11558 1.41826 6.08941 1.43215C6.04579 1.45531 5.99889 1.48772 5.95345 1.48737C5.86112 1.48701 5.76915 1.46492 5.67681 1.45673C5.65464 1.45459 5.62664 1.46564 5.60774 1.47917C5.53649 1.53118 5.36709 1.52477 5.32892 1.46564C5.34346 1.44213 5.35764 1.41826 5.38708 1.37017C5.33691 1.37872 5.30892 1.39012 5.28311 1.3862C5.25585 1.38192 5.23113 1.3634 5.20205 1.34915C5.13443 1.38335 5.05845 1.42182 4.96939 1.46671C4.96539 1.47169 4.95012 1.49235 4.93486 1.51301C4.92031 1.49307 4.90977 1.46671 4.89014 1.45495C4.85088 1.4318 4.80798 1.41149 4.764 1.40045C4.71819 1.38869 4.66948 1.38941 4.62186 1.38442C4.52698 1.42467 4.43319 1.48701 4.3394 1.54935C4.33431 1.55256 4.32668 1.55149 4.32013 1.55256C4.23689 1.56645 4.154 1.58462 4.07039 1.59281C4.03695 1.59601 3.99696 1.58426 3.96788 1.5668C3.90426 1.52833 3.84791 1.4781 3.78393 1.43963C3.73195 1.40864 3.68942 1.41968 3.6607 1.48167C3.65125 1.50197 3.61053 1.50803 3.584 1.5205C3.5451 1.43678 3.49493 1.49413 3.45349 1.49128C3.38188 1.46884 3.31026 1.44676 3.23828 1.42432C3.22701 1.43465 3.21574 1.44498 3.20448 1.45531C3.24664 1.56075 3.28627 1.66761 3.33316 1.77128C3.34262 1.79158 3.38151 1.81331 3.40478 1.81117C3.52438 1.80084 3.5571 1.87137 3.56836 1.96649C3.57818 2.04877 3.59381 2.13106 3.59526 2.2137C3.59636 2.27213 3.61417 2.3049 3.66542 2.33731C3.71632 2.36973 3.75267 2.42388 3.79593 2.4684C3.81083 2.48372 3.82501 2.5083 3.84283 2.51151C3.98024 2.53573 3.99369 2.65257 4.03404 2.74982C4.08094 2.86203 4.08893 2.99134 4.20017 3.07541C4.26306 3.12314 4.27288 3.19332 4.22307 3.25245C4.2547 3.30018 4.29251 3.33794 4.30741 3.38318C4.34667 3.50038 4.37575 3.62078 4.4092 3.73976C4.41174 3.74867 4.41392 3.76434 4.41865 3.76541C4.52116 3.78714 4.49063 3.88225 4.52916 3.93533C4.57642 3.96489 4.61859 3.99945 4.65349 4.04006C4.6822 4.07354 4.70329 4.11308 4.72583 4.1512C4.79672 4.27125 4.89487 4.3774 4.90795 4.52595C4.91232 4.57582 4.93813 4.615 5.00065 4.63317C5.06572 4.65205 5.12171 4.69551 5.10353 4.781C5.09008 4.84405 5.11807 4.88929 5.16569 4.93275C5.22967 4.99082 5.27911 5.06562 5.34673 5.11906C5.42125 5.17819 5.43579 5.23661 5.37436 5.31925C5.45215 5.36556 5.52013 5.41686 5.59683 5.44892C5.68881 5.48739 5.65536 5.56398 5.659 5.62347C5.66045 5.64769 5.60338 5.67548 5.57284 5.70184C5.58375 5.72713 5.60083 5.76311 5.61465 5.80015C5.65209 5.89847 5.68735 5.99608 5.82913 5.97007C5.8513 5.96615 5.87966 5.98005 5.90147 5.99251C5.99162 6.04381 6.06251 6.10936 6.07851 6.21907C6.08105 6.23546 6.11486 6.24935 6.13631 6.26111C6.229 6.31276 6.24573 6.36014 6.18138 6.41357C6.2101 6.42604 6.23518 6.44029 6.26209 6.44777C6.32498 6.46487 6.35406 6.51117 6.3297 6.56318C6.29153 6.64583 6.33915 6.70603 6.38059 6.75376C6.47947 6.8674 6.58599 6.97319 6.63543 7.11996C6.64197 7.13955 6.67323 7.15487 6.69613 7.16484C6.76666 7.19548 6.78774 7.24143 6.75466 7.31196C6.74703 7.32799 6.75103 7.34937 6.74994 7.36825C6.75721 7.36255 6.76448 7.35685 6.77175 7.35115C6.82264 7.39603 6.87935 7.43593 6.9237 7.48651C6.99277 7.56488 7.0393 7.67139 7.12255 7.72661C7.20144 7.77897 7.22579 7.81994 7.18689 7.9097C7.23379 7.91255 7.27341 7.91469 7.32249 7.91754C7.31958 7.95174 7.32794 7.99235 7.31158 8.01871C7.27523 8.07749 7.28795 8.12664 7.33485 8.16227C7.37811 8.19539 7.43155 8.21855 7.48353 8.2385C7.58423 8.27697 7.60495 8.32292 7.55842 8.40699C7.55042 8.42124 7.55914 8.44831 7.5675 8.46612C7.58386 8.50032 7.60277 8.53452 7.6264 8.56444C7.65511 8.60113 7.6842 8.65243 7.72309 8.66347C7.80089 8.6852 7.85396 8.7137 7.84596 8.80133H8.03245C7.99646 8.84087 7.97683 8.8626 7.95212 8.88967C7.98483 8.9025 8.0081 8.91639 8.03282 8.91995C8.11825 8.93206 8.16114 8.98158 8.18695 9.05959C8.20149 9.10376 8.23748 9.14223 8.26693 9.18071C8.30583 9.23093 8.36362 9.26656 8.33672 9.3492C8.31164 9.42614 8.36908 9.4753 8.44978 9.45998C8.56138 9.43861 8.60755 9.47388 8.61119 9.58395C8.61373 9.66054 8.61409 9.73748 8.61737 9.81407C8.61955 9.87178 8.64136 9.91346 8.71043 9.91132C8.74278 9.91025 8.7755 9.91132 8.79149 9.91132C8.81112 9.9562 8.82458 9.98898 8.84021 10.0207C8.85293 10.0463 8.87111 10.0698 8.88165 10.0962C8.91073 10.1689 8.99907 10.2166 8.97653 10.311C9.08195 10.3502 9.13575 10.44 9.18919 10.5272C9.23827 10.6077 9.30261 10.69 9.31606 10.7777C9.32697 10.8496 9.3466 10.9002 9.38913 10.9572C9.45384 11.0438 9.55235 11.1239 9.50546 11.2553C9.50218 11.2643 9.512 11.2771 9.51818 11.2963C9.57235 11.2678 9.61997 11.2429 9.66614 11.2183C9.70176 11.2671 9.74429 11.3123 9.77047 11.3654C9.79373 11.4132 9.79882 11.4698 9.81046 11.5168C9.8857 11.5528 9.96677 11.5913 10.0533 11.6326C10.014 11.6907 9.98931 11.7273 9.9755 11.7473C10.0329 11.8616 10.086 11.9639 10.1347 12.0682C10.1427 12.0857 10.1402 12.1224 10.1278 12.1324C10.0238 12.2154 10.0773 12.3155 10.0831 12.4238C10.1991 12.3792 10.2369 12.4526 10.2881 12.5239C10.3172 12.5641 10.3837 12.609 10.4263 12.6029C10.5335 12.5883 10.56 12.6247 10.5397 12.7073C10.6008 12.7376 10.6898 12.754 10.7011 12.7921C10.732 12.8961 10.7662 12.988 10.8523 13.0625C10.9646 13.1597 11.065 13.2709 11.1773 13.3681C11.254 13.4344 11.2682 13.5238 11.1897 13.5904C11.2962 13.6759 11.4081 13.7607 11.3594 13.9242C11.4034 13.906 11.4358 13.8928 11.4681 13.8796C11.4638 13.89 11.459 13.8999 11.4547 13.9103C11.4783 13.9331 11.499 13.9605 11.5263 13.9776C11.5452 13.9894 11.5786 13.9794 11.5965 13.9918C11.6386 14.0214 11.6757 14.0585 11.7233 14.0998C11.7139 14.1764 11.5492 14.2569 11.7084 14.3541C11.8324 14.3153 11.8695 14.3352 11.9156 14.461C11.9411 14.5312 11.9629 14.6053 12.0029 14.6676C12.0541 14.7481 12.1217 14.819 12.181 14.8917C12.2134 14.8885 12.2414 14.8856 12.2548 14.8842C12.2697 14.9754 12.285 15.0605 12.297 15.146C12.3042 15.1984 12.3242 15.2148 12.3824 15.2062C12.4446 15.1973 12.4722 15.2308 12.4965 15.2981C12.5314 15.3936 12.5067 15.5186 12.6234 15.5831C12.6492 15.5973 12.6707 15.6415 12.6718 15.6725C12.6747 15.7701 12.7303 15.7616 12.8015 15.7477C12.7935 15.7227 12.7877 15.7042 12.7768 15.6704C12.8895 15.7348 12.7852 15.8211 12.8328 15.8748C12.8782 15.9048 12.9139 15.9422 12.9488 15.9806C12.9593 15.9924 12.9669 16.017 12.9768 16.0173C13.0836 16.0234 13.1094 16.1135 13.1654 16.1776C13.2381 16.2613 13.3287 16.3297 13.2047 16.4298C13.2363 16.4683 13.2847 16.5182 13.2803 16.5228C13.2127 16.5976 13.301 16.6193 13.3276 16.6546C13.4235 16.7814 13.5253 16.9043 13.6115 17.0115C13.6555 17.0222 13.6838 17.029 13.7122 17.0358C13.7005 17.0817 13.6889 17.128 13.674 17.1865C13.6853 17.1982 13.7107 17.2192 13.7278 17.2456C13.7398 17.2638 13.75 17.2926 13.7438 17.3111C13.7071 17.4169 13.7144 17.429 13.8234 17.4515C13.8278 17.4981 13.8205 17.5448 13.8394 17.5762C13.8525 17.5972 13.9023 17.5979 13.9361 17.6057C13.9601 17.6114 13.9957 17.6047 14.0077 17.6186C14.0622 17.6827 14.1346 17.7464 14.1535 17.8216C14.1728 17.8985 14.1986 17.905 14.2611 17.8932C14.2847 17.8886 14.3102 17.8925 14.3389 17.8925C14.3389 17.9188 14.3363 17.9384 14.3393 17.9573C14.3502 18.0254 14.34 18.1148 14.3803 18.1561C14.4349 18.212 14.425 18.2658 14.4127 18.3143C14.3752 18.461 14.3796 18.4799 14.505 18.575C14.5526 18.6113 14.625 18.6423 14.5854 18.73C14.5792 18.7435 14.6072 18.7887 14.6264 18.7937C14.6901 18.8101 14.7562 18.8176 14.822 18.8226C14.89 18.8276 14.9663 18.9237 14.9369 18.98C14.8951 19.0595 14.9383 19.1022 14.9954 19.1457C15.0456 19.1838 15.0936 19.2251 15.1434 19.2657C15.0481 19.3605 15.0489 19.3605 15.151 19.426C15.1688 19.4374 15.1874 19.4549 15.1946 19.4738C15.2335 19.5728 15.2997 19.6622 15.2786 19.7819C15.2732 19.8125 15.3389 19.8585 15.3771 19.8916C15.4047 19.9151 15.4513 19.9208 15.472 19.9475C15.5054 19.991 15.5291 19.9999 15.5741 19.9643C15.6319 19.9183 15.6872 19.9244 15.7108 19.9995C15.7465 20.1139 15.7915 20.2293 15.8014 20.3469C15.8097 20.4462 15.8395 20.4872 15.9133 20.4776C15.9551 20.546 15.9762 20.6176 16.0253 20.6532C16.1191 20.7213 16.1674 20.7985 16.1416 20.9097C16.1223 20.9909 16.1602 21.0023 16.2292 21.0009C16.2565 21.0002 16.2987 21.0166 16.3092 21.0372C16.3837 21.1861 16.4212 21.3429 16.3935 21.4846C16.4524 21.5299 16.5095 21.5612 16.5491 21.6072C16.588 21.6521 16.6178 21.7091 16.6364 21.7657C16.6607 21.8394 16.8196 21.9064 16.8734 21.8505C16.965 21.7554 17.0624 21.755 17.1646 21.8109C17.1842 21.7721 17.2009 21.7386 17.2238 21.6934C17.3023 21.7636 17.2449 21.905 17.4165 21.9025C17.5903 21.8996 17.591 21.9338 17.6739 21.7942C17.7473 21.8515 17.8175 21.906 17.8771 21.9524C17.9981 21.9381 18.1148 21.9313 18.2275 21.9075C18.2857 21.895 18.305 21.9135 18.3406 21.9509C18.3918 22.0047 18.4594 22.0443 18.5223 22.0867C18.6132 22.1483 18.6892 22.1315 18.7492 22.04C18.7543 22.0322 18.7717 22.0325 18.7637 22.035C18.8019 22.0838 18.8332 22.1241 18.8644 22.164C18.8717 22.159 18.879 22.1543 18.8862 22.1493C18.879 22.1308 18.8717 22.1123 18.8641 22.0934C18.9077 22.1187 18.9288 22.1704 18.9658 22.1871C18.992 22.1989 19.0404 22.164 19.0894 22.1461C19.0902 22.1579 19.0916 22.1889 19.0938 22.2373C19.1829 22.1276 19.2661 22.1757 19.3461 22.212C19.3417 22.2491 19.3381 22.279 19.3363 22.295C19.3926 22.3025 19.4384 22.3118 19.4842 22.3139C19.5224 22.3157 19.562 22.3139 19.5991 22.3054C19.6922 22.2851 19.7783 22.2249 19.8794 22.3068C19.9194 22.3392 20.0023 22.3456 20.0568 22.3314C20.1829 22.2975 20.2862 22.3193 20.384 22.4012C20.4058 22.4194 20.445 22.4215 20.4767 22.4233C20.5355 22.4265 20.5944 22.4244 20.6548 22.4244C20.6515 22.4689 20.6497 22.4977 20.6493 22.5016C20.7442 22.5116 20.8293 22.5138 20.9111 22.5312C20.9769 22.5451 21.0365 22.5879 21.1023 22.5985C21.1528 22.6064 21.2084 22.5839 21.2615 22.575C21.1779 22.5262 21.0979 22.5034 21.0259 22.4657C20.9398 22.4208 20.8587 22.3663 20.7798 22.3096C20.7606 22.2958 20.7497 22.2562 20.7529 22.2306C20.762 22.1568 20.7642 22.0749 20.7998 22.0133C20.8424 21.9388 20.8096 21.8886 20.7635 21.8583C20.6904 21.8102 20.6293 21.7611 20.6228 21.6688C20.541 21.6752 20.4676 21.7621 20.3996 21.6603C20.4254 21.6382 20.4479 21.6186 20.4817 21.5897C20.3396 21.5363 20.4607 21.4105 20.4003 21.3304C20.4694 21.2791 20.4058 21.2342 20.3938 21.1861C20.385 21.1512 20.38 21.1152 20.3727 21.0771C20.2625 21.0276 20.1422 20.9795 20.0295 20.9182C20.0041 20.9044 19.9979 20.8466 19.9928 20.8082C19.9881 20.7715 20.0008 20.7334 19.999 20.6963C19.9975 20.6653 19.9881 20.6343 19.979 20.6044C19.9634 20.5538 19.9564 20.4958 19.9255 20.4562C19.8637 20.3771 19.7838 20.318 19.7554 20.209C19.7398 20.1484 19.6576 20.1043 19.6016 20.0491C19.626 20.0099 19.6536 19.9657 19.6853 19.9151C19.5955 19.9237 19.5366 19.8799 19.5224 19.8068C19.51 19.7434 19.3752 19.6237 19.3094 19.6138C19.2388 19.6034 19.1698 19.5831 19.0989 19.5774C19.0051 19.5699 18.9898 19.5105 19.0084 19.4435C19.0607 19.2558 19.0073 19.0816 18.9513 18.9017C18.8481 18.9697 18.7804 18.9081 18.7128 18.8432C18.7292 18.8137 18.7459 18.7838 18.7535 18.7699C18.6419 18.7129 18.5369 18.6577 18.43 18.6053C18.3068 18.5447 18.3064 18.5458 18.3588 18.4193C18.3791 18.3698 18.3897 18.3321 18.3122 18.3171C18.2813 18.311 18.2548 18.2626 18.2352 18.2288C18.1977 18.1646 18.2072 18.0895 18.169 18.0165C18.1174 17.9174 18.0636 17.8608 17.9585 17.8391C17.972 17.8109 17.9836 17.7874 17.9905 17.7732C17.94 17.7407 17.8971 17.7133 17.8447 17.6798C17.7066 17.7172 17.6361 17.672 17.6353 17.5288C17.5561 17.5003 17.4707 17.475 17.4765 17.3646C17.4765 17.361 17.4419 17.3592 17.427 17.351C17.3929 17.3325 17.3082 17.3724 17.3369 17.2773C17.3409 17.2645 17.3252 17.2427 17.3133 17.2292C17.2056 17.1059 17.214 16.9759 17.2827 16.8391C17.2962 16.8121 17.2943 16.7779 17.3034 16.7248C17.2504 16.7597 17.2209 16.7789 17.1911 16.7985C17.1871 16.7935 17.1835 16.7889 17.1795 16.7839C17.19 16.7747 17.2006 16.765 17.2122 16.7547C17.1973 16.7437 17.1693 16.7337 17.1664 16.7194C17.1529 16.6486 17.1042 16.6233 17.045 16.5891C16.9926 16.5588 16.9457 16.49 16.9326 16.4305C16.9145 16.3486 16.8639 16.2663 16.7836 16.235C16.7352 16.2165 16.6742 16.1869 16.6556 16.1459C16.6037 16.0326 16.463 15.9764 16.4597 15.831C16.4582 15.7723 16.4168 15.7142 16.4015 15.6757C16.351 15.6155 16.3059 15.5721 16.2739 15.5204C16.2481 15.4787 16.2383 15.4278 16.2172 15.3694C16.1772 15.4018 16.1576 15.4178 16.1358 15.4353C16.1151 15.3868 16.0689 15.332 16.0809 15.2949C16.1071 15.213 16.0624 15.1845 16.0147 15.1474C15.909 15.2083 15.7872 15.1343 15.7723 15.0203C15.7643 14.9576 15.733 14.8885 15.6905 14.8414C15.6279 14.7723 15.5345 14.7271 15.5552 14.6167C15.5138 14.6138 15.4782 14.6113 15.4309 14.6081C15.4676 14.5543 15.4924 14.5187 15.5153 14.4852C15.412 14.4108 15.3139 14.3427 15.219 14.2704C15.0892 14.1717 15.1048 14.0289 15.1048 13.8914C14.9929 13.906 14.9336 13.8661 14.8711 13.7364C14.9343 13.6923 14.9976 13.6484 15.0914 13.5833C15.014 13.5394 14.9623 13.5031 14.9053 13.4803C14.8584 13.4618 14.8311 13.4454 14.8486 13.4151C14.8129 13.3881 14.7686 13.3713 14.7573 13.3421C14.7184 13.2424 14.6908 13.138 14.653 13.0165L14.6548 13.014Z" fill="currentColor"/>
</svg>