<svg width="9" height="18" viewBox="0 0 9 18" fill="none" xmlns="http://www.w3.org/2000/svg">
<path d="M0.141605 10.3555C0.287371 10.4648 0.417531 10.5563 0.540599 10.656C0.794892 10.8618 0.792055 10.8579 1.1109 10.7909C1.61416 10.6851 2.1192 10.5879 2.62317 10.4868C2.99628 10.4119 3.36903 10.3352 3.74249 10.2618C3.92939 10.2249 4.11665 10.1912 4.30462 10.1596C4.38017 10.1468 4.38868 10.1142 4.35002 10.0549C4.25639 9.91226 4.17907 9.76215 4.15709 9.59005C4.13722 9.43498 4.11559 9.28027 4.10495 9.12449C4.08154 8.79271 4.06416 8.46022 4.04537 8.12808C4.03153 7.88501 4.01806 7.64158 4.00742 7.39816C3.99359 7.08944 3.98082 6.78036 3.9716 6.47165C3.96663 6.30593 3.97018 6.14022 3.9684 5.97451C3.96238 5.46104 3.95528 4.94757 3.94925 4.43375C3.94252 3.86883 3.93684 3.30427 3.92975 2.73935C3.92407 2.28018 3.92017 1.82065 3.90918 1.36148C3.9035 1.12337 3.89038 0.884916 3.86839 0.647522C3.86023 0.5581 3.81519 0.472227 3.79001 0.38387C3.75029 0.24477 3.8159 0.133347 3.95244 0.101411C4.08225 0.0712486 4.21135 0.0386023 4.34151 0.0102145C4.40783 -0.00433431 4.47451 -0.0128504 4.52522 0.0531513C4.53693 0.0684098 4.56317 0.0794101 4.58303 0.079765C4.68766 0.0804747 4.74263 0.15038 4.7671 0.23306C4.80434 0.36045 4.84087 0.492809 4.84548 0.624457C4.86605 1.21883 4.87705 1.8132 4.88733 2.40792C4.89656 2.93736 4.90081 3.46679 4.90755 3.99587C4.91358 4.46782 4.9189 4.93977 4.92635 5.41136C4.93096 5.6924 4.93912 5.97309 4.94514 6.25413C4.95188 6.55894 4.95543 6.86411 4.96571 7.16857C4.97423 7.41767 4.98912 7.66642 5.00366 7.91552C5.02175 8.22921 5.04019 8.54325 5.06254 8.85658C5.0785 9.07943 5.10261 9.30121 5.11928 9.52405C5.13205 9.69651 5.09162 9.85903 4.99196 10.0262C5.14553 10.0013 5.27888 9.98287 5.41081 9.95803C5.73178 9.89771 6.0524 9.83525 6.37266 9.77138C6.59042 9.72809 6.80854 9.6848 7.02488 9.6337C7.16249 9.60105 7.29336 9.62234 7.41785 9.67167C7.55404 9.72561 7.68207 9.79941 7.81471 9.86258C7.86259 9.88529 7.88032 9.90658 7.84025 9.95555C7.67143 10.1603 7.51396 10.3753 7.3345 10.5701C7.19086 10.7263 6.98303 10.7667 6.78158 10.8068C6.33613 10.8955 5.89103 10.9871 5.44486 11.0719C5.01076 11.1546 4.57488 11.2277 4.14077 11.3104C3.59175 11.4147 3.04345 11.5236 2.49479 11.6322C2.17098 11.6964 1.84895 11.7681 1.52443 11.8277C1.42832 11.8455 1.44534 11.8788 1.47655 11.9416C1.75071 12.4956 2.01386 13.0551 2.29759 13.6041C2.61218 14.2134 2.93599 14.818 3.27327 15.4149C3.48642 15.7921 3.72972 16.1523 3.96238 16.5181C4.00813 16.5901 4.06771 16.6533 4.13297 16.7353C4.23298 16.5689 4.33087 16.4195 4.41493 16.263C4.73731 15.6643 5.04729 15.059 5.37712 14.4646C5.6151 14.0352 5.86655 13.6126 6.13149 13.1996C6.42266 12.7457 6.72767 12.3004 7.04297 11.8629C7.37316 11.4047 7.7186 10.9573 8.0683 10.5134C8.12327 10.4435 8.23073 10.4076 8.32046 10.3743C8.40877 10.3416 8.50914 10.3427 8.59745 10.3107C8.71591 10.2678 8.81841 10.3111 8.91416 10.3601C8.95779 10.3824 9.0007 10.4552 8.99999 10.5041C8.99822 10.617 8.9819 10.733 8.94857 10.8409C8.90069 10.9953 8.83756 11.1454 8.77088 11.2926C8.73719 11.3668 8.68328 11.4328 8.63363 11.4988C8.46126 11.728 8.28641 11.9551 8.11334 12.1836C7.98318 12.3554 7.85124 12.5257 7.72569 12.7003C7.55475 12.9377 7.38557 13.1765 7.22278 13.4196C7.06496 13.6552 6.91671 13.8972 6.76243 14.1353C6.68937 14.2478 6.60815 14.3553 6.53793 14.4692C6.45458 14.6044 6.37798 14.7435 6.2996 14.8819C6.20384 15.0508 6.10843 15.2201 6.01516 15.3904C5.9343 15.5384 5.85734 15.6885 5.7786 15.8375C5.65979 16.0625 5.54098 16.2875 5.42252 16.5128C5.32038 16.7069 5.22036 16.9017 5.1168 17.0951C5.07034 17.182 5.01891 17.2665 4.96678 17.3502C4.83626 17.5599 4.69404 17.759 4.49153 17.9091C4.30888 18.0443 4.03366 18.0234 3.85137 17.8814C3.47223 17.5862 3.20375 17.2047 2.96152 16.7995C2.83703 16.5916 2.70475 16.3882 2.58345 16.1785C2.45435 15.9553 2.33058 15.7293 2.21035 15.5011C1.82696 14.7733 1.44002 14.0473 1.06621 13.3142C0.830713 12.8518 0.616142 12.3788 0.391996 11.9108C0.38242 11.8909 0.373908 11.8675 0.357948 11.8551C0.170687 11.7071 0.101882 11.4881 0.0181818 11.2798C-0.0229589 11.1766 0.00896168 11.0804 0.0813127 10.9949C0.103302 10.969 0.117843 10.9285 0.118907 10.8945C0.123163 10.7593 0.119261 10.6237 0.121389 10.4885C0.122098 10.4513 0.132384 10.4144 0.14196 10.3555H0.141605Z" fill="currentColor"/>
</svg>
