<svg width="17" height="18" viewBox="0 0 17 18" fill="none" xmlns="http://www.w3.org/2000/svg">
<path d="M6.50004 14.565C6.44117 14.8779 6.40078 15.1804 6.32516 15.4732C6.2491 15.7665 6.14812 16.0541 6.03898 16.3365C5.96336 16.532 5.85464 16.7106 5.73218 16.8864C5.57363 17.1143 5.35362 17.2142 5.12417 17.3168C5.07562 17.3386 5.02061 17.346 4.97077 17.3661C4.80448 17.4346 4.67342 17.4045 4.52733 17.2823C4.20721 17.0152 4.03361 16.6678 3.92275 16.2785C3.88107 16.1318 4.04006 15.9106 4.18229 15.8752C4.36877 15.8289 4.55225 15.7696 4.70694 15.6439C4.88655 15.4981 4.91276 15.2821 4.9553 15.0774C5.02577 14.7413 5.07519 14.4009 5.14823 14.0653C5.17616 13.9357 5.12245 13.875 5.0305 13.813C4.89987 13.7253 4.76796 13.6376 4.64678 13.5368C4.50026 13.4146 4.36104 13.2819 4.22483 13.1475C4.11139 13.0353 4.00568 12.9153 3.89869 12.7966C3.58158 12.4431 3.41228 11.9983 3.18154 11.5916C3.16478 11.5619 3.14888 11.5313 3.1231 11.4838C2.96884 11.6889 2.82962 11.8883 2.67536 12.0751C2.54388 12.234 2.39907 12.382 2.25212 12.5264C2.09098 12.6844 1.93286 12.8507 1.75067 12.9807C1.55731 13.1187 1.34289 13.2304 1.12676 13.3303C1.00043 13.3888 0.859921 13.377 0.746053 13.2657C0.580193 13.1038 0.3907 12.9707 0.314215 12.7259C0.261363 12.5565 0.142768 12.4099 0.0744468 12.2445C-0.0132101 12.0319 -0.0170763 11.8093 0.0297599 11.5807C0.0903463 11.2826 0.125581 10.9792 0.18273 10.6803C0.240308 10.3813 0.313784 10.0859 0.376519 9.7882C0.423355 9.56693 0.454723 9.34216 0.510154 9.12307C0.631326 8.64648 0.752069 8.16945 0.895156 7.69941C0.985821 7.40132 1.10313 7.10978 1.23203 6.82653C1.42153 6.41061 1.63293 6.00516 1.83274 5.59403C1.95048 5.35137 2.07251 5.11046 2.17434 4.86125C2.25384 4.66747 2.3806 4.56011 2.58298 4.53043C2.70029 4.51341 2.81587 4.48373 2.9306 4.45406C2.95466 4.44795 2.98044 4.41914 2.99162 4.39426C3.42002 3.45592 3.96787 2.5909 4.59479 1.78044C4.8569 1.44176 5.16112 1.13232 5.47437 0.840348C5.64023 0.685849 5.86109 0.588088 6.06691 0.484215C6.22289 0.40522 6.41625 0.386889 6.55289 0.286072C6.71746 0.164306 6.90695 0.145538 7.08313 0.0831278C7.24555 0.025518 7.42688 0.00631517 7.60048 0.00107791C7.8106 -0.00546866 8.022 0.0194077 8.23298 0.0325008C8.74861 0.0647973 9.24619 0.17478 9.70854 0.414385C9.996 0.56321 10.2822 0.716836 10.5585 0.88661C11.044 1.18513 11.4445 1.58928 11.8248 2.01044C12.3928 2.64022 12.8406 3.35467 13.1843 4.13284C13.3188 4.43791 13.4176 4.75956 13.5332 5.07336C13.5543 5.13097 13.5792 5.18727 13.6045 5.24925C13.7648 5.18989 13.9045 5.20953 14.0158 5.34395C14.2611 5.36228 14.381 5.5709 14.5288 5.71842C14.888 6.07717 15.2279 6.45643 15.4947 6.89506C15.6877 7.21235 15.8948 7.52178 16.068 7.84998C16.3541 8.3916 16.6261 8.94195 16.7959 9.53551C16.8912 9.86938 16.9639 10.2072 16.9918 10.5568C17.0292 11.022 16.9372 11.4593 16.7499 11.877C16.6373 12.1275 16.5539 12.3964 16.3541 12.6002C16.202 12.7551 16.0142 12.845 15.8097 12.8603C15.5734 12.8782 15.3237 12.8887 15.0973 12.8306C14.7965 12.7538 14.5082 12.6181 14.2229 12.488C14.0334 12.4016 13.8688 12.2536 13.6754 12.1838C13.4791 12.1131 13.3489 11.9695 13.1955 11.8499C13.1319 11.8002 13.11 11.8351 13.0833 11.8883C12.9291 12.1995 12.7838 12.5146 12.5707 12.7935C12.3279 13.1112 12.0804 13.4224 11.7547 13.6585C11.5175 13.8305 11.2812 14.0029 11.0462 14.1779C11.023 14.1954 10.9993 14.2303 10.9985 14.2582C10.9864 14.6763 10.9714 15.0944 10.9723 15.5125C10.9727 15.719 10.9985 15.9267 11.0294 16.1314C11.0354 16.1715 11.1158 16.223 11.1669 16.23C11.4037 16.2628 11.6426 16.2811 11.8806 16.3068C11.9103 16.3099 11.9434 16.3191 11.9661 16.3365C12.0551 16.4055 12.1453 16.457 12.26 16.484C12.3163 16.4971 12.3825 16.6032 12.3898 16.6735C12.4117 16.8808 12.3907 17.0824 12.2768 17.2727C12.2072 17.3892 12.1836 17.5337 12.138 17.665C12.0555 17.9025 11.8239 18.0308 11.576 17.9937C11.3787 17.964 11.1746 17.9701 10.9809 17.9269C10.8421 17.8964 10.6904 17.8846 10.5709 17.7776C10.4622 17.6803 10.3303 17.6092 10.2237 17.5101C10.1322 17.4246 10.0523 17.322 9.9844 17.2155C9.90276 17.0876 9.83787 16.9484 9.76912 16.8122C9.64494 16.5661 9.55815 16.3095 9.54955 16.0293C9.5444 15.866 9.52506 15.7032 9.52936 15.5405C9.53537 15.3026 9.55729 15.0652 9.57147 14.8278C9.57362 14.7893 9.57147 14.7505 9.57147 14.7047C8.53634 14.8574 7.51969 14.8238 6.49918 14.5637L6.50004 14.565ZM10.3698 2.73362C10.3698 2.73362 10.3578 2.70874 10.3376 2.69434C10.0738 2.50798 9.8108 2.32031 9.54311 2.13919C9.48123 2.09729 9.39873 2.08682 9.33471 2.04666C9.11471 1.90919 8.86677 1.85899 8.62056 1.8088C8.41173 1.76603 8.19904 1.74203 7.9872 1.71584C7.87634 1.70231 7.75946 1.67831 7.65376 1.70057C7.44794 1.7429 7.24899 1.81666 7.04618 1.87383C6.55547 2.01131 6.20656 2.35348 5.88558 2.72401C5.62863 3.02079 5.36952 3.3167 5.16671 3.65974C4.93253 4.05602 4.66053 4.42918 4.43022 4.82765C4.27123 5.1026 4.13158 5.39458 4.02502 5.69441C3.90557 6.03091 3.88365 6.39315 3.87291 6.74972C3.86131 7.13597 3.86432 7.52353 3.87592 7.91021C3.88451 8.19782 3.92404 8.48413 3.93822 8.77174C3.95541 9.11696 4.00612 9.4552 4.10237 9.78602C4.20334 10.1334 4.29186 10.4856 4.41389 10.8256C4.53378 11.1591 4.71424 11.4624 4.9639 11.7181C5.20452 11.9647 5.45031 12.2052 5.7498 12.3789C5.96765 12.505 6.17691 12.6534 6.40809 12.7455C6.67063 12.8503 6.9495 12.9205 7.22708 12.9742C7.53302 13.0331 7.84497 13.0702 8.15607 13.0907C8.44138 13.1099 8.7297 13.1051 9.01588 13.0907C9.20279 13.0816 9.39443 13.0589 9.57275 13.0043C9.99256 12.876 10.3668 12.6521 10.717 12.385C11.3856 11.8748 11.8591 11.2175 12.1393 10.4215C12.236 10.147 12.3043 9.85978 12.3563 9.5726C12.4027 9.31685 12.4121 9.05412 12.4328 8.794C12.456 8.49897 12.4938 8.20306 12.4878 7.90846C12.4796 7.50825 12.4427 7.10847 12.4053 6.70957C12.3829 6.46866 12.3468 6.22818 12.2979 5.99163C12.2545 5.78257 12.193 5.57658 12.1243 5.3745C12.0336 5.10915 11.9468 4.83899 11.8235 4.58848C11.591 4.11494 11.2748 3.6964 10.9323 3.2988C10.8773 3.23508 10.8214 3.1718 10.766 3.10808C10.757 3.1155 10.748 3.12292 10.7389 3.13078V3.3263C10.876 3.35903 10.9387 3.47382 11.001 3.57638C11.1364 3.80071 11.105 4.04555 11.0462 4.28428C11.0195 4.39208 10.9568 4.48984 10.9241 4.59633C10.8511 4.83681 10.7651 5.06856 10.5735 5.24095C10.4824 5.323 10.3041 5.36403 10.2306 5.30249C10.0849 5.18116 9.93069 5.06071 9.81811 4.91057C9.69092 4.74123 9.60412 4.54047 9.50271 4.35149C9.46018 4.2725 9.41205 4.19307 9.38799 4.10752C9.30592 3.81729 9.27369 3.52139 9.31408 3.21937C9.34287 3.00552 9.39873 2.93743 9.6067 2.88768C9.66256 2.87415 9.71713 2.85538 9.77342 2.84491C9.97366 2.80607 10.1743 2.76941 10.369 2.73318L10.3698 2.73362ZM13.9672 7.32015C13.9552 7.32756 13.9431 7.33455 13.9311 7.34197C13.9195 7.6837 13.9088 8.02499 13.8963 8.36672C13.8899 8.53999 13.8795 8.71282 13.8735 8.88609C13.8576 9.34173 13.788 9.78864 13.6668 10.2277C13.6475 10.2975 13.6574 10.3604 13.7339 10.394C13.8284 10.4354 13.9255 10.4721 14.0153 10.5223C14.2091 10.6305 14.3917 10.7619 14.592 10.8549C14.8309 10.9662 15.0805 11.0561 15.331 11.1381C15.4853 11.1887 15.5347 11.1368 15.5545 10.9784C15.5863 10.7231 15.5476 10.4704 15.4827 10.2303C15.3908 9.88989 15.2623 9.55864 15.1385 9.22782C14.9753 8.79182 14.7355 8.39771 14.4721 8.01845C14.3079 7.78233 14.1352 7.55277 13.9668 7.32015H13.9672ZM1.61274 10.8138C1.62348 10.8182 1.63379 10.823 1.64454 10.8274C1.66 10.8108 1.67719 10.7955 1.69051 10.7772C1.83575 10.5738 1.98356 10.3717 2.12364 10.1649C2.207 10.0418 2.28478 9.92481 2.4545 9.92175C2.51638 9.92044 2.57782 9.89382 2.63669 9.87942C2.48716 9.15668 2.43688 8.44136 2.43087 7.71949C1.98442 8.70671 1.84907 9.7738 1.61274 10.8138Z" fill="currentColor"/>
<path d="M9.3592 6.71873C9.48725 6.69473 9.61487 6.67858 9.73819 6.64454C9.82241 6.62141 9.8903 6.61181 9.96335 6.67596C10.0093 6.71655 10.0703 6.74536 10.1296 6.76369C10.2439 6.79948 10.3041 6.87716 10.3131 7.00067C10.3294 7.23373 10.2615 7.45021 10.1958 7.66755C10.1004 7.98266 9.97237 8.28249 9.79877 8.56269C9.67116 8.76868 9.29818 8.93148 9.05541 8.84943C8.9076 8.79924 8.79244 8.71238 8.6631 8.63775C8.40271 8.48675 8.19947 8.2742 7.99021 8.06602C7.75431 7.83078 7.57427 7.55451 7.42044 7.25948C7.37532 7.17307 7.34094 7.08011 7.28852 6.99893C7.18067 6.83177 7.12825 6.64672 7.08571 6.45425C7.01996 6.15704 7.19528 5.79305 7.55751 5.72147C7.67052 5.69922 7.7831 5.67303 7.89611 5.64946C8.00396 5.6272 8.11224 5.60625 8.22009 5.58487C8.1595 5.42339 8.09806 5.26976 8.04392 5.11395C7.967 4.89311 8.03232 4.69803 8.19216 4.5492C8.26822 4.4785 8.38595 4.44707 8.48994 4.41521C8.65795 4.36415 8.83111 4.33055 8.99998 4.28254C9.08291 4.25897 9.14779 4.27381 9.21525 4.32749C9.26166 4.36459 9.31881 4.39863 9.37553 4.40954C9.49455 4.4318 9.56889 4.48984 9.55901 4.61685C9.54397 4.80277 9.51776 4.99 9.47221 5.17025C9.43612 5.31384 9.36006 5.44652 9.30936 5.58705C9.28443 5.65601 9.27326 5.72191 9.37553 5.75944C9.50916 5.80789 9.55944 5.96719 9.50787 6.16882C9.47565 6.29495 9.41635 6.41366 9.37768 6.53805C9.36135 6.59086 9.36608 6.65065 9.36006 6.71917L9.3592 6.71873Z" fill="currentColor"/>
<path d="M7.55579 3.28615C7.69501 3.30448 7.87075 3.49171 7.89868 3.63792C7.95239 3.92291 7.88837 4.18914 7.78181 4.45013C7.72208 4.59677 7.66665 4.74516 7.60778 4.8918C7.49735 5.16676 7.2868 5.31515 7.00879 5.37407C6.89492 5.39807 6.80899 5.34046 6.72863 5.26409C6.57394 5.11701 6.37973 4.9983 6.26543 4.82459C6.06562 4.5204 5.85937 4.20529 5.81168 3.83039C5.78546 3.62395 5.90578 3.45854 6.04972 3.31626C6.19324 3.17398 6.36168 3.09979 6.56106 3.06968C6.72262 3.04523 6.87731 2.97628 7.03844 2.94704C7.09559 2.93656 7.16434 2.97977 7.22493 3.00552C7.2679 3.02385 7.30399 3.07055 7.34696 3.07666C7.52184 3.10154 7.5343 3.10895 7.55622 3.28615H7.55579Z" fill="currentColor"/>
</svg>
