<svg width="16" height="18" viewBox="0 0 16 18" fill="none" xmlns="http://www.w3.org/2000/svg">
<path d="M13.987 3.17622C14.1577 3.18597 14.3173 3.19503 14.4886 3.20513C14.6458 2.87908 14.8041 2.53562 14.8478 2.15732C14.8693 1.97096 14.8478 1.77206 14.8071 1.58779C14.7712 1.42372 14.6798 1.27359 14.618 1.11509C14.5652 0.979935 14.5162 0.843037 14.4735 0.704397C14.4533 0.639606 14.5383 0.49191 14.6022 0.447671C14.7271 0.360934 14.8451 0.262702 14.9754 0.186067C15.0571 0.137996 15.1548 0.118141 15.2466 0.0906223C15.3551 0.0582267 15.4639 0.0233927 15.5748 0.00458229C15.6302 -0.00482289 15.7092 -0.00168772 15.7445 0.0324496C15.7932 0.0794755 15.8442 0.0961957 15.901 0.106646C15.9712 0.119883 15.9961 0.170392 15.9988 0.231352C16.0068 0.4205 15.9746 0.59885 15.9121 0.781032C15.8778 0.880657 15.8086 0.984811 15.8614 1.13111C15.9504 1.37809 15.9803 1.64631 15.9833 1.91523C15.9874 2.2775 15.9168 2.62445 15.7979 2.96129C15.7068 3.21906 15.6067 3.47335 15.5042 3.7266C15.4784 3.79069 15.4921 3.83423 15.5294 3.87987C15.7387 4.13485 15.8365 4.44 15.8691 4.7636C15.9198 5.26556 15.8197 5.74488 15.6218 6.20364C15.5533 6.36249 15.4797 6.51959 15.4182 6.68156C15.3272 6.92122 15.1273 7.02224 14.9237 7.125C14.8854 7.14451 14.8444 7.18596 14.832 7.22637C14.8125 7.29081 14.8169 7.36257 14.8101 7.43119C14.7913 7.62417 14.7829 7.81924 14.751 8.01013C14.6653 8.52393 14.5346 9.02694 14.3687 9.51914C14.1997 10.0204 14.0203 10.5175 13.7784 10.9874C13.6279 11.28 13.4821 11.5754 13.3252 11.8642C13.2576 11.9889 13.1703 12.1028 13.0866 12.2174C12.8585 12.5291 12.6348 12.8444 12.3959 13.1471C12.1795 13.4216 11.9487 13.6839 11.7179 13.9458C11.5832 14.0988 11.435 14.2391 11.2953 14.3875C11.2039 14.4844 11.1192 14.5882 11.0262 14.6836C10.7873 14.9285 10.545 15.1699 10.3052 15.4134C10.1825 15.5381 10.0656 15.6694 9.9393 15.7896C9.74814 15.9714 9.55193 16.1481 9.35506 16.3233C9.16658 16.4912 8.98146 16.6646 8.7819 16.8176C8.53463 17.0074 8.28064 17.1896 8.01791 17.3554C7.59897 17.6198 7.15079 17.8218 6.67069 17.9336C6.40192 17.996 6.1234 18.0479 5.859 17.9267C5.54286 17.7818 5.29256 17.5581 5.15582 17.2147C5.09871 17.0715 5.02177 16.937 4.95794 16.7963C4.85177 16.5626 4.8427 16.3146 4.87059 16.0571C4.72982 16.0418 4.59241 16.0328 4.45668 16.0101C4.26451 15.9784 4.07502 15.9251 3.88184 15.9021C3.62382 15.8711 3.38159 15.7833 3.13667 15.705C3.05268 15.6781 2.97339 15.6349 2.89041 15.6039C2.82489 15.5796 2.753 15.5705 2.69051 15.5402C2.50371 15.45 2.31859 15.3556 2.13549 15.257C1.72528 15.0365 1.38394 14.7233 1.06141 14.3868C0.918288 14.2378 0.793644 14.074 0.701589 13.8835C0.619278 13.7132 0.522856 13.5501 0.432145 13.3843C0.251396 13.0548 0.139855 12.6988 0.076693 12.3289C0.0343613 12.0801 0.0155478 11.8258 0.00278113 11.573C-0.0116654 11.2842 0.0320103 10.9992 0.0911403 10.7164C0.179163 10.2939 0.309517 9.88699 0.496986 9.50068C0.69991 9.08302 0.958603 8.70716 1.27911 8.37519C1.52672 8.11882 1.79281 7.88752 2.10055 7.71579C2.3028 7.60292 2.51345 7.49982 2.73049 7.42283C3.0221 7.31903 3.32044 7.23194 3.62113 7.16123C3.88688 7.09888 4.16002 7.06857 4.44055 7.02224C4.36832 6.88151 4.29474 6.74218 4.22419 6.6011C4.07771 6.3071 3.92854 6.0138 3.84858 5.69089C3.7824 5.42301 3.71554 5.15409 3.66985 4.88204C3.63927 4.69951 3.63222 4.51001 3.63894 4.3247C3.64902 4.04498 3.65809 3.76143 3.70815 3.48763C3.75854 3.21349 3.84287 2.94248 3.9403 2.68158C4.08342 2.29805 4.28735 1.94762 4.58535 1.66825C4.80843 1.4589 5.05436 1.28334 5.35068 1.20009C5.5741 1.13704 5.79584 1.06597 6.02161 1.01407C6.39318 0.929077 6.77316 0.89285 7.15079 0.930122C7.46391 0.961124 7.77669 1.02243 8.08175 1.10325C8.41906 1.19277 8.74965 1.3119 9.06042 1.48154C9.2845 1.60381 9.52439 1.70169 9.73168 1.84904C9.97492 2.02217 10.2 2.22664 10.416 2.43634C10.8347 2.84216 11.1632 3.32531 11.4629 3.82796C11.6487 4.13973 11.815 4.46368 11.9904 4.78207C12.0078 4.81377 12.0273 4.84372 12.0562 4.89249C12.1681 4.28255 12.4503 3.81229 12.9502 3.49181C12.9247 3.4009 12.8924 3.31033 12.8753 3.21628C12.8632 3.15114 12.8713 3.08147 12.8719 3.01424C12.8733 2.82265 12.8982 2.62723 12.8696 2.44052C12.8481 2.29875 12.7534 2.14444 12.6079 2.12284C12.4577 2.10054 12.3935 1.97654 12.2806 1.91627C12.2373 1.89293 12.2074 1.83406 12.1812 1.78599C12.117 1.66895 12.0545 1.55086 11.9991 1.42929C11.9198 1.25652 11.8604 1.08444 11.9934 0.902951C12.032 0.850003 12.0388 0.768492 12.0502 0.698127C12.0858 0.482157 12.2061 0.372778 12.4164 0.351877C12.5316 0.340382 12.6438 0.297188 12.7591 0.285344C12.8091 0.280119 12.8642 0.314953 12.9153 0.335854C12.9536 0.35118 12.9875 0.38288 13.0265 0.390195C13.1175 0.407612 13.1575 0.467875 13.1589 0.553218C13.1605 0.665732 13.1488 0.778594 13.1464 0.891456C13.1461 0.910267 13.1619 0.934999 13.1777 0.947539C13.5338 1.23596 13.7774 1.61043 13.9346 2.04307C13.9823 2.17474 13.9934 2.32418 14.0021 2.46665C14.0129 2.64605 14.0048 2.82683 14.0021 3.00693C14.0015 3.06266 13.9921 3.11805 13.9867 3.17448L13.987 3.17622ZM12.0596 8.24213C12.0183 8.17107 11.9806 8.1108 11.947 8.0481C11.8503 7.86627 11.8399 7.66458 11.8207 7.46428C11.7958 7.20198 11.7337 6.9477 11.6379 6.70386C11.5482 6.47535 11.4579 6.24649 11.353 6.02529C11.215 5.73338 11.0668 5.44635 10.9146 5.16176C10.8095 4.96494 10.6922 4.77475 10.576 4.58456C10.4715 4.41317 10.3757 4.23273 10.2504 4.07842C10.0152 3.7893 9.7861 3.49495 9.50288 3.24798C9.3601 3.12362 9.20791 3.01912 9.04899 2.93064C8.80979 2.79792 8.55781 2.68645 8.30349 2.58683C8.09922 2.50706 7.88622 2.44784 7.67288 2.39907C7.46626 2.3517 7.2546 2.32836 7.04462 2.29596C6.78055 2.25521 6.51514 2.26357 6.25376 2.30781C5.91645 2.36493 5.60803 2.49939 5.34531 2.73626C5.13432 2.92611 4.95491 3.14522 4.87059 3.42006C4.75737 3.78965 4.73419 4.17491 4.77249 4.56226C4.78256 4.66468 4.78861 4.76813 4.81045 4.86811C4.85312 5.06213 4.9025 5.25442 4.95424 5.44565C5.03622 5.74836 5.16893 6.02703 5.33758 6.28794C5.51699 6.56592 5.73368 6.80975 5.98028 7.02259C6.12172 7.14451 6.26048 7.2713 6.44761 7.32948C6.63642 7.388 6.81616 7.47683 7.00095 7.55032C7.09132 7.5862 7.17565 7.65274 7.28316 7.61059C7.29861 7.60467 7.32347 7.6193 7.34229 7.6287C7.45316 7.68444 7.56066 7.74923 7.67523 7.79521C7.78979 7.84154 7.83716 7.90946 7.85127 8.03591C7.87681 8.26373 7.73772 8.4473 7.7095 8.65944C7.70916 8.66223 7.70614 8.66466 7.70479 8.66745C7.67153 8.73677 7.63693 8.80574 7.60568 8.87611C7.55059 9.00012 7.47567 9.10148 7.33053 9.09765C7.23041 9.09486 7.1266 9.08825 7.03186 9.05829C6.82456 8.9928 6.61996 8.91617 6.41805 8.83431C6.32297 8.79564 6.23662 8.73398 6.14524 8.68487C6.0505 8.63436 5.9571 8.57932 5.85765 8.54031C5.79416 8.51557 5.72125 8.51627 5.65238 8.50582C5.37017 8.46298 5.08897 8.3954 4.80575 8.3839C4.51648 8.37241 4.22083 8.38982 3.93593 8.44103C3.39637 8.53787 2.88436 8.72562 2.44592 9.08128C2.27223 9.22236 2.0945 9.36274 1.94365 9.52785C1.78911 9.6968 1.65775 9.89082 1.52974 10.0835C1.44374 10.2127 1.3621 10.352 1.31237 10.499C1.24115 10.7094 1.19076 10.9292 1.15078 11.1487C1.12155 11.3079 1.1071 11.4744 1.11584 11.636C1.12591 11.8151 1.16858 11.992 1.19949 12.1697C1.24787 12.448 1.33556 12.711 1.4733 12.9566C1.62415 13.2251 1.80658 13.4658 2.04512 13.6539C2.22721 13.7975 2.41065 13.9455 2.61155 14.0563C2.82724 14.1751 3.06175 14.2597 3.29222 14.3464C3.47196 14.414 3.65674 14.4711 3.84287 14.5164C4.0384 14.5642 4.23796 14.5948 4.43652 14.6282C4.58199 14.6526 4.72814 14.6721 4.87462 14.6892C5.00464 14.7045 5.13533 14.7237 5.26535 14.7216C5.33187 14.7206 5.4078 14.7265 5.46189 14.6418C5.58048 14.4572 5.70412 14.2736 5.84623 14.1082C6.18791 13.7104 6.53664 13.3192 6.89109 12.9339C7.11954 12.6856 7.36144 12.4504 7.60132 12.2139C7.94501 11.8753 8.29273 11.5409 8.63844 11.2048C8.7866 11.0609 8.93174 10.9132 9.08326 10.7732C9.30298 10.5701 9.52674 10.3722 9.74948 10.173C9.93729 10.0047 10.1231 9.83369 10.3149 9.67032C10.579 9.44529 10.8471 9.22514 11.1148 9.00499C11.3305 8.82769 11.5486 8.65387 11.7653 8.4783C11.8624 8.39958 11.9598 8.3212 12.0589 8.24073L12.0596 8.24213ZM13.3994 8.89109C13.3917 8.88621 13.384 8.88133 13.3759 8.87645C13.351 8.89352 13.3248 8.90885 13.3013 8.92766C13.0725 9.11333 12.8451 9.30073 12.6156 9.48535C12.3986 9.65987 12.1785 9.83021 11.9618 10.0054C11.7707 10.1597 11.5815 10.3165 11.3937 10.4753C11.136 10.693 10.8793 10.9118 10.625 11.1334C10.4688 11.2696 10.3193 11.4134 10.1647 11.5517C10.0616 11.644 9.9514 11.7283 9.85094 11.8238C9.73369 11.9352 9.62618 12.0578 9.50994 12.1711C9.16927 12.503 8.82457 12.8308 8.48457 13.1635C8.3223 13.3223 8.16843 13.4902 8.00784 13.6505C7.81566 13.8424 7.61576 14.0267 7.42695 14.2221C7.26266 14.3924 7.10644 14.5711 6.9519 14.7509C6.80743 14.9188 6.667 15.0908 6.52992 15.2654C6.48826 15.3183 6.46105 15.3841 6.43283 15.4468C6.41737 15.4813 6.41771 15.5231 6.40326 15.5587C6.3821 15.6106 6.3485 15.6572 6.33069 15.7098C6.28904 15.8335 6.2121 15.9188 6.09619 15.9694C6.07536 15.9784 6.04916 15.9906 6.03975 16.0091C5.94635 16.1892 5.97726 16.3672 6.06024 16.5392C6.07637 16.573 6.11433 16.6131 6.14692 16.6176C6.24133 16.6315 6.34884 16.6591 6.43148 16.627C6.70261 16.5218 6.96937 16.4013 7.23007 16.2707C7.61543 16.0777 7.95408 15.8074 8.28904 15.5357C8.52858 15.3409 8.75133 15.1232 8.97474 14.908C9.26535 14.6275 9.55093 14.3419 9.83482 14.0542C10.0858 13.7999 10.3337 13.5418 10.5786 13.2812C10.7779 13.0694 10.9754 12.8559 11.1652 12.635C11.4458 12.3083 11.7324 11.9861 11.9904 11.6409C12.2356 11.3124 12.4597 10.9648 12.6707 10.6112C12.9143 10.2029 13.0913 9.75845 13.2573 9.31083C13.3087 9.1722 13.3527 9.03077 13.4001 8.89039L13.3994 8.89109ZM14.7581 5.07816C14.7581 5.03113 14.7571 4.9841 14.7581 4.93708C14.7614 4.80401 14.6956 4.72145 14.5803 4.67617C14.4836 4.6382 14.3875 4.59536 14.288 4.56714C14.115 4.51768 13.9403 4.52952 13.771 4.58839C13.5476 4.66642 13.3645 4.80819 13.2146 4.99525C13.1955 5.01929 13.1817 5.05482 13.1804 5.08582C13.1723 5.25233 13.2133 5.40943 13.2899 5.55364C13.4192 5.79643 13.5879 5.99951 13.858 6.07789C13.9151 6.09461 13.9863 6.1075 14.0377 6.08625C14.1419 6.04375 14.2329 5.96712 14.3368 5.92288C14.4426 5.8776 14.541 5.82918 14.5988 5.72293C14.707 5.52333 14.7483 5.30423 14.7581 5.0785V5.07816ZM12.8951 6.97591C12.9183 7.15147 12.9432 7.33853 12.9687 7.53082C13.1582 7.48867 13.3457 7.44722 13.5294 7.40681C13.3154 7.26155 13.1054 7.11873 12.8951 6.97591Z" fill="currentColor"/>
<path d="M9.13937 5.34185C9.12425 5.60833 9.09603 5.78947 9.00968 5.96085C8.93208 6.11412 8.89277 6.29177 8.79904 6.4318C8.66331 6.63454 8.48726 6.80488 8.25981 6.90276C8.19094 6.93237 8.13382 6.91983 8.08208 6.85748C8.00212 6.76099 7.89898 6.68087 7.83549 6.57462C7.74108 6.41717 7.6497 6.24997 7.60098 6.07371C7.56302 5.93577 7.50355 5.8142 7.44845 5.6867C7.37118 5.50905 7.32818 5.32199 7.37521 5.12518C7.42997 4.89458 7.57679 4.77614 7.79954 4.73992C7.92653 4.71936 8.0505 4.68105 8.17615 4.65213C8.28299 4.6274 8.39487 4.61939 8.49096 4.67443C8.64382 4.76186 8.81785 4.81063 8.9435 4.94996C9.06445 5.08408 9.15516 5.22585 9.13937 5.3415V5.34185Z" fill="currentColor"/>
<path d="M5.55798 11.3364C5.58586 11.6012 5.46894 11.8328 5.38865 12.0732C5.32649 12.2592 5.23646 12.4309 5.08863 12.5584C5.00363 12.6319 4.90721 12.6936 4.80944 12.7483C4.74158 12.7862 4.67002 12.773 4.60887 12.7134C4.56049 12.6664 4.50439 12.6277 4.45399 12.5828C4.42644 12.5584 4.39654 12.533 4.37941 12.5013C4.2551 12.2689 4.12676 12.0383 4.0132 11.8004C3.90402 11.5716 3.92216 11.3396 4.04143 11.1166C4.04445 11.1111 4.04646 11.1051 4.04848 11.0996C4.13382 10.8648 4.28668 10.7265 4.53664 10.7014C4.66027 10.6892 4.77954 10.6363 4.90284 10.6157C4.95794 10.6067 5.02144 10.6223 5.07519 10.6432C5.15818 10.6753 5.24284 10.7119 5.31507 10.7638C5.5059 10.9007 5.5788 11.0978 5.5573 11.3371L5.55798 11.3364Z" fill="currentColor"/>
</svg>
