<svg width="16" height="18" viewBox="0 0 16 18" fill="none" xmlns="http://www.w3.org/2000/svg">
<path d="M2.1516 10.4869C1.98604 10.2797 1.81345 10.0721 1.6507 9.85632C1.58239 9.76561 1.5318 9.65962 1.47895 9.55717C1.30271 9.21545 1.12 8.87637 1.0309 8.49472C0.968777 8.22815 0.905251 7.95953 0.935047 7.6824C0.974399 7.31866 1.08206 6.98075 1.30383 6.68835C1.44382 6.50369 1.62034 6.36865 1.82244 6.27382C2.07121 6.15698 2.33543 6.0877 2.60275 6.03397C2.77056 6.00021 2.93808 5.9597 3.10786 5.94267C3.2664 5.92682 3.42774 5.92887 3.58684 5.93974C3.92583 5.96322 4.26117 6.01078 4.5937 6.09034C4.97682 6.18194 5.3383 6.33048 5.69332 6.49958C5.79985 6.55037 5.90216 6.60997 6.01348 6.66927C6.00251 5.91596 6.27882 5.32176 6.87164 4.92162C6.77382 4.56933 6.67881 4.22731 6.58437 3.88501C6.50285 3.58996 6.42415 3.29433 6.34066 2.99988C6.24931 2.67782 6.15543 2.35636 6.05957 2.03578C6.02894 1.93332 5.97328 1.83673 5.95641 1.73281C5.92915 1.56429 6.00364 1.43072 6.17566 1.4225C6.28473 1.41721 6.39295 1.38874 6.50145 1.36995C6.50707 1.36907 6.51157 1.35909 6.51944 1.34999C6.46519 1.26749 6.38395 1.22463 6.29822 1.19468C6.2302 1.1709 6.15543 1.16767 6.08853 1.14213C6.0205 1.1163 5.95473 1.0799 5.89429 1.03762C5.68039 0.888485 5.58706 0.651864 5.50414 0.414068C5.45692 0.27873 5.54181 0.141924 5.67729 0.106695C5.82346 0.0688239 5.96963 0.0262557 6.11832 0.00541184C6.20574 -0.00662473 6.30468 0.00100816 6.38732 0.0324207C6.64396 0.130181 6.89132 0.25084 7.08611 0.460159C7.28315 0.671827 7.45912 0.900815 7.52911 1.19322C7.59235 1.45714 7.55722 1.71783 7.46165 1.96943C7.42004 2.07864 7.37985 2.18873 7.3315 2.29471C7.3003 2.36311 7.25195 2.42271 7.2171 2.48964C7.20361 2.51548 7.19517 2.55335 7.20248 2.58065C7.26797 2.82902 7.33797 3.07591 7.40515 3.32369C7.46755 3.55327 7.52742 3.78343 7.58982 4.013C7.6362 4.18386 7.68567 4.35414 7.73177 4.525C7.74133 4.55993 7.74273 4.59722 7.74892 4.63949C8.00471 4.59781 8.25937 4.58459 8.52444 4.68089C8.48677 4.60397 8.45642 4.54731 8.43028 4.4883C8.36591 4.34298 8.33386 4.19473 8.39261 4.03708C8.56154 3.5835 8.72683 3.12846 8.89969 2.67636C8.93961 2.57243 8.99049 2.4641 9.09589 2.41273C9.16336 2.38014 9.23953 2.36722 9.31149 2.34462C9.47564 2.29354 9.64346 2.2313 9.81351 2.26242C9.95322 2.28796 10.0027 2.20047 10.0673 2.11445C10.0884 2.08656 10.0839 2.06748 10.0659 2.03343C9.95996 1.83409 9.82476 1.64884 9.78006 1.41809C9.7632 1.33061 9.80621 1.25311 9.88997 1.23256C10.0196 1.20085 10.1483 1.15828 10.2796 1.14301C10.3546 1.13421 10.4358 1.16533 10.5117 1.18734C10.5612 1.20173 10.607 1.23138 10.654 1.25516C10.815 1.33677 10.9303 1.47064 10.9845 1.64239C11.0247 1.7698 11.0343 1.91218 11.0334 2.04752C11.0323 2.23864 10.9685 2.41889 10.8982 2.59386C10.8586 2.6928 10.8055 2.78557 10.7644 2.88421C10.6852 3.07503 10.5452 3.20303 10.3788 3.3049C10.1806 3.42585 9.97064 3.46578 9.74521 3.40501C9.65161 3.37976 9.61675 3.39855 9.5819 3.49426C9.47311 3.79341 9.37052 4.0952 9.25836 4.39318C9.19231 4.56874 9.11332 4.73931 9.0349 4.92485C9.08072 4.96742 9.13581 5.02085 9.19315 5.07105C9.35956 5.21725 9.46581 5.40044 9.50375 5.62444C9.55885 5.9506 9.51247 6.26355 9.3857 6.56534C9.38176 6.57445 9.38373 6.5859 9.38176 6.60909C9.42674 6.60116 9.46721 6.59529 9.50741 6.58648C9.80705 6.51955 10.1061 6.44968 10.4063 6.38538C10.5764 6.34898 10.7476 6.31698 10.9193 6.29173C11.0486 6.27294 11.1796 6.26942 11.3097 6.2568C11.3974 6.24828 11.4849 6.22832 11.5726 6.22773C11.6991 6.22715 11.827 6.23067 11.952 6.24916C12.0757 6.26737 12.1991 6.2979 12.3175 6.339C12.438 6.38127 12.5533 6.44087 12.6688 6.49753C12.716 6.52072 12.7557 6.55918 12.802 6.58472C13.0258 6.70832 13.1453 6.92233 13.2459 7.14897C13.3569 7.3991 13.4266 7.66273 13.4263 7.94074C13.4263 8.17736 13.4367 8.41663 13.4064 8.64973C13.3668 8.95416 13.2855 9.25185 13.1714 9.53779C13.1332 9.63379 13.1042 9.73361 13.0674 9.84194C13.1621 9.84194 13.2493 9.83724 13.3358 9.84311C13.4415 9.85015 13.5475 9.86102 13.6518 9.87951C13.8935 9.92267 14.1206 10.0125 14.3463 10.1126C14.9327 10.3727 15.3358 10.8219 15.6039 11.414C15.7257 11.6829 15.8294 11.9601 15.8833 12.2537C15.9188 12.4471 15.946 12.6426 15.9702 12.8382C15.9868 12.9717 16.0003 13.1071 16 13.2415C15.9997 13.5577 15.9913 13.8745 15.9106 14.1819C15.8375 14.4602 15.7678 14.7402 15.6742 15.0112C15.5815 15.2801 15.4704 15.5435 15.3487 15.7997C15.2709 15.9639 15.1593 16.1109 15.0628 16.2656C15.0269 16.3232 14.9954 16.3843 14.9546 16.4377C14.8886 16.5243 14.8175 16.6068 14.7469 16.6896C14.6437 16.8102 14.5476 16.9388 14.4335 17.0471C14.214 17.2553 13.9759 17.4388 13.7097 17.5803C13.3555 17.7688 12.9777 17.8783 12.5884 17.9452C12.2896 17.9969 11.9875 18.0133 11.685 17.9889C11.5504 17.9781 11.416 17.9575 11.2822 17.9361C11.1611 17.9167 11.0388 17.8976 10.9207 17.8642C10.8139 17.8339 10.711 17.7872 10.6084 17.7429C10.5171 17.7033 10.4263 17.661 10.3397 17.6114C10.2897 17.5829 10.2503 17.5342 10.2023 17.501C9.99931 17.3607 9.81464 17.1972 9.6502 17.0107C9.56672 16.9162 9.49982 16.8052 9.42702 16.7007C9.37951 16.6326 9.33145 16.5642 9.28985 16.4923C9.17797 16.2982 9.06919 16.1024 8.9635 15.9151C8.85022 15.9694 8.73666 16.0411 8.61327 16.0798C8.25094 16.1931 7.89593 16.1658 7.57043 15.9548C7.40627 15.8482 7.25111 15.7225 7.10635 15.5881C6.99841 15.488 6.91437 15.36 6.81908 15.2449C6.80446 15.2273 6.78675 15.2126 6.76792 15.1941C6.69765 15.3327 6.63159 15.4677 6.56104 15.5998C6.50735 15.7005 6.45226 15.8012 6.38901 15.8955C6.30806 16.0164 6.22345 16.1359 6.13097 16.2474C6.02837 16.371 5.91622 16.4864 5.80519 16.6024C5.71412 16.6972 5.62051 16.79 5.52438 16.8792C5.30176 17.0862 5.05075 17.2488 4.77753 17.3715C4.51696 17.4887 4.2443 17.5735 3.96321 17.6061C3.75774 17.6299 3.54777 17.6208 3.3406 17.6117C3.18488 17.6049 3.03056 17.582 2.88074 17.5224C2.75791 17.4737 2.61961 17.4667 2.49874 17.415C2.35033 17.3513 2.21203 17.2615 2.07036 17.1807C2.00234 17.142 1.9346 17.1012 1.87079 17.0551C1.76117 16.9761 1.6521 16.896 1.54782 16.8099C1.44241 16.7233 1.33953 16.6326 1.24228 16.5363C1.15036 16.4453 1.06069 16.3499 0.981426 16.2469C0.859996 16.0886 0.739128 15.9283 0.635406 15.7575C0.532809 15.5884 0.440893 15.4099 0.364156 15.2264C0.277861 15.0197 0.202529 14.8066 0.143782 14.5899C0.0631092 14.2937 0.0209458 13.9904 0.00492374 13.6801C-0.0147525 13.2994 0.0229136 12.9321 0.147436 12.5748C0.245817 12.2927 0.383551 12.0332 0.563447 11.7977C0.762739 11.537 0.99014 11.3045 1.23216 11.0893C1.37917 10.9587 1.54417 10.848 1.70832 10.7409C1.85449 10.6452 2.01077 10.5665 2.15019 10.4869H2.1516ZM8.70068 8.04379C8.81256 8.29509 8.92612 8.53934 9.03012 8.788C9.1136 8.98763 9.18669 9.19196 9.26089 9.39541C9.31093 9.5328 9.35787 9.67166 9.40088 9.8117C9.44388 9.95114 9.48324 10.0921 9.51837 10.2339C9.54592 10.3454 9.5625 10.4596 9.58668 10.5718C9.63474 10.7934 9.69236 11.013 9.732 11.2361C9.76826 11.4402 9.79075 11.6471 9.81127 11.8538C9.8405 12.1503 9.86805 12.4474 9.88519 12.7451C9.89362 12.8919 9.87423 13.0404 9.87311 13.1881C9.87086 13.4826 9.83403 13.772 9.784 14.0618C9.73425 14.3504 9.65863 14.629 9.56363 14.9035C9.55435 14.9302 9.5507 14.9683 9.56166 14.9921C9.62378 15.1266 9.68899 15.2599 9.75786 15.3908C9.93438 15.7258 10.1216 16.0549 10.3959 16.3141C10.5219 16.433 10.6579 16.5519 10.8088 16.6285C11.1088 16.7806 11.4382 16.8361 11.7688 16.8472C12.0187 16.8557 12.2697 16.8695 12.521 16.8231C12.7292 16.7847 12.9285 16.721 13.1152 16.6267C13.5008 16.4315 13.8283 16.1544 14.1119 15.8174C14.3478 15.537 14.5454 15.2314 14.7045 14.8994C14.8321 14.6331 14.9288 14.3527 14.9819 14.0588C15.0134 13.885 15.0449 13.7095 15.0555 13.5333C15.0758 13.1996 15.0572 12.8661 14.9808 12.5399C14.9071 12.2258 14.8354 11.9122 14.6356 11.6468C14.5136 11.4848 14.3739 11.3489 14.2022 11.2584C14.0512 11.1789 13.8859 11.1278 13.7251 11.0705C13.5469 11.0071 13.3611 10.9933 13.1739 10.9848C12.892 10.9722 12.6193 11.0247 12.3512 11.1046C12.264 11.1307 12.18 11.1674 12.1041 11.2341C11.9852 11.3389 11.8511 11.4264 11.7165 11.5089C11.6681 11.5385 11.5841 11.5617 11.5445 11.5376C11.4523 11.4816 11.3601 11.4076 11.2993 11.3177C11.2097 11.185 11.1431 11.0341 11.0748 10.8871C11 10.7265 11.0197 10.5991 11.1467 10.4808C11.2268 10.4062 11.3221 10.3481 11.4149 10.2902C11.4815 10.2485 11.5709 10.2356 11.6226 10.1813C11.7598 10.0372 11.8894 9.88304 12.0088 9.72245C12.1614 9.51724 12.2806 9.28796 12.3529 9.03989C12.4119 8.83791 12.4496 8.62771 12.4813 8.41868C12.499 8.30213 12.4937 8.17942 12.4839 8.06082C12.4721 7.91873 12.4451 7.77781 12.422 7.63689C12.4189 7.6184 12.4049 7.59462 12.3894 7.5864C12.3009 7.53855 12.2137 7.48423 12.1196 7.45253C12.0198 7.41877 11.9138 7.40145 11.809 7.38882C11.7069 7.37649 11.6026 7.3715 11.5 7.37649C11.346 7.38413 11.192 7.39939 11.0385 7.41818C10.8356 7.44343 10.6318 7.46721 10.4311 7.50655C10.191 7.55352 9.95462 7.62045 9.71513 7.67183C9.36012 7.74786 9.02478 7.87939 8.69928 8.04349L8.70068 8.04379ZM6.34094 14.3785C6.2614 14.1041 6.17089 13.846 6.11298 13.5803C6.03568 13.2254 5.98059 12.8655 5.97103 12.4994C5.96541 12.2851 5.94658 12.0708 5.9432 11.8564C5.94067 11.6815 5.95136 11.5065 5.95782 11.3315C5.96091 11.2479 5.96597 11.1642 5.97412 11.0811C5.99268 10.885 6.01291 10.6892 6.03371 10.4934C6.04946 10.3442 6.06126 10.1939 6.08515 10.046C6.12479 9.79995 6.1737 9.5557 6.21727 9.31027C6.27208 9.00143 6.32548 8.6923 6.37861 8.38287C6.38142 8.36701 6.37889 8.34382 6.36962 8.33296C6.27039 8.21641 6.18325 8.08225 6.06604 7.98977C5.81222 7.78926 5.53253 7.63278 5.23767 7.50097C5.00549 7.39734 4.76966 7.31102 4.52624 7.24967C4.32245 7.19859 4.11332 7.17158 3.90756 7.12842C3.67622 7.07969 3.44264 7.07059 3.20821 7.08262C3.07666 7.08938 2.94258 7.08967 2.81441 7.11785C2.5246 7.18126 2.24183 7.26464 2.01949 7.49334C1.93066 7.58493 1.85589 7.67154 1.87248 7.81157C1.88035 7.87704 1.87754 7.94427 1.8899 8.00856C1.9495 8.313 2.03832 8.60775 2.18617 8.8796C2.34105 9.16407 2.53697 9.41449 2.76999 9.6335C2.90829 9.76355 3.05895 9.87423 3.23576 9.93735C3.34707 9.97727 3.46316 10.0016 3.57616 10.0366C3.65064 10.0598 3.72373 10.0888 3.79653 10.1173C3.8297 10.1302 3.85949 10.1531 3.89322 10.1631C3.99076 10.1925 4.03349 10.2494 4.03405 10.3583C4.03433 10.499 4.02955 10.6378 3.93426 10.7526C3.92583 10.7626 3.92977 10.7831 3.92583 10.7984C3.91571 10.8377 3.90672 10.8777 3.89294 10.9152C3.8758 10.9616 3.85247 11.0057 3.8342 11.0518C3.78782 11.1695 3.70658 11.2414 3.58515 11.2578C3.31249 11.2951 3.04377 11.3527 2.78545 11.4519C2.63254 11.5106 2.47738 11.5711 2.3374 11.6562C2.17633 11.754 2.02567 11.8729 1.87979 11.9947C1.72153 12.1268 1.56497 12.2633 1.42498 12.4154C1.29793 12.5537 1.19196 12.7134 1.08121 12.8672C1.04242 12.9212 1.00138 12.9823 0.988172 13.046C0.96175 13.174 0.946852 13.3058 0.940668 13.4368C0.935327 13.5474 0.945728 13.6593 0.955004 13.77C0.963717 13.8745 0.973274 13.9799 0.995199 14.082C1.0264 14.2277 1.06969 14.3703 1.10651 14.5148C1.15739 14.715 1.24115 14.9002 1.34684 15.074C1.51943 15.3582 1.73474 15.606 1.98435 15.8165C2.15497 15.96 2.33262 16.1018 2.52601 16.2063C2.70675 16.3038 2.90941 16.3637 3.10814 16.4163C3.35438 16.4811 3.60848 16.4885 3.86287 16.4855C4.02534 16.4838 4.17375 16.4254 4.31092 16.3572C4.54507 16.2413 4.76376 16.0933 4.96445 15.916C5.19073 15.7161 5.39536 15.4962 5.58172 15.2575C5.74616 15.0467 5.89401 14.8236 5.99324 14.5685C6.02725 14.4813 6.09078 14.4246 6.18972 14.417C6.24313 14.4129 6.29541 14.3906 6.34123 14.3785H6.34094ZM7.31126 8.27072C7.28709 8.48914 7.2691 8.72018 7.23396 8.94829C7.19349 9.21016 7.13361 9.46851 7.08948 9.72979C7.04704 9.98109 7.00965 10.2336 6.97761 10.4866C6.95512 10.6642 6.94304 10.8433 6.93011 11.0221C6.91324 11.249 6.89581 11.4763 6.8871 11.7035C6.88232 11.8333 6.89272 11.9639 6.90003 12.0942C6.91352 12.3291 6.93067 12.5637 6.945 12.7982C6.96187 13.0801 7.02315 13.3531 7.09848 13.6232C7.18421 13.9303 7.2899 14.2282 7.47739 14.4866C7.63508 14.7035 7.80907 14.897 8.07611 14.9695C8.20541 15.0045 8.317 15.0115 8.42718 14.9079C8.57616 14.7675 8.68775 14.602 8.74313 14.405C8.8075 14.1763 8.85866 13.9423 8.89576 13.7071C8.92696 13.5087 8.93764 13.3052 8.94298 13.1038C8.94832 12.9118 8.94073 12.719 8.92836 12.5273C8.91319 12.2906 8.89295 12.054 8.86484 11.8189C8.84376 11.6439 8.81256 11.4698 8.77573 11.2975C8.69815 10.9364 8.62844 10.5723 8.52838 10.218C8.43421 9.88392 8.317 9.55541 8.18826 9.23394C8.04378 8.87284 7.87541 8.52202 7.72418 8.18236C7.57043 8.21553 7.43607 8.2443 7.31126 8.27102V8.27072ZM7.99571 5.75332C7.74779 5.73012 7.53079 5.82524 7.33234 5.95999C7.20923 6.04366 7.09005 6.14436 7.02174 6.28909C6.99588 6.3437 6.96552 6.403 6.96356 6.46113C6.95512 6.6998 7.04563 6.89562 7.21316 7.05884C7.26966 7.11374 7.30986 7.11286 7.36326 7.06765C7.53051 6.92644 7.66937 6.76145 7.76635 6.55889C7.82678 6.43265 7.90633 6.32373 8.04715 6.28762C8.13485 6.26502 8.22339 6.24564 8.31194 6.22597C8.40807 6.20454 8.50645 6.18693 8.55649 6.08124C8.60764 5.9732 8.62704 5.86987 8.45473 5.84961C8.44489 5.84843 8.43365 5.84814 8.42522 5.84315C8.2917 5.76124 8.14357 5.75655 7.99571 5.75361V5.75332Z" fill="currentColor"/>
<path d="M12.4014 13.4491C12.4014 13.4036 12.3969 13.3642 12.4022 13.3267C12.4214 13.1872 12.5195 13.1461 12.6355 13.1229C12.7412 13.1018 12.8447 13.0674 12.9506 13.0498C12.9936 13.0428 13.0457 13.0542 13.0858 13.0742C13.1699 13.1165 13.2635 13.1546 13.3267 13.2219C13.4583 13.3613 13.4816 13.5395 13.469 13.7344C13.4572 13.9144 13.399 14.0776 13.3467 14.2432C13.311 14.3565 13.2497 14.4619 13.1943 14.5673C13.1544 14.6433 13.1083 14.7161 13.0589 14.786C12.9779 14.9005 12.8666 14.966 12.73 14.9689C12.6802 14.9701 12.6147 14.9607 12.5824 14.9278C12.4762 14.8204 12.3393 14.744 12.2713 14.5955C12.2268 14.4986 12.1701 14.4082 12.1234 14.3125C12.0534 14.1689 11.9904 14.0171 12.0275 13.8551C12.0748 13.649 12.2305 13.494 12.4011 13.4488L12.4014 13.4491Z" fill="currentColor"/>
<path d="M11.4658 8.71901C11.472 8.86433 11.4441 9.00025 11.3806 9.13119C11.3207 9.25478 11.2721 9.38425 11.2162 9.5099C11.1712 9.61118 11.0826 9.66109 10.9862 9.66784C10.9362 9.67136 10.8749 9.62557 10.8316 9.58652C10.7442 9.50755 10.6658 9.41801 10.5837 9.33287C10.5764 9.32553 10.5685 9.31144 10.5618 9.31203C10.4347 9.32025 10.3892 9.18491 10.29 9.14205C10.2568 9.12766 10.2366 9.07482 10.2152 9.03666C10.1697 8.95445 10.1219 8.87313 10.0856 8.78653C10.0508 8.70315 10.0184 8.61538 10.0047 8.52613C9.97572 8.33765 10.1244 8.20907 10.3074 8.16444C10.4488 8.1298 10.5921 8.10309 10.7352 8.07667C10.7768 8.06903 10.8263 8.06052 10.8623 8.07637C11.0655 8.1665 11.2845 8.23989 11.4084 8.44951C11.4534 8.52525 11.4618 8.62448 11.4871 8.71284C11.4798 8.7149 11.4728 8.71725 11.4655 8.7193L11.4658 8.71901Z" fill="currentColor"/>
<path d="M4.52627 8.41485C4.50996 8.55401 4.48523 8.68641 4.43154 8.82175C4.3905 8.92509 4.343 9.03048 4.30702 9.13822C4.26064 9.27738 4.14877 9.35518 4.02115 9.33521C3.94751 9.32376 3.86543 9.29294 3.81033 9.24274C3.66389 9.10945 3.50985 8.97646 3.39713 8.81441C3.27767 8.64267 3.13853 8.4721 3.10059 8.25163C3.07416 8.09809 3.06236 7.94514 3.16973 7.81068C3.23719 7.72642 3.33276 7.73728 3.41822 7.71439C3.51969 7.68708 3.62172 7.66037 3.72488 7.64393C3.76424 7.63776 3.80977 7.65685 3.84941 7.6724C3.88988 7.68826 3.92474 7.72525 3.96578 7.73288C4.03942 7.74697 4.0709 7.79571 4.07681 7.86176C4.08102 7.90844 4.10351 7.92165 4.13808 7.93809C4.20554 7.97009 4.27301 8.00385 4.33541 8.04524C4.4633 8.12979 4.54145 8.24576 4.52655 8.41427L4.52627 8.41485Z" fill="currentColor"/>
<path d="M3.99635 12.4964C3.98679 12.5877 3.97864 12.6582 3.9733 12.7289C3.97218 12.7424 3.98342 12.7574 3.9896 12.7715C4.009 12.8138 4.04554 12.8561 4.04526 12.898C4.04526 12.9973 4.0447 13.1027 4.01378 13.1945C3.95053 13.3821 3.8856 13.5738 3.78694 13.7421C3.6939 13.9009 3.5601 13.8944 3.43389 13.7758C3.41141 13.7547 3.39004 13.7315 3.36446 13.7154C3.27395 13.6581 3.21914 13.57 3.17051 13.477C3.04964 13.2459 2.92062 13.0187 2.88436 12.751C2.85794 12.5566 2.87115 12.3708 2.98443 12.2061C3.04964 12.1113 3.15618 12.1057 3.25343 12.0837C3.3684 12.0572 3.48308 12.0285 3.59945 12.0114C3.63853 12.0056 3.68378 12.0279 3.72341 12.0452C3.7653 12.0634 3.80184 12.1045 3.84372 12.1107C3.91174 12.1207 3.94435 12.16 3.95559 12.2199C3.97386 12.3176 3.98455 12.4169 3.99607 12.497L3.99635 12.4964Z" fill="currentColor"/>
</svg>
