<svg width="24" height="18" viewBox="0 0 24 18" fill="none" xmlns="http://www.w3.org/2000/svg">
<path d="M13.7299 16.5543C13.6079 16.6293 13.4729 16.7226 13.3281 16.7988C13.0544 16.9429 12.782 17.092 12.4966 17.2115C12.0248 17.4093 11.5242 17.4905 11.0116 17.5247C10.6265 17.5505 10.2484 17.528 9.87239 17.4539C9.54151 17.3889 9.21106 17.3223 8.88104 17.2544C8.68466 17.214 8.48571 17.1807 8.29405 17.1249C8.05385 17.0553 7.81879 16.9687 7.58331 16.885C7.35342 16.8034 7.12008 16.7268 6.89835 16.6268C6.7024 16.5385 6.51548 16.4282 6.33371 16.314C6.14378 16.1949 5.95986 16.0658 5.78282 15.9297C5.53101 15.736 5.28994 15.5307 5.10388 15.2716C5.01836 15.1525 4.92683 15.038 4.83359 14.916C4.58908 15.1284 4.31192 15.2891 4.00296 15.3912C3.77435 15.467 3.5423 15.5419 3.30596 15.5857C3.01075 15.6402 2.70566 15.646 2.4156 15.564C2.17195 15.4953 1.92874 15.4066 1.70701 15.2887C1.20854 15.0239 0.837699 14.6324 0.587177 14.1351C0.505961 13.974 0.393807 13.8244 0.331499 13.6574C0.228798 13.3822 0.145434 13.099 0.0719531 12.8145C0.0294117 12.6488 0.0122226 12.4751 0.0027689 12.3044C-0.00539562 12.1615 0.00534806 12.0162 0.0238257 11.8742C0.0646483 11.5626 0.0891412 11.2457 0.168208 10.943C0.312161 10.3924 0.559246 9.88972 1.04525 9.5349C1.32671 9.32958 1.6477 9.20839 1.9889 9.13343C2.21406 9.08387 2.43838 9.03265 2.66397 8.98559C2.75378 8.96685 2.84531 8.95643 2.95059 8.94019C2.92438 8.82025 2.89258 8.70281 2.87367 8.5837C2.84746 8.41753 2.82383 8.25095 2.81093 8.08353C2.79632 7.89113 2.77999 7.69706 2.79203 7.50507C2.80793 7.25561 2.83414 7.00448 2.88656 6.76002C2.96305 6.40311 3.049 6.04621 3.1633 5.69929C3.35237 5.12666 3.65145 4.60983 4.06397 4.15506C4.39012 3.79523 4.76913 3.49913 5.21775 3.30464C5.49233 3.18554 5.78841 3.10807 6.08104 3.03561C6.47637 2.93816 6.87472 2.84945 7.28681 2.84279C7.40584 2.84071 7.52401 2.80447 7.64304 2.80239C7.8016 2.79989 7.96146 2.80614 8.11873 2.8253C8.35507 2.85403 8.59099 2.88902 8.82346 2.93816C8.97085 2.96939 9.1118 3.03145 9.26219 3.08142C9.36618 2.91817 9.46588 2.73534 9.59092 2.57042C9.81222 2.27807 10.0383 1.9878 10.2819 1.71293C10.544 1.41683 10.8547 1.16903 11.1817 0.939148C11.4898 0.722588 11.81 0.526018 12.167 0.401497C12.47 0.296132 12.7837 0.217421 13.0978 0.146623C13.555 0.0433405 14.0187 -0.0224605 14.4905 0.00710817C15.0139 0.0400086 15.536 0.0679115 16.0525 0.178274C16.5574 0.286137 17.0352 0.458968 17.4899 0.685106C17.7739 0.826287 18.0399 1.0012 18.2861 1.21026C18.7206 1.57883 19.0575 2.01362 19.2998 2.51254C19.4373 2.79615 19.525 3.10433 19.6157 3.40709C19.7484 3.85146 19.7433 4.3104 19.7356 4.76809C19.7351 4.80599 19.7368 4.84388 19.7386 4.88136C19.7386 4.88803 19.7454 4.89469 19.7523 4.90677C20.1588 4.82431 20.5701 4.76059 20.989 4.77433C21.4303 4.78891 21.8463 4.90136 22.2378 5.09917C22.3052 5.13332 22.3731 5.16622 22.4419 5.19871C22.9803 5.45317 23.3348 5.87213 23.5819 6.38979C23.7164 6.67173 23.8208 6.95992 23.8621 7.2706C23.8922 7.49882 23.951 7.72329 23.9901 7.95026C24.0034 8.02773 24 8.10852 23.9983 8.18765C23.9918 8.49333 24.0065 8.80151 23.9691 9.10344C23.9231 9.47285 23.8496 9.84141 23.7572 10.2033C23.6081 10.788 23.3731 11.3448 23.071 11.8708C22.8239 12.3006 22.4934 12.6617 22.0268 12.882C21.8961 12.9436 21.7561 12.9878 21.613 13.0423C21.6778 13.393 21.6448 13.7436 21.5906 14.0968C21.5408 14.4246 21.4484 14.7382 21.3195 15.0426C21.2202 15.2775 21.1274 15.5161 21.0075 15.741C20.7905 16.147 20.5026 16.496 20.1232 16.7805C19.403 17.3202 18.5856 17.6463 17.7116 17.852C17.2282 17.9657 16.7336 18.0294 16.2368 17.9866C15.9769 17.9641 15.7238 17.8729 15.4651 17.8221C15.2386 17.7775 15.0315 17.6925 14.8463 17.5622C14.6525 17.4256 14.454 17.2919 14.2799 17.1336C14.087 16.9583 13.9198 16.7572 13.7286 16.5531L13.7299 16.5543ZM16.7254 16.369C16.7263 16.3782 16.7271 16.3873 16.728 16.3965C16.945 16.3669 17.1646 16.3486 17.3786 16.3045C17.5496 16.2691 17.7146 16.2045 17.8805 16.1475C18.2363 16.025 18.5796 15.8726 18.8946 15.6723C19.1791 15.4915 19.4541 15.2962 19.6694 15.0318C19.8911 14.7598 20.0617 14.4629 20.1412 14.1264C20.2108 13.8307 20.2271 13.5271 20.1915 13.2239C20.1807 13.1323 20.1769 13.039 20.0806 12.9719C19.9749 12.8982 19.8658 12.8154 19.7936 12.7129C19.6659 12.5313 19.5577 12.3356 19.4554 12.139C19.3617 11.9591 19.3355 11.7771 19.5082 11.6147C19.5302 11.5939 19.5302 11.5385 19.5224 11.5027C19.4863 11.3369 19.5774 11.1899 19.751 11.1508C19.8589 11.1262 19.9676 11.095 20.0772 11.0904C20.2774 11.082 20.4979 10.9355 20.6723 11.1558C20.6805 11.1662 20.699 11.1733 20.7131 11.1741C20.8928 11.1832 20.9813 11.3128 21.0647 11.4369C21.1149 11.5114 21.1824 11.5102 21.2348 11.4827C21.4651 11.3615 21.665 11.1991 21.8274 11C22.1746 10.5744 22.3589 10.0767 22.4595 9.55281C22.533 9.17091 22.5811 8.78319 22.5613 8.39046C22.5454 8.06812 22.533 7.7462 22.4406 7.43385C22.3817 7.2352 22.3534 7.02197 22.1875 6.8683C22.0169 6.70963 21.8115 6.62175 21.5885 6.54304C21.3135 6.44601 21.0363 6.40728 20.751 6.39812C20.2856 6.38271 19.8387 6.48057 19.3995 6.61926C19.2796 6.65715 19.1593 6.69047 19.1 6.81916C19.0807 6.8608 19.0368 6.90078 18.9939 6.92119C18.9307 6.95118 18.8327 7.00073 18.7945 6.97616C18.6613 6.89121 18.5306 6.79084 18.4318 6.6709C18.3343 6.55304 18.2737 6.40603 18.2019 6.26943C18.0919 6.0587 18.0339 5.84131 18.1022 5.60226C18.1658 5.38028 18.2329 5.15665 18.2681 4.92967C18.3291 4.53945 18.3222 4.14714 18.2243 3.76109C18.1469 3.45749 18.0743 3.15347 17.8564 2.90234C17.6515 2.66663 17.4538 2.41842 17.1719 2.27265C16.9003 2.13231 16.6292 1.98946 16.3202 1.91325C16.0112 1.83704 15.7066 1.75041 15.3882 1.71959C15.1411 1.69586 14.8944 1.66837 14.6469 1.65088C14.4028 1.6338 14.1566 1.60548 13.9138 1.62006C13.4244 1.64963 12.9517 1.76457 12.5267 2.00737C12.2693 2.15438 12.0274 2.33013 11.7923 2.51004C11.5762 2.67537 11.3605 2.84779 11.1783 3.04602C10.9634 3.27966 10.7868 3.54619 10.5896 3.79607C10.3481 4.10175 10.2445 4.46574 10.1135 4.8189C10.0511 4.98673 9.98669 5.1554 9.90418 5.31448C9.81394 5.48856 9.62057 5.51105 9.4749 5.3807C9.44912 5.3578 9.42076 5.33697 9.39111 5.31948C9.26649 5.24577 9.19602 5.13624 9.13586 5.0088C9.06496 4.85763 9.00136 4.68022 8.83506 4.6115C8.66532 4.54153 8.47625 4.50488 8.29191 4.4799C8.08393 4.45199 7.87165 4.44075 7.66195 4.4445C7.35556 4.45033 7.04531 4.45283 6.74408 4.49905C6.27484 4.5711 5.84126 4.74102 5.46354 5.03504C5.14943 5.2795 4.89117 5.56936 4.66858 5.89128C4.50099 6.13408 4.39614 6.40395 4.34887 6.6888C4.28184 7.09319 4.20879 7.49591 4.24531 7.9132C4.28313 8.3434 4.35145 8.75487 4.57318 9.13801C4.64623 9.2642 4.68577 9.41912 4.63377 9.5728C4.55256 9.81393 4.46704 10.0534 4.38583 10.2949C4.28699 10.5902 4.08632 10.6702 3.78208 10.6144C3.49976 10.5627 3.21873 10.5202 2.92825 10.549C2.55182 10.586 2.1986 10.6914 1.89909 10.9105C1.75255 11.0175 1.60087 11.1699 1.54758 11.3315C1.46809 11.5718 1.44961 11.8388 1.44918 12.0945C1.44875 12.3348 1.49129 12.5776 1.53899 12.8145C1.59872 13.1102 1.7474 13.3697 1.95796 13.5916C2.18656 13.8332 2.47877 13.9635 2.81222 13.986C2.97508 13.9973 3.15084 13.9902 3.30338 13.9415C3.47613 13.8865 3.63168 13.7782 3.79068 13.687C3.89252 13.6287 3.98233 13.5479 4.08804 13.4996C4.16624 13.4638 4.20621 13.4492 4.1757 13.3493C4.1237 13.1798 4.24531 12.9982 4.42579 12.9586C4.61658 12.917 4.81167 12.8953 5.0016 12.8503C5.11935 12.8224 5.21259 12.8262 5.2865 12.9291C5.30025 12.9478 5.32861 12.9661 5.35139 12.9674C5.52929 12.9765 5.58 13.1006 5.63414 13.236C5.73512 13.4896 5.81806 13.7566 5.96287 13.9856C6.24046 14.4241 6.64654 14.7461 7.11793 14.9768C7.42862 15.1288 7.75133 15.2666 8.08264 15.3683C8.56864 15.5174 9.06539 15.6348 9.56041 15.7527C9.79547 15.8085 10.037 15.8401 10.2767 15.8726C10.4143 15.8913 10.5548 15.8963 10.694 15.8976C10.9406 15.8997 11.1873 15.8938 11.434 15.8909C11.4408 15.8909 11.4477 15.8834 11.455 15.8818C11.9337 15.7552 12.3522 15.514 12.7613 15.2504C12.9646 15.1192 13.0733 14.9814 12.9504 14.7365C12.8945 14.6253 13.0269 14.3608 13.2065 14.3309C13.3917 14.2996 13.5761 14.2617 13.7578 14.2163C13.8717 14.188 13.9598 14.2047 14.0346 14.295C14.0509 14.3146 14.087 14.33 14.1136 14.3292C14.249 14.3254 14.3255 14.3979 14.3581 14.5133C14.4153 14.7132 14.5296 14.8881 14.5906 15.0897C14.698 15.4436 14.9348 15.7352 15.2348 15.9667C15.3568 16.0608 15.4891 16.1595 15.6344 16.2058C15.9863 16.3178 16.3468 16.4069 16.7254 16.3686V16.369Z" fill="currentColor"/>
</svg>
