<svg width="13" height="18" viewBox="0 0 13 18" fill="none" xmlns="http://www.w3.org/2000/svg">
<path d="M8.07993 11.2911C8.07298 11.3322 8.06497 11.3609 8.06393 11.3899C8.05663 11.5639 8.0441 11.738 8.04688 11.9117C8.04862 12.0354 8.0695 12.1592 8.0855 12.2823C8.10776 12.453 8.13699 12.6226 8.15751 12.7936C8.19787 13.1316 8.23579 13.4699 8.27057 13.8081C8.28345 13.9323 8.28762 14.0577 8.2904 14.1825C8.2998 14.6129 8.30501 15.0436 8.3158 15.4743C8.32276 15.7478 8.33945 16.021 8.34641 16.2942C8.34885 16.3879 8.43129 16.389 8.48522 16.4196C8.63028 16.5023 8.67307 16.5711 8.62646 16.7313C8.57845 16.8969 8.52279 17.0625 8.44695 17.2173C8.39059 17.3323 8.29875 17.4315 8.21735 17.5337C8.19647 17.56 8.15821 17.5755 8.12516 17.5896C7.84929 17.706 7.56611 17.8085 7.29859 17.9404C7.14448 18.0163 6.99871 18.0055 6.84495 17.9849C6.76563 17.9741 6.6877 17.9529 6.60908 17.9353C6.48593 17.9077 6.48524 17.906 6.54194 17.7846C6.4167 17.8183 6.29564 17.8426 6.18084 17.8837C6.02116 17.9411 5.86879 17.9478 5.70911 17.8831C5.59466 17.8369 5.4729 17.8072 5.35427 17.7711C5.28052 17.7485 5.27321 17.7121 5.3247 17.6584C5.43359 17.5448 5.54178 17.4301 5.64753 17.3191C5.49099 17.1829 5.33548 17.046 5.17824 16.9114C5.12188 16.8632 5.0617 16.819 5.00256 16.7745C4.9542 16.738 4.95107 16.709 5.00082 16.6659C5.1852 16.505 5.40193 16.4325 5.64406 16.3825C5.84722 16.3407 6.02533 16.3846 6.21284 16.4217C6.23441 16.4261 6.26051 16.4193 6.28173 16.4109C6.35687 16.3812 6.42853 16.3397 6.50611 16.3201C6.56629 16.305 6.60421 16.2962 6.57395 16.2274C6.56803 16.2139 6.56699 16.1977 6.56699 16.1825C6.56038 15.8493 6.5489 15.5161 6.54925 15.1829C6.54925 14.8125 6.5649 14.4419 6.5656 14.0716C6.56664 13.6847 6.58717 13.3002 6.63831 12.9164C6.65466 12.795 6.62926 12.6675 6.61708 12.5437C6.59656 12.339 6.57082 12.1346 6.54786 11.9302C6.51759 11.6628 6.48732 11.395 6.45706 11.1275C6.43688 10.9498 6.41949 10.7713 6.39514 10.5943C6.37392 10.4388 6.34574 10.284 6.31686 10.1299C6.31234 10.1056 6.28938 10.0823 6.26955 10.0637C6.12657 9.92918 5.98533 9.79258 5.83609 9.66442C5.79052 9.62529 5.72024 9.61416 5.66423 9.5855C5.47429 9.48802 5.26939 9.40877 5.10066 9.28397C4.91281 9.14536 4.68981 9.06171 4.52074 8.89308C4.33358 8.70623 4.11824 8.54602 3.9189 8.3703C3.84689 8.3069 3.7874 8.23 3.71991 8.16153C3.47709 7.91398 3.2694 7.6418 3.09964 7.34196C3.03841 7.23403 2.95735 7.1369 2.88813 7.03302C2.74515 6.81953 2.69088 6.57467 2.61886 6.33487C2.55207 6.11159 2.52006 5.88663 2.52667 5.65493C2.53433 5.39253 2.5305 5.12979 2.54824 4.86807C2.57503 4.47414 2.66478 4.09369 2.91213 3.76957C3.17965 3.41881 3.54562 3.20869 3.98291 3.11156C4.13355 3.07817 4.28731 3.05287 4.43273 3.00464C4.67068 2.92572 4.88045 2.76282 4.85366 2.49738C4.72738 2.50784 4.60145 2.51863 4.47517 2.52875C4.25948 2.54561 4.0504 2.51627 3.84272 2.45725C3.73279 2.42622 3.63816 2.37529 3.56441 2.29671C3.475 2.20126 3.36925 2.18574 3.24853 2.19822C3.12086 2.21138 2.99319 2.22082 2.86551 2.23431C2.58616 2.26399 2.30751 2.29704 2.02816 2.32403C1.94293 2.33212 1.85909 2.33752 1.76933 2.31458C1.68619 2.29333 1.58948 2.31863 1.49938 2.32672C1.39049 2.33651 1.2823 2.35539 1.17306 2.36113C0.984161 2.37124 0.794217 2.36652 0.60636 2.38339C0.455031 2.39721 0.307528 2.40801 0.160374 2.36248C0.110626 2.34696 0.0601838 2.33381 0 2.31694C0.0156547 2.29199 0.0215688 2.2731 0.0347883 2.26399C0.192379 2.15235 0.348231 2.04847 0.543393 1.9881C0.829353 1.90007 1.1014 1.76753 1.37657 1.64847C1.42423 1.6279 1.4545 1.56381 1.50216 1.54931C1.72306 1.48253 1.88866 1.32435 2.09113 1.22654C2.37082 1.0913 2.6373 0.930417 2.90865 0.778982C2.92952 0.767515 2.95631 0.748628 2.96048 0.729403C3.04398 0.350984 3.35603 0.224844 3.68269 0.12771C3.88655 0.0670006 4.09876 0.0130367 4.30992 0.000894933C4.45812 -0.00753687 4.61676 0.0450778 4.76043 0.0970177C4.94829 0.164809 5.13197 0.24879 5.30661 0.343901C5.58074 0.493312 5.86009 0.647446 5.97385 0.958748C6.01594 1.07443 6.03438 1.19956 6.05212 1.32165C6.07508 1.48017 6.089 1.64004 6.10187 1.79991C6.10639 1.85387 6.09352 1.90884 6.09213 1.96348C6.08517 2.20295 6.09491 2.4441 6.06917 2.68187C6.02951 3.05051 5.92515 3.40363 5.70563 3.71426C5.66249 3.77531 5.59779 3.82421 5.53691 3.87109C5.27495 4.07211 4.96881 4.17329 4.64598 4.23838C4.44803 4.27852 4.27827 4.45356 4.26192 4.64716C4.23965 4.91327 4.18782 5.18376 4.29636 5.44379C4.34993 5.57229 4.42333 5.68731 4.56144 5.75307C4.65607 5.79793 4.74234 5.79658 4.83175 5.74768C4.92916 5.69439 5.02726 5.64245 5.12467 5.5895C5.31391 5.48663 5.50525 5.38713 5.69172 5.27988C5.86496 5.18038 6.02638 5.05795 6.20658 4.9733C6.35478 4.90348 6.52246 4.87144 6.68283 4.8276C6.76633 4.805 6.8526 4.7851 6.93888 4.77802C7.1563 4.76048 7.36851 4.79893 7.56889 4.87617C7.74318 4.94328 7.91678 5.01748 8.0768 5.11091C8.31371 5.24919 8.53253 5.41445 8.70995 5.6239C8.98165 5.94464 9.25995 6.26033 9.51913 6.59052C9.73968 6.87147 9.9432 7.16557 10.1425 7.46136C10.3979 7.84045 10.648 8.22325 10.8873 8.61213C11.1316 9.00944 11.365 9.41349 11.5936 9.81956C11.7418 10.0833 11.8837 10.3518 12.0082 10.6267C12.2117 11.0762 12.4059 11.5302 12.5902 11.9879C12.7019 12.2655 12.7948 12.5511 12.8821 12.8368C12.952 13.0651 13.0227 13.2979 12.9931 13.54C12.968 13.7464 12.9207 13.9495 12.8178 14.1363C12.8018 14.1653 12.8028 14.2031 12.7951 14.2365C12.7878 14.2668 12.7826 14.2985 12.7701 14.3269C12.7329 14.4125 12.6859 14.4952 12.6542 14.5829C12.5756 14.7997 12.4212 14.9188 12.2291 14.8996C12.2051 14.8972 12.1763 14.8935 12.1592 14.8793C12.0204 14.7626 11.8833 14.6436 11.7466 14.5245C11.7331 14.5127 11.7237 14.4955 11.7153 14.4797C11.5654 14.198 11.4186 13.9147 11.2631 13.6361C11.2328 13.5822 11.1688 13.5447 11.1183 13.5026C11.0787 13.4695 11.0359 13.4395 10.9938 13.4095C10.8272 13.2904 10.6605 13.1707 10.4929 13.053C10.3561 12.9569 10.217 12.8638 10.0796 12.768C10.0316 12.7346 9.98599 12.6982 9.93902 12.6631C9.80439 12.5619 9.67045 12.4604 9.53513 12.3602C9.37336 12.2402 9.21194 12.1198 9.04809 12.0024C8.87554 11.8789 8.69951 11.7602 8.52696 11.6371C8.45217 11.5838 8.38155 11.5255 8.30919 11.4692C8.23683 11.4128 8.16447 11.3565 8.08063 11.2911H8.07993ZM7.37965 13.7387C7.37686 13.7363 7.37408 13.7336 7.3713 13.7312C7.38695 14.5721 7.40295 15.4129 7.41896 16.2605C7.44366 16.2588 7.46905 16.2567 7.49723 16.2547C7.48297 16.1798 7.46174 16.1151 7.45931 16.0497C7.44957 15.7802 7.444 15.5104 7.43948 15.2405C7.43496 14.97 7.43983 14.6992 7.42974 14.4291C7.42104 14.1987 7.39704 13.969 7.37999 13.7387H7.37965Z" fill="currentColor"/>
</svg>
