<svg width="25" height="18" viewBox="0 0 25 18" fill="none" xmlns="http://www.w3.org/2000/svg">
<path d="M19.7143 5.89665C20.1911 5.49226 20.6465 5.08694 21.1228 4.70611C21.6339 4.29756 22.1677 3.91489 22.769 3.6399C22.9853 3.541 23.2263 3.49016 23.4588 3.42684C23.6347 3.37924 23.8134 3.33857 23.9936 3.31084C24.1442 3.28773 24.3021 3.26324 24.4261 3.39819C24.4537 3.42823 24.5107 3.44856 24.5535 3.44671C24.7014 3.44117 24.7627 3.53591 24.7974 3.64544C24.8349 3.7633 24.8606 3.88716 24.8715 4.00963C24.8958 4.27907 24.9105 4.54944 24.9243 4.81981C24.9362 5.05181 24.9471 5.28382 24.9505 5.51583C24.9695 6.75582 24.9909 7.99581 24.9999 9.23626C25.0027 9.60599 24.949 9.97156 24.7755 10.3113C24.6648 10.5289 24.5673 10.7526 24.4585 10.9712C24.3672 11.1552 24.0796 11.1926 23.9203 11.109C23.5576 10.9176 23.1949 10.7254 22.8389 10.5225C22.6892 10.4374 22.5594 10.32 22.4154 10.2253C22.2418 10.1111 22.0584 10.0104 21.8867 9.89392C21.7189 9.78023 21.5573 9.65729 21.3986 9.53204C21.1124 9.30697 20.8305 9.07773 20.5467 8.84943C20.4944 8.80737 20.4436 8.763 20.3884 8.71678C20.2315 8.98715 20.0751 9.24827 19.9273 9.51309C19.6126 10.0769 19.3583 10.6731 18.9585 11.1908C18.746 11.4653 18.5545 11.756 18.3315 12.0217C17.9788 12.4428 17.609 12.8504 17.2444 13.2613C17.1697 13.3454 17.0899 13.4267 17.0029 13.4983C16.8636 13.613 16.8303 13.7803 16.7652 13.93C16.6345 14.2323 16.499 14.5299 16.2932 14.7938C16.1824 14.9357 16.0883 15.0896 15.9823 15.2356C15.7812 15.5129 15.5806 15.7907 15.3729 16.0629C15.1642 16.3365 14.9545 16.6096 14.7316 16.8717C14.5819 17.0478 14.4141 17.2109 14.2425 17.3671C14.0594 17.534 13.8698 17.6971 13.6687 17.8422C13.4629 17.9906 13.228 18.0262 12.968 17.9827C12.6543 17.93 12.39 17.7761 12.1133 17.6444C11.9869 17.5843 11.8585 17.5289 11.733 17.467C11.5552 17.3787 11.3836 17.2784 11.2025 17.1975C10.9529 17.0852 10.6934 16.9942 10.4448 16.8795C10.1743 16.7548 9.91476 16.6064 9.64476 16.4807C9.42942 16.3809 9.20267 16.3051 8.98638 16.2076C8.86801 16.1539 8.76106 16.0768 8.64745 16.0121C8.59801 15.9839 8.54809 15.9464 8.4939 15.9367C8.27856 15.8988 8.06085 15.8766 7.84598 15.8369C7.60307 15.7916 7.36064 15.7422 7.12201 15.6788C6.90952 15.6225 6.70226 15.5467 6.49358 15.4773C6.27206 15.4034 6.04627 15.3382 5.8314 15.249C5.56615 15.1386 5.31088 15.0055 5.05038 14.8844C4.99762 14.8599 4.94105 14.8437 4.88543 14.8257C4.83742 14.81 4.78466 14.803 4.74045 14.7809C4.55696 14.6884 4.37109 14.5997 4.19568 14.4948C3.89573 14.315 3.58627 14.1445 3.31056 13.9332C2.92076 13.6347 2.54285 13.3176 2.1887 12.9803C1.91917 12.7238 1.70146 12.416 1.44666 12.1437C1.18379 11.8632 0.991266 11.5392 0.810629 11.2102C0.587684 10.8044 0.361413 10.3949 0.198364 9.96509C0.0334134 9.52973 -0.0497754 9.06711 0.0315115 8.59431C0.0329376 8.58599 0.0315119 8.57721 0.0334133 8.56935C0.194561 8.03047 0.339545 7.4865 0.52256 6.95501C0.682757 6.48915 0.982711 6.09446 1.29265 5.7104C1.49563 5.45852 1.69147 5.20063 1.90254 4.95568C2.26096 4.53927 2.61891 4.12055 3.06432 3.78502C3.33005 3.58444 3.58579 3.36815 3.86816 3.19252C4.15385 3.01459 4.46236 2.86855 4.76849 2.72435C5.42212 2.41609 6.1228 2.24462 6.82919 2.10135C7.16574 2.03341 7.51085 2.00383 7.85359 1.9664C8.00998 1.9493 8.14832 1.9077 8.27429 1.81342C8.47251 1.66507 8.69974 1.57356 8.93551 1.49176C9.46269 1.3092 9.98179 1.10354 10.5075 0.916822C10.8099 0.8096 11.1174 0.714856 11.4259 0.625196C11.8851 0.492092 12.3434 0.355291 12.8088 0.245296C13.1719 0.159795 13.5446 0.11173 13.9135 0.0498001C14.039 0.0285405 14.1654 0.012827 14.2919 0.00081073C14.3318 -0.00288659 14.377 0.00635677 14.4141 0.0225326C14.5334 0.0738329 14.6641 0.114041 14.7639 0.190761C14.8642 0.26748 14.9555 0.372853 15.0106 0.484235C15.1043 0.673261 15.1556 0.882159 15.245 1.0735C15.3211 1.23756 15.4233 1.39008 15.5179 1.54537C15.8192 2.0385 16.1216 2.5307 16.4248 3.02245C16.5413 3.21101 16.6796 3.38848 16.6896 3.6228C16.6906 3.64914 16.7481 3.67965 16.7847 3.69675C17.0186 3.80489 17.261 3.89733 17.4868 4.01887C17.9241 4.25412 18.3458 4.51432 18.7042 4.85909C18.9233 5.06938 19.1491 5.27319 19.3631 5.48902C19.4895 5.61658 19.5984 5.76078 19.7124 5.8948L19.7143 5.89665ZM9.09381 14.2059C9.3448 14.2059 9.57393 14.2082 9.80305 14.205C9.94566 14.2031 10.0883 14.187 10.2309 14.1874C10.3873 14.1884 10.5441 14.2142 10.6991 14.2055C10.9111 14.1934 11.1212 14.1555 11.3328 14.1347C11.8842 14.0811 12.4014 13.9041 12.9143 13.716C13.2428 13.5954 13.567 13.4637 13.8874 13.3236C14.1621 13.2035 14.4369 13.0787 14.6964 12.9313C14.984 12.7677 15.2559 12.5782 15.5316 12.3952C15.9842 12.0943 16.3545 11.7079 16.702 11.3012C16.9425 11.0198 17.1669 10.7249 17.4003 10.4374C17.7611 9.99375 18.0848 9.5265 18.352 9.0232C18.5065 8.73204 18.6576 8.43902 18.8216 8.15248C18.8953 8.024 18.9666 7.91031 18.8601 7.76704C18.8292 7.72544 18.8159 7.66813 18.805 7.61591C18.7151 7.19164 18.4399 6.87182 18.1371 6.58759C17.821 6.29042 17.5172 5.96967 17.1032 5.78481C16.8826 5.68637 16.6744 5.56204 16.4576 5.45482C16.3459 5.39936 16.2276 5.35638 16.1135 5.30462C15.8943 5.20525 15.679 5.09803 15.4575 5.00421C15.2455 4.91455 15.0263 4.84199 14.8134 4.75418C14.4431 4.60167 14.0761 4.44314 13.6853 4.34285C13.4087 4.27168 13.1358 4.18849 12.8592 4.1187C12.6657 4.06971 12.4698 4.02951 12.273 3.99484C12.0867 3.96203 11.8984 3.94031 11.7112 3.91489C11.4692 3.88207 11.2277 3.84603 10.9853 3.8183C10.7405 3.7901 10.4947 3.76468 10.2485 3.74805C10.0122 3.73233 9.77548 3.72725 9.53875 3.72124C9.38188 3.71708 9.22501 3.718 9.06814 3.718C8.849 3.71754 8.62986 3.718 8.39075 3.718C8.52813 3.84787 8.65458 3.95094 8.76106 4.07064C9.12328 4.47688 9.42751 4.91917 9.67423 5.40445C9.98084 6.00803 10.1852 6.64028 10.2993 7.2984C10.393 7.84006 10.4633 8.38726 10.4419 8.94047C10.4329 9.17063 10.4457 9.40217 10.4291 9.63187C10.4091 9.90455 10.3687 10.1758 10.3345 10.4476C10.3065 10.6699 10.297 10.8968 10.2399 11.1122C10.1111 11.6007 9.9699 12.0864 9.81018 12.5662C9.70608 12.8795 9.56537 13.1813 9.43274 13.4849C9.33197 13.7165 9.21788 13.9429 9.09381 14.2064V14.2059ZM8.87704 9.05C8.85375 8.75237 8.84377 8.52776 8.81715 8.30499C8.77817 7.97547 8.7525 7.64225 8.67644 7.32058C8.55047 6.79002 8.4207 6.25483 8.07559 5.80422C7.96435 5.6591 7.87451 5.48486 7.7319 5.37903C7.44668 5.16735 7.13627 4.98572 6.82728 4.8064C6.57297 4.65897 6.3486 4.4889 6.23784 4.21437C6.19125 4.09883 6.13563 4.08404 6.02678 4.1358C5.75915 4.2629 5.48724 4.38121 5.21723 4.50369C4.82649 4.68023 4.48042 4.92703 4.15242 5.19139C3.86388 5.42386 3.60005 5.68775 3.34098 5.95211C3.13135 6.16609 2.93835 6.39672 2.74963 6.62872C2.54047 6.88569 2.34177 7.15051 2.14307 7.41533C2.00284 7.6025 1.86451 7.78691 1.82695 8.03093C1.7913 8.2634 1.73759 8.49772 1.65345 8.71725C1.5888 8.88686 1.60306 9.04862 1.63491 9.20668C1.73521 9.70582 1.96861 10.1546 2.27379 10.5599C2.56662 10.9486 2.88606 11.3202 3.21168 11.6839C3.36808 11.8581 3.56155 12.0032 3.74694 12.1507C3.90143 12.2736 4.06781 12.3831 4.23181 12.495C4.40864 12.6156 4.5812 12.745 4.76992 12.8458C5.05133 12.996 5.34035 13.1351 5.63555 13.2585C6.04912 13.4309 6.47076 13.5848 6.89003 13.7442C6.91951 13.7553 6.96229 13.7595 6.98891 13.747C7.10775 13.6915 7.23229 13.6412 7.3383 13.5667C7.71193 13.3052 7.94629 12.9345 8.12645 12.5352C8.43686 11.847 8.67597 11.1371 8.74204 10.381C8.78292 9.91333 8.83569 9.44701 8.87562 9.05232L8.87704 9.05ZM23.4326 8.85266C23.4108 7.66998 23.3898 6.51873 23.368 5.33743C22.5061 5.83981 21.7731 6.44016 21.0553 7.08026C21.7898 7.743 22.5641 8.3392 23.4326 8.85266Z" fill="currentColor"/>
<path d="M6.31817 7.06501C6.32816 7.28962 6.27206 7.50961 6.15893 7.7222C6.09095 7.85022 6.0591 7.99581 6.00824 8.13261C5.90984 8.3965 5.71684 8.57028 5.44731 8.65855C5.29187 8.70939 5.14593 8.68489 5.02519 8.56057C4.89636 8.42885 4.72761 8.32256 4.63539 8.17097C4.45713 7.87657 4.23324 7.59742 4.17286 7.24849C4.15575 7.14866 4.16859 7.03219 4.20661 6.93791C4.30692 6.69204 4.5156 6.56309 4.77325 6.49978C4.99286 6.44617 5.20963 6.37638 5.43162 6.3371C5.5053 6.32415 5.59372 6.38331 5.67311 6.41474C5.69355 6.4226 5.71161 6.46881 5.72064 6.46604C5.91174 6.40965 5.9859 6.62317 6.15322 6.63935C6.24925 6.64859 6.3272 6.74103 6.31817 6.86258C6.31342 6.92543 6.31722 6.98828 6.31722 7.06408L6.31817 7.06501Z" fill="currentColor"/>
</svg>
