<svg width="18" height="18" viewBox="0 0 18 18" fill="none" xmlns="http://www.w3.org/2000/svg">
<path d="M4.30592 11.218C4.09918 11.1844 3.87789 11.1573 3.66081 11.1109C3.38592 11.0522 3.11333 10.9877 2.85452 10.8682C2.69526 10.7944 2.54441 10.7186 2.4062 10.6086C2.18874 10.4348 1.94104 10.295 1.73698 10.1084C1.549 9.93694 1.38514 9.73342 1.23965 9.52425C1.07273 9.28455 0.929162 9.02751 0.791336 8.77009C0.547842 8.31444 0.352204 7.83993 0.222417 7.33867C0.11675 6.93088 0.0554935 6.51819 0.015294 6.1006C-0.0421337 5.50737 0.0608544 4.94581 0.346462 4.41854C0.575024 3.99605 0.899299 3.66213 1.33269 3.44617C1.5781 3.32368 1.83537 3.21062 2.09992 3.14052C2.50575 3.0331 2.91999 2.94604 3.33577 2.88687C3.86985 2.81112 4.40507 2.85069 4.92078 3.012C5.16044 3.087 5.38556 3.20798 5.6145 3.31389C5.74965 3.37607 5.87944 3.44919 6.0276 3.52532C6.02262 3.43374 6.01229 3.34667 6.0142 3.25961C6.02683 2.75496 6.05363 2.25181 6.22668 1.76978C6.38212 1.33711 6.62332 0.967381 7.02302 0.708835C7.23894 0.569387 7.45679 0.440491 7.70909 0.375666C8.09577 0.276545 8.47977 0.164609 8.86913 0.0775478C9.247 -0.00649822 9.63062 -0.0400411 10.0123 0.0688796C10.0682 0.0847088 10.1237 0.104684 10.1754 0.130312C10.3565 0.220388 10.5506 0.294635 10.7133 0.41034C11.0005 0.61499 11.1869 0.902556 11.3247 1.22366C11.4702 1.56324 11.5499 1.91676 11.5912 2.28084C11.6149 2.48925 11.6444 2.6973 11.6716 2.90911C11.8002 2.85107 11.9346 2.77757 12.0778 2.72858C12.3519 2.63511 12.6287 2.5488 12.9082 2.47267C13.0928 2.42217 13.2823 2.38599 13.4718 2.35885C13.7034 2.32569 13.9377 2.28573 14.1701 2.29101C14.4343 2.29704 14.6969 2.35207 14.9603 2.3826C15.3259 2.42518 15.6632 2.55634 15.9925 2.7071C16.3305 2.862 16.6686 3.02368 16.9366 3.28713C17.1969 3.54303 17.4148 3.83098 17.5545 4.16942C17.6491 4.39819 17.6977 4.63827 17.7551 4.87797C17.857 5.30386 17.8393 5.732 17.8252 6.15901C17.8099 6.62296 17.7245 7.08126 17.5465 7.51468C17.4205 7.82109 17.2827 8.12335 17.136 8.4211C17.0802 8.53416 16.9844 8.62838 16.9105 8.726C17.0602 8.85037 17.2126 8.95741 17.3409 9.08743C17.5974 9.34749 17.7578 9.66219 17.8566 10.0123C17.9902 10.4868 18.0139 10.9711 17.9936 11.4569C17.9814 11.7468 17.9462 12.0385 17.8918 12.3238C17.8164 12.7176 17.7348 13.1134 17.6154 13.4959C17.4982 13.8717 17.3401 14.2365 17.1812 14.5983C17.0683 14.8553 16.9396 15.1082 16.7903 15.3464C16.5974 15.6547 16.3971 15.9604 16.1368 16.2215C16.0648 16.2939 16.012 16.3855 15.937 16.4545C15.7547 16.6226 15.5709 16.7906 15.3757 16.9437C15.1988 17.082 15.0166 17.2214 14.8167 17.3224C14.5652 17.4494 14.2972 17.5486 14.03 17.6409C13.6789 17.7623 13.3133 17.7894 12.9427 17.7596C12.7382 17.7434 12.5445 17.6884 12.3477 17.6353C11.9182 17.5188 11.5782 17.2674 11.2417 16.9972C10.8021 16.6448 10.5073 16.1925 10.26 15.7018C10.1838 15.5507 10.0985 15.4041 10.0096 15.2416C9.97672 15.2888 9.94609 15.3381 9.90934 15.3833C9.79371 15.5262 9.67733 15.6683 9.55826 15.8085C9.48552 15.894 9.41393 15.9826 9.33008 16.0565C9.15014 16.2155 8.96599 16.3704 8.77686 16.5185C8.5862 16.6674 8.39401 16.8163 8.18995 16.9463C7.99469 17.0711 7.78374 17.1724 7.5793 17.2832C7.21674 17.4792 6.8358 17.6349 6.43993 17.751C6.04177 17.8678 5.64207 17.9737 5.22131 17.9967C5.01075 18.0084 4.80669 17.9873 4.60148 17.9624C4.51955 17.9526 4.44106 17.9108 4.36181 17.8814C4.06434 17.7706 3.84267 17.5531 3.6164 17.3484C3.51035 17.2523 3.43722 17.1178 3.36104 16.9934C3.29059 16.8785 3.24235 16.7507 3.17421 16.6342C2.96593 16.2788 2.8461 15.8937 2.74886 15.4979C2.67535 15.1975 2.64128 14.8945 2.62788 14.5866C2.61486 14.284 2.63745 13.984 2.71517 13.6938C2.79518 13.3953 2.88477 13.0953 3.00996 12.8133C3.15889 12.4783 3.35338 12.1628 3.61717 11.8979C3.84573 11.6684 4.07812 11.4426 4.30592 11.2184V11.218ZM12.2999 9.80164C12.2922 9.89586 12.2953 9.98933 12.2754 10.0771C12.2068 10.3756 12.149 10.679 12.051 10.9685C11.935 11.3099 11.7773 11.6375 11.6448 11.9736C11.5479 12.2194 11.3917 12.4282 11.2018 12.603C11.0847 12.7108 11.0016 12.8164 10.9752 12.9709C10.9495 13.1198 10.8737 13.2709 10.8891 13.4137C10.9197 13.7005 10.9825 13.9866 11.059 14.2659C11.1613 14.6397 11.3228 14.991 11.5487 15.3117C11.7842 15.6464 12.0602 15.9419 12.4461 16.1032C12.7371 16.2249 13.0491 16.2754 13.3688 16.257C13.4297 16.2536 13.4974 16.2694 13.551 16.2491C13.7356 16.1793 13.9285 16.1183 14.0935 16.015C14.3535 15.8522 14.6035 15.6698 14.8386 15.4734C15.1211 15.2375 15.3543 14.9526 15.5702 14.6556C15.8164 14.3171 16.0453 13.9666 16.1973 13.5769C16.3041 13.3037 16.3876 13.0214 16.4729 12.7406C16.6062 12.303 16.6556 11.8515 16.6686 11.3981C16.6766 11.1253 16.6494 10.8509 16.6288 10.578C16.6188 10.445 16.6092 10.2976 16.499 10.2049C16.386 10.1099 16.2574 10.0278 16.1238 9.96332C15.9714 9.88945 15.8091 9.83254 15.6464 9.78468C15.4848 9.73719 15.3144 9.67199 15.1529 9.68292C14.8772 9.70138 14.6065 9.78128 14.3317 9.8201C14.1146 9.85063 13.8941 9.86872 13.6751 9.87324C13.4274 9.87852 13.1793 9.86722 12.9316 9.85402C12.7248 9.84309 12.5185 9.8201 12.3002 9.80126L12.2999 9.80164ZM3.95025 14.7355C3.95446 14.7355 3.95829 14.7355 3.9625 14.7355C3.9625 14.766 3.95752 14.7977 3.96326 14.8271C4.03179 15.1776 4.09382 15.5296 4.24121 15.8601C4.38899 16.1918 4.57851 16.4714 4.9962 16.4846C5.09076 16.4876 5.18571 16.488 5.28027 16.4891C5.33119 16.4899 5.38518 16.5016 5.43227 16.4891C5.66581 16.4262 5.90356 16.3727 6.12791 16.2856C6.44223 16.1639 6.75808 16.0369 7.05096 15.8741C7.39668 15.6818 7.74086 15.4802 8.03566 15.2119C8.28336 14.9861 8.54064 14.7683 8.76805 14.5237C9.06017 14.2093 9.26882 13.8362 9.44685 13.448C9.5039 13.3229 9.54716 13.1963 9.53644 13.0546C9.53184 12.995 9.51959 12.9645 9.45642 12.9483C9.32166 12.914 9.18383 12.8816 9.05711 12.8265C8.796 12.7131 8.53758 12.5925 8.28528 12.461C8.14401 12.3875 8.01345 12.291 7.88443 12.1968C7.57815 11.9733 7.27685 11.743 6.9698 11.5202C6.93687 11.4961 6.86834 11.4848 6.83427 11.5022C6.52837 11.6555 6.22439 11.8135 5.92346 11.977C5.63671 12.1331 5.36488 12.3094 5.1122 12.519C4.81894 12.7621 4.54711 13.0206 4.30362 13.3142C4.06012 13.6082 3.96135 13.9391 3.95101 14.3062C3.9468 14.449 3.95025 14.5923 3.95025 14.7355ZM12.5924 8.05175C12.7011 8.04685 12.7953 8.04082 12.8895 8.03818C13.1781 8.03064 13.4672 8.01971 13.7558 8.01858C13.9748 8.01783 14.1938 8.02725 14.4124 8.03893C14.5587 8.04685 14.7072 8.05363 14.85 8.0834C15.02 8.11883 15.1801 8.12901 15.3351 8.03855C15.3998 8.00087 15.4718 7.97335 15.5319 7.92963C15.6923 7.8128 15.8661 7.70652 16.002 7.56556C16.311 7.24521 16.435 6.83817 16.4814 6.40927C16.5089 6.15487 16.512 5.89783 16.5235 5.64192C16.5262 5.58351 16.5262 5.52358 16.5154 5.46629C16.4802 5.27446 16.4278 5.08488 16.4037 4.89154C16.365 4.57797 16.1196 4.43287 15.8971 4.27495C15.7838 4.19467 15.6402 4.15397 15.5074 4.10271C15.3543 4.04354 15.2015 3.97683 15.0418 3.94103C14.8236 3.89203 14.6 3.86678 14.378 3.83663C14.2398 3.81779 14.0993 3.7914 13.9614 3.79932C13.7482 3.81138 13.5342 3.83776 13.3248 3.87959C12.7616 3.99228 12.2754 4.25724 11.8535 4.63789C11.7141 4.7634 11.5786 4.89418 11.4507 5.03099C11.3305 5.15988 11.2225 5.29971 11.1157 5.42672C11.2968 5.6325 11.4786 5.82057 11.6383 6.02522C11.7972 6.22911 11.9453 6.44281 12.0786 6.66404C12.3362 7.09181 12.5908 7.52373 12.5916 8.05175H12.5924ZM5.80287 5.17383C5.61986 5.02646 5.45983 4.88212 5.28334 4.76076C5.18265 4.69179 5.05363 4.66427 4.94068 4.61076C4.63708 4.46754 4.31128 4.39631 3.98164 4.37558C3.45216 4.34204 2.93033 4.40196 2.43032 4.59455C2.04326 4.7438 1.68759 4.93488 1.44639 5.28539C1.41998 5.32383 1.3771 5.35624 1.36485 5.39808C1.27564 5.7075 1.3369 6.01843 1.366 6.32861C1.37595 6.43603 1.38744 6.54457 1.41347 6.64897C1.4663 6.86153 1.53598 7.06995 1.58728 7.28289C1.65926 7.58101 1.77488 7.86255 1.9284 8.12562C2.05589 8.34459 2.20368 8.55414 2.35758 8.75653C2.57389 9.04108 2.85644 9.2608 3.18071 9.40779C3.54327 9.57173 3.93531 9.65013 4.33463 9.68141C4.5027 9.6946 4.67039 9.71269 4.83846 9.72098C4.97476 9.72739 5.11182 9.72249 5.26726 9.72249C5.22055 9.62864 5.18877 9.55402 5.14781 9.48505C4.83349 8.95929 4.62407 8.4064 4.61947 7.78302C4.61794 7.57724 4.61105 7.37636 4.64512 7.17171C4.72705 6.68063 4.90508 6.22987 5.18188 5.81378C5.3423 5.57295 5.53755 5.3668 5.80325 5.17345L5.80287 5.17383ZM9.93078 4.67144C9.98016 4.5889 10.0491 4.50824 10.0805 4.41515C10.2585 3.8909 10.3795 3.35497 10.3243 2.79793C10.2972 2.5228 10.2497 2.24918 10.1972 1.97744C10.177 1.87154 10.1536 1.75357 10.0456 1.68761C9.87143 1.58058 9.67962 1.52517 9.47556 1.51613C9.07663 1.49879 8.69608 1.59528 8.32624 1.72606C7.99316 1.84402 7.69377 2.02116 7.46866 2.2993C7.43573 2.34001 7.40893 2.39089 7.39706 2.44139C7.37983 2.51338 7.38175 2.58913 7.37103 2.66262C7.32164 2.99768 7.35265 3.33424 7.35303 3.67004C7.35303 3.79969 7.35686 3.93274 7.33083 4.05862C7.29407 4.23462 7.23052 4.40535 7.17769 4.58098C7.42884 4.52784 7.6731 4.45887 7.92233 4.42797C8.19339 4.39405 8.46866 4.38764 8.74279 4.38349C9.15627 4.37671 9.53988 4.50259 9.93154 4.67181L9.93078 4.67144Z" fill="currentColor"/>
</svg>
