<svg width="20" height="18" viewBox="0 0 20 18" fill="none" xmlns="http://www.w3.org/2000/svg">
<path d="M3.56973 6.84323C3.44533 6.69667 3.30784 6.55918 3.2 6.40082C3.07406 6.21526 2.96584 6.01553 2.86417 5.81461C2.73707 5.56366 2.61036 5.31035 2.5083 5.04798C2.39777 4.76276 2.33807 4.46059 2.32921 4.15252C2.3219 3.89133 2.30418 3.62738 2.33422 3.36974C2.36426 3.10933 2.43628 2.85247 2.51023 2.59995C2.57416 2.38131 2.64811 2.16148 2.75132 1.95978C2.8788 1.7104 3.02785 1.4697 3.19114 1.24357C3.38063 0.981194 3.63212 0.784217 3.90441 0.611665C4.19904 0.425325 4.51793 0.307927 4.8503 0.224409C5.05789 0.172407 5.26663 0.122769 5.47691 0.0865251C5.68103 0.0510693 5.88785 0.0278261 6.09428 0.00970427C6.46555 -0.0225999 6.83181 0.0286143 7.18998 0.1208C7.52813 0.207863 7.85935 0.321715 8.16861 0.491509C8.36195 0.597877 8.55952 0.697547 8.74438 0.817309C8.91307 0.926435 9.07329 1.05092 9.22657 1.18172C9.54353 1.45236 9.80427 1.77422 10.0111 2.13942C10.2256 2.51801 10.3981 2.91314 10.4436 3.35595C10.4571 3.48871 10.4802 3.62029 10.4991 3.75581H11.4338C11.4488 3.51274 11.4673 3.26928 11.4784 3.02503C11.4962 2.64328 11.6171 2.29148 11.7673 1.94796C11.951 1.528 12.2237 1.18132 12.5938 0.917768C12.8141 0.760974 13.0521 0.644364 13.3009 0.536815C13.6995 0.364657 14.1216 0.304776 14.5356 0.206681C14.7286 0.160982 14.9273 0.12986 15.1249 0.121193C15.3255 0.112132 15.5281 0.148376 15.7295 0.147982C16.0115 0.147588 16.2826 0.212984 16.5468 0.294139C16.8457 0.38593 17.1368 0.50845 17.4237 0.635303C17.6302 0.7267 17.8328 0.833067 18.0215 0.957557C18.2387 1.10056 18.4494 1.25814 18.6435 1.43188C18.9554 1.7108 19.2262 2.02911 19.4449 2.39234C19.6498 2.73232 19.8162 3.08885 19.889 3.48201C19.9379 3.74478 19.9756 4.01149 19.9922 4.2778C20.0276 4.84864 19.9398 5.40569 19.7796 5.9521C19.6452 6.41106 19.4973 6.86529 19.2774 7.28957C19.1399 7.55471 18.9997 7.82023 18.8372 8.0696C18.7074 8.26894 18.5422 8.44465 18.3978 8.62429C18.6277 8.92369 18.8699 9.22428 19.0968 9.53708C19.324 9.85067 19.5227 10.1855 19.666 10.5484C19.7927 10.869 19.8651 11.2039 19.8944 11.5514C19.9283 11.956 19.9032 12.3535 19.8073 12.745C19.75 12.9802 19.6768 13.2115 19.6063 13.4431C19.4923 13.8197 19.3244 14.1716 19.1106 14.4981C18.9007 14.8184 18.6423 15.0989 18.3438 15.3337C17.9818 15.6185 17.6171 15.9022 17.2366 16.1602C16.8422 16.4273 16.434 16.6751 16.0203 16.9099C15.6448 17.1231 15.2431 17.2814 14.8256 17.3898C14.4444 17.4886 14.0627 17.5875 13.6768 17.6632C13.2936 17.7384 12.9054 17.7904 12.5183 17.8416C12.1374 17.8921 11.755 17.9338 11.3721 17.9693C11.1676 17.9882 10.9608 17.9901 10.7552 17.9925C10.4166 17.9961 10.0769 18.0091 9.73957 17.9894C9.34904 17.9665 8.96006 17.9149 8.57107 17.8704C8.35463 17.8456 8.13741 17.8188 7.92366 17.7774C7.70568 17.7353 7.49193 17.6726 7.27548 17.6218C7.04749 17.5682 6.81641 17.5269 6.59072 17.4642C6.31419 17.3878 6.04075 17.2976 5.76769 17.2081C5.59553 17.1514 5.42607 17.0864 5.25661 17.0226C5.05211 16.9454 4.84645 16.8705 4.64502 16.7854C4.52255 16.7338 4.40932 16.6594 4.28723 16.6054C4.12394 16.5329 3.95371 16.4774 3.79195 16.4021C3.6275 16.3257 3.46767 16.2386 3.30938 16.1488C3.08485 16.0208 2.86109 15.8908 2.64194 15.7533C2.44591 15.6304 2.2441 15.511 2.06617 15.3637C1.68258 15.0465 1.31054 14.7124 1.05057 14.2756C0.833743 13.9104 0.616913 13.5436 0.429738 13.1622C0.221766 12.7383 0.0846582 12.2849 0.0384422 11.8098C0.0137936 11.5573 -0.00700368 11.302 0.00223953 11.0495C0.0249624 10.4353 0.13357 9.83688 0.390069 9.2755C0.552981 8.91897 0.779439 8.60538 1.03709 8.31464C1.31554 8.00066 1.6198 7.71662 1.9618 7.47592C2.29763 7.23915 2.65273 7.04808 3.05827 6.96653C3.23043 6.93187 3.40027 6.88498 3.56819 6.84441L3.56973 6.84323ZM2.22638 9.17031C2.48288 9.38305 2.70896 9.5942 2.95775 9.77148C3.23659 9.97004 3.52582 10.1591 3.82892 10.3151C4.21059 10.5117 4.60959 10.674 5.00397 10.8442C5.33441 10.9868 5.66601 11.1287 6.003 11.2551C6.55297 11.4619 7.10641 11.6589 7.66023 11.8539C7.96256 11.9603 8.26605 12.0643 8.57415 12.1502C8.85183 12.2278 9.13529 12.2865 9.41837 12.3408C9.70645 12.3964 9.99568 12.45 10.2868 12.4799C10.5391 12.5059 10.7952 12.4996 11.0494 12.5051C11.1834 12.5079 11.3175 12.5036 11.4515 12.5067C11.584 12.5099 11.7168 12.5264 11.8489 12.5225C12.0673 12.5162 12.2853 12.4866 12.5033 12.487C12.9135 12.4878 13.3144 12.4165 13.7138 12.3357C13.9429 12.2892 14.1713 12.2305 14.3935 12.1573C14.7043 12.0548 15.0117 11.9398 15.3159 11.8177C15.5146 11.7377 15.7057 11.6376 15.8982 11.5423C16.1208 11.4324 16.3431 11.3209 16.563 11.2051C16.821 11.0692 17.0779 10.9301 17.3321 10.7859C17.3779 10.7599 17.4203 10.7107 17.443 10.6614C17.4819 10.5787 17.5281 10.5231 17.6217 10.5034C17.7684 10.4723 17.9125 10.4278 18.0731 10.3845C18.045 10.3451 18.0253 10.3136 18.0018 10.2852C17.9587 10.2336 17.9094 10.1875 17.8697 10.1335C17.671 9.8613 17.4507 9.61036 17.1819 9.40905C17.0783 9.33144 16.9893 9.24713 16.9423 9.12382C16.9119 9.04346 16.8611 9.01864 16.7756 9.01233C16.4979 8.99185 16.2202 8.96388 15.9437 8.92685C15.6491 8.88745 15.3752 8.77399 15.1037 8.65659C14.9497 8.59002 14.7937 8.52698 14.6427 8.45371C14.479 8.37452 14.3103 8.29967 14.1609 8.19646C13.9321 8.03848 13.7188 7.85608 13.4973 7.68707C13.1642 7.43297 12.8815 7.12727 12.6231 6.79674C12.3488 6.44651 12.1859 6.02892 11.9691 5.64403C11.9098 5.53924 11.8763 5.45217 11.7373 5.41081C11.4981 5.3395 11.2616 5.28041 11.0132 5.28041C10.8264 5.28041 10.6389 5.27844 10.4528 5.29302C10.3261 5.30326 10.2017 5.28868 10.1378 5.48015C10.0342 5.79176 9.87783 6.08605 9.73341 6.38269C9.60015 6.65649 9.39487 6.87632 9.1611 7.05832C8.96121 7.21433 8.73938 7.34315 8.51831 7.46764C8.14781 7.67604 7.7415 7.78123 7.32863 7.85253C7.03555 7.90335 6.73899 7.93999 6.44283 7.96205C6.10892 7.98687 5.77115 8.01918 5.43955 7.9916C5.08253 7.96205 4.73014 7.86711 4.35733 7.79699C4.31766 7.88366 4.2699 7.97663 4.23139 8.07394C4.17747 8.20946 4.07849 8.28116 3.94254 8.30519C3.85088 8.32134 3.75845 8.33434 3.6664 8.34852C3.09717 8.43598 2.68238 8.80393 2.22677 9.16834L2.22638 9.17031ZM1.39758 10.2694C1.37871 10.338 1.35675 10.3864 1.35252 10.4361C1.32517 10.7824 1.26471 11.1243 1.30399 11.4769C1.34135 11.813 1.40412 12.1391 1.52544 12.4523C1.6483 12.7691 1.80929 13.0673 2.01341 13.336C2.16168 13.5314 2.31342 13.7307 2.49559 13.8899C2.73592 14.0999 2.9955 14.2933 3.26856 14.4556C3.63097 14.6715 4.00609 14.8704 4.39122 15.0406C4.92501 15.2766 5.46574 15.5 6.01648 15.6895C6.52678 15.8652 7.05249 15.996 7.57512 16.1327C7.85511 16.2059 8.14126 16.254 8.42626 16.3052C8.62268 16.3407 8.82102 16.3671 9.01975 16.3887C9.2231 16.4108 9.42761 16.4242 9.63173 16.438C9.85318 16.4529 10.0746 16.4683 10.2965 16.4762C10.4317 16.4809 10.5672 16.4707 10.7024 16.4699C10.7871 16.4695 10.8726 16.4805 10.957 16.4754C11.1126 16.4663 11.2674 16.4482 11.4226 16.4356C11.6129 16.4198 11.8035 16.4112 11.993 16.3903C12.2734 16.3596 12.5534 16.3261 12.8322 16.2839C13.1457 16.2363 13.4584 16.1819 13.77 16.1224C14.102 16.059 14.4305 15.9786 14.7398 15.8348C15.0024 15.7127 15.2747 15.6067 15.5239 15.4598C15.9025 15.2364 16.2641 14.9831 16.6342 14.7444C17.061 14.469 17.4634 14.1617 17.8251 13.8004C18.1778 13.4475 18.4474 13.0445 18.5514 12.541C18.6227 12.1959 18.6481 11.8496 18.5741 11.4923C18.5245 11.5608 18.479 11.6329 18.4455 11.7101C18.3916 11.8362 18.3269 11.954 18.2071 12.0233C17.978 12.1557 17.748 12.2869 17.5135 12.4086C17.0509 12.6481 16.5895 12.89 16.1193 13.1126C15.8355 13.2469 15.5408 13.3636 15.242 13.4569C14.8303 13.5857 14.4124 13.6976 13.9922 13.7945C13.6556 13.8721 13.3132 13.9273 12.9708 13.9738C12.6974 14.0108 12.4209 14.0266 12.1451 14.0384C11.8528 14.051 11.5597 14.0545 11.2674 14.051C10.977 14.0475 10.6858 14.04 10.3966 14.0175C10.0623 13.9915 9.72724 13.9624 9.39718 13.9056C9.0806 13.8509 8.76826 13.7654 8.45746 13.6811C8.11623 13.5885 7.77616 13.49 7.44109 13.3777C7.13221 13.2745 6.83104 13.1477 6.52486 13.035C6.33114 12.9637 6.13202 12.9066 5.94061 12.8297C5.53121 12.6663 5.12605 12.4929 4.71781 12.3259C4.55221 12.2581 4.38082 12.2049 4.21829 12.1309C3.98413 12.0237 3.75613 11.9032 3.52505 11.7889C3.34366 11.6991 3.1561 11.6207 2.98202 11.5179C2.76865 11.3918 2.55875 11.2567 2.36195 11.1054C2.12741 10.925 1.90788 10.7241 1.68373 10.5302C1.5913 10.4503 1.50272 10.3656 1.39758 10.2694ZM15.2435 1.61979C15.2416 1.62728 15.2397 1.63437 15.2377 1.64185C15.1341 1.6521 15.0309 1.66628 14.9273 1.6714C14.5888 1.68716 14.263 1.76516 13.9498 1.89123C13.5998 2.03266 13.2836 2.22569 13.0251 2.51801C12.7964 2.77644 12.7182 3.07703 12.7347 3.40834C12.7463 3.64353 12.771 3.88109 12.8202 4.11037C12.8799 4.38771 12.9535 4.66466 13.0533 4.929C13.232 5.40175 13.5223 5.80516 13.8717 6.16129C14.0631 6.35669 14.2745 6.52767 14.4987 6.68604C14.7494 6.86332 15.0047 7.02366 15.2882 7.13751C15.6714 7.29115 16.0642 7.40461 16.474 7.46055C16.8345 7.50979 17.1888 7.51886 17.5316 7.37034C17.5505 7.36206 17.572 7.35418 17.5859 7.33961C17.9021 7.0012 18.1713 6.62813 18.3458 6.1932C18.5587 5.66294 18.7193 5.1185 18.707 4.53623C18.7028 4.3298 18.7163 4.11825 18.6754 3.91891C18.6003 3.55214 18.4709 3.21215 18.1944 2.93442C17.9695 2.70829 17.7507 2.47979 17.4765 2.31867C17.2597 2.19103 17.0398 2.06417 16.8095 1.96608C16.6157 1.88335 16.4074 1.82859 16.201 1.78525C15.884 1.71907 15.5628 1.67376 15.2431 1.6194L15.2435 1.61979ZM6.13896 6.47055C6.23909 6.46542 6.39199 6.46109 6.5445 6.44888C6.70318 6.43588 6.86147 6.41815 7.01899 6.39727C7.29474 6.36063 7.5601 6.27908 7.80312 6.14435C8.01455 6.02735 8.22368 5.89813 8.41124 5.74528C8.69547 5.51324 8.88226 5.20359 9.00627 4.85297C9.15494 4.43302 9.22503 4.00282 9.17727 3.55686C9.12644 3.08451 8.86223 2.7335 8.53487 2.42779C8.37851 2.28203 8.21097 2.14651 8.0107 2.05826C7.82777 1.9775 7.65831 1.86326 7.47229 1.79156C7.29667 1.7238 7.10757 1.69307 6.92463 1.64382C6.62961 1.56425 6.33345 1.51855 6.02496 1.53509C5.76191 1.54928 5.50271 1.57252 5.25199 1.65328C4.8892 1.76989 4.54797 1.92944 4.27722 2.21466C4.19557 2.30055 4.11161 2.38485 4.03998 2.47901C3.93676 2.61453 3.82045 2.74689 3.75151 2.90054C3.63713 3.15621 3.60824 3.43868 3.60016 3.7176C3.59053 4.05482 3.6483 4.38259 3.75652 4.70445C3.86898 5.0397 4.04036 5.33675 4.28146 5.58494C4.62769 5.94147 5.03516 6.1999 5.51928 6.31808C5.59938 6.33778 5.70183 6.33424 5.75421 6.38466C5.85665 6.48276 5.96873 6.47173 6.13896 6.47055Z" fill="currentColor"/>
<path d="M17.1861 4.11864C17.1888 4.53899 17.064 4.85612 16.9319 5.17168C16.9092 5.22644 16.888 5.28199 16.8672 5.33714C16.7783 5.57469 16.5707 5.81579 16.2872 5.83589C16.1251 5.84731 15.9984 5.75591 15.8663 5.66136C15.5289 5.41948 15.3691 5.04955 15.1742 4.70563C15.1214 4.61266 15.0914 4.48738 15.1002 4.38102C15.1114 4.24786 15.0529 4.1541 15.0047 4.04773C14.9512 3.93033 14.8942 3.81293 14.8572 3.68963C14.8068 3.52298 14.9169 3.34925 15.0833 3.31576C15.3498 3.26219 15.6152 3.19443 15.8844 3.16646C16.0507 3.14912 16.2395 3.15543 16.3897 3.22043C16.6319 3.32561 16.8957 3.41268 17.0563 3.66205C17.1619 3.82554 17.1957 3.99809 17.1857 4.11864H17.1861Z" fill="currentColor"/>
<path d="M4.88766 3.37171C4.88573 3.07979 4.95698 2.88084 5.09293 2.70553C5.19076 2.57946 5.33287 2.54716 5.47768 2.52077C5.64021 2.49122 5.80119 2.44985 5.96487 2.43331C6.06771 2.42267 6.1817 2.42661 6.27722 2.46207C6.4305 2.51919 6.5757 2.60271 6.71858 2.68544C6.78675 2.72483 6.84221 2.78787 6.90383 2.83987C7.09524 3.00178 7.13683 3.22555 7.12066 3.4568C7.10564 3.67032 7.0783 3.88857 7.01552 4.09185C6.93618 4.35029 6.82449 4.60005 6.71011 4.84549C6.63 5.01764 6.4667 5.07477 6.29147 5.05271C6.14242 5.0338 5.99491 4.99046 5.85049 4.94594C5.79734 4.92979 5.75151 4.88252 5.70645 4.8447C5.5135 4.68278 5.31246 4.53072 5.22696 4.27031C5.1923 4.16473 5.12374 4.07019 5.06713 3.97249C4.94774 3.76645 4.89266 3.54307 4.88727 3.3721L4.88766 3.37171Z" fill="currentColor"/>
</svg>
