<svg width="20" height="18" viewBox="0 0 20 18" fill="none" xmlns="http://www.w3.org/2000/svg">
<path d="M10.1832 2.51148C10.5441 2.22191 10.8839 1.92668 11.2448 1.66708C11.5923 1.41692 11.959 1.19827 12.3233 0.976548C12.4973 0.870476 12.6836 0.788253 12.8656 0.698852C13.0605 0.602712 13.2558 0.507751 13.4534 0.418463C13.5329 0.382633 13.6185 0.36236 13.7014 0.335235C13.917 0.26587 14.1295 0.179517 14.3491 0.130682C14.6859 0.0557143 15.0253 -0.0012474 15.3741 2.07666e-05C15.6812 0.00141929 15.9821 0.035644 16.2854 0.0841021C16.4929 0.117139 16.6924 0.162569 16.8855 0.253782C17.1134 0.361191 17.3556 0.437012 17.5728 0.565395C18.1006 0.877816 18.5313 1.31485 18.8624 1.86616C19.0476 2.17405 19.2096 2.49581 19.3328 2.83907C19.4179 3.07677 19.492 3.31934 19.5744 3.55836C19.6231 3.70029 19.6862 3.83632 19.7285 3.98032C19.7764 4.14309 19.8112 4.31092 19.8457 4.47796C19.8743 4.6144 19.9024 4.75225 19.9171 4.89099C19.9472 5.17511 19.9775 5.45962 19.9914 5.74464C20.0119 6.1595 19.9966 6.57473 19.9365 6.98465C19.8691 7.44577 19.8135 7.91164 19.6542 8.34881C19.5164 8.72678 19.3907 9.112 19.2244 9.4743C19.0846 9.77839 18.9021 10.0603 18.7224 10.3395C18.5663 10.5816 18.3979 10.817 18.2161 11.0361C17.9649 11.3392 17.7035 11.6332 17.4325 11.9148C17.0596 12.3025 16.6757 12.677 16.2934 13.0531C15.9805 13.3611 15.6642 13.6655 15.347 13.9679C14.8979 14.396 14.4517 14.8287 13.9946 15.246C13.4257 15.7657 12.8553 16.2842 12.2682 16.7789C11.9255 17.0677 11.55 17.3111 11.1874 17.5716C11.0891 17.6422 11.0856 17.6365 10.8958 17.5515C10.88 17.6076 10.8652 17.6642 10.8482 17.7202C10.7848 17.932 10.6002 18.0462 10.4077 17.9823C10.1743 17.9045 9.94222 17.8216 9.71207 17.7329C9.38348 17.6065 9.05325 17.484 8.73069 17.3398C8.38367 17.1847 8.04354 17.0106 7.70302 16.8379C7.30667 16.6365 6.91083 16.4341 6.5199 16.2198C6.24172 16.0669 5.97271 15.8935 5.6993 15.7297C5.54768 15.6388 5.39085 15.5574 5.2438 15.4591C4.9198 15.243 4.59669 15.0245 4.28037 14.7952C4.06675 14.6403 3.86008 14.4726 3.66061 14.2969C3.47398 14.1325 3.2951 13.9567 3.12363 13.7737C2.89654 13.5316 2.67577 13.2827 2.46037 13.0278C2.12638 12.632 1.81589 12.2154 1.56129 11.7526C1.33562 11.3425 1.10189 10.9372 0.892567 10.5171C0.757251 10.2459 0.655724 9.95433 0.546825 9.66858C0.446919 9.40564 0.338093 9.14428 0.267442 8.87149C0.143476 8.39187 0.0528534 7.90451 0.0211797 7.40333C-0.0280943 6.62385 0.0103832 5.85169 0.11812 5.08336C0.182387 4.62497 0.301779 4.18139 0.529732 3.78682C0.638205 3.59859 0.762738 3.41633 0.904649 3.2576C1.18407 2.9454 1.48054 2.65128 1.77008 2.35039C2.06657 2.04213 2.40047 1.79207 2.76365 1.58612C3.01521 1.4435 3.25506 1.27381 3.51303 1.14883C3.71873 1.04924 3.9435 0.9949 4.16161 0.927713C4.3017 0.88435 4.44308 0.841428 4.58699 0.819103C4.8778 0.773925 5.16991 0.733468 5.46314 0.708493C5.67904 0.689988 5.89776 0.685994 6.114 0.69993C6.42784 0.720149 6.7428 0.747289 7.05354 0.8002C7.3222 0.84609 7.58937 0.917732 7.85011 1.00429C8.05934 1.07359 8.26035 1.1768 8.46064 1.27596C8.67039 1.37978 8.87907 1.48823 9.08043 1.60974C9.44948 1.83234 9.77042 2.12952 10.0914 2.4254C10.1273 2.45837 10.1621 2.49259 10.1823 2.51222L10.1832 2.51148Z" fill="currentColor"/>
</svg>
