<svg width="19" height="18" viewBox="0 0 19 18" fill="none" xmlns="http://www.w3.org/2000/svg">
<path d="M10.0335 3.46029C10.1758 3.30032 10.3132 3.13697 10.4597 2.98225C10.8915 2.52674 11.3923 2.16361 11.9687 1.90863C12.144 1.83127 12.3328 1.78546 12.5122 1.71711C12.9358 1.55563 13.3843 1.50344 13.8252 1.42007C14.002 1.38665 14.1848 1.38515 14.3653 1.37426C14.5326 1.36374 14.7014 1.34271 14.8668 1.35661C15.1613 1.38139 15.4539 1.42871 15.7472 1.46776C16.0663 1.51057 16.3603 1.63187 16.6487 1.7648C16.7948 1.83202 16.9345 1.91238 17.0753 1.99012C17.7819 2.38104 18.2554 2.97699 18.5881 3.69387C18.732 4.00368 18.8194 4.33301 18.8758 4.66835C18.9208 4.93685 18.9522 5.20836 18.9768 5.47949C18.995 5.68227 19.0064 5.88768 18.9961 6.09046C18.9821 6.37361 18.9473 6.65563 18.9182 6.93765C18.869 7.40818 18.7607 7.86707 18.626 8.3192C18.478 8.81602 18.2963 9.30044 18.0692 9.7676C17.9795 9.95235 17.9061 10.1454 17.8054 10.3237C17.6268 10.6411 17.4375 10.9527 17.2441 11.2614C17.0901 11.5074 16.9322 11.7519 16.7593 11.9847C16.5814 12.2235 16.388 12.4515 16.1919 12.6764C15.9243 12.984 15.6507 13.2866 15.3747 13.5867C15.2438 13.729 15.1072 13.8672 14.9626 13.9952C14.5954 14.3193 14.2253 14.6404 13.8502 14.9558C13.6197 15.1496 13.382 15.3351 13.1409 15.5157C12.9267 15.6761 12.7034 15.824 12.4846 15.9784C12.3097 16.1019 12.139 16.2319 11.9608 16.3502C11.633 16.5672 11.3037 16.782 10.9695 16.9893C10.6993 17.1572 10.4214 17.3138 10.1455 17.4722C10.0993 17.4989 10.0448 17.5248 9.99375 17.5259C9.90367 17.5274 9.86847 17.5785 9.84084 17.6483C9.82835 17.6795 9.8098 17.7088 9.7992 17.7407C9.71859 17.9863 9.51458 18.0828 9.25986 17.9183C9.15577 17.8511 9.05963 17.7711 8.95933 17.6979C8.80642 17.586 8.65086 17.4767 8.49947 17.3626C8.21711 17.15 7.93173 16.9412 7.65733 16.7185C7.28224 16.4144 6.91549 16.1001 6.54646 15.7887C6.31293 15.592 6.07864 15.3959 5.85004 15.1939C5.68766 15.0505 5.53437 14.8973 5.37617 14.7489C5.14226 14.5296 4.90532 14.3137 4.67444 14.0918C4.54311 13.9656 4.42388 13.827 4.29444 13.699C4.14039 13.5465 3.97954 13.4012 3.82511 13.2491C3.72292 13.1484 3.62678 13.0422 3.52913 12.937C3.38644 12.7834 3.24375 12.6302 3.10371 12.4747C2.8857 12.2325 2.66125 11.9952 2.4546 11.744C2.1537 11.3778 1.8475 11.0132 1.57801 10.6245C1.31307 10.2426 1.08408 9.83557 0.852826 9.43225C0.710135 9.18366 0.579556 8.9268 0.467144 8.66355C0.315369 8.30756 0.208635 7.93616 0.127259 7.55689C0.0178754 7.04655 -0.0173244 6.53133 0.00765602 6.01273C0.0193892 5.77089 0.0492899 5.52793 0.0950872 5.29022C0.155267 4.97703 0.223775 4.66347 0.316127 4.35855C0.4081 4.05325 0.518619 3.75132 0.648062 3.45992C0.861531 2.98037 1.12042 2.52449 1.4357 2.10165C1.71616 1.72537 2.04204 1.39078 2.41561 1.10726C2.7309 0.868051 3.06889 0.665268 3.44473 0.521818C3.70097 0.424181 3.95115 0.314153 4.22139 0.259702C4.48293 0.207128 4.74598 0.160939 5.00638 0.103108C5.33377 0.0302564 5.66457 0.00134112 5.99916 0.00284321C6.266 0.00396979 6.53359 -0.0061695 6.80005 0.00622279C6.98513 0.0148598 7.16907 0.0524125 7.35302 0.0798258C7.48322 0.099353 7.6191 0.106864 7.74173 0.149673C7.97715 0.231537 8.21598 0.314904 8.43399 0.432818C8.92262 0.697187 9.24396 1.11702 9.47181 1.61196C9.56492 1.814 9.6743 2.01227 9.73713 2.22369C9.84235 2.57706 9.91616 2.93944 10.0025 3.29844C10.0153 3.35252 10.0233 3.40772 10.0331 3.46067L10.0335 3.46029ZM9.34047 16.2965C9.38816 16.2585 9.41958 16.2274 9.45629 16.2052C9.81813 15.9859 10.1868 15.7764 10.5426 15.5473C11.0183 15.2405 11.4926 14.9295 11.9521 14.5995C12.3729 14.2975 12.7825 13.9783 13.181 13.6475C13.5837 13.3129 13.9755 12.9644 14.3551 12.6039C14.6272 12.3456 14.8782 12.0643 15.1253 11.7819C15.38 11.4909 15.6333 11.1965 15.8607 10.8852C16.1382 10.5059 16.4061 10.1172 16.6446 9.71314C16.8516 9.36203 17.0314 8.99176 17.1866 8.61549C17.3304 8.26587 17.4451 7.90124 17.5367 7.53435C17.6147 7.22117 17.6514 6.89596 17.6873 6.57414C17.7168 6.30939 17.7369 6.04089 17.7259 5.7754C17.7138 5.48024 17.6782 5.18357 17.6226 4.89329C17.5738 4.63756 17.5215 4.36944 17.4023 4.14262C17.19 3.73931 16.8607 3.428 16.4425 3.22597C16.1965 3.10693 15.9451 3.00178 15.6738 2.94169C15.4043 2.88199 15.1344 2.82528 14.86 2.82641C14.516 2.82829 14.1719 2.8542 13.8286 2.87936C13.4437 2.90752 13.0754 3.00366 12.7196 3.15574C12.2931 3.33825 11.9055 3.58121 11.5626 3.88764C11.228 4.18656 10.9207 4.51401 10.7038 4.91169C10.5865 5.12724 10.4559 5.34054 10.3783 5.57074C10.2583 5.92636 10.1811 6.29625 10.0816 6.65901C10.0335 6.83325 9.98088 7.00674 9.92146 7.17761C9.86695 7.33457 9.80564 7.48929 9.73865 7.64138C9.69209 7.74728 9.57892 7.76793 9.48241 7.78333C9.44077 7.78971 9.38703 7.72249 9.33934 7.68832C9.30906 7.66654 9.27727 7.64626 9.25115 7.62035C9.20081 7.57153 9.1429 7.52572 9.10808 7.46676C9.02141 7.3188 8.93625 7.16822 8.8685 7.01087C8.81172 6.87831 8.75344 6.742 8.81135 6.58578C8.83633 6.51894 8.84882 6.41905 8.81589 6.3646C8.65806 6.10135 8.6414 5.83886 8.73867 5.54971C8.82005 5.30787 8.89575 5.0589 8.87758 4.79791C8.86168 4.56884 8.83405 4.34052 8.8174 4.11183C8.78636 3.68824 8.74359 3.2669 8.60885 2.86096C8.53694 2.64428 8.47525 2.42047 8.37154 2.21844C8.29698 2.07348 8.17207 1.94731 8.04831 1.83653C7.94157 1.74114 7.81326 1.66341 7.66452 1.63262C7.59223 1.6176 7.52372 1.5838 7.45143 1.57028C7.34242 1.55 7.2319 1.53686 7.12138 1.52559C6.84698 1.4978 6.57257 1.46363 6.29741 1.44899C6.11725 1.4396 5.93444 1.45312 5.7539 1.46776C5.47268 1.49067 5.18843 1.50419 4.91251 1.55639C4.24713 1.68219 3.65479 1.96946 3.12112 2.38517C2.70554 2.70849 2.37436 3.10542 2.08481 3.5354C1.91828 3.78287 1.77861 4.05137 1.65712 4.324C1.5553 4.55307 1.47771 4.79716 1.42472 5.042C1.36152 5.33416 1.33275 5.63345 1.29452 5.93049C1.24532 6.31015 1.26122 6.6913 1.32442 7.0657C1.37325 7.35485 1.46295 7.63762 1.54357 7.92077C1.64576 8.28014 1.81192 8.61361 2.00192 8.9328C2.33954 9.50097 2.7237 10.038 3.15859 10.5378C3.48182 10.9088 3.80051 11.2843 4.13472 11.6452C4.43789 11.9727 4.75847 12.2844 5.07413 12.6005C5.33112 12.8585 5.5885 13.1165 5.85193 13.3681C6.10854 13.6126 6.37235 13.8492 6.63465 14.0876C6.78566 14.2247 6.93782 14.3606 7.09262 14.4936C7.30155 14.6731 7.5135 14.8496 7.7247 15.0264C7.92265 15.192 8.11984 15.3588 8.32082 15.5202C8.51612 15.6772 8.71521 15.8293 8.91467 15.9814C9.05661 16.0895 9.20157 16.1939 9.34085 16.2968L9.34047 16.2965Z" fill="currentColor"/>
</svg>
