<svg width="21" height="18" viewBox="0 0 21 18" fill="none" xmlns="http://www.w3.org/2000/svg">
<path d="M4.37769 16.7519C4.48388 16.972 4.43302 17.1877 4.35845 17.3989C4.30588 17.5479 4.23818 17.6924 4.17049 17.8359C4.14987 17.8803 4.11207 17.9207 4.07324 17.9528C3.98665 18.0248 3.91036 18.0077 3.82205 17.9469C3.53306 17.7486 3.42688 17.4432 3.29973 17.1516C3.25678 17.0531 3.25094 16.9398 3.2286 16.8331C3.19561 16.6748 3.16263 16.5162 3.13101 16.3576C3.075 16.0781 3.02277 15.7977 2.96401 15.5185C2.9025 15.2279 2.83034 14.9389 2.77158 14.648C2.71213 14.3538 2.66368 14.0576 2.60904 13.7627C2.57914 13.6008 2.54341 13.4395 2.51489 13.2773C2.46918 13.0163 2.42829 12.7545 2.38431 12.4931C2.34857 12.2813 2.30837 12.0705 2.27538 11.8584C2.23998 11.6298 2.21146 11.4003 2.17813 11.1714C2.15305 10.9993 2.12315 10.8279 2.09875 10.6558C2.07332 10.4779 2.05477 10.2989 2.02797 10.1212C1.98914 9.86182 1.94378 9.60338 1.90563 9.34363C1.8857 9.20801 1.87677 9.07108 1.85993 8.9348C1.83038 8.6977 1.79705 8.46094 1.76853 8.22352C1.7565 8.12369 1.75409 8.02288 1.74653 7.92272C1.74585 7.91517 1.73966 7.90827 1.7297 7.88923C1.61699 8.00383 1.50909 8.11318 1.40222 8.22286C1.30978 8.31777 1.21666 8.41168 1.12732 8.50888C1.05378 8.58868 0.981961 8.67045 0.915641 8.75583C0.845197 8.84613 0.750356 8.89769 0.641769 8.92823C0.612217 8.93644 0.564452 8.93611 0.545209 8.91903C0.439715 8.82577 0.317727 8.73941 0.244534 8.62546C0.149006 8.47736 0.0888709 8.30726 0.0228943 8.14307C-0.0272754 8.01894 0.00846187 7.89908 0.0964307 7.80286C0.353465 7.52177 0.609812 7.23969 0.879216 6.96976C1.26271 6.58522 1.69499 6.2529 2.13415 5.92813C2.41489 5.72059 2.68842 5.50451 2.96882 5.29632C3.23204 5.10093 3.49904 4.91014 3.76604 4.71902C4.09798 4.48127 4.4313 4.24517 4.76462 4.00906C4.97767 3.85833 5.19347 3.71187 5.40514 3.5595C5.74533 3.31453 6.08312 3.0666 6.42125 2.81966C6.73533 2.59012 7.05146 2.36321 7.36245 2.12973C7.6889 1.88508 8.0071 1.63058 8.33457 1.38725C8.7081 1.10977 9.08574 0.837869 9.46545 0.568596C9.61837 0.459901 9.77609 0.355147 9.94172 0.265499C10.0599 0.201464 10.1919 0.153849 10.3232 0.11904C10.5029 0.0714247 10.6877 0.0385866 10.8719 0.0083754C10.9389 -0.00246122 11.0197 -0.00640175 11.0788 0.0192121C11.3149 0.121339 11.5654 0.202121 11.7334 0.412942C11.8052 0.503248 11.9028 0.574507 11.9839 0.658901C12.3145 1.00239 12.6402 1.34982 12.9736 1.69068C13.223 1.94583 13.4787 2.19606 13.7364 2.44366C14.0316 2.72705 14.3326 3.00519 14.6312 3.28563C14.8584 3.49941 15.0855 3.71319 15.313 3.92663C15.7384 4.32562 16.1662 4.72231 16.5889 5.12392C16.8339 5.35674 17.071 5.59745 17.3115 5.83454C17.5335 6.05357 17.7603 6.26866 17.9761 6.49327C18.2953 6.82527 18.607 7.1635 18.9211 7.49976C19.1709 7.7674 19.4217 8.03437 19.6678 8.30529C19.8729 8.53121 20.0746 8.75977 20.2732 8.99095C20.4853 9.23789 20.6928 9.48845 20.9 9.739C21.0158 9.87922 21.0196 10.0421 20.9691 10.202C20.9096 10.3915 20.8313 10.5754 20.7629 10.7626C20.7224 10.8726 20.6255 10.9117 20.5207 10.9317C20.4908 10.9376 20.4492 10.9057 20.4179 10.8847C20.3715 10.8532 20.3293 10.8154 20.2684 10.7668C20.2853 10.9258 20.2976 11.0601 20.3138 11.1941C20.3348 11.3701 20.3588 11.5458 20.3801 11.7221C20.4031 11.9126 20.4248 12.103 20.4461 12.2938C20.4684 12.4931 20.4887 12.6925 20.5117 12.8918C20.5347 13.0938 20.5602 13.2951 20.5832 13.497C20.6038 13.676 20.622 13.8553 20.6426 14.0342C20.6725 14.292 20.7059 14.5498 20.7344 14.8079C20.7457 14.9107 20.7444 15.0148 20.7557 15.1176C20.7753 15.2952 20.8035 15.4722 20.8224 15.6499C20.8543 15.9441 20.9045 16.242 20.8416 16.5342C20.8014 16.7211 20.7069 16.8971 20.6365 17.0777C20.6279 17.0997 20.6134 17.1201 20.6069 17.1424C20.5334 17.3995 20.3461 17.5305 20.0801 17.5598C19.7973 17.591 19.5135 17.6192 19.2293 17.6304C18.8324 17.6461 18.4345 17.6481 18.0373 17.6501C17.4332 17.653 16.8291 17.6507 16.225 17.6507C15.7226 17.6507 15.2205 17.6524 14.7182 17.6501C14.4711 17.6491 14.2244 17.6389 13.9773 17.6366C13.6306 17.6333 13.2835 17.6366 12.9368 17.631C12.8014 17.6287 12.6667 17.607 12.5313 17.5985C12.3832 17.5893 12.2348 17.5877 12.0866 17.5785C11.8977 17.5667 11.709 17.5499 11.5197 17.5371C11.3485 17.5256 11.1764 17.522 11.0056 17.5049C10.7743 17.4816 10.5441 17.4471 10.3132 17.4199C10.0988 17.3946 9.88399 17.3752 9.66991 17.3493C9.45686 17.3233 9.24484 17.2895 9.0318 17.2649C8.82287 17.2406 8.61291 17.2238 8.4033 17.2028C8.22564 17.1851 8.04833 17.165 7.87067 17.148C7.66244 17.1283 7.45385 17.1102 7.24527 17.0921C7.01263 17.0718 6.78 17.0511 6.54736 17.033C6.40029 17.0219 6.25322 17.014 6.1058 17.0074C5.79688 16.994 5.48761 16.9841 5.17869 16.9693C5.0189 16.9614 4.85877 16.9516 4.70036 16.9306C4.64401 16.923 4.58903 16.8846 4.53989 16.8521C4.49006 16.8189 4.44779 16.7753 4.40244 16.7362C4.39453 16.7411 4.38697 16.7464 4.37907 16.7513L4.37769 16.7519ZM19.7214 16.3375C19.7114 16.2489 19.7028 16.1763 19.6956 16.1034C19.6578 15.7366 19.62 15.3698 19.5829 15.003C19.5685 14.8595 19.5568 14.7156 19.541 14.5721C19.519 14.3728 19.4929 14.1741 19.4712 13.9748C19.4554 13.831 19.4472 13.6862 19.4303 13.5427C19.4094 13.3653 19.3784 13.1893 19.3595 13.0117C19.33 12.7329 19.3111 12.4531 19.2802 12.1746C19.2561 11.9582 19.2187 11.7435 19.1905 11.5274C19.151 11.221 19.1193 10.914 19.0754 10.6082C19.0317 10.3058 18.9798 10.004 18.9245 9.70321C18.9108 9.62867 18.8915 9.54427 18.8005 9.51045C18.6953 9.47137 18.5905 9.43098 18.4836 9.39782C18.3036 9.34199 18.1249 9.27763 17.9404 9.24216C17.6153 9.17977 17.2864 9.13478 16.9586 9.0852C16.7971 9.06089 16.6346 9.04251 16.4724 9.02215C16.3026 9.0008 16.1329 8.97913 15.9628 8.96008C15.792 8.94104 15.6209 8.92396 15.4497 8.90787C15.3353 8.89703 15.2202 8.89112 15.1058 8.87864C14.9656 8.86354 14.8261 8.84154 14.6859 8.82741C14.4405 8.80279 14.1952 8.78144 13.9495 8.75977C13.7223 8.73974 13.4952 8.72135 13.268 8.70099C13.1034 8.68621 12.9388 8.66815 12.7742 8.65337C12.555 8.63367 12.3354 8.61495 12.1159 8.59788C11.8867 8.57981 11.6571 8.56668 11.4279 8.5473C11.1485 8.52366 10.8699 8.49378 10.5905 8.47079C10.3207 8.44846 10.05 8.43598 9.78022 8.41135C9.37748 8.37458 8.97544 8.32926 8.57271 8.29051C8.24007 8.25833 7.9071 8.23173 7.57447 8.20053C7.20232 8.16572 6.83086 8.12895 6.45871 8.09315C6.1357 8.06228 5.81166 8.03667 5.48933 7.99989C5.12474 7.95852 4.76221 7.90236 4.39762 7.86131C3.98115 7.81436 3.5633 7.77561 3.14579 7.73653C3.06607 7.72898 2.98531 7.73554 2.8781 7.73554C3.20936 10.4431 3.59422 13.1243 4.18973 15.7855C4.28766 15.7658 4.3856 15.7435 4.48456 15.7267C4.63267 15.7018 4.78146 15.6604 4.92991 15.6617C5.20515 15.664 5.48005 15.6923 5.7553 15.709C5.9467 15.7208 6.13776 15.7346 6.3295 15.7428C6.4484 15.7477 6.56729 15.7438 6.68722 15.7438C6.68722 15.7445 6.69031 15.7366 6.68756 15.733C6.47554 15.4515 6.44084 15.1235 6.41129 14.7931C6.39617 14.626 6.37108 14.4595 6.34909 14.293C6.32022 14.0769 6.28827 13.8609 6.26009 13.6448C6.23878 13.4813 6.22229 13.3171 6.20133 13.1539C6.16662 12.8849 6.12745 12.6166 6.09515 12.3473C6.07659 12.1933 6.0656 12.0383 6.05666 11.8837C6.04704 11.7198 6.02642 11.554 6.04257 11.3921C6.06113 11.2056 6.14463 11.045 6.4027 10.9852C6.57588 10.9452 6.74873 10.9005 6.92467 10.8755C7.15662 10.8427 7.39063 10.824 7.62429 10.8062C7.7401 10.7974 7.85727 10.8017 7.97376 10.8053C8.31121 10.8158 8.64865 10.8233 8.98541 10.8434C9.11942 10.8512 9.25515 10.8785 9.38367 10.9166C9.4816 10.9458 9.56785 11.0102 9.6627 11.0509C9.77506 11.0995 9.83623 11.1924 9.86475 11.2926C9.95856 11.62 9.96578 11.9589 9.97952 12.2955C9.98811 12.5079 9.98055 12.7207 9.98365 12.9332C9.98674 13.1351 9.99705 13.3374 9.99911 13.5394C10.0019 13.8438 10.0029 14.1479 9.99911 14.4523C9.9943 14.8073 10.0293 15.1652 9.92454 15.5139C9.90598 15.576 9.88709 15.6384 9.86338 15.6991C9.81733 15.817 9.76819 15.9339 9.71974 16.0528C9.73039 16.0584 9.73761 16.0646 9.74585 16.0659C9.8888 16.0847 10.0321 16.1034 10.1754 16.1208C10.2671 16.132 10.3596 16.1392 10.451 16.1513C10.5843 16.1694 10.7166 16.1966 10.8506 16.2088C11.0767 16.2295 11.3035 16.241 11.53 16.2571C11.8087 16.2768 12.087 16.2998 12.3657 16.3172C12.6127 16.3326 12.8602 16.3441 13.1072 16.353C13.3653 16.3622 13.6234 16.3684 13.8814 16.371C14.179 16.374 14.4769 16.3717 14.7745 16.3717H17.4503C18.0125 16.3717 18.5743 16.3743 19.1365 16.37C19.3248 16.3687 19.5131 16.35 19.7214 16.3379V16.3375ZM17.6589 7.88594C17.6314 7.84818 17.6156 7.81994 17.5933 7.79662C17.4404 7.6367 17.2878 7.47645 17.1315 7.31948C16.8473 7.03346 16.5624 6.74843 16.2744 6.46569C16.0666 6.26176 15.8542 6.06145 15.6422 5.86146C15.3941 5.62766 15.1436 5.39615 14.8951 5.16299C14.6666 4.94856 14.4402 4.7315 14.2106 4.51805C13.9113 4.23926 13.6069 3.96571 13.3107 3.68429C13.0165 3.40516 12.7282 3.12013 12.4402 2.83509C12.3152 2.71129 12.1994 2.57961 12.0763 2.45384C11.9818 2.3573 11.8801 2.26699 11.786 2.16979C11.5307 1.9061 11.2795 1.63879 11.0231 1.37642C10.9008 1.2513 10.8011 1.24079 10.6523 1.33176C10.4603 1.44932 10.2692 1.56918 10.0812 1.69265C9.95615 1.77474 9.83451 1.86177 9.71493 1.95109C9.45274 2.1468 9.19261 2.3458 8.93146 2.54283C8.6861 2.72804 8.44041 2.91259 8.19472 3.09714C8.02977 3.22094 7.86586 3.34605 7.69989 3.46854C7.50918 3.60909 7.3164 3.74701 7.12535 3.88723C6.94906 4.01661 6.77519 4.14961 6.59753 4.27768C6.44737 4.38604 6.2917 4.48751 6.14119 4.59588C5.98347 4.70917 5.83193 4.82969 5.67317 4.94101C5.44913 5.0983 5.21821 5.24673 4.99485 5.40534C4.68455 5.62569 4.37873 5.85129 4.07118 6.07491C3.88905 6.20725 3.70693 6.34025 3.51587 6.47948C3.87187 6.51396 4.21103 6.54548 4.5502 6.57996C4.67253 6.59244 4.79383 6.61247 4.91547 6.62824C5.11649 6.65418 5.31752 6.68078 5.51923 6.70409C5.69723 6.72478 5.87557 6.7412 6.05391 6.76058C6.26215 6.78323 6.47005 6.80885 6.67828 6.82921C6.83807 6.84497 6.99889 6.85187 7.15902 6.8673C7.43599 6.89456 7.71261 6.92674 7.98957 6.95465C8.14111 6.96976 8.29368 6.97895 8.44557 6.99274C8.6971 7.0154 8.94829 7.04003 9.19983 7.06236C9.35377 7.07615 9.50806 7.08633 9.66201 7.10012C9.91354 7.12245 10.1651 7.14774 10.417 7.16974C10.5847 7.18419 10.7527 7.19273 10.9204 7.20783C11.0826 7.22261 11.2444 7.24527 11.4066 7.25873C11.6685 7.28041 11.931 7.29551 12.1925 7.31718C12.511 7.34345 12.8292 7.37498 13.1478 7.40158C13.3265 7.41668 13.5062 7.42325 13.6849 7.44C14.035 7.47284 14.3845 7.5106 14.7346 7.54541C14.98 7.57004 15.2257 7.59171 15.4707 7.61733C15.8604 7.65805 16.25 7.69844 16.639 7.74375C16.8435 7.7674 17.0466 7.80155 17.2507 7.83012C17.3813 7.84851 17.5119 7.86558 17.6596 7.88529L17.6589 7.88594Z" fill="currentColor"/>
<path d="M13.2141 12.2597C13.2141 12.0154 13.2065 11.7707 13.2165 11.5267C13.2251 11.3146 13.2543 11.1034 13.2715 10.8916C13.2801 10.7875 13.2763 10.6824 13.29 10.5793C13.3052 10.4664 13.3227 10.3514 13.3594 10.2437C13.433 10.03 13.622 9.95311 13.8326 9.91206C13.9739 9.88448 14.1158 9.85755 14.2584 9.83686C14.4422 9.80994 14.6264 9.77644 14.8116 9.76922C15.1906 9.75411 15.571 9.76363 15.9501 9.74524C16.2071 9.73277 16.427 9.82406 16.6414 9.93111C16.7091 9.96493 16.7748 10.05 16.7913 10.1222C16.8394 10.334 16.8682 10.5508 16.893 10.7665C16.9143 10.9543 16.9225 11.1442 16.9304 11.3333C16.9335 11.4065 16.9139 11.4804 16.915 11.5536C16.9184 11.8035 16.938 12.0534 16.9294 12.3027C16.9167 12.6678 16.9126 13.0366 16.7638 13.3834C16.6858 13.5647 16.6146 13.7495 16.5222 13.9239C16.4208 14.1154 16.2294 14.1892 16.0181 14.2139C15.6367 14.2582 15.257 14.2303 14.8786 14.1774C14.6463 14.1449 14.4061 14.1318 14.1962 14.0237C13.9312 13.8875 13.6873 13.7246 13.5577 13.4458C13.4979 13.3167 13.4076 13.1998 13.357 13.0681C13.3048 12.9319 13.2766 12.7854 13.2529 12.6412C13.2323 12.5158 13.2326 12.3874 13.2237 12.2603C13.2203 12.2603 13.2172 12.26 13.2138 12.2597H13.2141Z" fill="currentColor"/>
</svg>
