<svg width="21" height="18" viewBox="0 0 21 18" fill="none" xmlns="http://www.w3.org/2000/svg">
<path d="M16.2533 10.3082C16.2005 10.4263 16.1603 10.5322 16.1079 10.6314C15.9765 10.8815 15.8331 11.1257 15.5723 11.2604C15.4081 11.3453 15.2416 11.3548 15.0809 11.2343C14.819 11.0375 14.5696 10.8277 14.396 10.5448C14.217 10.2525 14.0504 9.95178 13.8776 9.65545C13.8569 9.62029 13.8303 9.58828 13.8018 9.54838C13.681 10.1703 13.5489 10.7776 13.3261 11.358C13.2076 11.6666 13.0723 11.9708 12.9171 12.262C12.8218 12.4414 12.6533 12.5674 12.4336 12.5492C12.3421 12.5417 12.2424 12.4987 12.1681 12.4422C11.8855 12.2276 11.6592 11.9613 11.4656 11.6598C11.1842 11.2205 10.9441 10.7594 10.7104 10.2939C10.561 9.99683 10.4187 9.69575 10.2596 9.36821C10.2092 9.4978 10.1643 9.60527 10.1252 9.71472C9.99811 10.0743 9.87575 10.4354 9.74636 10.7938C9.65527 11.0458 9.56067 11.2971 9.45864 11.5449C9.42541 11.6255 9.37068 11.7005 9.31282 11.7661C9.23776 11.8511 9.1115 11.8629 9.00595 11.8131C8.90978 12.1956 8.81557 12.5793 8.71705 12.9617C8.59469 13.4367 8.47507 13.9124 8.34255 14.3841C8.25772 14.6864 8.15647 14.9843 8.05327 15.281C8.00831 15.4102 7.95202 15.539 7.87852 15.6528C7.83435 15.7212 7.75225 15.7729 7.67641 15.8089C7.63732 15.8275 7.56305 15.8113 7.52474 15.7828C7.36876 15.6674 7.22411 15.5426 7.14788 15.3502C7.08182 15.183 6.98995 15.027 6.91646 14.863C6.84805 14.7101 6.93483 14.5722 6.97471 14.4319C7.09081 14.0246 7.21747 13.62 7.32771 13.211C7.4141 12.891 7.48095 12.5654 7.55836 12.243C7.59862 12.0759 7.64358 11.9099 7.68384 11.7523C7.46727 11.5994 7.27963 11.4362 7.11817 11.2339C6.76986 10.7981 6.52358 10.3007 6.26596 9.81191C6.05681 9.41522 5.88559 8.99799 5.69716 8.59024C5.68114 8.55586 5.66276 8.52228 5.63149 8.46064C5.5662 8.61829 5.51069 8.75421 5.45401 8.88933C5.26988 9.3287 5.08732 9.76845 4.89929 10.2058C4.86606 10.2829 4.81172 10.3512 4.76246 10.4208C4.67529 10.5441 4.45285 10.6215 4.33636 10.4599C4.30665 10.4184 4.25348 10.3947 4.21556 10.3584C4.15966 10.305 4.09164 10.2564 4.05606 10.1908C3.85787 9.82456 3.66788 9.45355 3.4732 9.08057C3.44075 9.14971 3.40205 9.23071 3.36413 9.3125C3.08032 9.92136 2.78126 10.5239 2.51739 11.1415C2.27658 11.7057 2.06861 12.2845 1.85633 12.8602C1.71795 13.2355 1.60106 13.6188 1.46697 13.9957C1.37862 14.2443 1.27816 14.4888 1.18199 14.7346C1.1257 14.8788 1.06628 15.0218 1.00959 15.166C0.955644 15.3031 0.845402 15.3691 0.710924 15.3897C0.671832 15.3956 0.621403 15.3604 0.583874 15.3336C0.52719 15.2933 0.475979 15.2451 0.424768 15.1977C0.391148 15.1664 0.352057 15.136 0.331729 15.0965C0.237125 14.9152 0.142911 14.733 0.0584716 14.5465C-0.010331 14.3948 -0.0228397 14.2446 0.0447902 14.0763C0.199596 13.6931 0.332901 13.3007 0.474024 12.9119C0.732816 12.1972 0.978316 11.4769 1.25314 10.7685C1.45681 10.2438 1.68941 9.72973 1.92435 9.21806C2.12803 8.77515 2.35593 8.34369 2.56703 7.90432C2.63779 7.75655 2.68431 7.59693 2.75311 7.44837C2.78869 7.37211 2.84928 7.30732 2.89854 7.23738C2.91261 7.21723 2.92903 7.19826 2.94076 7.17653C3.25389 6.58031 3.55373 5.97659 3.88328 5.38985C4.21243 4.8035 4.56153 4.22744 4.92196 3.65966C5.09631 3.38467 5.31093 3.13535 5.59396 2.95795C5.75619 2.85601 5.93524 2.81097 6.11858 2.77857C6.32499 2.74222 6.5314 2.70231 6.73937 2.68137C6.82576 2.67268 6.9231 2.6952 7.00481 2.72918C7.44108 2.91172 7.83435 3.15787 8.13419 3.53757C8.57554 4.09744 9.02002 4.65455 9.46333 5.21284C9.48444 5.23971 9.50633 5.26578 9.54151 5.30924C9.64394 5.0137 9.73619 4.73752 9.83471 4.46371C10.1025 3.71853 10.3687 2.97257 10.6443 2.23055C10.8081 1.79 10.9797 1.35222 11.1658 0.920763C11.2565 0.710564 11.3855 0.51696 11.502 0.318615C11.5731 0.197712 11.6998 0.167288 11.8241 0.135679C12.0032 0.0902417 12.1803 0.0305806 12.362 0.00213269C12.4426 -0.0105108 12.5336 0.0361119 12.6181 0.061794C12.6505 0.0716718 12.6759 0.108812 12.708 0.115529C12.9117 0.157411 13.011 0.317825 13.0946 0.480215C13.2404 0.763509 13.373 1.05431 13.5035 1.34511C13.7064 1.79633 13.9015 2.2511 14.1032 2.7031C14.3221 3.19343 14.5422 3.68376 14.7666 4.17172C14.9734 4.62136 15.1865 5.06744 15.3968 5.51549C15.6259 6.00306 15.8534 6.49141 16.084 6.97779C16.2767 7.38397 16.471 7.78935 16.6685 8.19355C16.9073 8.68269 17.1383 9.17618 17.3944 9.65624C17.8225 10.4591 18.272 11.2497 18.7036 12.0506C19.0124 12.6235 19.3134 13.2012 19.6051 13.7832C19.8299 14.2316 20.0371 14.6888 20.2478 15.1443C20.3963 15.4655 20.5355 15.7907 20.6836 16.1123C20.765 16.2889 20.8521 16.4628 20.9432 16.6347C21.0187 16.7773 21.0089 16.9247 20.9718 17.0697C20.9436 17.1795 20.8881 17.2823 20.8494 17.3897C20.8091 17.5007 20.7818 17.6173 20.7349 17.7252C20.702 17.801 20.6559 17.8765 20.5984 17.935C20.5038 18.0314 20.4366 18.0093 20.3224 17.9421C20.0367 17.7742 19.9202 17.4845 19.7841 17.2111C19.598 16.8374 19.426 16.4569 19.2497 16.0784C19.0867 15.7279 18.928 15.3751 18.7642 15.025C18.6246 14.7263 18.4863 14.4268 18.3373 14.1324C18.1806 13.8231 18.0132 13.5192 17.849 13.2134C17.7165 12.9673 17.582 12.7219 17.4484 12.4765C17.2623 12.1352 17.075 11.7946 16.8901 11.4524C16.6962 11.094 16.505 10.7345 16.3115 10.3757C16.3002 10.3548 16.2807 10.3382 16.2533 10.3066V10.3082Z" fill="currentColor"/>
</svg>
