<svg width="18" height="18" viewBox="0 0 18 18" fill="none" xmlns="http://www.w3.org/2000/svg">
<path d="M10.7472 1.35646C10.9449 1.37121 11.1752 1.39123 11.4058 1.40282C11.4466 1.40492 11.4894 1.37296 11.5305 1.35505C11.5779 1.33433 11.6231 1.29851 11.6719 1.29359C11.7573 1.28446 11.7903 1.2381 11.7917 1.16365C11.7952 0.976806 11.7945 0.789614 11.6719 0.630168C11.6972 0.527265 11.6154 0.458782 11.5905 0.372737C11.5119 0.100906 11.3044 0.0310166 11.059 0.0183733C10.8536 0.00783722 10.6475 -0.00375213 10.4421 0.00116473C10.2659 0.00502799 10.09 0.0299615 9.91412 0.0485753C9.74526 0.0661355 9.57428 0.0752665 9.40858 0.109684C9.08489 0.177467 8.76261 0.252626 8.44383 0.339373C8.09557 0.434198 7.75116 0.54272 7.40676 0.651593C7.30249 0.684606 7.2056 0.74115 7.10344 0.781188C6.9623 0.836326 6.81556 0.878471 6.67723 0.939229C6.49959 1.0172 6.32721 1.10675 6.15414 1.1949C6.03828 1.25391 5.92489 1.31818 5.81114 1.38174C5.66123 1.46533 5.50851 1.54505 5.36352 1.63707C5.2575 1.7045 5.16271 1.78984 5.0623 1.86605C4.80496 2.06132 4.54412 2.25238 4.29029 2.45256C4.1309 2.57829 3.97889 2.71351 3.82898 2.85083C3.50389 3.14935 3.17528 3.44507 2.86178 3.75518C2.62375 3.99048 2.40398 4.24476 2.18105 4.49516C2.02903 4.6655 1.88018 4.83899 1.7394 5.01846C1.6095 5.18422 1.48592 5.35631 1.37077 5.53262C1.21419 5.77249 1.05797 6.01342 0.919292 6.26382C0.63703 6.77447 0.35898 7.29004 0.220307 7.86215C0.1364 8.20949 0.053547 8.5614 0.0205462 8.91576C-0.0138588 9.28628 0.00264147 9.66242 0.014929 10.0357C0.0230037 10.2802 0.04793 10.5264 0.0918141 10.767C0.160273 11.1431 0.236807 11.5192 0.336512 11.8883C0.434461 12.2518 0.558038 12.6094 0.684775 12.9644C0.757448 13.1678 0.857854 13.3613 0.94808 13.558C1.19734 14.1013 1.50348 14.6126 1.8528 15.0966C2.10522 15.4464 2.38186 15.7765 2.68765 16.0838C2.95867 16.3564 3.24199 16.6138 3.55901 16.8284C3.81319 17.0005 4.08632 17.1459 4.357 17.2923C4.50866 17.3745 4.66734 17.4493 4.8313 17.502C5.08793 17.5849 5.34983 17.6534 5.61243 17.7145C5.91787 17.7858 6.22646 17.8437 6.534 17.9048C6.5986 17.9178 6.66565 17.9185 6.7313 17.9255C6.91596 17.9448 7.10028 17.9744 7.28564 17.9821C7.60512 17.9954 7.92495 18.0039 8.24442 17.9982C8.4807 17.994 8.71697 17.9642 8.95324 17.947C9.07015 17.9385 9.18811 17.9396 9.30431 17.9255C9.69155 17.8792 10.0791 17.8339 10.465 17.7766C10.7567 17.7334 11.0488 17.6853 11.3356 17.6175C11.7011 17.5311 12.069 17.444 12.4225 17.319C12.8512 17.1673 13.2721 16.9896 13.6836 16.7957C13.9869 16.6528 14.2776 16.4779 14.5595 16.2949C14.8779 16.088 15.1848 15.8629 15.4871 15.6329C15.6703 15.4934 15.8392 15.334 16.007 15.1753C16.1917 15.0007 16.3753 14.8244 16.5452 14.6358C16.8482 14.2997 17.1227 13.9401 17.334 13.5383C17.4689 13.2819 17.5924 13.0185 17.7013 12.7502C17.822 12.4534 17.8831 12.1384 17.9382 11.8227C18.0092 11.4139 18.0078 11.0016 17.9891 10.5914C17.9765 10.3125 17.9351 10.0315 17.875 9.75865C17.7897 9.37232 17.6918 8.98705 17.5679 8.61197C17.4573 8.27657 17.3053 7.95487 17.1697 7.62754C17.0297 7.28934 16.8548 6.96939 16.6582 6.66103C16.5297 6.45944 16.4139 6.24942 16.277 6.0538C16.1415 5.86029 15.9947 5.6731 15.8385 5.49609C15.5825 5.20635 15.327 4.9145 15.0486 4.64723C14.819 4.42668 14.5658 4.22825 14.3064 4.04281C14.088 3.88688 13.8514 3.75307 13.6127 3.62909C13.3269 3.48089 13.018 3.38747 12.7016 3.32636C12.4977 3.28702 12.2919 3.25331 12.0852 3.23539C11.8724 3.21713 11.6576 3.20976 11.4441 3.21819C11.2342 3.22626 11.0242 3.25401 10.816 3.28316C10.5148 3.32566 10.2136 3.37131 9.91483 3.42715C9.76808 3.45455 9.62589 3.50863 9.4816 3.54867C9.37593 3.57782 9.2685 3.60065 9.16423 3.63296C9.02099 3.67756 8.87811 3.72392 8.73803 3.7773C8.5165 3.86194 8.29463 3.94658 8.07801 4.04351C7.91582 4.11621 7.75784 4.20015 7.60617 4.29287C7.38219 4.42984 7.15996 4.57102 6.94756 4.72485C6.74885 4.86884 6.55962 5.02688 6.37426 5.18738C6.15835 5.37387 5.94174 5.56071 5.74303 5.76511C5.58259 5.92983 5.42706 6.10719 5.30805 6.30246C5.09355 6.65471 4.89343 7.01751 4.71509 7.38908C4.59011 7.64932 4.53148 7.93696 4.51041 8.22775C4.49637 8.42267 4.47145 8.61759 4.47566 8.81216C4.48092 9.04676 4.50971 9.28136 4.53253 9.51527C4.54622 9.6561 4.56729 9.79623 4.5866 9.93636C4.60485 10.0702 4.61363 10.2068 4.64698 10.3371C4.73545 10.6806 4.81725 11.0272 4.93556 11.3608C5.03702 11.6478 5.17113 11.9256 5.31577 12.1939C5.4706 12.4808 5.67492 12.7362 5.89996 12.9746C6.15589 13.2454 6.43113 13.4937 6.73657 13.7037C6.98197 13.8723 7.24071 14.018 7.52543 14.1227C7.83016 14.2347 8.14402 14.3011 8.45647 14.3766C8.83458 14.4679 9.21865 14.4714 9.60694 14.4493C9.99733 14.4272 10.3768 14.3573 10.7574 14.2758C11.1008 14.2024 11.4304 14.0918 11.7492 13.9506C11.9809 13.8481 12.2129 13.7381 12.4257 13.6015C12.7269 13.408 13.0018 13.1759 13.2412 12.9072C13.5 12.6164 13.7412 12.3105 13.9128 11.9596C14.0424 11.6945 14.134 11.4153 14.1898 11.1217C14.2548 10.7792 14.2688 10.4368 14.2407 10.093C14.1937 9.52124 14.0592 8.9702 13.8075 8.45217C13.7155 8.26287 13.6253 8.06971 13.5077 7.89692C13.4112 7.75503 13.2844 7.6286 13.1535 7.51621C12.9649 7.35466 12.7708 7.19486 12.5602 7.06457C12.1975 6.8398 11.7976 6.71055 11.3714 6.65682C11.0709 6.61889 10.7795 6.64909 10.4955 6.7383C10.2304 6.82153 10.0061 6.97957 9.78282 7.1464C9.51425 7.34693 9.32889 7.60753 9.17371 7.88954C9.0073 8.19193 8.81878 8.48624 8.73417 8.82901C8.6801 9.04816 8.5962 9.26134 8.55723 9.4826C8.47824 9.93214 8.47543 10.3824 8.70959 10.7936C8.82159 10.99 8.96482 11.1698 9.10596 11.3475C9.14352 11.3946 9.22216 11.417 9.28641 11.4335C9.43526 11.4715 9.58692 11.4999 9.73753 11.5298C9.76843 11.5357 9.80564 11.5417 9.83232 11.5301C9.94572 11.4799 10.0756 11.4441 10.162 11.3626C10.2508 11.279 10.2213 11.1368 10.1887 11.0279C10.1213 10.8038 10.0419 10.5822 9.94853 10.3676C9.9057 10.2689 9.82179 10.1864 9.75053 10.1018C9.69786 10.0389 9.6775 9.97148 9.68768 9.89246C9.7256 9.59499 9.79616 9.3063 9.90464 9.02499C10.0075 8.75877 10.1493 8.52311 10.3466 8.31555C10.526 8.12661 10.7507 8.05812 10.9961 8.02862C11.0523 8.02195 11.1085 8.01457 11.165 8.00965C11.3742 7.99069 11.555 8.0655 11.7401 8.15751C12.043 8.30818 12.293 8.52241 12.5328 8.7528C12.7504 8.96177 12.8933 9.21885 12.9607 9.50929C13.0183 9.75619 13.0675 10.0094 13.0776 10.2616C13.0875 10.4972 13.0485 10.736 13.0166 10.9717C13.0008 11.088 12.972 11.2109 12.9147 11.3117C12.8178 11.4824 12.703 11.6453 12.5791 11.7977C12.3583 12.0699 12.0957 12.2996 11.7857 12.4643C11.5856 12.5707 11.3735 12.6557 11.1643 12.7446C10.8634 12.8721 10.5439 12.9363 10.2252 12.9932C9.8748 13.0557 9.52198 13.0923 9.16388 13.0965C8.6615 13.1025 8.19176 12.9915 7.76065 12.7442C7.51595 12.6037 7.28599 12.432 7.06693 12.2529C6.87138 12.0934 6.68461 11.9171 6.52171 11.725C6.37145 11.548 6.25279 11.3433 6.12991 11.1448C5.93436 10.8288 5.85678 10.4688 5.78797 10.1116C5.7332 9.82784 5.71038 9.53704 5.68896 9.248C5.67036 9.0011 5.66053 8.75175 5.67036 8.5045C5.69212 7.96119 5.89469 7.48777 6.23664 7.06351C6.50521 6.73057 6.80994 6.43626 7.141 6.17181C7.39974 5.9653 7.68516 5.79145 7.96321 5.60953C8.11698 5.50874 8.27426 5.4104 8.43962 5.33138C8.63762 5.23655 8.84476 5.15894 9.05084 5.08202C9.2183 5.01986 9.38857 4.96332 9.56059 4.9159C9.73578 4.86744 9.91448 4.82951 10.0928 4.79369C10.333 4.74592 10.5734 4.70062 10.8153 4.66269C10.993 4.63494 11.1724 4.61773 11.3514 4.60193C11.5403 4.58542 11.7316 4.55416 11.9187 4.56891C12.1803 4.58964 12.4433 4.60579 12.6971 4.70026C13.1647 4.87446 13.566 5.15051 13.9508 5.45887C14.536 5.92807 15.0177 6.4907 15.4597 7.09301C15.8153 7.57767 16.099 8.10132 16.337 8.6499C16.516 9.06256 16.6488 9.49208 16.7221 9.93846C16.772 10.2409 16.8106 10.5425 16.8211 10.8505C16.8387 11.37 16.7551 11.8708 16.5993 12.3614C16.522 12.6044 16.4107 12.8338 16.2496 13.0357C16.0375 13.3012 15.8402 13.5794 15.6155 13.833C15.453 14.0163 15.2571 14.1705 15.0735 14.3348C14.9864 14.4128 14.8955 14.4869 14.8025 14.5575C14.6526 14.6709 14.4998 14.7809 14.3471 14.8904C14.2077 14.9905 14.0684 15.0913 13.9248 15.1851C13.8307 15.2462 13.7296 15.2968 13.6306 15.3498C13.4807 15.4302 13.3308 15.5114 13.1784 15.5872C13.0762 15.6381 12.9713 15.6842 12.8649 15.7263C12.643 15.8144 12.4211 15.9037 12.1957 15.983C11.9991 16.0522 11.8004 16.1182 11.5982 16.1674C11.3405 16.2303 11.0783 16.2749 10.8181 16.3265C10.6233 16.3651 10.4288 16.409 10.2325 16.4382C10.0367 16.4673 9.83794 16.4793 9.64099 16.5021C9.52268 16.5158 9.40542 16.5379 9.28711 16.5541C9.21303 16.5643 9.13861 16.5741 9.06418 16.5769C8.52634 16.5966 7.98744 16.6394 7.4503 16.6254C7.02936 16.6145 6.60878 16.5435 6.191 16.4786C5.947 16.4406 5.70371 16.3774 5.46954 16.2984C5.07705 16.166 4.70702 15.9809 4.36823 15.7403C4.16215 15.5942 3.9494 15.4527 3.76403 15.2824C3.53408 15.0717 3.3266 14.8356 3.11455 14.606C2.98992 14.4711 2.87196 14.3296 2.75716 14.1863C2.67676 14.0855 2.60269 13.9784 2.53317 13.8695C2.38432 13.6352 2.23195 13.4024 2.09644 13.1604C1.969 12.9328 1.84507 12.7007 1.74888 12.4587C1.62951 12.1588 1.52384 11.8515 1.44274 11.5393C1.35357 11.1961 1.29389 10.8449 1.2314 10.4951C1.20436 10.3434 1.1984 10.1875 1.19032 10.0329C1.17979 9.83627 1.1668 9.63889 1.17277 9.44222C1.17838 9.25678 1.21525 9.0724 1.22437 8.88696C1.23877 8.5916 1.32548 8.31274 1.39815 8.02967C1.4961 7.64721 1.66602 7.29425 1.8714 6.96167C2.09187 6.60484 2.3285 6.2561 2.57881 5.91964C2.76207 5.67345 2.97201 5.44622 3.18231 5.22215C3.46878 4.91731 3.76122 4.61773 4.06209 4.32694C4.30925 4.08812 4.56378 3.85527 4.82989 3.63823C5.13883 3.38606 5.46042 3.14865 5.78375 2.91475C5.96912 2.78094 6.1601 2.64924 6.36373 2.54774C6.69514 2.38267 7.03463 2.23201 7.37903 2.09644C7.70553 1.9679 8.03869 1.85236 8.37572 1.75578C8.76752 1.64374 9.16494 1.54962 9.56375 1.46568C9.78177 1.41967 10.0068 1.40633 10.2294 1.38526C10.3902 1.3698 10.552 1.36559 10.7479 1.35435L10.7472 1.35646Z" fill="currentColor"/>
</svg>
