<svg width="18" height="18" viewBox="0 0 18 18" fill="none" xmlns="http://www.w3.org/2000/svg">
<path d="M10.0037 14.7119C9.96063 14.9254 9.7997 14.9735 9.63703 14.9989C9.21819 15.0644 8.81777 15.1884 8.43229 15.3611C8.07358 15.5221 7.718 15.6899 7.36207 15.8571C6.99502 16.0295 6.63562 16.2197 6.26196 16.3757C5.63005 16.6393 4.9898 16.8828 4.35267 17.1336C3.96129 17.2875 3.56852 17.439 3.17713 17.5929C3.04749 17.6441 2.95433 17.6107 2.83754 17.5257C2.57929 17.338 2.50351 17.0423 2.3544 16.7915C2.27132 16.6515 2.31616 16.4899 2.37525 16.3482C2.54905 15.9302 2.73118 15.5154 2.91158 15.1003C3.16914 14.5075 3.43261 13.9168 3.68565 13.3219C3.9022 12.8131 4.10797 12.2997 4.31757 11.7881C4.36379 11.6756 4.40446 11.5607 4.45139 11.4482C4.47189 11.3991 4.45625 11.3691 4.42045 11.3353C4.1535 11.0832 3.88656 10.831 3.62274 10.5761C3.36066 10.3229 3.10518 10.063 2.84067 9.81263C2.5553 9.54271 2.26194 9.28115 1.97344 9.01436C1.82398 8.87609 1.67695 8.73504 1.53097 8.59329C1.27375 8.34357 1.02106 8.08862 0.760019 7.84273C0.5108 7.60764 0.298425 7.34782 0.160781 7.03123C0.113857 6.92326 0.0533767 6.81948 0.0207036 6.70733C-0.0442951 6.48477 0.0408635 6.29844 0.317195 6.24272C0.502458 6.2051 0.684593 6.15147 0.870552 6.11873C1.04817 6.08703 1.22891 6.06927 1.40862 6.05221C1.58554 6.03549 1.76315 6.02295 1.94077 6.01703C2.07007 6.01285 2.19972 6.02295 2.32902 6.02539C2.42113 6.02713 2.51324 6.02469 2.60536 6.02713C2.80939 6.03305 3.01307 6.03967 3.21711 6.04837C3.3266 6.0529 3.43609 6.06405 3.54558 6.06927C3.70859 6.07728 3.87231 6.07693 4.03498 6.09017C4.26821 6.10932 4.50074 6.13788 4.73363 6.16122C4.81774 6.16958 4.90186 6.17759 4.98632 6.17933C5.0044 6.17968 5.02873 6.15739 5.04089 6.13893C5.22477 5.86274 5.4076 5.58585 5.59008 5.30897C5.81566 4.96626 6.04368 4.62563 6.2644 4.28014C6.46461 3.96703 6.66134 3.65148 6.85043 3.33141C7.07497 2.95108 7.28943 2.56519 7.50806 2.18138C7.70132 1.8418 7.89562 1.50257 8.08679 1.1616C8.22756 0.910836 8.36938 0.660768 8.50007 0.404779C8.57897 0.250141 8.68186 0.144263 8.85948 0.113962C9.01867 0.0871441 9.17787 0.0547538 9.33254 0.00878025C9.4243 -0.0183859 9.48131 0.0223633 9.54805 0.0645057C9.58871 0.0902787 9.63981 0.101076 9.67839 0.129287C9.75243 0.183619 9.83932 0.233423 9.88764 0.306911C10.0507 0.555238 10.2085 0.808092 10.3517 1.06826C10.6106 1.53879 10.8605 2.0142 11.108 2.491C11.2245 2.7153 11.3259 2.94725 11.4347 3.17538C11.5946 3.51112 11.7545 3.84687 11.9158 4.18192C12.0364 4.43199 12.1609 4.68031 12.2794 4.93143C12.3048 4.98506 12.3399 5.01467 12.3944 5.02477C12.6725 5.07631 12.9506 5.12751 13.2286 5.17801C13.4 5.20901 13.5707 5.24523 13.7434 5.26648C13.9283 5.28912 14.115 5.30131 14.3013 5.30966C14.6624 5.32603 15.0239 5.3337 15.3847 5.35111C15.6708 5.36469 15.9582 5.3734 16.2419 5.40962C16.5554 5.44967 16.8706 5.49634 17.164 5.6266C17.3875 5.72586 17.612 5.82269 17.8293 5.93414C17.9652 6.00379 18.0045 6.15913 17.9996 6.30994C17.9937 6.4994 17.9471 6.67738 17.8734 6.84386C17.7754 7.06432 17.6903 7.28896 17.5126 7.47355C17.1675 7.83263 16.7831 8.14296 16.3958 8.45084C16.0726 8.70787 15.7427 8.95724 15.416 9.2101C15.2408 9.34558 15.066 9.48106 14.8904 9.6162C14.6506 9.80079 14.4104 9.98503 14.1706 10.1693C14.1251 10.2041 14.108 10.2365 14.1292 10.303C14.188 10.4859 14.2307 10.6736 14.2797 10.8596C14.3065 10.9613 14.3315 11.0637 14.3607 11.1647C14.4028 11.3106 14.4514 11.4551 14.4914 11.6018C14.5321 11.7519 14.5637 11.9044 14.603 12.0552C14.6405 12.1991 14.6836 12.3419 14.7236 12.4854C14.7778 12.6794 14.8359 12.8727 14.8835 13.068C14.9575 13.3707 15.0267 13.6744 15.0934 13.9788C15.1418 14.1996 15.1849 14.4218 15.2255 14.6444C15.2853 14.9721 15.3381 15.3012 15.3983 15.629C15.4369 15.84 15.4942 16.048 15.5237 16.2597C15.5561 16.4917 15.5832 16.7271 15.5794 16.9608C15.5773 17.0876 15.5088 17.2144 15.4654 17.3397C15.4261 17.4529 15.3739 17.562 15.3385 17.6762C15.245 17.9795 14.9968 18.0443 14.7253 17.9743C14.5933 17.9402 14.4598 17.9047 14.335 17.851C14.1765 17.7831 14.0267 17.6943 13.8713 17.6184C13.8314 17.5989 13.7799 17.601 13.7427 17.5783C13.6207 17.5041 13.5036 17.4219 13.3833 17.345C13.2345 17.2499 13.0823 17.1604 12.9353 17.0629C12.8265 16.9908 12.7226 16.911 12.6179 16.833C12.4452 16.7041 12.2717 16.5763 12.1025 16.4433C11.994 16.3579 11.8932 16.2629 11.7872 16.174C11.7368 16.1319 11.6812 16.096 11.6304 16.0542C11.3718 15.8414 11.1157 15.6255 10.856 15.4141C10.6231 15.2246 10.3857 15.0407 10.1518 14.8526C10.1031 14.8136 10.0604 14.767 10.0034 14.713L10.0037 14.7119Z" fill="currentColor"/>
</svg>
