<svg width="18" height="18" viewBox="0 0 18 18" fill="none" xmlns="http://www.w3.org/2000/svg">
<path d="M4.88389 5.85388C5.03972 5.62752 5.18168 5.41459 5.33019 5.2064C5.69085 4.69956 5.98903 4.15479 6.27293 3.60133C6.60583 2.95148 6.92908 2.2965 7.26814 1.65021C7.49958 1.20894 7.74761 0.776367 8.05698 0.384088C8.19276 0.211848 8.37097 0.13837 8.57772 0.107556C8.72662 0.0850389 8.8732 0.0443495 9.02094 0.0127459C9.05141 0.00642523 9.08767 -0.0066113 9.11313 0.00405491C9.30137 0.0826688 9.50813 0.136 9.64584 0.299944C9.74883 0.422803 9.83369 0.563043 9.91547 0.702889C10.2916 1.34839 10.6565 2.0014 11.0399 2.64256C11.3982 3.24224 11.779 3.82809 12.1423 4.42461C12.3514 4.7679 12.5474 5.11989 12.7445 5.47029C12.7896 5.55048 12.8386 5.58643 12.9335 5.5813C13.1892 5.56787 13.4454 5.56273 13.7015 5.56115C13.8716 5.55996 14.0421 5.57458 14.2122 5.57419C14.3912 5.57379 14.5706 5.55562 14.7492 5.55996C15.0763 5.56747 15.4034 5.58604 15.7305 5.59828C15.8072 5.60105 15.8844 5.59473 15.9615 5.5967C16.3643 5.60658 16.765 5.64529 17.1573 5.73457C17.3367 5.77526 17.506 5.86415 17.6796 5.93131C17.7174 5.94592 17.7552 5.96173 17.7926 5.97753C17.9354 6.03797 17.9975 6.13752 17.9998 6.29909C18.0029 6.50017 17.9724 6.69216 17.8833 6.87507C17.8347 6.97502 17.8065 7.08523 17.7656 7.18913C17.7032 7.34715 17.6349 7.49489 17.4972 7.61104C17.2731 7.80026 17.0702 8.01556 16.8549 8.21546C16.6069 8.44577 16.3558 8.67292 16.1039 8.89849C15.8663 9.11102 15.6256 9.3204 15.3852 9.53016C15.209 9.68423 15.0315 9.83632 14.8552 9.99039C14.5598 10.248 14.2674 10.5095 13.9677 10.7619C13.8859 10.8307 13.9137 10.8927 13.9418 10.9638C14.0714 11.2944 14.2076 11.6223 14.3303 11.9557C14.4741 12.346 14.6095 12.7399 14.7434 13.1342C14.8541 13.4605 14.9632 13.7876 15.0624 14.1178C15.1426 14.3845 15.2121 14.6547 15.2761 14.9257C15.3293 15.152 15.3667 15.382 15.4138 15.6099C15.4535 15.8027 15.5041 15.9935 15.5361 16.1879C15.5874 16.4984 15.582 16.8025 15.4304 17.0921C15.3733 17.2011 15.3417 17.3256 15.31 17.4461C15.2425 17.7032 15.013 17.8893 14.7395 17.8348C14.6099 17.8091 14.4934 17.774 14.3727 17.7214C14.1644 17.6306 13.9422 17.5741 13.732 17.4868C13.5055 17.3927 13.2872 17.2778 13.0639 17.1767C12.8201 17.0664 12.5732 16.9637 12.3298 16.8523C12.2052 16.795 12.0879 16.7216 11.9637 16.6635C11.7994 16.5868 11.6332 16.515 11.4654 16.4466C11.3153 16.3854 11.1626 16.3316 11.0114 16.2744C10.7946 16.1922 10.5778 16.11 10.3606 16.0279C10.1392 15.9441 9.91662 15.8619 9.69598 15.7758C9.50388 15.7012 9.3141 15.619 9.12123 15.5463C9.03598 15.5143 8.94263 15.5044 8.85661 15.474C8.65217 15.4017 8.45159 15.318 8.2456 15.2512C8.19507 15.235 8.11484 15.2476 8.07318 15.28C7.76381 15.521 7.46448 15.775 7.15473 16.0156C6.79831 16.2929 6.44497 16.5762 6.07196 16.829C5.64572 17.1178 5.20135 17.3785 4.76084 17.6444C4.57645 17.7554 4.37895 17.8439 4.19148 17.9501C4.02832 18.0426 3.89639 17.9976 3.75984 17.8881C3.41769 17.614 3.23215 17.2351 3.13494 16.8235C3.05625 16.4909 3.05162 16.1401 3.09714 15.7936C3.12221 15.6024 3.12337 15.408 3.14304 15.216C3.17506 14.9028 3.20708 14.5891 3.25105 14.2774C3.29001 14.0013 3.339 13.7267 3.39493 13.4537C3.45781 13.1464 3.52956 12.8406 3.60439 12.5361C3.67691 12.2418 3.72435 11.934 3.84509 11.661C3.97316 11.3715 3.86631 11.2048 3.67652 11.023C3.39185 10.7501 3.11681 10.466 2.84178 10.1824C2.72645 10.0635 2.62345 9.93232 2.51198 9.80946C2.32566 9.60404 2.13511 9.40296 1.95034 9.19635C1.77599 9.00159 1.60086 8.80763 1.43654 8.60418C1.13412 8.22889 0.804694 7.88204 0.435542 7.57509C0.403911 7.54862 0.369581 7.51939 0.351837 7.48304C0.24383 7.26063 0.129264 7.04059 0.0386156 6.81068C-0.062448 6.55429 0.0386157 6.35677 0.297832 6.2825C0.583279 6.20033 0.869884 6.11974 1.16035 6.05851C1.33239 6.02217 1.51214 6.02533 1.68842 6.00992C1.83346 5.99688 1.97811 5.97911 2.12315 5.96963C2.22229 5.9633 2.32181 5.96844 2.42133 5.96686C2.77235 5.96014 3.12337 5.9554 3.47439 5.94474C3.8312 5.93368 4.18763 5.91985 4.54405 5.90049C4.66787 5.89378 4.79092 5.8677 4.88504 5.85427L4.88389 5.85388ZM15.8192 7.15002C15.8153 7.13935 15.8119 7.12869 15.808 7.11802C15.6225 7.11802 15.4366 7.11802 15.251 7.11802C14.9154 7.11802 14.5798 7.11723 14.2438 7.11723C13.8597 7.11723 13.4758 7.11723 13.0916 7.11723C12.9142 7.11723 12.7364 7.12039 12.5589 7.11565C12.4401 7.11249 12.2993 7.13501 12.2087 7.07852C12.0644 6.98845 11.9414 6.85255 11.833 6.71626C11.7493 6.61118 11.6987 6.47765 11.6393 6.35361C11.6046 6.28092 11.5776 6.20389 11.5537 6.12685C11.5263 6.03757 11.5194 5.93921 11.4793 5.85743C11.4252 5.74761 11.3454 5.65162 11.2814 5.54693C11.1032 5.25499 10.9284 4.96108 10.7506 4.66874C10.6353 4.47912 10.5188 4.29029 10.4015 4.10185C10.2607 3.8747 10.1157 3.64992 9.97796 3.4208C9.85799 3.2213 9.74574 3.01706 9.62925 2.81559C9.5062 2.60226 9.38045 2.39052 9.25894 2.17601C9.1517 1.98678 9.04871 1.79519 8.93029 1.58028C8.88362 1.63796 8.84851 1.67391 8.8219 1.71578C8.70386 1.89948 8.57734 2.07883 8.47396 2.27122C8.24213 2.70261 8.0238 3.1419 7.7966 3.57605C7.63999 3.87549 7.47644 4.17138 7.31867 4.47083C7.2774 4.54865 7.25348 4.63635 7.21105 4.71338C7.0151 5.06932 6.81991 5.42525 6.61547 5.77605C6.50746 5.96172 6.37978 6.13515 6.26367 6.31569C6.09048 6.5855 5.85711 6.81186 5.7302 7.11486C5.67735 7.24088 5.56819 7.31159 5.43781 7.33174C5.25921 7.35979 5.07946 7.38231 4.89932 7.39692C4.57337 7.423 4.24742 7.44788 3.92108 7.46132C3.55964 7.47633 3.19743 7.47633 2.83561 7.48541C2.66434 7.48976 2.49269 7.50003 2.29442 7.50872C2.47494 7.71572 2.63387 7.89942 2.79472 8.08114C2.98258 8.29288 3.16966 8.50502 3.36214 8.71203C3.62059 8.99014 3.88405 9.26311 4.14558 9.53807C4.33112 9.73282 4.51396 9.93034 4.70413 10.12C4.78359 10.199 4.8376 10.3278 4.98881 10.2985C5.01658 10.293 5.05207 10.3345 5.08524 10.3523C5.13076 10.3771 5.17512 10.4127 5.22334 10.421C5.30936 10.436 5.38072 10.472 5.37802 10.5636C5.37262 10.7481 5.37532 10.9385 5.3298 11.1143C5.20675 11.5927 5.05747 12.0644 4.924 12.54C4.84686 12.8154 4.76585 13.0911 4.713 13.372C4.62891 13.8204 4.56025 14.2719 4.49776 14.7238C4.44607 15.0963 4.41136 15.4712 4.37317 15.8454C4.36468 15.9279 4.37201 16.0125 4.37201 16.1002C4.39438 16.0938 4.40133 16.0938 4.40673 16.0903C4.8808 15.7778 5.3622 15.4768 5.82586 15.1489C6.15952 14.913 6.46889 14.6413 6.78982 14.3861C6.9472 14.2608 6.94798 14.2616 6.89474 14.0732C6.83997 13.8792 6.88703 13.7007 7.02821 13.6513C7.17402 13.6007 7.32986 13.581 7.48068 13.5454C7.66082 13.5027 7.8479 13.5375 8.0292 13.4838C8.197 13.434 8.37367 13.4154 8.54301 13.3708C8.64523 13.3439 8.74012 13.3601 8.8138 13.4415C8.83231 13.462 8.86433 13.4763 8.8921 13.4798C9.02017 13.4972 9.08227 13.5655 9.08304 13.6983C9.08304 13.7666 9.0788 13.835 9.08497 13.9025C9.08728 13.9278 9.1085 13.9649 9.12933 13.9728C9.38855 14.0684 9.65046 14.1569 9.91007 14.2525C10.2835 14.3896 10.6592 14.5216 11.0272 14.6721C11.5506 14.8858 12.0694 15.1106 12.5875 15.3381C12.9397 15.4926 13.2861 15.6617 13.6367 15.8205C13.8203 15.9034 14.007 15.9785 14.1952 16.0583C14.1725 15.9433 14.1555 15.839 14.1312 15.7363C14.0587 15.427 13.9935 15.1157 13.9075 14.8103C13.784 14.3722 13.6533 13.9357 13.5094 13.5039C13.3678 13.0785 13.2089 12.6593 13.0531 12.239C12.9427 11.9415 12.8066 11.6531 12.7152 11.3497C12.5987 10.9622 12.513 10.5648 12.4197 10.1701C12.3884 10.0386 12.5196 9.85608 12.6507 9.81618C12.7379 9.78971 12.8313 9.76443 12.9034 9.71189C13.0527 9.60325 13.1908 9.47802 13.3312 9.35713C13.6637 9.07112 13.9966 8.78511 14.3264 8.49554C14.5895 8.26444 14.8491 8.02899 15.1091 7.79434C15.3467 7.57983 15.5827 7.36413 15.8196 7.14883L15.8192 7.15002Z" fill="currentColor"/>
</svg>
