<svg width="8" height="18" viewBox="0 0 8 18" fill="none" xmlns="http://www.w3.org/2000/svg">
<path d="M4.72503 8.04443C4.8126 8.49891 4.81115 8.95303 4.80283 9.40715C4.80102 9.49717 4.82888 9.53225 4.91644 9.56479C5.32424 9.71447 5.72914 9.87175 6.13151 10.0355C6.41664 10.1516 6.69598 10.2814 6.97786 10.4058C7.18773 10.4983 7.40085 10.5844 7.60529 10.6871C7.75039 10.7597 7.84157 10.8693 7.84736 11.0555C7.85605 11.3379 7.73339 11.5725 7.61651 11.8086C7.53582 11.9717 7.2695 12.0194 7.06325 11.9316C6.75496 11.8003 6.44631 11.6694 6.13983 11.5338C5.9173 11.4351 5.70019 11.3249 5.4773 11.2272C5.35355 11.173 5.22256 11.1361 5.09556 11.0891C5.02608 11.0631 4.95842 11.032 4.86832 10.9944C4.86832 11.0725 4.86687 11.1444 4.86904 11.2164C4.87013 11.2486 4.88026 11.2804 4.88279 11.3126C4.90957 11.6994 4.93888 12.0867 4.95986 12.4739C4.96963 12.6521 4.96131 12.8311 4.96385 13.0094C4.96421 13.0397 4.97036 13.0752 4.987 13.0997C5.37996 13.6819 5.7447 14.2813 6.08737 14.8945C6.32003 15.3114 6.565 15.7214 6.80417 16.1347C6.85773 16.2272 6.91888 16.3169 6.96013 16.4149C7.02417 16.5678 7.04444 16.7356 6.99703 16.8921C6.93407 17.1008 6.84615 17.3029 6.75858 17.5028C6.73325 17.5607 6.67825 17.6127 6.62434 17.6492C6.54763 17.7017 6.46694 17.7038 6.40289 17.6163C6.3819 17.5878 6.34861 17.569 6.32365 17.543C6.23681 17.4526 6.13115 17.3727 6.06855 17.2678C5.83082 16.8694 5.60829 16.4623 5.37743 16.0598C5.27575 15.8827 5.16648 15.7102 5.06299 15.5341C4.94141 15.327 4.8249 15.1169 4.70115 14.9112C4.61069 14.7611 4.51118 14.6165 4.41674 14.469C4.35052 14.3659 4.28612 14.2618 4.21049 14.1414C4.07299 14.3348 3.94381 14.512 3.8197 14.6928C3.58414 15.0355 3.34967 15.3787 3.11881 15.7247C3.03052 15.8574 2.95273 15.9973 2.87167 16.1347C2.73815 16.3617 2.59957 16.5863 2.4751 16.818C2.30358 17.1369 2.14365 17.462 1.97684 17.783C1.95151 17.8318 1.91931 17.8788 1.88276 17.9197C1.78579 18.0285 1.71052 18.0166 1.58713 17.9443C1.3219 17.7892 1.23108 17.5129 1.09539 17.2703C0.981411 17.0661 1.0299 16.8582 1.14243 16.6597C1.45181 16.113 1.73839 15.5526 2.06947 15.0196C2.45158 14.4039 2.87023 13.8109 3.27513 13.2097C3.34569 13.1048 3.42855 13.0079 3.50273 12.9052C3.5248 12.8749 3.53783 12.8373 3.55158 12.8018C3.58595 12.714 3.60911 12.6171 3.73829 12.6077C3.70138 11.9916 3.66447 11.3802 3.62648 10.7464C3.51973 10.8306 3.42312 10.9033 3.33049 10.9807C3.15066 11.1314 2.97444 11.2869 2.79424 11.4373C2.4447 11.7287 2.09335 12.018 1.742 12.3076C1.59908 12.4254 1.4594 12.5476 1.30996 12.6572C1.16776 12.7613 1.0896 12.748 0.955359 12.629C0.889865 12.5708 0.794701 12.5303 0.757793 12.4587C0.654668 12.2584 0.506675 12.0802 0.463978 11.8484C0.438287 11.7081 0.4723 11.5873 0.568912 11.5013C0.787464 11.3061 1.01977 11.1267 1.24592 10.9398C1.4945 10.7341 1.74273 10.5276 1.99059 10.3212C2.26342 10.0937 2.54276 9.87428 2.80546 9.63565C3.00302 9.45596 3.24365 9.42486 3.48608 9.38509C3.55773 9.37316 3.59138 9.34604 3.59283 9.26541C3.60079 8.88722 3.57365 8.51265 3.51395 8.13952C3.50164 8.06323 3.50164 7.9855 3.49766 7.93379C3.39743 7.90414 3.3171 7.88571 3.24039 7.85678C3.07539 7.79423 2.91618 7.71505 2.74829 7.66335C2.55687 7.60441 2.38934 7.50318 2.22325 7.40013C1.99855 7.26093 1.77891 7.11305 1.5846 6.93083C1.48075 6.83357 1.3646 6.74824 1.26473 6.647C1.00783 6.3856 0.795786 6.0902 0.630424 5.76299C0.491115 5.48748 0.336246 5.21704 0.226608 4.9296C0.119141 4.64722 0.0261487 4.354 0.0196356 4.0445C0.0149316 3.83335 -0.0103975 3.62075 0.00479991 3.41105C0.0279578 3.09432 0.106477 2.78664 0.223714 2.4898C0.37424 2.10943 0.573254 1.75836 0.834504 1.44127C1.14135 1.06851 1.50825 0.767689 1.92835 0.536653C2.22398 0.374313 2.53986 0.255359 2.8771 0.197871C3.07141 0.164608 3.26283 0.115436 3.4546 0.070603C3.79365 -0.00821692 4.13595 -0.0154481 4.48042 0.0214309C4.71598 0.0467401 4.95227 0.0673485 5.17516 0.157738C5.37598 0.239089 5.58151 0.310316 5.77727 0.402875C5.96362 0.490734 6.14888 0.587271 6.3175 0.704054C6.49444 0.826984 6.66523 0.965823 6.81431 1.12129C7.0723 1.39066 7.27023 1.70485 7.42039 2.04761C7.55246 2.34843 7.61325 2.66877 7.682 2.98694C7.69684 3.05636 7.70878 3.13084 7.70046 3.1999C7.68671 3.3109 7.7475 3.38176 7.80394 3.46167C7.93059 3.641 8.00802 3.83913 7.99934 4.06185C7.98776 4.35833 7.99753 4.65951 7.94832 4.95021C7.90019 5.23475 7.80865 5.51641 7.70082 5.78505C7.56947 6.1119 7.42401 6.43802 7.24056 6.73739C7.10704 6.95505 6.92213 7.14596 6.71335 7.3083C6.43075 7.52776 6.12572 7.70312 5.79138 7.82605C5.50697 7.93054 5.21279 7.99526 4.90921 8.0155C4.85167 8.01912 4.7945 8.03394 4.72575 8.04551L4.72503 8.04443ZM6.50566 3.64462C6.48756 3.44033 6.47779 3.23533 6.44921 3.0325C6.40362 2.70854 6.29434 2.41061 6.05661 2.17126C5.79681 1.90949 5.48092 1.74245 5.13825 1.61844C4.96276 1.5548 4.79704 1.46767 4.60164 1.46007C4.39901 1.45212 4.19638 1.3968 3.99483 1.4015C3.64421 1.40982 3.29792 1.4655 2.96612 1.59168C2.58763 1.73594 2.25112 1.94673 1.95477 2.22116C1.75286 2.40808 1.57954 2.61743 1.42648 2.84991C1.30526 3.0343 1.22927 3.22629 1.21769 3.43563C1.19345 3.87674 1.25496 4.3041 1.43878 4.71592C1.64467 5.17799 1.93993 5.56233 2.33253 5.87616C2.55868 6.05694 2.79533 6.22434 3.06816 6.32485C3.30046 6.41018 3.53855 6.48322 3.77917 6.54107C3.95394 6.58337 4.13631 6.5953 4.31615 6.61446C4.4171 6.62531 4.51914 6.62639 4.62082 6.62567C4.7576 6.62422 4.89871 6.63616 5.03042 6.60832C5.36585 6.53709 5.65822 6.36933 5.93286 6.16649C6.01825 6.10322 6.04539 6.04284 6.00812 5.93835C5.90391 5.6444 5.97085 5.37974 6.15177 5.13062C6.23282 5.0189 6.30555 4.8938 6.35042 4.764C6.47562 4.40281 6.49046 4.02425 6.50529 3.64425L6.50566 3.64462Z" fill="currentColor"/>
</svg>
