<svg width="17" height="18" viewBox="0 0 17 18" fill="none" xmlns="http://www.w3.org/2000/svg">
<path d="M11.8551 8.4055C11.9553 8.32107 12.0052 8.39573 12.0675 8.44645C12.2701 8.61152 12.2923 8.83456 12.2411 9.06516C12.1942 9.2756 12.1276 9.48351 12.0487 9.68387C11.9365 9.96834 11.8169 10.2515 11.6772 10.5228C11.5604 10.7496 11.4263 10.9679 11.253 11.1598C11.0844 11.3463 10.9123 11.5261 10.711 11.6761C10.3855 11.9187 10.0297 12.0932 9.63475 12.1795C9.38965 12.2334 9.14363 12.2624 8.89021 12.2598C8.70646 12.2583 8.52858 12.2479 8.35007 12.206C8.19469 12.1694 8.03407 12.1524 7.88146 12.1074C7.68292 12.0488 7.48807 11.9757 7.29539 11.8985C7.20475 11.8623 7.12521 11.7986 7.03796 11.7523C6.69174 11.5687 6.40287 11.3072 6.13126 11.0293C5.98296 10.8775 5.85934 10.6954 5.74773 10.5121C5.61054 10.2865 5.47982 10.0531 5.37963 9.80894C5.26833 9.5377 5.178 9.25449 5.10802 8.96876C5.01275 8.57971 4.98593 8.18025 5.00258 7.7786C5.0146 7.48657 5.07102 7.20273 5.14193 6.92078C5.22178 6.60418 5.33616 6.30176 5.49493 6.01823C5.63428 5.76999 5.80693 5.54507 6.03476 5.37653C6.29681 5.18247 6.59185 5.06087 6.91433 5.00889C7.05522 4.98621 7.19241 4.94116 7.33238 4.91281C7.40545 4.898 7.48098 4.8958 7.55559 4.89107C7.94312 4.86556 8.32171 4.92478 8.68581 5.05363C8.95033 5.14719 9.20128 5.2795 9.4621 5.38409C9.75128 5.50033 10.0106 5.67108 10.2661 5.84403C10.5766 6.05383 10.8615 6.29987 11.1133 6.58339C11.3677 6.86975 11.5724 7.18729 11.7259 7.54044C11.8437 7.81167 11.9017 8.09173 11.8551 8.4055ZM6.02551 7.9736C6.04062 8.14907 6.04832 8.32548 6.07268 8.49937C6.11738 8.82007 6.20432 9.1288 6.33165 9.42744C6.54499 9.92738 6.89676 10.2975 7.33916 10.5874C7.66997 10.8038 8.04486 10.9018 8.4216 10.9821C8.69012 11.0394 8.96389 11.0533 9.24167 11.0265C9.42449 11.0089 9.5885 10.9478 9.74296 10.8665C10.1108 10.673 10.4166 10.3987 10.67 10.0635C10.8013 9.88958 10.7967 9.89494 10.6925 9.69962C10.6142 9.55314 10.5562 9.39405 10.6016 9.2211C10.6623 8.99018 10.7332 8.76242 10.7909 8.53088C10.8349 8.35383 10.8636 8.17458 10.7958 7.99281C10.703 7.74363 10.5217 7.56154 10.3506 7.37347C10.2587 7.27235 10.1391 7.19864 10.0423 7.10161C9.90605 6.96489 9.74111 6.8729 9.5808 6.77367C9.45039 6.69302 9.3135 6.62308 9.17877 6.55063C9.10848 6.51282 9.0385 6.47313 8.96451 6.44509C8.73174 6.35689 8.50206 6.25387 8.26221 6.19433C8.0279 6.13637 7.78805 6.0992 7.53987 6.11306C7.23835 6.12975 6.96335 6.20095 6.7124 6.37421C6.45867 6.54937 6.26845 6.78028 6.16486 7.0701C6.06158 7.35835 6.02551 7.66361 6.02551 7.9736Z" fill="currentColor"/>
<path d="M3.68923 8.30564C3.64915 8.42913 3.59057 8.55009 3.57485 8.67642C3.56159 8.78416 3.51196 8.87205 3.47959 8.96876C3.41824 9.15211 3.30293 9.21574 3.11518 9.20157C2.92219 9.18708 2.72858 9.17763 2.53496 9.17511C1.90049 9.16691 1.26601 9.16376 0.631536 9.15589C0.597623 9.15557 0.563094 9.13069 0.530106 9.1143C0.515616 9.10706 0.505751 9.09005 0.491569 9.08186C0.232291 8.93222 0.136719 8.66256 0.0291231 8.40676C-0.0547338 8.20798 0.0494705 8.06716 0.25233 8.03282C0.404321 8.00699 0.55477 7.96919 0.70676 7.94367C0.762254 7.93453 0.820831 7.94777 0.877866 7.94651C1.06161 7.94241 1.24536 7.93391 1.42941 7.9317C1.67882 7.92886 1.92824 7.92792 2.17765 7.93044C2.40147 7.93296 2.6256 7.93863 2.84943 7.94808C3.00203 7.9547 3.15433 7.96635 3.30602 7.98399C3.34918 7.98903 3.38957 8.02211 3.42995 8.04479C3.4577 8.06023 3.48113 8.0889 3.51011 8.09677C3.64576 8.13363 3.66703 8.1582 3.66703 8.2987C3.67443 8.30091 3.68183 8.30343 3.68923 8.30564Z" fill="currentColor"/>
<path d="M5.04944 3.83731C5.04235 4.01058 5.01028 4.1432 4.93907 4.27016C4.89683 4.34545 4.88727 4.43996 4.85922 4.52407C4.83394 4.60031 4.79818 4.6693 4.72048 4.70678C4.60826 4.76097 4.59501 4.74396 4.49234 4.67245C4.25989 4.51052 4.16092 4.25252 4.0225 4.02444C3.84276 3.72831 3.66487 3.43188 3.45585 3.15591C3.2832 2.92784 3.12165 2.69125 2.94901 2.46349C2.85529 2.34 2.73104 2.23761 2.65181 2.10593C2.52695 1.89833 2.37897 1.69861 2.33241 1.45005C2.30744 1.31743 2.41165 1.20622 2.57258 1.18039C2.69651 1.16023 2.8186 1.12652 2.94192 1.10132C3.00604 1.08809 3.06924 1.08651 3.12042 1.14196C3.13676 1.15991 3.15988 1.18322 3.18023 1.18354C3.35072 1.18763 3.42039 1.33538 3.50333 1.44092C3.8144 1.83722 4.123 2.23698 4.40633 2.65408C4.632 2.98611 4.8213 3.34398 5.02138 3.69398C5.04851 3.74155 5.0445 3.80802 5.04975 3.83731H5.04944Z" fill="currentColor"/>
<path d="M14.5132 2.90484C14.4766 3.02518 14.4433 3.14646 14.4026 3.26523C14.3699 3.36068 14.3329 3.45519 14.2891 3.5456C14.245 3.63633 14.2025 3.73241 14.138 3.80676C13.9188 4.05941 13.691 4.3045 13.4647 4.55053C13.3161 4.71214 13.1629 4.86965 13.0137 5.03063C12.8753 5.18027 12.7415 5.33431 12.6015 5.48238C12.534 5.55357 12.4486 5.61469 12.3499 5.5583C12.2661 5.51073 12.1723 5.45339 12.1239 5.37432C12.0207 5.20578 11.9383 5.02275 11.8588 4.84035C11.7984 4.70269 11.8523 4.58487 11.9491 4.48028C12.378 4.01562 12.8053 3.54938 13.2332 3.08409C13.3433 2.96438 13.4533 2.84467 13.5665 2.72779C13.5859 2.70763 13.6189 2.69787 13.6475 2.69125C13.8035 2.65597 13.9595 2.621 14.1165 2.59107C14.1707 2.58068 14.2275 2.58162 14.2669 2.63801C14.2786 2.65471 14.3018 2.67203 14.3203 2.67329C14.4596 2.68054 14.5055 2.76182 14.4923 2.89791C14.4994 2.90011 14.5068 2.90232 14.5139 2.90452L14.5132 2.90484Z" fill="currentColor"/>
<path d="M15.6974 8.29051C15.8836 8.29051 16.0695 8.2924 16.2557 8.28988C16.3781 8.28799 16.5002 8.2798 16.6226 8.27445C16.6282 8.27445 16.6349 8.27193 16.6393 8.27445C16.7499 8.33052 16.8865 8.36391 16.9614 8.45212C17.0135 8.51324 17.0055 8.65689 16.9802 8.75108C16.93 8.93758 16.8492 9.11588 16.7808 9.29733C16.7231 9.45044 16.5973 9.49738 16.454 9.50053C16.0418 9.50966 15.6293 9.50714 15.2174 9.52163C15.0272 9.52825 14.8382 9.5629 14.6486 9.58558C14.5524 9.59692 14.4565 9.61047 14.36 9.62087C14.3418 9.62276 14.3162 9.62118 14.3045 9.60984C14.2053 9.51313 14.0674 9.45894 13.9996 9.32852C13.9219 9.17889 13.8359 9.03177 13.777 8.87457C13.7117 8.70036 13.7736 8.50725 14.0375 8.47732C14.1812 8.46094 14.3215 8.41652 14.4639 8.3866C14.5179 8.37526 14.5724 8.36644 14.627 8.36076C14.8055 8.34218 14.984 8.32202 15.1628 8.3091C15.3407 8.29618 15.5189 8.29146 15.6971 8.28327C15.6971 8.28579 15.6971 8.28831 15.6974 8.29083V8.29051Z" fill="currentColor"/>
<path d="M4.41404 11.9212C4.44332 11.9149 4.47261 11.9073 4.5019 11.9026C4.57558 11.8906 4.64434 11.8862 4.69675 11.9615C4.71463 11.987 4.75594 11.9996 4.78893 12.0094C4.87957 12.0365 4.92427 12.1023 4.90824 12.1949C4.89251 12.2863 4.87864 12.378 4.85768 12.4681C4.84904 12.5046 4.825 12.538 4.80681 12.572C4.79879 12.5865 4.77814 12.6001 4.77906 12.6127C4.78985 12.7396 4.68781 12.8218 4.65913 12.933C4.62522 13.0641 4.50067 13.1107 4.41342 13.1898C4.21087 13.3734 3.99814 13.5451 3.79498 13.7275C3.59242 13.9096 3.39511 14.0983 3.1978 14.2864C3.11703 14.3633 3.03872 14.4436 2.96473 14.5274C2.90554 14.5945 2.83401 14.6206 2.74985 14.6206C2.73628 14.6206 2.71778 14.6213 2.70946 14.6131C2.62129 14.5283 2.52263 14.4512 2.45142 14.3535C2.37588 14.2498 2.3207 14.1292 2.26767 14.0107C2.14034 13.7269 2.18659 13.6299 2.40455 13.4248C2.53373 13.3035 2.65797 13.1769 2.78777 13.0565C3.03256 12.8291 3.27673 12.601 3.52707 12.3802C3.66765 12.2564 3.80947 12.1266 3.9704 12.0365C4.10142 11.9631 4.26205 11.9448 4.40972 11.902C4.41126 11.9083 4.4128 11.9146 4.41435 11.9212H4.41404Z" fill="currentColor"/>
<path d="M15.1416 14.8553C15.1268 14.9445 15.1231 15.0374 15.0944 15.1215C15.042 15.2756 14.9806 15.4274 14.9106 15.5742C14.8851 15.6278 14.8293 15.6709 14.7787 15.7059C14.7559 15.7216 14.7044 15.7179 14.6788 15.7018C14.4892 15.5818 14.3218 15.4384 14.1911 15.2482C14.0893 15.0998 13.9673 14.9656 13.8513 14.8273C13.6975 14.6439 13.5498 14.4543 13.3833 14.2839C13.2169 14.1134 13.0303 13.9635 12.8531 13.8041C12.8343 13.7871 12.8114 13.771 12.8 13.7496C12.6863 13.5344 12.5426 13.3331 12.5001 13.0849C12.4732 12.9277 12.5559 12.8303 12.6773 12.8143C12.8435 12.7925 13.0091 12.7639 13.1752 12.7393C13.194 12.7365 13.2199 12.7339 13.2326 12.7443C13.3497 12.842 13.5082 12.8622 13.6173 12.9816C13.7588 13.1365 13.9309 13.2619 14.0708 13.4182C14.3051 13.68 14.5247 13.9553 14.7497 14.2256C14.8434 14.3381 14.9291 14.4581 15.0309 14.562C15.1141 14.6471 15.1462 14.7391 15.1422 14.8556L15.1416 14.8553Z" fill="currentColor"/>
<path d="M9.0459 0.764555C9.0459 0.95105 9.04374 1.13723 9.04651 1.32373C9.04929 1.50802 9.06594 1.69231 9.06039 1.87628C9.05114 2.19446 9.03264 2.51232 9.01168 2.82986C9.00459 2.93886 8.99256 3.05101 8.95865 3.15339C8.90747 3.30807 8.8378 3.45676 8.77059 3.60577C8.75271 3.64578 8.72003 3.68169 8.68704 3.71162C8.60411 3.78722 8.5406 3.78218 8.46168 3.705C8.39786 3.64263 8.30968 3.59474 8.27084 3.51945C8.16694 3.31815 8.02297 3.13071 8.00015 2.89539C7.98628 2.75394 7.99615 2.60997 7.99923 2.46695C8.002 2.34882 8.01094 2.23068 8.01619 2.11255C8.02019 2.02497 8.02667 1.9374 8.02574 1.84982C8.02482 1.74964 8.01341 1.64978 8.01279 1.5496C8.01218 1.4091 8.02081 1.2686 8.01958 1.12841C8.01803 0.976568 7.99892 0.824095 8.00663 0.672883C8.01372 0.532381 7.94158 0.39377 8.01341 0.250119C8.0541 0.168527 8.10158 0.120013 8.1876 0.100482C8.32417 0.0696091 8.45828 0.0273957 8.59548 0.00156366C8.63925 -0.006627 8.69074 0.019205 8.73637 0.0362164C8.782 0.0535428 8.82331 0.0825252 8.86894 0.100482C8.942 0.129149 8.98856 0.170417 8.99688 0.258939C9.01291 0.427163 9.03973 0.594442 9.06193 0.762035C9.05638 0.762665 9.05083 0.76361 9.04528 0.76424L9.0459 0.764555Z" fill="currentColor"/>
<path d="M8.84396 14.8761C8.84396 15.5903 8.84643 16.3041 8.84211 17.0183C8.84119 17.1837 8.82392 17.3475 8.7339 17.4974C8.68334 17.5816 8.66268 17.6836 8.62476 17.7762C8.58684 17.8689 8.53967 17.9536 8.43701 17.9901C8.38891 18.0072 8.35439 18.004 8.31708 17.9659C8.27608 17.924 8.22521 17.8922 8.1839 17.8503C8.1432 17.8093 8.10158 17.7662 8.07322 17.7161C8.01218 17.6087 7.96007 17.4959 7.90273 17.3859C7.83737 17.2605 7.80623 17.127 7.81024 16.9858C7.81333 16.8696 7.82381 16.7537 7.82535 16.6374C7.82627 16.5571 7.81672 16.4764 7.81425 16.3961C7.81148 16.3038 7.81024 16.2115 7.81024 16.1192C7.80963 15.7947 7.81147 15.4703 7.80932 15.1458C7.80839 15.0135 7.79945 14.8815 7.79328 14.7492C7.78804 14.637 7.87652 14.5107 7.98628 14.4867C8.10466 14.4609 8.2249 14.4426 8.34421 14.4203C8.36302 14.4168 8.38121 14.4099 8.39909 14.403C8.47277 14.3733 8.53813 14.3743 8.59424 14.443C8.61212 14.4647 8.64234 14.4839 8.66947 14.488C8.7823 14.5056 8.82485 14.551 8.8267 14.6704C8.82793 14.7391 8.8267 14.8074 8.8267 14.8761C8.83225 14.8761 8.8378 14.8761 8.84365 14.8761H8.84396Z" fill="currentColor"/>
</svg>
