<svg width="16" height="18" viewBox="0 0 16 18" fill="none" xmlns="http://www.w3.org/2000/svg">
<path d="M2.81808 9.08421C2.57482 8.91667 2.49649 8.64595 2.36131 8.41305C2.27835 8.27006 2.2496 8.11015 2.24431 7.95023C2.24133 7.86199 2.27868 7.76976 2.30942 7.6835C2.48658 7.18419 2.749 6.73067 3.06927 6.31165C3.22891 6.10264 3.3869 5.88798 3.57397 5.70551C3.82879 5.45702 4.10642 5.23142 4.3824 5.00682C4.53147 4.88539 4.6997 4.78785 4.85603 4.67472C4.88545 4.65349 4.91949 4.60969 4.91751 4.57851C4.90197 4.34561 4.99154 4.13627 5.07219 3.93124C5.20274 3.60013 5.34982 3.27401 5.51243 2.95751C5.69587 2.60119 5.89814 2.25416 6.10372 1.90979C6.28253 1.61054 6.47357 1.31859 6.66725 1.02896C6.75814 0.892932 6.86489 0.766861 6.97165 0.642118C7.00966 0.597661 7.00635 0.564153 6.99413 0.513393C6.97429 0.430452 6.95479 0.342866 6.96107 0.259261C6.97066 0.138167 7.05494 0.0940425 7.25027 0.0671695C7.36661 0.0512448 7.48064 0.0160778 7.59698 0.00214364C7.65284 -0.00449166 7.71927 0.00413436 7.76852 0.030012C7.91196 0.104327 8.05408 0.183287 8.18728 0.274191C8.32709 0.369407 8.45599 0.48088 8.58985 0.584723C8.74684 0.70648 8.90714 0.823925 9.06017 0.950659C9.23501 1.09531 9.40985 1.24129 9.57345 1.39854C9.77606 1.59329 9.97536 1.79235 10.1618 2.00269C10.5756 2.46948 10.9309 2.97774 11.1312 3.57459C11.2326 3.87716 11.2472 4.19731 11.1384 4.50652C11.0512 4.75501 10.9474 4.99786 10.8466 5.25431C10.8988 5.29048 10.9606 5.3356 11.0244 5.37707C11.1408 5.45238 11.2581 5.52669 11.3761 5.59968C11.5086 5.68163 11.6458 5.75594 11.7743 5.84353C12.0017 5.99846 12.2291 6.15472 12.4479 6.32193C12.7986 6.59 13.104 6.90352 13.3195 7.29301C13.4005 7.43932 13.4577 7.59558 13.457 7.77573C13.456 8.01095 13.417 8.23157 13.3235 8.44556C13.2712 8.56466 13.2355 8.6914 13.179 8.80851C13.1314 8.90704 13.0653 8.99629 13.0062 9.09151C13.1539 9.19966 13.3056 9.30749 13.4537 9.42029C13.615 9.54304 13.7753 9.66745 13.9323 9.79618C14.1471 9.97234 14.3679 10.1432 14.5685 10.335C14.7992 10.5553 15.0187 10.7891 15.2279 11.0303C15.3875 11.2145 15.5293 11.4149 15.6685 11.6156C15.8149 11.8269 15.9203 12.0618 15.9871 12.3093C16.0142 12.4092 15.9891 12.5223 15.9963 12.6288C16.0069 12.7887 15.96 12.9363 15.9031 13.08C15.8291 13.2668 15.7603 13.4582 15.6599 13.6307C15.5277 13.8576 15.3036 13.9801 15.0544 14.0358C14.7338 14.1075 14.4099 14.1695 14.0846 14.215C13.8569 14.2468 13.6242 14.2448 13.3935 14.2564C13.1506 14.2687 12.9073 14.2843 12.6641 14.2879C12.4631 14.2909 12.2619 14.279 12.0609 14.273C11.8735 14.2674 11.6861 14.2637 11.499 14.2534C11.2419 14.2392 10.9851 14.2189 10.7283 14.2023C10.605 14.1944 10.4817 14.1894 10.3581 14.1834C10.1003 14.1705 9.84216 14.1586 9.58436 14.1443C9.2945 14.128 9.00497 14.1088 8.71511 14.0929C8.49631 14.0809 8.27718 14.073 8.0521 14.0627C8.07523 14.1828 8.10101 14.3002 8.12018 14.4187C8.14101 14.548 8.15753 14.6781 8.17174 14.8081C8.19686 15.0364 8.21901 15.2653 8.24281 15.4936C8.26693 15.7248 8.28941 15.9564 8.31717 16.187C8.34295 16.4029 8.3836 16.6173 8.40112 16.8339C8.4193 17.0562 8.42161 17.2781 8.29536 17.4825C8.23785 17.5757 8.21703 17.6912 8.16811 17.7907C8.1377 17.8531 8.09573 17.9174 8.04218 17.9589C7.95493 18.0263 7.90006 18.0054 7.81611 17.9357C7.51667 17.6869 7.38413 17.3465 7.30646 16.9832C7.25986 16.7659 7.25292 16.54 7.22548 16.3183C7.1997 16.1083 7.16764 15.8993 7.14352 15.6893C7.1184 15.47 7.10154 15.2497 7.07708 15.0301C7.0589 14.8679 7.03676 14.706 7.01098 14.5447C6.98553 14.3838 6.95347 14.2239 6.9224 14.0537C6.74326 14.0537 6.57437 14.0534 6.40548 14.0537C6.15363 14.0544 5.90178 14.0497 5.64992 14.058C5.29958 14.0696 4.9499 14.0915 4.59988 14.1088C4.46569 14.1154 4.33117 14.1181 4.19765 14.1294C3.96331 14.1493 3.72964 14.1748 3.49563 14.197C3.35318 14.2106 3.21106 14.2279 3.06828 14.2345C2.61614 14.2558 2.16366 14.2853 1.71119 14.2859C1.47091 14.2863 1.23128 14.2246 0.99034 14.21C0.901101 14.2047 0.825413 14.1814 0.749395 14.1466C0.702131 14.125 0.651563 14.1031 0.613554 14.0693C0.485645 13.9555 0.33427 13.8666 0.266514 13.6914C0.215285 13.5587 0.13497 13.4376 0.0715113 13.3096C-0.0101256 13.145 -0.0207026 12.9761 0.0338322 12.7983C0.190165 12.2867 0.458212 11.8365 0.776497 11.4132C0.955636 11.175 1.13709 10.9381 1.32383 10.7059C1.43058 10.5728 1.54891 10.4494 1.66426 10.3233C1.9333 10.0294 2.20266 9.73613 2.47369 9.44417C2.56127 9.34962 2.65415 9.25971 2.74372 9.16682C2.76817 9.1416 2.79032 9.11407 2.81742 9.08321L2.81808 9.08421ZM1.16022 12.939C1.23657 12.9496 1.28251 12.9576 1.32912 12.9619C1.41505 12.9702 1.50098 12.9791 1.58725 12.9838C1.77795 12.9937 1.96866 13.0113 2.15904 13.007C2.43568 13.0007 2.71232 12.9795 2.98863 12.9609C3.1248 12.9516 3.26031 12.933 3.39648 12.9211C3.44209 12.9171 3.48869 12.9237 3.53397 12.9191C3.73129 12.8988 3.92828 12.8726 4.12559 12.8554C4.26904 12.8428 4.4138 12.8441 4.55758 12.8338C4.77241 12.8189 4.98658 12.797 5.20142 12.7827C5.34717 12.7731 5.49359 12.7681 5.63968 12.7661C5.87765 12.7631 6.11562 12.7622 6.35359 12.7641C6.95413 12.7688 7.55468 12.7748 8.15489 12.7824C8.31585 12.7844 8.47714 12.7933 8.6381 12.7996C8.93953 12.8116 9.24063 12.8239 9.54172 12.8361C9.68781 12.8421 9.8339 12.8477 9.97966 12.855C10.0629 12.8594 10.1459 12.866 10.2292 12.8726C10.522 12.8955 10.8149 12.9234 11.108 12.9403C11.3556 12.9546 11.6038 12.9552 11.8517 12.9632C12.0007 12.9678 12.1495 12.9745 12.2985 12.9808C12.3693 12.9838 12.4397 12.9884 12.5104 12.9904C12.5752 12.9924 12.6396 12.9927 12.7044 12.9927C12.8488 12.9927 12.9936 12.9957 13.1377 12.9907C13.2441 12.9871 13.3499 12.9695 13.4563 12.9635C13.6021 12.9549 13.7482 12.9552 13.8936 12.9443C14.077 12.9304 14.2595 12.9045 14.4426 12.8912C14.6009 12.8799 14.7328 12.8169 14.8514 12.7147C14.9056 12.6683 14.9126 12.6129 14.8984 12.5531C14.8855 12.4984 14.8729 12.4377 14.8409 12.3942C14.6888 12.1875 14.5391 11.9779 14.3705 11.7851C14.2139 11.6056 14.0413 11.4381 13.8629 11.2802C13.608 11.0546 13.3466 10.8353 13.0779 10.6266C12.8753 10.469 12.6565 10.3326 12.446 10.1857C12.3197 10.0974 12.2037 9.98926 12.0678 9.92125C11.8986 9.83665 11.7681 9.70859 11.6322 9.5865C11.576 9.53607 11.5278 9.52313 11.4623 9.53143C11.4445 9.53375 11.4266 9.5364 11.4091 9.53541C11.036 9.51782 10.6628 9.50024 10.2897 9.48133C10.1677 9.47536 10.0461 9.46872 9.92446 9.45678C9.79159 9.44417 9.65972 9.42095 9.52652 9.41C9.26872 9.38877 9.01092 9.3682 8.75279 9.35625C8.40145 9.34 8.04946 9.32573 7.69779 9.32208C7.38744 9.31877 7.07708 9.33137 6.76673 9.33701C6.65337 9.339 6.53967 9.33801 6.42663 9.34398C6.04191 9.36488 5.65753 9.3881 5.27281 9.41066C5.16837 9.41664 5.06425 9.4236 4.95981 9.42792C4.67623 9.44019 4.39265 9.45811 4.10874 9.45811C4.03536 9.45811 4.00793 9.47901 3.98347 9.53508C3.92795 9.66181 3.88333 9.78622 3.76996 9.88741C3.5624 10.0729 3.37929 10.2859 3.18528 10.4866C3.13174 10.542 3.07423 10.5934 3.02234 10.6501C2.94202 10.7381 2.86601 10.8303 2.78602 10.9189C2.75429 10.9537 2.7143 10.9809 2.68323 11.0161C2.55103 11.1664 2.4208 11.3183 2.28959 11.4693C2.17589 11.5996 2.05823 11.7267 1.94883 11.8607C1.83579 11.9991 1.72838 12.1421 1.62294 12.2867C1.47124 12.4951 1.32383 12.7064 1.15857 12.939H1.16022ZM3.36079 8.0219C3.44771 8.05341 3.50654 8.08792 3.56868 8.09522C3.7964 8.12176 4.02512 8.14332 4.25416 8.15858C4.4105 8.1692 4.56848 8.17384 4.72482 8.16754C4.94428 8.15858 5.16308 8.1347 5.38254 8.12143C5.58613 8.10915 5.79006 8.10517 5.99333 8.09356C6.23692 8.07929 6.48017 8.05574 6.72376 8.04545C6.99578 8.03384 7.26845 8.02521 7.54046 8.02853C7.85511 8.03218 8.16976 8.05043 8.48474 8.06204C8.65198 8.06834 8.81922 8.07067 8.98613 8.08095C9.22939 8.09588 9.47265 8.11446 9.71558 8.1347C9.98461 8.15692 10.2533 8.18844 10.5227 8.20503C10.8268 8.22394 11.1315 8.23522 11.4362 8.24119C11.6018 8.24451 11.7677 8.22792 11.9337 8.2256C12.1105 8.22295 12.2272 8.11944 12.322 7.98938C12.3663 7.929 12.3603 7.85767 12.2959 7.7963C12.1597 7.66724 12.0338 7.52724 11.895 7.4015C11.7938 7.30993 11.6811 7.2303 11.5688 7.15201C11.4455 7.06608 11.3176 6.98646 11.1907 6.90617C11.1368 6.872 11.0786 6.84446 11.0244 6.81062C10.9345 6.75389 10.8509 6.68488 10.7564 6.6381C10.5663 6.54355 10.4149 6.38895 10.2137 6.30966C10.1069 6.26752 10.015 6.18558 9.92049 6.11591C9.76284 5.99946 9.60948 5.87704 9.45216 5.76026C9.42406 5.73935 9.3844 5.72111 9.35069 5.7221C9.00398 5.73106 8.6576 5.74433 8.31089 5.75561C8.09176 5.76258 7.8723 5.76789 7.65284 5.77452C7.26515 5.78613 6.87745 5.80139 6.48976 5.80803C6.32516 5.81068 6.15925 5.80438 5.99564 5.7858C5.88161 5.77286 5.77122 5.7294 5.65786 5.70551C5.63109 5.69987 5.5944 5.70916 5.57126 5.72476C5.44567 5.80936 5.32007 5.89462 5.19976 5.98619C4.98394 6.15008 4.76018 6.30568 4.56154 6.48848C4.35332 6.67991 4.1636 6.8929 3.97852 7.10755C3.85689 7.24855 3.75344 7.40647 3.64899 7.56174C3.55149 7.70672 3.46324 7.85767 3.36045 8.02289L3.36079 8.0219ZM6.0244 4.48097C6.13677 4.4949 6.22072 4.51381 6.305 4.51448C6.49901 4.51547 6.69303 4.50784 6.88704 4.5032C7.17954 4.49623 7.47205 4.4896 7.76455 4.48097C7.83892 4.47865 7.91262 4.4667 7.98699 4.46471C8.10763 4.4614 8.22859 4.46206 8.34956 4.4614C8.41666 4.4614 8.48375 4.46571 8.55084 4.46173C8.70619 4.45244 8.8612 4.43519 9.01687 4.42855C9.0995 4.42523 9.18312 4.44414 9.26575 4.44083C9.41415 4.43485 9.56255 4.42059 9.71095 4.40864C9.77606 4.40334 9.85373 4.41628 9.90331 4.38509C9.97668 4.33897 10.0613 4.27129 10.0858 4.19499C10.134 4.04503 10.096 3.88412 10.0216 3.74943C9.92149 3.56828 9.80614 3.39311 9.67922 3.22922C9.43761 2.91736 9.17485 2.62309 8.87871 2.36099C8.75609 2.25251 8.63149 2.14634 8.50656 2.04018C8.35452 1.91079 8.20281 1.78074 8.0478 1.655C7.97939 1.59992 7.90271 1.55514 7.83066 1.50603C7.08667 2.40412 6.52413 3.40638 6.02473 4.48031L6.0244 4.48097Z" fill="currentColor"/>
</svg>
