<svg width="18" height="18" viewBox="0 0 18 18" fill="none" xmlns="http://www.w3.org/2000/svg">
<path d="M10.9353 13.5158C10.9492 13.7066 10.9638 13.8974 10.9765 14.0885C10.9798 14.1359 10.9768 14.1835 10.9783 14.2311C10.9834 14.3997 10.985 14.5687 10.9962 14.737C11.0083 14.9172 11.0255 15.0973 11.0479 15.2766C11.0767 15.5073 11.0685 15.736 10.9995 15.9579C10.9483 16.1221 10.886 16.2836 10.8166 16.4416C10.7842 16.5155 10.7237 16.5777 10.6701 16.6537C10.5478 16.5478 10.4382 16.4433 10.3622 16.3096C10.3162 16.2283 10.2759 16.144 10.2305 16.0623C10.0906 15.8112 10.0416 15.5399 10.0273 15.2574C10.0137 14.9837 9.98313 14.711 9.96527 14.4373C9.9577 14.324 9.96466 14.2098 9.96224 14.0959C9.96133 14.0563 9.94862 14.0172 9.94741 13.9776C9.94286 13.8409 9.94286 13.7042 9.93741 13.5679C9.93378 13.4806 9.92016 13.3939 9.91743 13.3066C9.91501 13.2268 9.92288 13.1463 9.92409 13.0664C9.9253 12.9795 9.92258 12.8922 9.92409 12.8052C9.92591 12.6816 9.92742 12.5576 9.93408 12.4342C9.93953 12.3325 9.94407 12.2295 9.96375 12.1298C9.99191 11.9878 10.0858 11.9029 10.2341 11.8772C10.338 11.8591 10.4409 11.8376 10.5441 11.8174C10.5575 11.8148 10.5738 11.8074 10.5844 11.8118C10.6749 11.8509 10.7727 11.8807 10.8514 11.9361C10.9292 11.9908 10.9486 12.0855 10.9459 12.1804C10.9435 12.2606 10.9453 12.3408 10.9453 12.4082C11.0413 12.4197 11.1345 12.4138 11.2132 12.444C11.38 12.5085 11.5393 12.5857 11.678 12.7076C11.7948 12.8105 11.9423 12.8818 12.103 12.9114C12.2038 12.9298 12.305 12.9454 12.4058 12.9623C12.5354 12.9839 12.6232 12.9061 12.7079 12.8327C12.8887 12.6765 12.984 12.4692 13.067 12.2526C13.1221 12.1085 13.1224 11.9872 13.0392 11.8444C12.9099 11.6231 12.8424 11.374 12.803 11.121C12.7791 10.9657 12.7688 10.8087 12.7524 10.6522C12.7473 10.6019 12.7334 10.5513 12.7376 10.5019C12.7527 10.322 12.7673 10.1418 12.7957 9.96376C12.8127 9.85755 12.8545 9.7549 12.886 9.65106C12.9299 9.50551 13.0455 9.45552 13.1851 9.43067C13.3204 9.40671 13.4542 9.37416 13.5887 9.34606C13.6068 9.34221 13.6286 9.33393 13.6432 9.33985C13.7367 9.37919 13.8436 9.40582 13.9174 9.46853C13.9895 9.52977 14.0485 9.62266 14.0773 9.7126C14.2017 10.1028 14.2593 10.5042 14.2471 10.9143C14.2426 11.0711 14.2505 11.2281 14.245 11.3846C14.2408 11.5015 14.2208 11.6175 14.216 11.7343C14.2148 11.7639 14.2381 11.8026 14.2623 11.8242C14.4485 11.9902 14.6801 12.0387 14.9214 12.0594C14.9674 12.0633 15.0131 12.0698 15.0588 12.0754C15.2496 12.0979 15.4103 12.0148 15.5563 11.9168C15.7095 11.8139 15.8551 11.6958 15.9856 11.5663C16.1064 11.4462 16.2123 11.3086 16.3077 11.1678C16.6162 10.7122 16.7985 10.2043 16.9226 9.67621C16.9589 9.52208 16.9665 9.36056 16.9768 9.20199C16.9922 8.96621 16.9868 8.73044 16.9281 8.4991C16.8884 8.3429 16.8197 8.20681 16.6595 8.1299C16.5487 8.07665 16.4455 8.00861 16.3368 7.95062C16.3147 7.93879 16.2811 7.93406 16.2568 7.94057C16.0549 7.99589 15.8602 7.97222 15.6634 7.90921C15.4294 7.83436 15.2641 7.69 15.1403 7.48499C15.0504 7.33648 14.9429 7.19951 14.9111 7.0229C14.8908 6.91137 14.9777 6.76168 15.0891 6.73831C15.2662 6.70103 15.4424 6.65725 15.6214 6.63003C15.6995 6.6182 15.7827 6.64068 15.8639 6.64838C15.8772 6.64956 15.8902 6.6534 15.9035 6.65607C16.0231 6.67825 16.1003 6.63595 16.1624 6.52886C16.325 6.24812 16.4218 5.95081 16.4709 5.6316C16.516 5.33784 16.4924 5.05148 16.4321 4.76541C16.41 4.6598 16.3795 4.55211 16.3298 4.45686C16.2187 4.24415 16.0625 4.06666 15.8621 3.92466C15.678 3.79449 15.4775 3.69894 15.2617 3.63622C15.0791 3.58327 14.8947 3.5454 14.701 3.53031C14.4088 3.50724 14.1263 3.54836 13.8478 3.60723C13.6301 3.65338 13.4224 3.74509 13.2108 3.81786C13.1003 3.85573 13.077 3.96371 13.0437 4.0495C12.9471 4.298 12.8039 4.51632 12.6123 4.69944C12.5454 4.76363 12.4361 4.78612 12.3455 4.82576C12.3352 4.8302 12.3153 4.82635 12.3068 4.81895C12.1936 4.72192 12.0416 4.66926 11.9692 4.5249C11.9226 4.4323 11.8545 4.34917 11.8136 4.25451C11.7658 4.14387 11.7143 4.02701 11.7049 3.90987C11.6916 3.74183 11.7761 3.59125 11.8672 3.45192C11.9801 3.27945 12.1303 3.14011 12.2983 3.01882C12.3162 3.0058 12.3355 2.98391 12.3386 2.96409C12.3834 2.66974 12.3819 2.38574 12.1827 2.13133C12.0061 1.9062 11.8015 1.71568 11.5469 1.57871C11.4179 1.50919 11.2941 1.42518 11.1569 1.37696C10.9474 1.3033 10.7312 1.24295 10.513 1.19857C10.1454 1.12343 9.77272 1.09681 9.4088 1.21662C9.15207 1.30093 8.93893 1.45003 8.83538 1.70444C8.78815 1.82041 8.76454 1.94998 8.75303 2.07512C8.73577 2.26297 8.74032 2.4526 8.73214 2.64134C8.72488 2.81026 8.77877 2.96232 8.84386 3.11585C8.90865 3.26939 8.98222 3.42707 8.96224 3.59895C8.9471 3.72793 8.94104 3.86401 8.84598 3.9711C8.83932 3.9785 8.83387 3.98974 8.83387 3.9995C8.83205 4.13706 8.74425 4.2412 8.6834 4.35332C8.6071 4.49354 8.45603 4.50271 8.33856 4.39473C8.05367 4.13322 7.90834 3.79834 7.80541 3.44068C7.79663 3.41021 7.79602 3.37737 7.7942 3.34542C7.78573 3.19247 7.68612 3.08598 7.58712 2.98628C7.44724 2.84517 7.29889 2.71086 7.14509 2.58425C7.04852 2.50496 6.94255 2.42805 6.8275 2.38071C6.56017 2.27066 6.29253 2.15381 6.00037 2.11772C5.86262 2.10086 5.72365 2.08784 5.58499 2.08607C5.27527 2.08192 4.99946 2.17777 4.78117 2.39639C4.69398 2.48396 4.61314 2.58543 4.55925 2.69489C4.51414 2.78689 4.49779 2.89901 4.49477 3.00314C4.48901 3.191 4.49174 3.38062 4.51202 3.56759C4.52625 3.69983 4.575 3.82851 4.60981 3.95838C4.61254 3.96874 4.62647 3.9782 4.63736 3.98412C4.75816 4.04802 4.88139 4.10778 4.99976 4.17552C5.09816 4.23203 5.19716 4.2903 5.28466 4.36101C5.46934 4.5104 5.6513 4.66394 5.82538 4.82487C5.91197 4.90475 5.98281 5.00207 6.05366 5.09674C6.15993 5.23874 6.14903 5.40677 6.11118 5.55972C6.06607 5.74284 5.98372 5.91738 5.91227 6.09369C5.84657 6.25492 5.68157 6.34012 5.48115 6.30403C5.39062 6.28776 5.30434 6.24072 5.22017 6.1996C5.11723 6.14931 5.00915 6.10227 4.92044 6.03275C4.7509 5.89992 4.59589 5.74994 4.43088 5.61119C4.24196 5.45233 4.11995 5.24732 4.02428 5.03047C3.9713 4.91037 3.87563 4.87457 3.77209 4.84499C3.65371 4.81126 3.52988 4.79647 3.40878 4.77133C3.03457 4.69411 2.68792 4.76275 2.39182 4.99409C2.16748 5.16951 1.96766 5.37837 1.8844 5.65764C1.85625 5.7526 1.8841 5.86294 1.8835 5.96619C1.88228 6.14517 1.94405 6.30935 2.01519 6.4694C2.13509 6.7389 2.32431 6.95515 2.55682 7.14093C2.67944 7.23885 2.81296 7.26548 2.96585 7.27731C3.18081 7.29418 3.39455 7.33441 3.60648 7.37582C3.7621 7.40629 3.91559 7.45008 4.06728 7.49652C4.15265 7.52256 4.23833 7.55776 4.3122 7.60598C4.35187 7.63172 4.38547 7.69236 4.38911 7.7397C4.40091 7.89087 4.39486 8.04263 4.29798 8.17398C4.29162 8.18256 4.28314 8.19469 4.28526 8.20267C4.31735 8.32308 4.21199 8.3994 4.18353 8.50146C4.14418 8.64376 4.0149 8.69198 3.87624 8.69464C3.58498 8.70056 3.29616 8.68014 3.01671 8.58637C2.85262 8.53134 2.67944 8.50087 2.52988 8.4065C2.50899 8.39348 2.47781 8.392 2.45147 8.39171C2.29736 8.38993 2.14296 8.38254 1.98976 8.39141C1.73333 8.4065 1.48477 8.45176 1.25376 8.57572C1.06182 8.67866 1.0052 8.82836 1.02185 9.03307C1.05273 9.41647 1.14568 9.77975 1.32915 10.1217C1.49869 10.438 1.72909 10.6924 2.03911 10.8879C2.2247 11.0051 2.41574 11.0666 2.63221 11.0764C2.74544 11.0814 2.81417 11.0012 2.90378 10.9613C2.93255 10.9486 2.95465 10.9214 2.98159 10.9036C3.07151 10.8441 3.04578 10.7406 3.07999 10.6598C3.15023 10.4939 3.21199 10.3244 3.28586 10.1599C3.33612 10.0481 3.44632 10.0176 3.55895 9.99423C3.69367 9.96642 3.82598 9.92412 3.96161 9.90577C4.0152 9.89838 4.07666 9.93565 4.13267 9.95754C4.16446 9.96997 4.1905 9.99896 4.22289 10.0075C4.34944 10.0419 4.40182 10.0981 4.39092 10.2229C4.38063 10.3442 4.37154 10.469 4.33461 10.5841C4.26679 10.7947 4.18686 11.0024 4.09573 11.2045C4.03246 11.3453 4.03912 11.4755 4.09694 11.6101C4.16173 11.7609 4.21441 11.9192 4.29828 12.0597C4.40364 12.2363 4.54654 12.3763 4.76543 12.4331C4.96283 12.4845 5.15992 12.4872 5.35762 12.4697C5.5971 12.4487 5.83749 12.4245 6.07243 12.3766C6.25893 12.3384 6.43907 12.2668 6.6189 12.202C6.75757 12.152 6.89623 12.0979 7.02641 12.0301C7.17416 11.9535 7.32312 11.8722 7.45148 11.7689C7.52808 11.7074 7.60861 11.6819 7.6949 11.6559C7.77241 11.6325 7.85142 11.6139 7.92742 11.5873C7.94467 11.5814 7.95951 11.5521 7.96405 11.5314C8.02611 11.2491 8.08667 10.9666 8.14661 10.6841C8.19596 10.451 8.24834 10.2185 8.29163 9.98446C8.32736 9.79129 8.44725 9.69869 8.63799 9.67177C8.74183 9.65698 8.84356 9.62651 8.9474 9.61379C8.98131 9.60965 9.02067 9.63745 9.05579 9.65402C9.08455 9.66763 9.10847 9.69544 9.13814 9.70165C9.23865 9.72325 9.288 9.77117 9.29497 9.86879C9.30587 10.0194 9.28255 10.1655 9.24652 10.3119C9.20232 10.4915 9.17053 10.6743 9.13239 10.8554C9.08879 11.0625 9.04459 11.2693 8.99917 11.476C8.91682 11.8512 8.83084 12.2257 8.75182 12.6014C8.69188 12.8863 8.64101 13.1732 8.585 13.4587C8.55654 13.604 8.52263 13.7486 8.49599 13.8942C8.4524 14.1314 8.41243 14.3696 8.37126 14.6074C8.33402 14.8213 8.29527 15.0349 8.26136 15.2494C8.23441 15.4198 8.21352 15.5914 8.1896 15.7623C8.16871 15.912 8.13874 16.0611 8.12996 16.2114C8.12269 16.3354 8.12572 16.4638 8.15115 16.5848C8.18234 16.7324 8.30526 16.8049 8.48055 16.8161C8.69884 16.83 8.91682 16.8549 9.13511 16.8599C9.29527 16.8637 9.45603 16.8407 9.6168 16.8341C9.74971 16.8288 9.88292 16.8335 10.0158 16.827C10.1551 16.8199 10.2944 16.8093 10.4324 16.7915C10.545 16.777 10.6477 16.777 10.7406 16.8551C10.7736 16.883 10.8296 16.8841 10.8629 16.9116C10.8981 16.9406 10.9377 16.9841 10.9426 17.0252C10.9589 17.1613 10.9371 17.2933 10.8657 17.4166C10.8296 17.4788 10.8097 17.5501 10.7821 17.6169C10.7013 17.8136 10.5711 17.9352 10.3361 17.9394C10.054 17.9444 9.77271 17.9731 9.49055 17.984C9.23048 17.9944 8.96981 18.0065 8.71004 17.9959C8.51083 17.9879 8.3104 17.958 8.11634 17.9136C8.0134 17.8903 7.91864 17.8213 7.82751 17.7625C7.74152 17.7068 7.66341 17.6391 7.5853 17.5728C7.43756 17.4474 7.38912 17.2613 7.29284 17.1042C7.13147 16.8412 7.0903 16.5484 7.11088 16.2487C7.12511 16.0431 7.16235 15.8387 7.19081 15.6343C7.2229 15.4044 7.25378 15.1745 7.29072 14.9453C7.33704 14.6571 7.387 14.3696 7.43907 14.0826C7.48388 13.8356 7.53504 13.5895 7.58106 13.3424C7.60044 13.2392 7.61406 13.1348 7.63132 13.0227C7.47964 13.0842 7.33099 13.1448 7.18233 13.2046C6.82236 13.3495 6.44845 13.4475 6.06668 13.5194C5.76089 13.5767 5.4536 13.6244 5.14236 13.6285C4.98553 13.6306 4.82417 13.6276 4.67279 13.5933C4.45571 13.5442 4.24045 13.477 4.07151 13.3179C4.00097 13.2516 3.91105 13.2046 3.84475 13.1351C3.74363 13.0289 3.64099 12.9194 3.5647 12.7963C3.4436 12.6011 3.34308 12.3934 3.2347 12.1905C3.22228 12.1674 3.2135 12.1423 3.20048 12.1124C3.11753 12.1369 3.03548 12.1624 2.95253 12.1852C2.68489 12.2585 2.41211 12.2562 2.15355 12.1724C1.88561 12.0858 1.62918 11.9636 1.41513 11.7725C1.31643 11.6843 1.21077 11.6041 1.10783 11.5207C0.9613 11.4018 0.843527 11.2607 0.752397 11.0968C0.601322 10.8255 0.432082 10.5628 0.298869 10.2835C0.167473 10.0081 0.0730132 9.71674 0.0433431 9.40966C0.0327466 9.29814 -0.00146509 9.18749 4.86869e-05 9.07656C0.00459003 8.78694 0.0366825 8.50117 0.147491 8.22634C0.261025 7.9453 0.434201 7.71218 0.706682 7.57078C0.869867 7.48617 1.05515 7.44268 1.23136 7.38233C1.26648 7.3702 1.30432 7.36577 1.35216 7.35541C1.31583 7.28027 1.28888 7.20779 1.24831 7.1436C1.06091 6.84658 0.928905 6.52738 0.872895 6.18392C0.808105 5.78573 0.875014 5.40233 1.03729 5.02959C1.1702 4.72458 1.34096 4.44621 1.5762 4.20865C1.75876 4.02406 1.96645 3.87999 2.22228 3.79301C2.44117 3.71846 2.6643 3.66847 2.88955 3.6303C3.05365 3.60279 3.2244 3.61374 3.39213 3.60634C3.42392 3.60486 3.4551 3.59688 3.49234 3.59096C3.48235 3.49718 3.46509 3.40311 3.46388 3.30874C3.46237 3.1836 3.46116 3.05639 3.48144 2.93362C3.51505 2.73039 3.55471 2.52685 3.61223 2.32894C3.70064 2.0266 3.85171 1.75503 4.06849 1.51777C4.25044 1.31868 4.47327 1.18348 4.72789 1.10775C4.94739 1.04237 5.17627 1.00569 5.40273 0.965161C5.52202 0.943861 5.64494 0.935873 5.76665 0.932323C5.94981 0.926999 6.13056 0.946228 6.30585 1.0051C6.50295 1.07136 6.7061 1.12254 6.89683 1.20271C7.10452 1.28969 7.31615 1.37311 7.49659 1.51422C7.58833 1.58611 7.69127 1.64439 7.79874 1.71509C7.80601 1.67013 7.80813 1.62398 7.82145 1.58108C7.90229 1.32223 7.97041 1.05835 8.11664 0.824345C8.25984 0.595076 8.44271 0.401898 8.69097 0.280607C8.88231 0.187125 9.08667 0.126775 9.2986 0.0912752C9.43999 0.0676087 9.57865 0.0205715 9.72064 0.00992158C9.91077 -0.00427832 10.1033 -0.00220734 10.2938 0.00962592C10.4639 0.0202758 10.6344 0.0454215 10.8018 0.0782588C11.0446 0.126183 11.2801 0.199549 11.5012 0.313149C11.6274 0.377936 11.7624 0.428227 11.8844 0.499818C12.0286 0.58413 12.1657 0.680867 12.301 0.778491C12.701 1.06693 13.0065 1.43228 13.2063 1.8775C13.2913 2.06713 13.3552 2.26504 13.3725 2.4739C13.3779 2.53898 13.3919 2.56561 13.4721 2.54697C13.7088 2.49195 13.948 2.44668 14.1872 2.40172C14.2562 2.3887 14.328 2.38574 14.3985 2.38604C14.6035 2.38633 14.8097 2.37894 15.0134 2.39639C15.2744 2.41858 15.5208 2.50496 15.7567 2.61324C15.9162 2.6866 16.0664 2.7789 16.2211 2.86233C16.5647 3.04781 16.816 3.32737 17.0261 3.64125C17.2205 3.93176 17.3674 4.248 17.4315 4.59176C17.4685 4.78908 17.4818 4.99113 17.4988 5.1917C17.5387 5.66444 17.4215 6.11203 17.2608 6.55164C17.1963 6.72795 17.1245 6.90161 17.0585 7.06964C17.1533 7.1436 17.2517 7.20986 17.3377 7.28885C17.6474 7.57433 17.8424 7.92104 17.9323 8.33018C17.9762 8.53016 17.9829 8.73014 17.9962 8.93131C18.0113 9.1588 17.9786 9.38067 17.9483 9.60491C17.8978 9.98358 17.7912 10.3463 17.6544 10.7016C17.5629 10.9391 17.4754 11.1784 17.368 11.4092C17.2535 11.6553 17.1291 11.8982 16.9535 12.1115C16.8684 12.2147 16.8003 12.3322 16.7073 12.4274C16.5793 12.5591 16.4409 12.6836 16.2959 12.7975C16.1215 12.9345 15.9226 13.0321 15.7092 13.1037C15.5039 13.1726 15.2941 13.2155 15.0794 13.225C14.8239 13.2359 14.5711 13.2004 14.3319 13.1102C14.1975 13.0593 14.0722 12.9854 13.9423 12.9224C13.928 12.9156 13.9123 12.9114 13.8966 12.9058C13.8315 13.0395 13.7676 13.1712 13.704 13.3028C13.5644 13.5906 13.3573 13.8211 13.0673 13.9658C12.7867 14.106 12.483 14.1501 12.1705 14.095C12.0098 14.0666 11.8484 14.0314 11.6937 13.9806C11.5941 13.9477 11.5021 13.8871 11.4137 13.8285C11.2841 13.743 11.1605 13.6483 11.0343 13.5578C11.0107 13.5407 10.9865 13.5241 10.9625 13.5072C10.9538 13.5099 10.9447 13.5123 10.9359 13.5149L10.9353 13.5158Z" fill="currentColor"/>
</svg>
