<svg width="23" height="18" viewBox="0 0 23 18" fill="none" xmlns="http://www.w3.org/2000/svg">
<path d="M5.55407 0.00178729C5.94395 0.0527143 6.33073 0.0790712 6.70643 0.158142C7.1796 0.258209 7.61999 0.456109 8.05196 0.680813C8.59557 0.964039 9.05633 1.34465 9.46393 1.79227C9.89989 2.27072 10.2654 2.80366 10.5569 3.38396C10.8679 4.00268 11.1776 4.62274 11.4652 5.25263C11.7554 5.88743 12.0699 6.50659 12.4642 7.08287C12.8156 7.59616 13.2449 8.03842 13.7544 8.38463C14.0091 8.55796 14.3135 8.67277 14.6103 8.76346C14.9723 8.87425 15.3484 8.94081 15.7215 9.01005C15.8841 9.04043 16.0538 9.0306 16.2204 9.03864C16.3395 9.04445 16.4583 9.05428 16.5774 9.05383C16.9124 9.05249 17.2358 9.00603 17.5513 8.87246C17.9527 8.7027 18.3306 8.49274 18.677 8.23275C19.0541 7.94907 19.4209 7.64977 19.7736 7.33572C20.0957 7.04892 20.4045 6.74469 20.6982 6.42841C21.0097 6.09337 21.2972 5.73643 21.5936 5.38709C21.6813 5.2839 21.7983 5.25933 21.9223 5.23878C22.0854 5.21153 22.2471 5.17489 22.4092 5.14184C22.4327 5.13692 22.4593 5.11503 22.477 5.12129C22.6254 5.17579 22.7805 5.22046 22.9165 5.29864C23.0011 5.34733 22.9976 5.46214 22.9998 5.56265C23.0042 5.76994 22.9316 5.95399 22.854 6.13849C22.7876 6.29573 22.7322 6.4579 22.6551 6.60934C22.5847 6.74738 22.4992 6.88005 22.4066 7.00424C22.294 7.15479 22.1718 7.29864 22.045 7.43757C21.9019 7.59437 21.7491 7.74179 21.6016 7.89457C21.4775 8.02323 21.3588 8.1577 21.2307 8.28189C21.116 8.39357 20.9915 8.49453 20.8723 8.60174C20.7753 8.6893 20.6831 8.78311 20.5834 8.86755C20.2941 9.11369 20.0101 9.36743 19.7093 9.59884C19.0829 10.0804 18.3895 10.44 17.6248 10.6344C17.2952 10.7179 16.9496 10.7438 16.6093 10.7755C16.3896 10.7961 16.1659 10.7934 15.9457 10.7755C15.679 10.7545 15.414 10.7076 15.1486 10.6701C15.0055 10.6495 14.8624 10.6272 14.7202 10.6004C14.6484 10.5866 14.5771 10.5647 14.5084 10.5396C14.286 10.4588 14.0645 10.3748 13.843 10.2913C13.73 10.2488 13.6099 10.2176 13.5072 10.1572C13.3096 10.0415 13.1159 9.9178 12.9316 9.78155C12.7367 9.63726 12.5497 9.4809 12.3694 9.31785C12.2086 9.17266 12.0513 9.02122 11.9122 8.85548C11.7124 8.61782 11.5121 8.37615 11.3442 8.1157C11.1174 7.76323 10.9167 7.3929 10.7124 7.02613C10.5622 6.75676 10.4165 6.48425 10.2822 6.20639C9.97521 5.57025 9.69033 4.92339 9.37001 4.29439C9.16444 3.89145 8.89817 3.52289 8.59956 3.18025C8.36652 2.91266 8.12949 2.6482 7.8291 2.4579C7.60182 2.31405 7.37011 2.16261 7.11935 2.0755C6.72105 1.93656 6.31212 1.82533 5.88547 1.78825C5.40344 1.74626 4.92761 1.76413 4.46064 1.88653C4.14741 1.96873 3.83196 2.05897 3.53645 2.18941C3.15366 2.35917 2.84088 2.63346 2.55733 2.9484C2.26669 3.27139 2.04473 3.63458 1.86751 4.02636C1.77713 4.2256 1.71599 4.43869 1.64643 4.64731C1.52991 4.99531 1.42402 5.34733 1.29997 5.69265C1.24946 5.83382 1.17149 5.96784 1.09218 6.09605C0.96813 6.29618 0.86047 6.28412 0.669962 6.15769C0.365148 5.95533 0.251728 5.62788 0.0811562 5.3375C-0.0203008 5.16417 -0.0202998 4.97297 0.0461568 4.78177C0.23002 4.25374 0.386857 3.71409 0.60129 3.19857C0.832116 2.64418 1.10902 2.109 1.50466 1.64619C1.9508 1.12441 2.48068 0.72772 3.1293 0.500336C3.59449 0.33728 4.07121 0.222024 4.55811 0.149208C4.8904 0.0996208 5.22224 0.0495868 5.55363 0L5.55407 0.00178729Z" fill="currentColor"/>
<path d="M16.0737 18C15.7738 17.9888 15.4477 17.996 15.1265 17.9585C14.8363 17.9249 14.5501 17.8481 14.2652 17.7798C14.0933 17.7387 13.9192 17.6922 13.7584 17.6198C13.4974 17.5028 13.2396 17.3737 12.9932 17.2285C12.7921 17.1101 12.6029 16.9681 12.4195 16.822C12.2569 16.6929 12.1054 16.549 11.9569 16.4029C11.8014 16.2497 11.6539 16.0885 11.5068 15.9272C11.2069 15.5988 10.9384 15.2464 10.7169 14.8582C10.5521 14.5696 10.381 14.2841 10.2074 14.0009C10.082 13.7963 9.9473 13.5975 9.8166 13.3956C9.7404 13.2781 9.66596 13.1593 9.58932 13.0422C9.29204 12.591 8.95842 12.1702 8.5681 11.7967C8.38955 11.6256 8.18576 11.4921 7.96246 11.388C7.7786 11.3022 7.60005 11.199 7.40954 11.1333C7.22346 11.0695 7.02631 11.0235 6.83093 11.0056C6.53808 10.9788 6.23725 10.9471 5.94839 10.985C5.60503 11.0302 5.26831 11.136 4.93426 11.2352C4.43406 11.384 3.98349 11.6462 3.55285 11.9325C3.25291 12.1322 2.98486 12.3828 2.71018 12.6192C2.38764 12.8966 2.07042 13.1803 1.7563 13.4671C1.64687 13.5667 1.55516 13.686 1.4506 13.7914C1.30396 13.9397 1.11655 13.9214 0.955282 13.7945C0.617683 13.5287 0.488314 13.1503 0.369579 12.7635C0.324831 12.6169 0.395718 12.4914 0.492745 12.394C0.750153 12.1358 1.01376 11.8843 1.28048 11.6355C1.53833 11.3951 1.79574 11.1535 2.06644 10.9287C2.29948 10.7358 2.54359 10.5526 2.7979 10.3895C3.08809 10.2037 3.38892 10.0313 3.69772 9.87894C3.92899 9.76502 4.17665 9.6797 4.42431 9.60554C4.73134 9.51307 5.04325 9.43266 5.35781 9.37056C5.66838 9.30936 5.98338 9.26156 6.29883 9.23744C6.72548 9.20438 7.14859 9.2486 7.55309 9.39915C7.81581 9.49699 8.07322 9.60911 8.33152 9.71812C8.67 9.86107 8.98545 10.046 9.25792 10.2944C9.49761 10.5128 9.75014 10.7255 9.95084 10.9779C10.2991 11.4166 10.6269 11.8736 10.9353 12.3417C11.2388 12.8028 11.5019 13.291 11.7926 13.761C12.0549 14.1854 12.3579 14.5785 12.7039 14.9395C13.0105 15.2598 13.3401 15.5488 13.7251 15.7659C14.0202 15.9325 14.3454 16.0255 14.6741 16.0996C14.9094 16.1528 15.146 16.1997 15.3839 16.239C15.4831 16.2555 15.5868 16.2461 15.6883 16.2461C15.9443 16.247 16.2017 16.2595 16.4569 16.243C16.8242 16.2193 17.1911 16.1881 17.549 16.0809C18.0687 15.9258 18.5503 15.6909 19.0124 15.413C19.4838 15.1298 19.9078 14.78 20.2897 14.3855C20.739 13.9214 21.1452 13.4188 21.4593 12.8483C21.5954 12.6017 21.8151 12.4927 22.0787 12.4463C22.2023 12.4244 22.3242 12.3904 22.4469 12.3623C22.4659 12.3578 22.4859 12.3502 22.5049 12.3511C22.7331 12.3592 22.9178 12.5593 22.9289 12.7862C22.9418 13.0395 22.8691 13.2705 22.7774 13.4983C22.6937 13.7056 22.6157 13.916 22.5138 14.1139C22.3166 14.4959 22.0747 14.8492 21.7943 15.1749C21.6246 15.3719 21.4611 15.5752 21.2799 15.7614C21.124 15.9218 20.9498 16.0648 20.7793 16.2095C20.5905 16.3699 20.4045 16.5356 20.2029 16.6786C19.385 17.2593 18.479 17.6413 17.4994 17.8356C17.1609 17.9026 16.8136 17.9245 16.4698 17.9647C16.3471 17.979 16.2235 17.9862 16.075 17.9987L16.0737 18Z" fill="currentColor"/>
</svg>
