<svg width="24" height="18" viewBox="0 0 24 18" fill="none" xmlns="http://www.w3.org/2000/svg">
<path d="M14.0646 2.33577C13.7207 2.2114 13.3915 2.07594 13.0532 1.97567C12.8525 1.91638 12.6376 1.89902 12.4277 1.88697C11.9262 1.85804 11.4371 1.92843 10.9693 2.12993C10.5315 2.3189 10.1252 2.56283 9.78592 2.91088C9.50764 3.19627 9.22797 3.48262 8.97373 3.79066C8.77079 4.03603 8.59005 4.30454 8.42641 4.58029C8.16893 5.01366 7.91423 5.45138 7.69419 5.90549C7.41452 6.48253 7.16167 7.07451 6.91343 7.66697C6.71975 8.12879 6.54917 8.60122 6.3712 9.07027C6.14654 9.66225 5.93159 10.2581 5.69861 10.8467C5.47303 11.4165 5.23728 11.9815 4.99228 12.5426C4.83234 12.9085 4.66824 13.2754 4.47085 13.62C4.20366 14.0876 3.9129 14.5417 3.61197 14.9867C3.46174 15.2084 3.25649 15.3887 3.09331 15.6018C2.74662 16.055 2.29776 16.3886 1.87295 16.7487C1.66724 16.9232 1.44166 17.0726 1.21746 17.2211C1.12825 17.2799 1.02146 17.3214 0.917918 17.3406C0.848117 17.3532 0.759826 17.3305 0.696034 17.2934C0.282311 17.0514 0.0534924 16.6686 0.0026438 16.187C-0.0172334 15.9986 0.0766051 15.8081 0.229151 15.6876C0.524073 15.4548 0.83656 15.246 1.1301 15.0113C1.63165 14.6102 2.09853 14.1672 2.47065 13.6306C2.75217 13.2247 3.02675 12.8126 3.27914 12.3869C3.46174 12.0784 3.6092 11.7462 3.75989 11.4189C3.9337 11.0405 4.1015 10.6592 4.25775 10.2725C4.43294 9.8382 4.59196 9.39663 4.75745 8.95795C4.95206 8.4431 5.14159 7.92632 5.34082 7.4134C5.53544 6.91205 5.73282 6.41214 5.94176 5.91706C6.09385 5.55696 6.25887 5.20264 6.43222 4.85314C6.64625 4.42168 6.8538 3.98445 7.10296 3.57565C7.38817 3.10757 7.69142 2.64719 8.03164 2.22201C8.34089 1.83539 8.6899 1.47673 9.05786 1.15085C9.41981 0.829792 9.83168 0.572368 10.2995 0.435943C10.6448 0.335191 10.9869 0.215637 11.3368 0.138988C11.6682 0.0661961 12.0094 -0.00370402 12.3455 0.000152527C13.0319 0.00882976 13.6971 0.162127 14.3114 0.498129C14.574 0.641785 14.8375 0.78978 15.0788 0.968145C15.2568 1.09975 15.4024 1.27956 15.5563 1.44443C15.6783 1.57555 15.7893 1.71728 15.9095 1.85081C15.9284 1.87202 15.9673 1.87685 15.9982 1.88359C16.1577 1.91686 16.2238 1.99495 16.2086 2.1656C16.1813 2.46931 16.1022 2.75807 15.9557 3.02513C15.9169 3.09551 15.8859 3.17168 15.8582 3.24785C15.7953 3.41995 15.6788 3.52118 15.5216 3.60844C15.2595 3.7545 15.0025 3.9184 14.7691 4.1093C14.5181 4.31418 14.2643 4.53256 14.0683 4.79143C13.6675 5.32122 13.2871 5.87271 13.0855 6.52736C12.976 6.88361 12.8683 7.24178 12.7851 7.60526C12.7282 7.85546 12.7102 8.11626 12.6834 8.3732C12.6616 8.58001 12.6487 8.78826 12.6404 8.99651C12.6362 9.10401 12.6455 9.21344 12.6575 9.32046C12.6972 9.67719 12.7213 10.0378 12.7888 10.3887C12.8683 10.8052 12.9653 11.2213 13.0938 11.6238C13.202 11.9622 13.3458 12.2934 13.5108 12.6062C13.7026 12.9697 13.9194 13.3221 14.1534 13.6576C14.4718 14.1146 14.862 14.5061 15.303 14.8334C15.6326 15.0778 15.9719 15.3155 16.3315 15.5054C16.6315 15.6635 16.9616 15.7681 17.2879 15.8602C17.6259 15.9552 17.973 16.0304 18.3206 16.0699C18.7131 16.1143 19.112 16.1321 19.5068 16.1196C19.8784 16.108 20.2478 16.0366 20.6194 16.0019C21.1668 15.9503 21.6632 15.7151 22.1791 15.5488C22.474 15.4538 22.7884 15.4254 23.0838 15.3328C23.4013 15.233 23.6556 15.3892 23.9274 15.4958C24.005 15.5261 24.0152 15.5748 23.9824 15.6476C23.8303 15.9889 23.693 16.3379 23.5238 16.6701C23.3579 16.9969 23.0643 17.184 22.7375 17.2934C22.2411 17.4597 21.74 17.6149 21.2347 17.7475C20.9195 17.8304 20.5931 17.8762 20.2691 17.9153C19.9048 17.9591 19.5378 17.9958 19.1712 17.9996C18.8171 18.0035 18.4612 17.9774 18.1094 17.937C17.7715 17.8984 17.4349 17.8348 17.1021 17.762C16.9311 17.7244 16.7697 17.6414 16.6033 17.5802C16.46 17.5277 16.3116 17.4886 16.1739 17.424C15.8896 17.291 15.6095 17.1473 15.3312 17.0013C15.2655 16.967 15.2161 16.901 15.1541 16.8576C15.0118 16.7578 14.8569 16.6759 14.7247 16.564C14.3951 16.2854 14.06 16.0101 13.7558 15.7026C13.4766 15.4206 13.2196 15.1106 12.9797 14.791C12.6672 14.374 12.4199 13.9117 12.2022 13.4335C12.0177 13.0276 11.8185 12.6265 11.6632 12.2085C11.5263 11.8398 11.4348 11.4517 11.335 11.0689C11.2092 10.5873 11.1417 10.0956 11.1316 9.59621C11.1242 9.25201 11.0964 8.90637 11.1121 8.56362C11.1265 8.25509 11.1852 7.9485 11.2291 7.6419C11.2591 7.43268 11.285 7.22202 11.3345 7.01762C11.5661 6.05734 11.9035 5.14141 12.3843 4.28381C12.6921 3.73474 13.061 3.23821 13.5094 2.8082C13.6768 2.64767 13.8621 2.50739 14.0641 2.3377L14.0646 2.33577Z" fill="currentColor"/>
</svg>
