<svg viewBox="0 0 8 14" fill="none" xmlns="http://www.w3.org/2000/svg" xmlns:xlink="http://www.w3.org/1999/xlink">
<path d="M0.345318 1.57339C0.368964 1.56634 0.392609 1.55947 0.411707 1.55371C0.420438 1.46756 0.348774 1.4631 0.300756 1.43673C0.304575 1.42392 0.306031 1.41594 0.309305 1.40888C0.338771 1.34649 0.334768 1.33368 0.265105 1.30156C0.22709 1.2841 0.215086 1.2672 0.228909 1.23805C0.233274 1.24455 0.236549 1.24919 0.239459 1.25402C0.242915 1.25978 0.246371 1.26553 0.2511 1.2737C0.258921 1.25811 0.26365 1.24956 0.267469 1.24047C0.268743 1.23768 0.267652 1.23378 0.267469 1.23044C0.260376 1.20407 0.179799 1.18049 0.14233 1.19572C0.1376 1.13054 0.138147 1.06927 0.189804 1.02043C0.196897 1.01375 0.19908 0.998336 0.19908 0.987009C0.198352 0.869472 0.21163 0.755463 0.27329 0.65241C0.275655 0.648325 0.277473 0.643125 0.277837 0.638483C0.281475 0.589958 0.299725 0.553688 0.332586 0.529673C0.316034 0.481767 0.334041 0.445559 0.400977 0.39821C0.400067 0.409351 0.399521 0.416964 0.398612 0.430148C0.446267 0.411022 0.410071 0.393568 0.402068 0.378899C0.420439 0.343248 0.438446 0.30834 0.450814 0.284201L0.603783 0.284201C0.600145 0.235738 0.597234 0.198602 0.59396 0.157009C0.693635 0.183561 0.753659 0.105018 0.826051 0.076794C0.846787 0.0970334 0.862975 0.117087 0.883347 0.130642C0.892623 0.136955 0.917542 0.136212 0.922816 0.128971C0.969562 0.0660244 1.02085 0.0775368 1.08524 0.126186C1.07615 0.0855211 1.06996 0.0578544 1.06378 0.0303734C1.12271 -0.0143761 1.18146 -0.00973395 1.24385 0.044671C1.2946 0.0890491 1.29551 0.089049 1.33334 0.037058C1.3619 -0.00230672 1.39682 -0.00323522 1.4281 0.034644C1.44465 0.0287022 1.46139 0.0227603 1.47248 0.0186753C1.51796 0.0459706 1.56034 0.0704807 1.60163 0.0970333C1.618 0.107617 1.64037 0.120429 1.64437 0.136398C1.65383 0.174834 1.66729 0.170749 1.69057 0.150324C1.69457 0.146796 1.70294 0.148282 1.7164 0.14661C1.7164 0.182076 1.7184 0.215685 1.71603 0.248922C1.71185 0.304998 1.76023 0.325051 1.78843 0.357546C1.79479 0.364973 1.83062 0.351418 1.84918 0.340834C1.9212 0.299984 1.95103 0.31391 1.98687 0.392454C2.00069 0.422535 2.03652 0.442031 2.06217 0.466542C2.07054 0.474712 2.08563 0.49068 2.08491 0.491237C2.05198 0.528373 2.09327 0.539329 2.10691 0.564767C2.12037 0.546942 2.1311 0.532644 2.14184 0.518347C2.17621 0.5423 2.24333 0.532644 2.22896 0.606732C2.22059 0.60636 2.21223 0.605989 2.20386 0.605617C2.20277 0.609517 2.2015 0.61323 2.2004 0.61713C2.22132 0.625485 2.24169 0.635884 2.26316 0.641454C2.28262 0.646653 2.30335 0.646468 2.32282 0.648696C2.32245 0.735038 2.33882 0.746179 2.40339 0.712756C2.39903 0.756577 2.3883 0.804112 2.39212 0.850533C2.39448 0.879313 2.41849 0.906423 2.43304 0.93409C2.45414 0.974568 2.48451 0.951358 2.51344 0.94783C2.53999 0.944674 2.56691 0.940217 2.58492 0.974754C2.6002 1.00391 2.62639 1.02712 2.64749 1.05311C2.65149 1.05813 2.65767 1.06852 2.65658 1.06927C2.61457 1.10659 2.68969 1.14465 2.65658 1.18365C2.65458 1.18606 2.6755 1.21837 2.69078 1.22487C2.73643 1.24474 2.7819 1.22543 2.809 1.179C2.8241 1.21744 2.83847 1.25458 2.85339 1.29264C2.90086 1.28484 2.93942 1.32421 2.94469 1.39477C2.94724 1.43005 2.94506 1.46551 2.94506 1.50673C3.00253 1.55037 3.0682 1.60069 3.13459 1.6499C3.14168 1.65509 3.15641 1.65064 3.16223 1.65639C3.17278 1.66642 3.18697 1.68183 3.1857 1.69335C3.18424 1.70597 3.16696 1.71656 3.14786 1.73772C3.15168 1.75406 3.16969 1.76799 3.20152 1.75685C3.25318 1.73884 3.30083 1.73587 3.34267 1.7808C3.34885 1.7873 3.36449 1.78452 3.38232 1.78693C3.40233 1.81942 3.43016 1.86194 3.45489 1.90632C3.46362 1.92192 3.47199 1.94364 3.46835 1.9598C3.45744 2.00826 3.44071 2.05524 3.43088 2.08736C3.47599 2.11596 3.506 2.1375 3.53838 2.15477C3.58785 2.18113 3.58312 2.21994 3.57076 2.26543C3.56093 2.30164 3.58403 2.32039 3.62005 2.33116C3.62478 2.31612 3.62951 2.30127 3.63242 2.29236C3.73046 2.31947 3.82831 2.34676 3.93672 2.37666C3.93726 2.37814 3.9429 2.39263 3.95181 2.41491C3.93217 2.41101 3.92126 2.40878 3.91907 2.40822C3.92144 2.4357 3.9238 2.4617 3.92599 2.4877C3.92726 2.50274 3.92308 2.52242 3.9309 2.53189C3.94599 2.55027 3.96782 2.56308 3.99547 2.58518C3.99547 2.58685 3.99656 2.60338 3.99801 2.62789C4.10078 2.5978 4.13734 2.67709 4.17572 2.74988C4.15098 2.77216 4.17281 2.78553 4.19609 2.7989C4.25157 2.83084 4.30941 2.8598 4.36161 2.89657C4.39308 2.91885 4.41618 2.95376 4.44328 2.9831C4.49421 2.95264 4.52058 2.95747 4.56078 3.00631C4.60843 3.06405 4.61534 3.14148 4.57497 3.18883C4.61826 3.22968 4.64536 3.28929 4.72484 3.27833C4.75722 3.27387 4.80924 3.28836 4.80142 3.34982C4.80087 3.3539 4.80924 3.3591 4.8156 3.36653C4.82506 3.35038 4.83325 3.33645 4.84325 3.31937C4.87817 3.33812 4.91473 3.35557 4.94893 3.37711C4.95984 3.38398 4.97039 3.40125 4.97076 3.41406C4.97239 3.47088 4.98949 3.52027 5.02478 3.56428C5.03351 3.57505 5.03587 3.59139 5.04224 3.60792C5.08953 3.61144 5.13828 3.61497 5.18702 3.61887C5.22522 3.62184 5.25396 3.63781 5.26014 3.68015C5.2636 3.7041 5.26487 3.72843 5.26578 3.75256C5.26887 3.83761 5.2676 3.83928 5.33672 3.88755C5.366 3.90798 5.38819 3.92673 5.3851 3.96647C5.38437 3.97501 5.39474 3.98634 5.40256 3.99302C5.42057 4.00788 5.43894 4.01586 5.41857 4.04761C5.40311 4.07157 5.41238 4.09979 5.45113 4.09979C5.46549 4.09979 5.47986 4.10443 5.49441 4.10517C5.53589 4.1074 5.56644 4.11242 5.5568 4.17202C5.55335 4.19337 5.58663 4.22104 5.60519 4.24871C5.59173 4.25465 5.58245 4.25892 5.57299 4.26319C5.57299 4.26746 5.57263 4.27192 5.57263 4.27619C5.59609 4.27916 5.6201 4.28677 5.64284 4.28399C5.6643 4.28139 5.68467 4.2682 5.69813 4.26263C5.71377 4.29216 5.72469 4.3124 5.73705 4.33542C5.74669 4.32279 5.75597 4.31035 5.77471 4.28566C5.78162 4.31444 5.78271 4.33542 5.79217 4.35139C5.79853 4.36234 5.81563 4.36959 5.82927 4.37256C5.85019 4.3772 5.8722 4.37701 5.89366 4.37887C5.8882 4.40468 5.88893 4.43458 5.87565 4.45519C5.85037 4.49455 5.82527 4.52853 5.87602 4.56567C5.87802 4.56715 5.87911 4.57217 5.8782 4.57458C5.84819 4.66408 5.91913 4.68692 5.97078 4.72387C6.00207 4.74615 6.03008 4.77307 6.05354 4.80854C6.05172 4.79164 6.04972 4.77456 6.04827 4.76063C6.0921 4.78032 6.13485 4.79814 6.17577 4.81931C6.18596 4.82451 6.19396 4.84011 6.19687 4.85255C6.20578 4.88931 6.21197 4.9257 6.25653 4.93685C6.26526 4.93907 6.27108 4.953 6.27836 4.96154C6.34602 4.93239 6.34675 4.93295 6.35693 5.01353C6.39313 5.04733 6.42059 5.06979 6.44424 5.09598C6.4788 5.13423 6.51063 5.17489 6.54337 5.21463C6.54628 5.21815 6.5481 5.2228 6.54992 5.22707C6.55737 5.24415 6.56138 5.272 6.5732 5.2759C6.5872 5.28054 6.60776 5.26476 6.63031 5.25585C6.65032 5.30115 6.64104 5.38044 6.7278 5.38378C6.73945 5.41981 6.75054 5.4562 6.80111 5.45379C6.81311 5.45323 6.82602 5.47124 6.83839 5.4809C6.86695 5.50373 6.88914 5.52973 6.93134 5.53901C6.96153 5.5457 6.99718 5.59416 7.00409 5.62926C7.01464 5.68273 7.05957 5.67865 7.08631 5.7026C7.0954 5.71077 7.12159 5.69944 7.11123 5.72822C7.12778 5.7273 7.14451 5.72618 7.16106 5.72525C7.16325 5.72061 7.16543 5.71616 7.16743 5.71151C7.20308 5.74976 7.23873 5.78801 7.27966 5.83183C7.28238 5.83072 7.29402 5.82552 7.30949 5.81865C7.3164 5.83573 7.32294 5.85133 7.32877 5.866C7.30894 5.85969 7.29275 5.85449 7.27656 5.84929C7.32258 5.89348 7.37824 5.92115 7.39807 5.98614C7.40098 5.99579 7.41698 6.00062 7.42535 6.00935C7.43626 6.02049 7.45427 6.03312 7.45427 6.04518C7.45445 6.10869 7.50265 6.13041 7.54321 6.15919C7.54958 6.16365 7.56413 6.16328 7.56504 6.16718C7.57795 6.22678 7.63216 6.23588 7.67308 6.26132C7.67581 6.26299 7.68145 6.26429 7.68145 6.2654C7.67817 6.33095 7.74184 6.37941 7.73165 6.44254C7.7231 6.49491 7.7311 6.51905 7.7793 6.54764C7.83696 6.58162 7.89735 6.62136 7.90554 6.70714C7.90863 6.73982 7.94792 6.76897 7.97083 6.79961C7.97338 6.80295 7.97902 6.80537 7.97956 6.80871C7.9872 6.85736 7.99557 6.90619 7.99994 6.95521C8.00103 6.96636 7.98793 6.97917 7.98047 6.99049C7.97793 6.99421 7.97229 6.99588 7.96792 6.99829C7.87025 7.05084 7.8657 7.08519 7.94773 7.15631C7.94143 7.1771 7.89826 7.21597 7.81823 7.27292C7.83533 7.27515 7.84551 7.27644 7.87316 7.27997C7.83987 7.30374 7.81641 7.32045 7.78476 7.34292C7.80531 7.3652 7.82805 7.3899 7.85079 7.41459C7.8517 7.41571 7.85151 7.41793 7.85206 7.41942C7.86188 7.44504 7.79222 7.53881 7.76548 7.53659C7.73856 7.53436 7.71146 7.53102 7.6849 7.53324C7.65798 7.53547 7.63143 7.54364 7.61069 7.5481C7.61197 7.57242 7.61469 7.59415 7.61379 7.6155C7.61251 7.64187 7.60305 7.66879 7.60615 7.69423C7.61069 7.73341 7.58232 7.74696 7.55958 7.75606C7.50374 7.77834 7.44445 7.79116 7.38806 7.81214C7.37187 7.81808 7.35587 7.83665 7.34896 7.85336C7.33513 7.88753 7.32895 7.92485 7.3164 7.95976C7.31185 7.97257 7.29966 7.98817 7.28802 7.99132C7.25128 8.00135 7.22673 8.02159 7.20708 8.0552C7.17525 8.10997 7.1396 8.16252 7.1034 8.21451C7.09449 8.22732 7.07667 8.23327 7.06503 8.24459C7.04556 8.26372 7.02447 8.28247 7.01028 8.3055C6.99518 8.32982 6.991 8.36046 6.95244 8.36232C6.94043 8.36287 6.92952 8.38256 6.91788 8.39314C6.89732 8.41171 6.87914 8.4377 6.85513 8.44662C6.81056 8.46314 6.79947 8.48728 6.81202 8.53222C6.83112 8.60036 6.81675 8.62431 6.75509 8.65179C6.73235 8.66201 6.71398 8.68225 6.6927 8.6984C6.68652 8.69042 6.6756 8.6763 6.65887 8.65477C6.63504 8.70434 6.61285 8.75076 6.59011 8.79848C6.58211 8.7827 6.57411 8.7671 6.55992 8.73925L6.55992 8.80981C6.55556 8.81074 6.54901 8.81408 6.54319 8.81297C6.48225 8.80127 6.46279 8.8553 6.45897 8.89021C6.45297 8.94499 6.41586 8.96653 6.38476 8.99345C6.34656 9.0265 6.31455 9.05305 6.34056 9.11173C6.34638 9.1251 6.32601 9.15202 6.3151 9.17096C6.31073 9.17839 6.29927 9.1834 6.29018 9.18563C6.2287 9.20067 6.20324 9.25378 6.16959 9.29964C6.14594 9.33195 6.11611 9.35943 6.08755 9.39063C6.07191 9.3741 6.06064 9.36222 6.04954 9.35052C6.01207 9.39304 5.96205 9.42943 5.94186 9.47845C5.92131 9.5284 5.89057 9.55143 5.84819 9.5674C5.82654 9.57557 5.80163 9.57501 5.77634 9.57872C5.75906 9.6504 5.74288 9.66432 5.65302 9.67713C5.64193 9.7204 5.63192 9.76533 5.61919 9.80934C5.60282 9.8656 5.56008 9.88491 5.49605 9.8669C5.45749 9.85595 5.43421 9.8747 5.43803 9.91295C5.43494 9.91388 5.43112 9.91629 5.42875 9.91536C5.37546 9.89494 5.33235 9.89345 5.30962 9.96234C5.30452 9.97812 5.27251 9.98462 5.25923 9.99187C5.25687 10.0123 5.26087 10.0342 5.25232 10.042C5.19994 10.0897 5.19703 10.0996 5.2334 10.1519C5.26433 10.1965 5.25414 10.2294 5.20394 10.2496C5.16356 10.2657 5.12463 10.2858 5.08353 10.2992C5.06206 10.3062 5.03733 10.3031 5.01805 10.3042C4.99422 10.3354 4.97148 10.3653 4.94693 10.3976C4.94493 10.3926 4.94184 10.3848 4.93438 10.3656C4.9071 10.418 4.88527 10.4631 4.85999 10.5064C4.85453 10.5157 4.83725 10.5218 4.82506 10.5224C4.7916 10.5238 4.77541 10.5259 4.78541 10.5721C4.80087 10.6444 4.78541 10.7103 4.70629 10.7379C4.69901 10.7405 4.69137 10.747 4.68792 10.7539C4.66955 10.7886 4.63626 10.7832 4.60843 10.7946C4.56242 10.8131 4.48402 10.7792 4.46711 10.8631C4.46529 10.8726 4.44455 10.8765 4.43655 10.8863C4.41636 10.911 4.38889 10.9258 4.39526 10.9723C4.40308 11.0285 4.36234 11.0731 4.31759 11.1048C4.30995 11.1102 4.2874 11.0935 4.26539 11.0842L4.26539 11.1942C4.24593 11.1717 4.23702 11.1613 4.22665 11.1492C4.21355 11.1581 4.20155 11.1663 4.18972 11.1743C4.23538 11.2339 4.16135 11.2278 4.14771 11.2549C4.14007 11.2701 4.13607 11.2889 4.13552 11.3061C4.13352 11.3696 4.1126 11.3921 4.0504 11.3936C3.98583 11.3953 3.93508 11.4463 3.92544 11.512C3.92271 11.531 3.90743 11.5585 3.89234 11.5633C3.85814 11.5739 3.85032 11.5984 3.84814 11.6261C3.84214 11.6953 3.79466 11.7217 3.72754 11.7068C3.70426 11.7016 3.68044 11.6983 3.63896 11.691C3.65479 11.7295 3.66152 11.7571 3.67625 11.7794C3.69208 11.8034 3.69535 11.8175 3.66898 11.8357C3.64151 11.8546 3.62023 11.884 3.59149 11.8996C3.57385 11.909 3.54711 11.9014 3.51674 11.9014C3.51528 11.9057 3.51091 11.9191 3.50928 11.9243L3.37304 11.9243C3.38377 11.9516 3.39196 11.9727 3.40178 11.9978C3.36722 12.0056 3.33503 12.0128 3.30538 12.0195C3.31175 12.0619 3.31702 12.0984 3.32266 12.1363C3.2981 12.171 3.27337 12.2108 3.24372 12.246C3.2299 12.2624 3.20771 12.2733 3.18715 12.2815C3.16369 12.2908 3.14277 12.2863 3.13368 12.2564C3.13022 12.2451 3.12149 12.2355 3.11403 12.2258C3.11367 12.2253 3.09912 12.2342 3.09948 12.2351C3.10476 12.2479 3.11076 12.2603 3.11822 12.272C3.12113 12.2767 3.12822 12.2784 3.14223 12.2867C3.11913 12.3058 3.10075 12.3209 3.08257 12.3359C3.0802 12.3446 3.07984 12.3601 3.07274 12.3705C3.05019 12.4033 3.02545 12.4347 3.00035 12.4657C2.99308 12.4746 2.98162 12.48 2.97216 12.4873C2.95888 12.4971 2.9456 12.5071 2.92651 12.5214C2.92214 12.519 2.90704 12.5103 2.89195 12.5015C2.89322 12.5058 2.89449 12.5103 2.89577 12.5145C2.87267 12.5251 2.84975 12.5355 2.81919 12.5496C2.81828 12.5569 2.81592 12.5745 2.81337 12.5942C2.78554 12.6039 2.7568 12.6139 2.73116 12.6228C2.7377 12.6542 2.74389 12.6839 2.74844 12.7058C2.70933 12.7246 2.67895 12.7392 2.6444 12.7557C2.6233 12.7181 2.60893 12.7286 2.5971 12.7708C2.59438 12.7808 2.57528 12.7858 2.564 12.7936C2.53999 12.8102 2.50179 12.8228 2.49525 12.8449C2.47506 12.9132 2.41485 12.9503 2.38557 13.0103C2.3752 13.0315 2.36065 13.0554 2.34155 13.0662C2.31481 13.0814 2.28225 13.0883 2.25152 13.0937C2.22423 13.0983 2.19531 13.0937 2.16766 13.0972C2.12674 13.1024 2.11128 13.1238 2.11019 13.1704C2.10964 13.1971 2.07981 13.2307 2.05453 13.2478C2.01524 13.2744 1.96831 13.2894 1.92848 13.3076C1.92411 13.3234 1.91757 13.344 1.9132 13.365C1.91138 13.3733 1.91266 13.3834 1.91557 13.3915C1.9203 13.4051 1.92848 13.4173 1.93248 13.4311C1.93303 13.4326 1.91193 13.4374 1.90884 13.4444C1.90502 13.453 1.91411 13.4688 1.90956 13.4758C1.89228 13.502 1.87155 13.5258 1.85336 13.549C1.8359 13.5325 1.82408 13.5191 1.81007 13.5089C1.80043 13.5018 1.7877 13.4992 1.77642 13.4946C1.77351 13.5083 1.76551 13.5239 1.76915 13.5354C1.7746 13.552 1.79061 13.5644 1.79843 13.5806C1.80389 13.5915 1.80989 13.6121 1.8048 13.6173C1.78006 13.6428 1.75168 13.6647 1.71985 13.6918C1.73386 13.7037 1.75041 13.7178 1.77333 13.7375C1.75187 13.7414 1.74095 13.7434 1.7304 13.7452L1.7304 13.8542L1.66765 13.8542C1.66729 13.8509 1.66674 13.8476 1.66638 13.8442C1.68184 13.8362 1.69712 13.8281 1.71221 13.8203C1.7104 13.8011 1.70876 13.7831 1.70767 13.7722C1.69366 13.7878 1.67929 13.8179 1.65874 13.8229C1.63691 13.8283 1.60945 13.8101 1.57725 13.7998C1.5707 13.8156 1.56689 13.8477 1.54924 13.8613C1.53233 13.8743 1.50122 13.8682 1.47576 13.8706C1.47539 13.9113 1.42974 13.9512 1.36644 13.9527C1.33825 13.9534 1.31024 13.9384 1.2815 13.9332C1.25622 13.9285 1.22966 13.9296 1.20456 13.9241C1.19092 13.9209 1.1791 13.9088 1.16509 13.8997L1.16509 13.9352C1.16109 13.9382 1.15745 13.9421 1.15309 13.9437C1.11162 13.9601 1.06906 13.9738 1.02886 13.9931C0.993753 14.01 0.922271 13.9959 0.883347 13.9488C0.852789 13.9116 0.818048 13.9079 0.780397 13.9198C0.768028 13.9237 0.762572 13.9499 0.75184 13.9699C0.670354 13.9757 0.613059 13.9296 0.580501 13.8466C0.616394 13.8192 0.627004 13.794 0.612332 13.7712C0.605965 13.7796 0.59869 13.7863 0.595234 13.7945C0.577591 13.8366 0.559765 13.8231 0.528844 13.8043C0.490102 13.7807 0.443175 13.7592 0.399339 13.7584C0.331131 13.7573 0.312943 13.7508 0.301302 13.6808C0.296209 13.6504 0.289478 13.6199 0.283294 13.5896C0.272017 13.5343 0.219633 13.5304 0.18271 13.5092C0.145786 13.4881 0.133417 13.4482 0.151424 13.4259C0.197806 13.3683 0.155608 13.3317 0.129962 13.2957C0.103042 13.258 0.0659372 13.2268 0.0295598 13.1973C-0.0220965 13.1553 0.00445811 13.1152 0.0301048 13.0779C0.070666 13.0185 0.115411 12.962 0.161065 12.901C0.160155 12.9008 0.170523 12.9039 0.193805 12.9113C0.180891 12.8945 0.177798 12.8855 0.17216 12.8837C0.11341 12.864 0.106316 12.8477 0.117957 12.7829C0.123414 12.7533 0.117957 12.7218 0.119594 12.6913C0.121049 12.6664 0.123232 12.6408 0.129962 12.617C0.133963 12.6026 0.144694 12.5842 0.157063 12.5792C0.193986 12.5641 0.21745 12.5435 0.230183 12.5019C0.240369 12.4687 0.266924 12.4406 0.287841 12.4078C0.307121 12.4109 0.330585 12.4148 0.353867 12.4187C0.354413 12.4141 0.354777 12.4096 0.355323 12.405C0.353503 12.4026 0.352049 12.3991 0.349684 12.3979C0.324947 12.3872 0.283295 12.4167 0.276201 12.363C0.270017 12.3174 0.30221 12.2275 0.335678 12.2167C0.347319 12.213 0.365872 12.2199 0.376967 12.2282C0.393337 12.2403 0.404069 12.26 0.420075 12.2726C0.431534 12.2815 0.447722 12.2843 0.461909 12.2899C0.459363 12.2743 0.456634 12.2587 0.454088 12.2431L0.439719 12.236C0.462819 12.2158 0.495377 12.1998 0.506472 12.1742C0.523206 12.1352 0.525025 12.0897 0.532664 12.0468C0.534119 12.0383 0.529209 12.0238 0.53321 12.021C0.564677 11.9989 0.597416 11.979 0.634704 11.964C0.665261 11.9269 0.602146 11.8676 0.67181 11.8277C0.68345 11.8351 0.701275 11.8466 0.719282 11.8578C0.722011 11.8595 0.726012 11.8617 0.728559 11.8609C0.763118 11.8487 0.805316 11.8446 0.829871 11.8212C0.866067 11.7867 0.890621 11.7391 0.917905 11.6957C0.929 11.678 0.934639 11.6565 0.942096 11.6366C0.956102 11.5991 0.966651 11.5601 0.983749 11.5243C1.00121 11.4877 1.03941 11.5046 1.06851 11.4987C1.1007 11.4922 1.13381 11.49 1.16527 11.4814C1.17473 11.4788 1.18674 11.4615 1.18692 11.4508C1.18837 11.3928 1.23003 11.3681 1.26822 11.3394C1.2795 11.3308 1.29169 11.3219 1.29896 11.3102C1.31752 11.2803 1.33279 11.2482 1.35135 11.2183C1.35389 11.214 1.36917 11.2146 1.37645 11.2177C1.38682 11.2222 1.39518 11.2311 1.40446 11.2382C1.41392 11.2198 1.42901 11.2021 1.43138 11.1828C1.4352 11.1513 1.42901 11.1186 1.43101 11.0865C1.43156 11.079 1.44829 11.0683 1.45848 11.0668C1.48067 11.0638 1.50359 11.0659 1.52651 11.0659C1.52832 11.0252 1.54033 11.0161 1.58271 11.025C1.58853 11.0263 1.59872 11.0269 1.60035 11.0239C1.61963 10.9894 1.63437 10.9517 1.65692 10.9195C1.68238 10.8831 1.71403 10.8512 1.74459 10.8191C1.74659 10.8169 1.76242 10.8282 1.78024 10.8376C1.78333 10.8065 1.78261 10.7788 1.7897 10.7537C1.79479 10.7361 1.80734 10.7138 1.82244 10.7071C1.87537 10.6833 1.92994 10.6613 1.98578 10.6468C2.03034 10.6353 2.05671 10.6089 2.07199 10.569C2.102 10.4906 2.15293 10.4464 2.23915 10.4509C2.26116 10.452 2.31045 10.3883 2.30808 10.3653C2.30335 10.3157 2.30354 10.3166 2.34537 10.3075C2.35355 10.3057 2.36538 10.2945 2.36574 10.2871C2.36756 10.2425 2.36665 10.1978 2.36665 10.1486C2.3632 10.1497 2.37211 10.149 2.37829 10.1443C2.42049 10.1137 2.46142 10.0886 2.51707 10.0806C2.57164 10.0728 2.59911 10.0166 2.61729 9.96401C2.62912 9.93003 2.64003 9.89531 2.64676 9.86003C2.6544 9.81918 2.67804 9.80303 2.71588 9.79931C2.74862 9.79616 2.77372 9.78984 2.77608 9.74342C2.77717 9.72281 2.81246 9.70369 2.83283 9.68456C2.8543 9.66451 2.88049 9.64817 2.89722 9.62477C2.92014 9.59302 2.9356 9.5557 2.95488 9.52116C2.9929 9.45264 3.00617 9.44707 3.07929 9.46843C3.06965 9.4493 3.06074 9.43147 3.04837 9.40678C3.08439 9.38524 3.11713 9.36166 3.15296 9.34588C3.17005 9.33826 3.19479 9.34049 3.21371 9.34643C3.25609 9.35962 3.30629 9.33752 3.31939 9.29277C3.34012 9.2211 3.34649 9.19752 3.44998 9.2029C3.45635 9.20327 3.46253 9.20661 3.4689 9.20736C3.51801 9.21305 3.53984 9.19708 3.53438 9.15945C3.55711 9.12008 3.58767 9.0913 3.58476 9.06624C3.58058 9.0304 3.58985 9.02724 3.61732 9.02353C3.62805 9.02205 3.64679 9.00571 3.64551 8.99995C3.62969 8.93125 3.68626 8.9409 3.70808 8.93292C3.72482 8.88724 3.73464 8.85029 3.75155 8.81705C3.76392 8.79273 3.78666 8.78047 3.81594 8.79644C3.8314 8.80498 3.84832 8.81241 3.86523 8.81594C3.87797 8.81854 3.90234 8.81761 3.90416 8.81204C3.92926 8.73758 4.01384 8.74501 4.06058 8.69209C4.0966 8.65124 4.08114 8.63861 4.07568 8.60277C4.07059 8.56898 4.09351 8.53073 4.10424 8.49434C4.12097 8.43807 4.13479 8.38088 4.15535 8.32629C4.17081 8.28526 4.19427 8.24738 4.21537 8.20894C4.22683 8.18814 4.24084 8.16883 4.25393 8.14897C4.28649 8.0992 4.34342 8.09048 4.38762 8.12743C4.40035 8.13801 4.41509 8.14637 4.42927 8.15472C4.44273 8.16271 4.4571 8.16939 4.45783 8.16995C4.50458 8.13021 4.54404 8.0966 4.5857 8.06133C4.59552 8.00395 4.60716 7.94063 4.6168 7.87713C4.61916 7.86134 4.6108 7.84352 4.61462 7.82866C4.62171 7.801 4.63135 7.77333 4.64499 7.74845C4.65591 7.72877 4.67337 7.71261 4.68956 7.69646C4.69992 7.68587 4.71447 7.66898 4.72484 7.67065C4.83852 7.68847 4.91182 7.61847 4.98622 7.54977C5.01477 7.5234 5.04679 7.50001 5.07207 7.47067C5.08589 7.45451 5.08753 7.42815 5.09644 7.40716C5.10481 7.38748 5.11736 7.36966 5.12518 7.34979C5.13082 7.33512 5.13973 7.31321 5.13355 7.30337C5.09244 7.23838 5.12845 7.18825 5.16356 7.14145C5.18466 7.11342 5.20303 7.09373 5.18811 7.05363C5.17356 7.01445 5.20667 6.90471 5.23359 6.87054C5.22667 6.84213 5.17556 6.81335 5.23559 6.78234C5.21285 6.7621 5.19048 6.73945 5.16501 6.7207C5.15228 6.71141 5.133 6.70306 5.11863 6.70584C5.08553 6.71197 5.08698 6.71457 5.07552 6.6817C5.06552 6.65311 5.04842 6.63231 5.00968 6.63807C5.01696 6.6481 5.02278 6.65589 5.0286 6.66406C4.97348 6.66666 4.96075 6.63658 4.9964 6.58663C5.00713 6.57159 5.0215 6.55897 5.03405 6.54541C4.98458 6.49379 4.92128 6.45424 4.92856 6.3666C4.86981 6.35305 4.83889 6.31535 4.84744 6.24739C4.85071 6.22177 4.85198 6.1941 4.84616 6.16941C4.83616 6.1267 4.81033 6.11871 4.77268 6.14155C4.70665 6.18166 4.67319 6.16644 4.64863 6.09161C4.63444 6.04834 4.61516 6.00601 4.59243 5.96664C4.58242 5.94919 4.55841 5.93972 4.54023 5.92765C4.51185 5.90908 4.49439 5.88791 4.50257 5.84892C4.50512 5.83722 4.49021 5.81234 4.4782 5.80807C4.42127 5.78801 4.39217 5.74939 4.38671 5.68533C4.38489 5.66472 4.37325 5.62888 4.36397 5.62814C4.34215 5.62628 4.31887 5.64151 4.29849 5.66119C4.28358 5.65358 4.26866 5.64597 4.2452 5.63408C4.26666 5.62833 4.27976 5.6248 4.29267 5.62146C4.29249 5.61533 4.29231 5.60902 4.29213 5.60289C4.26994 5.60289 4.24393 5.61013 4.22647 5.60085C4.20973 5.59193 4.20191 5.56575 4.19009 5.54737C4.19354 5.54366 4.19682 5.54013 4.20027 5.53641L4.09423 5.53641C4.11497 5.46623 4.0795 5.42148 4.02184 5.38304C4.04003 5.37784 4.0504 5.37468 4.06077 5.37171C4.06095 5.36874 4.06113 5.36577 4.06131 5.3628C4.03185 5.35649 4.00238 5.35017 3.97073 5.3433C3.97782 5.32678 3.98637 5.30673 3.99638 5.28296C3.97182 5.2811 3.95127 5.27962 3.9269 5.27776C3.93217 5.23431 3.91034 5.21778 3.87196 5.2059C3.81121 5.18696 3.80612 5.16672 3.82249 5.10415C3.82558 5.09245 3.81303 5.07611 3.80703 5.06237C3.80594 5.05977 3.80048 5.05903 3.79866 5.05643C3.79794 5.05531 3.80267 5.05104 3.80248 5.04844C3.80194 5.03897 3.80048 5.0295 3.79102 5.02115C3.78793 5.02969 3.78484 5.03804 3.78466 5.0386C3.77047 5.03154 3.75756 5.02504 3.74137 5.01688C3.74264 5.01502 3.75246 5.00703 3.75519 4.99701C3.77011 4.94075 3.75337 4.92236 3.69644 4.92515C3.67189 4.92626 3.64697 4.92013 3.62259 4.91753C3.61205 4.88226 3.61004 4.83658 3.58749 4.80835C3.55202 4.76398 3.49982 4.7339 3.4598 4.69286C3.42306 4.65517 3.38159 4.64848 3.33394 4.65127C3.32648 4.65164 3.31684 4.63864 3.31066 4.62991C3.29192 4.60355 3.27173 4.57774 3.25791 4.54877C3.25318 4.53893 3.26245 4.5172 3.27173 4.50681C3.2861 4.49047 3.30702 4.48007 3.32302 4.46484C3.33066 4.45741 3.33339 4.44479 3.3383 4.43439C3.32521 4.42993 3.30993 4.41842 3.29956 4.42213C3.25227 4.43847 3.22171 4.42696 3.1957 4.38128C3.18133 4.35603 3.15096 4.34043 3.12767 4.32057C3.07766 4.27786 3.04964 4.22123 3.02072 4.16255C3.00308 4.1269 2.96397 4.09589 2.92741 4.07825C2.88631 4.0582 2.83702 4.05578 2.79154 4.0452C2.75626 4.03703 2.72006 4.0309 2.68605 4.01865C2.64003 4.00212 2.6373 3.95756 2.65058 3.9013C2.66077 3.85803 2.64585 3.80845 2.6413 3.76166C2.64039 3.75201 2.63457 3.74291 2.63439 3.73325C2.63275 3.67903 2.58819 3.68813 2.55982 3.68683C2.49361 3.68349 2.49343 3.68683 2.44741 3.65044C2.43977 3.65991 2.43195 3.66938 2.42631 3.67643C2.40066 3.66715 2.37702 3.66084 2.35556 3.6497C2.34482 3.64413 2.335 3.6315 2.33027 3.6198C2.3159 3.58471 2.3039 3.54868 2.29208 3.51266C2.28953 3.50505 2.28789 3.49149 2.29189 3.48834C2.34846 3.4434 2.26334 3.46086 2.27098 3.4382C2.22805 3.43282 2.18513 3.42409 2.1422 3.42279C2.09636 3.42149 2.0709 3.39215 2.07181 3.33385C2.07254 3.28984 2.07181 3.24565 2.07181 3.19904C2.05526 3.20499 2.04107 3.2087 2.02816 3.2152C1.97959 3.23952 1.95049 3.24454 1.92684 3.17509C1.91448 3.1387 1.85136 3.11883 1.80934 3.09488C1.77315 3.07408 1.73404 3.05885 1.6973 3.03936C1.65565 3.01726 1.64619 2.98254 1.66656 2.93983C1.67711 2.91792 1.68893 2.89657 1.70512 2.86593C1.68693 2.86834 1.67384 2.87001 1.6571 2.87224C1.6551 2.80651 1.63309 2.75229 1.54942 2.75396C1.54306 2.76956 1.53578 2.78739 1.52669 2.80985C1.48704 2.79203 1.44757 2.7781 1.41264 2.75656C1.39645 2.74654 1.37808 2.71924 1.38063 2.7029C1.393 2.6238 1.33679 2.58648 1.29387 2.54061C1.29114 2.53764 1.28405 2.53653 1.27986 2.53783C1.21675 2.55565 1.17673 2.51202 1.13544 2.47804C1.08306 2.43496 1.04104 2.38111 1.01267 2.31835C0.992662 2.27397 0.977746 2.22718 0.964286 2.19135C0.926453 2.18856 0.889712 2.17426 0.875524 2.18689C0.825505 2.23127 0.784398 2.18893 0.741472 2.18002C0.725102 2.17649 0.709825 2.15142 0.700366 2.13267C0.675811 2.08402 0.656349 2.03277 0.631794 1.98431C0.616879 1.9546 0.582866 1.96407 0.559402 1.95404C0.513021 1.93436 0.473732 1.89704 0.427533 1.86417C0.461 1.83131 0.495559 1.80661 0.461546 1.76632C0.474642 1.76223 0.488647 1.75778 0.502652 1.75332C0.497923 1.74181 0.496105 1.7264 0.487556 1.7199C0.480098 1.71433 0.465365 1.71878 0.446813 1.71878C0.411162 1.68016 0.337679 1.65751 0.343863 1.57469L0.345318 1.57339Z" fill="currentColor"/>
</svg>
