<svg viewBox="0 0 45 54" fill="none" xmlns="http://www.w3.org/2000/svg">
<path d="M27.9564 12.4274C27.8289 12.6828 27.6706 13.0653 27.4494 13.4223C27.2195 13.7945 26.8597 13.8577 26.4623 13.7939C24.9193 13.5438 23.3715 13.3068 21.8271 13.0606C20.5034 12.8491 19.1875 12.6146 17.8574 12.4243C16.9354 12.2927 15.9949 12.2172 15.0617 12.1199C14.8353 12.0968 14.6044 12.0659 14.3744 12.0924C14.3131 12.0999 14.1763 12.3286 14.1955 12.4176C14.2343 12.6007 14.3433 12.766 14.4451 12.9251C14.8539 13.5688 15.2762 14.2036 15.6822 14.8489C15.9063 15.2049 16.1308 15.5637 16.3075 15.9448C16.3577 16.0532 16.1563 16.2944 16.2136 16.3894C16.3783 16.6618 16.6179 16.8901 16.8277 17.1355C16.9103 17.2313 17.0488 17.3124 17.0662 17.4263C17.2152 18.4161 17.8797 19.1208 18.3952 19.9063C18.4751 20.0275 18.6809 20.0686 18.8314 20.149C18.7286 20.576 19.0065 21.0144 19.4274 21.1813C19.4522 21.3787 19.4438 21.6324 19.4893 21.634C20.087 21.6565 20.0197 22.2137 20.2921 22.5138C20.2013 22.496 20.1114 22.4777 19.9853 22.4524C20.3735 23.0367 20.7352 23.5817 21.0973 24.1274C21.1312 24.1109 21.166 24.0939 21.1998 24.0775C21.0894 23.8305 20.979 23.5834 20.8686 23.3364C20.8844 23.3272 20.9011 23.3197 20.9173 23.3113C21.0841 23.5145 21.2672 23.7071 21.4099 23.9263C21.4569 23.9993 21.404 24.1372 21.3893 24.2448C21.3824 24.2994 21.3269 24.3748 21.348 24.407C21.6315 24.8381 21.9011 25.2792 22.2266 25.6799C22.3758 25.8632 22.6377 25.9629 22.8484 26.1004C22.8239 26.1373 22.7993 26.1742 22.7748 26.2111C22.6721 26.2177 22.5703 26.2238 22.3824 26.2352C22.7132 26.6194 23.1859 26.9081 23.2592 27.3119C23.367 27.9105 24.0825 27.9331 24.2198 28.4135C24.0607 28.4898 23.9039 28.5659 23.7073 28.6608C24.0275 28.827 24.4275 28.7582 24.4359 29.219C24.4399 29.4491 24.7796 29.6256 25.0101 29.8725C25.0966 30.0652 25.2199 30.3389 25.3433 30.6126C25.3878 30.5931 25.4332 30.5731 25.4777 30.5536C25.4524 30.4669 25.4263 30.3809 25.3993 30.2891C25.4273 30.2946 25.4664 30.2916 25.4763 30.3066C25.6244 30.5246 25.774 30.7428 25.9092 30.9684C25.9422 31.0257 25.95 31.1141 25.9299 31.1846C25.7803 31.7149 25.8607 31.8327 26.4077 31.8855C26.4628 31.8908 26.5375 31.9344 26.5456 31.9763C26.5853 32.2125 26.5834 32.4624 26.6482 32.6883C26.6717 32.7697 26.8438 32.7953 26.9615 32.8533C27.0308 32.9176 27.1395 32.9921 27.211 33.0923C27.3922 33.344 27.8371 33.4495 27.5622 33.9624C27.4929 34.0912 27.8663 34.3712 28.047 34.5725C28.1057 34.6377 28.2776 34.6738 28.2686 34.7224C28.1512 35.3838 28.6779 35.7168 28.9439 36.1817C28.9998 36.2785 29.0115 36.3998 29.0425 36.5027C29.1782 36.4997 29.3214 36.4966 29.4636 36.494C29.4236 36.6286 29.3823 36.7629 29.3452 36.8876C30.3665 37.3584 30.6761 38.4011 31.2561 39.2361C31.4039 39.4492 31.4507 39.7298 31.5546 40.0085C31.6287 40.038 31.851 40.0542 31.9297 40.1668C32.3696 40.7894 32.7831 41.4304 33.1891 42.0757C33.2868 42.232 33.3213 42.4269 33.3846 42.603C33.3457 42.6409 33.3079 42.6783 33.2695 42.717C33.5108 42.7315 33.7511 42.7466 33.8591 42.7534C33.9847 42.971 34.1603 43.1185 34.1457 43.2777C34.0909 43.8607 34.527 44.1097 34.8365 44.4741C35.1049 44.791 35.1814 45.2518 35.3506 45.6672C35.3923 45.6493 35.4823 45.6098 35.5759 45.5682C35.6558 45.8246 35.7976 46.0659 35.7928 46.3257C35.7894 46.5259 35.6302 46.8894 35.4891 46.9327C35.2274 47.0136 34.8963 47.0023 34.7693 46.675C34.532 46.0645 34.2632 45.468 33.9869 44.8758C33.8892 44.6658 33.7317 44.4852 33.6289 44.3329C33.3592 44.9192 33.1267 45.5057 32.8146 46.0637C32.6809 46.302 32.3865 46.6052 32.1521 46.6476C31.9559 46.6834 31.7205 46.4043 31.5463 46.2271C31.3486 46.0263 31.1744 45.7996 31.0377 45.5564C30.9019 45.3126 30.8543 45.02 30.7167 44.7773C30.563 44.5067 30.333 44.2801 30.1686 44.0147C29.6445 43.1691 29.0541 42.3546 28.6455 41.4516C28.2932 40.6741 27.7975 40 27.3563 39.2852C27.157 38.9615 27.04 38.5871 26.8476 38.2583C26.3955 37.4858 25.9093 36.7339 25.4571 35.9614C24.7478 34.7499 24.0375 33.5389 23.3597 32.3092C22.9101 31.4918 22.5255 30.639 22.0967 29.8106C21.9145 29.4584 21.6737 29.138 21.5002 28.7817C21.1641 28.0879 20.8849 27.3641 20.5274 26.6826C20.2915 26.2333 19.9271 25.8531 19.6783 25.4093C19.1163 24.4059 18.5896 23.3821 18.0481 22.3669C17.6935 21.7033 17.3472 21.0349 16.9777 20.3798C16.5791 19.6745 16.1188 19.0017 15.7537 18.2791C15.1903 17.1639 14.6888 16.0162 14.1542 14.8865C13.7298 13.9906 13.2962 13.1 12.8832 12.2409C11.9986 12.3138 11.8619 12.8966 11.6353 13.4095C11.4885 13.741 11.3 14.0667 11.1954 14.4027C11.033 14.926 10.9252 15.456 10.7723 16.0708L11.3967 15.7104C10.9262 16.5004 10.555 17.2908 10.0185 17.9878C9.05681 19.2338 8.62017 20.5845 8.18827 21.9541C8.07851 22.3004 7.88897 22.6587 7.64747 22.9592C7.46941 23.1807 7.11227 23.4633 6.90041 23.4504C6.66236 23.435 6.41674 23.1576 6.31526 22.9261C5.95989 22.1132 6.31184 21.2595 6.74412 20.444C6.89045 20.1675 6.92294 19.9856 6.80119 19.7554C6.67632 19.5198 6.5254 19.2735 6.51373 19.0086C6.50328 18.7803 6.59543 18.4421 6.77744 18.2875C7.44205 17.72 7.73925 17.0868 7.94854 16.3186C8.23779 15.2533 8.70405 14.1942 9.18927 13.1572C9.63397 12.2045 10.2385 11.2949 10.7103 10.3482C11.1616 9.43924 11.0456 8.61406 10.4848 7.90433C10.0933 7.40862 9.93826 6.82903 10.2513 6.18261C10.3528 5.97431 10.7147 5.81801 10.9808 5.69534C11.0318 5.67209 11.205 5.90559 11.3022 6.03533C11.4656 6.25388 11.6317 6.47291 11.7602 6.71262C11.9016 6.97687 12.0017 7.26396 12.1769 7.67696C12.3735 7.33733 12.4887 7.10978 12.633 6.89634C12.792 6.66103 12.9365 6.38349 13.1632 6.22681C13.3377 6.10642 13.7353 6.04206 13.8433 6.13462C13.9834 6.25505 13.9342 6.55604 13.9693 6.79911C14.1144 6.73289 14.3476 6.62613 14.5743 6.52313C14.647 6.68766 14.7117 6.83409 14.787 7.00535C14.4488 7.53102 14.0823 8.09989 13.6827 8.72089C14.2941 8.9988 14.9078 9.21647 15.4398 9.53503C15.9896 9.86502 16.6612 9.78599 17.2759 9.89577C17.6089 9.95545 17.9178 10.0807 18.2522 10.1385C20.3283 10.499 22.406 10.8513 24.4861 11.1992C24.788 11.25 25.1163 11.2308 25.4101 11.2976C26.0347 11.4398 26.6631 11.582 27.2502 11.7943C27.5068 11.8868 27.6643 12.1531 27.9588 12.425L27.9564 12.4274ZM22.9711 29.9604C23.0073 29.9395 23.0436 29.9186 23.0798 29.8977C23.1348 29.9929 23.2083 30.0816 23.242 30.185C23.3526 30.5311 23.3861 30.9196 23.5641 31.2236C23.8379 31.6913 24.2259 32.0909 24.5293 32.5435C24.8036 32.9541 25.0429 33.388 25.272 33.8256C25.581 34.4144 25.8394 35.0314 26.1683 35.6076C26.4114 36.0351 26.7892 36.3891 26.9939 36.8316C27.0947 37.049 27.4259 37.2987 27.0419 37.6764C27.1507 37.691 27.2904 37.6712 27.3218 37.7192C27.585 38.1258 28.123 38.3645 28.0854 38.9603C28.0792 39.0568 28.211 39.1521 28.3013 39.227C28.4334 39.3356 28.5842 39.4251 28.7679 39.5503C28.5856 39.6142 28.4815 39.6506 28.3019 39.7129C28.4538 39.8452 28.5387 39.9965 28.6713 40.0201C28.991 40.0761 29.2403 40.2182 29.3137 40.4505C29.4356 40.8375 29.2788 41.2956 29.8037 41.5739C30.1904 41.7781 30.3591 42.3105 30.5531 42.7323C30.9024 43.494 31.0757 44.3563 31.9669 44.928C32.0107 44.564 32.1097 44.257 32.0705 43.9853C31.9435 43.1066 31.7847 42.235 31.5994 41.3734C31.5354 41.0759 31.3976 40.7879 31.2265 40.5387C30.375 39.2956 29.4868 38.0769 28.6428 36.8295C28.0878 36.01 27.5808 35.1597 27.0589 34.3201C26.8716 34.0193 26.7393 33.6807 26.5143 33.4089C25.4293 32.0983 24.6421 30.6126 23.8932 29.1008C23.7743 28.8606 23.5539 28.674 23.3868 28.4576C23.0252 27.9922 22.6482 27.5366 22.3145 27.053C22.1159 26.7649 22.003 26.4213 21.8208 26.1207C21.5741 25.7127 21.2963 25.3238 21.0352 24.9252C20.9258 24.7571 20.8336 24.576 20.7144 24.4146C20.3814 23.9666 19.8693 23.5839 19.7381 23.0691C19.5503 22.3339 18.9186 22.0616 18.3838 21.5216C18.4003 21.6896 18.3882 21.7524 18.4138 21.7944C18.7528 22.371 19.0341 22.9912 19.4566 23.5062C19.8939 24.0405 20.2692 24.5962 20.543 25.2249C20.6365 25.4404 20.8585 25.6169 20.875 25.8407C20.9035 26.229 21.0918 26.4693 21.3923 26.6809C21.692 26.891 21.8125 27.634 21.6552 27.8487C21.8419 28.0238 22.0249 28.1949 22.2079 28.366C22.1761 28.3925 22.1435 28.4197 22.1122 28.447C22.0425 28.3778 21.9719 28.3091 21.9022 28.2399C21.9724 28.441 22.1444 28.5544 22.2666 28.7038C22.4569 28.9367 22.7861 29.1916 22.7456 29.4412C22.6742 29.8882 22.8809 30.1282 23.1574 30.3753C23.0953 30.2357 23.0328 30.0973 22.9707 29.9576L22.9711 29.9604Z" fill="#003C74"/>
</svg>
