<svg viewBox="0 0 20 20" fill="none" xmlns="http://www.w3.org/2000/svg">
<path d="M6.02716 3.00383C6.05601 2.99476 6.08245 2.98676 6.12179 2.97449C6.09447 3.0145 6.07721 3.0401 6.06147 3.06304C6.09163 3.08464 6.11501 3.10144 6.14233 3.12117C6.12507 3.13158 6.11392 3.13851 6.10715 3.14251C6.11851 3.18278 6.12878 3.21852 6.13883 3.25426C6.14124 3.26306 6.14211 3.27986 6.14495 3.28039C6.20964 3.29106 6.21248 3.37053 6.24723 3.41267C6.29771 3.47374 6.31607 3.54282 6.32284 3.62309C6.32393 3.63536 6.33486 3.64683 6.34185 3.65803C6.35562 3.6799 6.36961 3.70123 6.38359 3.72257C6.37966 3.73057 6.37573 3.7383 6.37179 3.7463C6.40719 3.7415 6.44238 3.73644 6.47122 3.7327C6.47122 3.75057 6.46926 3.78071 6.47166 3.81031C6.47603 3.86658 6.4804 3.92312 6.4898 3.97833C6.4933 3.9986 6.51318 4.01406 6.52236 4.0338C6.52848 4.04687 6.53569 4.06874 6.5311 4.0786C6.5051 4.13354 6.54334 4.14208 6.56804 4.15568C6.61305 4.18048 6.67009 4.17995 6.68626 4.25862C6.69085 4.28022 6.71708 4.29516 6.73652 4.31649C6.66375 4.37143 6.74286 4.4053 6.75313 4.45144C6.75794 4.47331 6.77455 4.50158 6.76865 4.51518C6.74964 4.55785 6.76187 4.57865 6.78985 4.60319C6.81476 4.62506 6.83596 4.65413 6.85519 4.68346C6.86087 4.692 6.85869 4.7144 6.85388 4.72667C6.83792 4.76614 6.83989 4.80134 6.87595 4.81521C6.94064 4.83975 6.93954 4.91202 6.95331 4.97016C6.95724 4.98643 6.92949 5.01416 6.91944 5.03097C6.94522 5.03923 6.9909 5.05177 6.99046 5.05417C6.98106 5.11711 7.09121 5.15284 7.018 5.22805C7.01428 5.23179 7.01363 5.24912 7.01647 5.25152C7.02171 5.25605 7.03067 5.25472 7.0381 5.25499C7.05099 5.25525 7.06411 5.25499 7.0829 5.25499C7.07132 5.27152 7.06389 5.28166 7.05427 5.29526C7.12311 5.31099 7.10541 5.3654 7.09077 5.41234C7.11743 5.46541 7.19086 5.44834 7.19107 5.53208C7.19107 5.58089 7.25292 5.62089 7.21446 5.66303C7.2409 5.7041 7.25969 5.74597 7.28789 5.77317C7.31083 5.79504 7.30296 5.85851 7.35126 5.84385C7.35476 5.86225 7.36415 5.88198 7.36088 5.89825C7.34908 5.95879 7.37137 5.95719 7.40458 5.93799C7.4083 6.00093 7.41201 6.06307 7.41573 6.12467C7.44829 6.12814 7.47473 6.13081 7.50773 6.13454C7.49112 6.16174 7.47888 6.18175 7.46468 6.20495C7.48806 6.19695 7.50773 6.19028 7.51888 6.18655C7.5274 6.30256 7.5357 6.4151 7.54423 6.53218C7.54991 6.52685 7.55668 6.52045 7.55952 6.51805C7.58793 6.57245 7.62137 6.62499 7.64344 6.68366C7.65349 6.71033 7.64125 6.74954 7.63841 6.79327C7.65196 6.78021 7.66464 6.76794 7.67928 6.7538C7.67928 6.85008 7.71949 6.91702 7.76495 6.95142C7.78439 7.01223 7.79073 7.0597 7.81215 7.09224C7.8458 7.14291 7.8976 7.17705 7.9271 7.23012C7.95026 7.27199 7.9507 7.33226 7.96228 7.38373C7.96927 7.41467 7.97408 7.44801 7.98763 7.47441C8.01101 7.52001 8.03833 7.56348 8.06805 7.60322C8.084 7.62456 8.1087 7.63629 8.13842 7.65923C8.12946 7.69496 8.117 7.73897 8.10782 7.78377C8.09515 7.84538 8.14891 7.91045 8.20354 7.91525C8.22146 7.91685 8.24856 7.94939 8.25206 7.97206C8.25949 8.02193 8.25424 8.07447 8.25424 8.107C8.27151 8.14408 8.2844 8.16674 8.29314 8.19128C8.30997 8.23955 8.32308 8.23928 8.35564 8.20115C8.36569 8.18941 8.39257 8.19928 8.41159 8.19928C8.41181 8.20701 8.41224 8.21448 8.41246 8.22222C8.39236 8.22835 8.37203 8.23422 8.34122 8.24355C8.36679 8.30036 8.39083 8.3529 8.41377 8.40597C8.43584 8.45717 8.4566 8.50918 8.4778 8.56092C8.47955 8.56545 8.53156 8.67399 8.53375 8.682C8.54336 8.71587 8.54992 8.7508 8.56085 8.78387C8.56806 8.80574 8.5803 8.82521 8.59275 8.85055C8.57636 8.87295 8.58248 8.92949 8.61985 8.94069C8.65088 8.95002 8.64192 8.96202 8.63995 8.98736C8.63471 9.05563 8.69721 9.07483 8.71513 9.12871C8.72365 9.15404 8.74726 9.17111 8.75818 9.19591C8.78047 9.24632 8.79511 9.30499 8.85259 9.28046C8.88646 9.373 8.93585 9.46261 8.83095 9.52848C8.90023 9.58208 8.91531 9.64929 8.87903 9.7333C8.88974 9.74183 8.91006 9.74983 8.9105 9.75917C8.91509 9.88798 9.02086 9.91412 9.07003 9.99679C9.08402 10.0203 9.09582 10.0459 9.09844 10.0803C9.11374 10.0909 9.12881 10.1019 9.14848 10.1155C9.05954 10.1715 9.14914 10.2416 9.12685 10.3118C9.14652 10.3032 9.15832 10.2979 9.17383 10.2912C9.14258 10.3539 9.18848 10.3515 9.21645 10.3664C9.20181 10.4083 9.18869 10.4502 9.24267 10.4638C9.22672 10.4803 9.21404 10.4934 9.20115 10.5067C9.20333 10.5123 9.2053 10.5179 9.20749 10.5235C9.22431 10.5147 9.24114 10.5062 9.26256 10.4952C9.2713 10.5027 9.28616 10.5155 9.30452 10.5315C9.26212 10.5675 9.28397 10.603 9.29774 10.6521C9.31828 10.7246 9.38712 10.7689 9.37488 10.8609C9.3727 10.8777 9.40264 10.9009 9.41422 10.9166C9.40526 10.9262 9.39018 10.942 9.37532 10.958C9.3939 10.9758 9.41269 10.994 9.4328 11.0132C9.42362 11.0407 9.43986 11.061 9.48153 11.074V11.1257H9.54578C9.52895 11.1718 9.4942 11.2132 9.54927 11.2481C9.55321 11.2508 9.55561 11.2607 9.55605 11.2676C9.55911 11.3417 9.60303 11.3887 9.63101 11.4468C9.64609 11.478 9.63363 11.5289 9.63363 11.578C9.68433 11.5927 9.70509 11.6442 9.73415 11.7058C9.76169 11.7636 9.79818 11.8191 9.80911 11.885C9.8196 11.9485 9.81545 12.0135 9.87205 12.0511C9.87861 12.0554 9.87402 12.0941 9.86855 12.1141C9.84014 12.2186 9.88319 12.3096 9.97214 12.3293C9.97738 12.3557 9.94263 12.4141 10.0067 12.3936C9.99945 12.4976 10.1068 12.576 10.0589 12.6731C10.0856 12.7664 10.1133 12.8459 10.1306 12.9288C10.1424 12.9856 10.1476 13.0384 10.2025 13.0592C10.2311 13.0702 10.2584 13.2104 10.2405 13.2555C10.3273 13.2806 10.2997 13.3899 10.3384 13.4537C10.345 13.4643 10.3452 13.4811 10.3522 13.4907C10.4232 13.5873 10.4291 13.7014 10.4131 13.8254C10.4306 13.834 10.4481 13.8425 10.4595 13.8481C10.4641 13.8905 10.4579 13.9495 10.4743 13.9612C10.5351 14.0047 10.5303 14.0796 10.5504 14.1431C10.5644 14.1871 10.5904 14.226 10.6017 14.2706C10.6151 14.322 10.6157 14.3796 10.6881 14.3868C10.584 14.5079 10.6839 14.5548 10.7265 14.6213C10.7335 14.6103 10.7412 14.5989 10.7486 14.5871C10.7492 14.6023 10.7532 14.6183 10.7501 14.6322C10.7307 14.7231 10.73 14.7231 10.8251 14.7597C10.8214 14.8397 10.8174 14.924 10.8133 15.0117C10.8795 15.0018 10.9315 15.0426 10.9625 15.1346C10.9739 15.1282 10.989 15.1194 11.0115 15.1066C10.9752 15.157 10.9898 15.1968 11.0086 15.2445C11.0357 15.3139 11.0451 15.3936 11.0731 15.4621C11.0926 15.5099 11.0849 15.5749 11.1496 15.6006C11.2147 15.6262 11.2162 15.7187 11.2331 15.7926C11.2436 15.8379 11.2726 15.8803 11.3008 15.915C11.3244 15.9441 11.3627 15.951 11.3565 16.0118C11.3544 16.0337 11.3852 16.0641 11.4048 16.0846C11.4204 16.1009 11.4422 16.1083 11.4665 16.1227C11.4527 16.1361 11.4433 16.1454 11.4422 16.1465C11.4944 16.2377 11.5449 16.3262 11.5978 16.4185C11.6367 16.3937 11.6666 16.3964 11.6632 16.4612C11.6588 16.5398 11.7112 16.5884 11.73 16.6553C11.7468 16.7153 11.7785 16.77 11.8091 16.8225C11.8216 16.8441 11.8476 16.8545 11.8681 16.8687C11.8793 16.8764 11.895 16.8777 11.9029 16.8887C11.9385 16.9378 11.9376 16.9386 11.9914 16.949C12.0062 16.9532 12.0213 16.9575 12.0362 16.962C12.0657 16.9708 12.0952 16.981 12.1251 16.9884C12.1332 16.9906 12.1487 16.9884 12.1507 16.9831C12.1673 16.934 12.2117 16.9434 12.2359 16.9202C12.2632 16.894 12.2831 16.8412 12.2877 16.7969C12.3004 16.6785 12.3013 16.5585 12.3107 16.4396C12.3148 16.3884 12.3299 16.3385 12.3371 16.2876C12.3465 16.2227 12.3533 16.1574 12.3603 16.0921C12.3611 16.0846 12.3594 16.0742 12.3555 16.0686C12.3251 16.0259 12.2984 15.9889 12.3281 15.923C12.3408 15.895 12.3207 15.8454 12.3168 15.8056C12.3153 15.7907 12.3177 15.7752 12.3181 15.7598C12.3111 15.7622 12.3006 15.7656 12.2818 15.7718C12.2844 15.704 12.2877 15.6411 12.289 15.5784C12.2901 15.5205 12.2893 15.4624 12.2893 15.3957C12.2836 15.3869 12.253 15.3547 12.2573 15.344C12.2799 15.2893 12.241 15.2688 12.2272 15.2333C12.2123 15.1949 12.1979 15.1506 12.1992 15.1098C12.2021 15.0242 12.1382 14.9397 12.1968 14.8514C12.2045 14.8399 12.1905 14.7847 12.1809 14.7823C12.1219 14.7671 12.1229 14.6951 12.0928 14.6543C12.0814 14.6389 12.074 14.6183 12.067 14.5989C12.0613 14.5826 12.0574 14.565 12.055 14.5474C12.0465 14.485 12.0392 14.4223 12.0314 14.3594C12.0432 14.3556 12.0554 14.3516 12.0788 14.3444C12.0611 14.3316 12.0489 14.3175 12.0445 14.3204C11.9861 14.3586 11.9805 14.2916 11.9549 14.2591C11.9236 14.2193 11.9529 14.2017 11.9671 14.1753C11.9881 14.1369 11.9641 14.0903 11.9136 14.0692C11.9081 14.0321 11.8965 13.9943 11.8989 13.9575C11.9014 13.9207 11.918 13.8854 11.9282 13.8497C11.8985 13.8137 11.8415 13.8209 11.8456 13.7385C11.8469 13.7118 11.7801 13.6801 11.7366 13.6441C11.7385 13.6342 11.7438 13.6073 11.7506 13.5734C11.7047 13.5844 11.687 13.571 11.7082 13.5105C11.7178 13.4833 11.7211 13.4355 11.6699 13.4355C11.678 13.4158 11.6854 13.3974 11.6944 13.3761C11.6878 13.3702 11.6822 13.3641 11.6758 13.3598C11.645 13.339 11.607 13.3243 11.6262 13.2646C11.6269 13.2625 11.6275 13.259 11.6267 13.2574C11.5858 13.1784 11.5469 13.0979 11.5021 13.0224C11.4912 13.0043 11.4601 13.0038 11.4461 12.9894C11.4175 12.9536 11.3889 12.9176 11.3576 12.8787C11.3616 12.8667 11.383 12.8336 11.3769 12.8125C11.3712 12.7928 11.3362 12.7856 11.3159 12.7741C11.3227 12.7509 11.3428 12.7168 11.3369 12.6917C11.3308 12.6656 11.2995 12.6483 11.2792 12.6269C11.263 12.6099 11.2468 12.5925 11.2285 12.5728C11.2394 12.5554 11.2484 12.5416 11.2595 12.524C11.1944 12.5157 11.2195 12.377 11.1301 12.3992C11.143 12.3866 11.1562 12.3744 11.1806 12.3509H11.0526C11.0648 12.2717 11.0742 12.1967 11.022 12.1367C11.0121 12.1253 11.0012 12.1149 10.992 12.1029C10.9829 12.0909 10.9735 12.0783 10.9669 12.0642C10.9527 12.0343 10.94 12.0031 10.9195 11.9554C10.9155 11.9437 10.9118 11.9063 10.8946 11.8863C10.8644 11.8511 10.8257 11.8268 10.791 11.7972C10.7831 11.7906 10.7742 11.7836 10.7693 11.774C10.7261 11.6858 10.6909 11.5919 10.6262 11.5199C10.6127 11.5049 10.6242 11.4564 10.6242 11.4121C10.6293 11.4193 10.6271 11.4129 10.6242 11.4127C10.5268 11.3988 10.5095 11.3785 10.4964 11.2599C10.4888 11.1902 10.44 11.1494 10.3782 11.1396C10.3544 11.1358 10.3224 11.098 10.3159 11.0686C10.3065 11.026 10.3205 10.9764 10.3168 10.9308C10.3152 10.9129 10.2949 10.8929 10.2794 10.8819C10.2558 10.8651 10.2254 10.8611 10.2038 10.8419C10.1529 10.7966 10.105 10.7465 10.0574 10.6961C10.048 10.6862 10.0453 10.667 10.0458 10.6489C9.97301 10.5729 9.93302 10.4814 9.96995 10.4264C9.94395 10.4174 9.92034 10.4147 9.90177 10.4016C9.86396 10.3752 9.81851 10.3518 9.79491 10.311C9.76825 10.2648 9.76234 10.2008 9.74727 10.1448C9.74399 10.1325 9.74158 10.1176 9.73437 10.1099C9.67253 10.0437 9.60434 9.98479 9.54949 9.91092C9.52458 9.87731 9.51824 9.81518 9.51759 9.76557C9.51693 9.72797 9.50163 9.70103 9.49661 9.67303C9.48197 9.59062 9.38078 9.57115 9.40176 9.46421C9.40395 9.45301 9.35675 9.37273 9.3043 9.41033C9.28004 9.35246 9.25731 9.29859 9.23087 9.23565C9.2501 9.17111 9.23786 9.15351 9.15963 9.14711C9.16728 9.12711 9.18607 9.1023 9.18192 9.0863C9.14324 8.93535 9.13078 8.92362 9.01693 8.91535C9.10805 8.85295 9.02151 8.76254 9.03856 8.67719C8.9883 8.62199 8.96907 8.49558 8.85565 8.48358C8.86657 8.42624 8.88362 8.3633 8.88821 8.29876C8.88996 8.27582 8.8633 8.24755 8.84603 8.22568C8.82571 8.20008 8.79992 8.18195 8.81893 8.13661C8.82352 8.12567 8.81194 8.09607 8.80101 8.0854C8.75993 8.0454 8.71994 8.01206 8.749 7.93232C8.75884 7.90512 8.74398 7.86271 8.73655 7.82858C8.72518 7.77711 8.71207 7.7259 8.69612 7.6763C8.69087 7.66056 8.67536 7.64243 8.66224 7.63922C8.62815 7.63122 8.61745 7.60615 8.62619 7.57175C8.64301 7.50428 8.61679 7.41254 8.67842 7.39333C8.68628 7.33546 8.69437 7.29492 8.69656 7.25385C8.69787 7.22825 8.69306 7.20078 8.68607 7.17598C8.6747 7.13544 8.66137 7.09837 8.70901 7.07704C8.71688 7.0733 8.72278 7.0461 8.72125 7.0309C8.71535 6.97036 8.70595 6.91062 8.69568 6.83354C8.77151 6.87088 8.80385 6.80928 8.85237 6.76981C8.9105 6.7226 8.9188 6.673 8.91574 6.59592C8.96338 6.58259 9.01212 6.56899 9.06063 6.55565C9.06107 6.56045 9.06129 6.56498 9.06172 6.56979C9.09975 6.54312 9.13756 6.51645 9.18126 6.48578C9.18629 6.47751 9.19896 6.43937 9.20967 6.44017C9.26212 6.44444 9.31566 6.45324 9.36592 6.47191C9.41247 6.48898 9.4529 6.50711 9.50142 6.47218C9.52327 6.45644 9.55889 6.46951 9.58533 6.46951C9.58708 6.44017 9.58905 6.4079 9.59101 6.37323C9.60806 6.37777 9.61243 6.3775 9.61527 6.37963C9.66444 6.42017 9.67318 6.44364 9.67012 6.51485C9.7088 6.53165 9.7595 6.53458 9.77873 6.56605C9.82572 6.64206 9.86527 6.58899 9.89609 6.57752C9.93958 6.63619 9.9717 6.7042 10.0198 6.7378C10.079 6.77914 10.1251 6.85008 10.202 6.85995C10.2248 6.86288 10.2444 6.91942 10.2619 6.95409C10.2696 6.96902 10.268 6.99116 10.2807 6.99543C10.3021 7.00956 10.3238 7.02343 10.345 7.03836C10.3517 7.04317 10.3581 7.05677 10.3631 7.0557C10.4477 7.03516 10.4485 7.12984 10.4826 7.18025C10.4971 7.20158 10.525 7.20905 10.5454 7.22532C10.5596 7.23678 10.5716 7.25252 10.5941 7.27626C10.6345 7.29679 10.6924 7.31839 10.7427 7.35546C10.761 7.36906 10.7562 7.4232 10.7715 7.45067C10.7881 7.48001 10.8161 7.50001 10.8432 7.51228C10.8552 7.55362 10.8675 7.59495 10.8795 7.63602C10.8854 7.65629 10.8867 7.6835 10.8983 7.6955C10.9171 7.71523 10.9426 7.7363 10.9658 7.73737C11.0731 7.7427 11.0729 7.7403 11.0838 7.86725C11.0851 7.88245 11.0908 7.89818 11.0971 7.91178C11.1133 7.94672 11.1271 7.98513 11.1496 8.0134C11.1653 8.03313 11.1946 8.0502 11.216 8.04753C11.2816 8.03926 11.2958 8.10647 11.3048 8.15021C11.3152 8.20221 11.3292 8.21475 11.3502 8.20755C11.4055 8.29182 11.4601 8.36356 11.5032 8.44437C11.5545 8.54118 11.6487 8.60812 11.6468 8.74574C11.6465 8.76734 11.6793 8.78947 11.6968 8.81108C11.7119 8.82974 11.7329 8.84548 11.7409 8.86788C11.7573 8.91295 11.7661 8.96229 11.7794 9.00896C11.7823 9.0191 11.7923 9.0351 11.7975 9.0343C11.8448 9.02683 11.8476 9.08444 11.8448 9.10417C11.8345 9.17644 11.864 9.18925 11.9197 9.18418C11.9035 9.20178 11.8941 9.21191 11.8821 9.22498C11.9431 9.25885 11.8858 9.28499 11.8729 9.32419C11.918 9.31299 11.9462 9.31859 11.9518 9.3778C11.9536 9.39567 11.9853 9.40953 11.9971 9.41967C12.0172 9.45967 12.0294 9.49728 12.0508 9.52341C12.0976 9.58048 12.0945 9.65676 12.1079 9.7253C12.1267 9.82238 12.1347 9.83358 12.2139 9.81144C12.2193 9.80984 12.2254 9.81224 12.2361 9.81331C12.2573 9.87625 12.279 9.94105 12.3035 10.0141C12.333 10.0285 12.3769 10.0421 12.4127 10.0709C12.4357 10.0893 12.461 10.1139 12.4536 10.1675C12.442 10.2504 12.4768 10.2904 12.5644 10.3243C12.5644 10.36 12.557 10.3987 12.567 10.4288C12.5733 10.448 12.6057 10.4544 12.6339 10.471C12.6511 10.508 12.6712 10.5646 12.701 10.6123C12.7274 10.6547 12.7643 10.6873 12.7967 10.7241C12.7993 10.727 12.8048 10.7286 12.8052 10.7315C12.8188 10.8502 12.9335 10.9051 12.9337 11.0345C12.9337 11.0508 12.9652 11.067 12.9818 11.083C12.9776 11.0921 12.9693 11.11 12.9593 11.1318C13.0347 11.1228 13.0998 11.1889 13.0919 11.2751C13.0832 11.3689 13.1055 11.4292 13.1791 11.458C13.2235 11.4756 13.2447 11.5073 13.2381 11.5676C13.2357 11.5892 13.2423 11.6202 13.2545 11.6338C13.2661 11.6466 13.2906 11.6423 13.3137 11.646C13.324 11.6652 13.3397 11.6948 13.357 11.7274C13.3325 11.7847 13.3531 11.8498 13.3961 11.8359C13.4258 11.8263 13.4532 11.8063 13.4953 11.7834C13.4914 11.8207 13.4846 11.8426 13.4881 11.8618C13.4921 11.8834 13.5054 11.9023 13.5141 11.9226C13.5181 11.9317 13.5248 11.9415 13.5242 11.9503C13.5209 11.9879 13.5152 12.025 13.5106 12.0605H13.6099C13.5552 12.0941 13.5423 12.1399 13.5613 12.1946C13.5683 12.2146 13.5834 12.2389 13.5989 12.2445C13.6944 12.28 13.7272 12.3642 13.6815 12.4858C13.7364 12.5296 13.7923 12.5744 13.8424 12.6144C13.8522 12.5733 13.8636 12.5466 13.864 12.52C13.8649 12.4597 13.8647 12.3984 13.8555 12.3397C13.8518 12.317 13.8419 12.3056 13.8526 12.277C13.8603 12.2565 13.8369 12.2186 13.8273 12.1882C13.8376 12.185 13.8518 12.1805 13.8662 12.1762C13.8605 12.1567 13.8592 12.1271 13.8481 12.1199C13.798 12.0869 13.7965 12.0421 13.8089 11.9813C13.8181 11.9367 13.8067 11.886 13.8144 11.8407C13.8205 11.805 13.8415 11.7732 13.8566 11.7383C13.8015 11.693 13.7777 11.5999 13.7827 11.5071C13.7853 11.4593 13.7801 11.4175 13.8179 11.3892C13.8094 11.3751 13.8033 11.3548 13.7919 11.3479C13.7652 11.3316 13.7324 11.3257 13.7617 11.2745C13.7694 11.2612 13.7705 11.238 13.7683 11.2206C13.756 11.1313 13.762 11.0246 13.7226 10.9585C13.6817 10.8897 13.7073 10.8222 13.6866 10.7571C13.6734 10.7155 13.7102 10.6502 13.7279 10.5825C13.7287 10.5841 13.7158 10.5697 13.7128 10.5523C13.6986 10.4731 13.6606 10.4032 13.6704 10.3128C13.675 10.2718 13.6225 10.2256 13.616 10.1779C13.6059 10.1053 13.6133 10.0293 13.6133 9.95652C13.6042 9.90238 13.5965 9.84584 13.5845 9.79064C13.576 9.75117 13.5616 9.71383 13.5498 9.67569C13.5491 9.67383 13.546 9.67276 13.5456 9.67089C13.5262 9.58822 13.506 9.50554 13.4877 9.4226C13.4816 9.39487 13.4822 9.36473 13.4752 9.33753C13.4348 9.17538 13.3928 9.01376 13.3522 8.85161C13.3443 8.82014 13.3408 8.78734 13.3271 8.7564C13.3306 8.70146 13.333 8.65719 13.2654 8.66466C13.2515 8.66626 13.2351 8.63159 13.2213 8.61532C13.2436 8.58039 13.265 8.54705 13.2954 8.49958C13.2591 8.47771 13.2257 8.45744 13.201 8.4425C13.1964 8.44517 13.2077 8.4385 13.2268 8.42757C13.18 8.40517 13.154 8.39263 13.1192 8.37583C13.1662 8.31983 13.1892 8.27556 13.1481 8.21048C13.1359 8.19101 13.1162 8.12621 13.1741 8.09927C13.1009 8.11207 13.1 7.99553 13.0336 7.99179C13.0251 7.99126 13.0069 7.94486 13.0124 7.93045C13.0404 7.85631 12.9892 7.81124 12.9741 7.75364C12.9674 7.72803 12.9497 7.70617 12.9451 7.6803C12.9263 7.57735 12.9416 7.46347 12.8758 7.3752C12.8688 7.3656 12.8771 7.33893 12.8782 7.32026C12.8808 7.27812 12.8782 7.24265 12.8297 7.25199C12.8231 7.25332 12.8105 7.23412 12.8063 7.22158C12.7847 7.15891 12.7602 7.09677 12.7462 7.0317C12.7403 7.00396 12.7571 6.96902 12.7646 6.93329C12.7329 6.91702 12.6953 6.89808 12.6647 6.88235C12.6411 6.81621 12.701 6.7418 12.6389 6.68633C12.7021 6.64046 12.6599 6.57112 12.6645 6.51218C12.6525 6.51645 12.6417 6.51991 12.631 6.52365C12.6308 6.50738 12.628 6.49031 12.6306 6.47484C12.642 6.40444 12.661 6.3351 12.6638 6.26442C12.6647 6.24335 12.6225 6.21962 12.5985 6.19535C12.6155 6.10414 12.64 6.08974 12.7359 6.11881C12.7641 5.97799 12.7683 5.97266 12.8356 6.01533C12.8284 5.98813 12.8282 5.96653 12.8196 5.95906C12.786 5.92999 12.7989 5.91452 12.8266 5.89719C12.843 5.88705 12.8577 5.87265 12.8751 5.85851C12.9053 5.88945 12.9278 5.88865 12.9724 5.85451C12.9857 5.84438 13.0056 5.83665 13.0198 5.84091C13.0841 5.86011 13.1293 5.74837 13.1986 5.80384C13.2051 5.80918 13.2206 5.79397 13.2311 5.79584C13.253 5.79984 13.2871 5.80118 13.2936 5.81718C13.3282 5.90279 13.3983 5.90679 13.4584 5.93879C13.4665 6.02146 13.6112 6.24042 13.6879 6.26736C13.6665 6.28309 13.6514 6.29429 13.6324 6.30843C13.6822 6.3383 13.7228 6.36283 13.7582 6.38417C13.7582 6.4223 13.7619 6.45911 13.7574 6.49431C13.7508 6.54445 13.7779 6.55618 13.8024 6.58499C13.8448 6.63512 13.9092 6.67193 13.9108 6.7626C13.911 6.77781 13.9202 6.79541 13.9291 6.80714C13.9982 6.89675 14.0672 6.98663 14.1389 7.07357C14.1551 7.09304 14.1807 7.10077 14.2126 7.12051C14.1848 7.13384 14.1678 7.14184 14.1474 7.15144C14.1745 7.20478 14.2003 7.25865 14.2292 7.31039C14.2484 7.34506 14.2598 7.3976 14.314 7.34906C14.3306 7.33413 14.3878 7.35893 14.4092 7.38587C14.4449 7.43094 14.4626 7.49601 14.4956 7.54535C14.5106 7.56802 14.5441 7.57255 14.5782 7.58989V7.61869C14.6029 7.63922 14.6241 7.65656 14.6531 7.68056C14.6647 7.66563 14.6809 7.64456 14.7049 7.61389C14.6936 7.66136 14.6844 7.69843 14.6724 7.74804C14.6955 7.74297 14.7163 7.73817 14.748 7.73123C14.7336 7.75337 14.725 7.76617 14.7137 7.78377C14.7443 7.78777 14.7718 7.79871 14.7967 7.79311C14.8607 7.77844 14.8909 7.82964 14.9062 7.88485C14.9285 7.96592 14.9899 7.96966 15.0364 7.99899C15.0716 8.0214 15.1164 8.01793 15.1372 8.07367C15.1402 8.08194 15.1715 8.07474 15.201 8.07474C15.2187 8.08674 15.248 8.10647 15.2801 8.12807C15.2821 8.11261 15.284 8.09874 15.2858 8.0846C15.3065 8.20835 15.4023 8.12221 15.4368 8.18195C15.4486 8.20275 15.4582 8.22702 15.4735 8.24275C15.4779 8.24729 15.4989 8.22728 15.5209 8.21342C15.5533 8.25102 15.5893 8.29636 15.6289 8.33663C15.6385 8.34649 15.6595 8.34116 15.6752 8.33983C15.6979 8.33796 15.7205 8.33316 15.7458 8.32943C15.7497 8.34356 15.7539 8.3585 15.7543 8.3593C15.7948 8.3729 15.8273 8.39103 15.8607 8.3929C15.8977 8.39503 15.9219 8.40437 15.9514 8.43797C15.9794 8.46971 16.0316 8.46757 16.0719 8.48544C16.1121 8.50331 16.1505 8.52731 16.1896 8.54865C16.191 8.55745 16.192 8.56598 16.1934 8.57479C16.2025 8.55985 16.2117 8.54492 16.2181 8.53478C16.2779 8.55238 16.326 8.61746 16.4025 8.56812C16.4681 8.52571 16.5395 8.57238 16.6084 8.58705C16.6293 8.59159 16.6527 8.57905 16.675 8.57612C16.7093 8.57158 16.7454 8.54812 16.7685 8.60972C16.7744 8.62572 16.8212 8.63452 16.84 8.62359C16.8649 8.60919 16.9147 8.63719 16.9171 8.56892C16.9171 8.56545 16.9694 8.56465 17.0028 8.56225V8.50331L17.0094 8.50144C17.0157 8.52625 17.022 8.55105 17.029 8.57905C17.0867 8.57132 17.1431 8.56358 17.2091 8.55452C17.2259 8.53158 17.25 8.48998 17.281 8.45904C17.3297 8.4105 17.3549 8.51291 17.4043 8.48704C17.4331 8.41957 17.4869 8.39157 17.5544 8.39983C17.5859 8.40357 17.6189 8.38677 17.6613 8.3769C17.6468 8.3617 17.6401 8.35423 17.6392 8.35343C17.6466 8.33156 17.6538 8.31076 17.6665 8.27342C17.6726 8.27635 17.6938 8.28676 17.7006 8.29022C17.8147 8.28569 17.8977 8.17154 18 8.21022C18.0491 8.16754 18.0929 8.13181 18.1342 8.0926C18.1606 8.06753 18.1814 8.03206 18.2096 8.01073C18.2342 7.99233 18.2692 7.97152 18.2932 7.97953C18.3398 7.99526 18.3686 7.96966 18.4019 7.94272C18.415 7.93205 18.4314 7.92725 18.4578 7.91365C18.4652 7.87178 18.5024 7.85871 18.5487 7.85311C18.5929 7.84778 18.6396 7.83978 18.6779 7.81551C18.7021 7.80004 18.7128 7.7531 18.7273 7.72537C18.7756 7.73363 18.8212 7.74137 18.8724 7.75017C18.8739 7.67256 18.9108 7.66856 18.9552 7.67496C18.9674 7.67683 18.9843 7.67229 18.9932 7.66269C19.0363 7.61656 19.1189 7.60802 19.1805 7.65469C19.2078 7.61442 19.2334 7.56908 19.2657 7.53255C19.2791 7.51761 19.3072 7.51681 19.3282 7.51815C19.3632 7.52028 19.3979 7.53628 19.4325 7.53415C19.4829 7.53095 19.5339 7.52081 19.5833 7.50695C19.6536 7.48694 19.7225 7.45814 19.7933 7.43947C19.8105 7.43494 19.833 7.45281 19.8514 7.46507C19.8826 7.48561 19.9115 7.51175 19.9427 7.53201C19.9633 7.54535 19.9633 7.54855 19.9635 7.57789C19.9637 7.60776 19.9731 7.63736 19.9786 7.66723C19.9858 7.6699 19.9928 7.67229 20 7.67496C19.9731 7.71016 19.9465 7.74537 19.9196 7.78031C19.92 7.78084 19.9207 7.78111 19.9211 7.78164C19.8951 7.82138 19.8728 7.86645 19.8418 7.89898C19.8129 7.92912 19.776 7.94539 19.797 8.00593C19.8014 8.0182 19.7963 8.04433 19.788 8.05233C19.7535 8.08647 19.738 8.13101 19.7211 8.18008C19.7063 8.22328 19.6691 8.25475 19.6418 8.29156C19.6141 8.32889 19.5894 8.3705 19.5579 8.40197C19.5406 8.41904 19.5105 8.41504 19.4888 8.42784C19.4176 8.46971 19.3837 8.54998 19.3413 8.62706C19.2981 8.70546 19.2242 8.75907 19.1639 8.82361C19.0832 8.77134 19.0483 8.88388 18.9853 8.89962C18.9698 8.90335 18.9607 8.94495 18.9515 8.96336C18.8905 9.01029 18.8346 9.06737 18.7703 9.09937C18.6901 9.13937 18.6038 9.16151 18.5188 9.18525C18.4792 9.19645 18.4598 9.21272 18.4773 9.26739C18.3981 9.29406 18.3415 9.38793 18.2465 9.36793C18.2196 9.36233 18.1859 9.38313 18.1595 9.401C18.1425 9.41273 18.1328 9.441 18.12 9.46207C18.1245 9.46661 18.1291 9.47087 18.1337 9.47541C18.0537 9.50074 17.9727 9.52208 17.8942 9.55355C17.8592 9.56768 17.8297 9.60209 17.7976 9.62742C17.7913 9.63249 17.7838 9.64369 17.7788 9.64209C17.6977 9.61942 17.6433 9.69943 17.5741 9.72263C17.5306 9.73703 17.5067 9.73677 17.4845 9.6901C17.4788 9.67836 17.4661 9.67143 17.4567 9.66209C17.4506 9.67543 17.4375 9.6909 17.4399 9.70156C17.4545 9.77197 17.423 9.77944 17.3787 9.77464C17.3573 9.77224 17.3352 9.7693 17.3142 9.77384C17.2889 9.77917 17.2646 9.79171 17.2397 9.80104C17.2397 9.80771 17.2399 9.81464 17.2401 9.82131C17.215 9.80104 17.1907 9.77837 17.1641 9.76104C17.1414 9.7461 17.1208 9.80024 17.095 9.7685C17.076 9.79357 17.057 9.81864 17.0369 9.84504C17.0135 9.83624 17.0004 9.81224 16.9574 9.82318C16.8747 9.84451 16.7747 9.87011 16.7034 9.7645C16.6811 9.7317 16.6346 9.74503 16.6132 9.78851C16.5911 9.83304 16.573 9.86505 16.5168 9.84798C16.4746 9.83491 16.4294 9.84344 16.3938 9.80024C16.3898 9.79544 16.3675 9.81251 16.3544 9.81917C16.3028 9.7325 16.2215 9.71143 16.1374 9.82851C16.0681 9.77304 16.005 9.69676 15.9298 9.67036C15.864 9.64716 15.7816 9.64076 15.7091 9.68183C15.7041 9.66956 15.6951 9.64822 15.6833 9.61996C15.6872 9.61702 15.6975 9.60902 15.7213 9.59035C15.6949 9.57862 15.677 9.57088 15.6435 9.55622C15.6118 9.48421 15.3684 9.44714 15.3144 9.50128C15.3205 9.437 15.2921 9.43594 15.2515 9.4322C15.2165 9.429 15.1833 9.39727 15.1455 9.37566C15.1435 9.38153 15.137 9.39993 15.1265 9.4306C15.1101 9.39673 15.0978 9.37166 15.0854 9.34606C15.0378 9.3562 14.9768 9.29486 14.9562 9.20551C14.9364 9.22552 14.9191 9.24258 14.9009 9.26072C14.8645 9.21858 14.831 9.17084 14.7904 9.13591C14.7615 9.11137 14.7228 9.1039 14.6885 9.08897C14.678 9.08444 14.6641 9.08417 14.6571 9.07564C14.6269 9.0375 14.5915 9.04896 14.5546 9.04843C14.5362 9.04843 14.517 9.01936 14.5004 9.00069C14.4722 8.96922 14.3983 8.95722 14.3915 8.98896C14.3835 9.02736 14.3878 9.09244 14.4084 9.11244C14.465 9.16711 14.4427 9.21778 14.4269 9.27912C14.4182 9.31352 14.4254 9.35433 14.4254 9.39887C14.4669 9.38153 14.4962 9.37753 14.4984 9.4434C14.5002 9.49888 14.512 9.55435 14.5224 9.60902C14.5299 9.64716 14.5428 9.6837 14.5554 9.72903C14.5659 9.71143 14.5734 9.69943 14.583 9.68316C14.586 9.7205 14.5884 9.7517 14.5915 9.78904C14.5635 9.81304 14.5399 9.84665 14.5565 9.90905C14.5666 9.94719 14.5616 9.99093 14.5653 10.0317C14.5666 10.0475 14.5692 10.0709 14.5777 10.0768C14.663 10.1341 14.6437 10.2443 14.6595 10.3318C14.6711 10.396 14.6499 10.4688 14.647 10.5379C14.6444 10.6054 14.6464 10.6731 14.6464 10.7457C14.6549 10.7483 14.6673 10.7523 14.6842 10.7579C14.6809 10.7878 14.6776 10.8179 14.6748 10.8457C14.6842 10.8545 14.7043 10.8675 14.703 10.8731C14.696 10.9025 14.6835 10.9302 14.6678 10.9726C14.6745 10.9836 14.6863 11.0169 14.7069 11.0334C14.7545 11.071 14.7336 11.1177 14.7263 11.1636C14.7239 11.179 14.7121 11.198 14.7163 11.2081C14.7508 11.2921 14.7451 11.3783 14.734 11.4668C14.7318 11.4839 14.7497 11.5036 14.755 11.5236C14.7574 11.5332 14.7515 11.546 14.7488 11.5596C14.7853 11.5636 14.7982 11.5911 14.7853 11.6426C14.7714 11.6983 14.7596 11.7554 14.7521 11.813C14.7502 11.8284 14.7681 11.8474 14.7759 11.8652C14.7853 11.8866 14.7993 11.9074 14.8017 11.9301C14.8142 12.0461 14.8256 12.1623 14.833 12.2789C14.8356 12.3202 14.8262 12.3626 14.8223 12.4045C14.8172 12.4042 14.8122 12.4037 14.8072 12.4034C14.8201 12.4178 14.8332 12.432 14.8494 12.4498C14.8138 12.517 14.7945 12.5875 14.8352 12.6624C14.8384 12.6683 14.8369 12.6856 14.8332 12.6885C14.7687 12.7357 14.8212 12.7816 14.8334 12.828C14.8376 12.844 14.8409 12.86 14.8474 12.888C14.854 12.8909 14.8714 12.8987 14.8887 12.9064C14.885 12.9528 14.8817 12.9958 14.8784 13.0376C14.8229 13.0176 14.8271 13.0336 14.8205 13.1086C14.8127 13.1968 14.8669 13.24 14.8885 13.3182C14.8701 13.311 14.8596 13.3067 14.8454 13.3011C14.8422 13.3726 14.8387 13.4441 14.8356 13.5155C14.8354 13.5227 14.8389 13.5337 14.836 13.5366C14.7694 13.6097 14.8299 13.6908 14.8264 13.7676C14.8238 13.8262 14.8212 13.8769 14.7812 13.9244C14.7523 13.9585 14.7495 14.018 14.7552 14.0743C14.7591 14.1129 14.7565 14.1644 14.7386 14.1921C14.7143 14.2295 14.6741 14.249 14.6555 14.2994C14.6363 14.3511 14.6059 14.3967 14.5773 14.4506C14.562 14.4396 14.5443 14.4271 14.5264 14.4143C14.4986 14.4428 14.4717 14.4703 14.4425 14.5004C14.4287 14.4924 14.4084 14.4807 14.3826 14.4655C14.3758 14.502 14.3701 14.5338 14.3636 14.5698C14.3105 14.589 14.2639 14.5882 14.2399 14.5047C14.2368 14.4938 14.2025 14.4962 14.1826 14.4924C14.1949 14.557 14.1385 14.542 14.1267 14.5692C14.1153 14.5474 14.1057 14.5258 14.0926 14.5076C14.0911 14.5055 14.071 14.5234 14.0585 14.5327C13.9997 14.4687 13.928 14.4508 13.8463 14.4634C13.8286 14.466 13.807 14.4268 13.789 14.409C13.7877 14.4116 13.7797 14.4287 13.7716 14.4458C13.7661 14.4423 13.7606 14.4391 13.7554 14.4356C13.7602 14.4135 13.7652 14.3911 13.7661 14.3866C13.7493 14.3495 13.7427 14.3204 13.7272 14.3039C13.6903 14.2644 13.6529 14.2169 13.6083 14.1985C13.5685 14.182 13.5469 14.1601 13.5436 14.1159C13.5375 14.0367 13.4995 14.0311 13.4431 14.0505C13.4213 13.994 13.3998 13.9388 13.3762 13.8782C13.3137 13.9004 13.3072 13.8201 13.2761 13.7801C13.2578 13.7566 13.2456 13.7262 13.2298 13.6998C13.1911 13.635 13.1529 13.5697 13.1127 13.5062C13.0967 13.4809 13.0755 13.4606 13.0578 13.4366C13.0008 13.3595 12.9427 13.2833 12.8887 13.2035C12.8756 13.1843 12.876 13.1515 12.8692 13.1214C12.8369 13.1267 12.8037 13.1283 12.7729 13.1395C12.7622 13.1435 12.7506 13.1715 12.7508 13.1886C12.7512 13.2793 12.7744 13.3545 12.8494 13.3947C12.8618 13.4014 12.8673 13.4289 12.8745 13.4475C12.8773 13.455 12.8751 13.4721 12.8775 13.4726C12.9267 13.4857 12.9261 13.5419 12.9407 13.583C12.9499 13.6089 12.9503 13.6393 12.9567 13.6809C12.9595 13.6814 12.9783 13.686 12.9921 13.6892C12.9988 13.7345 13.0056 13.778 13.013 13.8278C12.9938 13.8292 12.961 13.831 12.9188 13.8337C12.9352 13.8678 12.944 13.8854 12.9545 13.9073C12.9724 13.8945 12.9886 13.8833 13.0137 13.8654C12.9958 13.9263 13.0729 13.966 13.0148 14.0311C13.079 14.0417 13.0375 14.1583 13.1101 14.1711C13.109 14.1857 13.107 14.2116 13.1042 14.2498C13.1348 14.2396 13.1605 14.2308 13.1855 14.2225C13.178 14.266 13.1221 14.2943 13.1586 14.3551C13.1634 14.3628 13.1332 14.3951 13.1297 14.418C13.1162 14.5084 13.1341 14.5837 13.1953 14.6477C13.2178 14.6711 13.2272 14.7274 13.2252 14.7674C13.2228 14.8173 13.2027 14.8661 13.1887 14.921C13.1922 14.9218 13.2058 14.9256 13.2097 14.9266C13.2139 14.9797 13.2117 15.0272 13.2222 15.0698C13.2392 15.1397 13.2652 15.2066 13.2864 15.2752C13.3074 15.3432 13.3509 15.4163 13.3428 15.4789C13.3236 15.6267 13.364 15.7643 13.3671 15.907C13.3673 15.9214 13.3832 15.9353 13.3968 15.9569C13.3762 15.9769 13.3465 15.9942 13.333 16.0227C13.3194 16.0513 13.3089 16.1011 13.3205 16.1246C13.3507 16.1862 13.3387 16.2451 13.3341 16.3073C13.3303 16.358 13.3057 16.4166 13.3649 16.4513C13.348 16.5185 13.3314 16.5849 13.3148 16.6513L13.3002 16.6489C13.3105 16.6687 13.3207 16.6887 13.3312 16.7084C13.3266 16.7073 13.3218 16.706 13.3172 16.7049C13.2978 16.8327 13.2783 16.9607 13.2587 17.0908C13.2504 17.0946 13.2283 17.0967 13.2189 17.1111C13.2025 17.1364 13.2298 17.309 13.2532 17.3375C13.2012 17.3527 13.2036 17.3933 13.2265 17.4463C13.2029 17.4389 13.1868 17.4335 13.154 17.4231C13.1155 17.5655 13.0775 17.7072 13.0434 17.8336C13.0067 17.8781 12.9774 17.9133 12.9481 17.9493C12.9134 17.9923 12.8749 17.9995 12.8264 17.9629C12.8251 17.9797 12.824 17.9925 12.8229 18.0051C12.7639 17.9893 12.7543 18.0515 12.7342 18.0925C12.7018 18.1589 12.6557 18.2029 12.5974 18.2272C12.5845 18.2325 12.5672 18.2237 12.5524 18.2189C12.5087 18.2048 12.4647 18.1912 12.4219 18.1739C12.4086 18.1685 12.3987 18.1512 12.3813 18.1333C12.3616 18.144 12.3168 18.1283 12.3271 18.2027C12.329 18.2171 12.2879 18.2563 12.2663 18.2566C12.1905 18.2574 12.1227 18.2221 12.0771 18.1717H11.9824C11.9818 18.1736 11.9761 18.1925 11.9704 18.212C11.9016 18.2216 11.8404 18.2123 11.7978 18.1357C11.8083 18.1272 11.8203 18.1176 11.8323 18.1077C11.8323 18.0997 11.8327 18.092 11.833 18.084C11.782 18.0749 11.7302 18.0707 11.6806 18.0555C11.619 18.0365 11.5593 18.0085 11.499 17.9843C11.4829 17.9776 11.4669 17.9701 11.4505 17.9635C11.4225 17.952 11.3898 17.9485 11.3677 17.928C11.326 17.8893 11.2897 17.8421 11.2532 17.796C11.2447 17.7853 11.2429 17.7648 11.2414 17.7485C11.2364 17.696 11.2355 17.6536 11.1743 17.7002C11.1566 17.7138 11.1087 17.672 11.0762 17.652C11.0108 17.6117 11.0464 17.4946 10.9737 17.4519C10.9555 17.4413 10.9584 17.3767 10.9514 17.3354C10.8598 17.297 10.7783 17.1759 10.7761 17.0668C10.711 17.0682 10.7191 16.9201 10.6242 16.9706C10.6177 16.9225 10.612 16.882 10.6048 16.8303C10.5917 16.8415 10.5799 16.8516 10.5635 16.8655C10.5738 16.8233 10.5783 16.7812 10.5554 16.7508C10.5287 16.7153 10.4997 16.6737 10.4647 16.6591C10.4096 16.6359 10.4131 16.5689 10.3836 16.5276C10.3509 16.4814 10.3375 16.4148 10.3146 16.354C10.3238 16.3462 10.3537 16.3342 10.305 16.3036C10.2735 16.2841 10.2462 16.2494 10.2237 16.215C10.1776 16.1441 10.1207 16.0739 10.1728 15.9707C10.1395 15.9681 10.1131 15.9694 10.0877 15.9633C10.0464 15.9531 10.0368 15.9182 10.0462 15.8712C10.0484 15.86 10.0497 15.8451 10.0456 15.836C10.0222 15.7867 9.99967 15.7363 9.9717 15.691C9.94132 15.6416 9.90374 15.6011 9.9127 15.5275C9.91488 15.5096 9.88057 15.4853 9.86112 15.4613C9.86112 15.4235 9.86265 15.3755 9.86025 15.3277C9.85959 15.3149 9.84648 15.3035 9.84036 15.2901C9.82659 15.2605 9.81108 15.2314 9.80146 15.1997C9.78791 15.1554 9.78813 15.101 9.76628 15.0656C9.73831 15.0202 9.72956 14.977 9.7241 14.9224C9.71929 14.8727 9.69591 14.817 9.66663 14.7818C9.63691 14.7461 9.63385 14.7146 9.63494 14.6703C9.63559 14.6394 9.6592 14.5874 9.60347 14.5826C9.59975 14.5823 9.59713 14.5666 9.59385 14.558C9.56807 14.4924 9.55364 14.4124 9.51365 14.365C9.45727 14.2986 9.46011 14.2113 9.42842 14.1399C9.40876 14.0953 9.41466 14.0492 9.39739 14.0063C9.3786 13.9591 9.37641 13.902 9.36702 13.8481C9.36155 13.8521 9.35478 13.8566 9.348 13.8614C9.33948 13.8409 9.32069 13.8174 9.3244 13.8009C9.3397 13.7308 9.28266 13.6905 9.28201 13.6284C9.28201 13.6148 9.27654 13.594 9.26868 13.5894C9.20618 13.5523 9.21404 13.4726 9.19787 13.4107C9.18629 13.3662 9.19569 13.3137 9.19569 13.2577C9.09603 13.1744 9.098 13.0374 9.10084 12.904C8.98764 12.8517 8.90001 12.6315 8.93388 12.5384C8.87794 12.4992 8.8751 12.4808 8.91028 12.3618C8.87029 12.3416 8.83052 12.3213 8.78462 12.2984C8.79468 12.2885 8.8115 12.2714 8.83248 12.2504C8.8233 12.2402 8.81434 12.2253 8.80211 12.2183C8.7702 12.2002 8.74485 12.1839 8.76802 12.1311C8.77523 12.1151 8.76889 12.0861 8.76255 12.0661C8.74223 12.0026 8.71906 11.9407 8.69218 11.8647C8.70049 11.8418 8.69218 11.8034 8.66028 11.7826C8.61657 11.7543 8.57199 11.7103 8.57199 11.6599C8.57199 11.5812 8.53659 11.5914 8.49922 11.59C8.50315 11.5183 8.49529 11.4601 8.4424 11.4103C8.41312 11.3825 8.37509 11.3335 8.39913 11.2671C8.4035 11.2551 8.38951 11.2332 8.38427 11.2161C8.3646 11.2204 8.34668 11.2244 8.31762 11.2305C8.32636 11.1921 8.3327 11.1646 8.33969 11.1342H8.30953C8.31325 11.1249 8.3139 11.119 8.31631 11.1174C8.35936 11.0897 8.36985 11.0417 8.34646 10.9926C8.33335 10.9652 8.3257 10.9337 8.32374 10.9019C8.29686 10.8547 8.26998 10.8078 8.24353 10.7606C8.24047 10.7553 8.24004 10.7459 8.2361 10.7435C8.12225 10.6742 8.13383 10.5502 8.14039 10.4267C8.14082 10.4171 8.1229 10.4051 8.1122 10.396C8.08488 10.3728 8.0427 10.3576 8.03309 10.3267C8.02019 10.2854 8.03221 10.2323 8.03549 10.1845C8.03571 10.1813 8.05254 10.1795 8.06871 10.1752C8.01779 10.1277 8.0167 10.0288 7.93038 10.028C7.90197 10.028 7.87378 9.98346 7.91377 9.93385H7.86569C7.85913 9.92559 7.85258 9.91732 7.84602 9.90905C7.85804 9.89385 7.86984 9.87865 7.88186 9.86345C7.88601 9.87278 7.89017 9.88212 7.89432 9.89145C7.87618 9.83358 7.85826 9.77544 7.84034 9.71837C7.84034 9.71837 7.8316 9.7285 7.82198 9.7397C7.81652 9.73117 7.80909 9.7229 7.81018 9.72077C7.86722 9.60555 7.76582 9.59435 7.72998 9.54155C7.71862 9.52475 7.67622 9.44687 7.68343 9.42794C7.70572 9.37006 7.68037 9.34339 7.64038 9.32606C7.64737 9.26525 7.65633 9.21458 7.61809 9.15618C7.58094 9.09964 7.57832 9.01083 7.54641 8.94655C7.51319 8.87935 7.46577 8.82148 7.41922 8.76627C7.40939 8.75454 7.37596 8.77267 7.35039 8.7652C7.37049 8.7572 7.39191 8.75214 7.41048 8.74013C7.42753 8.7292 7.44152 8.71053 7.46249 8.68973C7.41354 8.66813 7.37617 8.65159 7.35585 8.64279C7.33378 8.59479 7.31782 8.56038 7.31061 8.54465C7.30231 8.48598 7.30318 8.4393 7.28832 8.40197C7.26997 8.35663 7.26428 8.3601 7.28352 8.33529C7.25773 8.29529 7.23566 8.25289 7.20659 8.21955C7.18933 8.19955 7.16157 8.19341 7.13491 8.19128C7.11896 8.16461 7.10301 8.13794 7.08377 8.10594C7.09732 8.10807 7.11022 8.1102 7.12792 8.11314C7.10869 8.04967 7.0687 8.0334 7.02171 8.03206C7.04007 8.01446 7.05843 7.99686 7.07656 7.97953L7.06891 7.96352C7.05034 7.96512 7.03155 7.96672 7.0051 7.96912C7.03635 7.90298 7.09907 7.86005 7.08946 7.79844C7.04597 7.78511 7.01188 7.78564 6.99134 7.76564C6.96577 7.74057 6.94632 7.70136 6.93386 7.66323C6.91463 7.60509 6.91048 7.53788 6.88578 7.48454C6.87617 7.46401 6.82765 7.47041 6.79553 7.46427C6.80274 7.45361 6.81367 7.43707 6.82809 7.41547C6.80886 7.4016 6.79356 7.38933 6.77761 7.37947C6.76712 7.37307 6.75554 7.3696 6.74439 7.3648C6.75313 7.35066 6.76166 7.33626 6.77542 7.31386C6.76865 7.29892 6.75794 7.27465 6.74221 7.23892C6.73412 7.26319 6.73041 7.27439 6.72472 7.29146C6.71598 7.27919 6.70418 7.27039 6.70309 7.25999C6.69916 7.21678 6.70899 7.16984 6.67249 7.13837C6.66944 7.13571 6.67665 7.11811 6.67686 7.10744C6.6773 7.07997 6.68014 7.0517 6.67534 7.02556C6.66791 6.98503 6.65698 6.94476 6.64343 6.90635C6.63687 6.88768 6.62048 6.87435 6.60978 6.85728C6.59404 6.83248 6.58071 6.80527 6.5641 6.78154C6.54487 6.7538 6.52476 6.7266 6.50204 6.70313C6.48346 6.68393 6.46095 6.6706 6.43123 6.64766C6.48434 6.62499 6.49286 6.59886 6.45899 6.55752C6.45221 6.54925 6.46095 6.52418 6.45921 6.50711C6.4568 6.48231 6.45178 6.45777 6.44784 6.43271C6.43342 6.43964 6.42162 6.44524 6.40741 6.45191C6.40588 6.42124 6.40435 6.3959 6.40282 6.3639C6.39212 6.36923 6.38316 6.37377 6.36502 6.38283C6.36808 6.35696 6.37114 6.33616 6.3731 6.31509C6.37813 6.26362 6.3884 6.21268 6.35038 6.16895C6.3377 6.15454 6.33289 6.12681 6.32961 6.10414C6.32568 6.07774 6.33442 6.0428 6.29421 6.0572C6.29159 6.058 6.28372 6.0404 6.27979 6.03026C6.254 5.96412 6.23193 5.89532 6.20199 5.83185C6.18276 5.79077 6.15217 5.7577 6.12747 5.7201C6.12354 5.71397 6.12463 5.7033 6.12179 5.69556C6.10015 5.63396 6.0783 5.57262 6.05645 5.51101C5.99395 5.53235 6.0311 5.40114 5.98084 5.42487C5.9769 5.39047 5.9734 5.3582 5.96925 5.32619C5.96794 5.31659 5.96379 5.30779 5.96292 5.29819C5.95614 5.21498 5.95461 5.21392 5.8991 5.24619C5.88839 5.22832 5.87681 5.21498 5.87113 5.19845C5.85736 5.15818 5.82852 5.10831 5.83791 5.07657C5.86086 4.99923 5.79836 4.97629 5.787 4.92269C5.78153 4.89709 5.74569 4.91229 5.73302 4.95122C5.71881 4.93549 5.70548 4.92055 5.69215 4.90535C5.68844 4.90909 5.68472 4.91282 5.68101 4.91682C5.68625 4.92775 5.6915 4.93869 5.69696 4.94989C5.68232 4.96536 5.6668 4.98189 5.6633 4.98563C5.67226 5.06457 5.67991 5.13311 5.68603 5.18671C5.67008 5.19418 5.65719 5.19552 5.65522 5.20165C5.63883 5.25792 5.67642 5.38433 5.71116 5.4118C5.7151 5.49314 5.71903 5.56889 5.72296 5.64916C5.72078 5.65049 5.71073 5.65716 5.68144 5.67583C5.72493 5.69903 5.75421 5.7145 5.78394 5.7305C5.77694 5.74144 5.76536 5.7601 5.76449 5.76144C5.77235 5.85131 5.77891 5.92385 5.78656 6.01133C5.74482 6.0924 5.75421 6.13748 5.83136 6.19001C5.84054 6.19641 5.84097 6.22228 5.84534 6.23909C5.83923 6.24495 5.83289 6.25082 5.82677 6.25642C5.85671 6.27242 5.88665 6.28842 5.92117 6.30656C5.90369 6.35563 5.99132 6.45937 5.87375 6.47644C5.88599 6.52365 5.90173 6.56685 5.90697 6.61192C5.90916 6.63033 5.88861 6.65299 5.87572 6.6786C5.88796 6.69033 5.90697 6.70873 5.93582 6.73674C5.91659 6.765 5.89735 6.79301 5.87528 6.82554C5.88293 6.83834 5.89648 6.86181 5.912 6.88822C5.92423 6.87008 5.93494 6.85461 5.94958 6.83301C6.00116 6.98636 5.97013 7.15864 6.04924 7.30399C6.04661 7.30932 6.03984 7.32266 6.03525 7.33119C6.06563 7.37627 6.09557 7.41894 6.12354 7.46347C6.12813 7.47094 6.12682 7.48854 6.1231 7.49841C6.10081 7.55522 6.12987 7.59335 6.15501 7.63202C6.17467 7.66243 6.1738 7.68243 6.14867 7.7107C6.13228 7.7291 6.12922 7.76484 6.1207 7.79177C6.15085 7.78991 6.17904 7.78804 6.20702 7.78617C6.20745 7.78991 6.20789 7.79364 6.20833 7.79737C6.17708 7.81498 6.14583 7.83231 6.10452 7.85551C6.13468 7.88272 6.15763 7.90325 6.17883 7.92245C6.15435 8.01473 6.14517 8.10567 6.195 8.19341C6.24329 8.17421 6.24133 8.21342 6.23171 8.26089C6.2446 8.26409 6.25728 8.26729 6.27083 8.27075C6.24045 8.34036 6.27695 8.46997 6.32568 8.49211C6.35387 8.56145 6.3082 8.62039 6.32197 8.69133C6.33726 8.76947 6.33158 8.78521 6.3742 8.83881C6.38031 8.84655 6.38687 8.85908 6.386 8.86841C6.38163 8.92202 6.37507 8.97536 6.38141 9.02443C6.38927 9.06043 6.39321 9.09884 6.40588 9.13217C6.4249 9.18205 6.45571 9.22605 6.47079 9.27726C6.4874 9.33406 6.49155 9.3962 6.50226 9.45594C6.50641 9.47994 6.5075 9.51701 6.51974 9.52448C6.58224 9.56342 6.60169 9.62796 6.60366 9.7069C6.59819 9.6949 6.59251 9.68316 6.5853 9.66769C6.55907 9.7549 6.5617 9.75197 6.60606 9.80797C6.62048 9.82611 6.61568 9.86531 6.62289 9.89385C6.63578 9.94479 6.66506 9.99653 6.662 10.0453C6.6572 10.1205 6.6926 10.1573 6.72647 10.2011C6.71948 10.2123 6.71227 10.2232 6.70527 10.2344C6.71948 10.24 6.73368 10.2459 6.7634 10.2576C6.75707 10.3286 6.74636 10.4072 6.74461 10.4862C6.74396 10.512 6.76712 10.5382 6.77761 10.5651C6.78963 10.5958 6.7999 10.6278 6.81716 10.6766C6.86918 10.6915 6.85847 10.7747 6.87814 10.8345C6.89081 10.8729 6.89693 10.9148 6.90698 10.9585H6.87136C6.90152 11.0329 6.93626 11.0985 6.95462 11.1702C6.97057 11.2321 6.96817 11.3012 6.97495 11.378C6.97713 11.3788 6.9909 11.3836 7.01013 11.3905C7.0051 11.4052 7.00292 11.422 6.99483 11.4329C6.9732 11.4625 6.96336 11.4911 6.98762 11.5255C7.02237 11.5751 7.05646 11.625 7.09645 11.6828C7.0746 11.702 7.04903 11.7244 7.01297 11.7564C7.04203 11.761 7.0628 11.7642 7.08312 11.7674C7.04881 11.8407 7.06542 11.8679 7.13753 11.8754C7.14038 11.945 7.143 12.0127 7.14606 12.0802C7.14824 12.1295 7.14999 12.1791 7.15392 12.2285C7.15502 12.2421 7.15961 12.2586 7.16726 12.2677C7.20462 12.3117 7.25205 12.3437 7.23107 12.4282C7.21774 12.4821 7.2444 12.5202 7.29357 12.5176C7.29772 12.6283 7.30143 12.7349 7.30581 12.8493C7.31542 12.8453 7.3388 12.836 7.37137 12.8227C7.36612 12.8472 7.36088 12.8683 7.35738 12.8899C7.35498 12.9051 7.34864 12.9278 7.35454 12.9358C7.41223 13.0144 7.35978 13.1128 7.38797 13.1963C7.41092 13.2649 7.41748 13.3393 7.47539 13.3899C7.50205 13.4131 7.50555 13.4747 7.52194 13.5174C7.52718 13.531 7.53986 13.5406 7.55472 13.5585C7.55581 13.5713 7.55821 13.5996 7.56149 13.635C7.55166 13.6297 7.54029 13.6233 7.52871 13.6169C7.52434 13.6441 7.51451 13.6724 7.51735 13.6982C7.52062 13.7265 7.53264 13.7558 7.54685 13.7796C7.56368 13.8081 7.58706 13.831 7.60738 13.8564C7.62705 13.8809 7.6465 13.9057 7.66901 13.9343C7.66901 13.9551 7.67076 13.9863 7.66857 14.0172C7.6666 14.0439 7.65874 14.0697 7.6559 14.0961C7.65327 14.1212 7.65437 14.1468 7.6524 14.1721C7.65065 14.1967 7.64431 14.2215 7.64541 14.2458C7.64737 14.2887 7.62574 14.3348 7.66879 14.3732C7.6878 14.3903 7.68409 14.4415 7.69676 14.4735C7.70791 14.5012 7.72779 14.5236 7.74397 14.5482C7.75096 14.5807 7.75424 14.6205 7.76779 14.6541C7.78439 14.6951 7.81455 14.7285 7.83029 14.7698C7.85433 14.8335 7.87137 14.9013 7.89126 14.9674C7.89956 14.9952 7.90787 15.0229 7.9177 15.0552C7.88645 15.0973 7.88951 15.1256 7.92753 15.14C7.93715 15.2371 7.93671 15.3347 7.95878 15.424C7.97911 15.5067 8.02369 15.5803 8.05756 15.6582C8.06237 15.6547 8.06718 15.6512 8.07199 15.6475C8.06914 15.7096 8.06062 15.7726 8.06543 15.8339C8.06805 15.8686 8.09296 15.9003 8.10608 15.9345C8.11263 15.9518 8.11525 15.9713 8.12356 16.0059C8.12487 16.007 8.1406 16.019 8.15612 16.0307C8.15088 16.0334 8.14563 16.0361 8.14017 16.0387C8.14541 16.0747 8.14847 16.1113 8.15612 16.1465C8.16421 16.1833 8.17644 16.2187 8.18999 16.2657H8.23414C8.16792 16.3364 8.19174 16.4081 8.21403 16.4796C8.21797 16.4761 8.22212 16.4724 8.22605 16.4689C8.24091 16.487 8.26648 16.5036 8.26867 16.5236C8.275 16.582 8.3268 16.6345 8.28724 16.6999C8.28527 16.7033 8.28484 16.7132 8.28571 16.7135C8.34471 16.7428 8.3174 16.8247 8.3528 16.8735C8.33423 16.8823 8.3174 16.8903 8.30145 16.8977C8.32505 16.9628 8.34909 17.0255 8.37007 17.0895C8.38296 17.129 8.40875 17.1804 8.39782 17.2092C8.36635 17.2941 8.40743 17.373 8.39651 17.4535C8.39476 17.4666 8.40088 17.4813 8.40285 17.4951C8.41574 17.589 8.43606 17.6805 8.45748 17.7722C8.466 17.809 8.45376 17.8525 8.45267 17.893C8.45223 17.9053 8.45748 17.9176 8.45945 17.9301C8.46185 17.9459 8.46928 17.9651 8.46447 17.9768C8.44174 18.0317 8.43825 18.0875 8.44502 18.1477C8.44677 18.1635 8.42798 18.1827 8.41814 18.2016C8.43847 18.2312 8.46403 18.2686 8.48982 18.3059C8.45901 18.3539 8.43847 18.3968 8.44677 18.4696C8.45464 18.5392 8.42273 18.6155 8.40787 18.6889C8.39083 18.7731 8.36045 18.8582 8.42448 18.931C8.39541 18.9809 8.3681 19.0278 8.34646 19.0649C8.37531 19.0865 8.39913 19.1044 8.42295 19.1225C8.4129 19.1313 8.40285 19.1401 8.39279 19.1489C8.3764 19.1673 8.36001 19.1857 8.34406 19.2044C8.33685 19.2126 8.33182 19.2246 8.32352 19.2297C8.24638 19.2764 8.24091 19.3489 8.26451 19.4401C8.2702 19.4623 8.24769 19.4956 8.2372 19.5233C8.23152 19.538 8.22343 19.5513 8.21666 19.5655C8.18781 19.6256 8.14978 19.6409 8.10258 19.6114C8.10018 19.6148 8.09668 19.6178 8.09537 19.6218C8.08379 19.6639 8.12116 19.7231 8.07854 19.7503C8.01014 19.7938 7.9542 19.8735 7.86591 19.8644C7.84493 19.8623 7.82198 19.8679 7.80231 19.8775C7.77456 19.8911 7.74615 19.957 7.72605 19.8695C7.71381 19.8772 7.69064 19.8911 7.69108 19.8922C7.71206 19.9519 7.65721 19.9591 7.64737 19.9954C7.59711 19.9826 7.55013 19.9695 7.50249 19.9594C7.49549 19.9578 7.48544 19.9669 7.47867 19.9738C7.45659 19.9965 7.44676 20.0237 7.42338 19.9634C7.40852 19.925 7.34711 19.8964 7.30559 19.8946C7.22888 19.8906 7.16507 19.8506 7.09776 19.818C7.09252 19.8156 7.08487 19.8092 7.08465 19.8042C7.0794 19.7151 7.02084 19.7228 6.97276 19.7103C6.9614 19.7074 6.95134 19.6964 6.94085 19.6892C6.93714 19.6964 6.93364 19.7039 6.92993 19.7111C6.85322 19.6242 6.77652 19.5372 6.69107 19.4404C6.67599 19.4377 6.64387 19.4321 6.59885 19.4244C6.66113 19.3465 6.58617 19.3065 6.5794 19.2471C6.57721 19.2273 6.56803 19.2086 6.55689 19.1726C6.544 19.1713 6.51406 19.1686 6.4839 19.1657C6.47122 19.0889 6.44391 19.0484 6.40042 19.0369C6.3766 18.9268 6.35431 18.8222 6.24504 18.7937C6.25007 18.7801 6.25204 18.7707 6.25641 18.7635C6.29989 18.6934 6.27629 18.6073 6.20811 18.5782C6.17293 18.5632 6.12485 18.5752 6.11523 18.5019C6.10911 18.456 6.08376 18.4142 6.06716 18.3704C6.05208 18.3718 6.02782 18.3736 6.00356 18.3758C6.00247 18.3424 5.98346 18.3118 6.01471 18.2766C6.04377 18.2437 6.02432 18.1061 5.98979 18.0813C5.97275 18.0691 5.945 18.0792 5.91899 18.0792C5.89102 18.0451 5.87638 17.9749 5.8165 17.9811C5.80295 17.917 5.79311 17.8528 5.77498 17.7925C5.76208 17.7496 5.75334 17.6978 5.70067 17.6898C5.68647 17.6877 5.67532 17.6522 5.66352 17.6317C5.65609 17.6186 5.65107 17.5941 5.64276 17.5928C5.5654 17.58 5.59993 17.4711 5.55054 17.4359C5.58638 17.3746 5.52191 17.3693 5.51077 17.3338C5.50771 17.3237 5.48782 17.3186 5.47515 17.3162C5.44106 17.3101 5.44084 17.3093 5.45613 17.2741C5.46662 17.25 5.4734 17.2239 5.48367 17.1932C5.47471 17.1858 5.46225 17.1754 5.44215 17.1583C5.46094 17.1575 5.47602 17.157 5.4911 17.1562C5.48739 17.1436 5.48345 17.1308 5.47974 17.1183C5.39145 17.141 5.39145 17.0535 5.37965 16.9978C5.37615 16.9594 5.3814 16.914 5.36632 16.8841C5.3508 16.8529 5.3154 16.8364 5.28524 16.8228C5.2612 16.7892 5.23345 16.7585 5.21422 16.7212C5.19258 16.6791 5.17947 16.6305 5.16133 16.5854C5.14625 16.5481 5.12418 16.5137 5.115 16.4748C5.10451 16.4302 5.10539 16.382 5.10058 16.3353C5.09839 16.3142 5.10058 16.2828 5.09053 16.274C5.02016 16.2129 5.00858 16.1043 4.95394 16.0291C4.92007 15.9825 4.90871 15.9104 4.89035 15.8483C4.87899 15.8099 4.8497 15.7731 4.87658 15.7275C4.82741 15.6838 4.83004 15.6187 4.82719 15.5549C4.82676 15.5467 4.8143 15.5325 4.80731 15.5323C4.74677 15.5301 4.7376 15.4581 4.71159 15.4171C4.6917 15.3859 4.70263 15.3256 4.69848 15.2787C4.6976 15.2685 4.68974 15.2597 4.68515 15.2501C4.67859 15.2362 4.67225 15.2221 4.6622 15.2C4.65674 15.1994 4.64013 15.1981 4.61937 15.1962C4.61937 15.1581 4.61893 15.1221 4.61981 15.0864C4.61981 15.081 4.62702 15.076 4.63095 15.0706C4.56714 15.0378 4.61041 14.9458 4.56583 14.8989C4.53283 14.8642 4.50508 14.825 4.51272 14.757C4.51666 14.7229 4.48213 14.6826 4.4653 14.6447C4.45503 14.6215 4.44214 14.5989 4.43602 14.574C4.42706 14.5383 4.42116 14.501 4.41832 14.4636C4.41701 14.4458 4.42531 14.4268 4.43034 14.4039C4.39843 14.3674 4.34992 14.3324 4.32828 14.2807C4.31342 14.2452 4.33549 14.1865 4.34096 14.138C4.34576 14.1393 4.35057 14.1407 4.35538 14.1417C4.34292 14.1215 4.33003 14.102 4.31823 14.0812C4.30228 14.0529 4.30381 14.0137 4.25573 14.0132C4.23475 14.0129 4.20284 13.9412 4.19716 13.898C4.19257 13.8628 4.15236 13.8249 4.18908 13.7828C4.19235 13.7788 4.17771 13.7545 4.17465 13.7385C4.16897 13.7097 4.16547 13.6801 4.15914 13.639C4.15411 13.6401 4.13903 13.6428 4.13269 13.6441C4.11783 13.6246 4.10428 13.6068 4.09052 13.5889C4.09401 13.5894 4.09751 13.59 4.10101 13.5905C4.09489 13.5497 4.08855 13.5086 4.08243 13.4678C4.07806 13.4385 4.07456 13.4089 4.06888 13.3801C4.06538 13.3622 4.06233 13.3355 4.05227 13.3291C3.9642 13.275 3.93885 13.1758 3.92203 13.0702C3.91744 13.0414 3.91766 13.0115 3.91525 12.976C3.88051 12.9606 3.8392 12.9462 3.84926 12.8709C3.85231 12.8472 3.82019 12.8179 3.80664 12.7896C3.79965 12.7749 3.79353 12.7555 3.79506 12.7395C3.79877 12.7024 3.79703 12.6835 3.76184 12.6637C3.71857 12.6395 3.70131 12.5819 3.72535 12.5234C3.74633 12.4725 3.73955 12.4418 3.69038 12.4288C3.69497 12.4141 3.69628 12.3978 3.70349 12.3882C3.74086 12.3384 3.70983 12.3048 3.67836 12.3016C3.61652 12.2954 3.60952 12.2544 3.61455 12.1943C3.59313 12.1847 3.57215 12.1751 3.55052 12.1655C3.56472 12.0773 3.55467 12.0511 3.49064 12.0237C3.50375 11.9154 3.47731 11.8146 3.44715 11.7138C3.43754 11.682 3.44103 11.6444 3.43797 11.6047H3.37351C3.36914 11.5495 3.36105 11.4953 3.36149 11.4415C3.36192 11.3924 3.33351 11.3503 3.29309 11.3537C3.30751 11.3137 3.32215 11.2735 3.33876 11.2276C3.2732 11.2388 3.25047 11.191 3.25725 11.1233C3.26249 11.071 3.24523 11.0129 3.23015 10.9609C3.22184 10.9321 3.19693 10.9108 3.18032 10.8851C3.17573 10.8782 3.17136 10.8675 3.17202 10.8593C3.18163 10.7587 3.10274 10.6894 3.10799 10.5875C3.10908 10.5654 3.06931 10.5395 3.04767 10.5163C3.03762 10.5054 3.02582 10.4971 3.01489 10.4875C3.02189 10.4824 3.02888 10.4771 3.02451 10.4803C3.02451 10.4454 3.01752 10.4147 3.02604 10.3928C3.04396 10.3472 3.03981 10.3216 3.00309 10.2923C2.97949 10.2734 2.97293 10.2195 2.94911 10.2051C2.89317 10.1712 2.94671 10.1421 2.94474 10.112C2.94278 10.0843 2.9395 10.0355 2.92966 10.0328C2.85536 10.0117 2.86782 9.93172 2.85514 9.87385C2.84181 9.81224 2.84356 9.7461 2.83657 9.6821C2.83526 9.67063 2.82499 9.65969 2.81756 9.65036C2.78019 9.60342 2.73757 9.56102 2.70698 9.50848C2.69146 9.48208 2.69736 9.437 2.6954 9.41914C2.64688 9.28099 2.60339 9.15618 2.56034 9.03323C2.47468 9.00816 2.48539 8.89588 2.44299 8.82254C2.45457 8.82548 2.46288 8.82761 2.47118 8.82921C2.4797 8.83108 2.48845 8.83214 2.49959 8.82841C2.46878 8.79587 2.47096 8.73427 2.41786 8.71907C2.40125 8.71426 2.39775 8.64999 2.38399 8.61532C2.37677 8.59719 2.36038 8.58412 2.34793 8.56918C2.34115 8.56092 2.33044 8.55452 2.32804 8.54491C2.3051 8.45451 2.28433 8.36303 2.26095 8.27262C2.25418 8.24649 2.24369 8.22008 2.23014 8.19821C2.18446 8.12434 2.17747 8.05553 2.21419 7.98326C2.17572 7.94992 2.13245 7.92139 2.09989 7.88032C2.08066 7.85605 2.07607 7.81258 2.06952 7.77657C2.0623 7.73603 2.06427 7.69256 2.05444 7.65309C2.04635 7.62056 2.03215 7.58482 2.0116 7.56322C1.93053 7.47734 1.92594 7.36 1.9113 7.24399C1.90103 7.16158 1.89513 7.07037 1.8606 7.0037C1.83634 6.95676 1.82738 6.90795 1.81033 6.86101C1.80618 6.84928 1.81427 6.83088 1.81383 6.83301C1.76925 6.72633 1.72729 6.62632 1.68315 6.52071C1.67965 6.52045 1.65692 6.52445 1.65343 6.51645C1.64512 6.49698 1.646 6.47191 1.64337 6.44924C1.63726 6.39803 1.63507 6.3455 1.62327 6.29616C1.61497 6.26122 1.59508 6.23002 1.5776 6.19935C1.57257 6.19055 1.55836 6.18921 1.53695 6.17908C1.54045 6.16281 1.54635 6.13481 1.55334 6.10201C1.53564 6.0804 1.49477 6.058 1.5258 6.0284C1.4998 5.95346 1.4692 5.88998 1.45653 5.82171C1.44123 5.73984 1.44363 5.65343 1.43315 5.56995C1.4303 5.54728 1.40605 5.52968 1.39731 5.50648C1.38376 5.47048 1.37545 5.43154 1.36387 5.3942C1.34704 5.34033 1.30967 5.32139 1.28629 5.31846C1.26728 5.27206 1.25307 5.24085 1.24193 5.20778C1.23799 5.19578 1.24302 5.17978 1.24149 5.16591C1.23821 5.13871 1.23319 5.11204 1.22903 5.08484C1.21658 5.07737 1.20434 5.06964 1.19188 5.06217C1.20609 5.04697 1.22051 5.03203 1.24258 5.00856C1.22838 4.94802 1.20762 4.86028 1.18686 4.77281C1.19363 4.76907 1.20281 4.76374 1.21199 4.75867C1.20303 4.74294 1.19582 4.71627 1.18467 4.7136C1.13375 4.70107 1.11999 4.65999 1.10731 4.60479C1.08742 4.51785 1.09923 4.4181 1.02886 4.34796C1.00176 4.32103 0.999355 4.25649 0.986899 4.20875C0.978158 4.17488 0.972476 4.13994 0.963297 4.10634C0.946689 4.04473 0.92855 3.98393 0.910194 3.92019C0.956086 3.87378 0.952808 3.84178 0.896426 3.80044C0.884844 3.79191 0.871513 3.76471 0.874791 3.75297C0.888122 3.70657 0.880691 3.67563 0.845945 3.64896C0.833925 3.63989 0.830429 3.61429 0.822561 3.59482C0.779947 3.65083 0.783007 3.71883 0.788252 3.78924C0.791093 3.82818 0.785629 3.86818 0.773828 3.90445C0.789781 3.93752 0.805734 3.97033 0.824965 4.0098C0.812946 4.01033 0.803986 4.01086 0.805953 4.01086C0.802675 4.05727 0.79896 4.10127 0.796556 4.14554C0.795245 4.16955 0.795682 4.19355 0.795245 4.21755C0.794371 4.27569 0.816661 4.33543 0.784755 4.39143C0.78104 4.3981 0.788252 4.41384 0.790218 4.42531C0.793278 4.44237 0.80333 4.46558 0.797649 4.47598C0.755472 4.55412 0.764213 4.63226 0.786503 4.71467C0.792841 4.73787 0.783881 4.76694 0.782788 4.79334C0.781914 4.81921 0.773828 4.85175 0.783444 4.86988C0.814913 4.92882 0.795245 4.98723 0.791093 5.04617C0.788689 5.07897 0.783881 5.11204 0.785411 5.14484C0.78694 5.18085 0.790218 5.20885 0.767709 5.24485C0.746293 5.27926 0.733181 5.32833 0.765743 5.38647C0.81229 5.46968 0.793715 5.57422 0.789344 5.67156C0.786503 5.73717 0.783662 5.80331 0.784974 5.86892C0.785848 5.91452 0.792622 5.95852 0.758968 5.99346C0.751319 6.00146 0.746949 6.01986 0.747386 6.0332C0.749571 6.11881 0.753505 6.20415 0.756783 6.28976C0.75722 6.30176 0.758531 6.31403 0.75722 6.32576C0.750882 6.38283 0.742578 6.44044 0.81382 6.44551C0.794371 6.47511 0.776232 6.49484 0.766617 6.51965C0.760279 6.53592 0.759624 6.57219 0.767054 6.57752C0.816661 6.61272 0.779947 6.65379 0.76312 6.66633C0.717228 6.7002 0.732744 6.7346 0.748478 6.77567C0.756346 6.79647 0.765524 6.82048 0.764213 6.84208C0.757438 6.94849 0.745856 7.05463 0.738863 7.16104C0.737115 7.18931 0.746512 7.21812 0.748478 7.24719C0.750882 7.28266 0.748041 7.31893 0.752849 7.35386C0.767709 7.46081 0.704553 7.55735 0.729685 7.66723C0.74673 7.74164 0.775577 7.81978 0.737552 7.89872C0.715261 7.94486 0.697342 7.99099 0.732307 8.0414C0.736022 8.04673 0.727718 8.06327 0.727062 8.07474C0.725532 8.10807 0.725314 8.14141 0.724221 8.17475C0.723129 8.21102 0.721162 8.24702 0.720506 8.28329C0.720288 8.29529 0.720943 8.30782 0.723784 8.31903C0.741704 8.39103 0.749134 8.46064 0.723129 8.53505C0.711328 8.56865 0.720725 8.61292 0.719195 8.65213C0.716354 8.72227 0.710891 8.79241 0.709361 8.86255C0.708487 8.90655 0.711109 8.95082 0.715043 8.99456C0.716573 9.01243 0.733837 9.03296 0.730122 9.04656C0.701931 9.14737 0.743015 9.24152 0.745201 9.33886C0.745638 9.3602 0.746293 9.38713 0.736896 9.40233C0.704116 9.45407 0.71242 9.50021 0.732525 9.55542C0.743671 9.58609 0.730559 9.62902 0.732963 9.66583C0.734929 9.69676 0.743671 9.7269 0.751319 9.7669C0.728373 9.81304 0.701057 9.87091 0.733181 9.94399C0.74083 9.96106 0.734711 9.98693 0.735585 10.0088C0.738426 10.0944 0.742797 10.1797 0.743671 10.2654C0.743671 10.2808 0.729685 10.2963 0.720288 10.316C0.737333 10.3926 0.785629 10.476 0.727718 10.5691C0.721599 10.579 0.72597 10.6011 0.72881 10.6166C0.736459 10.6587 0.751101 10.7001 0.753068 10.7425C0.757001 10.8281 0.753068 10.9142 0.755253 11.0001C0.755909 11.0268 0.771862 11.0534 0.770769 11.0796C0.768584 11.1329 0.786503 11.1798 0.766617 11.2428C0.7452 11.3111 0.776451 11.4039 0.7841 11.4863C0.786722 11.5132 0.787596 11.5401 0.789344 11.5673C0.793715 11.6359 0.792841 11.706 0.803986 11.7727C0.813164 11.8276 0.837422 11.8775 0.783662 11.9186C0.774703 11.9255 0.775795 11.9525 0.771643 11.9735C0.813164 11.957 0.835455 11.9853 0.832177 12.0335C0.828025 12.0962 0.829773 12.1594 0.826277 12.2221C0.825839 12.2314 0.810542 12.2391 0.79743 12.2528C0.859494 12.2693 0.839389 12.3277 0.841792 12.3744C0.843759 12.4114 0.835892 12.4506 0.843104 12.4856C0.853593 12.536 0.840918 12.5581 0.800708 12.5696H0.82431C0.836548 12.6304 0.848786 12.6864 0.859057 12.7429C0.863427 12.7677 0.86299 12.7936 0.866268 12.8187C0.872824 12.868 0.881566 12.9171 0.887029 12.9664C0.8914 13.0048 0.892274 13.0435 0.894241 13.0822C0.89577 13.1126 0.895989 13.143 0.898174 13.1731C0.901889 13.224 0.935106 13.2729 0.900141 13.3281C0.893148 13.339 0.914127 13.3758 0.921776 13.4009C0.929206 13.4257 0.941225 13.4505 0.941881 13.4755C0.943629 13.5435 0.939914 13.6121 0.939914 13.6801C0.939914 13.6902 0.951715 13.7001 0.952808 13.7108C0.957834 13.7676 0.957834 13.8252 0.966138 13.8809C0.970509 13.9105 0.915001 13.9681 0.991925 13.9745C0.9987 13.9751 1.00067 14.0591 1.00657 14.1239C1.02405 14.1409 1.06229 14.1663 1.03039 14.2348C1.02033 14.2564 1.05115 14.3066 1.06339 14.3439C1.05705 14.3444 1.05071 14.345 1.04437 14.3455C1.04568 14.3788 1.04503 14.4124 1.04918 14.445C1.05093 14.4599 1.06207 14.4732 1.06885 14.4874C1.08917 14.5282 1.09638 14.5647 1.05224 14.5743C1.07169 14.6389 1.08939 14.6978 1.10163 14.7389C1.10993 14.8141 1.11562 14.873 1.1237 14.9314C1.12698 14.9546 1.14184 14.9776 1.14053 14.9997C1.13485 15.1088 1.17855 15.1994 1.2074 15.2965C1.21745 15.3304 1.20893 15.3723 1.20893 15.4147C1.22816 15.4216 1.27383 15.4176 1.22838 15.4741C1.2216 15.4827 1.23013 15.5112 1.23319 15.5299C1.23996 15.5696 1.24827 15.6088 1.25526 15.6486C1.25679 15.6576 1.25417 15.6675 1.2557 15.6766C1.26094 15.7072 1.26728 15.7376 1.26444 15.7715C1.31601 15.816 1.32257 15.887 1.32606 15.9598C1.32628 15.967 1.32672 15.9745 1.3289 15.9809C1.36474 16.0838 1.40124 16.1865 1.43686 16.2894C1.44997 16.3273 1.46134 16.3662 1.47423 16.4068C1.41828 16.4262 1.45041 16.4526 1.49871 16.4937C1.46964 16.5044 1.44866 16.5124 1.42746 16.5201C1.43293 16.5281 1.43817 16.5364 1.44363 16.5444C1.46068 16.5385 1.47751 16.5324 1.48363 16.5302C1.52558 16.6716 1.56798 16.8092 1.60666 16.9482C1.61562 16.9804 1.61169 17.0178 1.61322 17.053C1.61365 17.0647 1.61016 17.0775 1.61256 17.0884C1.63201 17.1735 1.6602 17.257 1.67004 17.3437C1.67812 17.4149 1.7015 17.4799 1.70959 17.5487C1.71265 17.5749 1.6814 17.6069 1.66239 17.6426C1.70609 17.7477 1.58481 17.7162 1.57607 17.7824C1.4963 17.7442 1.38769 17.8354 1.33349 17.6786C1.37676 17.6637 1.42025 17.636 1.4633 17.637C1.51815 17.6384 1.53105 17.6194 1.51947 17.5583C1.51641 17.5418 1.52406 17.5223 1.52886 17.4903C1.51444 17.509 1.50701 17.5189 1.49892 17.529C1.47336 17.4501 1.46724 17.3591 1.41566 17.2858C1.39272 17.2533 1.40015 17.1898 1.39119 17.1412C1.38288 17.0964 1.37064 17.053 1.35841 17.0007C1.35884 17.0004 1.36955 16.9943 1.39315 16.9807C1.36846 16.9695 1.35316 16.9626 1.35076 16.9615C1.32344 16.906 1.29503 16.8593 1.27624 16.8073C1.26334 16.7711 1.27056 16.7236 1.25613 16.6889C1.24084 16.6521 1.27799 16.5748 1.21636 16.5793C1.2039 16.5473 1.19298 16.522 1.18402 16.4953C1.16544 16.4409 1.13791 16.3876 1.13288 16.3313C1.12676 16.2644 1.0883 16.2283 1.06535 16.1777C1.05464 16.1542 1.05508 16.1225 1.05246 16.0942C1.05071 16.0753 1.05683 16.0539 1.05158 16.0374C1.03782 15.9945 1.01443 15.9601 1.01749 15.9054C1.01924 15.8755 0.980343 15.8422 0.960238 15.8099C0.956741 15.8043 0.955212 15.7968 0.948437 15.7784C0.961549 15.767 0.977065 15.7528 0.993236 15.7384C0.965483 15.6976 0.938603 15.6584 0.90626 15.611C0.90626 15.5069 0.874354 15.4016 0.819065 15.3053C0.813602 15.296 0.803768 15.2795 0.80639 15.2755C0.843541 15.2133 0.796337 15.1557 0.799615 15.0952C0.800927 15.0688 0.785629 15.0328 0.768365 15.0152C0.728373 14.9741 0.723129 14.9245 0.727718 14.8679C0.729685 14.8442 0.736022 14.8181 0.730777 14.7965C0.719413 14.7509 0.71701 14.7151 0.784755 14.7066C0.678329 14.5877 0.627629 14.4639 0.671336 14.2954C0.671117 14.2954 0.658005 14.2876 0.641178 14.2783C0.649046 14.262 0.656476 14.2463 0.664124 14.2305C0.61561 14.2028 0.597035 14.1284 0.623259 14.0839C0.605776 14.0311 0.586545 13.9815 0.574307 13.9292C0.570592 13.9135 0.586763 13.8908 0.595505 13.8665C0.55442 13.8377 0.561851 13.7881 0.554639 13.7364C0.544586 13.6646 0.578241 13.5787 0.516396 13.5166C0.499787 13.4998 0.500661 13.4558 0.494979 13.4241C0.477496 13.3249 0.45608 13.2262 0.444935 13.1256C0.434445 13.0323 0.435756 12.9374 0.43073 12.8432C0.429856 12.8251 0.427889 12.7995 0.418274 12.7912C0.373256 12.752 0.397732 12.7208 0.428326 12.6859C0.413466 12.6733 0.401665 12.6635 0.38899 12.6528C0.425704 12.572 0.399261 12.5074 0.361892 12.4357C0.344628 12.4024 0.362766 12.3426 0.362985 12.2949C0.362985 12.2664 0.359488 12.2378 0.350091 12.2095C0.396639 12.1261 0.322993 12.0599 0.323212 11.9834C0.323212 11.9559 0.309007 11.9234 0.317093 11.902C0.335887 11.8522 0.318404 11.8354 0.278194 11.8284C0.285842 11.7935 0.295458 11.7639 0.297862 11.7335C0.300047 11.706 0.291524 11.6778 0.292617 11.65C0.293928 11.6207 0.29655 11.5892 0.306603 11.5633C0.322556 11.522 0.319934 11.4943 0.297643 11.4529C0.278194 11.4172 0.28016 11.3615 0.279068 11.3143C0.277319 11.2278 0.28322 11.1412 0.28016 11.055C0.279068 11.022 0.261585 10.99 0.252188 10.9574C0.242791 10.9249 0.229023 10.8926 0.225745 10.859C0.219627 10.7923 0.215911 10.7246 0.21766 10.6577C0.219189 10.5934 0.229023 10.5291 0.234924 10.4651C0.236017 10.4539 0.238857 10.4374 0.23405 10.4318C0.193402 10.3838 0.189906 10.336 0.218534 10.2995C0.200396 10.0469 0.188376 9.80584 0.148384 9.55995C0.164775 9.53141 0.22509 9.49941 0.149696 9.44634C0.135491 9.4362 0.145762 9.37193 0.146855 9.33273C0.147292 9.32046 0.158874 9.30792 0.157781 9.29672C0.152537 9.24125 0.139425 9.18605 0.139643 9.13084C0.139643 9.09324 0.157344 9.0559 0.164993 9.02683C0.164993 8.97082 0.16849 8.91962 0.163682 8.86921C0.160841 8.83961 0.149477 8.80734 0.13418 8.78414C0.115386 8.7556 0.106426 8.73613 0.128061 8.70333C0.138769 8.68706 0.147729 8.64866 0.140517 8.63906C0.0751756 8.55158 0.133743 8.49744 0.175483 8.43397C0.113201 8.39263 0.14161 8.31556 0.128061 8.25422C0.124783 8.23875 0.13265 8.21502 0.125875 8.20648C0.0828243 8.15234 0.119319 8.12247 0.151444 8.08727C0.107519 8.03713 0.113856 7.98086 0.129591 7.91845C0.137021 7.88885 0.121068 7.85151 0.123909 7.81871C0.128498 7.76564 0.147292 7.7131 0.146199 7.66083C0.144669 7.59069 0.128279 7.52108 0.121723 7.45094C0.11779 7.40987 0.119975 7.368 0.120631 7.32666C0.120631 7.31599 0.130246 7.29919 0.127187 7.29572C0.0769239 7.23838 0.120194 7.18478 0.143358 7.15118C0.16849 7.11491 0.148166 7.09757 0.137021 7.0901C0.0786722 7.05063 0.109923 7.0237 0.142484 6.99516C0.123253 6.92155 0.104241 6.84955 0.0854467 6.77781C0.080639 6.78021 0.0760498 6.78287 0.071242 6.78527C0.0788907 6.73887 0.087195 6.69273 0.0944066 6.64633C0.103804 6.58632 0.112326 6.52631 0.121286 6.46631C0.123253 6.45271 0.131994 6.43137 0.128061 6.42737C0.0856653 6.38337 0.103804 6.33083 0.112108 6.28016C0.119101 6.23695 0.121942 6.20068 0.0952808 6.15961C0.0791093 6.13481 0.0791093 6.08627 0.0836985 6.05053C0.097029 5.94706 0.102055 5.84705 0.0747386 5.74437C0.0664343 5.71317 0.0804205 5.66409 0.0972476 5.63396C0.129591 5.57609 0.1073 5.52035 0.106426 5.46327C0.10577 5.42887 0.10883 5.39447 0.110797 5.34993C0.0782351 5.30513 0.0747386 5.19471 0.110797 5.11471C0.0566003 5.06003 0.0764868 4.98909 0.0812946 4.92082C0.0863209 4.85255 0.093751 4.78347 0.0909101 4.71547C0.0885062 4.65866 0.0690567 4.60292 0.0635933 4.54585C0.0609709 4.51918 0.0701494 4.48798 0.080639 4.46291C0.10883 4.39597 0.0764868 4.3709 0.0437068 4.35436C0.0727718 4.29836 0.104241 4.23969 0.133743 4.17941C0.137239 4.17221 0.13265 4.15008 0.127624 4.14741C0.0852282 4.12581 0.0994329 4.0826 0.0963734 4.04367C0.090473 3.96499 0.0804205 3.88685 0.0721162 3.80844C0.0710235 3.79911 0.067527 3.78284 0.0697123 3.78151C0.142921 3.73884 0.0898174 3.67483 0.0887247 3.61642C0.101181 3.60869 0.114949 3.59989 0.135491 3.58709C0.108611 3.54042 0.0819502 3.49375 0.0583485 3.45321C0.0631563 3.39934 0.0694938 3.33906 0.0738644 3.27879C0.0764869 3.24145 0.0767054 3.20358 0.0769239 3.16598C0.0769239 3.15184 0.0747386 3.13744 0.0736459 3.12304C0.067527 3.0561 0.061408 2.98943 0.0557261 2.92249C0.0541964 2.90595 0.0583485 2.88649 0.0526667 2.87288C0.0177012 2.79154 0.048733 2.7318 0.0954993 2.6718C0.0550705 2.64193 0.0522296 2.60672 0.0736459 2.55339C0.0856653 2.52325 0.0812946 2.46271 0.0635933 2.44057C0.0378064 2.40857 0.0476404 2.3859 0.0524481 2.35603C0.0631563 2.28883 0.0959364 2.22029 0.0229461 2.16641C0.00458921 2.15281 0.00808575 2.09521 0 2.0488C0.0183568 2.06 0.0314689 2.068 0.0546335 2.0824C0.0423956 2.00586 -0.00174827 1.93172 0.064249 1.90052C0.0550705 1.82905 0.0546335 1.76851 0.0386805 1.7149C0.0152974 1.63569 0.083917 1.63863 0.100307 1.58529C0.0880691 1.56662 0.070805 1.54262 0.0552891 1.51702C0.0133306 1.44794 0.00808575 1.3786 0.0472033 1.30259C0.0607524 1.27646 0.0590041 1.23885 0.0649046 1.20258C0.0531037 1.20898 0.0428326 1.21459 0.0327801 1.22019C0.0292835 1.20978 0.0205422 1.19352 0.0229461 1.19032C0.0607524 1.14204 0.0373693 1.07777 0.0535408 1.02417C0.0659972 0.982829 0.0736459 0.938824 0.0812946 0.89562C0.0834799 0.883352 0.0793278 0.869217 0.0775795 0.855883C0.0758313 0.842015 0.0710235 0.82788 0.0718976 0.814012C0.0762683 0.735071 0.0826058 0.656129 0.0865394 0.577188C0.0885062 0.539318 0.0869765 0.500914 0.0869765 0.456376C0.144888 0.455043 0.108611 0.401704 0.101618 0.364367C0.206952 0.308095 0.231427 0.251556 0.200396 0.140878C0.242354 0.134211 0.283657 0.12781 0.329112 0.120609C0.354243 0.0219328 0.368885 0.0120652 0.459795 0.0440684C0.466788 0.0259332 0.474 0.00753142 0.476404 0.000864085C0.497165 0.000864085 0.51268 -0.00153615 0.527104 0.00166417C0.539123 0.00406441 0.55005 0.0139321 0.561851 0.0184658C0.579333 0.0248665 0.602498 0.0406014 0.61408 0.0326006C0.669588 -0.00553656 0.697342 0.036601 0.724658 0.0822055C0.755034 0.133144 0.786066 0.167281 0.846819 0.16488C0.876321 0.163547 0.91369 0.212085 0.936636 0.248355C0.967668 0.297427 0.98974 0.355566 1.01312 0.411572C1.02755 0.446242 1.03913 0.483045 1.04896 0.520116C1.07519 0.619059 1.10207 0.718002 1.12414 0.818279C1.13463 0.86655 1.13332 0.918556 1.14053 0.967894C1.14337 0.987096 1.15145 1.01056 1.16347 1.02123C1.23865 1.08817 1.21111 1.18978 1.22357 1.27752C1.2251 1.28846 1.20915 1.30286 1.2015 1.31566C1.22423 1.3818 1.22641 1.45808 1.29175 1.50048C1.3123 1.51381 1.30618 1.58689 1.31339 1.63249C1.31907 1.66903 1.32803 1.70503 1.33284 1.74184C1.33677 1.77091 1.34114 1.80158 1.33743 1.82985C1.32737 1.90852 1.35119 1.98346 1.3925 2.0136C1.39796 2.04427 1.40648 2.0656 1.40408 2.08507C1.40124 2.10907 1.38944 2.13148 1.38135 2.15468C1.44648 2.19202 1.47773 2.31203 1.45391 2.3851C1.51706 2.44857 1.52974 2.53845 1.5352 2.63633C1.5564 2.62086 1.56973 2.61126 1.59049 2.59606C1.57257 2.63873 1.54831 2.67046 1.54766 2.703C1.54569 2.80701 1.54897 2.80728 1.58809 2.86995C1.58983 2.87288 1.59879 2.87155 1.59901 2.87315C1.60688 2.94462 1.61453 3.01636 1.62108 3.08811C1.62196 3.09691 1.61802 3.10624 1.61693 3.11291C1.63092 3.11931 1.64949 3.12064 1.65365 3.13078C1.67878 3.19132 1.73691 3.24759 1.67506 3.3244C1.68664 3.37747 1.81755 3.37533 1.72598 3.47641C1.73625 3.49615 1.74652 3.51588 1.75963 3.54122C1.77253 3.54202 1.7922 3.54335 1.79875 3.54362C1.81121 3.58495 1.82629 3.61829 1.83088 3.65349C1.83612 3.69377 1.83219 3.73564 1.83219 3.78017C1.82279 3.77911 1.80334 3.77697 1.76947 3.77297C1.82061 3.83618 1.83874 3.92312 1.92288 3.90739C1.90867 3.91645 1.89425 3.92526 1.87087 3.93992C1.90059 4.0314 1.93249 4.12074 1.95784 4.21275C1.97205 4.26369 1.97533 4.31916 1.98385 4.37223C1.98822 4.39917 1.98625 4.43944 1.99958 4.45011C2.07126 4.50611 2.07542 4.59652 2.09443 4.68293C2.10951 4.75094 2.14185 4.81281 2.16086 4.87975C2.17092 4.91522 2.1648 4.95736 2.17332 4.99389C2.17856 5.01603 2.14557 5.04217 2.18774 5.06564C2.21397 5.0803 2.2332 5.14298 2.23582 5.18591C2.24281 5.30219 2.28914 5.39767 2.33197 5.49528C2.34137 5.51688 2.36716 5.52835 2.37546 5.55022C2.38683 5.57955 2.38617 5.61529 2.39491 5.64649C2.4054 5.68383 2.42026 5.7193 2.43294 5.75557C2.44714 5.79584 2.46222 5.83585 2.47446 5.87692C2.49194 5.93612 2.50724 5.99613 2.5245 6.05987C2.50374 6.0756 2.48386 6.09054 2.45807 6.11001C2.46812 6.13241 2.4738 6.16148 2.48888 6.17535C2.5457 6.22708 2.5811 6.30256 2.58285 6.37883C2.58547 6.48364 2.63377 6.54285 2.68163 6.61246C2.69846 6.63699 2.68906 6.6858 2.69933 6.71993C2.71113 6.7586 2.6943 6.82954 2.75069 6.81728C2.76882 6.88635 2.78412 6.95169 2.80313 7.01543C2.81559 7.05703 2.7874 7.10184 2.82346 7.14451C2.8617 7.18985 2.88749 7.25145 2.91568 7.30826C2.92442 7.32586 2.92945 7.35253 2.92551 7.37173C2.90322 7.48054 2.96922 7.51788 3.02429 7.56828C3.0444 7.58669 3.05641 7.62056 3.06756 7.64989C3.07324 7.66483 3.06843 7.68536 3.06843 7.7115C3.07215 7.71443 3.08504 7.72377 3.10908 7.7419H3.05947C3.07215 7.79017 3.08461 7.83765 3.09728 7.88618C3.14274 7.87418 3.19081 7.93419 3.20458 8.01393C3.21966 8.10194 3.24195 8.18808 3.26053 8.27502C3.26796 8.30942 3.27517 8.34436 3.27976 8.37957C3.28566 8.42437 3.2944 8.45984 3.3381 8.47451C3.4135 8.49984 3.46966 8.63959 3.44759 8.7292C3.44344 8.746 3.44628 8.78147 3.45152 8.78334C3.51708 8.80601 3.52167 8.87962 3.54374 8.93882C3.54921 8.95376 3.55795 8.96682 3.55249 8.98096V9.13751C3.5975 9.09964 3.62963 9.07243 3.66175 9.04523C3.66481 9.04977 3.66809 9.0543 3.67115 9.05857C3.65389 9.0751 3.63684 9.09137 3.61302 9.1143C3.62941 9.13484 3.6458 9.15538 3.66918 9.18498C3.65367 9.18685 3.63531 9.18898 3.61739 9.19111C3.60887 9.24098 3.65782 9.31299 3.70765 9.30739C3.70262 9.32686 3.69803 9.34419 3.69344 9.3618C3.71202 9.37513 3.73147 9.38953 3.7507 9.40367L3.73409 9.41167C3.74676 9.45914 3.75966 9.50661 3.77189 9.55435C3.77474 9.56502 3.77932 9.57889 3.77626 9.58742C3.74742 9.66716 3.79375 9.71303 3.82871 9.76344C3.86412 9.81411 3.90717 9.85225 3.87133 9.93865C3.84773 9.99573 3.90411 10.0333 3.93973 10.0672C3.9441 10.0715 3.94869 10.0749 3.95328 10.0789C3.93339 10.1213 3.94279 10.2419 3.98518 10.2646C4.04572 10.2966 4.01228 10.3963 4.07959 10.4139C4.04135 10.5203 4.11587 10.5857 4.15171 10.6561C4.18558 10.7222 4.18689 10.7326 4.12395 10.7515C4.16001 10.7627 4.19629 10.7739 4.24415 10.7889C4.22273 10.8038 4.2118 10.8113 4.19913 10.8201C4.21246 10.8262 4.22404 10.8315 4.24327 10.8403C4.22732 10.8675 4.21486 10.8891 4.19847 10.9172C4.20241 10.9193 4.21814 10.9281 4.21945 10.9289C4.24721 11.0209 4.27168 11.1025 4.29856 11.1916C4.28589 11.2081 4.2636 11.2375 4.24109 11.2671C4.24305 11.2737 4.24524 11.2801 4.24721 11.2868C4.34249 11.2737 4.34445 11.3865 4.39515 11.4367C4.38597 11.458 4.3768 11.4785 4.36456 11.5065C4.38226 11.514 4.39756 11.5204 4.40193 11.5223C4.41548 11.5511 4.42116 11.582 4.43602 11.5911C4.50464 11.6327 4.5254 11.7236 4.52081 11.7882C4.51535 11.8655 4.56714 11.8924 4.57501 11.9511C4.5796 11.9839 4.60101 12.0143 4.6174 12.0439C4.63947 12.0839 4.66133 12.125 4.68755 12.1607C4.74153 12.2343 4.75661 12.3322 4.72142 12.3936C4.76338 12.437 4.80906 12.476 4.84599 12.5248C4.88489 12.5763 4.83047 12.6173 4.83768 12.6589C4.85954 12.7283 4.88095 12.7976 4.90324 12.8667C4.91679 12.9086 4.93231 12.9496 4.94564 12.9918C4.9522 13.0123 4.95307 13.036 4.96137 13.0555C4.97012 13.0763 4.98301 13.1078 4.99678 13.1102C5.03742 13.1171 5.04332 13.1566 5.03633 13.1832C5.01033 13.2827 5.06671 13.3403 5.11238 13.3894C5.18319 13.4657 5.21684 13.5427 5.1893 13.6585C5.17379 13.7238 5.23126 13.7766 5.29486 13.77C5.3001 13.7694 5.31431 13.8126 5.31431 13.8356C5.31431 13.8894 5.30819 13.9436 5.306 13.9977C5.30578 14.0052 5.31496 14.0129 5.31977 14.0207C5.35321 14.0748 5.39145 14.1257 5.41833 14.1844C5.44084 14.2335 5.46225 14.2916 5.4203 14.3324C5.45679 14.4124 5.48039 14.4954 5.52541 14.5535C5.56343 14.6026 5.56977 14.6485 5.57567 14.7077C5.58004 14.7517 5.60867 14.7914 5.62309 14.8346C5.63446 14.869 5.64997 14.9071 5.6467 14.9413C5.63664 15.0453 5.69324 15.1152 5.71859 15.2008C5.75072 15.3093 5.86785 15.3301 5.86785 15.4552C5.86785 15.4656 5.87332 15.4781 5.87004 15.4864C5.83835 15.568 5.84272 15.5747 5.91527 15.607C5.9415 15.6187 5.96182 15.6496 5.98433 15.6715C5.95221 15.7694 6.01143 15.9259 6.096 15.9574C6.08486 15.9721 6.07546 15.9846 6.07306 15.9878C6.10234 16.0478 6.12966 16.1041 6.15675 16.1601C6.19019 16.1905 6.25903 16.1833 6.24002 16.2921C6.2304 16.2772 6.22297 16.2657 6.21554 16.2542C6.21073 16.2564 6.20614 16.2588 6.20134 16.2609C6.2162 16.3033 6.23259 16.3452 6.24548 16.3886C6.25575 16.4233 6.26558 16.4596 6.26908 16.4961C6.27979 16.6036 6.33923 16.6767 6.38906 16.7559C6.41528 16.7975 6.45374 16.8289 6.47494 16.8735C6.51908 16.9655 6.55186 17.0658 6.59601 17.1578C6.62158 17.2111 6.6596 17.2554 6.69238 17.3031C6.69719 17.3101 6.70746 17.313 6.7103 17.3205C6.73106 17.3754 6.74833 17.4327 6.77171 17.4861C6.78395 17.5138 6.80864 17.5333 6.82416 17.5594C6.84841 17.6002 6.8742 17.6413 6.89037 17.6872C6.90501 17.7285 6.90545 17.777 6.9166 17.821C6.92097 17.8381 6.93539 17.8592 6.9485 17.8634C6.9673 17.8696 6.98937 17.8573 7.00926 17.8608C7.03002 17.8645 7.04947 17.8773 7.07066 17.8866C7.07394 17.9042 7.01363 17.9352 7.07766 17.9475C7.08224 17.9483 7.08028 17.9867 7.08487 18.0064C7.09121 18.0341 7.09689 18.0643 7.11 18.0875C7.13426 18.1307 7.16638 18.1677 7.18933 18.212C7.1961 18.2253 7.18365 18.2536 7.17971 18.2766C7.22604 18.3206 7.27674 18.3691 7.32329 18.4136C7.32591 18.447 7.3281 18.476 7.3305 18.5051C7.32766 18.5051 7.32045 18.5059 7.31018 18.5067C7.31957 18.5262 7.3281 18.544 7.33662 18.5616C7.35935 18.532 7.39453 18.5155 7.37967 18.4566C7.37027 18.4195 7.38142 18.3744 7.38382 18.3216C7.45179 18.2672 7.45834 18.1893 7.39256 18.1093C7.38535 18.1005 7.39103 18.0757 7.39169 18.0584C7.393 18.0277 7.39409 17.9968 7.39672 17.9661C7.40436 17.8754 7.35017 17.7906 7.38426 17.6946C7.39278 17.6704 7.36612 17.6274 7.35541 17.593C7.35017 17.5946 7.34492 17.5965 7.33968 17.5981C7.34383 17.4997 7.35192 17.401 7.34973 17.3029C7.34908 17.2703 7.32176 17.2388 7.30646 17.2071C7.3058 17.2055 7.30253 17.2063 7.30122 17.2047C7.28177 17.1818 7.25642 17.0082 7.26538 16.9756C7.27871 16.9282 7.27608 16.8892 7.22954 16.8671C7.21883 16.862 7.21468 16.8281 7.21271 16.8068C7.20484 16.7273 7.22713 16.6377 7.16092 16.5783C7.1666 16.5574 7.17294 16.534 7.18408 16.4926C7.16179 16.514 7.15283 16.5225 7.13841 16.5361C7.13644 16.4809 7.13447 16.4308 7.13229 16.3742C7.13316 16.3734 7.14322 16.3644 7.13928 16.3678C7.11393 16.358 7.08858 16.3481 7.06345 16.3382C7.07766 16.3201 7.09186 16.3017 7.10607 16.2836C7.09558 16.2884 7.08531 16.2932 7.07001 16.3001C7.06433 16.2508 7.04925 16.2033 7.05624 16.1611C7.06498 16.1097 7.07285 16.1118 7.0287 16.0873C7.04509 16.0571 7.06105 16.0275 7.07241 16.0065C7.03635 15.8936 7.00204 15.7862 6.96752 15.6787C6.96467 15.6699 6.96183 15.6584 6.95615 15.6539C6.90742 15.6158 6.90982 15.5453 6.88557 15.492C6.87945 15.4784 6.86043 15.4736 6.83705 15.4579C6.84623 15.4163 6.86415 15.3696 6.8648 15.3224C6.86524 15.2909 6.84579 15.2544 6.82744 15.2285C6.81148 15.2058 6.78438 15.1949 6.77848 15.173C6.77586 15.1514 6.77586 15.1285 6.7704 15.108C6.74199 15.0048 6.71227 14.9023 6.68298 14.7997C6.68167 14.7951 6.67621 14.7901 6.67708 14.7877C6.71817 14.6738 6.64955 14.5999 6.61196 14.514C6.59535 14.4762 6.62617 14.4311 6.66506 14.4343C6.64212 14.3946 6.62005 14.3562 6.59797 14.3178L6.6113 14.3063C6.58836 14.2887 6.56519 14.2714 6.5311 14.2452H6.57721C6.56978 14.1815 6.56585 14.1177 6.55317 14.0567C6.54771 14.0305 6.52739 14.0047 6.50816 13.9887C6.4815 13.9665 6.46751 13.9561 6.48018 13.9057C6.49046 13.8646 6.46838 13.8089 6.45527 13.7622C6.44522 13.727 6.42664 13.6953 6.42293 13.6524C6.40064 13.6452 6.37835 13.6377 6.35737 13.6308C6.35737 13.5585 6.35693 13.4859 6.35802 13.4131C6.35802 13.4043 6.36939 13.3958 6.36917 13.3873C6.36873 13.3691 6.36917 13.3427 6.36021 13.3345C6.33246 13.3089 6.32131 13.2897 6.32896 13.2392C6.33573 13.195 6.34535 13.1334 6.3023 13.0918C6.28678 13.0768 6.28176 13.0464 6.27083 13.024C6.25662 12.9947 6.23717 12.9683 6.22756 12.9371C6.21139 12.8845 6.19718 12.8299 6.18975 12.7747C6.18298 12.7243 6.16615 12.6779 6.18669 12.6179C6.20396 12.5674 6.18451 12.4984 6.18123 12.4352C6.11064 12.4197 6.10562 12.3512 6.08617 12.2885C6.06716 12.2277 6.03132 12.1749 6.00138 12.1159C6.05098 12.0845 6.01733 12.0263 6.00291 11.9682C6.03416 11.9482 6.05186 11.9229 6.01646 11.8826C6.01012 11.8754 6.00291 11.8607 6.00466 11.8522C6.02629 11.7487 5.96597 11.6804 5.93298 11.601C5.91746 11.5636 5.89692 11.5292 5.88402 11.4908C5.87965 11.478 5.88818 11.4524 5.89735 11.4399C5.94128 11.3812 5.89801 11.3127 5.91265 11.2508C5.91331 11.2479 5.88949 11.231 5.87659 11.23C5.83901 11.2268 5.82742 11.1998 5.82262 11.1596C5.81846 11.1241 5.80885 11.0897 5.80448 11.0545C5.79967 11.0158 5.7988 10.9761 5.79464 10.9372C5.78612 10.8574 5.78568 10.7742 5.76383 10.7001C5.75203 10.6603 5.70286 10.6369 5.66702 10.6025C5.6974 10.5843 5.71335 10.5638 5.68516 10.512C5.66396 10.4734 5.66964 10.4128 5.66199 10.3627C5.65981 10.3483 5.65303 10.323 5.64801 10.3227C5.55491 10.3208 5.5866 10.2248 5.59665 10.1872C5.62178 10.0941 5.56824 10.0597 5.53087 10.012C5.51907 9.99679 5.49766 9.99226 5.48433 9.97893C5.59818 9.89038 5.51448 9.79517 5.52847 9.70823C5.50596 9.71196 5.4887 9.7149 5.46815 9.71837C5.46313 9.70156 5.44739 9.66956 5.45286 9.66263C5.50268 9.59942 5.44171 9.54021 5.45067 9.47834C5.45482 9.44954 5.44127 9.417 5.42663 9.3962C5.38511 9.32046 5.3414 9.24632 5.30404 9.16764C5.29617 9.15084 5.3036 9.10764 5.31627 9.09457C5.38402 9.02496 5.32327 8.96976 5.30229 8.91695C5.27912 8.85908 5.2341 8.81161 5.27978 8.74227C5.24285 8.68173 5.29508 8.62119 5.27934 8.56145C5.27519 8.54545 5.26186 8.52145 5.25268 8.52145C5.21072 8.52145 5.17925 8.51211 5.17182 8.45184C5.17073 8.4425 5.15041 8.43664 5.1574 8.42437V8.26115C5.15303 8.26249 5.14188 8.26542 5.11916 8.27182C5.1397 8.24995 5.15281 8.23608 5.1668 8.22115C5.15762 8.20301 5.14866 8.18488 5.14625 8.18008C5.16177 8.14461 5.17313 8.11847 5.18472 8.09154C5.14451 8.08407 5.11588 8.079 5.08419 8.07313C5.10604 7.87045 5.08943 7.68243 5.04267 7.51068C5.00705 7.52401 4.97405 7.53655 4.92881 7.55388C4.94455 7.46587 4.95941 7.39947 4.96684 7.33199C4.96924 7.30986 4.95788 7.27199 4.94367 7.26319C4.90521 7.23918 4.89647 7.21358 4.90608 7.16131C4.91483 7.11357 4.91199 7.05997 4.9039 7.01143C4.89516 6.95889 4.87396 6.90955 4.85888 6.85861C4.85407 6.84235 4.85145 6.82501 4.85866 6.80394C4.86369 6.81861 4.86872 6.83354 4.87527 6.85301C4.8827 6.84341 4.88969 6.83808 4.88926 6.83434C4.87811 6.7538 4.86478 6.67353 4.85473 6.59272C4.84686 6.53031 4.84271 6.46738 4.83637 6.4007C4.82829 6.40657 4.81212 6.4183 4.78545 6.43804C4.78458 6.33883 4.71115 6.25989 4.76426 6.15588C4.77125 6.14228 4.76207 6.10574 4.75071 6.0908C4.69739 6.02093 4.7188 5.93719 4.72099 5.85958C4.7223 5.80971 4.70503 5.77051 4.6917 5.73077C4.67772 5.68863 4.65586 5.65929 4.66439 5.60276C4.67444 5.53715 4.65914 5.46488 4.65171 5.39607C4.641 5.29739 4.62745 5.19898 4.61325 5.08697C4.61434 5.0875 4.59926 5.07977 4.57238 5.0659C4.60407 5.05203 4.62352 5.0435 4.63947 5.03657C4.69454 4.92535 4.59992 4.84321 4.61041 4.73227C4.5903 4.74614 4.57719 4.75547 4.57675 4.75574C4.56605 4.71547 4.55993 4.67866 4.54682 4.64639C4.52911 4.60292 4.52256 4.56825 4.56364 4.53865C4.59817 4.51385 4.59904 4.44104 4.5608 4.4141C4.52147 4.38663 4.52846 4.3597 4.53633 4.31569C4.54244 4.28209 4.52758 4.24155 4.51819 4.20582C4.50398 4.15301 4.49502 4.10634 4.56605 4.09994C4.49218 4.02767 4.49502 3.93459 4.49961 3.84311C4.50049 3.82418 4.51972 3.80471 4.53348 3.78951C4.56648 3.75324 4.56189 3.7087 4.52059 3.6815C4.51622 3.67856 4.51229 3.6735 4.50923 3.66843C4.4723 3.60709 4.49087 3.46708 4.54004 3.42761C4.53327 3.4124 4.51994 3.39694 4.52081 3.38253C4.52365 3.3236 4.54288 3.26199 4.53348 3.20705C4.52015 3.12918 4.54201 3.0633 4.55293 2.99236C4.56277 2.92809 4.59052 2.88942 4.63641 2.85928C4.67509 2.83395 4.69848 2.79501 4.67706 2.7334C4.66788 2.707 4.6716 2.6742 4.66832 2.63153C4.69848 2.64379 4.71378 2.64993 4.73126 2.65713C4.71683 2.61499 4.71596 2.58672 4.76032 2.60859C4.78895 2.62273 4.8049 2.61766 4.8119 2.57792C4.81343 2.56885 4.82872 2.55819 4.83812 2.55712C4.89603 2.55205 4.91046 2.49711 4.91767 2.44484C4.92466 2.3931 4.94389 2.3739 4.98345 2.3731C4.99678 2.37283 5.01644 2.3731 5.02256 2.36323C5.0525 2.31523 5.07479 2.35417 5.10036 2.36803C5.11763 2.37737 5.14254 2.3955 5.15368 2.3875C5.22165 2.3395 5.29464 2.3507 5.36697 2.35257C5.37681 2.35257 5.3873 2.3531 5.39604 2.3579C5.43166 2.37657 5.46531 2.40724 5.50203 2.4139C5.55775 2.42404 5.5619 2.46271 5.55251 2.52058C5.63424 2.50431 5.7081 2.50751 5.76602 2.58672C5.75749 2.59926 5.74547 2.61632 5.73564 2.63073C5.75924 2.63073 5.78131 2.63179 5.8036 2.63073C5.85103 2.62806 5.86326 2.64993 5.84207 2.703C5.84032 2.70753 5.86261 2.72567 5.8731 2.7382C5.90981 2.78194 5.97253 2.82301 5.97646 2.87102C5.98171 2.93476 6.0075 2.97023 6.02869 3.00863L6.02716 3.00383ZM10.9621 10.0005C10.9881 10.0059 11.0121 10.0192 11.0318 10.0128C11.0528 10.0061 11.0869 9.96799 11.0858 9.96532C11.0607 9.91465 11.0386 9.86478 11.0467 9.80157C11.0478 9.79357 11.0312 9.78237 11.0231 9.7725C11.0084 9.7541 10.9925 9.73677 10.9796 9.7165C10.951 9.67223 10.9236 9.62636 10.89 9.57142C10.8904 9.56502 10.8924 9.54155 10.8944 9.51781C10.8316 9.52048 10.8139 9.49461 10.8345 9.43967C10.8172 9.42314 10.7857 9.40633 10.7862 9.39113C10.7881 9.33086 10.7597 9.33113 10.7374 9.33539C10.7265 9.31086 10.7193 9.29326 10.7114 9.27645C10.7016 9.25539 10.6828 9.23485 10.6826 9.21405C10.6824 9.15298 10.6717 9.10604 10.6256 9.06977C10.5674 9.02416 10.5148 8.96842 10.4597 8.91695C10.4807 8.86255 10.4726 8.81134 10.4479 8.82068C10.3976 8.83961 10.4066 8.81027 10.4068 8.7708C10.4068 8.7508 10.388 8.714 10.3771 8.71346C10.3458 8.7124 10.3128 8.72227 10.2831 8.73587C10.2726 8.74067 10.261 8.78201 10.2639 8.78467C10.3231 8.84174 10.2446 8.96682 10.3371 9.00523C10.3196 9.0967 10.4011 9.13084 10.4151 9.20525C10.4188 9.22498 10.4385 9.24098 10.4525 9.25672C10.4756 9.28259 10.5051 9.30232 10.5233 9.33246C10.5676 9.40633 10.6148 9.48021 10.6074 9.58342C10.6317 9.53408 10.6507 9.53568 10.6719 9.57888C10.7014 9.63916 10.7318 9.69863 10.7672 9.76904C10.8037 9.69516 10.8148 9.73463 10.8229 9.7653C10.8522 9.75464 10.8795 9.7445 10.907 9.73437C10.9075 9.74023 10.9081 9.7461 10.9086 9.75197C10.8924 9.77384 10.876 9.79544 10.8598 9.81731C10.881 9.83518 10.9022 9.85305 10.9282 9.87518C10.9256 9.89278 10.9221 9.91785 10.9184 9.94292C10.9225 9.94025 10.9267 9.93759 10.9308 9.93519C10.9416 9.95759 10.952 9.97999 10.9621 10.0008V10.0005ZM12.5432 12.6189C12.5622 12.7176 12.5812 12.8216 12.6028 12.9248C12.607 12.9443 12.6195 12.9622 12.6306 12.9779C12.6605 13.02 12.6916 13.0606 12.7303 13.1126C12.7595 13.0814 12.7914 13.0475 12.819 13.0179C12.748 12.9168 12.732 12.7603 12.6131 12.7523C12.6256 12.7107 12.6444 12.6763 12.6415 12.6445C12.64 12.628 12.6004 12.6165 12.5775 12.6021C12.5698 12.5803 12.5591 12.5496 12.5467 12.5146C12.5167 12.5392 12.4962 12.5562 12.4654 12.5819C12.4945 12.5957 12.5157 12.6059 12.543 12.6189H12.5432ZM10.3804 8.67826C10.3498 8.64092 10.36 8.56705 10.301 8.61505C10.2964 8.61879 10.2783 8.61132 10.2763 8.60465C10.2554 8.53345 10.2071 8.55558 10.1644 8.54945C10.1225 8.54358 10.1004 8.57745 10.0993 8.61025C10.0987 8.63346 10.1304 8.66199 10.1518 8.68146C10.1682 8.69613 10.1931 8.69613 10.2101 8.71026C10.2492 8.7428 10.2763 8.74947 10.2855 8.678C10.2866 8.66919 10.3056 8.65826 10.3161 8.65853C10.3323 8.65879 10.3482 8.66786 10.3801 8.67853L10.3804 8.67826ZM12.263 12.1842C12.3019 12.2149 12.3358 12.1997 12.3402 12.1527C12.3432 12.1183 12.3255 12.0607 12.3032 12.0471C12.2447 12.0117 12.265 11.9599 12.2689 11.902C12.2357 11.8996 12.2027 11.8972 12.1664 11.8946C12.1924 11.9735 12.1608 12.0941 12.2779 12.1018C12.2731 12.1293 12.2683 12.1565 12.2632 12.1842H12.263ZM11.9787 11.5137C11.9829 11.5097 11.9872 11.5057 11.9914 11.5017C11.9374 11.4068 11.8837 11.3121 11.8356 11.2278C11.8194 11.2676 11.8054 11.3017 11.7958 11.3257C11.8301 11.3727 11.8675 11.4239 11.9075 11.4788C11.9348 11.4519 11.9621 11.4604 11.9787 11.5137ZM11.143 10.1123C11.1179 10.1456 11.0969 10.1733 11.0753 10.2019C11.0838 10.2163 11.0937 10.2333 11.105 10.2528C11.1297 10.2414 11.1531 10.2304 11.1714 10.2216C11.1614 10.1832 11.154 10.1544 11.143 10.112V10.1123ZM11.1865 10.316C11.2112 10.3118 11.2324 10.308 11.2591 10.3035C11.2468 10.2726 11.2342 10.2408 11.2208 10.2069C11.2003 10.2229 11.1859 10.2344 11.1699 10.2472C11.1763 10.2736 11.1828 10.3006 11.1867 10.3163L11.1865 10.316ZM12.4955 12.4797C12.5117 12.4168 12.4927 12.3981 12.4077 12.3888C12.4044 12.3946 12.4011 12.4005 12.3979 12.4066C12.43 12.4306 12.4621 12.4546 12.4955 12.4797Z" fill="white"/>
</svg>
