<svg viewBox="0 0 20 20" fill="none" xmlns="http://www.w3.org/2000/svg">
<path fill-rule="evenodd" clip-rule="evenodd" d="M19.505 1.93024C19.8222 2.22584 20.1353 2.75811 19.939 2.69602C19.6201 2.59551 19.3835 2.55781 19.3747 2.87097C19.3659 3.19352 19.3102 3.49148 19.2546 3.78896L19.2545 3.79011C19.2415 3.86004 19.2284 3.92988 19.2159 4C19.202 4.07739 19.1553 4.182 19.079 4.16708C18.193 3.9959 18.0224 4.50449 17.9386 5.10118L17.9382 5.10361C17.9309 5.15502 17.9226 5.21359 17.8843 5.2365C17.8532 5.2553 17.8219 5.27382 17.7905 5.29223L17.7429 5.31997C17.7104 5.33869 17.6777 5.35722 17.6451 5.37574L17.5591 5.42406L17.5535 5.42718L17.4481 5.48663L17.3832 5.5237C17.2994 5.57184 17.2166 5.621 17.1361 5.67259C17.129 5.67706 17.123 5.68262 17.1179 5.68909C17.1087 5.70066 17.1021 5.71494 17.0969 5.73062C17.0941 5.73881 17.0917 5.74747 17.0895 5.75632L17.0845 5.77643C17.0758 5.81291 17.067 5.84967 17.0442 5.873C17.0256 5.89203 17.0036 5.90794 16.9799 5.92222C16.9517 5.939 16.921 5.95345 16.8904 5.96797L16.8684 5.97847C16.8511 5.98672 16.834 5.99514 16.8176 6.00416C16.8035 5.96836 16.7881 5.93213 16.7727 5.89582C16.7344 5.80578 16.6962 5.71575 16.6769 5.63254C16.6727 5.6146 16.6732 5.59831 16.6767 5.5822C16.6817 5.55921 16.6931 5.5368 16.7061 5.51079C16.7176 5.48809 16.7303 5.46264 16.7415 5.4319L15.7854 5.06809C15.8254 5.12827 15.8631 5.18357 15.8985 5.23549C15.9697 5.33993 16.0318 5.43097 16.0856 5.52222C16.1491 5.63037 16.2042 5.73828 16.2594 5.84615L16.2837 5.89373C16.2995 5.9245 16.3153 5.95523 16.3315 5.98599C16.3124 5.98256 16.2928 5.9785 16.2729 5.97413L16.2313 5.96492C16.1522 5.94706 16.0731 5.92923 16.0077 5.93291C15.917 5.93779 15.7723 5.96724 15.792 6.01983C15.9894 6.55453 15.7294 6.74041 15.4019 6.88288C15.3785 6.89315 15.367 6.91678 15.3541 6.94283L15.3469 6.95773C15.3428 6.96552 15.3385 6.9734 15.3335 6.98102C15.3528 7.00264 15.3726 7.02426 15.3927 7.04581L15.4307 7.08619C15.4567 7.11357 15.483 7.14084 15.5092 7.16803C15.6508 7.31489 15.7899 7.45927 15.8642 7.5987C15.9036 7.67297 15.8444 7.73934 15.7772 7.81495C15.7441 7.85201 15.7091 7.89134 15.6829 7.93491C15.9945 8.28709 15.767 8.27959 15.3915 8.21448C15.3816 8.16355 15.3756 8.1171 15.37 8.07352C15.3585 7.98391 15.3484 7.90586 15.3091 7.82395C15.234 7.66837 15.1256 7.4503 14.9959 7.36053C14.8557 7.26328 14.6157 7.22017 14.5286 7.27005C14.4506 7.31472 14.4587 7.52297 14.5419 7.65063C14.6887 7.87701 14.6841 7.95329 14.5381 8.02792C14.4629 8.06637 14.3772 8.09471 14.2912 8.12309C14.0308 8.20904 13.7686 8.2957 13.7916 8.66743C13.7984 8.77499 13.5265 8.8314 13.364 8.7603C13.0296 8.61485 12.69 8.42823 12.3503 8.24162C12.2753 8.20042 12.2001 8.15908 12.1251 8.11828C12.0732 8.09007 12.0213 8.06204 11.9695 8.03441L11.9361 8.01619C11.912 8.00293 11.8878 7.98961 11.8632 7.97763C11.8191 7.95611 11.774 7.93898 11.7265 7.93409C12.4134 8.55989 13.1294 9.06752 13.9813 9.2555C13.8683 9.28308 13.7671 9.30471 13.6753 9.32426C13.499 9.36197 13.3575 9.39224 13.2338 9.44302C12.9568 9.55656 12.6916 9.68362 12.4264 9.81062L12.4253 9.81113L12.4185 9.8143L12.4147 9.81632L12.2404 9.8993L12.117 9.95768C12.0813 9.97449 12.0454 9.99103 12.0092 10.0074L11.9549 10.0319C11.8934 10.0597 11.8319 10.0877 11.7714 10.1165C11.7544 10.1883 11.7222 10.2735 11.6898 10.3592C11.6315 10.5133 11.5728 10.6689 11.6009 10.75L12.059 10.5406L11.9577 10.6486C11.9872 10.695 12.0187 10.7399 12.0504 10.7848C12.1226 10.8874 12.1948 10.99 12.2403 11.1106C12.2999 11.2686 12.363 11.4489 12.3101 11.6507C12.2609 11.8394 12.1595 12.0421 12.0527 12.2554L12.0082 12.3449L11.9753 12.4115C11.9536 12.4559 11.9322 12.5007 11.9114 12.5459C12.2003 12.4321 12.4108 12.4307 12.4278 12.6945C12.4299 12.7274 12.6128 12.6973 12.7092 12.6494C13.0581 12.4769 13.3011 12.4699 13.505 12.6096C13.5702 12.6543 13.6898 12.6434 13.8245 12.631L13.8283 12.6306L13.8369 12.6299L13.8786 12.6261L13.9223 12.6227C13.9571 12.6202 13.9923 12.6185 14.0273 12.6183L14.0894 12.2438C14.1117 12.2451 14.1335 12.2446 14.1523 12.2442C14.1734 12.2438 14.1906 12.2434 14.2006 12.2456C14.2068 12.247 14.2101 12.2493 14.2097 12.2532C14.1917 12.5621 14.2862 12.7765 14.5965 12.8241C14.6002 12.8246 14.6038 12.8257 14.6071 12.8271C14.61 12.8283 14.6126 12.8298 14.6152 12.8315L14.6198 12.835C14.6217 12.8366 14.6235 12.8383 14.6252 12.8402L14.6286 12.8441C14.6356 12.8529 14.641 12.8639 14.6446 12.8758C14.6495 12.8915 14.6511 12.9088 14.6492 12.9249C14.6293 13.0832 14.6072 13.2423 14.5838 13.4066C14.5737 13.4776 14.5632 13.5493 14.5528 13.6226L14.55 13.6409L14.5133 13.8952C14.5359 13.8961 14.5603 13.8985 14.5864 13.901C14.6093 13.9033 14.6334 13.9057 14.6587 13.9073C14.6814 13.9086 14.7051 13.9094 14.7297 13.9087C14.7511 13.9081 14.7733 13.9064 14.7961 13.9032C15.0821 13.8625 15.2179 13.9449 15.2654 14.1843C15.2967 14.3431 15.3785 14.472 15.4607 14.6015C15.5092 14.678 15.5578 14.7546 15.5961 14.8376C15.623 14.8955 15.6141 15.0068 15.5636 15.0863C15.3585 15.4086 15.5136 15.493 15.7586 15.3623C16.0613 15.2013 16.179 15.2822 16.2987 15.3646C16.3296 15.3858 16.3607 15.4071 16.3951 15.4244C16.502 15.478 16.6001 15.5413 16.6993 15.6054C16.7424 15.6333 16.7858 15.6613 16.8302 15.6887L17.3823 15.1752L17.5288 15.9868C17.9877 15.851 17.9923 16.1356 17.997 16.432C17.9991 16.5711 18.0013 16.7127 18.0506 16.8148C18.0742 16.8637 17.9524 17.0622 17.8572 17.144C17.5002 17.4514 17.5531 17.5793 17.781 17.6688C17.8194 17.6837 17.8442 17.7154 17.8679 17.7532C17.8737 17.7625 17.8794 17.7721 17.8853 17.7819C17.9003 17.8069 17.916 17.8332 17.9356 17.8584C18.2694 17.5912 18.5148 17.5265 18.6632 17.7482C18.6781 17.7709 18.7791 17.7235 18.8864 17.6731C18.9494 17.6434 19.0147 17.6129 19.0659 17.5948C19.1012 17.5825 19.1374 17.569 19.1736 17.5556C19.3109 17.5047 19.4504 17.453 19.5631 17.4507C19.6005 17.4497 19.5928 17.5359 19.5844 17.6286C19.5804 17.6726 19.5764 17.7181 19.577 17.7564C19.693 17.7523 19.4587 18.0678 19.2343 18.3701C19.0526 18.6146 18.8775 18.8505 18.8995 18.9014C18.561 19.2164 18.1649 19.3517 17.8072 19.474L17.8055 19.4745C17.6293 19.5348 17.4623 19.592 17.3162 19.6659C17.0313 19.8104 16.9055 19.8129 16.8861 19.5817C16.8793 19.5017 16.7491 19.4284 16.655 19.4593C16.1998 19.6107 16.1986 19.4064 16.3467 19.067L16.354 19.0504C16.3634 19.0294 16.3732 19.0083 16.3835 18.9867L16.4076 18.9368L16.4256 18.9002L16.4457 18.8597L16.4498 18.8512L16.4927 18.7644L16.5191 18.7104C16.442 18.7351 16.3794 18.7548 16.326 18.7717C16.2359 18.8001 16.1716 18.8203 16.1074 18.8424C15.5131 19.0457 15.463 19.022 15.4713 18.5426L15.4719 18.5229L15.4727 18.507C15.4751 18.4591 15.4776 18.4089 15.4531 18.3852C15.3504 18.288 15.2434 18.1953 15.1362 18.1025C15.0529 18.0302 14.9695 17.958 14.8883 17.8838L14.8696 17.8669C14.824 17.8261 14.7701 17.778 14.7875 17.7173C15.006 16.9543 14.47 16.8532 13.9238 16.7814C13.6458 16.7451 13.5964 16.6114 13.7096 16.3083C13.8058 16.0502 13.642 16.0042 13.4793 15.9585L13.4781 15.958C13.4593 15.9527 13.4404 15.9474 13.4221 15.9418C13.3913 15.9325 13.3617 15.9221 13.3352 15.9093C13.2705 15.8778 13.2122 15.8389 13.1539 15.7999L13.1516 15.7984C13.13 15.784 13.1083 15.7695 13.0863 15.7555C13.0655 15.7423 13.047 15.7245 13.0284 15.7068C12.9899 15.67 12.9514 15.6332 12.8936 15.6379C12.3845 15.6804 12.3261 15.402 12.3827 14.9526C12.4153 14.6951 12.324 14.4656 12.0726 14.3165C12.0085 14.2783 11.9333 14.2471 11.8562 14.2152C11.6034 14.1103 11.3315 13.9976 11.3756 13.6074C11.4068 13.3296 11.2869 13.1325 10.9785 13.0866C10.8619 13.069 10.7912 12.9816 10.716 12.8884C10.6807 12.8447 10.6443 12.7997 10.6017 12.7601C10.5283 12.8193 10.4343 12.8952 10.329 12.9806C10.326 12.9778 10.3227 12.9753 10.3192 12.9728C10.3154 12.9701 10.3113 12.9675 10.3072 12.9649C10.2905 12.9543 10.2741 12.9439 10.2742 12.9257C10.2753 12.8273 10.2591 12.752 10.2163 12.709C10.2161 12.7362 10.2186 12.7658 10.2209 12.7954C10.222 12.8088 10.223 12.8223 10.2238 12.8355C10.2245 12.8453 10.2249 12.855 10.2252 12.8645C10.2255 12.873 10.2255 12.8812 10.2253 12.8893C10.225 12.9021 10.2242 12.9144 10.2224 12.9258C10.2185 12.9514 10.2103 12.9731 10.1949 12.988C10.1402 13.0405 10.0621 13.0713 9.98362 13.1021L9.98151 13.103C9.9263 13.1247 9.8709 13.1465 9.82386 13.1763L9.78936 13.1978L9.74511 13.2252C9.60607 13.3108 9.46569 13.3973 9.37188 13.5215C9.26782 13.6602 9.13419 13.6943 8.87717 13.4855C8.50985 13.1871 8.50149 13.3201 8.4946 13.4301C8.49332 13.4512 8.49206 13.4714 8.48835 13.4875C8.57779 13.5644 8.67562 13.6408 8.76692 13.7121C8.9482 13.8537 9.10343 13.975 9.1148 14.0388C9.17632 14.3853 8.81371 14.351 8.32286 14.0408L8.0948 14.1101L7.86296 14.1802L7.7913 14.0578L7.74557 13.979C7.70272 13.9046 7.65978 13.8301 7.61577 13.7557C7.56472 13.6694 7.51211 13.5832 7.45623 13.4972L7.44629 13.4819C7.36199 13.3521 7.25471 13.187 7.14117 13.1149C6.88943 12.9551 6.60747 12.7803 6.45261 12.9479C6.33028 13.0803 6.19564 13.2015 6.05187 13.3309C5.98733 13.389 5.92098 13.4488 5.85307 13.512L6.11672 13.867L7.46567 14.0651L7.74341 14.5659L8.37137 14.5777L8.47255 14.6929C8.46485 14.7001 8.45741 14.7075 8.45003 14.7151C8.42887 14.737 8.40882 14.7604 8.38877 14.7837C8.32882 14.8538 8.26879 14.9237 8.17621 14.9536C8.07434 14.9865 7.95543 14.9985 7.83656 15.0105C7.71217 15.0231 7.5878 15.0357 7.48304 15.0721C7.36871 15.1119 7.27569 15.1772 7.18269 15.2426L7.18086 15.2438C7.10668 15.2959 7.03244 15.3481 6.947 15.3871L6.83098 15.4409C6.58207 15.5567 6.33124 15.6735 6.03404 15.7232C6.01926 15.7256 6.00456 15.7278 5.99 15.7298L5.93769 15.7365C5.78427 15.7555 5.65014 15.7723 5.60243 15.9323C5.56896 16.0445 5.47384 16.1154 5.36771 16.1944L5.36676 16.1953L5.36146 16.1992C5.33077 16.2221 5.29916 16.2458 5.26791 16.2714C5.25017 16.2859 5.23253 16.3011 5.21526 16.3172C5.36804 16.5874 5.25048 16.7119 4.91653 16.7346C4.65381 16.7527 4.44026 16.8487 4.22886 16.9438C4.18056 16.9656 4.13235 16.9872 4.08369 17.0079C4.04743 17.0234 4.09815 17.1683 4.15047 17.2519C4.37803 17.6168 4.30792 17.8323 3.93664 17.6859C3.55241 17.5343 3.56536 17.7036 3.63199 17.9445C3.65436 18.0262 3.69197 18.1182 3.72923 18.2094L3.7298 18.211C3.80284 18.3897 3.87477 18.5659 3.83252 18.6599C3.7189 18.9116 3.53946 19.1849 3.23042 19.2102C2.80877 19.2445 2.79209 19.307 2.74793 19.4718C2.72781 19.5466 2.70213 19.6426 2.63022 19.7666C2.40003 20.1636 2.09109 19.9786 1.86319 19.7666C1.80458 19.7121 1.74395 19.5866 1.79235 19.5804C2.0044 19.5537 1.79405 19.4459 1.5395 19.3155C1.44822 19.2688 1.35136 19.2192 1.2661 19.1692C1.19944 19.1302 1.14002 19.0911 1.09616 19.0531C0.610099 18.6327 -0.0647188 17.8316 0.00499612 17.8413L0.0321377 17.8453C0.0493426 17.8481 0.066846 17.8514 0.0843903 17.8547L0.141617 17.8663L0.145339 17.867L0.14909 17.8677C0.386828 17.9164 0.607302 17.9614 0.40669 17.5569C0.397508 17.5384 0.399784 17.5213 0.408943 17.5049C0.418727 17.4875 0.436389 17.4709 0.456537 17.4546L0.46937 17.4446L0.485229 17.4322C0.508889 17.4142 0.532549 17.3962 0.548718 17.3774L0.616162 17.4495L0.617742 17.4511C0.679048 17.5166 0.740266 17.5819 0.799523 17.6478C0.877922 17.7346 0.954631 17.8223 1.03134 17.91L1.09506 17.9827C1.10628 17.9566 1.12426 17.9317 1.14223 17.9068C1.18103 17.853 1.21988 17.7992 1.19075 17.7338C0.969863 17.2391 1.21023 17.1648 1.61334 17.2173C1.86878 17.2502 1.97733 17.1825 1.86031 16.8769C1.74435 16.5736 1.97139 16.4268 2.30805 16.585C2.80274 16.8173 2.93239 16.6044 3.05545 16.4023L3.07907 16.3639C3.19578 16.178 3.02427 15.8985 2.72194 15.6212C2.67746 15.5806 2.64577 15.5284 2.61377 15.4756C2.60207 15.4563 2.59031 15.4369 2.57787 15.418C2.57332 15.4111 2.56871 15.4043 2.56389 15.3974C2.55937 15.391 2.55476 15.3847 2.55002 15.3784C2.14457 14.8441 2.17522 14.7725 2.6088 14.6624C2.73622 14.6301 2.82734 14.5514 2.91885 14.4724C2.98693 14.4136 3.05522 14.3546 3.13881 14.3143C3.1918 14.2887 3.28997 14.3138 3.38837 14.3389L3.38976 14.3392L3.39106 14.3396C3.414 14.3454 3.43694 14.3512 3.4593 14.3564C3.47996 14.3612 3.50011 14.3655 3.51923 14.3686C3.51597 14.3939 3.51332 14.4197 3.51068 14.4455L3.50969 14.4553C3.50283 14.523 3.49593 14.5909 3.48015 14.653C3.46734 14.7025 3.44451 14.7457 3.42168 14.7889L3.41235 14.8064C3.40526 14.8202 3.39829 14.834 3.39166 14.848C3.4295 14.8727 3.4689 14.9016 3.50821 14.9303C3.59792 14.996 3.68772 15.0617 3.75953 15.0792C3.87618 15.1071 4.05444 15.0808 4.04089 15.015C3.97216 14.6698 4.09711 14.5139 4.42148 14.5011C4.4709 14.4991 4.47259 14.3365 4.42083 14.2718C4.13472 13.9166 4.26515 13.7913 4.39534 13.6662L4.4172 13.645L4.43556 13.6269C4.55354 13.5076 4.66909 13.3858 4.78465 13.264L4.78806 13.2609C5.09083 12.9418 5.39379 12.6225 5.74242 12.3479C5.97111 12.1674 6.25432 12.0402 6.53745 11.9129C6.67839 11.8496 6.81932 11.7862 6.95361 11.7164L6.96664 11.7096C7.03463 11.6746 7.12839 11.6262 7.10353 11.5597C6.93438 11.1039 7.2389 11.1395 7.58193 11.1985C7.6331 11.2073 7.67707 11.2004 7.72858 11.1923C7.75462 11.1883 7.78241 11.1839 7.81406 11.1811L7.56347 10.7948C7.57767 10.7908 7.59174 10.7866 7.60576 10.7823L7.62773 10.7754L7.6664 10.763L7.67001 10.7617L7.71945 10.746L7.75307 10.7358C7.76947 10.731 7.78604 10.7264 7.80282 10.7221C7.83131 10.7148 7.86057 10.7085 7.89095 10.7037C8.11379 10.6696 8.21413 10.5507 8.21156 10.3481C8.20487 10.3471 8.20046 10.3451 8.19874 10.3417C8.06035 10.0536 7.75002 10.2451 7.43367 10.4977C7.27389 10.3467 7.31371 10.1898 7.45933 10.0073C7.40632 9.99116 7.34778 9.97367 7.28457 9.95791C7.28509 9.92817 7.284 9.89904 7.28227 9.87122L7.27949 9.83392L7.27736 9.80942L7.27692 9.80356C7.27349 9.7632 7.27046 9.7277 7.27175 9.69985C7.27329 9.66706 7.28102 9.64507 7.30128 9.63842C7.36515 9.61663 7.55756 9.68239 7.62464 9.75221C7.6361 9.76419 7.64733 9.77865 7.65803 9.79465C7.66785 9.78517 7.6777 9.77549 7.68794 9.76596C7.99757 9.47099 8.10616 9.56873 8.21276 9.66466C8.22836 9.67871 8.24397 9.69276 8.26009 9.70546C8.35606 9.78185 8.43251 9.88004 8.49465 9.98702L8.7669 10.18L9.01699 9.77394C8.86081 9.61718 8.87803 9.3479 8.89631 9.0623L8.89978 9.00751C8.7676 9.03345 8.64886 9.02248 8.52906 9.01146C8.43932 9.00314 8.34903 8.99481 8.25198 9.00182L8.29679 9.3031L8.13235 9.25192L8.06893 9.11548C8.05795 9.0919 8.04687 9.06823 8.0359 9.04464C7.94177 9.07577 7.83952 9.12628 7.72522 9.20595C7.66937 9.24466 7.51587 9.19252 7.4844 9.12739C7.2999 8.74162 7.0947 8.76492 6.56981 9.25088L6.55686 9.26292C6.47643 9.33774 6.39037 9.41778 6.30252 9.46745C6.23523 9.50548 6.11419 9.52836 6.09732 9.49772C6.07301 9.45379 6.10124 9.3664 6.12574 9.29083L6.13112 9.27416C6.13857 9.2505 6.17625 9.21911 6.20996 9.1909L6.23283 9.17154C6.96615 8.52881 6.77037 8.44232 6.21338 8.36452L6.15681 8.3567C5.85866 8.31562 5.53339 8.27084 5.37714 8.09272C5.18023 7.86794 5.04905 7.58638 4.90748 7.2826C4.8724 7.20724 4.8366 7.13045 4.79905 7.05286C4.77067 6.99425 4.74129 6.93518 4.71034 6.87583C4.6833 6.94227 4.64868 7.01227 4.61631 7.07791L4.61466 7.08101C4.54931 7.21304 4.49323 7.32634 4.52576 7.35461C4.58789 7.40794 4.60479 7.49882 4.62162 7.5896C4.65012 7.74267 4.6785 7.89551 4.9232 7.86873C4.95404 7.86548 4.95626 7.92734 4.95842 7.98926L4.95845 7.99184C4.95953 8.01992 4.96065 8.04779 4.96448 8.06948C4.93356 8.0817 4.89742 8.0993 4.86125 8.11691C4.78233 8.15548 4.70315 8.19412 4.67739 8.17698C4.41046 8.00042 4.15704 7.80853 3.91916 7.60321C3.79503 7.49572 3.88398 7.33739 4.08833 7.13999C4.19472 7.03703 4.27913 6.91532 4.36337 6.79394C4.40087 6.7399 4.43843 6.68598 4.47783 6.63366L4.73146 6.2988L4.74432 6.31349L4.76396 6.33529L4.78698 6.36038C4.83624 6.41384 4.88551 6.4673 4.92177 6.5306C4.93474 6.55284 4.92512 6.59227 4.9113 6.64955C4.90351 6.68205 4.89421 6.72014 4.88694 6.76417C5.0444 6.66056 5.1825 6.56991 5.31922 6.48019L5.51274 6.35313C5.48662 6.29174 5.46306 6.23195 5.44033 6.17419C5.38115 6.02405 5.32732 5.8874 5.24779 5.77099C5.21892 5.72921 4.99231 5.7794 4.93033 5.84228C4.58474 6.18968 4.26109 6.25749 3.93868 6.32502C3.77945 6.35833 3.62051 6.39156 3.45948 6.45843C3.41951 6.47505 3.33694 6.29964 3.36531 6.26924C3.8021 5.80218 3.62438 5.63654 3.44704 5.47124C3.42421 5.44997 3.40139 5.4287 3.37976 5.40666C3.36734 5.39401 3.35535 5.38112 3.34407 5.36792C3.33174 5.35344 3.31838 5.33991 3.30459 5.32696C3.29034 5.31357 3.27562 5.30078 3.26101 5.28807C3.24775 5.27654 3.23458 5.2651 3.22204 5.25343C2.69949 5.49753 2.319 5.50621 2.08574 5.23146C2.04819 5.18713 1.98869 5.16235 1.92896 5.13744C1.87478 5.11485 1.82047 5.09221 1.78244 5.05494C1.73814 5.01185 1.69034 4.97044 1.64245 4.92894C1.48694 4.7942 1.32968 4.65794 1.28285 4.45677C1.25709 4.34644 1.37205 4.15154 1.49263 3.94742L1.49321 3.94636L1.50236 3.93053C1.51768 3.90462 1.53307 3.87863 1.54813 3.8526C1.55971 3.8326 1.57121 3.81267 1.58233 3.79274C1.60683 3.74924 1.63006 3.7062 1.65061 3.66427L1.58816 3.57273C1.53095 3.48886 1.46462 3.39153 1.39087 3.2842C1.85713 2.98376 1.95673 2.77459 1.65955 2.62566C1.64076 2.61614 1.6365 2.59136 1.63841 2.55945C1.63981 2.53655 1.64441 2.50997 1.64912 2.48277C1.65848 2.42948 1.66813 2.37365 1.65478 2.33834C1.60618 2.20745 1.53342 2.08997 1.44395 1.99081C1.3917 1.93264 1.32122 1.89038 1.25075 1.8481L1.24937 1.8473C1.21762 1.82824 1.18599 1.80923 1.15599 1.78871L1.58634 1.421C1.62211 1.39052 1.65907 1.36015 1.65585 1.36313C1.63958 1.34169 1.62019 1.32124 1.59977 1.30138C1.58659 1.28856 1.57298 1.27597 1.55936 1.26338C1.48085 1.19078 1.40442 1.12009 1.43028 1.02183C1.4538 0.932549 1.59051 0.81288 1.72694 0.693467L1.72779 0.692683C1.78672 0.641179 1.84557 0.589746 1.89518 0.540817C1.91149 0.524776 1.92944 0.509818 1.94732 0.494756L1.95012 0.492329C1.96899 0.476511 1.98787 0.460698 2.0047 0.44347C2.05102 0.396561 2.09397 0.340583 2.13706 0.284479C2.25931 0.124955 2.38254 -0.0356527 2.58598 0.00695686C2.7772 0.047351 2.71718 0.558317 2.52611 0.813903C2.50312 0.84451 2.47946 0.874884 2.4513 0.911005L2.3939 0.984777C2.40547 0.993698 2.41709 1.00222 2.42872 1.01057L2.45202 1.02721C2.47263 1.04183 2.49301 1.05632 2.51234 1.07144C2.52128 1.07844 2.53004 1.08562 2.53844 1.09297C2.54992 1.10302 2.56089 1.11354 2.57114 1.12474C2.62872 1.18823 2.69924 1.24213 2.76966 1.29594C2.98884 1.46343 3.20791 1.63084 3.03886 2.08872C3.00663 2.17583 3.04595 2.2504 3.08688 2.32798C3.10626 2.36464 3.12593 2.40191 3.13852 2.44141C3.61367 2.27275 3.71618 1.99555 3.71034 1.68032L3.82432 1.60007C3.85175 1.62559 3.88882 1.64825 3.92588 1.67091C4.00612 1.71994 4.08635 1.76899 4.06867 1.84727C3.96719 2.29873 4.25869 2.36551 4.55081 2.43241C4.58944 2.44125 4.62806 2.45008 4.66586 2.45986C4.6911 2.46634 4.71601 2.47331 4.74024 2.48091C4.7527 2.48482 4.76497 2.48891 4.77703 2.4932C4.80642 2.50366 4.84426 2.5033 4.88227 2.50295C4.918 2.50264 4.95474 2.50243 4.98346 2.5109C5.0668 2.53597 5.14526 2.56751 5.22359 2.59899C5.25837 2.61297 5.29304 2.62688 5.32822 2.64032L4.84615 3.02966L5.33901 3.12251L5.34676 3.1167C5.60424 2.92302 5.72111 2.83522 5.79402 2.84386C5.8547 2.85117 5.88509 2.92498 5.94066 3.06001L5.96937 3.12911C6.03442 3.28355 6.14478 3.40611 6.25539 3.52897C6.33596 3.61846 6.4167 3.70813 6.48025 3.81049C6.526 3.88447 6.53441 3.98743 6.54516 4.11834L6.5454 4.12125C6.55103 4.18882 6.55716 4.26359 6.56936 4.34561C6.88568 4.36335 6.9353 4.64466 6.98542 4.92916C7.00864 5.06084 7.03201 5.19326 7.08199 5.30057L6.7758 5.82261C6.8114 5.79995 6.84804 5.77806 6.88497 5.75642L6.95139 5.71816C7.0841 5.6421 7.21677 5.5659 7.32085 5.46596C7.56458 5.23246 7.71753 5.15359 7.8436 5.32165C7.87812 5.36792 7.92245 5.40611 7.96677 5.44431C8.00975 5.48133 8.05281 5.51843 8.08696 5.56296C8.12375 5.61113 8.15968 5.72124 8.12438 5.75913C7.78917 6.11673 7.89354 6.24678 8.00584 6.3867C8.0734 6.47087 8.14376 6.55853 8.12319 6.70134L8.96142 6.00179C8.98745 6.15263 9.05105 6.2856 9.11544 6.42027C9.27503 6.75396 9.43974 7.0984 9.0521 7.75264C9.07814 7.74252 9.10151 7.73367 9.12273 7.72578L9.17773 7.70563L9.18426 7.70321L9.18593 7.7027C9.21318 7.69268 9.23626 7.68428 9.25706 7.67608C9.26923 7.6712 9.2807 7.66646 9.2917 7.66145C9.30121 7.65713 9.31048 7.6527 9.31972 7.64793L9.33182 7.64156C9.70123 7.4481 10.0382 7.27162 10.0676 7.69608C10.0726 7.76958 10.1002 7.83312 10.1395 7.89045C10.2908 7.84428 10.4619 7.82102 10.6327 7.79784C10.7629 7.78022 10.8928 7.76251 11.0136 7.73474C11.3812 7.65067 11.6628 7.54442 11.4178 6.97459C11.3681 6.85895 11.4655 6.76753 11.5593 6.67936C11.5794 6.6605 11.5994 6.64179 11.6177 6.62303C11.6314 6.60888 11.6442 6.59471 11.6555 6.5805C11.6674 6.56539 11.6797 6.55064 11.692 6.53594C11.7992 6.40747 11.9023 6.28387 11.7362 5.98258C11.7034 5.92314 11.7382 5.8671 11.7729 5.81113C11.7889 5.78548 11.8048 5.75985 11.8142 5.73388C11.8089 5.72476 11.8039 5.7158 11.7991 5.70706C11.7883 5.68765 11.7779 5.66904 11.7646 5.65113C11.6902 5.55087 11.615 5.4508 11.5399 5.35082L11.4499 5.23092C11.4679 5.23347 11.4858 5.23547 11.5037 5.23717C11.5277 5.23955 11.5516 5.24136 11.5756 5.24326C11.6699 5.25051 11.7644 5.25771 11.8647 5.29602C12.0039 5.34914 12.1483 5.42836 12.2732 5.49686C12.3223 5.52379 12.3685 5.54913 12.4101 5.57054C12.4693 5.46558 12.5353 5.36745 12.6005 5.27062L12.6026 5.26757C12.748 5.05206 12.889 4.84273 12.9434 4.57946C13.0386 4.11949 13.4628 4.06408 13.8931 4.00786C13.9868 3.99562 14.0807 3.98331 14.1717 3.96691C14.1885 3.96385 14.2052 3.96068 14.2218 3.9573C14.3678 3.92795 14.4854 3.85993 14.6024 3.79221C14.6366 3.7725 14.6706 3.75282 14.7053 3.73413C14.7796 3.69393 14.8501 3.64929 14.9205 3.60458L14.9219 3.60381C15.041 3.5282 15.16 3.45264 15.2983 3.39945C15.3281 3.3879 15.3606 3.37875 15.3926 3.36988C15.5624 3.32244 15.7147 3.27989 15.3435 2.89666C15.3576 2.8947 15.3715 2.89294 15.3852 2.89136L15.4355 2.88604L15.4987 2.88014C15.6003 2.87102 15.6855 2.86336 15.7517 2.83382C15.8248 2.80118 15.8713 2.72261 15.8799 2.63625C15.8864 2.57023 15.8654 2.48826 15.8443 2.40631C15.8352 2.37073 15.826 2.33502 15.8192 2.30079L16.0374 2.43568C16.1117 2.48173 16.1859 2.52826 16.2594 2.57642C16.2957 2.60025 16.3308 2.63053 16.3814 2.67423C16.4088 2.69796 16.4409 2.72564 16.4803 2.75848C16.5101 2.73074 16.5388 2.70193 16.5675 2.67314C16.6373 2.60319 16.7069 2.53342 16.7916 2.47972C16.8487 2.44366 16.9812 2.42793 17.0503 2.47737C17.1093 2.5193 17.1533 2.60104 17.197 2.68228C17.2149 2.71549 17.2327 2.74858 17.2515 2.77883C17.2539 2.7827 17.255 2.78655 17.2556 2.79048L17.2559 2.7935L17.2564 2.7988C17.2565 2.80182 17.2567 2.80493 17.2573 2.80806C17.2578 2.81077 17.2585 2.81354 17.2597 2.81626C17.2807 2.86014 17.3051 2.91396 17.3303 2.96941L17.3343 2.97825L17.3378 2.98596C17.4008 3.12524 17.4651 3.26729 17.4813 3.27158C17.7087 3.33124 17.6775 3.20544 17.644 3.07055C17.6315 3.02004 17.6187 2.96834 17.619 2.92455C17.6196 2.83862 17.6921 2.78981 17.7731 2.73522C17.8115 2.7094 17.8518 2.68222 17.8872 2.64923C17.7719 2.47177 17.6056 2.45655 17.4466 2.44201C17.2542 2.42447 17.0721 2.40782 17.0028 2.10613C17.0111 2.06199 17.0168 2.0159 17.0226 1.96982L17.0232 1.96561C17.0365 1.85773 17.0499 1.74997 17.0953 1.66671C17.1536 1.55979 17.2487 1.45207 17.391 1.44548C17.6231 1.43419 17.8742 1.45286 18.1442 1.47292C18.2594 1.48147 18.378 1.49027 18.5001 1.4972C18.4447 1.4516 18.3938 1.41253 18.3476 1.37708C18.2571 1.30753 18.1849 1.25207 18.1333 1.18974C18.0344 1.07029 17.9241 0.916273 17.9117 0.817234C17.9027 0.745988 18.0264 0.707232 18.1234 0.711641C18.1489 0.712751 19.1878 1.63464 19.505 1.93024ZM9.70327 9.31518C9.66722 9.31353 9.63001 9.31208 9.59169 9.31063C9.53249 9.30839 9.47072 9.30627 9.40554 9.30262C9.44487 9.3392 9.48049 9.37417 9.51429 9.40735L9.51512 9.40815C9.60084 9.49232 9.67491 9.56504 9.76486 9.62089C9.78773 9.63532 9.85615 9.60164 9.92407 9.56808C9.93528 9.56253 9.9465 9.55698 9.95748 9.55164L9.70327 9.31518ZM9.83802 11.5046C9.78578 11.4852 9.73361 11.466 9.6819 11.4474L10.0195 12.0245C10.072 11.8488 10.0025 11.7153 9.86359 11.5954C9.8425 11.5772 9.83661 11.5444 9.83802 11.5046ZM10.0033 12.0706L9.56477 11.9902L9.37783 12.5625C9.42117 12.5559 9.4627 12.5467 9.50395 12.5376C9.55212 12.527 9.59985 12.5164 9.64971 12.5104C9.65791 12.5094 9.66617 12.5085 9.67447 12.5077C9.68286 12.4952 9.69196 12.4838 9.70194 12.474C9.86086 12.3175 9.95692 12.1853 10.0033 12.0706ZM15.8499 17.5251C15.9715 17.0535 16.0601 16.7096 16.1539 16.3476C16.1539 16.3476 16.153 16.3472 16.1496 16.3464C16.1464 16.3458 16.1415 16.3449 16.1354 16.3444C16.1283 16.3437 16.1194 16.3433 16.1096 16.3439C16.1063 16.3441 16.1028 16.3444 16.0993 16.3449C16.0949 16.3454 16.0905 16.3462 16.086 16.3471C16.0485 16.3551 15.9997 16.3725 15.966 16.3999L15.9498 16.4132C15.8029 16.5331 15.7331 16.59 15.699 16.5824C15.6682 16.5755 15.6664 16.5157 15.663 16.4019L15.6622 16.3753C15.6612 16.334 15.6112 16.3162 15.5612 16.2984C15.5384 16.2904 15.5156 16.2823 15.4975 16.272C15.4834 16.2901 15.4674 16.309 15.4507 16.3282L15.4162 16.3672C15.3875 16.3995 15.3587 16.4319 15.3352 16.4623C15.3291 16.47 15.3235 16.4777 15.3183 16.4851C15.3143 16.4908 15.3105 16.4964 15.307 16.5019C15.3033 16.5078 15.2998 16.5135 15.2968 16.5191L15.2928 16.527C15.2904 16.5316 15.2884 16.5361 15.2867 16.5405C15.2835 16.5485 15.2815 16.5561 15.2807 16.5634C15.2663 16.6854 15.3103 16.7931 15.3664 16.8782C15.4624 17.0235 15.5687 17.1608 15.6919 17.3198C15.7415 17.3839 15.7943 17.4519 15.8499 17.5251ZM2.35709 4.7298C2.7649 4.10105 2.72389 3.96031 2.19355 4.07963L2.35709 4.7298Z" fill="white"/>
<path d="M7.49953 4.86047C7.35317 4.84593 7.24416 4.83515 7.15963 4.79603C7.13298 4.78355 7.16865 4.69846 7.20447 4.61324L7.21301 4.5931L7.22427 4.56539C7.23326 4.54326 7.24142 4.52209 7.24757 4.5033C7.29279 4.50548 7.33911 4.50647 7.38534 4.50736C7.50547 4.50971 7.62572 4.51212 7.72887 4.53758C7.75643 4.54452 7.74854 4.59959 7.73576 4.68899C7.72818 4.74255 7.71871 4.80831 7.71413 4.88347C7.6795 4.87892 7.64642 4.8752 7.61478 4.87188L7.58594 4.86892L7.52797 4.86327L7.49953 4.86047Z" fill="white"/>
<path d="M2.61304 6.37901C2.59748 6.37798 2.58179 6.37725 2.56653 6.37664C2.49488 6.37361 2.43024 6.37085 2.41467 6.3343C2.3484 6.17803 2.31719 5.9956 2.29327 5.81198C2.28668 5.76202 2.33936 5.65065 2.39357 5.60545C2.44555 5.56216 2.58761 5.53192 2.59964 5.55905C2.6797 5.74011 2.74221 5.93471 2.79308 6.13543C2.79909 6.15945 2.77435 6.20232 2.73889 6.26352C2.71879 6.29824 2.69528 6.33892 2.67196 6.38535C2.65306 6.38219 2.63316 6.38033 2.61304 6.37901Z" fill="white"/>
<path d="M16.9324 15.1831C16.8907 15.1527 16.8476 15.1235 16.8045 15.0943C16.6904 15.0169 16.5764 14.9396 16.4872 14.8407C16.4787 14.8312 16.4808 14.8121 16.4896 14.7874C16.4952 14.7714 16.5036 14.753 16.5135 14.7331C16.5271 14.7062 16.5435 14.6767 16.5599 14.6472C16.5814 14.6085 16.6028 14.5698 16.6178 14.5368C16.6444 14.537 16.676 14.5334 16.7075 14.5299C16.7771 14.5221 16.8468 14.5142 16.8629 14.5456C16.9243 14.663 16.9656 14.7955 17.0069 14.9279L17.0188 14.966L17.0319 15.0087C17.0389 15.0311 17.046 15.0535 17.0535 15.0756C17.0132 15.1114 16.9731 15.1475 16.9324 15.1831Z" fill="white"/>
<path d="M12.6474 11.8001L12.6367 11.8035L12.6152 11.8104C12.5804 11.8215 12.5422 11.8337 12.5002 11.8474L12.6822 11.4041C12.7089 11.4031 12.7409 11.3984 12.7729 11.3937C12.8444 11.3833 12.9159 11.3727 12.9288 11.4034C12.9522 11.4575 12.938 11.5378 12.9239 11.6182C12.9179 11.6516 12.912 11.685 12.9088 11.7165L12.7912 11.7543L12.6474 11.8001Z" fill="white"/>
</svg>
