<svg viewBox="0 0 19 20" fill="none" xmlns="http://www.w3.org/2000/svg">
<g opacity="0.9">
<path d="M1.41305 6.00428C2.46911 6.59945 4.85434 6.96768 4.50839 7.80262C4.4219 8.01243 4.50839 8.23222 4.00312 8.4092C3.68903 8.5191 3.31577 8.71178 3.57523 8.78742C5.16387 9.23986 3.88477 9.81647 4.34907 10.3117C4.77695 10.7685 5.31409 11.2409 3.6162 11.5877C3.22928 11.6676 3.34308 11.7618 3.57979 11.886C4.1852 12.2014 5.54168 12.5325 3.65262 12.8765C3.59344 12.8865 3.59344 12.9621 3.64807 12.9935C5.62362 14.1568 4.98634 15.3656 4.44466 16.5902C3.98491 17.6264 4.63584 18.6612 5 19.6931C4.20341 19.9857 3.32488 20.1327 2.20509 19.8429C0.862261 19.6588 0.265953 19.3391 0.438928 18.881C0.666526 18.2772 0.416168 17.6578 1.24007 17.0712C1.73169 16.7215 1.53595 16.379 1.04434 15.9893C0.161258 15.2871 0.3752 14.4993 0.634662 13.7657C0.871365 13.0892 0.757566 12.4469 0.284161 11.7989C-0.0390285 11.3508 -0.120964 11.0039 1.92287 11.2309C2.34165 11.278 2.85602 11.288 3.12914 11.1381C3.36129 11.0097 3.01079 10.9226 2.77864 10.8298C1.8728 10.4673 0.39796 10.1305 0.197674 9.73227C-0.189244 8.95299 0.0929784 8.13802 0.197674 7.33876C0.256849 6.89203 0.661975 6.45244 0.46624 6C0.780326 6.00285 1.08986 6.00571 1.40395 6.00713L1.41305 6.00428Z" fill="#003C74"/>
<path d="M9.06126 12.1449C9.93236 11.9117 11.0332 12.0676 12 12C12 12.5063 12 13.0126 12 13.5189C11.9474 13.9065 10.0712 14.159 11.0236 14.6198C12.4786 15.3123 11.5357 16.0835 11.7368 16.8119C11.9904 17.7293 11.3347 18.6646 11.3156 19.593C11.3108 19.9186 10.4541 19.862 10.0664 20C6.41449 20 6.67773 20.0179 8.0418 19.0164C8.71666 18.5184 8.43427 17.8424 7.93172 17.2975C7.20421 16.5097 7.91257 15.6999 7.05584 14.9246C6.72081 14.6225 7.97479 14.6929 8.64965 14.566C6.0651 13.7258 7.52968 12.9353 9.06126 12.1449Z" fill="#003C74"/>
<path d="M14.7397 0.886318C14.8369 0.782694 14.9405 0.680172 15.0345 0.575445C15.1252 0.474026 15.0961 0.330716 15.4913 0.316385C15.9092 0.302054 15.919 0.442057 16.0259 0.542374C16.1425 0.65151 16.1004 0.847735 16.6285 0.79923C17.0432 0.760646 17.3801 0.583162 17.1598 0.447569C16.3401 -0.0529147 17.393 0.00881901 18.2483 0C17.8823 0.895137 18.7829 1.8002 18.0442 2.69644C17.8434 2.94117 17.7948 3.19582 18.4006 3.4207C18.7764 3.5596 17.7178 3.76685 17.7178 3.94875C17.7275 4.83727 18.6047 5.7269 18.9676 6.61211C19.0518 6.82046 18.7926 7.00787 18.4233 7.17433C18.0799 7.61087 18.4946 8.04632 18.6566 8.46302C18.9838 9.30304 18.2653 10.1287 17.7923 10.9709C17.4651 11.553 18.7311 12.1406 18.8574 12.7226C19.0356 13.5406 19.1166 14.3343 18.6728 15.1644C18.4201 15.6418 17.6951 16.2337 17.9057 16.7629C18.2912 17.7396 18.527 18.6943 18.689 19.6633C18.7246 19.8749 18.2775 20.016 17.6522 19.9929C17.001 19.9686 16.366 20.016 15.7246 19.994C15.4881 19.994 15.2516 19.9929 15.0151 19.9863C13.8779 19.8672 13.8228 19.5585 14.2343 19.2862C14.9503 18.8166 14.9146 18.3051 14.7202 17.8454C14.4546 17.2127 14.176 16.5722 14.1986 15.9449C14.2213 15.3132 14.6709 14.6397 15.7433 14.0345C16.1968 13.7787 14.7364 13.5417 14.568 13.3003C14.5842 12.8042 14.6295 12.307 14.1047 11.8308C14.2894 11.4714 15.4298 11.2058 14.9859 10.7857C14.1792 10.1618 15.2022 9.49816 15.3999 8.84665C15.5392 8.38254 14.5356 7.93608 14.2051 7.4852C13.9654 7.1589 13.839 6.83479 14.4578 6.53274C14.6198 6.45447 14.6522 6.36518 14.5777 6.27037C13.852 5.36201 14.0431 4.43821 14.2019 3.51551C14.244 3.25976 13.8455 3.01172 14.1176 2.75376C14.2051 2.1265 13.69 1.4772 14.7429 0.888523L14.7397 0.886318Z" fill="#003C74"/>
</g>
</svg>
