{
	"asset":{
		"generator":"Khronos glTF Blender I/O v4.0.44",
		"version":"2.0"
	},
	"extensionsUsed":[
		"KHR_texture_transform"
	],
	"extensionsRequired":[
		"KHR_texture_transform"
	],
	"scene":0,
	"scenes":[
		{
			"name":"Scene",
			"nodes":[
				0,
				1,
				2
			]
		}
	],
	"nodes":[
		{
			"mesh":0,
			"name":"Cylinder.003",
			"rotation":[
				0.22339044511318207,
				0.2233903706073761,
				-0.6708925366401672,
				0.6708924174308777
			],
			"scale":[
				22.19314193725586,
				15.290059089660645,
				13.45681381225586
			],
			"translation":[
				29.54171371459961,
				17.502239227294922,
				42.69025802612305
			]
		},
		{
			"mesh":1,
			"name":"Cylinder.001",
			"rotation":[
				-0.648564875125885,
				0.6485648155212402,
				0.2817155718803406,
				0.2817156910896301
			],
			"scale":[
				-13.163302421569824,
				-18.526201248168945,
				-7.098191738128662
			],
			"translation":[
				27.319875717163086,
				17.32450294494629,
				42.70236587524414
			]
		},
		{
			"mesh":2,
			"name":"Cylinder.005",
			"rotation":[
				0.22339046001434326,
				0.2233903706073761,
				-0.6708924770355225,
				0.6708924770355225
			],
			"scale":[
				17.10313606262207,
				30.068058013916016,
				10.74881362915039
			],
			"translation":[
				29.54171371459961,
				17.502239227294922,
				42.69025802612305
			]
		}
	],
	"materials":[
		{
			"alphaMode":"BLEND",
			"doubleSided":true,
			"emissiveFactor":[
				0.7000002861022949,
				0.008140276186168194,
				0.14425648748874664
			],
			"name":"Material.008",
			"pbrMetallicRoughness":{
				"baseColorTexture":{
					"extensions":{
						"KHR_texture_transform":{
							"scale":[
								3.5999999046325684,
								1
							]
						}
					},
					"index":0
				}
			}
		},
		{
			"alphaMode":"BLEND",
			"doubleSided":true,
			"emissiveFactor":[
				0.7000002861022949,
				0.008140276186168194,
				0.14425648748874664
			],
			"name":"Material.001",
			"pbrMetallicRoughness":{
				"baseColorTexture":{
					"extensions":{
						"KHR_texture_transform":{
							"scale":[
								1.440000057220459,
								1
							]
						}
					},
					"index":1
				}
			}
		}
	],
	"meshes":[
		{
			"name":"Cylinder.003",
			"primitives":[
				{
					"attributes":{
						"POSITION":0,
						"NORMAL":1,
						"TEXCOORD_0":2
					},
					"indices":3,
					"material":0
				}
			]
		},
		{
			"name":"Cylinder.005",
			"primitives":[
				{
					"attributes":{
						"POSITION":4,
						"NORMAL":5,
						"TEXCOORD_0":6
					},
					"indices":7,
					"material":0
				}
			]
		},
		{
			"name":"Cylinder.001",
			"primitives":[
				{
					"attributes":{
						"POSITION":8,
						"NORMAL":9,
						"TEXCOORD_0":10
					},
					"indices":3,
					"material":1
				}
			]
		}
	],
	"textures":[
		{
			"sampler":0,
			"source":0
		},
		{
			"sampler":0,
			"source":0
		}
	],
	"images":[
		{
			"mimeType":"image/png",
			"name":"Texture_17",
			"uri":"Texture_17.png"
		}
	],
	"accessors":[
		{
			"bufferView":0,
			"componentType":5126,
			"count":384,
			"max":[
				1,
				3.761991262435913,
				1.5148147344589233
			],
			"min":[
				-1,
				-3.761988639831543,
				-1.5148109197616577
			],
			"type":"VEC3"
		},
		{
			"bufferView":1,
			"componentType":5126,
			"count":384,
			"type":"VEC3"
		},
		{
			"bufferView":2,
			"componentType":5126,
			"count":384,
			"type":"VEC2"
		},
		{
			"bufferView":3,
			"componentType":5123,
			"count":576,
			"type":"SCALAR"
		},
		{
			"bufferView":4,
			"componentType":5126,
			"count":128,
			"max":[
				1,
				3.7619924545288086,
				1.5148147344589233
			],
			"min":[
				-1,
				-3.7619881629943848,
				-1.5148109197616577
			],
			"type":"VEC3"
		},
		{
			"bufferView":5,
			"componentType":5126,
			"count":128,
			"type":"VEC3"
		},
		{
			"bufferView":6,
			"componentType":5126,
			"count":128,
			"type":"VEC2"
		},
		{
			"bufferView":7,
			"componentType":5123,
			"count":192,
			"type":"SCALAR"
		},
		{
			"bufferView":8,
			"componentType":5126,
			"count":384,
			"max":[
				1,
				3.761991262435913,
				1.5148147344589233
			],
			"min":[
				-1,
				-3.761988639831543,
				-1.5148109197616577
			],
			"type":"VEC3"
		},
		{
			"bufferView":9,
			"componentType":5126,
			"count":384,
			"type":"VEC3"
		},
		{
			"bufferView":10,
			"componentType":5126,
			"count":384,
			"type":"VEC2"
		}
	],
	"bufferViews":[
		{
			"buffer":0,
			"byteLength":4608,
			"byteOffset":0,
			"target":34962
		},
		{
			"buffer":0,
			"byteLength":4608,
			"byteOffset":4608,
			"target":34962
		},
		{
			"buffer":0,
			"byteLength":3072,
			"byteOffset":9216,
			"target":34962
		},
		{
			"buffer":0,
			"byteLength":1152,
			"byteOffset":12288,
			"target":34963
		},
		{
			"buffer":0,
			"byteLength":1536,
			"byteOffset":13440,
			"target":34962
		},
		{
			"buffer":0,
			"byteLength":1536,
			"byteOffset":14976,
			"target":34962
		},
		{
			"buffer":0,
			"byteLength":1024,
			"byteOffset":16512,
			"target":34962
		},
		{
			"buffer":0,
			"byteLength":384,
			"byteOffset":17536,
			"target":34963
		},
		{
			"buffer":0,
			"byteLength":4608,
			"byteOffset":17920,
			"target":34962
		},
		{
			"buffer":0,
			"byteLength":4608,
			"byteOffset":22528,
			"target":34962
		},
		{
			"buffer":0,
			"byteLength":3072,
			"byteOffset":27136,
			"target":34962
		}
	],
	"samplers":[
		{
			"magFilter":9729,
			"minFilter":9987
		}
	],
	"buffers":[
		{
			"byteLength":30208,
			"uri":"scene-4.bin"
		}
	]
}
