{
  "asset": {
    "generator": "glTF-Transform v3.10.1",
    "version": "2.0"
  },
  "accessors": [
    {
      "type": "VEC3",
      "componentType": 5126,
      "count": 4,
      "max": [
        0.683810830116272,
        0.5004252195358276,
        0.465504914522171
      ],
      "min": [
        0.3161891996860504,
        -0.5004252195358276,
        -0.465504914522171
      ],
      "bufferView": 0,
      "byteOffset": 0
    },
    {
      "type": "VEC3",
      "componentType": 5126,
      "count": 4,
      "bufferView": 0,
      "byteOffset": 12
    },
    {
      "type": "VEC2",
      "componentType": 5126,
      "count": 4,
      "bufferView": 0,
      "byteOffset": 24
    },
    {
      "type": "VEC3",
      "componentType": 5126,
      "count": 4,
      "max": [
        -0.3161891996860504,
        0.5004252195358276,
        0.465504914522171
      ],
      "min": [
        -0.683810830116272,
        -0.5004252195358276,
        -0.465504914522171
      ],
      "bufferView": 1,
      "byteOffset": 0
    },
    {
      "type": "VEC3",
      "componentType": 5126,
      "count": 4,
      "bufferView": 1,
      "byteOffset": 12
    },
    {
      "type": "VEC2",
      "componentType": 5126,
      "count": 4,
      "bufferView": 1,
      "byteOffset": 24
    },
    {
      "type": "SCALAR",
      "componentType": 5123,
      "count": 6,
      "bufferView": 2,
      "byteOffset": 0
    }
  ],
  "bufferViews": [
    {
      "buffer": 0,
      "byteOffset": 0,
      "byteLength": 128,
      "byteStride": 32,
      "target": 34962
    },
    {
      "buffer": 0,
      "byteOffset": 128,
      "byteLength": 128,
      "byteStride": 32,
      "target": 34962
    },
    {
      "buffer": 0,
      "byteOffset": 256,
      "byteLength": 12,
      "target": 34963
    }
  ],
  "samplers": [
    {
      "magFilter": 9729,
      "minFilter": 9987,
      "wrapS": 10497,
      "wrapT": 10497
    }
  ],
  "textures": [
    {
      "sampler": 0,
      "extensions": {
        "KHR_texture_basisu": {
          "source": 0
        }
      }
    }
  ],
  "images": [
    {
      "name": "Paint",
      "mimeType": "image/ktx2",
      "uri": "Paint.ktx2"
    }
  ],
  "buffers": [
    {
      "uri": "clouds.bin",
      "byteLength": 268
    }
  ],
  "materials": [
    {
      "name": "paint_scroll.001",
      "doubleSided": true,
      "pbrMetallicRoughness": {
        "baseColorTexture": {
          "index": 0
        }
      }
    }
  ],
  "meshes": [
    {
      "name": "Plane.003",
      "primitives": [
        {
          "attributes": {
            "POSITION": 0,
            "NORMAL": 1,
            "TEXCOORD_0": 2
          },
          "mode": 4,
          "material": 0,
          "indices": 6
        }
      ]
    },
    {
      "name": "Plane.006",
      "primitives": [
        {
          "attributes": {
            "POSITION": 3,
            "NORMAL": 4,
            "TEXCOORD_0": 5
          },
          "mode": 4,
          "material": 0,
          "indices": 6
        }
      ]
    }
  ],
  "nodes": [
    {
      "name": "Clouds_02",
      "mesh": 0
    },
    {
      "name": "Clouds_01",
      "mesh": 1
    }
  ],
  "scenes": [
    {
      "name": "Scene",
      "nodes": [
        0,
        1
      ]
    }
  ],
  "scene": 0,
  "extensionsUsed": [
    "KHR_texture_basisu"
  ],
  "extensionsRequired": [
    "KHR_texture_basisu"
  ]
}